<svg xmlns="http://www.w3.org/2000/svg" xmlns:xlink="http://www.w3.org/1999/xlink" version="1.1" baseProfile="full" width="1108" height="550" style="user-select: none; position: absolute; left: 0px; top: 0px;">
<g>
<rect width="1108" height="550" x="0" y="0" id="0" style="fill: transparent;">
</rect>
</g>
<g>
<path d="M -21 -5 L 21 -5 L 21 21 L -21 21 L -21 -5" fill="rgba(0,0,0,0)" fill-opacity="1" stroke="#ccc" stroke-width="0" paint-order="fill" stroke-opacity="1" stroke-dasharray="" stroke-linecap="butt" stroke-miterlimit="10" transform="matrix(1,0,0,1,554,5)">
</path>
<text xml:space="preserve" fill="#34471f" fill-opacity="1" stroke="none" transform="matrix(1,0,0,1,554,5)" dominant-baseline="central" text-anchor="middle" x="0" y="8" style="font: 16px &quot;Microsoft YaHei&quot;;">上海</text>
<path d="M 528.0086 294.8323 L 528.8406 297.2978 L 529.0743 298.5085 L 529.2698 301.0891 L 530.4234 300.64 L 530.6993 301.1288 L 531.2934 303.577 L 531.5079 305.4618 L 532.7652 305.9727 L 533.0527 306.7082 L 537.1228 305.3916 L 538.1921 304.8807 L 539.139 303.8722 L 540.0357 302.3483 L 541.9788 298.5218 L 542.4042 296.9237 L 542.2625 295.4708 L 541.5303 293.758 L 540.2273 291.9574 L 538.4989 290.1347 L 537.8778 288.9685 L 537.8778 287.4935 L 538.2458 286.7411 L 536.3104 286.0149 L 535.8043 286.0498 L 534.9842 286.8466 L 533.8612 287.4454 L 532.7384 287.0315 L 531.2818 287.8416 L 529.4652 287.0403 L 530.3352 289.4217 L 530.7567 292.8336 L 530.7032 293.4849 L 527.752 293.4717 L 528.0086 294.8323 Z" fill="[object Object]" fill-opacity="1" stroke="dodgerblue" stroke-width="1" paint-order="fill" stroke-opacity="1" stroke-dasharray="" stroke-linecap="butt" stroke-miterlimit="10" style="filter: url(&quot;#zr2323-shadow-0&quot;);">
</path>
<path d="M 528.0086 294.8323 L 526.4911 295.8493 L 525.0538 296.4437 L 522.9842 296.9325 L 522.4323 298.0157 L 521.8189 298.1608 L 522.5627 300.794 L 521.2097 301.7849 L 518.6648 303.2426 L 518.0708 303.9644 L 518.178 305.0877 L 517.5418 305.6382 L 515.5716 305.5192 L 515.844 307.0959 L 516.3115 306.9022 L 516.2845 308.3599 L 515.2651 308.8576 L 512.1339 310.0426 L 511.6509 309.6416 L 511.5743 310.2583 L 510.5739 310.3859 L 510.8421 311.5929 L 510.0909 312.1479 L 510.4667 313.4696 L 509.7651 313.7647 L 510.6084 317.1039 L 512.8351 316.1391 L 513.368 317.8438 L 512.6207 317.8658 L 510.9686 318.4826 L 511.26 319.6459 L 512.5055 319.2449 L 512.3753 318.7163 L 513.4714 318.1742 L 515.2191 323.6687 L 515.9129 325.3079 L 517.1776 327.3702 L 518.0399 329.036 L 522.1525 328.3354 L 522.7272 331.0237 L 522.8116 331.9888 L 521.957 334.0339 L 522.5817 334.5628 L 523.5589 334.3908 L 524.728 333.5138 L 524.981 333.7608 L 526.1115 333.3506 L 525.9315 334.2985 L 526.5407 335.8543 L 525.2338 336.2818 L 524.8622 336.8989 L 526.4068 337.5954 L 526.6138 338.5566 L 527.384 338.7326 L 529.4346 338.2919 L 529.538 335.8543 L 530.0821 334.5628 L 531.209 332.1256 L 531.3124 329.8732 L 531.0519 328.7673 L 529.3158 326.3433 L 527.9436 323.4878 L 527.9436 321.9371 L 528.7524 320.5313 L 530.228 318.7516 L 530.9485 317.6589 L 531.2283 316.1126 L 530.8948 314.3506 L 529.9978 311.2933 L 529.9978 310.3333 L 530.3697 309.2057 L 531.0519 308.0913 L 533.0527 306.7082 L 532.7652 305.9727 L 531.5079 305.4618 L 531.2934 303.577 L 530.6993 301.1288 L 530.4234 300.64 L 529.2698 301.0891 L 529.0743 298.5085 L 528.8406 297.2978 L 528.0086 294.8323 Z" fill="[object Object]" fill-opacity="1" stroke="dodgerblue" stroke-width="1" paint-order="fill" stroke-opacity="1" stroke-dasharray="" stroke-linecap="butt" stroke-miterlimit="10" style="filter: url(&quot;#zr2323-shadow-0&quot;);">
</path>
<path d="M 522.9842 296.9325 L 522.0758 294.6563 L 521.8688 293.0405 L 521.5623 292.741 L 520.1096 293.7668 L 519.7454 293.353 L 519.6919 291.4906 L 518.5383 291.9221 L 517.603 292.9964 L 516.411 291.7504 L 516.2004 291.9441 L 516.5069 293.2603 L 516.0086 293.6698 L 514.5062 294.0355 L 513.1533 294.6912 L 512.2334 294.6078 L 512.0266 295.3781 L 508.9795 295.4046 L 505.741 294.6519 L 504.7175 294.8717 L 504.2232 293.9826 L 502.924 293.4103 L 502.7515 292.6969 L 501.659 292.7101 L 500.8235 291.2925 L 499.4744 288.6116 L 499.1103 288.1628 L 497.9759 287.7842 L 498.3591 286.8775 L 498.0258 286.1336 L 497.5735 286.3802 L 497.4469 287.1723 L 496.8377 286.2479 L 497.1059 287.5949 L 495.8067 287.5729 L 495.1129 288.462 L 496.5348 289.6462 L 497.0483 291.0855 L 497.0445 292.0059 L 496.0022 292.5914 L 495.8412 293.3353 L 497.1175 293.6084 L 496.4198 293.7756 L 496.2437 295.717 L 495.3927 296.1485 L 495.5653 297.7426 L 495.1551 297.7779 L 495.1358 299.8075 L 495.27 303.4888 L 494.8331 303.7928 L 495.0286 304.9686 L 493.3076 306.0697 L 495.109 309.5666 L 495.9562 309.8136 L 498.7155 308.3202 L 499.2329 309.0075 L 500.241 308.5889 L 500.6168 307.3955 L 501.1493 307.6598 L 502.7209 307.5583 L 506.5956 305.9069 L 509.7422 305.2284 L 515.5716 305.5192 L 517.5418 305.6382 L 518.178 305.0877 L 518.0708 303.9644 L 518.6648 303.2426 L 521.2097 301.7849 L 522.5627 300.794 L 521.8189 298.1608 L 522.4323 298.0157 L 522.9842 296.9325 Z" fill="[object Object]" fill-opacity="1" stroke="dodgerblue" stroke-width="1" paint-order="fill" stroke-opacity="1" stroke-dasharray="" stroke-linecap="butt" stroke-miterlimit="10" style="filter: url(&quot;#zr2323-shadow-0&quot;);">
</path>
<path d="M 528.0086 294.8323 L 527.752 293.4717 L 530.7032 293.4849 L 530.7567 292.8336 L 530.3352 289.4217 L 529.4652 287.0403 L 531.2818 287.8416 L 532.7384 287.0315 L 533.8612 287.4454 L 534.9842 286.8466 L 534.4974 284.6281 L 534.0453 283.9459 L 534.6201 283.6247 L 534.0566 282.6345 L 534.3213 281.9524 L 534.2942 280.7288 L 532.5391 278.9333 L 531.2934 277.336 L 529.9212 274.9112 L 529.4269 274.5463 L 529.0473 273.2481 L 529.1432 271.1273 L 528.668 269.2576 L 529.3197 268.1664 L 529.8944 266.2397 L 529.6185 263.2923 L 530.7605 263.1824 L 530.937 259.6065 L 530.8909 258.032 L 530.1282 257.6361 L 527.8554 257.7813 L 527.1847 258.4278 L 525.3066 259.2151 L 524.9849 258.2168 L 522.2407 258.2738 L 522.1563 257.8298 L 521.3668 257.8298 L 521.0562 258.6388 L 521.6502 260.9786 L 520.9721 261.2076 L 520.8379 262.0169 L 521.0487 263.3276 L 520.7306 264.1634 L 519.3928 264.3218 L 519.5309 266.0416 L 518.6226 266.508 L 517.63 266.6355 L 517.2465 268.3468 L 517.5341 268.7824 L 518.6684 268.8044 L 518.4002 271.2857 L 518.841 272.764 L 518.8793 275.8176 L 519.067 276.284 L 520.332 274.7175 L 521.041 275.8132 L 522.3325 276.7332 L 523.9462 277.5866 L 526.1769 281.5738 L 525.7016 282.8018 L 526.2918 283.145 L 526.0004 284.7075 L 525.4254 285.6363 L 525.8855 286.3405 L 524.7241 287.058 L 521.7999 289.2985 L 520.654 289.3515 L 519.7992 290.8084 L 519.6919 291.4906 L 519.7454 293.353 L 520.1096 293.7668 L 521.5623 292.741 L 521.8688 293.0405 L 522.0758 294.6563 L 522.9842 296.9325 L 525.0538 296.4437 L 526.4911 295.8493 L 528.0086 294.8323 Z" fill="[object Object]" fill-opacity="1" stroke="dodgerblue" stroke-width="1" paint-order="fill" stroke-opacity="1" stroke-dasharray="" stroke-linecap="butt" stroke-miterlimit="10" style="filter: url(&quot;#zr2323-shadow-0&quot;);">
</path>
<path d="M 499.4744 288.6116 L 500.8235 291.2925 L 501.659 292.7101 L 502.7515 292.6969 L 502.924 293.4103 L 504.2232 293.9826 L 504.7175 294.8717 L 505.741 294.6519 L 508.9795 295.4046 L 512.0266 295.3781 L 512.2334 294.6078 L 513.1533 294.6912 L 514.5062 294.0355 L 516.0086 293.6698 L 516.5069 293.2603 L 516.2004 291.9441 L 516.411 291.7504 L 517.603 292.9964 L 518.5383 291.9221 L 519.6919 291.4906 L 519.7992 290.8084 L 520.654 289.3515 L 521.7999 289.2985 L 524.7241 287.058 L 525.8855 286.3405 L 525.4254 285.6363 L 526.0004 284.7075 L 526.2918 283.145 L 525.7016 282.8018 L 526.1769 281.5738 L 523.9462 277.5866 L 522.3325 276.7332 L 521.041 275.8132 L 520.332 274.7175 L 519.067 276.284 L 517.4803 278.2776 L 516.4532 278.0354 L 516.3154 276.8431 L 515.0275 276.3899 L 515.1273 275.36 L 513.6056 275.3997 L 513.8967 274.0049 L 513.3641 274.2383 L 512.13 273.5605 L 513.3335 270.5642 L 512.2105 270.6039 L 511.6776 270.2254 L 511.9845 269.5789 L 511.5244 268.9849 L 510.3095 268.7078 L 510.6621 267.4581 L 508.9067 267.2427 L 507.9063 267.5419 L 507.0402 268.1796 L 507.0173 269.3852 L 505.5569 268.9584 L 505.1698 269.5083 L 503.8784 269.0551 L 503.7441 269.4995 L 502.123 268.6857 L 502.123 268.4306 L 500.6895 267.9025 L 501.1609 267.4581 L 502.0538 264.4931 L 501.1648 264.5019 L 499.647 265.5711 L 499.1373 264.8893 L 498.0181 265.7777 L 498.229 266.3893 L 497.4662 266.8425 L 497.4546 266.3628 L 495.8219 266.4418 L 495.8451 267.8102 L 495.2011 267.9907 L 494.6032 267.3747 L 493.4228 268.0741 L 493.5874 268.8397 L 491.813 269.57 L 492.0699 270.9469 L 492.5335 271.1626 L 493.5645 270.6216 L 494.1892 272.9577 L 494.4805 272.8346 L 494.5266 274.5198 L 495.2585 274.687 L 495.09 275.4835 L 496.5425 275.9981 L 496.8683 275.0873 L 500.3408 276.0069 L 500.7813 276.9706 L 501.4291 276.2182 L 503.1308 276.6626 L 503.0081 277.7539 L 501.6935 277.4238 L 501.0382 277.6307 L 500.7813 278.876 L 501.5711 280.2227 L 502.7399 280.4384 L 502.7016 281.0544 L 505.0971 281.2834 L 505.2581 280.3899 L 505.9059 280.3943 L 506.837 281.0236 L 505.8254 284.7163 L 505.4036 285.9046 L 504.6907 285.4646 L 504.4837 286.1733 L 503.3916 284.8394 L 502.9315 285.2224 L 501.9388 287.52 L 501.2643 288.0525 L 501.1033 287.3704 L 499.9957 287.4979 L 499.9918 288.3609 L 499.4744 288.6116 Z" fill="[object Object]" fill-opacity="1" stroke="dodgerblue" stroke-width="1" paint-order="fill" stroke-opacity="1" stroke-dasharray="" stroke-linecap="butt" stroke-miterlimit="10" style="filter: url(&quot;#zr2323-shadow-0&quot;);">
</path>
<path d="M 535.651 261.2469 L 535.6397 260.1211 L 533.9304 260.0991 L 532.2171 259.6944 L 530.937 259.6065 L 530.7605 263.1824 L 529.6185 263.2923 L 529.8944 266.2397 L 529.3197 268.1664 L 528.668 269.2576 L 529.1432 271.1273 L 529.0473 273.2481 L 529.4269 274.5463 L 529.9212 274.9112 L 531.2934 277.336 L 532.5391 278.9333 L 534.2942 280.7288 L 534.3213 281.9524 L 534.0566 282.6345 L 534.6201 283.6247 L 534.0453 283.9459 L 534.4974 284.6281 L 534.9842 286.8466 L 535.8043 286.0498 L 536.3104 286.0149 L 538.2458 286.7411 L 539.6754 285.7197 L 541.5687 285.1739 L 544.2172 284.9979 L 544.083 283.2902 L 544.5353 283.1936 L 543.6882 281.5561 L 542.0094 279.2325 L 541.4115 277.723 L 541.4653 276.3105 L 539.6487 274.357 L 538.7249 274.1721 L 538.583 271.7522 L 539.1619 270.551 L 540.4189 269.3017 L 539.8518 267.1589 L 537.92 267.7485 L 536.9618 268.2193 L 535.7202 264.2204 L 535.651 261.2469 Z" fill="[object Object]" fill-opacity="1" stroke="dodgerblue" stroke-width="1" paint-order="fill" stroke-opacity="1" stroke-dasharray="" stroke-linecap="butt" stroke-miterlimit="10" style="filter: url(&quot;#zr2323-shadow-0&quot;);">
</path>
<path d="M 544.2172 284.9979 L 547.2679 284.888 L 549.7018 284.0165 L 551.1236 283.2068 L 555.9565 278.6518 L 557.1868 276.9662 L 558.559 274.4316 L 558.8388 273.0106 L 558.7316 270.9204 L 557.7158 267.6562 L 556.9073 265.5888 L 556.6964 264.2733 L 556.7308 257.724 L 556.3477 255.279 L 555.8187 254.0125 L 555.0482 253.023 L 553.2892 251.6113 L 546.6968 248.3004 L 545.9801 249.7383 L 545.2559 249.3163 L 544.5315 250.5123 L 541.2048 248.6918 L 537.901 254.3642 L 539.0086 255.1691 L 539.3766 256.1935 L 538.629 256.9194 L 538.7671 261.2778 L 535.651 261.2469 L 535.7202 264.2204 L 536.9618 268.2193 L 537.92 267.7485 L 539.8518 267.1589 L 540.4189 269.3017 L 539.1619 270.551 L 538.583 271.7522 L 538.7249 274.1721 L 539.6487 274.357 L 541.4653 276.3105 L 541.4115 277.723 L 542.0094 279.2325 L 543.6882 281.5561 L 544.5353 283.1936 L 544.083 283.2902 L 544.2172 284.9979 Z" fill="[object Object]" fill-opacity="1" stroke="dodgerblue" stroke-width="1" paint-order="fill" stroke-opacity="1" stroke-dasharray="" stroke-linecap="butt" stroke-miterlimit="10" style="filter: url(&quot;#zr2323-shadow-0&quot;);">
</path>
<path d="M 500.724 383.9024 L 505.2771 382.075 L 510.524 380.0847 L 514.6788 379.3562 L 515.7403 379.0475 L 518.7144 377.7809 L 520.7689 376.0685 L 521.3782 375.111 L 522.2597 374.2727 L 523.356 373.6372 L 525.4218 373.0237 L 528.6297 373.0458 L 530.1858 372.547 L 531.7992 371.3734 L 533.156 370.8618 L 535.7776 370.5924 L 536.682 370.2704 L 537.7091 371.0779 L 537.4525 372.0751 L 538.5485 376.3908 L 539.3612 376.4217 L 539.3496 375.9759 L 540.5148 374.7666 L 541.8446 374.0209 L 542.5423 374.0915 L 544.3589 372.962 L 545.4205 374.1312 L 545.7656 374.9567 L 545.2099 374.824 L 545.2749 376.0023 L 545.9839 375.8347 L 547.5593 377.2645 L 548.4828 377.6706 L 549.1843 377.291 L 550.0849 377.7192 L 550.2115 378.2841 L 551.6066 377.8956 L 552.3883 378.3194 L 553.3275 380.0626 L 554.2243 379.8594 L 554.3659 378.3282 L 555.1709 378.2003 L 555.0865 377.5468 L 556.6236 377.3659 L 559.0993 376.3732 L 558.4058 375.4418 L 559.1646 374.9214 L 559.0381 374.087 L 559.3717 373.6945 L 558.8926 371.8678 L 558.4669 372.0663 L 557.8269 371.3867 L 558.9193 371.1882 L 559.249 369.7276 L 560.2568 368.916 L 560.28 368.0644 L 559.6093 365.9598 L 558.5246 366.4718 L 558.7084 366.7982 L 557.3977 367.9762 L 556.2862 366.8952 L 555.8531 368.3202 L 555.2398 368.3202 L 555.2514 368.8807 L 554.5961 368.9248 L 554.0787 368.0776 L 554.2281 367.2128 L 555.0443 367.3451 L 555.7726 366.7497 L 555.7305 364.9101 L 556.0753 364.6363 L 556.064 360.5517 L 556.7959 359.7269 L 556.1597 359.2943 L 555.3933 358.13 L 555.1441 358.2579 L 554.761 357.0846 L 554.1975 357.6448 L 553.6035 357.6095 L 553.3311 358.1564 L 552.8484 357.9227 L 552.3194 358.474 L 551.1043 358.7121 L 551.3345 357.7286 L 550.9166 356.4583 L 551.6027 355.9114 L 551.6104 355.294 L 553.0094 354.8529 L 552.6836 353.1067 L 553.0552 352.3745 L 553.7567 352.3172 L 553.9483 351.638 L 555.3167 351.0032 L 554.2243 350.2181 L 554.9986 349.4158 L 555.9452 349.2393 L 555.5312 348.8027 L 556.9492 348.4543 L 556.934 348.1543 L 558.3175 347.7578 L 560.4217 346.3379 L 559.7011 345.8748 L 559.4213 346.3379 L 558.9039 345.769 L 557.1984 345.4473 L 556.6426 345.0195 L 555.3933 345.368 L 555.2208 345.9718 L 554.4351 346.2497 L 553.6109 345.3194 L 553.0552 343.829 L 553.8794 343.3663 L 553.8984 342.6385 L 555.9604 341.9685 L 556.6426 341.3734 L 556.7231 341.9994 L 557.4131 341.9906 L 558.2142 341.3514 L 558.0915 340.2712 L 557.1256 339.3942 L 556.7807 338.5477 L 557.2177 338.3272 L 556.5238 337.0753 L 556.5966 336.7225 L 555.6194 335.4092 L 556.1751 334.6378 L 555.3013 334.2015 L 554.9104 333.5403 L 554.3737 334.3467 L 554.0939 333.9016 L 553.2393 334.078 L 553.5726 334.7392 L 552.8176 335.4622 L 551.8632 334.7965 L 551.3191 333.0731 L 550.5679 333.2668 L 550.1155 333.8707 L 549.4142 332.4031 L 548.5633 332.6854 L 548.3334 332.2399 L 546.6433 332.857 L 545.9762 333.4079 L 545.5779 333.0158 L 543.6728 333.3947 L 543.4622 332.3898 L 542.7989 331.2218 L 541.1855 331.6584 L 540.737 332.2752 L 541.1317 333.3153 L 540.1085 333.6197 L 539.2691 331.1075 L 537.6901 332.13 L 536.9888 330.0849 L 535.8043 329.9967 L 535.7315 330.9487 L 534.6854 331.6275 L 534.5051 332.3854 L 533.4549 332.6412 L 534.5319 335.0785 L 533.4204 335.0211 L 532.5427 333.7343 L 532.5005 334.2632 L 531.4811 334.9902 L 530.0821 334.5628 L 529.538 335.8543 L 529.4346 338.2919 L 527.384 338.7326 L 526.6138 338.5566 L 526.4068 337.5954 L 524.8622 336.8989 L 525.2338 336.2818 L 526.5407 335.8543 L 525.9315 334.2985 L 526.1115 333.3506 L 524.981 333.7608 L 524.728 333.5138 L 523.5589 334.3908 L 522.5817 334.5628 L 521.957 334.0339 L 522.8116 331.9888 L 522.7272 331.0237 L 522.1525 328.3354 L 518.0399 329.036 L 517.1776 327.3702 L 515.9129 325.3079 L 515.2191 323.6687 L 513.4714 318.1742 L 512.3753 318.7163 L 512.5055 319.2449 L 511.26 319.6459 L 510.9686 318.4826 L 512.6207 317.8658 L 513.368 317.8438 L 512.8351 316.1391 L 510.6084 317.1039 L 509.7651 313.7647 L 510.4667 313.4696 L 510.0909 312.1479 L 510.8421 311.5929 L 510.5739 310.3859 L 511.5743 310.2583 L 511.6509 309.6416 L 512.1339 310.0426 L 515.2651 308.8576 L 516.2845 308.3599 L 516.3115 306.9022 L 515.844 307.0959 L 515.5716 305.5192 L 509.7422 305.2284 L 506.5956 305.9069 L 502.7209 307.5583 L 501.1493 307.6598 L 500.6168 307.3955 L 500.241 308.5889 L 499.2329 309.0075 L 498.7155 308.3202 L 495.9562 309.8136 L 495.109 309.5666 L 493.3076 306.0697 L 495.0286 304.9686 L 494.8331 303.7928 L 495.27 303.4888 L 495.1358 299.8075 L 495.1551 297.7779 L 495.5653 297.7426 L 495.3927 296.1485 L 496.2437 295.717 L 496.4198 293.7756 L 497.1175 293.6084 L 495.8412 293.3353 L 496.0022 292.5914 L 497.0445 292.0059 L 497.0483 291.0855 L 496.5348 289.6462 L 495.1129 288.462 L 494.1701 289.0651 L 493.8788 290.4916 L 491.7402 291.3851 L 490.8396 291.3675 L 488.7813 292.2566 L 485.3664 291.0065 L 483.6914 290.8437 L 482.5111 290.2141 L 481.3803 288.2157 L 481.0393 286.3493 L 480.0582 285.6451 L 479.4182 284.5491 L 480.1922 283.2024 L 479.1268 283.1847 L 477.7317 282.5816 L 476.6241 283.048 L 474.7385 281.4903 L 474.612 280.513 L 473.5733 280.817 L 471.9712 280.337 L 471.91 280.6847 L 470.0165 282.6698 L 469.6294 284.3113 L 468.4642 284.8527 L 467.9815 287.1634 L 468.3837 287.4718 L 470.1813 287.2164 L 470.672 288.8273 L 471.0552 288.2157 L 471.5265 288.6689 L 471.9023 290.0821 L 472.7301 290.9712 L 472.9638 292.3801 L 472.5729 292.5782 L 473.0214 293.8855 L 472.8106 294.8279 L 473.4239 295.5851 L 473.8493 296.7123 L 473.3473 297.5621 L 474.5737 298.9797 L 474.8036 299.7814 L 474.3551 300.1599 L 474.8303 301.0362 L 475.367 301.0582 L 476.739 302.8769 L 478.3067 304.6165 L 480.1387 304.3169 L 481.047 303.6035 L 482.3694 302.0271 L 482.4535 301.3313 L 483.1167 301.1244 L 483.8524 301.7364 L 484.6957 303.348 L 486.8996 306.5233 L 487.5127 308.0516 L 489.0343 310.7692 L 489.5134 311.9498 L 489.6628 313.1877 L 491.1155 315.8792 L 492.0429 318.1128 L 492.4721 318.183 L 493.231 319.8792 L 493.1659 320.7165 L 493.8327 321.0866 L 494.3196 322.8887 L 494.6644 323.0034 L 495.2394 324.2457 L 494.676 324.6864 L 496.1439 326.2727 L 496.8567 327.8594 L 496.6729 328.1855 L 497.2209 329.3796 L 496.9143 329.5384 L 497.6462 330.9355 L 497.4279 331.0501 L 498.2097 332.4869 L 499.1679 332.5398 L 498.5049 333.2933 L 499.3633 334.7789 L 499.9841 334.404 L 500.2565 335.1402 L 498.9341 336.6258 L 498.7847 336.1671 L 497.9183 336.5641 L 498.6926 339.2839 L 500.6358 338.7194 L 500.8274 339.403 L 501.8393 339.0943 L 503.3645 343.062 L 504.3919 346.4085 L 504.0085 346.9594 L 503.5065 346.6819 L 502.5905 347.1359 L 502.2762 348.6748 L 501.6629 349.0806 L 502.2991 350.0814 L 502.1114 350.6415 L 500.3292 351.2281 L 500.582 352.2246 L 499.2713 353.239 L 496.5157 354.0285 L 495.9677 352.6965 L 494.2812 353.5521 L 494.2162 358.99 L 493.8214 360.8075 L 493.9171 364.032 L 493.7216 364.4863 L 493.8826 365.8716 L 493.8366 370.0102 L 493.6566 370.8618 L 495.5383 370.6718 L 496.3355 370.3189 L 496.7379 370.6409 L 495.5192 371.9913 L 495.0784 373.4872 L 492.9054 376.9025 L 492.1156 377.2733 L 491.9202 377.7941 L 491.9547 379.4536 L 491.652 381.9029 L 492.085 382.874 L 492.6868 382.6314 L 494.0243 382.8608 L 496.6001 384.3659 L 498.6698 384.5912 L 500.724 383.9024 Z" fill="[object Object]" fill-opacity="1" stroke="dodgerblue" stroke-width="1" paint-order="fill" stroke-opacity="1" stroke-dasharray="" stroke-linecap="butt" stroke-miterlimit="10" style="filter: url(&quot;#zr2323-shadow-0&quot;);">
</path>
<path d="M 519.067 276.284 L 518.8793 275.8176 L 518.841 272.764 L 518.4002 271.2857 L 518.6684 268.8044 L 517.5341 268.7824 L 517.2465 268.3468 L 517.63 266.6355 L 518.6226 266.508 L 519.5309 266.0416 L 519.3928 264.3218 L 520.7306 264.1634 L 521.0487 263.3276 L 520.8379 262.0169 L 520.9721 261.2076 L 521.6502 260.9786 L 521.0562 258.6388 L 521.3668 257.8298 L 522.1563 257.8298 L 522.2407 258.2738 L 524.9849 258.2168 L 525.3066 259.2151 L 527.1847 258.4278 L 527.8554 257.7813 L 530.1282 257.6361 L 530.8909 258.032 L 530.937 259.6065 L 532.2171 259.6944 L 533.9304 260.0991 L 535.6397 260.1211 L 535.651 261.2469 L 538.7671 261.2778 L 538.629 256.9194 L 539.3766 256.1935 L 539.0086 255.1691 L 537.901 254.3642 L 541.2048 248.6918 L 544.5315 250.5123 L 545.2559 249.3163 L 545.9801 249.7383 L 546.6968 248.3004 L 543.7803 246.3881 L 541.9943 244.4581 L 540.7293 241.6357 L 540.6259 239.9916 L 540.7293 238.3961 L 541.68 236.4268 L 543.0826 233.9436 L 545.5241 230.6607 L 541.699 226.5651 L 542.2702 225.6995 L 544.2439 226.8025 L 544.4242 226.4291 L 542.6495 225.0802 L 540.3232 223.8191 L 540.0357 224.3418 L 541.6646 225.1725 L 541.3236 226.1652 L 538.0926 222.1847 L 534.528 218.7139 L 529.6645 214.6771 L 524.793 210.1048 L 521.5546 207.2457 L 517.2581 202.7667 L 514.7783 200.6941 L 513.2991 199.6316 L 513.1993 198.7928 L 513.8394 197.3616 L 513.6018 196.6901 L 505.5723 191.5845 L 501.7012 189.4953 L 500.4596 188.9554 L 496.5309 187.5594 L 494.4191 188.9422 L 492.6752 190.43 L 492.0429 190.43 L 490.9162 191.15 L 491.0734 192.12 L 490.027 192.0939 L 490.0614 190.8909 L 490.5711 190.7417 L 490.0997 189.8287 L 489.1302 189.8684 L 488.7699 191.5231 L 487.8308 190.9218 L 487.3938 189.8155 L 486.0641 190.0308 L 486.1597 190.7284 L 485.2553 191.0357 L 484.5195 192.0807 L 484.7762 193.1866 L 485.8264 193.5424 L 486.3439 194.451 L 487.068 194.7494 L 487.371 195.7638 L 486.9186 196.163 L 487.3555 196.6548 L 488.2178 199.1221 L 488.9384 198.8939 L 489.7243 201.1595 L 488.4709 202.1081 L 489.4903 203.579 L 490.2108 203.3636 L 490.0691 204.22 L 489.3025 204.3913 L 489.4406 206.6528 L 490.1995 207.6893 L 489.6821 207.8341 L 489.9964 208.5762 L 491.1922 208.5281 L 492.0928 210.7988 L 491.7363 211.0884 L 492.3304 213.6403 L 493.1505 214.1717 L 493.8176 214.0005 L 494.6299 216.8909 L 494.6415 217.9057 L 494.2275 218.0288 L 494.5801 219.5574 L 494.6184 221.741 L 493.4686 222.5184 L 493.9402 223.7269 L 493.4956 223.9246 L 493.6756 224.7987 L 492.9322 224.9571 L 492.388 224.3506 L 488.4863 226.0994 L 489.3295 227.4002 L 488.8504 227.7427 L 488.6051 229.3467 L 489.3486 229.694 L 490.46 229.6367 L 490.9201 230.2652 L 490.9736 231.1969 L 490.1687 232.7436 L 490.8969 232.9766 L 491.8744 235.706 L 492.955 235.6795 L 493.1698 236.6642 L 492.4608 237.0729 L 493.1927 238.1807 L 493.9132 238.8092 L 493.7294 239.3014 L 494.4612 239.7365 L 494.193 240.8884 L 494.8982 241.908 L 495.2662 243.082 L 495.6571 243.2576 L 495.96 244.2555 L 494.7719 244.9109 L 494.9442 245.8735 L 494.0897 246.7924 L 493.4303 246.6428 L 493.4995 248.1949 L 494.5916 248.2916 L 494.883 249.1314 L 495.27 249.0436 L 496.2282 250.3186 L 496.7647 250.09 L 497.2975 252.1479 L 496.3509 252.2446 L 496.0328 253.2649 L 496.2053 254.1047 L 497.2016 256.2641 L 497.6385 256.6511 L 496.9028 256.9238 L 497.1059 257.8427 L 498.1024 257.667 L 497.7116 258.3179 L 497.6884 259.3603 L 496.5196 259.1842 L 495.6648 261.2646 L 495.2855 261.7879 L 494.3772 264.2733 L 493.1698 264.9727 L 493.967 266.9259 L 494.4306 266.587 L 494.6032 267.3747 L 495.2011 267.9907 L 495.8451 267.8102 L 495.8219 266.4418 L 497.4546 266.3628 L 497.4662 266.8425 L 498.229 266.3893 L 498.0181 265.7777 L 499.1373 264.8893 L 499.647 265.5711 L 501.1648 264.5019 L 502.0538 264.4931 L 501.1609 267.4581 L 500.6895 267.9025 L 502.123 268.4306 L 502.123 268.6857 L 503.7441 269.4995 L 503.8784 269.0551 L 505.1698 269.5083 L 505.5569 268.9584 L 507.0173 269.3852 L 507.0402 268.1796 L 507.9063 267.5419 L 508.9067 267.2427 L 510.6621 267.4581 L 510.3095 268.7078 L 511.5244 268.9849 L 511.9845 269.5789 L 511.6776 270.2254 L 512.2105 270.6039 L 513.3335 270.5642 L 512.13 273.5605 L 513.3641 274.2383 L 513.8967 274.0049 L 513.6056 275.3997 L 515.1273 275.36 L 515.0275 276.3899 L 516.3154 276.8431 L 516.4532 278.0354 L 517.4803 278.2776 L 519.067 276.284 Z" fill="[object Object]" fill-opacity="1" stroke="dodgerblue" stroke-width="1" paint-order="fill" stroke-opacity="1" stroke-dasharray="" stroke-linecap="butt" stroke-miterlimit="10" style="filter: url(&quot;#zr2323-shadow-0&quot;);">
</path>
<path d="M 444.2226 274.0843 L 444.2725 275.7695 L 443.6823 277.3973 L 444.7171 277.9431 L 445.3534 276.3281 L 446.2388 277.4017 L 446.668 276.8298 L 448.0592 278.7528 L 448.1626 280.3414 L 448.8104 280.5263 L 448.4118 281.6002 L 449.0941 282.0667 L 449.8758 281.358 L 450.5697 282.1854 L 451.1293 281.7234 L 451.2787 282.6213 L 451.8843 282.2559 L 452.5434 283.0524 L 453.237 283.0219 L 453.7698 282.1284 L 455.05 282.5463 L 455.1457 283.3432 L 455.9429 283.4266 L 455.8933 282.6301 L 456.9319 281.9524 L 457.8402 281.741 L 457.7636 281.257 L 458.7293 280.1786 L 459.312 281.125 L 459.6797 280.9313 L 459.6646 279.897 L 460.4541 280.2624 L 460.8833 282.278 L 462.838 281.565 L 462.5466 281.1559 L 463.5508 280.5571 L 463.4626 280.0069 L 465.0226 279.5714 L 464.992 279.206 L 466.6708 279.2104 L 467.3643 279.435 L 468.6213 280.434 L 469.8133 280.2756 L 469.8632 280.7729 L 471.91 280.6847 L 471.9712 280.337 L 473.5733 280.817 L 474.612 280.513 L 474.7385 281.4903 L 476.6241 283.048 L 477.7317 282.5816 L 479.1268 283.1847 L 480.1922 283.2024 L 479.4182 284.5491 L 480.0582 285.6451 L 481.0393 286.3493 L 481.3803 288.2157 L 482.5111 290.2141 L 483.6914 290.8437 L 485.3664 291.0065 L 488.7813 292.2566 L 490.8396 291.3675 L 491.7402 291.3851 L 493.8788 290.4916 L 494.1701 289.0651 L 495.1129 288.462 L 495.8067 287.5729 L 497.1059 287.5949 L 496.8377 286.2479 L 497.4469 287.1723 L 497.5735 286.3802 L 498.0258 286.1336 L 498.3591 286.8775 L 497.9759 287.7842 L 499.1103 288.1628 L 499.4744 288.6116 L 499.9918 288.3609 L 499.9957 287.4979 L 501.1033 287.3704 L 501.2643 288.0525 L 501.9388 287.52 L 502.9315 285.2224 L 503.3916 284.8394 L 504.4837 286.1733 L 504.6907 285.4646 L 505.4036 285.9046 L 505.8254 284.7163 L 506.837 281.0236 L 505.9059 280.3943 L 505.2581 280.3899 L 505.0971 281.2834 L 502.7016 281.0544 L 502.7399 280.4384 L 501.5711 280.2227 L 500.7813 278.876 L 501.0382 277.6307 L 501.6935 277.4238 L 503.0081 277.7539 L 503.1308 276.6626 L 501.4291 276.2182 L 500.7813 276.9706 L 500.3408 276.0069 L 496.8683 275.0873 L 496.5425 275.9981 L 495.09 275.4835 L 495.2585 274.687 L 494.5266 274.5198 L 494.4805 272.8346 L 494.1892 272.9577 L 493.5645 270.6216 L 492.5335 271.1626 L 492.0699 270.9469 L 491.813 269.57 L 493.5874 268.8397 L 493.4228 268.0741 L 494.6032 267.3747 L 494.4306 266.587 L 493.967 266.9259 L 493.1698 264.9727 L 494.3772 264.2733 L 495.2855 261.7879 L 495.6648 261.2646 L 496.5196 259.1842 L 497.6884 259.3603 L 497.7116 258.3179 L 498.1024 257.667 L 497.1059 257.8427 L 496.9028 256.9238 L 497.6385 256.6511 L 497.2016 256.2641 L 496.2053 254.1047 L 496.0328 253.2649 L 496.3509 252.2446 L 497.2975 252.1479 L 496.7647 250.09 L 496.2282 250.3186 L 495.27 249.0436 L 494.883 249.1314 L 494.5916 248.2916 L 493.4995 248.1949 L 493.4303 246.6428 L 494.0897 246.7924 L 494.9442 245.8735 L 494.7719 244.9109 L 495.96 244.2555 L 495.6571 243.2576 L 495.2662 243.082 L 494.8982 241.908 L 494.193 240.8884 L 494.4612 239.7365 L 493.7294 239.3014 L 493.9132 238.8092 L 493.1927 238.1807 L 492.4608 237.0729 L 493.1698 236.6642 L 492.955 235.6795 L 491.8744 235.706 L 490.8969 232.9766 L 490.1687 232.7436 L 490.9736 231.1969 L 490.9201 230.2652 L 490.46 229.6367 L 489.3486 229.694 L 488.6051 229.3467 L 488.8504 227.7427 L 489.3295 227.4002 L 488.4863 226.0994 L 492.388 224.3506 L 492.9322 224.9571 L 493.6756 224.7987 L 493.4956 223.9246 L 493.9402 223.7269 L 493.4686 222.5184 L 494.6184 221.741 L 494.5801 219.5574 L 494.2275 218.0288 L 494.6415 217.9057 L 494.6299 216.8909 L 493.8176 214.0005 L 493.1505 214.1717 L 492.3304 213.6403 L 491.7363 211.0884 L 492.0928 210.7988 L 491.1922 208.5281 L 489.9964 208.5762 L 489.6821 207.8341 L 490.1995 207.6893 L 489.4406 206.6528 L 489.3025 204.3913 L 490.0691 204.22 L 490.2108 203.3636 L 489.4903 203.579 L 488.4709 202.1081 L 489.7243 201.1595 L 488.9384 198.8939 L 488.2178 199.1221 L 487.3555 196.6548 L 486.9186 196.163 L 487.371 195.7638 L 487.068 194.7494 L 486.3439 194.451 L 485.8264 193.5424 L 484.7762 193.1866 L 484.6767 193.9989 L 484.1438 194.3017 L 484.1554 195.1096 L 482.7448 195.7374 L 481.9515 195.0438 L 481.6143 196.0226 L 480.5029 195.4169 L 480.0428 195.7418 L 478.9429 195.518 L 479.1152 196.1546 L 478.0459 196.8963 L 477.9847 197.366 L 476.8349 197.7479 L 475.9611 196.5978 L 475.5319 197.0543 L 475.5625 198.1081 L 474.934 198.1915 L 473.9909 199.0563 L 473.9143 199.7631 L 472.0784 200.2112 L 472.3124 198.007 L 471.7567 198.2091 L 471.6837 199.4121 L 471.0935 199.4867 L 470.672 200.2156 L 469.9475 200.4218 L 469.6027 199.3857 L 470.2541 198.6524 L 469.2157 198.9071 L 469.047 196.6548 L 468.3148 195.3334 L 468.242 194.3062 L 467.2378 194.9472 L 466.552 194.6792 L 466.7358 196.3652 L 466.069 196.4398 L 464.877 198.5602 L 465.4749 198.9336 L 465.3407 200.2858 L 464.1986 200.1935 L 463.9649 200.804 L 462.6886 200.7864 L 462.2285 201.0981 L 460.7339 200.8345 L 461.117 200.2505 L 460.937 199.6624 L 458.7293 201.1815 L 457.9169 202.1607 L 457.7749 203.2541 L 455.6096 203.8161 L 453.1298 206.3937 L 452.9649 207.6235 L 453.1298 208.7651 L 451.685 209.8325 L 450.0752 210.6275 L 448.6572 210.3595 L 448.0783 210.9877 L 447.6146 210.3066 L 446.7868 210.7855 L 446.2002 210.4867 L 442.4597 212.5994 L 442.245 214.4092 L 442.5899 215.4457 L 443.8777 216.3947 L 445.5295 216.8909 L 446.6947 216.9041 L 446.6448 217.8792 L 447.1355 218.7404 L 446.4993 218.4724 L 446.3229 219.2718 L 444.6444 219.2851 L 443.5097 220.7347 L 442.1568 220.9986 L 442.1455 221.5036 L 442.9885 221.7146 L 442.8889 222.9139 L 444.1537 223.7181 L 444.7133 223.6607 L 444.4335 224.4914 L 445.6332 225.0273 L 445.3649 225.8447 L 444.0464 226.6004 L 444.2648 227.3913 L 443.3259 227.9316 L 443.0767 228.9733 L 443.9467 229.4169 L 442.5438 229.7289 L 443.0461 230.7662 L 441.49 231.566 L 442.3906 232.458 L 442.9118 233.557 L 442.7586 234.1105 L 440.827 234.7919 L 440.7234 234.4314 L 439.75 235.0731 L 439.9953 235.6751 L 438.1633 236.5323 L 438.0213 236.2202 L 436.0975 237.3015 L 435.8251 236.6554 L 434.4264 237.6268 L 433.2 238.1366 L 433.6061 239.3543 L 434.6679 239.5653 L 434.9783 240.2596 L 433.039 240.9189 L 432.9508 241.561 L 431.9659 241.7191 L 431.8584 241.0553 L 431.3258 241.0244 L 431.2682 241.7808 L 431.6822 243.2797 L 431.4369 245.3725 L 431.7283 245.6405 L 431.7013 246.8846 L 432.4833 246.5593 L 432.671 246.9331 L 434.1618 246.5024 L 434.9744 248.0192 L 434.185 248.1817 L 434.3611 249.5317 L 436.0093 249.7868 L 437.7991 249.2501 L 437.9025 250.244 L 437.7109 252.7459 L 437.9946 253.7001 L 438.3893 253.753 L 438.5886 256.0968 L 438.1018 256.1498 L 438.1288 256.9587 L 436.9214 258.4014 L 436.8715 259.2765 L 437.3008 260.2575 L 437.1169 261.1326 L 437.615 262.4477 L 437.4389 262.7336 L 437.6649 264.546 L 438.719 264.7397 L 440.3363 264.4008 L 440.1447 263.4331 L 441.4745 261.9331 L 442.3371 263.3188 L 443.4064 265.8615 L 442.8967 265.914 L 443.9389 267.6783 L 443.5442 268.4656 L 444.4834 269.1565 L 444.9548 270.1287 L 445.7558 270.0361 L 446.3038 271.3868 L 445.7826 272.2711 L 444.7171 272.5703 L 444.7017 273.4241 L 444.2226 274.0843 Z" fill="[object Object]" fill-opacity="1" stroke="dodgerblue" stroke-width="1" paint-order="fill" stroke-opacity="1" stroke-dasharray="" stroke-linecap="butt" stroke-miterlimit="10" style="filter: url(&quot;#zr2323-shadow-0&quot;);">
</path>
<path d="M 559.0993 376.3732 L 560.828 375.9582 L 562.5335 375.9494 L 562.9128 375.4639 L 565.7722 375.508 L 566.0212 375.014 L 568.359 375.3492 L 571.2951 375.3051 L 572.1229 377.3483 L 572.9085 378.4561 L 580.1102 378.2091 L 582.2716 378.2444 L 584.6365 378.4429 L 586.4035 378.849 L 587.4574 379.5021 L 587.7909 378.7781 L 590.2821 379.5109 L 591.5201 379.3871 L 592.8692 379.683 L 594.6552 380.389 L 596.3224 381.2851 L 598.3305 382.7726 L 603.6006 387.6058 L 604.1641 388.8242 L 605.2562 390.2327 L 604.9652 390.9435 L 605.8274 391.672 L 606.8622 391.7205 L 607.9966 393.4465 L 608.3762 393.0227 L 609.1351 393.1422 L 611.1471 394.4532 L 611.6262 395.0229 L 611.5995 396.1223 L 612.596 397.1687 L 611.8062 397.7693 L 611.7489 398.4007 L 612.5229 398.361 L 612.4041 398.9748 L 613.117 399.0899 L 613.5465 398.4316 L 614.0369 399.5533 L 614.9339 400.0481 L 615.0295 400.9224 L 616.2524 401.1165 L 616.2102 402.6977 L 617.1645 406.063 L 616.923 408.1786 L 616.5705 408.8016 L 616.3979 411.1204 L 616.5779 412.7152 L 616.5283 414.5089 L 615.7578 417.5088 L 615.9417 419.5013 L 614.9645 419.6516 L 614.7845 421.45 L 614.543 421.5514 L 613.5887 426.019 L 613.9181 430.739 L 620.6522 443.0769 L 651.1678 444.0718 L 654.1497 444.536 L 656.7177 446.8487 L 661.9798 457.6928 L 669.1509 453.2433 L 665.2263 442.9754 L 664.912 441.4056 L 665.0193 439.7877 L 669.4345 434.9118 L 673.4702 430.642 L 675.8351 426.0987 L 676.6706 421.7459 L 677.0882 412.534 L 676.4636 399.4872 L 675.0034 387.3677 L 671.3162 369.847 L 667.2154 358.3858 L 662.8346 351.5497 L 647.0324 331.0325 L 645.5339 327.7492 L 637.0791 318.6678 L 625.0752 303.3922 L 606.8622 271.6728 L 602.8263 266.1298 L 601.0097 264.2075 L 598.231 262.043 L 591.8955 257.2447 L 570.1489 240.4356 L 568.0757 238.796 L 565.5037 237.4158 L 556.1597 234.7699 L 550.1503 232.9766 L 545.5241 230.6607 L 543.0826 233.9436 L 541.68 236.4268 L 540.7293 238.3961 L 540.6259 239.9916 L 540.7293 241.6357 L 541.9943 244.4581 L 543.7803 246.3881 L 546.6968 248.3004 L 553.2892 251.6113 L 555.0482 253.023 L 555.8187 254.0125 L 556.3477 255.279 L 556.7308 257.724 L 556.6964 264.2733 L 556.9073 265.5888 L 557.7158 267.6562 L 558.7316 270.9204 L 558.8388 273.0106 L 558.559 274.4316 L 557.1868 276.9662 L 555.9565 278.6518 L 551.1236 283.2068 L 549.7018 284.0165 L 547.2679 284.888 L 544.2172 284.9979 L 541.5687 285.1739 L 539.6754 285.7197 L 538.2458 286.7411 L 537.8778 287.4935 L 537.8778 288.9685 L 538.4989 290.1347 L 540.2273 291.9574 L 541.5303 293.758 L 542.2625 295.4708 L 542.4042 296.9237 L 541.9788 298.5218 L 540.0357 302.3483 L 539.139 303.8722 L 538.1921 304.8807 L 537.1228 305.3916 L 533.0527 306.7082 L 531.0519 308.0913 L 530.3697 309.2057 L 529.9978 310.3333 L 529.9978 311.2933 L 530.8948 314.3506 L 531.2283 316.1126 L 530.9485 317.6589 L 530.228 318.7516 L 528.7524 320.5313 L 527.9436 321.9371 L 527.9436 323.4878 L 529.3158 326.3433 L 531.0519 328.7673 L 531.3124 329.8732 L 531.209 332.1256 L 530.0821 334.5628 L 531.4811 334.9902 L 532.5005 334.2632 L 532.5427 333.7343 L 533.4204 335.0211 L 534.5319 335.0785 L 533.4549 332.6412 L 534.5051 332.3854 L 534.6854 331.6275 L 535.7315 330.9487 L 535.8043 329.9967 L 536.9888 330.0849 L 537.6901 332.13 L 539.2691 331.1075 L 540.1085 333.6197 L 541.1317 333.3153 L 540.737 332.2752 L 541.1855 331.6584 L 542.7989 331.2218 L 543.4622 332.3898 L 543.6728 333.3947 L 545.5779 333.0158 L 545.9762 333.4079 L 546.6433 332.857 L 548.3334 332.2399 L 548.5633 332.6854 L 549.4142 332.4031 L 550.1155 333.8707 L 550.5679 333.2668 L 551.3191 333.0731 L 551.8632 334.7965 L 552.8176 335.4622 L 553.5726 334.7392 L 553.2393 334.078 L 554.0939 333.9016 L 554.3737 334.3467 L 554.9104 333.5403 L 555.3013 334.2015 L 556.1751 334.6378 L 555.6194 335.4092 L 556.5966 336.7225 L 556.5238 337.0753 L 557.2177 338.3272 L 556.7807 338.5477 L 557.1256 339.3942 L 558.0915 340.2712 L 558.2142 341.3514 L 557.4131 341.9906 L 556.7231 341.9994 L 556.6426 341.3734 L 555.9604 341.9685 L 553.8984 342.6385 L 553.8794 343.3663 L 553.0552 343.829 L 553.6109 345.3194 L 554.4351 346.2497 L 555.2208 345.9718 L 555.3933 345.368 L 556.6426 345.0195 L 557.1984 345.4473 L 558.9039 345.769 L 559.4213 346.3379 L 559.7011 345.8748 L 560.4217 346.3379 L 558.3175 347.7578 L 556.934 348.1543 L 556.9492 348.4543 L 555.5312 348.8027 L 555.9452 349.2393 L 554.9986 349.4158 L 554.2243 350.2181 L 555.3167 351.0032 L 553.9483 351.638 L 553.7567 352.3172 L 553.0552 352.3745 L 552.6836 353.1067 L 553.0094 354.8529 L 551.6104 355.294 L 551.6027 355.9114 L 550.9166 356.4583 L 551.3345 357.7286 L 551.1043 358.7121 L 552.3194 358.474 L 552.8484 357.9227 L 553.3311 358.1564 L 553.6035 357.6095 L 554.1975 357.6448 L 554.761 357.0846 L 555.1441 358.2579 L 555.3933 358.13 L 556.1597 359.2943 L 556.7959 359.7269 L 556.064 360.5517 L 556.0753 364.6363 L 555.7305 364.9101 L 555.7726 366.7497 L 555.0443 367.3451 L 554.2281 367.2128 L 554.0787 368.0776 L 554.5961 368.9248 L 555.2514 368.8807 L 555.2398 368.3202 L 555.8531 368.3202 L 556.2862 366.8952 L 557.3977 367.9762 L 558.7084 366.7982 L 558.5246 366.4718 L 559.6093 365.9598 L 560.28 368.0644 L 560.2568 368.916 L 559.249 369.7276 L 558.9193 371.1882 L 557.8269 371.3867 L 558.4669 372.0663 L 558.8926 371.8678 L 559.3717 373.6945 L 559.0381 374.087 L 559.1646 374.9214 L 558.4058 375.4418 L 559.0993 376.3732 Z M 661.8572 296.5712 L 661.4663 299.4333 L 661.6849 302.8195 L 662.2979 307.0783 L 663.1756 310.9276 L 664.4442 314.3109 L 666.3761 317.2226 L 668.0433 317.8614 L 669.4458 317.857 L 670.8487 317.3858 L 676.3255 316.6632 L 677.3796 315.0905 L 680.4226 306.6644 L 680.8135 305.1799 L 680.9784 298.5791 L 680.5453 295.8582 L 679.863 294.5416 L 674.6508 293.2427 L 672.171 291.9309 L 669.0089 291.1252 L 665.7205 291.0767 L 664.0073 291.6622 L 662.7809 293.3 L 661.8572 296.5712 Z M 645.1469 287.2384 L 644.6639 288.9023 L 645.1237 292.8421 L 645.8443 294.7132 L 646.9789 296.7432 L 650.3899 301.7187 L 652.3559 303.9953 L 653.7549 304.5194 L 655.1156 304.3434 L 656.1237 303.4098 L 656.9515 300.2566 L 657.5224 293.4279 L 657.3041 291.3278 L 656.4302 289.8091 L 654.1957 288.8185 L 649.2096 286.776 L 647.1551 286.6 L 645.1469 287.2384 Z" fill="[object Object]" fill-opacity="1" stroke="dodgerblue" stroke-width="1" paint-order="fill" stroke-opacity="1" stroke-dasharray="" stroke-linecap="butt" stroke-miterlimit="10" style="filter: url(&quot;#zr2323-shadow-0&quot;);">
</path>
<path d="M 400.9403 394.0295 L 400.9631 396.1179 L 400.6489 396.2241 L 401.1473 397.3984 L 402.0672 398.6525 L 401.8486 399.7654 L 401.7375 407.3924 L 401.561 409.0181 L 403.102 409.1019 L 403.0865 409.9634 L 402.5501 410.7363 L 401.4844 410.3342 L 401.4654 411.2752 L 400.6605 411.1513 L 399.8594 411.7258 L 399.8172 412.6182 L 399.2119 414.0671 L 399.8864 414.7562 L 400.1392 416.3201 L 403.2247 416.6384 L 404.1903 416.8858 L 404.1291 418.7812 L 404.8993 419.0551 L 406.6586 418.8694 L 406.969 419.6075 L 407.7587 420.3143 L 407.1953 421.0964 L 407.8775 421.6488 L 407.2986 422.0774 L 407.4825 422.8551 L 406.7429 422.3115 L 405.9267 423.1687 L 406.7429 423.774 L 405.6929 425.6081 L 406.3253 426.1737 L 406.0877 427.0268 L 404.8687 428.6797 L 405.9802 429.5724 L 405.5242 430.2752 L 404.6349 429.7448 L 404.0486 430.6861 L 403.6233 430.7302 L 402.9371 432.3301 L 402.1132 432.5025 L 401.8141 433.3468 L 401.2239 433.073 L 400.645 435.0974 L 399.8748 435.1636 L 399.0815 436.5117 L 398.8439 437.3961 L 399.7637 437.6703 L 398.8516 438.7266 L 399.8442 439.8318 L 399.3381 440.9282 L 400.3539 441.3748 L 401.9905 438.4572 L 402.7916 439.6065 L 403.7534 437.9617 L 404.8458 436.5518 L 405.8117 436.1096 L 405.9418 436.7948 L 410.1272 438.7799 L 411.9438 442.4936 L 412.2925 444.1692 L 414.2398 443.5679 L 413.9024 441.9187 L 412.6145 442.4447 L 412.2313 441.8257 L 412.6454 441.6049 L 412.9442 440.3137 L 413.3505 439.9468 L 412.856 439.2706 L 413.8373 438.9254 L 414.2742 439.7524 L 415.3204 440.0174 L 414.7302 437.847 L 417.371 436.189 L 418.9461 435.3848 L 418.4442 433.546 L 418.8428 433.3291 L 418.5247 432.6661 L 420.3107 431.3492 L 424.0244 431.358 L 428.777 428.2864 L 428.7693 429.0862 L 430.0341 430.8011 L 430.7279 431.1415 L 432.4141 430.3766 L 433.0352 429.4089 L 433.4721 430.3546 L 434.9361 431.2209 L 435.2388 430.8364 L 435.8982 431.9016 L 434.9899 433.36 L 434.8747 435.4069 L 434.2999 436.2997 L 435.0971 435.9196 L 437.0403 436.1714 L 437.6726 436.45 L 438.1211 436.0391 L 438.9489 437.1351 L 438.4814 437.657 L 438.853 438.7975 L 439.3974 439.0316 L 439.723 438.2536 L 439.723 440.0751 L 438.3317 442.1885 L 437.7377 443.5503 L 437.1819 445.5178 L 436.5879 451.8326 L 436.7337 453.3182 L 436.3696 453.6193 L 434.9323 453.4822 L 434.1544 454.3933 L 435.8637 457.0114 L 436.9942 457.1132 L 438.1785 457.613 L 439.3398 457.6042 L 440.0758 457.2062 L 440.6045 457.7545 L 441.5705 456.8169 L 443.9315 457.0025 L 444.7938 457.6527 L 446.1351 457.8828 L 446.1506 459.117 L 446.894 458.3606 L 448.4195 458.1129 L 448.9215 457.6972 L 448.9753 458.5819 L 449.9908 459.5592 L 451.451 458.6925 L 452.4092 458.4492 L 453.057 457.8563 L 453.2141 456.9805 L 454.0841 457.0025 L 454.4827 456.2241 L 454.7242 457.047 L 456.1347 459.0682 L 457.0621 458.9711 L 456.7439 456.3479 L 457.0009 455.4147 L 458.4993 454.4551 L 460.7567 454.4462 L 461.9335 454.8046 L 463.4243 458.1041 L 463.7617 457.7369 L 464.1986 458.4312 L 464.3941 459.9973 L 464.9997 461.0456 L 465.4328 462.6029 L 465.8771 465.5138 L 467.2532 466.6775 L 468.8554 467.456 L 469.3113 467.9514 L 472.5192 469.8763 L 473.8837 471.9827 L 475.3976 473.7171 L 475.7656 473.1904 L 476.6701 474.1685 L 476.2026 474.7349 L 476.6701 476.1246 L 476.3636 476.523 L 476.8311 477.483 L 476.2982 478.5056 L 476.3636 479.8199 L 475.4588 480.5017 L 475.8423 481.5639 L 475.1294 482.542 L 475.3516 483.7152 L 475.7273 483.7861 L 475.8996 485.2467 L 476.4553 485.4548 L 476.3864 486.7386 L 476.7123 487.1723 L 477.5517 494.3358 L 482.0703 493.9948 L 491.905 494.8761 L 497.3973 495 L 499.5166 494.4862 L 501.6017 493.5566 L 514.0348 479.3818 L 519.3738 474.8988 L 533.819 465.319 L 530.0438 457.9181 L 526.3607 449.8909 L 524.9849 447.2247 L 524.6285 447.4853 L 523.5859 446.7645 L 522.3135 442.6215 L 519.2702 442.405 L 517.764 441.9981 L 517.423 443.3864 L 516.277 443.4661 L 516.3843 441.9452 L 516.0124 441.2777 L 515.5104 441.3704 L 513.4253 440.7911 L 512.3792 439.204 L 512.2948 438.2094 L 513.1072 438.2932 L 513.2643 436.8525 L 512.0266 436.711 L 511.3827 437.0381 L 511.2752 438.9875 L 509.9148 439.0493 L 509.8227 438.28 L 508.6845 438.298 L 508.6845 437.2193 L 507.6304 436.8124 L 506.3885 434.5314 L 506.3351 433.3824 L 508.0941 433.4045 L 507.9485 431.6053 L 507.6188 430.2484 L 507.7991 428.6043 L 507.5499 427.5039 L 507.6957 425.9396 L 507.1246 425.8378 L 507.1091 424.5297 L 507.3812 423.8979 L 507.3622 421.8962 L 507.0057 421.1185 L 507.2012 420.2525 L 505.9133 419.8769 L 504.3189 418.5115 L 503.882 418.4321 L 503.0734 417.4202 L 501.981 417.3143 L 501.4062 415.101 L 501.2108 413.3338 L 500.6435 412.2999 L 500.1644 409.3536 L 498.823 407.6618 L 498.4895 408.3289 L 497.6539 407.6883 L 496.6191 409.168 L 495.611 409.3757 L 494.6377 410.0428 L 494.0935 409.676 L 493.1122 409.7601 L 492.1578 408.7928 L 491.6903 409.2257 L 490.4716 409.2169 L 490.0882 408.4436 L 488.5668 409.1592 L 488.352 408.5807 L 486.4166 408.7663 L 486.3323 408.0639 L 485.5657 408.0727 L 485.489 409.1063 L 485.0292 409.411 L 484.1209 408.9383 L 483.5114 407.0215 L 483.109 407.0259 L 483.1473 405.7186 L 481.4647 406.3103 L 481.4263 408.8766 L 481.8021 408.9162 L 482.0626 411.5358 L 481.8249 412.512 L 481.4302 412.534 L 481.3458 413.9656 L 480.6253 414.1997 L 480.4759 413.758 L 479.6635 413.78 L 479.5982 414.4295 L 478.9275 414.5574 L 478.7781 413.5812 L 477.5555 413.9612 L 477.0916 412.3708 L 476.3864 412.459 L 476.0071 411.9026 L 475.2138 411.8893 L 475.4244 410.2196 L 474.2095 410.0075 L 474.0984 409.5437 L 473.2246 409.8704 L 472.3814 409.5878 L 472.1975 409.0092 L 469.8249 408.881 L 469.0164 405.9571 L 469.5183 406.2442 L 469.2653 405.0559 L 468.8093 405.2018 L 468.1808 403.2762 L 467.4947 403.3821 L 466.5594 402.9715 L 466.4828 402.0218 L 464.509 402.6757 L 463.3132 401.2183 L 461.9757 402.3445 L 460.0133 404.6983 L 459.0474 405.2106 L 455.5481 406.156 L 453.6011 406.421 L 453.2447 406.858 L 449.9869 406.9642 L 449.0519 407.123 L 447.8522 406.2795 L 447.2199 405.193 L 445.4529 405.0603 L 445.0504 405.5506 L 444.9242 407.8827 L 445.0237 408.8545 L 443.9888 408.7707 L 443.1456 407.8827 L 441.0302 406.7874 L 441.329 405.8641 L 440.1753 405.3121 L 439.723 407.6133 L 440.459 408.7222 L 440.344 409.8042 L 440.7043 410.6878 L 440.781 412.0305 L 438.8952 411.8537 L 438.1479 412.6182 L 437.7225 411.5666 L 435.8982 411.4696 L 435.534 412.1102 L 434.4149 411.9731 L 433.1157 413.4661 L 432.464 412.8034 L 432.3989 412.1411 L 433.1308 411.1958 L 434.3151 408.5851 L 434.7407 408.1124 L 435.3193 405.1842 L 433.4299 404.5527 L 432.4295 404.5259 L 430.8197 405.118 L 430.6091 404.155 L 429.5166 402.7947 L 427.0255 406.5709 L 426.3815 406.8977 L 426.4008 408.1168 L 427.7 408.9515 L 428.3591 408.7222 L 429.072 410.0913 L 428.6161 411.3413 L 427.8227 411.5843 L 427.8494 410.754 L 427.1098 411.2663 L 424.9214 410.5772 L 424.3924 410.9572 L 424.1242 410.3342 L 421.8053 410.7099 L 421.8246 411.3501 L 420.8548 411.739 L 420.5712 410.8643 L 417.4245 411.2884 L 416.4589 411.2796 L 414.2971 411.8228 L 413.5076 412.7373 L 413.109 412.2602 L 412.9596 410.8643 L 412.534 411.7302 L 411.323 411.5137 L 411.3958 410.2593 L 408.8126 409.1901 L 408.7015 408.2495 L 408.9736 406.3633 L 409.6481 404.2124 L 409.7515 402.3974 L 410.5258 399.2575 L 410.6217 397.9019 L 410.0045 397.129 L 410.0812 396.1796 L 409.5715 396.3696 L 407.2066 397.3896 L 406.5092 397.3278 L 406.72 398.1048 L 406.0568 397.7119 L 405.6543 396.2858 L 405.0413 396.4931 L 404.8957 395.1773 L 405.5204 395.3144 L 406.0761 394.8153 L 404.6465 393.8751 L 403.945 395.0141 L 402.573 395.2394 L 402.4081 393.76 L 400.9403 394.0295 Z M 519.4582 492.5779 L 519.4926 493.2644 L 519.9869 492.7374 L 519.4582 492.5779 Z M 518.2968 489.16 L 517.4729 489.1071 L 517.4764 489.7577 L 519.0979 490.6699 L 520.0751 490.0322 L 519.4427 489.2354 L 518.2968 489.16 Z M 513.9736 484.1934 L 513.9314 484.8924 L 514.6672 484.3701 L 513.9736 484.1934 Z" fill="[object Object]" fill-opacity="1" stroke="dodgerblue" stroke-width="1" paint-order="fill" stroke-opacity="1" stroke-dasharray="" stroke-linecap="butt" stroke-miterlimit="10" style="filter: url(&quot;#zr2323-shadow-0&quot;);">
</path>
<path d="M 491.1155 315.8792 L 490.7398 316.0773 L 490.3106 317.5133 L 489.5173 317.8526 L 489.0114 316.8878 L 484.9372 318.6149 L 483.2815 319.1919 L 480.9933 319.7826 L 480.5258 319.3639 L 479.8895 319.8396 L 480.0811 320.3243 L 479.1039 320.4346 L 478.4101 319.8002 L 478.6747 321.2759 L 478.0385 322.1573 L 478.203 322.7741 L 478.8318 322.2102 L 479.5177 323.5672 L 480.177 323.3427 L 481.0892 324.3251 L 479.2993 326.7884 L 475.095 325.6339 L 475.0489 326.2242 L 474.5122 325.9908 L 473.6844 327.1497 L 473.9565 329.0227 L 472.9525 329.058 L 472.9754 327.1188 L 471.7989 327.0134 L 469.9285 326.4536 L 469.5106 327.7051 L 467.8205 328.0002 L 469.4684 328.2428 L 469.2501 329.6751 L 467.9584 329.3664 L 467.1267 329.5649 L 466.8469 332.0418 L 466.3143 332.6457 L 463.6159 333.4432 L 462.8457 333.4697 L 462.9645 331.6845 L 463.4742 329.2914 L 464.3519 326.4624 L 464.689 324.6423 L 462.6387 324.9025 L 459.2582 325.8938 L 458.6758 324.9334 L 457.0698 325.105 L 457.4223 323.9638 L 456.8782 324.4618 L 455.5175 324.9775 L 452.0031 323.0299 L 451.9188 327.3305 L 451.4242 327.2953 L 451.5546 328.9301 L 451.9684 329.1021 L 451.9609 330.0805 L 452.5241 330.0805 L 452.5128 332.1388 L 451.1406 332.707 L 450.4738 332.0241 L 449.8951 332.4428 L 450.1402 333.4079 L 449.5271 333.831 L 449.9409 335.872 L 448.841 335.6823 L 448.8603 336.1363 L 447.7257 335.9558 L 447.8216 337.4322 L 447.3808 337.4411 L 447.4613 338.4816 L 445.8286 338.812 L 444.4029 338.3316 L 444.3874 339.4203 L 445.062 339.3986 L 445.0468 341.5278 L 444.675 341.5234 L 444.6135 342.511 L 444.146 342.6341 L 443.9811 341.9376 L 443.5097 342.0788 L 443.0422 340.7387 L 442.0496 341.2323 L 441.67 339.9452 L 440.9571 340.1521 L 440.8766 339.4953 L 439.267 339.7158 L 438.5925 339.3501 L 438.2129 338.2566 L 437.8681 338.8164 L 437.0403 337.7939 L 436.4385 337.7718 L 435.1853 336.1627 L 434.296 335.7485 L 433.8514 334.977 L 433.3684 335.4092 L 432.878 334.6245 L 431.8201 336.3788 L 430.3866 338.0405 L 430.4671 338.812 L 429.5781 339.5879 L 428.8498 339.2531 L 429.3672 340.2623 L 429.2752 341.1573 L 428.7464 341.3867 L 429.6393 343.1678 L 429.2446 344.1775 L 429.5971 346.0159 L 430.2105 346.2806 L 431.4102 345.5837 L 432.8819 347.2329 L 434.1273 347.9695 L 434.4761 347.8504 L 435.3463 349.9667 L 435.5379 351.0738 L 436.6378 351.2678 L 436.6838 353.7815 L 437.0593 353.8035 L 436.5419 354.6765 L 435.1161 354.7162 L 434.3688 354.2975 L 434.4264 355.1572 L 431.7895 354.9543 L 431.7205 354.4695 L 429.9075 354.7118 L 429.7237 356.0482 L 428.9493 354.9543 L 427.9299 355.0602 L 427.4814 354.2843 L 427.9032 353.0141 L 427.4586 352.0437 L 426.1555 351.9952 L 425.5306 352.6656 L 425.6916 353.2831 L 425.113 354.1608 L 424.1625 354.8529 L 424.5572 355.8409 L 425.5116 357.3052 L 425.868 356.304 L 426.6307 356.6745 L 426.7225 358.0726 L 428.363 359.2943 L 427.5084 360.7987 L 428.2673 360.8869 L 428.7922 361.4779 L 429.486 363.4851 L 429.3901 364.2967 L 428.5739 364.2041 L 428.4168 366.048 L 426.9756 366.2333 L 426.5158 365.5099 L 425.4195 366.3924 L 427.4853 368.3379 L 429.9729 371.444 L 430.5669 372.8253 L 430.5399 377.5732 L 429.4477 377.6265 L 429.1947 382.3885 L 429.3212 382.7505 L 429.1795 385.6637 L 428.183 385.2311 L 428.2442 387.3765 L 428.7156 388.3961 L 427.6311 388.7493 L 426.1095 388.9349 L 426.1478 389.6762 L 424.2353 389.6277 L 424.0974 390.4003 L 423.4918 390.4576 L 423.6489 391.0979 L 422.9667 391.3585 L 422.9283 392.0072 L 421.7747 392.2722 L 419.8544 392.2457 L 418.4748 391.747 L 418.2449 390.7667 L 417.5243 389.7648 L 417.6508 388.5019 L 416.5239 388.8331 L 415.907 387.0233 L 414.9105 387.1468 L 414.715 386.7009 L 413.726 387.0012 L 414.508 389.1995 L 413.592 390.3077 L 413.8373 391.3805 L 412.9786 391.7558 L 411.8366 391.5349 L 411.3958 393.0492 L 410.9972 395.2041 L 409.5332 395.6764 L 409.5715 396.3696 L 410.0812 396.1796 L 410.0045 397.129 L 410.6217 397.9019 L 410.5258 399.2575 L 409.7515 402.3974 L 409.6481 404.2124 L 408.9736 406.3633 L 408.7015 408.2495 L 408.8126 409.1901 L 411.3958 410.2593 L 411.323 411.5137 L 412.534 411.7302 L 412.9596 410.8643 L 413.109 412.2602 L 413.5076 412.7373 L 414.2971 411.8228 L 416.4589 411.2796 L 417.4245 411.2884 L 420.5712 410.8643 L 420.8548 411.739 L 421.8246 411.3501 L 421.8053 410.7099 L 424.1242 410.3342 L 424.3924 410.9572 L 424.9214 410.5772 L 427.1098 411.2663 L 427.8494 410.754 L 427.8227 411.5843 L 428.6161 411.3413 L 429.072 410.0913 L 428.3591 408.7222 L 427.7 408.9515 L 426.4008 408.1168 L 426.3815 406.8977 L 427.0255 406.5709 L 429.5166 402.7947 L 430.6091 404.155 L 430.8197 405.118 L 432.4295 404.5259 L 433.4299 404.5527 L 435.3193 405.1842 L 434.7407 408.1124 L 434.3151 408.5851 L 433.1308 411.1958 L 432.3989 412.1411 L 432.464 412.8034 L 433.1157 413.4661 L 434.4149 411.9731 L 435.534 412.1102 L 435.8982 411.4696 L 437.7225 411.5666 L 438.1479 412.6182 L 438.8952 411.8537 L 440.781 412.0305 L 440.7043 410.6878 L 440.344 409.8042 L 440.459 408.7222 L 439.723 407.6133 L 440.1753 405.3121 L 441.329 405.8641 L 441.0302 406.7874 L 443.1456 407.8827 L 443.9888 408.7707 L 445.0237 408.8545 L 444.9242 407.8827 L 445.0504 405.5506 L 445.4529 405.0603 L 447.2199 405.193 L 447.8522 406.2795 L 449.0519 407.123 L 449.9869 406.9642 L 453.2447 406.858 L 453.6011 406.421 L 455.5481 406.156 L 459.0474 405.2106 L 460.0133 404.6983 L 461.9757 402.3445 L 463.3132 401.2183 L 464.509 402.6757 L 466.4828 402.0218 L 466.5594 402.9715 L 467.4947 403.3821 L 468.1808 403.2762 L 468.8093 405.2018 L 469.2653 405.0559 L 469.5183 406.2442 L 469.0164 405.9571 L 469.8249 408.881 L 472.1975 409.0092 L 472.3814 409.5878 L 473.2246 409.8704 L 474.0984 409.5437 L 474.2095 410.0075 L 475.4244 410.2196 L 475.2138 411.8893 L 476.0071 411.9026 L 476.3864 412.459 L 477.0916 412.3708 L 477.5555 413.9612 L 478.7781 413.5812 L 478.9275 414.5574 L 479.5982 414.4295 L 479.6635 413.78 L 480.4759 413.758 L 480.6253 414.1997 L 481.3458 413.9656 L 481.4302 412.534 L 481.8249 412.512 L 482.0626 411.5358 L 481.8021 408.9162 L 481.4263 408.8766 L 481.4647 406.3103 L 483.1473 405.7186 L 483.109 407.0259 L 483.5114 407.0215 L 484.1209 408.9383 L 485.0292 409.411 L 485.489 409.1063 L 485.5657 408.0727 L 486.3323 408.0639 L 486.4166 408.7663 L 488.352 408.5807 L 488.5668 409.1592 L 490.0882 408.4436 L 490.4716 409.2169 L 491.6903 409.2257 L 492.1578 408.7928 L 493.1122 409.7601 L 494.0935 409.676 L 494.6377 410.0428 L 495.611 409.3757 L 496.6191 409.168 L 497.6539 407.6883 L 498.4895 408.3289 L 498.823 407.6618 L 499.7236 406.5136 L 499.9918 405.2636 L 499.8041 404.6586 L 498.9187 403.7709 L 498.9303 402.1501 L 498.6427 401.2624 L 499.8885 400.7368 L 499.6202 400.2024 L 500.3521 400.1583 L 500.8965 399.6239 L 501.8123 399.7434 L 501.7434 398.1405 L 501.3908 396.3299 L 502.1458 395.9194 L 502.5866 395.1597 L 501.7627 394.5462 L 501.7012 393.5175 L 501.9388 391.8969 L 501.866 390.6344 L 501.3525 388.4181 L 501.4752 386.6304 L 501.0688 384.4938 L 500.724 383.9024 L 498.6698 384.5912 L 496.6001 384.3659 L 494.0243 382.8608 L 492.6868 382.6314 L 492.085 382.874 L 491.652 381.9029 L 491.9547 379.4536 L 491.9202 377.7941 L 492.1156 377.2733 L 492.9054 376.9025 L 495.0784 373.4872 L 495.5192 371.9913 L 496.7379 370.6409 L 496.3355 370.3189 L 495.5383 370.6718 L 493.6566 370.8618 L 493.8366 370.0102 L 493.8826 365.8716 L 493.7216 364.4863 L 493.9171 364.032 L 493.8214 360.8075 L 494.2162 358.99 L 494.2812 353.5521 L 495.9677 352.6965 L 496.5157 354.0285 L 499.2713 353.239 L 500.582 352.2246 L 500.3292 351.2281 L 502.1114 350.6415 L 502.2991 350.0814 L 501.6629 349.0806 L 502.2762 348.6748 L 502.5905 347.1359 L 503.5065 346.6819 L 504.0085 346.9594 L 504.3919 346.4085 L 503.3645 343.062 L 501.8393 339.0943 L 500.8274 339.403 L 500.6358 338.7194 L 498.6926 339.2839 L 497.9183 336.5641 L 498.7847 336.1671 L 498.9341 336.6258 L 500.2565 335.1402 L 499.9841 334.404 L 499.3633 334.7789 L 498.5049 333.2933 L 499.1679 332.5398 L 498.2097 332.4869 L 497.4279 331.0501 L 497.6462 330.9355 L 496.9143 329.5384 L 497.2209 329.3796 L 496.6729 328.1855 L 496.8567 327.8594 L 496.1439 326.2727 L 494.676 324.6864 L 495.2394 324.2457 L 494.6644 323.0034 L 494.3196 322.8887 L 493.8327 321.0866 L 493.1659 320.7165 L 493.231 319.8792 L 492.4721 318.183 L 492.0429 318.1128 L 491.1155 315.8792 Z" fill="[object Object]" fill-opacity="1" stroke="dodgerblue" stroke-width="1" paint-order="fill" stroke-opacity="1" stroke-dasharray="" stroke-linecap="butt" stroke-miterlimit="10" style="filter: url(&quot;#zr2323-shadow-0&quot;);">
</path>
<path d="M 444.2226 274.0843 L 443.2989 274.5286 L 441.2601 274.5154 L 441.2295 273.7101 L 440.7542 274.049 L 439.7729 273.7366 L 439.8917 273.3098 L 438.1401 272.3505 L 437.9679 272.8125 L 436.9099 272.4079 L 436.1127 271.7081 L 436.3042 271.2328 L 435.0205 270.5907 L 434.7253 270.9689 L 433.541 270.9164 L 432.4717 272.2098 L 431.2453 274.0622 L 430.4633 274.5679 L 430.9079 275.184 L 429.0797 274.2294 L 428.1408 270.2783 L 427.5046 269.8339 L 426.6881 268.4744 L 425.7991 268.5449 L 425.914 268.932 L 425.1896 270.0581 L 424.2697 273.8597 L 425.1474 274.4272 L 424.4883 275.9628 L 424.0092 276.4689 L 421.8935 276.8431 L 420.7782 277.2261 L 419.2758 277.2963 L 418.9194 280.9578 L 418.6512 285.1695 L 417.7388 285.0728 L 418.8351 285.6275 L 419.5785 285.2974 L 419.364 286.7367 L 419.4558 288.1275 L 418.724 288.3521 L 419.0994 289.5055 L 419.6438 290.1391 L 420.4179 290.1523 L 420.3606 290.8919 L 419.6629 290.9404 L 419.6822 292.2305 L 419.1532 292.3448 L 419.1071 293.1901 L 419.9272 297.8922 L 420.5329 301.8859 L 420.9199 303.5329 L 420.2032 303.2907 L 420.2531 304.1056 L 421.0274 303.9777 L 421.1691 304.6032 L 421.7402 304.766 L 421.8436 305.3696 L 421.3072 305.453 L 421.2344 306.3958 L 421.6021 307.4175 L 420.7936 307.8093 L 420.9929 308.5448 L 422.5143 307.9942 L 422.6791 308.558 L 421.4756 309.0689 L 421.5255 309.8004 L 422.3037 310.9938 L 422.6331 312.0159 L 421.8359 312.289 L 421.7937 313.4255 L 422.6447 313.1656 L 423.1698 315.2886 L 422.0007 315.7601 L 422.1579 316.3284 L 423.0088 315.9935 L 422.8057 316.7602 L 423.0739 317.5266 L 422.1962 318.0334 L 421.7019 319.3419 L 420.5251 319.7914 L 420.897 321.1087 L 419.9581 321.1484 L 420.0538 320.2847 L 419.5212 320.3243 L 419.0881 319.4827 L 417.6585 319.6106 L 417.2329 320.3905 L 415.7 320.3685 L 415.3857 318.9365 L 414.3622 319.1522 L 414.3164 320.0513 L 413.2739 320.6989 L 413.2929 321.7607 L 414.186 322.2764 L 413.3695 324.7129 L 412.4957 325.4443 L 411.8366 325.2726 L 411.7983 324.1887 L 410.9627 323.4967 L 409.7746 323.8491 L 409.6635 322.8843 L 409.2073 322.924 L 408.9198 324.0256 L 407.9809 324.1402 L 408.1303 324.929 L 406.9384 326.4756 L 403.8454 326.7267 L 399.4302 326.8149 L 397.4066 327.357 L 388.7869 324.951 L 382.6391 323.7922 L 378.9406 325.7089 L 375.7633 326.4359 L 374.0578 325.7574 L 369.1177 326.2463 L 367.776 327.4364 L 366.6533 329.0271 L 366.2853 330.261 L 366.1703 331.7639 L 364.894 333.5888 L 363.8669 334.4128 L 363.3112 335.5809 L 362.6749 335.8764 L 362.3681 337.9703 L 363.1846 338.9046 L 364.3499 338.9002 L 364.8325 339.8834 L 365.8905 340.0334 L 365.9556 339.3986 L 366.7068 339.4203 L 366.8793 338.8914 L 367.8337 339.0325 L 367.6611 339.7952 L 368.4776 339.6055 L 368.2323 340.5711 L 370.8232 341.1882 L 371.8004 341.1044 L 371.8542 340.0466 L 372.3024 340.2844 L 372.1185 341.1441 L 373.0117 342.4272 L 373.3642 343.9172 L 374.081 343.8114 L 374.8589 344.2833 L 374.7362 344.8563 L 375.5794 346.1791 L 375.5489 346.9021 L 374.1692 346.9638 L 373.9621 349.8476 L 373.1495 352.5818 L 372.7931 354.2049 L 372.7779 355.9555 L 373.0191 357.2655 L 373.5059 358.0417 L 373.456 359.0121 L 374.2036 361.2089 L 374.8206 361.9278 L 374.6444 366.3924 L 374.4297 368.2585 L 374.6519 369.335 L 377.0473 369.5379 L 377.0167 371.1176 L 377.3117 371.8854 L 379.2664 371.0647 L 381.4855 371.9339 L 381.7157 371.3293 L 382.9266 371.4352 L 383.5899 372.0795 L 384.7741 372.4544 L 385.326 372.0795 L 384.1302 370.1116 L 384.2834 369.4762 L 388.0509 369.2821 L 388.3806 366.9393 L 387.7099 366.5512 L 387.8171 364.7557 L 388.3577 365.0777 L 388.6642 364.6451 L 390.3469 365.263 L 390.9484 367.8042 L 391.9986 368.1306 L 392.1519 368.5055 L 391.6998 369.6658 L 393.6275 369.8294 L 397.1535 369.8514 L 397.3911 370.4557 L 398.9511 370.4733 L 399.0815 371.9075 L 399.6179 372.7679 L 399.3764 373.0193 L 399.6601 374.5064 L 399.6488 376.8275 L 399.0393 376.991 L 399.227 377.7677 L 400.419 377.5071 L 400.3539 378.734 L 401.0513 379.7227 L 401.6608 383.0769 L 402.071 382.9446 L 402.4925 383.9906 L 401.998 384.2159 L 401.9828 385.3458 L 401.1167 385.893 L 399.9515 386.0125 L 399.4801 387.3897 L 400.1047 388.9878 L 399.802 389.4248 L 400.3961 390.9435 L 399.549 391.1244 L 399.7828 392.2943 L 400.4074 392.3692 L 400.5648 394.0074 L 400.9403 394.0295 L 402.4081 393.76 L 402.573 395.2394 L 403.945 395.0141 L 404.6465 393.8751 L 406.0761 394.8153 L 405.5204 395.3144 L 404.8957 395.1773 L 405.0413 396.4931 L 405.6543 396.2858 L 406.0568 397.7119 L 406.72 398.1048 L 406.5092 397.3278 L 407.2066 397.3896 L 409.5715 396.3696 L 409.5332 395.6764 L 410.9972 395.2041 L 411.3958 393.0492 L 411.8366 391.5349 L 412.9786 391.7558 L 413.8373 391.3805 L 413.592 390.3077 L 414.508 389.1995 L 413.726 387.0012 L 414.715 386.7009 L 414.9105 387.1468 L 415.907 387.0233 L 416.5239 388.8331 L 417.6508 388.5019 L 417.5243 389.7648 L 418.2449 390.7667 L 418.4748 391.747 L 419.8544 392.2457 L 421.7747 392.2722 L 422.9283 392.0072 L 422.9667 391.3585 L 423.6489 391.0979 L 423.4918 390.4576 L 424.0974 390.4003 L 424.2353 389.6277 L 426.1478 389.6762 L 426.1095 388.9349 L 427.6311 388.7493 L 428.7156 388.3961 L 428.2442 387.3765 L 428.183 385.2311 L 429.1795 385.6637 L 429.3212 382.7505 L 429.1947 382.3885 L 429.4477 377.6265 L 430.5399 377.5732 L 430.5669 372.8253 L 429.9729 371.444 L 427.4853 368.3379 L 425.4195 366.3924 L 426.5158 365.5099 L 426.9756 366.2333 L 428.4168 366.048 L 428.5739 364.2041 L 429.3901 364.2967 L 429.486 363.4851 L 428.7922 361.4779 L 428.2673 360.8869 L 427.5084 360.7987 L 428.363 359.2943 L 426.7225 358.0726 L 426.6307 356.6745 L 425.868 356.304 L 425.5116 357.3052 L 424.5572 355.8409 L 424.1625 354.8529 L 425.113 354.1608 L 425.6916 353.2831 L 425.5306 352.6656 L 426.1555 351.9952 L 427.4586 352.0437 L 427.9032 353.0141 L 427.4814 354.2843 L 427.9299 355.0602 L 428.9493 354.9543 L 429.7237 356.0482 L 429.9075 354.7118 L 431.7205 354.4695 L 431.7895 354.9543 L 434.4264 355.1572 L 434.3688 354.2975 L 435.1161 354.7162 L 436.5419 354.6765 L 437.0593 353.8035 L 436.6838 353.7815 L 436.6378 351.2678 L 435.5379 351.0738 L 435.3463 349.9667 L 434.4761 347.8504 L 434.1273 347.9695 L 432.8819 347.2329 L 431.4102 345.5837 L 430.2105 346.2806 L 429.5971 346.0159 L 429.2446 344.1775 L 429.6393 343.1678 L 428.7464 341.3867 L 429.2752 341.1573 L 429.3672 340.2623 L 428.8498 339.2531 L 429.5781 339.5879 L 430.4671 338.812 L 430.3866 338.0405 L 431.8201 336.3788 L 432.878 334.6245 L 433.3684 335.4092 L 433.8514 334.977 L 434.296 335.7485 L 435.1853 336.1627 L 436.4385 337.7718 L 437.0403 337.7939 L 437.8681 338.8164 L 438.2129 338.2566 L 438.5925 339.3501 L 439.267 339.7158 L 440.8766 339.4953 L 440.9571 340.1521 L 441.67 339.9452 L 442.0496 341.2323 L 443.0422 340.7387 L 443.5097 342.0788 L 443.9811 341.9376 L 444.146 342.6341 L 444.6135 342.511 L 444.675 341.5234 L 445.0468 341.5278 L 445.062 339.3986 L 444.3874 339.4203 L 444.4029 338.3316 L 445.8286 338.812 L 447.4613 338.4816 L 447.3808 337.4411 L 447.8216 337.4322 L 447.7257 335.9558 L 448.8603 336.1363 L 448.841 335.6823 L 449.9409 335.872 L 449.5271 333.831 L 450.1402 333.4079 L 449.8951 332.4428 L 450.4738 332.0241 L 451.1406 332.707 L 452.5128 332.1388 L 452.5241 330.0805 L 451.9609 330.0805 L 451.9684 329.1021 L 451.5546 328.9301 L 451.4242 327.2953 L 451.9188 327.3305 L 452.0031 323.0299 L 455.5175 324.9775 L 456.8782 324.4618 L 457.4223 323.9638 L 457.0698 325.105 L 458.6758 324.9334 L 459.2582 325.8938 L 462.6387 324.9025 L 464.689 324.6423 L 464.3519 326.4624 L 463.4742 329.2914 L 462.9645 331.6845 L 462.8457 333.4697 L 463.6159 333.4432 L 466.3143 332.6457 L 466.8469 332.0418 L 467.1267 329.5649 L 467.9584 329.3664 L 469.2501 329.6751 L 469.4684 328.2428 L 467.8205 328.0002 L 469.5106 327.7051 L 469.9285 326.4536 L 471.7989 327.0134 L 472.9754 327.1188 L 472.9525 329.058 L 473.9565 329.0227 L 473.6844 327.1497 L 474.5122 325.9908 L 475.0489 326.2242 L 475.095 325.6339 L 479.2993 326.7884 L 481.0892 324.3251 L 480.177 323.3427 L 479.5177 323.5672 L 478.8318 322.2102 L 478.203 322.7741 L 478.0385 322.1573 L 478.6747 321.2759 L 478.4101 319.8002 L 479.1039 320.4346 L 480.0811 320.3243 L 479.8895 319.8396 L 480.5258 319.3639 L 480.9933 319.7826 L 483.2815 319.1919 L 484.9372 318.6149 L 489.0114 316.8878 L 489.5173 317.8526 L 490.3106 317.5133 L 490.7398 316.0773 L 491.1155 315.8792 L 489.6628 313.1877 L 489.5134 311.9498 L 489.0343 310.7692 L 487.5127 308.0516 L 486.8996 306.5233 L 484.6957 303.348 L 483.8524 301.7364 L 483.1167 301.1244 L 482.4535 301.3313 L 482.3694 302.0271 L 481.047 303.6035 L 480.1387 304.3169 L 478.3067 304.6165 L 476.739 302.8769 L 475.367 301.0582 L 474.8303 301.0362 L 474.3551 300.1599 L 474.8036 299.7814 L 474.5737 298.9797 L 473.3473 297.5621 L 473.8493 296.7123 L 473.4239 295.5851 L 472.8106 294.8279 L 473.0214 293.8855 L 472.5729 292.5782 L 472.9638 292.3801 L 472.7301 290.9712 L 471.9023 290.0821 L 471.5265 288.6689 L 471.0552 288.2157 L 470.672 288.8273 L 470.1813 287.2164 L 468.3837 287.4718 L 467.9815 287.1634 L 468.4642 284.8527 L 469.6294 284.3113 L 470.0165 282.6698 L 471.91 280.6847 L 469.8632 280.7729 L 469.8133 280.2756 L 468.6213 280.434 L 467.3643 279.435 L 466.6708 279.2104 L 464.992 279.206 L 465.0226 279.5714 L 463.4626 280.0069 L 463.5508 280.5571 L 462.5466 281.1559 L 462.838 281.565 L 460.8833 282.278 L 460.4541 280.2624 L 459.6646 279.897 L 459.6797 280.9313 L 459.312 281.125 L 458.7293 280.1786 L 457.7636 281.257 L 457.8402 281.741 L 456.9319 281.9524 L 455.8933 282.6301 L 455.9429 283.4266 L 455.1457 283.3432 L 455.05 282.5463 L 453.7698 282.1284 L 453.237 283.0219 L 452.5434 283.0524 L 451.8843 282.2559 L 451.2787 282.6213 L 451.1293 281.7234 L 450.5697 282.1854 L 449.8758 281.358 L 449.0941 282.0667 L 448.4118 281.6002 L 448.8104 280.5263 L 448.1626 280.3414 L 448.0592 278.7528 L 446.668 276.8298 L 446.2388 277.4017 L 445.3534 276.3281 L 444.7171 277.9431 L 443.6823 277.3973 L 444.2725 275.7695 L 444.2226 274.0843 Z" fill="[object Object]" fill-opacity="1" stroke="dodgerblue" stroke-width="1" paint-order="fill" stroke-opacity="1" stroke-dasharray="" stroke-linecap="butt" stroke-miterlimit="10" style="filter: url(&quot;#zr2323-shadow-0&quot;);">
</path>
<path d="M 559.0993 376.3732 L 556.6236 377.3659 L 555.0865 377.5468 L 555.1709 378.2003 L 554.3659 378.3282 L 554.2243 379.8594 L 553.3275 380.0626 L 552.3883 378.3194 L 551.6066 377.8956 L 550.2115 378.2841 L 550.0849 377.7192 L 549.1843 377.291 L 548.4828 377.6706 L 547.5593 377.2645 L 545.9839 375.8347 L 545.2749 376.0023 L 545.2099 374.824 L 545.7656 374.9567 L 545.4205 374.1312 L 544.3589 372.962 L 542.5423 374.0915 L 541.8446 374.0209 L 540.5148 374.7666 L 539.3496 375.9759 L 539.3612 376.4217 L 538.5485 376.3908 L 537.4525 372.0751 L 537.7091 371.0779 L 536.682 370.2704 L 535.7776 370.5924 L 533.156 370.8618 L 531.7992 371.3734 L 530.1858 372.547 L 528.6297 373.0458 L 525.4218 373.0237 L 523.356 373.6372 L 522.2597 374.2727 L 521.3782 375.111 L 520.7689 376.0685 L 518.7144 377.7809 L 515.7403 379.0475 L 514.6788 379.3562 L 510.524 380.0847 L 505.2771 382.075 L 500.724 383.9024 L 501.0688 384.4938 L 501.4752 386.6304 L 501.3525 388.4181 L 501.866 390.6344 L 501.9388 391.8969 L 501.7012 393.5175 L 501.7627 394.5462 L 502.5866 395.1597 L 502.1458 395.9194 L 501.3908 396.3299 L 501.7434 398.1405 L 501.8123 399.7434 L 500.8965 399.6239 L 500.3521 400.1583 L 499.6202 400.2024 L 499.8885 400.7368 L 498.6427 401.2624 L 498.9303 402.1501 L 498.9187 403.7709 L 499.8041 404.6586 L 499.9918 405.2636 L 499.7236 406.5136 L 498.823 407.6618 L 500.1644 409.3536 L 500.6435 412.2999 L 501.2108 413.3338 L 501.4062 415.101 L 501.981 417.3143 L 503.0734 417.4202 L 503.882 418.4321 L 504.3189 418.5115 L 505.9133 419.8769 L 507.2012 420.2525 L 507.0057 421.1185 L 507.3622 421.8962 L 507.3812 423.8979 L 507.1091 424.5297 L 507.1246 425.8378 L 507.6957 425.9396 L 507.5499 427.5039 L 507.7991 428.6043 L 507.6188 430.2484 L 507.9485 431.6053 L 508.0941 433.4045 L 506.3351 433.3824 L 506.3885 434.5314 L 507.6304 436.8124 L 508.6845 437.2193 L 508.6845 438.298 L 509.8227 438.28 L 509.9148 439.0493 L 511.2752 438.9875 L 511.3827 437.0381 L 512.0266 436.711 L 513.2643 436.8525 L 513.1072 438.2932 L 512.2948 438.2094 L 512.3792 439.204 L 513.4253 440.7911 L 515.5104 441.3704 L 516.0124 441.2777 L 516.3843 441.9452 L 516.277 443.4661 L 517.423 443.3864 L 517.764 441.9981 L 519.2702 442.405 L 522.3135 442.6215 L 523.5859 446.7645 L 524.6285 447.4853 L 524.9849 447.2247 L 526.3607 449.8909 L 530.0438 457.9181 L 533.819 465.319 L 544.4127 458.3209 L 554.2358 453.1723 L 567.604 447.4059 L 580.5854 443.3202 L 589.6191 442.5112 L 602.2667 442.763 L 616.6201 442.9446 L 620.6522 443.0769 L 613.9181 430.739 L 613.5887 426.019 L 614.543 421.5514 L 614.7845 421.45 L 614.9645 419.6516 L 615.9417 419.5013 L 615.7578 417.5088 L 616.5283 414.5089 L 616.5779 412.7152 L 616.3979 411.1204 L 616.5705 408.8016 L 616.923 408.1786 L 617.1645 406.063 L 616.2102 402.6977 L 616.2524 401.1165 L 615.0295 400.9224 L 614.9339 400.0481 L 614.0369 399.5533 L 613.5465 398.4316 L 613.117 399.0899 L 612.4041 398.9748 L 612.5229 398.361 L 611.7489 398.4007 L 611.8062 397.7693 L 612.596 397.1687 L 611.5995 396.1223 L 611.6262 395.0229 L 611.1471 394.4532 L 609.1351 393.1422 L 608.3762 393.0227 L 607.9966 393.4465 L 606.8622 391.7205 L 605.8274 391.672 L 604.9652 390.9435 L 605.2562 390.2327 L 604.1641 388.8242 L 603.6006 387.6058 L 598.3305 382.7726 L 596.3224 381.2851 L 594.6552 380.389 L 592.8692 379.683 L 591.5201 379.3871 L 590.2821 379.5109 L 587.7909 378.7781 L 587.4574 379.5021 L 586.4035 378.849 L 584.6365 378.4429 L 582.2716 378.2444 L 580.1102 378.2091 L 572.9085 378.4561 L 572.1229 377.3483 L 571.2951 375.3051 L 568.359 375.3492 L 566.0212 375.014 L 565.7722 375.508 L 562.9128 375.4639 L 562.5335 375.9494 L 560.828 375.9582 L 559.0993 376.3732 Z" fill="[object Object]" fill-opacity="1" stroke="dodgerblue" stroke-width="1" paint-order="fill" stroke-opacity="1" stroke-dasharray="" stroke-linecap="butt" stroke-miterlimit="10" style="filter: url(&quot;#zr2323-shadow-0&quot;);">
</path>
<path d="M 670.6609 148.9754 L 646.5227 141.8648 L 627.2788 136.1145 L 599.0128 128.0957 L 578.9949 119.4172 L 576.4116 119.8902 L 574.775 119.2988 L 570.4786 116.9072 L 567.9952 115.9306 L 567.4891 115.9086 L 567.1442 117.3365 L 565.3772 116.5044 L 565.1051 116.0971 L 561.3222 114.6122 L 557.597 112.3393 L 553.8372 108.4157 L 553.3198 108.569 L 550.7327 106.2395 L 550.5411 105.4338 L 547.4901 104.387 L 547.0303 103.6997 L 543.8032 102.7235 L 543.2667 102.4214 L 539.2768 98.9058 L 536.295 98.8488 L 533.2787 97.8465 L 529.7872 97.479 L 527.4262 96.6689 L 525.8204 95.8155 L 524.6169 94.8481 L 520.7841 93.0228 L 519.2128 91.1847 L 517.8715 89.2239 L 515.1118 83.3512 L 516.6026 82.594 L 515.2728 79.396 L 513.6133 78.1096 L 511.8695 75.3008 L 510.8347 73.9011 L 507.983 69.4046 L 505.5952 67.5499 L 503.6408 65.818 L 490.8969 56.5389 L 488.9116 55.4547 L 487.3977 55.0787 L 485.0637 55 L 482.1047 55.6337 L 479.395 56.3507 L 475.0528 58.1565 L 471.3388 60.5092 L 468.5717 62.1007 L 463.9494 64.4361 L 457.0659 68.8095 L 451.8766 74.2246 L 442.9772 86.3967 L 434.5069 96.7652 L 441.0032 98.1531 L 441.904 98.6606 L 451.4242 110.846 L 481.5377 149.2514 L 497.1059 165.6433 L 504.4454 172.4337 L 510.8537 160.5862 L 513.0766 158.9109 L 516.185 158.5162 L 521.5391 158.7882 L 531.7265 164.6344 L 552.8137 180.551 L 569.6624 189.4512 L 572.1113 190.641 L 574.3458 191.3386 L 577.8911 192.0939 L 586.7023 194.1176 L 590.0789 195.2765 L 603.041 202.2922 L 612.293 207.3423 L 627.6584 214.7032 L 631.8013 216.2583 L 634.879 217.0228 L 638.3055 217.7035 L 642.4909 217.9626 L 645.001 218.2133 L 647.3315 218.1648 L 650.2518 217.673 L 654.9124 215.9948 L 659.3927 213.175 L 668.484 207.922 L 672.4891 205.1859 L 675.214 200.5317 L 676.3216 194.5256 L 675.8119 187.6208 L 674.2635 181.1127 L 670.6609 148.9754 Z M 616.5435 261.753 L 618.3716 261.4362 L 619.901 262.4304 L 621.461 262.7954 L 622.0319 261.6957 L 621.2308 254.4829 L 621.3995 252.482 L 621.2691 248.7315 L 620.4413 245.2582 L 620.269 242.2333 L 619.855 240.8531 L 619.031 239.1694 L 617.0148 236.0401 L 615.2404 233.5305 L 613.9296 232.1459 L 611.5802 230.5155 L 609.6142 228.6127 L 606.433 226.095 L 605.1374 225.5062 L 602.8801 224.9394 L 601.3394 224.2014 L 597.0967 221.4948 L 594.0305 219.9264 L 591.5774 219.2325 L 587.5916 218.547 L 573.2344 212.5204 L 568.9801 210.5878 L 567.1864 210.1181 L 563.2579 208.6512 L 562.5602 208.0668 L 560.5749 205.2914 L 559.7433 203.2188 L 558.237 198.0555 L 556.8612 197.0017 L 553.4348 195.7594 L 545.4974 194.2051 L 544.3399 194.0867 L 543.3817 194.4333 L 542.2509 195.7418 L 542.182 197.3748 L 542.4657 198.3933 L 544.3167 200.3295 L 547.8082 202.5866 L 549.9854 204.2288 L 551.6027 205.8097 L 553.3926 207.7727 L 555.7881 210.812 L 559.59 215.4898 L 564.5839 218.6216 L 567.631 220.713 L 578.5502 228.3359 L 591.133 237.3497 L 602.5043 245.3593 L 606.0419 248.4147 L 607.115 249.4479 L 608.9088 251.6069 L 611.5534 258.0231 L 612.5155 259.8749 L 614.3627 261.2076 L 616.5435 261.753 Z M 744.2175 221.7322 L 744.6431 222.1891 L 745.6319 221.64 L 745.1412 220.9104 L 744.2175 221.7322 Z M 622.8597 244.5591 L 623.1127 249.7735 L 623.2393 253.7001 L 623.4041 255.0456 L 624.2013 256.6158 L 626.0063 259.536 L 628.605 262.791 L 631.2034 264.8717 L 631.6329 265.6281 L 633.5528 267.1766 L 636.9487 268.3071 L 637.9951 268.1403 L 639.1256 267.357 L 640.5552 267.3614 L 647.0668 268.4306 L 650.1446 268.7471 L 658.8296 271.6948 L 670.8258 272.8522 L 682.0364 272.0117 L 697.3515 277.6925 L 701.5636 281.1074 L 704.4537 281.7983 L 706.504 279.4174 L 711.3217 262.8524 L 711.1263 259.8263 L 709.6661 257.6979 L 699.0074 256.8532 L 688.824 256.7478 L 677.9315 254.7512 L 664.1953 251.8006 L 653.5405 246.9596 L 641.7703 241.2398 L 638.501 240.0004 L 636.9487 239.2664 L 634.9367 238.0881 L 631.1232 237.7411 L 630.1994 237.4026 L 629.1913 236.6157 L 627.1793 235.8817 L 623.3236 235.6487 L 621.4761 235.7016 L 620.6789 235.9214 L 620.3878 236.9895 L 621.7292 239.9038 L 622.5264 241.9786 L 622.8597 244.5591 Z M 574.6946 212.2087 L 575.9248 212.169 L 576.6109 211.8617 L 577.2433 210.4121 L 576.8985 209.2701 L 575.9516 207.8606 L 574.1771 205.8799 L 571.0037 202.5253 L 569.6009 201.3833 L 567.8265 200.5052 L 565.9407 199.9697 L 563.6259 199.5128 L 560.9391 199.5834 L 560.5711 200.0046 L 560.6554 201.2649 L 561.1422 202.1037 L 563.4534 205.1948 L 565.6264 207.2192 L 571.0575 211.1457 L 571.8892 211.6022 L 574.6946 212.2087 Z" fill="[object Object]" fill-opacity="1" stroke="rgba(30,144,255,1)" stroke-width="1" paint-order="fill" stroke-opacity="1" stroke-dasharray="" stroke-linecap="butt" stroke-miterlimit="10" style="filter: url(&quot;#zr2323-shadow-1&quot;);">
</path>
<text xml:space="preserve" fill="#bdbdd9" fill-opacity="1" stroke="none" transform="matrix(1,0,0,1,535.0781,296.3615)" dominant-baseline="central" text-anchor="middle" x="0" y="0" style="font: 13 13px sans-serif;">黄浦区</text>
<text xml:space="preserve" fill="#bdbdd9" fill-opacity="1" stroke="none" transform="matrix(1,0,0,1,521.4089,316.7825)" dominant-baseline="central" text-anchor="middle" x="0" y="0" style="font: 13 13px sans-serif;">徐汇区</text>
<text xml:space="preserve" fill="#bdbdd9" fill-opacity="1" stroke="none" transform="matrix(1,0,0,1,508.1459,297.9736)" dominant-baseline="central" text-anchor="middle" x="0" y="0" style="font: 13 13px sans-serif;">长宁区</text>
<text xml:space="preserve" fill="#bdbdd9" fill-opacity="1" stroke="none" transform="matrix(1,0,0,1,526.1154,277.2843)" dominant-baseline="central" text-anchor="middle" x="0" y="0" style="font: 13 13px sans-serif;">静安区</text>
<text xml:space="preserve" fill="#bdbdd9" fill-opacity="1" stroke="none" transform="matrix(1,0,0,1,509.0524,279.9488)" dominant-baseline="central" text-anchor="middle" x="0" y="0" style="font: 13 13px sans-serif;">普陀区</text>
<text xml:space="preserve" fill="#bdbdd9" fill-opacity="1" stroke="none" transform="matrix(1,0,0,1,536.6017,273.2266)" dominant-baseline="central" text-anchor="middle" x="0" y="0" style="font: 13 13px sans-serif;">虹口区</text>
<text xml:space="preserve" fill="#bdbdd9" fill-opacity="1" stroke="none" transform="matrix(1,0,0,1,547.2449,266.6491)" dominant-baseline="central" text-anchor="middle" x="0" y="0" style="font: 13 13px sans-serif;">杨浦区</text>
<text xml:space="preserve" fill="#bdbdd9" fill-opacity="1" stroke="none" transform="matrix(1,0,0,1,514.2016,332.4641)" dominant-baseline="central" text-anchor="middle" x="0" y="0" style="font: 13 13px sans-serif;">闵行区</text>
<text xml:space="preserve" fill="#bdbdd9" fill-opacity="1" stroke="none" transform="matrix(1,0,0,1,515.6082,232.9185)" dominant-baseline="central" text-anchor="middle" x="0" y="0" style="font: 13 13px sans-serif;">宝山区</text>
<text xml:space="preserve" fill="#bdbdd9" fill-opacity="1" stroke="none" transform="matrix(1,0,0,1,469.0526,242.7216)" dominant-baseline="central" text-anchor="middle" x="0" y="0" style="font: 13 13px sans-serif;">嘉定区</text>
<text xml:space="preserve" fill="#bdbdd9" fill-opacity="1" stroke="none" transform="matrix(1,0,0,1,604.461,344.1767)" dominant-baseline="central" text-anchor="middle" x="0" y="0" style="font: 13 13px sans-serif;">浦东新区</text>
<text xml:space="preserve" fill="#bdbdd9" fill-opacity="1" stroke="none" transform="matrix(1,0,0,1,466.3314,444.38)" dominant-baseline="central" text-anchor="middle" x="0" y="0" style="font: 13 13px sans-serif;">金山区</text>
<text xml:space="preserve" fill="#bdbdd9" fill-opacity="1" stroke="none" transform="matrix(1,0,0,1,456.5467,365.2183)" dominant-baseline="central" text-anchor="middle" x="0" y="0" style="font: 13 13px sans-serif;">松江区</text>
<text xml:space="preserve" fill="#bdbdd9" fill-opacity="1" stroke="none" transform="matrix(1,0,0,1,426.7418,333.2896)" dominant-baseline="central" text-anchor="middle" x="0" y="0" style="font: 13 13px sans-serif;">青浦区</text>
<text xml:space="preserve" fill="#bdbdd9" fill-opacity="1" stroke="none" transform="matrix(1,0,0,1,559.6475,417.7947)" dominant-baseline="central" text-anchor="middle" x="0" y="0" style="font: 13 13px sans-serif;">奉贤区</text>
<text xml:space="preserve" fill="rgba(189,189,217,1)" fill-opacity="1" stroke="none" transform="matrix(1,0,0,1,590.0694,168.3992)" dominant-baseline="central" text-anchor="middle" x="0" y="0" style="font: 13 13px sans-serif;">崇明区</text>
<defs>
<filter id="zr2323-shadow-0" x="-100%" y="-100%" width="300%" height="300%">
<feDropShadow dx="0" dy="1" flood-color="#000000" stdDeviation="0 0">
</feDropShadow>
</filter>
<filter id="zr2323-shadow-1" x="-100%" y="-100%" width="300%" height="300%">
<feDropShadow dx="0" dy="1" flood-color="rgba(0,0,0,1)" stdDeviation="0 0">
</feDropShadow>
</filter>
</defs>
</g>
</svg>