<svg xmlns="http://www.w3.org/2000/svg" xmlns:xlink="http://www.w3.org/1999/xlink" version="1.1" baseProfile="full" width="1108" height="550" style="user-select: none; position: absolute; left: 0px; top: 0px;">
<g>
<rect width="1108" height="550" x="0" y="0" id="0" style="fill: transparent;">
</rect>
</g>
<g>
<path d="M 480.8025 189.1261 L 480.8025 189.672 L 476.7137 192.3978 L 477.5317 194.579 L 479.1666 195.6695 L 476.7137 199.4859 L 470.1703 203.3023 L 469.3523 201.1212 L 463.6277 204.9376 L 458.7211 209.8445 L 457.0852 214.7515 L 449.7248 215.2974 L 445.6351 227.8372 L 443.1813 231.6536 L 443.1813 234.3807 L 443.1813 235.4712 L 422.7358 242.0135 L 424.3716 245.2852 L 426.8245 244.1946 L 426.0066 250.1922 L 430.9142 255.0991 L 433.368 259.4615 L 427.6424 263.2778 L 428.4604 265.459 L 430.9142 266.5483 L 430.9142 272.0012 L 429.2783 272.5459 L 421.0999 269.8201 L 420.282 272.0012 L 418.6461 272.0012 L 413.7394 269.2754 L 409.6498 268.7295 L 408.0148 267.0942 L 396.5647 267.6389 L 385.9325 270.9106 L 385.1146 274.727 L 380.2079 276.9082 L 375.3003 276.3635 L 367.1219 280.7246 L 357.3077 280.1799 L 354.8548 276.9082 L 350.7651 276.3635 L 346.6764 281.2705 L 343.4047 282.3611 L 331.9545 280.1799 L 330.3187 281.8152 L 331.1366 283.4504 L 330.3187 282.9058 L 327.0479 287.8127 L 326.2299 291.6291 L 319.6874 292.175 L 318.8695 293.8103 L 311.509 288.9033 L 309.8732 282.3611 L 309.8732 279.0894 L 304.1476 279.634 L 298.423 277.4541 L 295.9692 274.727 L 292.6984 275.273 L 290.2446 272.5459 L 291.0626 267.0942 L 289.4267 264.3684 L 286.155 263.8225 L 285.338 261.0967 L 282.0662 260.5508 L 280.4304 261.6414 L 279.6124 260.0061 L 277.1596 259.4615 L 277.1596 257.825 L 280.4304 257.825 L 282.8842 255.0991 L 280.4304 253.4639 L 281.2483 251.2827 L 280.4304 242.5594 L 275.5237 239.8323 L 273.8878 239.8323 L 273.0699 241.4688 L 270.6161 240.9229 L 269.7982 237.6512 L 270.6161 236.0159 L 267.3453 231.1089 L 271.434 229.4737 L 271.434 227.2925 L 270.6161 226.202 L 272.252 222.9302 L 280.4304 219.1138 L 279.6124 216.9327 L 283.7021 218.0233 L 286.9729 215.2974 L 288.6088 219.6585 L 294.3343 218.5692 L 299.241 210.9351 L 305.7835 210.9351 L 310.6911 208.2093 L 310.6911 206.0281 L 329.5017 197.8494 L 330.3187 195.1236 L 329.5017 190.7613 L 330.3187 188.0355 L 332.7725 187.4908 L 331.9545 185.3097 L 335.2263 183.6744 L 331.9545 171.6793 L 331.9545 166.2264 L 327.8658 163.5006 L 327.8658 161.8641 L 344.2226 156.4125 L 347.4934 158.5936 L 351.5831 158.5936 L 349.1293 153.1408 L 356.4897 133.5128 L 362.2153 136.2387 L 372.0295 136.2387 L 373.6645 137.8752 L 379.39 135.694 L 381.0259 132.9669 L 379.39 122.6083 L 381.8438 118.7919 L 389.2043 117.1554 L 391.6571 113.8849 L 390.8392 112.2485 L 391.6571 110.0673 L 400.6534 109.5226 L 401.4714 111.7038 L 399.8355 112.7944 L 403.1072 114.9743 L 402.2893 116.6108 L 407.1969 119.3366 L 408.8318 122.0624 L 412.9215 124.2436 L 417.0102 123.6989 L 418.6461 125.8801 L 421.9178 125.8801 L 424.3716 128.06 L 426.0066 133.5128 L 429.2783 136.7846 L 430.9142 141.6916 L 429.2783 144.962 L 430.9142 148.7797 L 427.6424 152.0502 L 427.6424 154.7772 L 429.2783 158.5936 L 435.8208 160.2289 L 453.8135 161.8641 L 465.2636 169.4982 L 470.9882 170.0428 L 470.9882 173.3146 L 472.6241 174.9498 L 475.8958 183.1285 L 479.9845 186.9449 L 480.8025 189.1261 Z" fill="[object Object]" fill-opacity="1" stroke="dodgerblue" stroke-width="1" paint-order="fill" stroke-opacity="1" stroke-dasharray="" stroke-linecap="butt" stroke-miterlimit="10" style="filter: url(&quot;#zr2323-shadow-0&quot;);">
</path>
<path d="M 318.8695 293.8103 L 319.6874 292.175 L 326.2299 291.6291 L 327.0479 287.8127 L 330.3187 282.9058 L 331.1366 283.4504 L 330.3187 281.8152 L 331.9545 280.1799 L 343.4047 282.3611 L 346.6764 281.2705 L 350.7651 276.3635 L 354.8548 276.9082 L 357.3077 280.1799 L 367.1219 280.7246 L 375.3003 276.3635 L 380.2079 276.9082 L 385.1146 274.727 L 385.9325 270.9106 L 396.5647 267.6389 L 408.0148 267.0942 L 409.6498 268.7295 L 413.7394 269.2754 L 418.6461 272.0012 L 415.3753 272.5459 L 416.1932 274.1824 L 418.6461 275.8176 L 418.6461 280.1799 L 416.1932 280.7246 L 416.1932 282.3611 L 417.0102 286.7222 L 419.464 287.2681 L 418.6461 289.448 L 419.464 293.2656 L 417.8282 297.6267 L 421.9178 304.1701 L 427.6424 308.5312 L 434.1859 308.5312 L 439.0926 312.3488 L 441.5464 312.3488 L 442.3643 313.4382 L 448.9068 313.4382 L 453.8135 316.7099 L 456.2673 315.6193 L 459.539 317.2558 L 464.4457 315.0747 L 469.3523 317.2558 L 467.7174 318.8911 L 469.3523 318.3452 L 470.1703 319.9816 L 470.9882 320.5263 L 470.9882 322.7075 L 471.8061 324.8886 L 475.0779 326.5239 L 476.7137 324.8886 L 478.3487 327.6144 L 479.1666 323.2534 L 481.6204 325.9792 L 484.8921 326.5239 L 484.0742 322.7075 L 488.9809 321.6169 L 489.7988 315.6193 L 493.0705 316.1652 L 497.1593 318.3452 L 499.6131 324.3427 L 503.7027 329.7956 L 501.2489 332.5214 L 504.5197 337.9743 L 506.1556 356.5116 L 504.5197 358.1481 L 504.5197 361.9645 L 502.8848 361.4186 L 502.8848 359.7834 L 502.0669 360.8739 L 501.2489 365.7809 L 502.8848 367.9621 L 502.0669 369.5973 L 498.7951 370.6879 L 497.9772 367.4162 L 497.1593 370.6879 L 491.4347 365.7809 L 488.9809 371.2326 L 489.7988 373.4137 L 486.528 375.5949 L 481.6204 370.6879 L 474.2599 369.0526 L 470.9882 370.6879 L 470.1703 372.869 L 460.3569 377.776 L 457.0852 384.3182 L 454.6314 385.4088 L 440.7284 386.4994 L 439.9105 378.8666 L 435.8208 377.776 L 435.8208 373.4137 L 434.1859 371.7785 L 430.9142 373.9596 L 427.6424 371.2326 L 419.464 369.5973 L 417.8282 370.1432 L 412.9215 377.2301 L 412.9215 380.5018 L 412.1036 382.1383 L 409.6498 379.4113 L 410.4677 372.3231 L 408.8318 370.6879 L 403.9252 373.4137 L 401.4714 372.869 L 399.8355 374.5043 L 394.1109 374.5043 L 390.8392 370.6879 L 389.2043 370.6879 L 388.3863 373.4137 L 385.1146 370.6879 L 384.2967 373.4137 L 381.0259 367.9621 L 380.2079 369.0526 L 376.1183 367.9621 L 376.1183 364.1457 L 373.6645 365.235 L 369.5757 363.0551 L 367.9399 361.4186 L 367.1219 357.0575 L 366.304 356.5116 L 361.3973 357.6022 L 358.1256 352.6952 L 348.3113 346.6977 L 347.4934 343.4259 L 340.9509 342.8813 L 339.315 347.2436 L 337.6801 344.5165 L 328.6837 340.1555 L 325.412 335.7931 L 318.8695 334.1579 L 316.4157 330.8862 L 317.2336 327.6144 L 315.5978 324.8886 L 316.4157 323.798 L 313.9619 321.0722 L 313.144 316.1652 L 316.4157 313.9841 L 318.0516 318.3452 L 321.3224 315.6193 L 319.6874 307.9865 L 315.5978 301.989 L 315.5978 296.5361 L 318.0516 295.9914 L 318.8695 293.8103 Z" fill="[object Object]" fill-opacity="1" stroke="dodgerblue" stroke-width="1" paint-order="fill" stroke-opacity="1" stroke-dasharray="" stroke-linecap="butt" stroke-miterlimit="10" style="filter: url(&quot;#zr2323-shadow-0&quot;);">
</path>
<path d="M 488.1629 188.5814 L 509.4273 191.3072 L 521.6945 190.2166 L 530.6908 192.3978 L 533.1446 195.6695 L 539.6871 196.7589 L 545.4126 200.0306 L 550.3193 201.1212 L 556.0448 200.0306 L 556.0448 202.7564 L 560.9515 203.847 L 567.494 199.4859 L 583.0329 192.9425 L 601.8435 192.9425 L 610.8398 189.1261 L 616.5653 182.0379 L 625.5617 177.6769 L 625.5617 176.0404 L 620.6541 168.9523 L 623.9258 161.3195 L 625.5617 160.2289 L 641.1005 164.5912 L 646.0072 161.8641 L 649.2789 156.4125 L 659.9111 155.8666 L 664.8178 152.5961 L 665.6357 149.3244 L 668.0895 145.508 L 675.45 144.4174 L 676.2679 141.6916 L 679.5387 142.2362 L 684.4463 139.5104 L 688.535 140.0551 L 690.1709 139.5104 L 691.8068 140.601 L 697.5314 141.1456 L 699.9852 140.0551 L 697.5314 134.0575 L 686.0822 124.2436 L 680.3566 123.6989 L 675.45 128.06 L 670.5424 125.3341 L 664.8178 125.8801 L 662.364 128.06 L 659.0932 125.3341 L 658.2752 122.0624 L 661.546 120.9718 L 661.546 117.1554 L 669.7254 101.3439 L 679.5387 105.1603 L 686.9001 100.2534 L 693.4426 98.0722 L 694.2606 95.3464 L 692.6247 94.8017 L 695.8964 89.8947 L 695.8964 88.2583 L 697.5314 86.0771 L 701.621 78.4443 L 706.5277 75.1726 L 707.3456 72.9927 L 707.3456 71.3562 L 705.7098 70.2656 L 706.5277 68.0857 L 704.0748 66.4492 L 700.8031 66.9951 L 700.8031 65.3586 L 708.1636 58.8164 L 713.8882 57.7258 L 717.1599 61.5422 L 711.4353 67.5398 L 715.524 69.175 L 716.342 70.8115 L 718.7957 70.8115 L 720.4316 68.0857 L 725.3383 71.3562 L 724.5203 73.5373 L 727.7921 82.8066 L 731.0629 83.8972 L 734.3346 82.2607 L 740.8771 83.3513 L 742.513 82.2607 L 745.7847 82.2607 L 747.4206 78.9902 L 749.8735 78.9902 L 756.4169 86.623 L 753.9631 89.8947 L 753.9631 92.6206 L 749.8735 97.5275 L 748.2385 101.3439 L 749.0555 109.5226 L 744.9668 110.0673 L 741.6951 122.6083 L 740.0592 117.7013 L 722.8845 131.8776 L 728.61 140.0551 L 731.8808 137.8752 L 731.8808 136.7846 L 732.6987 136.7846 L 733.5167 138.4198 L 733.5167 137.8752 L 733.5167 140.601 L 728.61 141.6916 L 730.2459 146.0526 L 726.1562 148.7797 L 725.3383 152.5961 L 722.8845 150.4149 L 721.2495 151.5055 L 717.1599 148.7797 L 716.342 152.0502 L 717.9778 152.5961 L 721.2495 158.0477 L 719.6137 162.9547 L 722.0675 170.5887 L 729.4279 167.8617 L 732.6987 177.131 L 731.0629 179.8568 L 734.3346 181.4933 L 733.5167 185.8543 L 731.0629 186.4002 L 729.4279 188.5814 L 726.1562 189.672 L 722.0675 188.0355 L 722.0675 190.2166 L 718.7957 189.672 L 716.342 192.9425 L 713.8882 192.3978 L 704.8918 197.3048 L 701.621 202.2117 L 699.1672 196.2142 L 695.8964 194.033 L 694.2606 195.1236 L 693.4426 202.2117 L 695.0785 203.3023 L 693.4426 207.1187 L 685.2642 207.1187 L 682.8104 201.6671 L 684.4463 201.1212 L 684.4463 197.3048 L 682.8104 197.8494 L 681.1746 195.6695 L 681.9925 193.4884 L 679.5387 190.7613 L 677.0858 191.3072 L 675.45 192.9425 L 671.3603 193.4884 L 670.5424 198.3953 L 665.6357 198.3953 L 663.1819 201.1212 L 662.364 199.4859 L 655.8214 203.847 L 653.3677 203.3023 L 652.5497 197.3048 L 649.2789 196.7589 L 646.0072 201.1212 L 646.8251 203.847 L 643.5543 205.4835 L 644.3713 208.2093 L 643.5543 209.2999 L 645.1893 214.2069 L 645.1893 216.9327 L 642.7364 216.9327 L 640.2826 219.1138 L 637.0109 218.5692 L 632.9221 221.295 L 628.8325 220.2044 L 625.5617 228.3831 L 620.6541 227.8372 L 619.8361 230.5643 L 617.3833 231.1089 L 617.3833 228.3831 L 613.2936 232.1995 L 608.3869 230.0184 L 609.2039 232.1995 L 605.9331 232.7442 L 606.7511 233.8348 L 597.7547 244.1946 L 598.5727 248.011 L 596.9368 248.5557 L 596.1189 248.011 L 595.3009 251.8274 L 590.3943 252.918 L 585.4867 249.6463 L 582.2159 246.9204 L 577.3083 245.8299 L 574.8545 244.1946 L 578.9442 236.0159 L 577.3083 231.1089 L 573.2196 232.1995 L 569.1299 239.2876 L 568.312 250.7368 L 554.409 255.0991 L 546.2306 250.1922 L 545.4126 248.011 L 547.0485 246.3758 L 546.2306 243.6487 L 553.591 236.0159 L 551.9552 230.5643 L 545.4126 231.6536 L 542.1409 234.3807 L 537.2342 232.7442 L 531.5087 234.3807 L 533.1446 237.1065 L 530.6908 239.8323 L 526.602 238.7417 L 525.7841 235.4712 L 523.3303 236.5618 L 521.6945 230.5643 L 519.2416 230.5643 L 514.334 226.202 L 509.4273 225.1114 L 515.1519 220.2044 L 515.9699 215.2974 L 513.5161 210.9351 L 506.9735 212.5716 L 505.3377 214.7515 L 504.5197 213.6609 L 502.8848 215.8421 L 500.431 214.2069 L 501.2489 215.2974 L 498.7951 216.388 L 498.7951 212.0257 L 490.6167 204.9376 L 493.8885 203.3023 L 493.8885 201.6671 L 488.1629 188.5814 Z" fill="[object Object]" fill-opacity="1" stroke="dodgerblue" stroke-width="1" paint-order="fill" stroke-opacity="1" stroke-dasharray="" stroke-linecap="butt" stroke-miterlimit="10" style="filter: url(&quot;#zr2323-shadow-0&quot;);">
</path>
<path d="M 418.6461 272.0012 L 420.282 272.0012 L 421.0999 269.8201 L 429.2783 272.5459 L 430.9142 272.0012 L 430.9142 266.5483 L 428.4604 265.459 L 427.6424 263.2778 L 433.368 259.4615 L 430.9142 255.0991 L 426.0066 250.1922 L 426.8245 244.1946 L 424.3716 245.2852 L 422.7358 242.0135 L 443.1813 235.4712 L 443.1813 234.3807 L 450.5427 233.2901 L 450.5427 236.0159 L 455.4494 236.5618 L 457.0852 239.2876 L 461.1739 238.7417 L 463.6277 243.6487 L 467.7174 243.104 L 471.8061 244.7393 L 474.2599 243.6487 L 479.1666 246.9204 L 480.8025 245.2852 L 483.2563 245.8299 L 483.2563 242.5594 L 487.345 240.9229 L 486.528 233.2901 L 497.1593 238.1971 L 498.7951 235.4712 L 501.2489 236.5618 L 502.8848 234.9253 L 506.1556 236.5618 L 512.6991 243.6487 L 515.9699 244.7393 L 514.334 242.5594 L 515.1519 242.0135 L 518.4237 244.7393 L 520.8774 245.2852 L 524.9662 250.1922 L 528.2379 249.6463 L 530.6908 252.918 L 532.3266 251.8274 L 533.9625 255.0991 L 538.0522 258.3709 L 537.2342 261.0967 L 538.8701 262.7319 L 538.0522 263.8225 L 540.505 268.7295 L 542.1409 269.8201 L 541.323 272.0012 L 541.323 274.1824 L 538.8701 275.8176 L 540.505 277.9988 L 537.2342 277.9988 L 535.5984 280.1799 L 536.4163 282.9058 L 532.3266 287.2681 L 532.3266 289.9939 L 534.7804 292.7197 L 533.9625 294.3562 L 529.8738 296.5361 L 523.3303 293.2656 L 521.6945 294.3562 L 525.7841 301.989 L 528.2379 301.4431 L 529.0558 303.6242 L 530.6908 303.6242 L 529.8738 306.3513 L 530.6908 307.4406 L 529.0558 308.5312 L 524.9662 307.4406 L 525.7841 313.9841 L 520.8774 314.5288 L 520.8774 316.1652 L 517.6057 313.4382 L 515.1519 314.5288 L 515.1519 311.8029 L 512.6991 310.1677 L 511.8811 313.4382 L 506.9735 311.2583 L 506.9735 309.6218 L 503.7027 307.9865 L 499.6131 297.082 L 493.8885 295.4455 L 492.2526 296.5361 L 493.0705 298.7173 L 489.7988 299.2632 L 490.6167 303.0796 L 493.0705 305.2607 L 489.7988 311.8029 L 490.6167 313.9841 L 493.0705 316.1652 L 489.7988 315.6193 L 488.9809 321.6169 L 484.0742 322.7075 L 484.8921 326.5239 L 481.6204 325.9792 L 479.1666 323.2534 L 478.3487 327.6144 L 476.7137 324.8886 L 475.0779 326.5239 L 471.8061 324.8886 L 470.9882 322.7075 L 470.9882 320.5263 L 470.1703 319.9816 L 469.3523 318.3452 L 467.7174 318.8911 L 469.3523 317.2558 L 464.4457 315.0747 L 459.539 317.2558 L 456.2673 315.6193 L 453.8135 316.7099 L 448.9068 313.4382 L 442.3643 313.4382 L 441.5464 312.3488 L 439.0926 312.3488 L 434.1859 308.5312 L 427.6424 308.5312 L 421.9178 304.1701 L 417.8282 297.6267 L 419.464 293.2656 L 418.6461 289.448 L 419.464 287.2681 L 417.0102 286.7222 L 416.1932 282.3611 L 416.1932 280.7246 L 418.6461 280.1799 L 418.6461 275.8176 L 416.1932 274.1824 L 415.3753 272.5459 L 418.6461 272.0012 Z" fill="[object Object]" fill-opacity="1" stroke="dodgerblue" stroke-width="1" paint-order="fill" stroke-opacity="1" stroke-dasharray="" stroke-linecap="butt" stroke-miterlimit="10" style="filter: url(&quot;#zr2323-shadow-0&quot;);">
</path>
<path d="M 530.6908 303.6242 L 531.5087 303.0796 L 532.3266 304.7148 L 531.5087 309.0771 L 537.2342 304.7148 L 534.7804 298.7173 L 541.323 293.8103 L 542.9588 295.4455 L 543.7768 300.3537 L 552.7731 302.5337 L 553.591 305.2607 L 555.2269 306.3513 L 554.409 307.4406 L 555.2269 309.6218 L 554.409 311.8029 L 555.2269 313.4382 L 562.5874 315.0747 L 564.2232 313.4382 L 564.2232 311.8029 L 565.0412 311.2583 L 565.8582 313.4382 L 570.7658 311.8029 L 570.7658 313.4382 L 573.2196 314.5288 L 579.7621 313.9841 L 580.58 316.7099 L 581.398 317.2558 L 583.0329 316.1652 L 588.7584 320.5263 L 591.2122 319.4357 L 593.6651 319.9816 L 592.0292 320.5263 L 591.2122 323.798 L 593.6651 326.5239 L 590.3943 328.705 L 587.9405 336.8837 L 583.8508 336.8837 L 583.0329 337.9743 L 583.8508 339.6095 L 579.7621 347.2436 L 577.3083 347.2436 L 575.6724 343.4259 L 572.4016 345.0624 L 568.312 341.7907 L 566.6761 343.9719 L 565.8582 346.153 L 567.494 348.8788 L 563.4053 353.2399 L 565.0412 355.967 L 567.494 356.5116 L 568.312 360.328 L 572.4016 361.4186 L 573.2196 365.7809 L 569.9478 363.0551 L 566.6761 366.8715 L 569.1299 370.6879 L 571.5837 370.6879 L 573.2196 374.5043 L 566.6761 376.6854 L 565.8582 375.0502 L 563.4053 375.5949 L 562.5874 372.3231 L 560.9515 371.2326 L 559.3156 373.4137 L 555.2269 372.869 L 554.409 371.7785 L 555.2269 370.6879 L 555.2269 369.0526 L 553.591 366.8715 L 555.2269 364.6903 L 550.3193 364.1457 L 549.5014 368.5067 L 546.2306 370.6879 L 546.2306 375.0502 L 541.323 381.0477 L 542.1409 392.4969 L 538.8701 394.6781 L 538.0522 392.4969 L 533.9625 395.7687 L 531.5087 396.3133 L 529.0558 394.1322 L 529.8738 392.4969 L 527.42 389.7711 L 527.42 387.0453 L 527.42 388.1346 L 524.9662 384.3182 L 524.9662 382.683 L 520.8774 373.9596 L 517.6057 374.5043 L 516.7878 375.5949 L 514.334 370.6879 L 515.9699 367.9621 L 511.0632 361.9645 L 508.6094 365.7809 L 508.6094 370.1432 L 506.9735 368.5067 L 506.1556 356.5116 L 504.5197 337.9743 L 501.2489 332.5214 L 503.7027 329.7956 L 499.6131 324.3427 L 497.1593 318.3452 L 493.0705 316.1652 L 490.6167 313.9841 L 489.7988 311.8029 L 493.0705 305.2607 L 490.6167 303.0796 L 489.7988 299.2632 L 493.0705 298.7173 L 492.2526 296.5361 L 493.8885 295.4455 L 499.6131 297.082 L 503.7027 307.9865 L 506.9735 309.6218 L 506.9735 311.2583 L 511.8811 313.4382 L 512.6991 310.1677 L 515.1519 311.8029 L 515.1519 314.5288 L 517.6057 313.4382 L 520.8774 316.1652 L 520.8774 314.5288 L 525.7841 313.9841 L 524.9662 307.4406 L 529.0558 308.5312 L 530.6908 307.4406 L 529.8738 306.3513 L 530.6908 303.6242 Z" fill="[object Object]" fill-opacity="1" stroke="dodgerblue" stroke-width="1" paint-order="fill" stroke-opacity="1" stroke-dasharray="" stroke-linecap="butt" stroke-miterlimit="10" style="filter: url(&quot;#zr2323-shadow-0&quot;);">
</path>
<path d="M 713.8882 57.7258 L 734.3346 55 L 745.7847 60.9976 L 747.4206 59.3611 L 752.3273 60.9976 L 753.1452 63.1775 L 757.2339 64.814 L 756.4169 66.9951 L 758.0519 68.0857 L 759.6877 70.8115 L 759.6877 71.9021 L 761.3236 72.4467 L 760.5057 75.1726 L 764.5953 82.2607 L 763.7774 83.3513 L 765.4133 82.8066 L 764.5953 85.5324 L 767.8661 89.8947 L 768.6841 95.8923 L 771.1379 96.437 L 770.3199 100.7993 L 772.7737 104.0698 L 781.7701 104.6157 L 785.0409 107.3415 L 788.3126 106.2509 L 795.673 113.339 L 799.7627 113.339 L 798.1268 116.0649 L 801.3976 120.4272 L 799.7627 122.6083 L 803.0335 128.06 L 816.9374 127.5153 L 817.7554 124.7895 L 821.8441 122.6083 L 825.9338 122.6083 L 832.4763 119.3366 L 840.6547 118.7919 L 837.383 120.9718 L 835.7471 124.2436 L 837.383 128.06 L 835.7471 130.787 L 834.1122 130.787 L 832.4763 132.9669 L 832.4763 134.6034 L 829.2046 142.2362 L 830.0225 145.508 L 825.9338 150.9596 L 825.1158 154.2313 L 823.48 154.7772 L 821.8441 159.6842 L 820.2082 160.7748 L 811.2119 156.9572 L 807.9411 160.7748 L 803.0335 162.9547 L 805.4873 172.7699 L 804.6694 177.131 L 805.4873 180.4027 L 801.3976 180.9474 L 798.1268 178.2215 L 796.491 173.8592 L 793.2192 175.4957 L 792.4013 173.3146 L 791.5843 174.9498 L 786.6767 176.0404 L 785.8588 178.7662 L 782.588 179.3121 L 779.3163 171.6793 L 778.4983 167.8617 L 775.2266 169.4982 L 775.2266 172.224 L 771.9558 172.224 L 770.3199 166.2264 L 766.2303 166.2264 L 765.4133 164.0453 L 766.2303 161.3195 L 764.5953 159.6842 L 761.3236 158.0477 L 756.4169 159.1383 L 753.9631 157.5031 L 753.1452 154.7772 L 747.4206 156.4125 L 745.7847 154.7772 L 740.8771 155.8666 L 737.6063 152.0502 L 736.7884 146.0526 L 730.2459 146.0526 L 728.61 141.6916 L 733.5167 140.601 L 733.5167 137.8752 L 733.5167 138.4198 L 732.6987 136.7846 L 731.8808 136.7846 L 731.8808 137.8752 L 728.61 140.0551 L 722.8845 131.8776 L 740.0592 117.7013 L 741.6951 122.6083 L 744.9668 110.0673 L 749.0555 109.5226 L 748.2385 101.3439 L 749.8735 97.5275 L 753.9631 92.6206 L 753.9631 89.8947 L 756.4169 86.623 L 749.8735 78.9902 L 747.4206 78.9902 L 745.7847 82.2607 L 742.513 82.2607 L 740.8771 83.3513 L 734.3346 82.2607 L 731.0629 83.8972 L 727.7921 82.8066 L 724.5203 73.5373 L 725.3383 71.3562 L 720.4316 68.0857 L 718.7957 70.8115 L 716.342 70.8115 L 715.524 69.175 L 711.4353 67.5398 L 717.1599 61.5422 L 713.8882 57.7258 Z" fill="[object Object]" fill-opacity="1" stroke="dodgerblue" stroke-width="1" paint-order="fill" stroke-opacity="1" stroke-dasharray="" stroke-linecap="butt" stroke-miterlimit="10" style="filter: url(&quot;#zr2323-shadow-0&quot;);">
</path>
<path d="M 480.8025 189.672 L 488.1629 188.5814 L 493.8885 201.6671 L 493.8885 203.3023 L 490.6167 204.9376 L 498.7951 212.0257 L 498.7951 216.388 L 501.2489 215.2974 L 500.431 214.2069 L 502.8848 215.8421 L 504.5197 213.6609 L 505.3377 214.7515 L 506.9735 212.5716 L 513.5161 210.9351 L 515.9699 215.2974 L 515.1519 220.2044 L 509.4273 225.1114 L 514.334 226.202 L 519.2416 230.5643 L 521.6945 230.5643 L 523.3303 236.5618 L 525.7841 235.4712 L 526.602 238.7417 L 530.6908 239.8323 L 533.1446 237.1065 L 531.5087 234.3807 L 537.2342 232.7442 L 542.1409 234.3807 L 545.4126 231.6536 L 551.9552 230.5643 L 553.591 236.0159 L 546.2306 243.6487 L 547.0485 246.3758 L 545.4126 248.011 L 546.2306 250.1922 L 554.409 255.0991 L 556.8618 255.0991 L 556.8618 257.825 L 559.3156 257.825 L 563.4053 262.7319 L 562.5874 264.3684 L 565.0412 271.4566 L 563.4053 273.0918 L 564.2232 275.8176 L 567.494 276.3635 L 568.312 278.5434 L 569.9478 279.634 L 569.1299 280.1799 L 569.9478 280.1799 L 570.7658 280.7246 L 572.4016 280.1799 L 573.2196 282.3611 L 574.8545 281.2705 L 574.0366 276.9082 L 576.4904 276.9082 L 578.9442 275.273 L 578.1262 271.4566 L 574.8545 269.8201 L 574.8545 267.0942 L 574.0366 266.0037 L 575.6724 263.2778 L 575.6724 259.4615 L 582.2159 259.4615 L 582.2159 261.6414 L 595.3009 268.7295 L 594.483 273.0918 L 593.6651 274.727 L 594.483 278.5434 L 593.6651 281.8152 L 586.3046 281.8152 L 586.3046 283.9963 L 587.1226 285.0869 L 585.4867 286.1775 L 581.398 286.7222 L 578.9442 284.541 L 575.6724 284.541 L 574.8545 288.3586 L 573.2196 290.5385 L 576.4904 293.8103 L 574.8545 294.3562 L 575.6724 295.9914 L 574.0366 298.7173 L 574.8545 303.6242 L 569.9478 302.5337 L 567.494 305.2607 L 569.9478 307.9865 L 569.1299 310.1677 L 565.0412 311.2583 L 564.2232 311.8029 L 564.2232 313.4382 L 562.5874 315.0747 L 555.2269 313.4382 L 554.409 311.8029 L 555.2269 309.6218 L 554.409 307.4406 L 555.2269 306.3513 L 553.591 305.2607 L 552.7731 302.5337 L 543.7768 300.3537 L 542.9588 295.4455 L 541.323 293.8103 L 534.7804 298.7173 L 537.2342 304.7148 L 531.5087 309.0771 L 532.3266 304.7148 L 531.5087 303.0796 L 530.6908 303.6242 L 529.0558 303.6242 L 528.2379 301.4431 L 525.7841 301.989 L 521.6945 294.3562 L 523.3303 293.2656 L 529.8738 296.5361 L 533.9625 294.3562 L 534.7804 292.7197 L 532.3266 289.9939 L 532.3266 287.2681 L 536.4163 282.9058 L 535.5984 280.1799 L 537.2342 277.9988 L 540.505 277.9988 L 538.8701 275.8176 L 541.323 274.1824 L 541.323 272.0012 L 542.1409 269.8201 L 540.505 268.7295 L 538.0522 263.8225 L 538.8701 262.7319 L 537.2342 261.0967 L 538.0522 258.3709 L 533.9625 255.0991 L 532.3266 251.8274 L 530.6908 252.918 L 528.2379 249.6463 L 524.9662 250.1922 L 520.8774 245.2852 L 518.4237 244.7393 L 515.1519 242.0135 L 514.334 242.5594 L 515.9699 244.7393 L 512.6991 243.6487 L 506.1556 236.5618 L 502.8848 234.9253 L 501.2489 236.5618 L 498.7951 235.4712 L 497.1593 238.1971 L 486.528 233.2901 L 487.345 240.9229 L 483.2563 242.5594 L 483.2563 245.8299 L 480.8025 245.2852 L 479.1666 246.9204 L 474.2599 243.6487 L 471.8061 244.7393 L 467.7174 243.104 L 463.6277 243.6487 L 461.1739 238.7417 L 457.0852 239.2876 L 455.4494 236.5618 L 450.5427 236.0159 L 450.5427 233.2901 L 443.1813 234.3807 L 443.1813 231.6536 L 445.6351 227.8372 L 449.7248 215.2974 L 457.0852 214.7515 L 458.7211 209.8445 L 463.6277 204.9376 L 469.3523 201.1212 L 470.1703 203.3023 L 476.7137 199.4859 L 479.1666 195.6695 L 477.5317 194.579 L 476.7137 192.3978 L 480.8025 189.672 Z" fill="[object Object]" fill-opacity="1" stroke="dodgerblue" stroke-width="1" paint-order="fill" stroke-opacity="1" stroke-dasharray="" stroke-linecap="butt" stroke-miterlimit="10" style="filter: url(&quot;#zr2323-shadow-0&quot;);">
</path>
<path d="M 497.1593 370.6879 L 497.9772 367.4162 L 498.7951 370.6879 L 502.0669 369.5973 L 502.8848 367.9621 L 501.2489 365.7809 L 502.0669 360.8739 L 502.8848 359.7834 L 502.8848 361.4186 L 504.5197 361.9645 L 504.5197 358.1481 L 506.1556 356.5116 L 506.9735 368.5067 L 508.6094 370.1432 L 508.6094 365.7809 L 511.0632 361.9645 L 515.9699 367.9621 L 514.334 370.6879 L 516.7878 375.5949 L 517.6057 374.5043 L 520.8774 373.9596 L 524.9662 382.683 L 524.9662 384.3182 L 527.42 388.1346 L 527.42 387.0453 L 527.42 389.7711 L 529.8738 392.4969 L 529.0558 394.1322 L 531.5087 396.3133 L 533.9625 395.7687 L 538.0522 392.4969 L 538.8701 394.6781 L 542.1409 392.4969 L 541.323 381.0477 L 546.2306 375.0502 L 546.2306 370.6879 L 549.5014 368.5067 L 550.3193 364.1457 L 555.2269 364.6903 L 553.591 366.8715 L 555.2269 369.0526 L 555.2269 370.6879 L 554.409 371.7785 L 555.2269 372.869 L 559.3156 373.4137 L 560.9515 371.2326 L 562.5874 372.3231 L 563.4053 375.5949 L 562.5874 379.9572 L 556.8618 380.5018 L 555.2269 378.8666 L 552.7731 381.5924 L 550.3193 379.4113 L 547.8655 384.3182 L 548.6834 384.8641 L 548.6834 387.59 L 550.3193 390.3158 L 555.2269 388.6805 L 557.6798 391.9523 L 554.409 400.6756 L 559.3156 406.6732 L 556.8618 408.8544 L 557.6798 409.9449 L 556.0448 412.6708 L 557.6798 417.5777 L 558.4977 415.9425 L 560.9515 416.4872 L 562.5874 420.8495 L 565.0412 421.3941 L 565.8582 420.3035 L 569.9478 420.3035 L 571.5837 424.1199 L 571.5837 427.3917 L 566.6761 429.0269 L 565.8582 431.754 L 563.4053 429.5728 L 559.3156 432.2987 L 558.4977 436.1151 L 554.409 438.2962 L 552.7731 436.661 L 551.1372 439.9327 L 547.8655 437.2056 L 547.0485 439.3868 L 545.4126 436.661 L 542.9588 441.022 L 537.2342 437.2056 L 535.5984 441.5679 L 531.5087 442.1126 L 530.6908 440.4774 L 529.0558 444.2938 L 531.5087 451.3819 L 530.6908 457.3794 L 529.0558 456.2889 L 525.7841 456.8348 L 524.9662 449.7466 L 520.0595 453.563 L 515.1519 453.0171 L 513.5161 445.9302 L 506.9735 444.8397 L 508.6094 439.3868 L 507.7915 437.7515 L 509.4273 433.3892 L 503.7027 431.754 L 502.0669 422.4847 L 503.7027 420.3035 L 497.1593 420.8495 L 493.0705 423.5753 L 491.4347 423.0294 L 493.0705 420.3035 L 492.2526 416.4872 L 491.4347 416.4872 L 491.4347 412.6708 L 493.0705 411.5802 L 493.8885 406.1273 L 497.1593 404.492 L 497.1593 401.7662 L 498.7951 402.3109 L 500.431 399.0404 L 502.0669 398.4945 L 501.2489 396.3133 L 502.0669 395.2228 L 502.8848 389.7711 L 502.0669 378.3207 L 500.431 376.6854 L 498.7951 378.3207 L 497.1593 370.6879 Z" fill="[object Object]" fill-opacity="1" stroke="dodgerblue" stroke-width="1" paint-order="fill" stroke-opacity="1" stroke-dasharray="" stroke-linecap="butt" stroke-miterlimit="10" style="filter: url(&quot;#zr2323-shadow-0&quot;);">
</path>
<path d="M 556.0448 412.6708 L 557.6798 414.306 L 562.5874 409.9449 L 569.9478 413.7613 L 571.5837 412.1248 L 571.5837 409.9449 L 578.1262 407.2179 L 579.7621 406.1273 L 578.9442 403.4015 L 581.398 401.7662 L 583.8508 406.6732 L 586.3046 406.6732 L 587.1226 407.7638 L 589.5763 406.6732 L 590.3943 403.9474 L 592.0292 402.8568 L 594.483 405.5826 L 594.483 402.3109 L 598.5727 402.8568 L 597.7547 400.1297 L 601.0255 400.6756 L 602.6614 396.8592 L 605.1152 398.4945 L 606.7511 394.6781 L 609.2039 397.4039 L 612.4757 393.0428 L 618.2003 393.0428 L 619.0182 394.1322 L 619.0182 398.4945 L 620.6541 399.0404 L 616.5653 409.399 L 617.3833 409.9449 L 619.8361 407.7638 L 621.472 413.7613 L 623.1079 412.1248 L 626.3787 412.6708 L 624.7437 413.7613 L 626.3787 417.5777 L 624.7437 419.213 L 624.7437 421.94 L 623.9258 424.1199 L 622.2899 424.1199 L 622.2899 425.7564 L 619.8361 428.4823 L 620.6541 433.9351 L 619.0182 436.661 L 614.1115 439.9327 L 614.1115 443.2032 L 613.2936 444.8397 L 610.0219 444.8397 L 610.0219 448.1102 L 606.7511 448.6561 L 605.9331 450.8372 L 605.1152 451.3819 L 605.1152 454.1077 L 603.4793 453.563 L 599.3906 454.6536 L 600.2076 460.6512 L 598.5727 459.5606 L 598.5727 452.4725 L 595.3009 452.4725 L 594.483 450.8372 L 591.2122 453.0171 L 587.1226 451.3819 L 583.0329 451.3819 L 579.7621 449.2007 L 579.7621 447.5655 L 576.4904 446.4749 L 575.6724 441.5679 L 577.3083 437.2056 L 576.4904 435.5704 L 569.1299 435.0245 L 565.8582 433.3892 L 565.8582 431.754 L 566.6761 429.0269 L 571.5837 427.3917 L 571.5837 424.1199 L 569.9478 420.3035 L 565.8582 420.3035 L 565.0412 421.3941 L 562.5874 420.8495 L 560.9515 416.4872 L 558.4977 415.9425 L 557.6798 417.5777 L 556.0448 412.6708 Z" fill="[object Object]" fill-opacity="1" stroke="dodgerblue" stroke-width="1" paint-order="fill" stroke-opacity="1" stroke-dasharray="" stroke-linecap="butt" stroke-miterlimit="10" style="filter: url(&quot;#zr2323-shadow-0&quot;);">
</path>
<path d="M 600.2076 366.3256 L 600.2076 358.1481 L 602.6614 352.1506 L 604.2973 352.1506 L 605.1152 350.5141 L 611.6577 351.6047 L 613.2936 350.5141 L 611.6577 347.2436 L 614.9295 345.6071 L 623.9258 348.3329 L 628.0145 353.2399 L 630.4683 352.1506 L 632.1042 352.6952 L 634.558 349.9694 L 635.375 350.5141 L 634.558 353.7858 L 635.375 354.3305 L 640.2826 349.4235 L 640.2826 351.06 L 641.9185 352.6952 L 641.1005 355.967 L 641.9185 358.6928 L 643.5543 359.2374 L 646.0072 361.9645 L 645.1893 365.235 L 646.8251 367.9621 L 641.9185 372.869 L 641.1005 377.2301 L 641.1005 379.9572 L 642.7364 381.0477 L 641.9185 383.2277 L 643.5543 385.4088 L 643.5543 389.2252 L 645.1893 389.7711 L 644.3713 394.6781 L 646.8251 395.2228 L 644.3713 396.3133 L 643.5543 403.9474 L 641.1005 405.5826 L 637.0109 402.8568 L 633.7401 405.038 L 635.375 406.6732 L 635.375 409.9449 L 633.7401 410.4896 L 631.2863 407.7638 L 628.0145 407.2179 L 627.1966 411.0355 L 626.3787 412.6708 L 623.1079 412.1248 L 621.472 413.7613 L 619.8361 407.7638 L 617.3833 409.9449 L 616.5653 409.399 L 620.6541 399.0404 L 619.0182 398.4945 L 619.0182 394.1322 L 618.2003 393.0428 L 612.4757 393.0428 L 609.2039 397.4039 L 606.7511 394.6781 L 605.1152 398.4945 L 602.6614 396.8592 L 601.8435 393.5875 L 600.2076 393.0428 L 601.8435 389.7711 L 601.0255 388.1346 L 602.6614 387.0453 L 602.6614 384.3182 L 601.0255 382.683 L 596.9368 384.3182 L 596.1189 383.2277 L 601.8435 377.2301 L 601.0255 373.4137 L 601.0255 369.0526 L 600.2076 366.3256 Z" fill="[object Object]" fill-opacity="1" stroke="dodgerblue" stroke-width="1" paint-order="fill" stroke-opacity="1" stroke-dasharray="" stroke-linecap="butt" stroke-miterlimit="10" style="filter: url(&quot;#zr2323-shadow-0&quot;);">
</path>
<path d="M 565.0412 311.2583 L 569.1299 310.1677 L 569.9478 307.9865 L 567.494 305.2607 L 569.9478 302.5337 L 574.8545 303.6242 L 574.0366 298.7173 L 575.6724 295.9914 L 574.8545 294.3562 L 576.4904 293.8103 L 573.2196 290.5385 L 574.8545 288.3586 L 575.6724 284.541 L 578.9442 284.541 L 581.398 286.7222 L 585.4867 286.1775 L 587.1226 285.0869 L 586.3046 283.9963 L 586.3046 281.8152 L 593.6651 281.8152 L 594.483 278.5434 L 593.6651 274.727 L 594.483 273.0918 L 595.3009 268.7295 L 582.2159 261.6414 L 582.2159 259.4615 L 582.2159 252.918 L 585.4867 249.6463 L 590.3943 252.918 L 595.3009 251.8274 L 596.1189 248.011 L 596.9368 248.5557 L 598.5727 248.011 L 597.7547 244.1946 L 606.7511 233.8348 L 605.9331 232.7442 L 609.2039 232.1995 L 608.3869 230.0184 L 613.2936 232.1995 L 617.3833 228.3831 L 617.3833 231.1089 L 618.2003 232.7442 L 615.7474 239.2876 L 614.9295 242.0135 L 611.6577 245.8299 L 611.6577 248.5557 L 614.9295 252.3733 L 610.8398 260.5508 L 611.6577 271.4566 L 612.4757 277.4541 L 609.2039 286.7222 L 609.2039 289.448 L 610.8398 290.5385 L 611.6577 294.9009 L 613.2936 295.9914 L 613.2936 299.8078 L 616.5653 303.6242 L 616.5653 306.896 L 614.1115 308.5312 L 612.4757 306.896 L 610.0219 307.9865 L 603.4793 306.896 L 601.8435 308.5312 L 605.1152 309.6218 L 605.1152 311.2583 L 608.3869 313.4382 L 608.3869 315.0747 L 604.2973 315.0747 L 602.6614 317.2558 L 603.4793 325.9792 L 600.2076 325.9792 L 598.5727 323.2534 L 593.6651 319.9816 L 591.2122 319.4357 L 588.7584 320.5263 L 583.0329 316.1652 L 581.398 317.2558 L 580.58 316.7099 L 579.7621 313.9841 L 573.2196 314.5288 L 570.7658 313.4382 L 570.7658 311.8029 L 565.8582 313.4382 L 565.0412 311.2583 Z" fill="[object Object]" fill-opacity="1" stroke="dodgerblue" stroke-width="1" paint-order="fill" stroke-opacity="1" stroke-dasharray="" stroke-linecap="butt" stroke-miterlimit="10" style="filter: url(&quot;#zr2323-shadow-0&quot;);">
</path>
<path d="M 605.1152 454.1077 L 605.1152 451.3819 L 605.9331 450.8372 L 606.7511 448.6561 L 610.0219 448.1102 L 610.0219 444.8397 L 613.2936 444.8397 L 614.1115 443.2032 L 614.1115 439.9327 L 619.0182 436.661 L 620.6541 433.9351 L 619.8361 428.4823 L 622.2899 425.7564 L 622.2899 424.1199 L 623.9258 424.1199 L 624.7437 421.94 L 624.7437 419.213 L 626.3787 417.5777 L 624.7437 413.7613 L 626.3787 412.6708 L 627.1966 411.0355 L 628.0145 407.2179 L 631.2863 407.7638 L 633.7401 410.4896 L 635.375 409.9449 L 635.375 406.6732 L 633.7401 405.038 L 637.0109 402.8568 L 641.1005 405.5826 L 643.5543 403.9474 L 644.3713 406.1273 L 650.0969 404.492 L 651.7327 406.1273 L 650.9148 407.7638 L 648.461 409.9449 L 646.0072 413.2154 L 648.461 415.3966 L 657.4573 412.1248 L 661.546 414.8519 L 660.729 412.1248 L 662.364 410.4896 L 665.6357 412.1248 L 666.4536 411.0355 L 668.0895 414.306 L 669.7254 413.7613 L 672.1782 419.7589 L 672.1782 423.0294 L 673.8141 427.3917 L 675.45 431.2081 L 671.3603 429.5728 L 668.9074 432.8446 L 668.0895 436.1151 L 662.364 437.7515 L 659.9111 437.2056 L 659.0932 438.8421 L 654.1856 438.2962 L 650.0969 442.1126 L 647.6431 439.9327 L 644.3713 440.4774 L 642.7364 444.2938 L 647.6431 444.8397 L 648.461 446.4749 L 645.1893 447.5655 L 644.3713 449.2007 L 640.2826 446.4749 L 636.1929 448.6561 L 634.558 451.9278 L 629.6504 453.563 L 628.0145 452.4725 L 621.472 453.0171 L 619.0182 454.6536 L 614.1115 454.6536 L 613.2936 456.2889 L 614.1115 460.1053 L 611.6577 460.6512 L 613.2936 468.284 L 612.4757 468.284 L 610.8398 469.9192 L 607.569 469.9192 L 605.9331 469.9192 L 605.9331 467.7393 L 603.4793 460.1053 L 605.1152 454.1077 Z M 640.6911 444.635 L 640.7934 445.1114 L 640.2826 445.3161 L 640.1802 444.1573 L 640.4873 444.1573 L 640.6911 444.635 Z" fill="[object Object]" fill-opacity="1" stroke="dodgerblue" stroke-width="1" paint-order="fill" stroke-opacity="1" stroke-dasharray="" stroke-linecap="butt" stroke-miterlimit="10" style="filter: url(&quot;#zr2323-shadow-0&quot;);">
</path>
<path d="M 730.2459 146.0526 L 736.7884 146.0526 L 737.6063 152.0502 L 740.8771 155.8666 L 745.7847 154.7772 L 747.4206 156.4125 L 753.1452 154.7772 L 753.9631 157.5031 L 756.4169 159.1383 L 761.3236 158.0477 L 764.5953 159.6842 L 766.2303 161.3195 L 765.4133 164.0453 L 766.2303 166.2264 L 770.3199 166.2264 L 771.9558 172.224 L 775.2266 172.224 L 775.2266 169.4982 L 778.4983 167.8617 L 779.3163 171.6793 L 782.588 179.3121 L 785.8588 178.7662 L 786.6767 176.0404 L 791.5843 174.9498 L 792.4013 173.3146 L 793.2192 175.4957 L 796.491 173.8592 L 798.1268 178.2215 L 801.3976 180.9474 L 805.4873 180.4027 L 805.4873 182.0379 L 803.8514 186.9449 L 797.3089 189.672 L 798.9448 190.2166 L 798.9448 192.9425 L 795.673 189.1261 L 795.673 187.4908 L 794.8551 186.4002 L 792.4013 185.8543 L 790.7664 192.3978 L 787.4946 192.9425 L 783.405 198.3953 L 775.2266 198.3953 L 777.6804 203.847 L 776.0445 206.5741 L 766.2303 204.3929 L 767.0482 203.847 L 764.5953 201.1212 L 762.1415 202.7564 L 760.5057 206.0281 L 757.2339 211.481 L 753.1452 212.5716 L 752.3273 212.0257 L 753.9631 208.2093 L 749.8735 202.7564 L 749.8735 198.94 L 750.6914 197.3048 L 749.8735 196.7589 L 745.7847 188.5814 L 745.7847 185.3097 L 744.1489 185.3097 L 741.6951 188.0355 L 740.0592 183.1285 L 735.9705 180.4027 L 734.3346 181.4933 L 731.0629 179.8568 L 732.6987 177.131 L 729.4279 167.8617 L 722.0675 170.5887 L 719.6137 162.9547 L 721.2495 158.0477 L 717.9778 152.5961 L 716.342 152.0502 L 717.1599 148.7797 L 721.2495 151.5055 L 722.8845 150.4149 L 725.3383 152.5961 L 726.1562 148.7797 L 730.2459 146.0526 Z" fill="[object Object]" fill-opacity="1" stroke="dodgerblue" stroke-width="1" paint-order="fill" stroke-opacity="1" stroke-dasharray="" stroke-linecap="butt" stroke-miterlimit="10" style="filter: url(&quot;#zr2323-shadow-0&quot;);">
</path>
<path d="M 649.2789 229.4737 L 647.6431 225.1114 L 644.3713 223.4761 L 649.2789 219.1138 L 647.6431 218.5692 L 646.8251 215.8421 L 645.1893 214.2069 L 643.5543 209.2999 L 644.3713 208.2093 L 643.5543 205.4835 L 646.8251 203.847 L 646.0072 201.1212 L 649.2789 196.7589 L 652.5497 197.3048 L 653.3677 203.3023 L 655.8214 203.847 L 662.364 199.4859 L 663.1819 201.1212 L 665.6357 198.3953 L 670.5424 198.3953 L 671.3603 193.4884 L 675.45 192.9425 L 677.0858 191.3072 L 679.5387 190.7613 L 681.9925 193.4884 L 681.1746 195.6695 L 682.8104 197.8494 L 684.4463 197.3048 L 684.4463 201.1212 L 682.8104 201.6671 L 685.2642 207.1187 L 693.4426 207.1187 L 689.353 213.1163 L 693.4426 216.9327 L 695.8964 216.388 L 697.5314 221.8397 L 699.1672 224.0208 L 695.8964 227.2925 L 695.0785 230.5643 L 690.1709 234.9253 L 686.0822 236.5618 L 682.8104 235.4712 L 681.9925 233.2901 L 681.9925 232.7442 L 680.3566 230.5643 L 681.1746 228.3831 L 678.7208 228.3831 L 677.0858 226.202 L 677.0858 223.4761 L 678.7208 223.4761 L 678.7208 222.3856 L 676.2679 220.7491 L 674.632 216.9327 L 676.2679 215.2974 L 672.1782 214.7515 L 668.9074 210.3905 L 666.4536 212.0257 L 667.2716 213.6609 L 664.8178 213.6609 L 663.9998 215.8421 L 660.729 216.388 L 662.364 220.2044 L 657.4573 224.0208 L 658.2752 227.8372 L 660.729 229.4737 L 664.8178 228.3831 L 666.4536 230.0184 L 668.0895 228.3831 L 670.5424 228.3831 L 671.3603 234.3807 L 669.7254 236.5618 L 669.7254 238.1971 L 674.632 241.4688 L 677.9038 240.3782 L 681.1746 244.1946 L 676.2679 250.1922 L 670.5424 250.1922 L 667.2716 254.5532 L 665.6357 253.4639 L 665.6357 256.1897 L 663.1819 256.1897 L 660.729 261.6414 L 656.6394 266.5483 L 658.2752 270.9106 L 656.6394 272.0012 L 655.0035 270.366 L 653.3677 272.0012 L 652.5497 271.4566 L 641.9185 268.7295 L 639.4647 264.9131 L 641.9185 262.1873 L 641.9185 258.9155 L 646.0072 252.3733 L 644.3713 251.8274 L 642.7364 246.3758 L 640.2826 244.7393 L 640.2826 241.4688 L 642.7364 238.1971 L 642.7364 236.5618 L 643.5543 235.4712 L 647.6431 234.9253 L 649.2789 229.4737 Z M 674.632 222.3856 L 673.8141 225.656 L 673.8141 227.8372 L 671.3603 227.2925 L 671.3603 225.656 L 670.5424 223.4761 L 674.632 222.3856 Z" fill="[object Object]" fill-opacity="1" stroke="dodgerblue" stroke-width="1" paint-order="fill" stroke-opacity="1" stroke-dasharray="" stroke-linecap="butt" stroke-miterlimit="10" style="filter: url(&quot;#zr2323-shadow-0&quot;);">
</path>
<path d="M 609.2039 333.0673 L 608.3869 330.3403 L 604.2973 328.1603 L 605.1152 326.5239 L 603.4793 325.9792 L 602.6614 317.2558 L 604.2973 315.0747 L 608.3869 315.0747 L 608.3869 313.4382 L 605.1152 311.2583 L 605.1152 309.6218 L 601.8435 308.5312 L 603.4793 306.896 L 610.0219 307.9865 L 612.4757 306.896 L 614.1115 308.5312 L 616.5653 306.896 L 621.472 315.0747 L 628.8325 318.3452 L 637.0109 317.2558 L 639.4647 318.8911 L 641.9185 317.2558 L 642.7364 324.3427 L 644.3713 325.4333 L 646.0072 324.3427 L 649.2789 325.4333 L 650.0969 328.1603 L 651.7327 329.2509 L 655.0035 327.6144 L 655.8214 329.7956 L 657.4573 329.7956 L 659.0932 332.5214 L 663.1819 334.7026 L 660.729 339.0649 L 663.9998 345.0624 L 663.9998 349.4235 L 662.364 351.06 L 658.2752 349.9694 L 652.5497 354.8764 L 646.8251 355.421 L 643.5543 359.2374 L 641.9185 358.6928 L 641.1005 355.967 L 641.9185 352.6952 L 640.2826 351.06 L 640.2826 349.4235 L 635.375 354.3305 L 634.558 353.7858 L 635.375 350.5141 L 634.558 349.9694 L 632.1042 352.6952 L 630.4683 352.1506 L 628.0145 353.2399 L 623.9258 348.3329 L 614.9295 345.6071 L 611.6577 347.2436 L 613.2936 350.5141 L 611.6577 351.6047 L 605.1152 350.5141 L 604.2973 352.1506 L 602.6614 352.1506 L 600.2076 358.1481 L 598.5727 355.421 L 597.7547 355.967 L 594.483 349.4235 L 592.8471 349.9694 L 593.6651 344.5165 L 592.8471 342.3354 L 594.483 340.1555 L 596.1189 341.246 L 598.5727 339.6095 L 599.3906 340.7001 L 600.2076 339.6095 L 601.8435 340.7001 L 605.9331 336.3378 L 607.569 337.4284 L 609.2039 333.0673 Z" fill="[object Object]" fill-opacity="1" stroke="dodgerblue" stroke-width="1" paint-order="fill" stroke-opacity="1" stroke-dasharray="" stroke-linecap="butt" stroke-miterlimit="10" style="filter: url(&quot;#zr2323-shadow-0&quot;);">
</path>
<path d="M 552.7731 381.5924 L 555.2269 378.8666 L 556.8618 380.5018 L 562.5874 379.9572 L 563.4053 375.5949 L 565.8582 375.0502 L 566.6761 376.6854 L 573.2196 374.5043 L 571.5837 370.6879 L 569.1299 370.6879 L 566.6761 366.8715 L 569.9478 363.0551 L 573.2196 365.7809 L 574.8545 365.235 L 574.0366 362.5092 L 574.8545 362.5092 L 575.6724 364.1457 L 575.6724 365.7809 L 576.4904 366.3256 L 578.1262 362.5092 L 583.0329 361.4186 L 583.0329 357.6022 L 584.6688 357.0575 L 587.1226 358.1481 L 587.1226 359.7834 L 591.2122 358.6928 L 592.0292 364.1457 L 593.6651 364.1457 L 593.6651 367.4162 L 595.3009 366.3256 L 595.3009 369.5973 L 598.5727 369.5973 L 600.2076 366.3256 L 601.0255 369.0526 L 601.0255 373.4137 L 601.8435 377.2301 L 596.1189 383.2277 L 596.9368 384.3182 L 601.0255 382.683 L 602.6614 384.3182 L 602.6614 387.0453 L 601.0255 388.1346 L 601.8435 389.7711 L 600.2076 393.0428 L 601.8435 393.5875 L 602.6614 396.8592 L 601.0255 400.6756 L 597.7547 400.1297 L 598.5727 402.8568 L 594.483 402.3109 L 594.483 405.5826 L 592.0292 402.8568 L 590.3943 403.9474 L 589.5763 406.6732 L 587.1226 407.7638 L 586.3046 406.6732 L 583.8508 406.6732 L 581.398 401.7662 L 578.9442 403.4015 L 579.7621 406.1273 L 578.1262 407.2179 L 571.5837 409.9449 L 571.5837 412.1248 L 569.9478 413.7613 L 562.5874 409.9449 L 557.6798 414.306 L 556.0448 412.6708 L 557.6798 409.9449 L 556.8618 408.8544 L 559.3156 406.6732 L 554.409 400.6756 L 557.6798 391.9523 L 555.2269 388.6805 L 550.3193 390.3158 L 548.6834 387.59 L 548.6834 384.8641 L 547.8655 384.3182 L 550.3193 379.4113 L 552.7731 381.5924 Z" fill="[object Object]" fill-opacity="1" stroke="dodgerblue" stroke-width="1" paint-order="fill" stroke-opacity="1" stroke-dasharray="" stroke-linecap="butt" stroke-miterlimit="10" style="filter: url(&quot;#zr2323-shadow-0&quot;);">
</path>
<path d="M 658.2752 270.9106 L 656.6394 266.5483 L 660.729 261.6414 L 663.1819 256.1897 L 665.6357 256.1897 L 665.6357 253.4639 L 667.2716 254.5532 L 670.5424 250.1922 L 676.2679 250.1922 L 681.1746 244.1946 L 682.8104 246.3758 L 690.1709 246.3758 L 694.2606 252.3733 L 690.9888 254.0086 L 690.9888 256.1897 L 694.2606 258.9155 L 697.5314 258.9155 L 699.1672 255.6438 L 704.8918 250.1922 L 705.7098 246.3758 L 708.9815 242.5594 L 709.7994 250.1922 L 711.4353 252.3733 L 717.9778 254.5532 L 720.4316 252.918 L 721.2495 254.5532 L 724.5203 254.5532 L 725.3383 256.1897 L 724.5203 261.6414 L 722.8845 263.2778 L 717.1599 262.1873 L 716.342 264.3684 L 710.6174 265.459 L 710.6174 267.6389 L 713.0712 269.8201 L 707.3456 270.9106 L 708.9815 274.727 L 706.5277 272.5459 L 697.5314 279.634 L 699.9852 285.6316 L 694.2606 285.0869 L 693.4426 283.9963 L 690.1709 285.0869 L 688.535 288.9033 L 686.0822 289.448 L 685.2642 292.7197 L 683.6284 292.7197 L 682.8104 289.9939 L 681.1746 289.448 L 677.9038 292.175 L 675.45 290.5385 L 674.632 292.175 L 670.5424 286.1775 L 667.2716 286.7222 L 666.4536 289.9939 L 664.8178 290.5385 L 659.0932 290.5385 L 657.4573 287.2681 L 651.7327 284.541 L 654.1856 280.7246 L 655.8214 280.1799 L 658.2752 276.3635 L 663.9998 272.0012 L 656.6394 275.273 L 658.2752 270.9106 Z" fill="[object Object]" fill-opacity="1" stroke="dodgerblue" stroke-width="1" paint-order="fill" stroke-opacity="1" stroke-dasharray="" stroke-linecap="butt" stroke-miterlimit="10" style="filter: url(&quot;#zr2323-shadow-0&quot;);">
</path>
<path d="M 646.8251 367.9621 L 645.1893 365.235 L 646.0072 361.9645 L 643.5543 359.2374 L 646.8251 355.421 L 652.5497 354.8764 L 658.2752 349.9694 L 662.364 351.06 L 663.9998 349.4235 L 665.6357 349.9694 L 669.7254 346.6977 L 671.3603 348.3329 L 669.7254 350.5141 L 669.7254 352.1506 L 673.8141 351.06 L 672.9962 349.4235 L 673.8141 348.3329 L 677.0858 352.1506 L 681.9925 352.6952 L 683.6284 354.8764 L 681.9925 357.6022 L 681.9925 359.2374 L 685.2642 362.5092 L 686.0822 367.9621 L 686.0822 368.5067 L 684.4463 371.2326 L 679.5387 374.5043 L 677.0858 372.3231 L 672.1782 376.6854 L 673.8141 381.0477 L 672.9962 383.2277 L 668.0895 387.0453 L 668.9074 391.4064 L 666.4536 394.1322 L 667.2716 395.7687 L 664.8178 398.4945 L 663.1819 406.1273 L 661.546 406.6732 L 662.364 410.4896 L 660.729 412.1248 L 661.546 414.8519 L 657.4573 412.1248 L 648.461 415.3966 L 646.0072 413.2154 L 648.461 409.9449 L 650.9148 407.7638 L 651.7327 406.1273 L 650.0969 404.492 L 644.3713 406.1273 L 643.5543 403.9474 L 644.3713 396.3133 L 646.8251 395.2228 L 644.3713 394.6781 L 645.1893 389.7711 L 643.5543 389.2252 L 643.5543 385.4088 L 641.9185 383.2277 L 642.7364 381.0477 L 641.1005 379.9572 L 641.1005 377.2301 L 641.9185 372.869 L 646.8251 367.9621 Z" fill="[object Object]" fill-opacity="1" stroke="dodgerblue" stroke-width="1" paint-order="fill" stroke-opacity="1" stroke-dasharray="" stroke-linecap="butt" stroke-miterlimit="10" style="filter: url(&quot;#zr2323-shadow-0&quot;);">
</path>
<path d="M 610.8398 290.5385 L 614.9295 289.9939 L 618.2003 287.8127 L 621.472 287.2681 L 623.9258 284.541 L 626.3787 284.541 L 626.3787 281.8152 L 632.9221 282.9058 L 636.1929 281.2705 L 641.1005 276.9082 L 641.9185 268.7295 L 652.5497 271.4566 L 653.3677 272.0012 L 655.0035 270.366 L 656.6394 272.0012 L 658.2752 270.9106 L 656.6394 275.273 L 663.9998 272.0012 L 658.2752 276.3635 L 655.8214 280.1799 L 654.1856 280.7246 L 651.7327 284.541 L 657.4573 287.2681 L 659.0932 290.5385 L 664.8178 290.5385 L 664.8178 292.7197 L 668.0895 294.3562 L 668.9074 298.7173 L 664.8178 301.4431 L 663.1819 298.1726 L 659.9111 297.082 L 659.0932 298.7173 L 659.0932 301.989 L 657.4573 303.6242 L 656.6394 307.9865 L 652.5497 308.5312 L 652.5497 310.1677 L 655.0035 311.8029 L 655.8214 315.0747 L 659.0932 317.2558 L 661.546 316.1652 L 662.364 325.4333 L 658.2752 326.5239 L 657.4573 329.7956 L 655.8214 329.7956 L 655.0035 327.6144 L 651.7327 329.2509 L 650.0969 328.1603 L 649.2789 325.4333 L 646.0072 324.3427 L 644.3713 325.4333 L 642.7364 324.3427 L 641.9185 317.2558 L 639.4647 318.8911 L 637.0109 317.2558 L 628.8325 318.3452 L 621.472 315.0747 L 616.5653 306.896 L 616.5653 303.6242 L 613.2936 299.8078 L 613.2936 295.9914 L 611.6577 294.9009 L 610.8398 290.5385 Z" fill="[object Object]" fill-opacity="1" stroke="dodgerblue" stroke-width="1" paint-order="fill" stroke-opacity="1" stroke-dasharray="" stroke-linecap="butt" stroke-miterlimit="10" style="filter: url(&quot;#zr2323-shadow-0&quot;);">
</path>
<path d="M 693.4426 207.1187 L 695.0785 203.3023 L 693.4426 202.2117 L 694.2606 195.1236 L 695.8964 194.033 L 699.1672 196.2142 L 701.621 202.2117 L 704.8918 197.3048 L 713.8882 192.3978 L 716.342 192.9425 L 718.7957 189.672 L 722.0675 190.2166 L 722.0675 188.0355 L 726.1562 189.672 L 729.4279 188.5814 L 731.0629 186.4002 L 733.5167 185.8543 L 734.3346 181.4933 L 735.9705 180.4027 L 740.0592 183.1285 L 741.6951 188.0355 L 744.1489 185.3097 L 745.7847 185.3097 L 745.7847 188.5814 L 749.8735 196.7589 L 750.6914 197.3048 L 749.8735 198.94 L 749.8735 202.7564 L 753.9631 208.2093 L 752.3273 212.0257 L 753.1452 212.5716 L 742.513 220.7491 L 738.4243 227.2925 L 731.8808 227.2925 L 729.4279 230.5643 L 729.4279 235.4712 L 719.6137 235.4712 L 714.7061 239.2876 L 710.6174 239.8323 L 708.9815 236.0159 L 713.0712 233.2901 L 711.4353 228.9278 L 719.6137 218.5692 L 718.7957 214.7515 L 716.342 213.1163 L 711.4353 213.1163 L 705.7098 220.7491 L 699.1672 224.0208 L 697.5314 221.8397 L 695.8964 216.388 L 693.4426 216.9327 L 689.353 213.1163 L 693.4426 207.1187 Z" fill="[object Object]" fill-opacity="1" stroke="dodgerblue" stroke-width="1" paint-order="fill" stroke-opacity="1" stroke-dasharray="" stroke-linecap="butt" stroke-miterlimit="10" style="filter: url(&quot;#zr2323-shadow-0&quot;);">
</path>
<path d="M 615.7474 239.2876 L 618.2003 232.7442 L 617.3833 231.1089 L 619.8361 230.5643 L 620.6541 227.8372 L 625.5617 228.3831 L 628.8325 220.2044 L 632.9221 221.295 L 637.0109 218.5692 L 640.2826 219.1138 L 642.7364 216.9327 L 645.1893 216.9327 L 645.1893 214.2069 L 646.8251 215.8421 L 647.6431 218.5692 L 649.2789 219.1138 L 644.3713 223.4761 L 647.6431 225.1114 L 649.2789 229.4737 L 647.6431 234.9253 L 643.5543 235.4712 L 642.7364 236.5618 L 642.7364 238.1971 L 640.2826 241.4688 L 640.2826 244.7393 L 642.7364 246.3758 L 644.3713 251.8274 L 646.0072 252.3733 L 641.9185 258.9155 L 641.9185 262.1873 L 639.4647 264.9131 L 641.9185 268.7295 L 641.1005 276.9082 L 636.1929 281.2705 L 632.9221 282.9058 L 626.3787 281.8152 L 626.3787 284.541 L 623.9258 284.541 L 621.472 287.2681 L 618.2003 287.8127 L 614.9295 289.9939 L 610.8398 290.5385 L 609.2039 289.448 L 609.2039 286.7222 L 612.4757 277.4541 L 611.6577 271.4566 L 610.8398 260.5508 L 614.9295 252.3733 L 611.6577 248.5557 L 611.6577 245.8299 L 614.9295 242.0135 L 615.7474 239.2876 Z" fill="[object Object]" fill-opacity="1" stroke="dodgerblue" stroke-width="1" paint-order="fill" stroke-opacity="1" stroke-dasharray="" stroke-linecap="butt" stroke-miterlimit="10" style="filter: url(&quot;#zr2323-shadow-0&quot;);">
</path>
<path d="M 668.9074 298.7173 L 668.0895 294.3562 L 664.8178 292.7197 L 664.8178 290.5385 L 666.4536 289.9939 L 671.3603 292.7197 L 673.8141 297.082 L 677.9038 297.6267 L 679.5387 301.4431 L 682.8104 300.8984 L 681.1746 307.4406 L 681.9925 308.5312 L 683.6284 307.4406 L 684.4463 312.8935 L 688.535 313.4382 L 690.1709 310.7124 L 692.6247 312.3488 L 692.6247 316.7099 L 686.9001 315.6193 L 687.7171 319.9816 L 686.0822 320.5263 L 685.2642 323.2534 L 690.1709 328.1603 L 688.535 330.3403 L 689.353 331.9767 L 694.2606 331.4308 L 695.0785 333.0673 L 696.7134 333.612 L 696.7134 334.1579 L 695.0785 339.0649 L 693.4426 339.6095 L 694.2606 342.3354 L 690.1709 343.4259 L 690.1709 347.7883 L 688.535 351.06 L 683.6284 354.8764 L 681.9925 352.6952 L 677.0858 352.1506 L 673.8141 348.3329 L 672.9962 349.4235 L 673.8141 351.06 L 669.7254 352.1506 L 669.7254 350.5141 L 671.3603 348.3329 L 669.7254 346.6977 L 665.6357 349.9694 L 663.9998 349.4235 L 663.9998 345.0624 L 660.729 339.0649 L 663.1819 334.7026 L 659.0932 332.5214 L 657.4573 329.7956 L 658.2752 326.5239 L 662.364 325.4333 L 661.546 316.1652 L 659.0932 317.2558 L 655.8214 315.0747 L 655.0035 311.8029 L 652.5497 310.1677 L 652.5497 308.5312 L 656.6394 307.9865 L 657.4573 303.6242 L 659.0932 301.989 L 659.0932 298.7173 L 659.9111 297.082 L 663.1819 298.1726 L 664.8178 301.4431 L 668.9074 298.7173 Z" fill="[object Object]" fill-opacity="1" stroke="dodgerblue" stroke-width="1" paint-order="fill" stroke-opacity="1" stroke-dasharray="" stroke-linecap="butt" stroke-miterlimit="10" style="filter: url(&quot;#zr2323-shadow-0&quot;);">
</path>
<path d="M 686.0822 368.5067 L 689.353 369.0526 L 688.535 371.7785 L 690.1709 378.8666 L 693.4426 379.4113 L 696.7134 376.1408 L 698.3493 381.0477 L 702.439 379.4113 L 704.0748 382.683 L 707.3456 384.3182 L 706.5277 385.9547 L 702.439 386.4994 L 702.439 388.1346 L 704.0748 388.6805 L 704.8918 392.4969 L 702.439 393.5875 L 704.0748 395.2228 L 700.8031 394.6781 L 699.9852 397.9498 L 698.3493 397.9498 L 699.9852 404.492 L 698.3493 406.1273 L 695.8964 407.7638 L 695.0785 409.399 L 693.4426 408.3084 L 690.1709 411.5802 L 687.7171 415.3966 L 686.0822 415.3966 L 686.0822 416.4872 L 683.6284 417.5777 L 683.6284 419.7589 L 680.3566 421.94 L 679.5387 424.6659 L 677.0858 426.847 L 673.8141 427.3917 L 672.1782 423.0294 L 672.1782 419.7589 L 669.7254 413.7613 L 668.0895 414.306 L 666.4536 411.0355 L 665.6357 412.1248 L 662.364 410.4896 L 661.546 406.6732 L 663.1819 406.1273 L 664.8178 398.4945 L 667.2716 395.7687 L 666.4536 394.1322 L 668.9074 391.4064 L 668.0895 387.0453 L 672.9962 383.2277 L 673.8141 381.0477 L 672.1782 376.6854 L 677.0858 372.3231 L 679.5387 374.5043 L 684.4463 371.2326 L 686.0822 368.5067 Z" fill="[object Object]" fill-opacity="1" stroke="dodgerblue" stroke-width="1" paint-order="fill" stroke-opacity="1" stroke-dasharray="" stroke-linecap="butt" stroke-miterlimit="10" style="filter: url(&quot;#zr2323-shadow-0&quot;);">
</path>
<path d="M 683.6284 354.8764 L 688.535 351.06 L 690.1709 347.7883 L 690.1709 343.4259 L 694.2606 342.3354 L 693.4426 339.6095 L 695.0785 339.0649 L 696.7134 334.1579 L 696.7134 333.612 L 699.9852 333.0673 L 704.8918 337.4284 L 708.9815 334.7026 L 712.2532 339.0649 L 718.7957 337.4284 L 725.3383 336.3378 L 726.9741 338.519 L 727.7921 345.6071 L 724.5203 346.153 L 724.5203 348.3329 L 720.4316 353.2399 L 722.0675 361.4186 L 718.7957 361.4186 L 718.7957 366.8715 L 716.342 367.9621 L 716.342 369.5973 L 713.8882 369.5973 L 714.7061 371.7785 L 712.2532 372.869 L 710.6174 379.4113 L 706.5277 380.5018 L 706.5277 382.683 L 708.9815 384.3182 L 707.3456 384.3182 L 704.0748 382.683 L 702.439 379.4113 L 698.3493 381.0477 L 696.7134 376.1408 L 693.4426 379.4113 L 690.1709 378.8666 L 688.535 371.7785 L 689.353 369.0526 L 686.0822 368.5067 L 686.0822 367.9621 L 685.2642 362.5092 L 681.9925 359.2374 L 681.9925 357.6022 L 683.6284 354.8764 Z" fill="[object Object]" fill-opacity="1" stroke="dodgerblue" stroke-width="1" paint-order="fill" stroke-opacity="1" stroke-dasharray="" stroke-linecap="butt" stroke-miterlimit="10" style="filter: url(&quot;#zr2323-shadow-0&quot;);">
</path>
<path d="M 666.4536 289.9939 L 667.2716 286.7222 L 670.5424 286.1775 L 674.632 292.175 L 675.45 290.5385 L 677.9038 292.175 L 681.1746 289.448 L 682.8104 289.9939 L 683.6284 292.7197 L 685.2642 292.7197 L 686.0822 289.448 L 688.535 288.9033 L 690.1709 285.0869 L 693.4426 283.9963 L 694.2606 285.0869 L 694.2606 287.2681 L 697.5314 290.5385 L 703.2569 293.2656 L 708.9815 309.6218 L 709.7994 314.5288 L 713.0712 316.7099 L 713.8882 320.5263 L 717.9778 322.7075 L 718.7957 326.5239 L 718.7957 327.6144 L 711.4353 324.3427 L 710.6174 325.9792 L 713.0712 328.705 L 711.4353 329.2509 L 708.9815 334.7026 L 704.8918 337.4284 L 699.9852 333.0673 L 696.7134 333.612 L 695.0785 333.0673 L 694.2606 331.4308 L 689.353 331.9767 L 688.535 330.3403 L 690.1709 328.1603 L 685.2642 323.2534 L 686.0822 320.5263 L 687.7171 319.9816 L 686.9001 315.6193 L 692.6247 316.7099 L 692.6247 312.3488 L 690.1709 310.7124 L 688.535 313.4382 L 684.4463 312.8935 L 683.6284 307.4406 L 681.9925 308.5312 L 681.1746 307.4406 L 682.8104 300.8984 L 679.5387 301.4431 L 677.9038 297.6267 L 673.8141 297.082 L 671.3603 292.7197 L 666.4536 289.9939 Z" fill="[object Object]" fill-opacity="1" stroke="dodgerblue" stroke-width="1" paint-order="fill" stroke-opacity="1" stroke-dasharray="" stroke-linecap="butt" stroke-miterlimit="10" style="filter: url(&quot;#zr2323-shadow-0&quot;);">
</path>
<path d="M 593.6651 326.5239 L 591.2122 323.798 L 592.0292 320.5263 L 593.6651 319.9816 L 598.5727 323.2534 L 600.2076 325.9792 L 603.4793 325.9792 L 605.1152 326.5239 L 604.2973 328.1603 L 608.3869 330.3403 L 609.2039 333.0673 L 607.569 337.4284 L 605.9331 336.3378 L 601.8435 340.7001 L 600.2076 339.6095 L 599.3906 340.7001 L 598.5727 339.6095 L 596.1189 341.246 L 594.483 340.1555 L 592.8471 342.3354 L 593.6651 344.5165 L 592.8471 349.9694 L 594.483 349.4235 L 597.7547 355.967 L 598.5727 355.421 L 600.2076 358.1481 L 600.2076 366.3256 L 598.5727 369.5973 L 595.3009 369.5973 L 595.3009 366.3256 L 593.6651 367.4162 L 593.6651 364.1457 L 592.0292 364.1457 L 591.2122 358.6928 L 587.1226 359.7834 L 587.1226 358.1481 L 584.6688 357.0575 L 583.0329 357.6022 L 583.0329 361.4186 L 578.1262 362.5092 L 576.4904 366.3256 L 575.6724 365.7809 L 575.6724 364.1457 L 574.8545 362.5092 L 574.0366 362.5092 L 574.8545 365.235 L 573.2196 365.7809 L 572.4016 361.4186 L 568.312 360.328 L 567.494 356.5116 L 565.0412 355.967 L 563.4053 353.2399 L 567.494 348.8788 L 565.8582 346.153 L 566.6761 343.9719 L 568.312 341.7907 L 572.4016 345.0624 L 575.6724 343.4259 L 577.3083 347.2436 L 579.7621 347.2436 L 583.8508 339.6095 L 583.0329 337.9743 L 583.8508 336.8837 L 587.9405 336.8837 L 590.3943 328.705 L 593.6651 326.5239 Z" fill="[object Object]" fill-opacity="1" stroke="dodgerblue" stroke-width="1" paint-order="fill" stroke-opacity="1" stroke-dasharray="" stroke-linecap="butt" stroke-miterlimit="10" style="filter: url(&quot;#zr2323-shadow-0&quot;);">
</path>
<path d="M 554.409 255.0991 L 568.312 250.7368 L 569.1299 239.2876 L 573.2196 232.1995 L 577.3083 231.1089 L 578.9442 236.0159 L 574.8545 244.1946 L 577.3083 245.8299 L 582.2159 246.9204 L 585.4867 249.6463 L 582.2159 252.918 L 582.2159 259.4615 L 575.6724 259.4615 L 575.6724 263.2778 L 574.0366 266.0037 L 574.8545 267.0942 L 574.8545 269.8201 L 578.1262 271.4566 L 578.9442 275.273 L 576.4904 276.9082 L 574.0366 276.9082 L 574.8545 281.2705 L 573.2196 282.3611 L 572.4016 280.1799 L 570.7658 280.7246 L 569.9478 280.1799 L 570.7658 279.634 L 569.9478 279.634 L 568.312 278.5434 L 567.494 276.3635 L 564.2232 275.8176 L 563.4053 273.0918 L 565.0412 271.4566 L 562.5874 264.3684 L 563.4053 262.7319 L 559.3156 257.825 L 556.8618 257.825 L 556.8618 255.0991 L 554.409 255.0991 Z" fill="[object Object]" fill-opacity="1" stroke="dodgerblue" stroke-width="1" paint-order="fill" stroke-opacity="1" stroke-dasharray="" stroke-linecap="butt" stroke-miterlimit="10" style="filter: url(&quot;#zr2323-shadow-0&quot;);">
</path>
<path d="M 594.483 479.1885 L 598.5727 475.9168 L 600.2076 472.1004 L 603.4793 471.0098 L 607.569 469.9192 L 610.8398 469.9192 L 612.4757 468.284 L 613.2936 468.284 L 617.3833 472.1004 L 619.0182 471.5557 L 613.2936 481.9143 L 612.4757 487.9119 L 609.2039 489.0024 L 607.569 491.7295 L 605.9331 491.7295 L 604.2973 495 L 597.7547 492.8188 L 594.483 490.6389 L 594.483 479.1885 Z" fill="[object Object]" fill-opacity="1" stroke="dodgerblue" stroke-width="1" paint-order="fill" stroke-opacity="1" stroke-dasharray="" stroke-linecap="butt" stroke-miterlimit="10" style="filter: url(&quot;#zr2323-shadow-0&quot;);">
</path>
<path d="M 717.9778 408.8544 L 718.7957 409.399 L 717.1599 412.6708 L 717.9778 414.8519 L 715.524 421.3941 L 713.0712 432.8446 L 709.7994 438.2962 L 708.1636 445.9302 L 707.3456 447.5655 L 706.5277 442.6585 L 702.439 439.3868 L 700.8031 433.3892 L 701.621 425.7564 L 709.7994 408.8544 L 714.7061 405.5826 L 717.9778 408.8544 Z M 732.3763 400.3373 L 732.8012 400.3373 L 732.8012 400.1454 L 732.3763 400.1454 L 732.3763 400.3373 Z" fill="[object Object]" fill-opacity="1" stroke="dodgerblue" stroke-width="1" paint-order="fill" stroke-opacity="1" stroke-dasharray="" stroke-linecap="butt" stroke-miterlimit="10" style="filter: url(&quot;#zr2323-shadow-0&quot;);">
</path>
<path d="M 676.2679 220.7491 L 675.45 221.8397 L 674.632 222.3856 L 670.5424 223.4761 L 671.3603 225.656 L 671.3603 227.2925 L 670.5424 228.3831 L 668.0895 228.3831 L 666.4536 230.0184 L 664.8178 228.3831 L 660.729 229.4737 L 658.2752 227.8372 L 657.4573 224.0208 L 662.364 220.2044 L 660.729 216.388 L 663.9998 215.8421 L 664.8178 213.6609 L 667.2716 213.6609 L 666.4536 212.0257 L 668.9074 210.3905 L 672.1782 214.7515 L 676.2679 215.2974 L 674.632 216.9327 L 676.2679 220.7491 Z" fill="[object Object]" fill-opacity="1" stroke="dodgerblue" stroke-width="1" paint-order="fill" stroke-opacity="1" stroke-dasharray="" stroke-linecap="butt" stroke-miterlimit="10" style="filter: url(&quot;#zr2323-shadow-0&quot;);">
</path>
<path d="M 670.5424 228.3831 L 671.3603 227.2925 L 673.8141 227.8372 L 673.8141 225.656 L 674.632 222.3856 L 675.45 221.8397 L 676.2679 220.7491 L 678.7208 222.3856 L 678.7208 223.4761 L 677.0858 223.4761 L 677.0858 226.202 L 678.7208 228.3831 L 681.1746 228.3831 L 680.3566 230.5643 L 681.9925 232.7442 L 681.9925 233.2901 L 680.3566 234.3807 L 677.9038 240.3782 L 674.632 241.4688 L 669.7254 238.1971 L 669.7254 236.5618 L 671.3603 234.3807 L 670.5424 228.3831 Z" fill="[object Object]" fill-opacity="1" stroke="dodgerblue" stroke-width="1" paint-order="fill" stroke-opacity="1" stroke-dasharray="" stroke-linecap="butt" stroke-miterlimit="10" style="filter: url(&quot;#zr2323-shadow-0&quot;);">
</path>
<path d="M 708.9815 334.7026 L 711.4353 329.2509 L 713.0712 328.705 L 710.6174 325.9792 L 711.4353 324.3427 L 718.7957 327.6144 L 717.9778 333.0673 L 718.7957 337.4284 L 712.2532 339.0649 L 708.9815 334.7026 Z" fill="[object Object]" fill-opacity="1" stroke="dodgerblue" stroke-width="1" paint-order="fill" stroke-opacity="1" stroke-dasharray="" stroke-linecap="butt" stroke-miterlimit="10" style="filter: url(&quot;#zr2323-shadow-0&quot;);">
</path>
<path d="M 650.0969 441.5679 L 649.2789 444.8397 L 647.6431 444.8397 L 643.5543 444.8397 L 642.7364 444.2938 L 643.5543 441.5679 L 646.0072 439.9327 L 647.6431 439.9327 L 648.461 439.9327 L 648.461 441.5679 L 650.0969 441.5679 Z" fill="[object Object]" fill-opacity="1" stroke="dodgerblue" stroke-width="1" paint-order="fill" stroke-opacity="1" stroke-dasharray="" stroke-linecap="butt" stroke-miterlimit="10" style="filter: url(&quot;#zr2323-shadow-0&quot;);">
</path>
<path d="M 640.6911 444.635 L 640.7934 445.1114 L 640.2826 445.3161 L 640.1802 444.1573 L 640.4873 444.1573 L 640.6911 444.635 Z" fill="[object Object]" fill-opacity="1" stroke="dodgerblue" stroke-width="1" paint-order="fill" stroke-opacity="1" stroke-dasharray="" stroke-linecap="butt" stroke-miterlimit="10" style="filter: url(&quot;#zr2323-shadow-0&quot;);">
</path>
<path d="M 756.0894 412.5616 L 762.2929 419.3854 L 769.3826 420.0058 L 782.6759 415.6633 L 793.3104 410.0802 L 802.1726 410.0802 L 805.7175 416.2837 L 808.3761 410.0802 L 812.8072 410.0802 L 812.8072 409.4598 L 760.5205 409.4598 L 756.0894 412.5616 Z M 767.6102 423.7279 L 772.9275 422.4872 L 770.2688 428.6907 L 765.8378 429.9314 L 767.6102 423.7279 Z M 766.724 437.996 L 768.4964 443.5791 L 769.3826 443.5791 L 767.6102 437.996 L 766.724 437.996 Z M 770.2688 451.6437 L 766.724 456.6065 L 767.6102 456.6065 L 772.0413 451.6437 L 770.2688 451.6437 Z M 761.4067 466.5321 L 763.1791 471.4949 L 764.0653 471.4949 L 763.1791 466.5321 L 761.4067 466.5321 Z M 776.4723 482.6612 L 781.7896 480.1798 L 782.6759 480.1798 L 778.2448 482.6612 L 776.4723 482.6612 Z M 788.8794 472.1153 L 794.1967 464.671 L 795.0829 464.671 L 790.6518 472.1153 L 788.8794 472.1153 Z M 798.6277 454.7454 L 801.2864 449.7826 L 803.0588 449.7826 L 800.4002 454.7454 L 798.6277 454.7454 Z M 801.2864 440.4774 L 801.2864 434.8942 L 803.0588 434.8942 L 803.0588 440.4774 L 801.2864 440.4774 Z M 802.1726 429.311 L 804.8312 424.9686 L 805.7175 424.9686 L 803.0588 429.311 L 802.1726 429.311 Z M 807.4899 420.6261 L 811.0347 415.6633 L 811.921 415.6633 L 809.2623 420.6261 L 807.4899 420.6261 Z M 756.0894 412.5616 L 756.0894 491.9665 L 812.8072 491.9665 L 812.8072 409.4598 L 811.921 409.4598 L 811.921 491.3461 L 756.9756 491.3461 L 756.9756 412.5616 L 756.0894 412.5616 Z" fill="[object Object]" fill-opacity="1" stroke="dodgerblue" stroke-width="1" paint-order="fill" stroke-opacity="1" stroke-dasharray="" stroke-linecap="butt" stroke-miterlimit="10" style="filter: url(&quot;#zr2323-shadow-0&quot;);">
</path>
<text xml:space="preserve" fill="#bdbdd9" fill-opacity="1" stroke="none" transform="matrix(1,0,0,1,373.6645,201.6671)" dominant-baseline="central" text-anchor="middle" x="0" y="0"></text>
<text xml:space="preserve" fill="#bdbdd9" fill-opacity="1" stroke="none" transform="matrix(1,0,0,1,418.955,338.9309)" dominant-baseline="central" text-anchor="middle" x="0" y="0"></text>
<text xml:space="preserve" fill="#bdbdd9" fill-opacity="1" stroke="none" transform="matrix(1,0,0,1,677.9038,169.4982)" dominant-baseline="central" text-anchor="middle" x="0" y="0"></text>
<text xml:space="preserve" fill="#bdbdd9" fill-opacity="1" stroke="none" transform="matrix(1,0,0,1,479.1666,280.1799)" dominant-baseline="central" text-anchor="middle" x="0" y="0"></text>
<text xml:space="preserve" fill="#bdbdd9" fill-opacity="1" stroke="none" transform="matrix(1,0,0,1,541.323,345.0624)" dominant-baseline="central" text-anchor="middle" x="0" y="0"></text>
<text xml:space="preserve" fill="#bdbdd9" fill-opacity="1" stroke="none" transform="matrix(1,0,0,1,776.0445,133.8305)" dominant-baseline="central" text-anchor="middle" x="0" y="0"></text>
<text xml:space="preserve" fill="#bdbdd9" fill-opacity="1" stroke="none" transform="matrix(1,0,0,1,474.2599,221.295)" dominant-baseline="central" text-anchor="middle" x="0" y="0"></text>
<text xml:space="preserve" fill="#bdbdd9" fill-opacity="1" stroke="none" transform="matrix(1,0,0,1,531.5087,419.6249)" dominant-baseline="central" text-anchor="middle" x="0" y="0"></text>
<text xml:space="preserve" fill="#bdbdd9" fill-opacity="1" stroke="none" transform="matrix(1,0,0,1,596.7954,426.3011)" dominant-baseline="central" text-anchor="middle" x="0" y="0"></text>
<text xml:space="preserve" fill="#bdbdd9" fill-opacity="1" stroke="none" transform="matrix(1,0,0,1,621.472,379.9572)" dominant-baseline="central" text-anchor="middle" x="0" y="0"></text>
<text xml:space="preserve" fill="#bdbdd9" fill-opacity="1" stroke="none" transform="matrix(1,0,0,1,603.4793,277.4541)" dominant-baseline="central" text-anchor="middle" x="0" y="0"></text>
<text xml:space="preserve" fill="#bdbdd9" fill-opacity="1" stroke="none" transform="matrix(1,0,0,1,639.4647,427.7988)" dominant-baseline="central" text-anchor="middle" x="0" y="0"></text>
<text xml:space="preserve" fill="#bdbdd9" fill-opacity="1" stroke="none" transform="matrix(1,0,0,1,760.5057,178.7662)" dominant-baseline="central" text-anchor="middle" x="0" y="0"></text>
<text xml:space="preserve" fill="#bdbdd9" fill-opacity="1" stroke="none" transform="matrix(1,0,0,1,657.4573,248.5557)" dominant-baseline="central" text-anchor="middle" x="0" y="0"></text>
<text xml:space="preserve" fill="#bdbdd9" fill-opacity="1" stroke="none" transform="matrix(1,0,0,1,628.0145,333.0673)" dominant-baseline="central" text-anchor="middle" x="0" y="0"></text>
<text xml:space="preserve" fill="#bdbdd9" fill-opacity="1" stroke="none" transform="matrix(1,0,0,1,575.6724,385.4088)" dominant-baseline="central" text-anchor="middle" x="0" y="0"></text>
<text xml:space="preserve" fill="#bdbdd9" fill-opacity="1" stroke="none" transform="matrix(1,0,0,1,688.535,267.6389)" dominant-baseline="central" text-anchor="middle" x="0" y="0"></text>
<text xml:space="preserve" fill="#bdbdd9" fill-opacity="1" stroke="none" transform="matrix(1,0,0,1,659.3146,381.0477)" dominant-baseline="central" text-anchor="middle" x="0" y="0"></text>
<text xml:space="preserve" fill="#bdbdd9" fill-opacity="1" stroke="none" transform="matrix(1,0,0,1,639.4647,299.2632)" dominant-baseline="central" text-anchor="middle" x="0" y="0"></text>
<text xml:space="preserve" fill="#bdbdd9" fill-opacity="1" stroke="none" transform="matrix(1,0,0,1,725.7896,203.641)" dominant-baseline="central" text-anchor="middle" x="0" y="0"></text>
<text xml:space="preserve" fill="#bdbdd9" fill-opacity="1" stroke="none" transform="matrix(1,0,0,1,629.6504,252.3733)" dominant-baseline="central" text-anchor="middle" x="0" y="0"></text>
<text xml:space="preserve" fill="#bdbdd9" fill-opacity="1" stroke="none" transform="matrix(1,0,0,1,674.632,322.1628)" dominant-baseline="central" text-anchor="middle" x="0" y="0"></text>
<text xml:space="preserve" fill="#bdbdd9" fill-opacity="1" stroke="none" transform="matrix(1,0,0,1,684.4463,397.9498)" dominant-baseline="central" text-anchor="middle" x="0" y="0"></text>
<text xml:space="preserve" fill="#bdbdd9" fill-opacity="1" stroke="none" transform="matrix(1,0,0,1,704.8918,358.6928)" dominant-baseline="central" text-anchor="middle" x="0" y="0"></text>
<text xml:space="preserve" fill="#bdbdd9" fill-opacity="1" stroke="none" transform="matrix(1,0,0,1,700.8031,311.2583)" dominant-baseline="central" text-anchor="middle" x="0" y="0"></text>
<text xml:space="preserve" fill="#bdbdd9" fill-opacity="1" stroke="none" transform="matrix(1,0,0,1,586.3046,345.0624)" dominant-baseline="central" text-anchor="middle" x="0" y="0"></text>
<text xml:space="preserve" fill="#bdbdd9" fill-opacity="1" stroke="none" transform="matrix(1,0,0,1,569.9478,256.7344)" dominant-baseline="central" text-anchor="middle" x="0" y="0"></text>
<text xml:space="preserve" fill="#bdbdd9" fill-opacity="1" stroke="none" transform="matrix(1,0,0,1,606.7511,481.3697)" dominant-baseline="central" text-anchor="middle" x="0" y="0"></text>
<text xml:space="preserve" fill="#bdbdd9" fill-opacity="1" stroke="none" transform="matrix(1,0,0,1,709.7994,426.847)" dominant-baseline="central" text-anchor="middle" x="0" y="0"></text>
<text xml:space="preserve" fill="#bdbdd9" fill-opacity="1" stroke="none" transform="matrix(1,0,0,1,667.2716,220.2044)" dominant-baseline="central" text-anchor="middle" x="0" y="0"></text>
<text xml:space="preserve" fill="#bdbdd9" fill-opacity="1" stroke="none" transform="matrix(1,0,0,1,680.699,234.9953)" dominant-baseline="central" text-anchor="middle" x="0" y="0"></text>
<text xml:space="preserve" fill="#bdbdd9" fill-opacity="1" stroke="none" transform="matrix(1,0,0,1,713.8882,331.4308)" dominant-baseline="central" text-anchor="middle" x="0" y="0"></text>
<text xml:space="preserve" fill="#bdbdd9" fill-opacity="1" stroke="none" transform="matrix(1,0,0,1,655.6873,447.0896)" dominant-baseline="central" text-anchor="middle" x="0" y="0"></text>
<text xml:space="preserve" fill="#bdbdd9" fill-opacity="1" stroke="none" transform="matrix(1,0,0,1,631.4204,453.7018)" dominant-baseline="central" text-anchor="middle" x="0" y="0"></text>
<text xml:space="preserve" fill="#bdbdd9" fill-opacity="1" stroke="none" transform="matrix(1,0,0,1,784.4483,480.3571)" dominant-baseline="central" text-anchor="middle" x="0" y="0"></text>
<defs>
<filter id="zr2323-shadow-0" x="-100%" y="-100%" width="300%" height="300%">
<feDropShadow dx="0" dy="1" flood-color="#000000" stdDeviation="0 0">
</feDropShadow>
</filter>
<filter id="zr2323-shadow-1" x="-100%" y="-100%" width="300%" height="300%">
<feDropShadow dx="0" dy="1" flood-color="rgba(0,0,0,1)" stdDeviation="0 0">
</feDropShadow>
</filter>
</defs>
</g>
</svg>