<svg xmlns="http://www.w3.org/2000/svg" xmlns:xlink="http://www.w3.org/1999/xlink" version="1.1" baseProfile="full" width="1108" height="550" style="user-select: none; position: absolute; left: 0px; top: 0px;">
<g>
<rect width="1108" height="550" x="0" y="0" id="0" style="fill: transparent;">
</rect>
</g>
<g>
<path d="M 541.8398 415.4149 L 542.2289 416.0375 L 543.5222 416.2885 L 544.8334 417.2157 L 546.0608 418.704 L 547.6834 419.1971 L 548.6414 420.5515 L 549.8508 422.7739 L 550.0065 424.8436 L 550.3238 426.2943 L 549.749 427.1002 L 549.7909 428.0376 L 548.821 429.199 L 548.6773 431.0617 L 550.3178 432.5123 L 550.222 433.2331 L 551.5452 432.6778 L 553.9162 433.501 L 554.5389 433.199 L 556.1135 434.2564 L 557.4607 434.7097 L 558.5983 433.8665 L 559.3527 434.2612 L 560.3765 434.1394 L 560.3166 432.561 L 560.9573 432.001 L 561.2506 428.9997 L 562.5858 427.3964 L 562.7415 426.5176 L 563.442 425.6004 L 565.4837 421.9602 L 565.6633 421.0548 L 566.4835 419.8162 L 566.6871 418.6701 L 568.0762 417.5345 L 568.2857 416.2933 L 567.9205 414.8841 L 567.3757 414.2716 L 567.4535 413.4905 L 566.747 413.5676 L 567.3397 412.647 L 566.3698 411.515 L 566.5255 410.9854 L 565.6753 410.5618 L 564.6514 409.2579 L 564.1784 409.2868 L 562.975 407.9598 L 563.0229 407.3111 L 563.903 407.2582 L 563.6576 406.2399 L 562.8373 405.587 L 563.5198 404.9487 L 564.2503 405.1742 L 564.5616 404.1044 L 563.7952 402.9153 L 564.9927 402.3019 L 565.6214 400.9799 L 565.7471 399.8933 L 565.0705 399.0513 L 564.4539 396.819 L 563.8252 397.1821 L 562.7235 396.5992 L 562.2326 395.3816 L 562.5738 394.4462 L 560.4184 393.1347 L 559.4545 392.1862 L 558.8318 389.5531 L 558.2989 389.5959 L 558.5564 388.7872 L 557.5445 388.4543 L 556.2872 387.1661 L 555.0957 387.4179 L 553.2097 387.2801 L 552.3595 386.6815 L 549.9646 386.9475 L 548.5096 387.1043 L 546.935 387.7364 L 546.0369 389.1154 L 544.5161 387.9265 L 543.2708 387.2373 L 543.0911 387.8219 L 541.8697 387.475 L 541.3788 386.4914 L 540.4447 386.14 L 540.1214 386.9522 L 538.8042 386.5057 L 538.5707 385.893 L 537.493 385.874 L 537.6008 385.1714 L 536.2177 385.4182 L 535.8046 385.1049 L 533.8467 386.5484 L 533.5593 386.9902 L 532.4876 386.5912 L 531.8709 387.7792 L 531.1884 387.879 L 532.1343 388.5208 L 531.9847 389.2914 L 532.8888 389.6625 L 533.4216 391.162 L 533.9904 391.1525 L 533.7988 392.9392 L 534.4694 394.2697 L 534.1161 395.52 L 533.4516 396.0548 L 533.8048 397.9659 L 535.1879 397.4306 L 535.8644 397.9946 L 535.1999 400.999 L 535.6549 401.6695 L 536.6667 401.4492 L 536.9481 402.3641 L 536.7625 404.349 L 537.1637 406.384 L 537.6427 407.1621 L 538.6605 407.1765 L 537.8941 408.5895 L 538.8461 409.2387 L 539.2533 410.0661 L 540.307 409.6668 L 540.4387 410.35 L 541.5704 410.6918 L 541.8877 411.6884 L 542.8756 411.6162 L 543.3546 412.8494 L 543.5282 414.2233 L 541.8517 414.6622 L 541.8398 415.4149 Z" fill="[object Object]" fill-opacity="1" stroke="dodgerblue" stroke-width="1" paint-order="fill" stroke-opacity="1" stroke-dasharray="" stroke-linecap="butt" stroke-miterlimit="10" style="filter: url(&quot;#zr2323-shadow-1&quot;);">
</path>
<path d="M 549.9646 386.9475 L 549.8568 386.0735 L 549.1203 385.2616 L 550.0663 384.2413 L 550.3298 383.0083 L 550.2041 381.1035 L 548.3779 377.8908 L 547.4379 377.9192 L 546.1926 377.2574 L 544.4802 375.7506 L 543.6539 374.4432 L 542.4325 373.7074 L 541.5943 372.1564 L 541.0255 370.4609 L 539.5766 367.5118 L 536.9122 363.3342 L 536.8044 362.1016 L 535.8285 359.1992 L 535.4094 357.2452 L 535.5531 355.9049 L 535.0202 355.1208 L 533.6731 354.5516 L 531.9128 351.6525 L 529.4401 349.0094 L 527.4702 347.7359 L 523.321 349.4977 L 522.6744 350.3817 L 518.4833 350.5725 L 513.885 352.696 L 510.9872 355.0881 L 509.8017 355.4661 L 507.6522 355.7695 L 508.7 356.3251 L 508.8617 357.6751 L 509.2389 358.1378 L 510.2208 360.7902 L 510.8854 364.0657 L 510.3944 364.2768 L 509.8256 365.9898 L 507.4786 369.9855 L 506.7182 370.814 L 505.5926 371.2802 L 505.4609 371.7277 L 506.2871 373.415 L 507.275 374.5895 L 506.796 375.2455 L 507.9815 376.6527 L 508.4006 377.7584 L 508.8617 380.1661 L 508.5383 380.9141 L 509.0173 381.7666 L 511.8014 382.0983 L 513.4719 381.9656 L 513.406 382.6764 L 512.6876 383.7717 L 513.436 384.8155 L 514.1904 385.2663 L 514.1245 386.843 L 512.7235 387.1898 L 512.5439 388.0121 L 513.9329 390.9572 L 514.6694 391.9289 L 514.5796 392.5532 L 513.7533 392.8725 L 514.0467 394.6132 L 514.9807 394.8852 L 515.1723 395.4962 L 516.5554 395.6967 L 517.0343 397.2681 L 517.8546 397.9754 L 518.3755 399.0035 L 516.6332 401.0709 L 515.8908 402.5271 L 514.388 402.8482 L 510.6638 403.1454 L 509.6939 402.6996 L 508.2809 403.9029 L 508.1133 405.9711 L 508.8078 406.5665 L 508.4545 407.1957 L 508.7419 409.3156 L 509.5143 408.9598 L 510.3285 409.205 L 511.6637 408.003 L 512.2026 408.1232 L 514.2323 410.0517 L 514.843 409.6861 L 516.8667 409.1858 L 517.5672 409.3734 L 518.4234 408.753 L 519.8903 408.9694 L 520.6028 409.5369 L 520.992 408.6905 L 521.6865 409.0944 L 522.3152 408.7915 L 523.8 409.3253 L 524.1293 408.1569 L 525.3687 408.7338 L 525.6561 409.941 L 526.6021 409.7293 L 526.9314 411.0913 L 527.9911 410.6485 L 529.4281 412.4158 L 530.4818 412.4495 L 530.7153 413.2398 L 531.0866 412.5555 L 531.9607 414.1317 L 532.3798 414.0497 L 533.7449 415.0481 L 534.7628 414.503 L 535.3196 415.0481 L 536.4033 414.9372 L 536.3554 415.8251 L 537.0559 416.1823 L 538.1336 416.1002 L 539.6005 416.5589 L 540.4328 415.7334 L 540.6722 416.3754 L 541.8398 415.4149 L 541.8517 414.6622 L 543.5282 414.2233 L 543.3546 412.8494 L 542.8756 411.6162 L 541.8877 411.6884 L 541.5704 410.6918 L 540.4387 410.35 L 540.307 409.6668 L 539.2533 410.0661 L 538.8461 409.2387 L 537.8941 408.5895 L 538.6605 407.1765 L 537.6427 407.1621 L 537.1637 406.384 L 536.7625 404.349 L 536.9481 402.3641 L 536.6667 401.4492 L 535.6549 401.6695 L 535.1999 400.999 L 535.8644 397.9946 L 535.1879 397.4306 L 533.8048 397.9659 L 533.4516 396.0548 L 534.1161 395.52 L 534.4694 394.2697 L 533.7988 392.9392 L 533.9904 391.1525 L 533.4216 391.162 L 532.8888 389.6625 L 531.9847 389.2914 L 532.1343 388.5208 L 531.1884 387.879 L 531.8709 387.7792 L 532.4876 386.5912 L 533.5593 386.9902 L 533.8467 386.5484 L 535.8046 385.1049 L 536.2177 385.4182 L 537.6008 385.1714 L 537.493 385.874 L 538.5707 385.893 L 538.8042 386.5057 L 540.1214 386.9522 L 540.4447 386.14 L 541.3788 386.4914 L 541.8697 387.475 L 543.0911 387.8219 L 543.2708 387.2373 L 544.5161 387.9265 L 546.0369 389.1154 L 546.935 387.7364 L 548.5096 387.1043 L 549.9646 386.9475 Z" fill="[object Object]" fill-opacity="1" stroke="dodgerblue" stroke-width="1" paint-order="fill" stroke-opacity="1" stroke-dasharray="" stroke-linecap="butt" stroke-miterlimit="10" style="filter: url(&quot;#zr2323-shadow-1&quot;);">
</path>
<path d="M 453.1018 427.2847 L 453.1617 429.199 L 453.4491 429.8845 L 453.3114 431.3439 L 454.0239 431.9426 L 453.4072 432.9019 L 453.5149 433.4864 L 450.8207 435.1339 L 450.2339 436.0459 L 450.4135 437.1976 L 451.4254 438.2962 L 453.1677 439.0779 L 453.1318 440.4563 L 453.7604 440.7252 L 454.2813 442.1929 L 454.0598 445.0777 L 454.6705 445.6415 L 455.2513 447.7754 L 455.8261 448.5019 L 457.6043 449.4842 L 458.1551 449.9853 L 459.0173 449.9706 L 459.5322 449.2877 L 459.9094 449.6856 L 461.1129 443.2601 L 459.5202 444.8376 L 459.3646 444.4112 L 457.1014 442.7314 L 457.4307 441.5911 L 457.5564 438.5649 L 457.0594 434.8559 L 456.7062 433.5059 L 455.9578 432.2785 L 456.5385 431.5483 L 456.2212 430.1374 L 455.874 430.0742 L 455.7602 428.7421 L 456.8499 427.3284 L 457.5863 427.2556 L 457.5265 425.8236 L 456.9038 425.7217 L 455.5506 427.1633 L 455.4548 427.7072 L 453.6886 428.5526 L 453.503 427.0662 L 453.1018 427.2847 Z" fill="[object Object]" fill-opacity="1" stroke="dodgerblue" stroke-width="1" paint-order="fill" stroke-opacity="1" stroke-dasharray="" stroke-linecap="butt" stroke-miterlimit="10" style="filter: url(&quot;#zr2323-shadow-1&quot;);">
</path>
<path d="M 745.8754 360.6826 L 743.4745 358.0116 L 743.5044 357.2499 L 741.355 355.9095 L 741.1095 355.2794 L 739.3852 353.2086 L 739.2834 351.6013 L 738.7026 351.2148 L 737.5291 348.0425 L 737.104 347.2574 L 736.8286 345.4746 L 736.3675 344.1805 L 735.7987 343.6752 L 736.2957 342.8642 L 735.9484 342.1972 L 736.4573 340.8871 L 735.5892 340.9194 L 734.7989 338.8983 L 735.4874 337.7524 L 737.116 336.7873 L 737.2956 335.6658 L 739.475 333.4252 L 740.6544 332.4165 L 742.3728 329.9687 L 743.4984 329.1551 L 743.0134 328.645 L 741.2472 329.4492 L 736.3256 330.0239 L 737.5231 329.1275 L 738.8164 328.6772 L 740.0677 328.7553 L 741.7082 327.4188 L 741.7082 326.7258 L 743.3667 325.1892 L 744.1989 325.0884 L 745.4742 324.1396 L 746.9292 323.622 L 747.9769 322.5368 L 747.0549 321.2328 L 745.7317 320.0897 L 744.9054 318.7282 L 743.8816 318.0206 L 744.0672 316.0542 L 743.6302 314.6779 L 741.9298 311.874 L 742.2591 310.6466 L 743.0194 309.7561 L 742.2052 309.3247 L 741.8519 307.8496 L 741.1155 307.7634 L 740.9538 306.3985 L 739.4809 306.394 L 739.1995 305.669 L 737.8763 306.0043 L 736.9962 305.6418 L 735.6311 303.5681 L 735.4156 302.2204 L 734.6073 302.0938 L 734.0445 301.339 L 734.3139 300.7246 L 733.5116 298.5941 L 732.0267 297.6697 L 730.8832 296.0791 L 731.3143 295.3542 L 730.1946 295.0076 L 729.2845 293.8783 L 729.2666 293.2802 L 728.0871 291.5143 L 727.4644 291.218 L 726.0394 289.5037 L 724.7821 288.8042 L 724.4528 288.1811 L 722.5668 287.4105 L 721.7346 286.1344 L 721.6328 285.2708 L 721.0041 284.0993 L 720.4712 282.4418 L 717.3818 279.8853 L 717.0585 279.0875 L 713.8612 278.3035 L 713.2386 279.9878 L 714.3582 280.6968 L 714.5318 282.4954 L 713.957 283.1698 L 712.9512 282.8705 L 712.8554 281.9462 L 711.3346 281.0448 L 710.1611 282.5088 L 710.1192 283.2145 L 710.9454 284.3764 L 711.628 284.6357 L 711.1969 285.3469 L 710.4006 284.8325 L 710.0413 285.4498 L 710.4724 286.2194 L 711.6339 287.0522 L 711.5142 287.7644 L 709.8857 287.3433 L 709.1073 287.4598 L 708.5505 287.0029 L 708.2631 288.7997 L 708.4846 289.2212 L 709.9575 290.0779 L 710.6401 291.4335 L 710.4604 291.8871 L 709.4725 291.8422 L 709.9396 292.6824 L 708.2272 293.2667 L 706.892 293.1723 L 706.2454 292.6734 L 705.3892 293.0824 L 706.886 294.8725 L 706.1855 297.9177 L 704.1977 299.0363 L 703.5691 299.0227 L 702.3596 300.3679 L 701.695 299.957 L 699.5516 300.6569 L 698.7852 300.0834 L 697.6895 300.9821 L 697.5877 301.7683 L 696.1568 302.1525 L 696.067 303.3148 L 695.3904 303.4324 L 694.5042 304.3964 L 693.8456 304.0659 L 691.2532 303.8849 L 690.852 304.3783 L 691.3489 305.1299 L 691.2292 306.394 L 690.5347 305.7958 L 689.894 307.0559 L 689.1097 307.1602 L 688.5109 309.2793 L 687.4752 310.0559 L 684.5833 309.3883 L 683.6253 310.0605 L 683.4158 310.8465 L 682.6913 311.0647 L 681.7992 312.3471 L 679.9311 312.4198 L 678.7756 311.7103 L 679.6557 310.2422 L 678.3086 309.4019 L 678.584 308.789 L 676.8776 307.7135 L 676.2669 306.6297 L 674.806 306.3985 L 669.7108 306.8111 L 668.8726 307.5684 L 667.9385 307.9358 L 665.6694 311.3011 L 664.6395 312.206 L 664.8371 313.2162 L 665.8909 313.7215 L 666.0945 314.4729 L 665.4299 315.3112 L 665.7173 317.0211 L 665.1545 317.304 L 665.4598 318.8972 L 666.5615 319.7058 L 664.8611 321.9098 L 662.5081 322.3537 L 662.083 323.535 L 661.574 323.5853 L 661.3884 324.9004 L 661.9333 326.5101 L 661.0891 327.1434 L 659.9455 326.4551 L 658.8318 326.2348 L 657.6045 326.5606 L 657.2692 328.9161 L 655.8262 330.1526 L 653.7666 331.436 L 653.2996 333.4206 L 652.3895 333.7892 L 652.1081 336.178 L 653.4073 337.6323 L 653.7546 338.3576 L 655.1616 339.1526 L 655.0958 340.0913 L 657.1494 341.1786 L 657.9757 341.8267 L 658.6881 343.5639 L 658.5205 345.5721 L 658.6822 347.1041 L 657.5506 349.5768 L 656.9039 351.564 L 657.8859 351.1543 L 657.9397 352.1882 L 658.5924 352.7799 L 659.1851 351.6898 L 661.3226 352.0298 L 661.7237 353.0269 L 663.0709 353.3671 L 662.8853 354.8548 L 663.5618 356.0356 L 663.2325 357.4228 L 665.2922 356.3764 L 665.7831 355.5268 L 667.0824 355.4101 L 667.4775 354.7661 L 669.0821 355.2747 L 671.1418 354.8221 L 672.3153 355.3867 L 673.9917 355.1208 L 674.0396 353.894 L 673.4529 353.8427 L 674.4108 352.7845 L 674.4527 351.9646 L 675.2431 351.4942 L 676.3747 351.7969 L 676.6201 351.4104 L 677.8715 351.4802 L 679.2606 352.0484 L 680.0868 351.8947 L 681.5896 351.0472 L 683.5415 354.0432 L 686.1041 356.624 L 686.6549 357.5069 L 686.4872 358.928 L 687.3913 359.8963 L 687.1339 360.383 L 685.5113 361.3521 L 686.8465 362.6357 L 688.3553 363.3857 L 687.9901 364.9008 L 689.3671 365.8912 L 688.7444 367.2252 L 690.0676 367.2909 L 690.7143 366.5158 L 690.846 365.6424 L 691.792 365.8349 L 692.3009 366.7976 L 691.0735 367.5024 L 692.6542 368.4614 L 692.4925 369.7926 L 691.7202 370.0655 L 693.199 371.657 L 692.2051 374.4102 L 691.2651 374.3772 L 691.0376 373.448 L 689.5887 373.2924 L 689.0558 374.0988 L 688.8582 375.2502 L 689.6545 377.2291 L 690.4329 377.782 L 690.4988 378.8885 L 690.9238 379.6739 L 692.3967 380.0193 L 692.6901 381.6008 L 691.786 382.7381 L 692.9236 383.3022 L 693.6301 385.124 L 693.3846 386.2872 L 694.0253 387.1328 L 694.6958 386.5864 L 696.9052 385.9785 L 699.1983 386.1875 L 700.1742 386.0735 L 701.5214 386.805 L 702.1022 386.0022 L 703.5451 385.4182 L 703.6529 386.2967 L 704.6049 387.4464 L 706.3412 387.2896 L 708.796 387.6461 L 710.0772 387.532 L 710.9634 387.9408 L 712.089 386.7622 L 713.0051 386.7717 L 713.7175 385.1192 L 713.2865 384.5402 L 714.6635 384.0943 L 714.6935 383.0557 L 715.2204 382.6291 L 715.2443 381.6482 L 714.3642 380.1092 L 715.4598 380.2228 L 715.4838 379.4562 L 713.963 378.6851 L 713.2445 377.593 L 713.0769 376.1048 L 713.4481 374.6744 L 712.9452 373.8724 L 713.3463 373.4998 L 713.7954 371.7418 L 713.9331 370.2773 L 713.5918 368.9834 L 714.6216 367.5541 L 714.8432 365.6612 L 714.1187 364.8492 L 713.1727 364.5723 L 712.5919 362.9966 L 711.7956 362.5842 L 712.7596 360.8089 L 713.8493 360.0086 L 715.8131 359.391 L 716.8609 358.5492 L 717.274 357.4181 L 718.7169 358.2079 L 718.0823 360.0647 L 719.4713 360.4813 L 720.1719 361.4879 L 721.7765 361.7971 L 722.2914 362.289 L 724.4049 362.1906 L 724.5725 363.4326 L 724.2612 364.0282 L 724.3809 365.4499 L 724.8839 365.8302 L 726.0155 368.4332 L 726.6381 369.0116 L 726.6381 370.3338 L 727.2728 370.7669 L 728.0631 373.2028 L 728.4463 373.1415 L 728.626 374.3206 L 728.0931 375.354 L 728.3445 376.1992 L 729.5719 376.5015 L 730.4461 375.6137 L 730.2126 374.4149 L 732.7931 371.3414 L 733.805 371.2237 L 732.9727 370.7811 L 733.5236 369.9338 L 735.3377 368.2874 L 737.0381 367.6857 L 736.9184 366.5534 L 737.8045 366.1307 L 737.2477 365.2246 L 739.6845 363.517 L 740.5227 363.864 L 742.5405 362.5092 L 743.0194 361.961 L 744.5821 361.8345 L 744.7618 361.1601 L 745.8874 361.4317 L 745.8754 360.6826 Z" fill="[object Object]" fill-opacity="1" stroke="dodgerblue" stroke-width="1" paint-order="fill" stroke-opacity="1" stroke-dasharray="" stroke-linecap="butt" stroke-miterlimit="10" style="filter: url(&quot;#zr2323-shadow-1&quot;);">
</path>
<path d="M 745.8754 360.6826 L 746.9711 360.4064 L 748.893 361.4364 L 749.7312 361.1554 L 750.1024 360.4438 L 750.8149 360.3736 L 752.8266 357.862 L 754.1978 357.4228 L 754.6049 356.1009 L 756.2753 355.0694 L 760.1072 354.6869 L 760.8856 353.88 L 760.8317 354.4909 L 761.5083 354.8641 L 762.095 356.0589 L 763.029 355.8815 L 763.7774 354.7521 L 765.2443 354.1924 L 765.4659 353.4417 L 766.3041 353.5536 L 767.3818 351.3918 L 767.2741 349.9815 L 767.777 349.1164 L 768.8547 348.6654 L 769.3995 348.8235 L 770.2737 348.1541 L 771.7705 349.0931 L 773.0758 349.0513 L 773.2314 347.9124 L 774.387 348.8932 L 775.3869 349.0652 L 776.0814 349.5954 L 777.2669 349.1675 L 777.2908 348.4655 L 778.5721 347.197 L 776.7759 346.7326 L 776.261 345.4421 L 776.4346 345.0478 L 778.0632 344.8529 L 780.6916 345.3215 L 781.0449 346.324 L 781.9609 346.779 L 784.1822 346.4122 L 786.5472 348.2424 L 787.3914 346.8626 L 788.2536 346.8069 L 788.6068 347.3178 L 789.3193 346.6583 L 790.9359 346.8905 L 791.4688 346.3565 L 794.4385 345.1452 L 793.271 344.6118 L 793.6362 343.3924 L 793.5404 342.5585 L 795.1031 340.6973 L 796.3963 340.4937 L 799.5037 339.3329 L 800.8629 340.3179 L 801.5873 340.3873 L 802.7189 338.2837 L 802.9045 336.6072 L 803.5631 335.5182 L 803.1141 334.6235 L 803.7487 334.3238 L 803.5392 333.1073 L 804.1499 332.7434 L 804.3056 330.2767 L 802.3357 330.3963 L 801.0185 329.0494 L 800.4916 329.3986 L 799.8091 328.2132 L 798.8811 328.4245 L 798.426 329.1872 L 797.51 327.35 L 796.2706 326.9231 L 796.558 326.1798 L 796.0371 325.3038 L 797.037 324.8362 L 799.0966 325.4414 L 799.2762 324.8087 L 798.45 323.9885 L 800.3001 324.158 L 800.306 323.2419 L 800.8569 322.5688 L 800.4438 320.7983 L 799.7253 320.1354 L 800.0187 318.815 L 799.3241 317.879 L 799.4259 316.9527 L 798.923 316.2822 L 798.5997 314.9011 L 797.498 313.8444 L 798.0309 313.4665 L 796.6119 312.1105 L 796.528 310.5784 L 796.9891 310.3376 L 797.7315 308.4213 L 796.4322 307.9267 L 795.6778 307.0015 L 795.4683 305.9181 L 793.8038 303.3646 L 792.3609 302.7087 L 792.0974 301.7774 L 792.6722 301.0679 L 792.295 300.2459 L 792.313 298.8197 L 790.2414 299.2799 L 786.7448 301.8949 L 784.769 302.6816 L 783.0027 305.0031 L 782.3082 305.0665 L 779.6378 305.9816 L 779.0212 306.3487 L 775.6263 306.462 L 774.6325 305.8321 L 773.6984 305.6101 L 772.4052 305.8411 L 769.4055 304.5005 L 768.6631 303.7718 L 767.6512 303.4053 L 766.5795 301.7864 L 765.4778 301.5288 L 764.4241 300.5575 L 764.0409 299.6861 L 762.7476 298.1251 L 761.7837 297.3361 L 760.4246 295.2146 L 760.6401 294.6835 L 759.6582 294.4541 L 759.281 292.997 L 756.7723 291.0473 L 757.0058 290.2933 L 756.6166 289.3781 L 753.2697 287.097 L 748.9888 285.32 L 747.8332 283.2502 L 747.7554 281.9998 L 747.1986 281.9239 L 747.7374 280.9332 L 747.6297 280.184 L 745.8454 279.2613 L 744.8815 279.3058 L 744.7079 278.2678 L 742.9775 278.0897 L 741.2592 277.0481 L 739.6187 275.5269 L 739.0678 275.398 L 739.1696 273.7586 L 737.8823 272.4758 L 736.5951 272.4447 L 736.2837 271.4911 L 734.727 270.9192 L 734.3678 270.0728 L 733.1583 270.0241 L 731.0149 268.8417 L 728.147 268.8373 L 727.4764 269.2889 L 727.4704 270.0285 L 728.1829 270.7419 L 728.2248 271.5088 L 727.5542 271.9523 L 725.6502 271.3049 L 725.9017 269.8557 L 725.0156 270.1348 L 723.8481 269.4527 L 723.2553 269.6919 L 720.4473 268.0496 L 718.5792 267.1605 L 718.4535 268.2531 L 717.1483 270.0728 L 715.0886 271.1142 L 713.1727 272.3427 L 713.3583 274.6247 L 712.0052 276.8879 L 713.5379 278.4772 L 713.8612 278.3035 L 717.0585 279.0875 L 717.3818 279.8853 L 720.4712 282.4418 L 721.0041 284.0993 L 721.6328 285.2708 L 721.7346 286.1344 L 722.5668 287.4105 L 724.4528 288.1811 L 724.7821 288.8042 L 726.0394 289.5037 L 727.4644 291.218 L 728.0871 291.5143 L 729.2666 293.2802 L 729.2845 293.8783 L 730.1946 295.0076 L 731.3143 295.3542 L 730.8832 296.0791 L 732.0267 297.6697 L 733.5116 298.5941 L 734.3139 300.7246 L 734.0445 301.339 L 734.6073 302.0938 L 735.4156 302.2204 L 735.6311 303.5681 L 736.9962 305.6418 L 737.8763 306.0043 L 739.1995 305.669 L 739.4809 306.394 L 740.9538 306.3985 L 741.1155 307.7634 L 741.8519 307.8496 L 742.2052 309.3247 L 743.0194 309.7561 L 742.2591 310.6466 L 741.9298 311.874 L 743.6302 314.6779 L 744.0672 316.0542 L 743.8816 318.0206 L 744.9054 318.7282 L 745.7317 320.0897 L 747.0549 321.2328 L 747.9769 322.5368 L 746.9292 323.622 L 745.4742 324.1396 L 744.1989 325.0884 L 743.3667 325.1892 L 741.7082 326.7258 L 741.7082 327.4188 L 740.0677 328.7553 L 738.8164 328.6772 L 737.5231 329.1275 L 736.3256 330.0239 L 741.2472 329.4492 L 743.0134 328.645 L 743.4984 329.1551 L 742.3728 329.9687 L 740.6544 332.4165 L 739.475 333.4252 L 737.2956 335.6658 L 737.116 336.7873 L 735.4874 337.7524 L 734.7989 338.8983 L 735.5892 340.9194 L 736.4573 340.8871 L 735.9484 342.1972 L 736.2957 342.8642 L 735.7987 343.6752 L 736.3675 344.1805 L 736.8286 345.4746 L 737.104 347.2574 L 737.5291 348.0425 L 738.7026 351.2148 L 739.2834 351.6013 L 739.3852 353.2086 L 741.1095 355.2794 L 741.355 355.9095 L 743.5044 357.2499 L 743.4745 358.0116 L 745.8754 360.6826 Z" fill="[object Object]" fill-opacity="1" stroke="dodgerblue" stroke-width="1" paint-order="fill" stroke-opacity="1" stroke-dasharray="" stroke-linecap="butt" stroke-miterlimit="10" style="filter: url(&quot;#zr2323-shadow-1&quot;);">
</path>
<path d="M 457.6043 449.4842 L 457.6941 450.5259 L 457.3408 452.6209 L 454.916 455.2059 L 453.2276 457.9422 L 452.1259 459.0526 L 451.2937 462.0019 L 451.0063 465.5598 L 450.0363 467.7749 L 447.5636 469.789 L 449.0724 471.3282 L 450.5752 472.1927 L 452.6528 472.978 L 453.2276 473.6094 L 457.1492 474.9774 L 458.5922 475.2909 L 459.7118 474.7734 L 460.8913 474.8281 L 461.1608 474.1764 L 462.2265 474.3604 L 463.3042 475.5597 L 465.1543 476.2268 L 466.4416 478.1995 L 467.3995 478.7528 L 466.8128 480.0195 L 467.6091 480.4585 L 468.4892 480.1392 L 469.8962 481.5516 L 471.7523 482.3555 L 472.4409 481.7163 L 473.6383 482.8849 L 475.7399 483.3396 L 476.614 483.9093 L 478.6257 484.4891 L 478.8592 485.9245 L 479.5059 486.9354 L 479.2724 487.8516 L 481.7751 489.0538 L 483.0085 488.6079 L 484.1041 487.8465 L 485.2357 488.5377 L 487.7504 488.3123 L 490.0316 487.1606 L 491.6601 488.1671 L 495.1088 487.3559 L 495.4082 486.8953 L 495.2525 485.1142 L 495.4321 483.6994 L 495.5339 480.4485 L 496.1267 478.7478 L 495.5219 477.2926 L 496.2045 477.2378 L 497.2882 478.2344 L 497.5157 479.2165 L 498.3839 480.7779 L 499.1802 480.4985 L 499.3538 479.6155 L 500.0783 479.4459 L 500.5034 478.0201 L 501.156 477.9802 L 500.7668 477.0983 L 501.144 476.0973 L 498.6234 473.9028 L 498.4497 472.8288 L 499.2161 471.8449 L 498.9227 471.2934 L 499.8747 468.6974 L 500.7788 467.9733 L 500.7968 466.7786 L 503.3593 464.2873 L 503.7904 463.3521 L 505.4489 461.4088 L 506.5805 462.1008 L 507.3289 461.2209 L 506.5266 460.3711 L 506.7302 459.2402 L 508.0354 458.8305 L 509.0533 456.8275 L 510.4303 455.5853 L 511.1009 456.3591 L 512.6516 455.0137 L 513.879 452.7735 L 513.4958 451.4994 L 514.7412 450.4866 L 515.4058 449.5186 L 517.5313 447.5594 L 518.8186 448.0404 L 518.2318 447.0933 L 519.6209 445.6954 L 517.7169 444.0977 L 518.4174 443.4854 L 519.6568 445.1414 L 520.6567 445.2346 L 522.2673 444.5092 L 524.4287 443.2406 L 524.9376 443.2308 L 524.2251 441.1508 L 523.2612 440.1727 L 523.1653 438.6528 L 523.5904 438.4574 L 525.4705 439.2929 L 527.4822 441.5568 L 528.53 442.3838 L 529.3203 441.547 L 529.3383 440.5199 L 530.428 441.0334 L 531.2901 440.4221 L 532.0146 441.2681 L 532.1703 442.1587 L 533.4036 443.6274 L 534.9903 443.4316 L 535.613 442.4768 L 535.7267 441.366 L 537.1697 439.6203 L 538.882 436.9389 L 540.301 436.6461 L 541.5045 435.7484 L 543.2348 435.5435 L 543.9772 434.7828 L 544.3544 435.2802 L 544.2287 436.2948 L 543.3486 437.2269 L 542.9834 438.3158 L 542.3547 438.6284 L 542.4804 439.9185 L 543.1749 439.894 L 543.3845 441.1459 L 544.1569 439.6839 L 544.7137 439.3027 L 547.1386 439.4737 L 548.4438 439.2098 L 548.6893 438.0862 L 549.9825 437.0902 L 550.222 433.2331 L 550.3178 432.5123 L 548.6773 431.0617 L 548.821 429.199 L 549.7909 428.0376 L 549.749 427.1002 L 550.3238 426.2943 L 550.0065 424.8436 L 549.8508 422.7739 L 548.6414 420.5515 L 547.6834 419.1971 L 546.0608 418.704 L 544.8334 417.2157 L 543.5222 416.2885 L 542.2289 416.0375 L 541.8398 415.4149 L 540.6722 416.3754 L 540.4328 415.7334 L 539.6005 416.5589 L 538.1336 416.1002 L 537.0559 416.1823 L 536.3554 415.8251 L 536.4033 414.9372 L 535.3196 415.0481 L 534.7628 414.503 L 533.7449 415.0481 L 532.3798 414.0497 L 531.9607 414.1317 L 531.0866 412.5555 L 530.7153 413.2398 L 530.4818 412.4495 L 529.4281 412.4158 L 527.9911 410.6485 L 526.9314 411.0913 L 526.6021 409.7293 L 525.6561 409.941 L 525.3687 408.7338 L 524.1293 408.1569 L 523.8 409.3253 L 522.3152 408.7915 L 521.6865 409.0944 L 520.992 408.6905 L 520.6028 409.5369 L 519.8903 408.9694 L 518.4234 408.753 L 517.5672 409.3734 L 516.8667 409.1858 L 514.843 409.6861 L 514.2323 410.0517 L 512.2026 408.1232 L 511.6637 408.003 L 510.3285 409.205 L 509.5143 408.9598 L 508.7419 409.3156 L 508.209 410.764 L 508.0594 410.2153 L 506.6224 410.1383 L 506.329 409.5369 L 505.0537 409.484 L 504.4311 409.9555 L 504.3532 409.0367 L 503.2815 409.1137 L 502.9522 408.5751 L 501.4613 408.7434 L 501.3536 408.2097 L 499.725 408.402 L 499.258 408.8059 L 497.2343 407.9213 L 496.1147 407.7147 L 495.0429 408.1809 L 494.7735 407.3975 L 495.0789 406.456 L 494.1508 406.5425 L 493.2947 405.6782 L 492.6361 405.827 L 491.5224 405.251 L 491.6721 404.7712 L 490.6423 403.2652 L 488.9658 403.0495 L 489.0616 402.5415 L 488.0438 401.4444 L 486.1338 401.1331 L 485.2597 400.7692 L 483.8587 400.7165 L 483.6311 399.7976 L 482.5534 399.4196 L 482.4516 399.8215 L 479.6675 399.7593 L 479.0149 400.0273 L 478.3563 399.4101 L 477.2307 399.9316 L 476.0033 399.2283 L 475.2848 400.2714 L 473.9976 399.5727 L 473.3689 400.1134 L 473.5305 400.865 L 472.7522 400.9224 L 472.7103 402.1485 L 472.0397 402.4552 L 470.9859 401.8803 L 470.3932 402.9393 L 469.2616 403.9749 L 468.3755 403.7063 L 467.6989 404.5889 L 466.2559 405.5966 L 464.2023 405.4382 L 463.4778 407.2822 L 462.9869 407.9213 L 461.6996 407.5128 L 461.6218 408.8636 L 462.4959 409.3974 L 461.496 410.8939 L 461.8433 412.5988 L 460.1309 413.4326 L 459.2029 414.2908 L 458.7539 416.2402 L 457.7121 417.3316 L 455.5267 418.733 L 454.9579 419.289 L 454.6226 420.3725 L 452.6767 422.0667 L 452.4911 425.7071 L 453.1018 427.2847 L 453.503 427.0662 L 453.6886 428.5526 L 455.4548 427.7072 L 455.5506 427.1633 L 456.9038 425.7217 L 457.5265 425.8236 L 457.5863 427.2556 L 456.8499 427.3284 L 455.7602 428.7421 L 455.874 430.0742 L 456.2212 430.1374 L 456.5385 431.5483 L 455.9578 432.2785 L 456.7062 433.5059 L 457.0594 434.8559 L 457.5564 438.5649 L 457.4307 441.5911 L 457.1014 442.7314 L 459.3646 444.4112 L 459.5202 444.8376 L 461.1129 443.2601 L 459.9094 449.6856 L 459.5322 449.2877 L 459.0173 449.9706 L 458.1551 449.9853 L 457.6043 449.4842 Z" fill="[object Object]" fill-opacity="1" stroke="dodgerblue" stroke-width="1" paint-order="fill" stroke-opacity="1" stroke-dasharray="" stroke-linecap="butt" stroke-miterlimit="10" style="filter: url(&quot;#zr2323-shadow-1&quot;);">
</path>
<path d="M 777.674 220.3563 L 775.2132 221.7456 L 774.1175 223.0333 L 773.0159 223.6732 L 771.6148 224.1329 L 770.6569 224.9926 L 770.0162 224.4724 L 767.5016 223.3639 L 766.0347 222.9474 L 764.7713 222.2906 L 764.0409 222.2734 L 762.2447 223.1191 L 761.5562 224.3779 L 761.7298 225.1259 L 760.4784 225.328 L 759.73 224.6229 L 757.3291 224.9668 L 756.1736 226.1023 L 753.5811 226.9029 L 751.8867 226.1325 L 750.3479 225.8313 L 749.4378 226.0034 L 747.8153 227.3766 L 746.9052 227.0665 L 745.7377 225.8958 L 744.63 226.012 L 743.6122 225.1388 L 742.8698 224.004 L 740.5587 223.351 L 740.3731 222.0889 L 740.6964 221.5354 L 742.1513 220.8064 L 742.8338 219.555 L 742.6063 219.0539 L 741.0556 217.8682 L 739.5648 216.021 L 740.0737 215.3075 L 739.8043 214.889 L 738.6547 215.0086 L 737.3854 214.7011 L 735.4096 213.6342 L 734.2899 213.2417 L 733.0685 211.8562 L 732.4219 212.6192 L 731.8351 212.4913 L 731.3083 213.1266 L 730.0449 213.391 L 729.1349 214.206 L 727.8536 214.7097 L 726.734 213.9585 L 725.6682 214.2913 L 724.8479 215.1495 L 724.5606 215.5083 L 724.1894 215.9825 L 723.7403 216.2432 L 723.6685 216.3885 L 723.6804 216.4868 L 723.7104 217.0127 L 722.8242 217.9196 L 722.6865 217.9838 L 720.7826 218.6515 L 720.573 218.7414 L 720.3814 218.9212 L 719.633 220.0649 L 716.8788 220.6949 L 716.0765 219.7864 L 714.8791 219.0539 L 714.2145 218.1549 L 713.5379 218.2362 L 714.442 216.846 L 711.119 215.6621 L 710.0174 215.1025 L 709.6462 211.6816 L 702.168 208.7363 L 697.917 202.631 L 695.3066 202.5294 L 694.9413 202.0046 L 693.4146 202.2458 L 691.8758 202.157 L 691.1274 201.2938 L 688.3792 201.5561 L 686.4693 202.1019 L 684.6252 201.975 L 683.8049 201.7169 L 682.2842 201.9665 L 676.3926 208.409 L 675.6622 209.085 L 673.393 212.325 L 667.3997 207.2744 L 662.9332 205.3432 L 661.113 205.2414 L 658.5983 205.4365 L 654.1019 206.9007 L 650.2281 205.8183 L 647.0189 207.6143 L 644.0611 210.9787 L 643.4564 211.1661 L 636.0322 204.5756 L 634.9724 198.1251 L 641.0495 195.2498 L 640.5646 188.1876 L 641.2052 186.9436 L 646.3423 179.6983 L 645.7256 178.287 L 651.9884 166.0216 L 659.5922 151.3914 L 659.9814 151.3832 L 666.8668 155.5833 L 671.1956 157.217 L 675.4826 157.3072 L 678.6558 158.9143 L 682.2063 160.396 L 683.0326 159.5626 L 683.3858 158.4385 L 685.1341 158.3319 L 685.7508 157.635 L 687.8643 157.7621 L 688.6127 156.3856 L 689.3552 156.5576 L 689.9898 155.7961 L 690.4149 155.8821 L 690.7263 154.6302 L 692.0015 154.2541 L 692.6961 153.6042 L 694.1989 153.0854 L 694.4863 152.383 L 694.133 151.9545 L 695.8813 151.9871 L 696.4262 151.42 L 696.2166 150.849 L 696.989 150.4576 L 698.0188 149.0805 L 698.9468 149.166 L 699.6414 148.5308 L 701.5214 148.6489 L 701.9585 148.2866 L 703.2338 148.1808 L 706.1496 147.481 L 707.9098 147.7088 L 708.772 147.5624 L 709.4306 146.6719 L 710.7658 145.6683 L 710.8376 144.7222 L 711.7298 145.1079 L 712.8793 143.8133 L 713.2805 142.7186 L 713.7894 142.6741 L 714.3163 141.7301 L 713.4661 141.0864 L 714.1366 138.7893 L 714.8791 138.2884 L 714.2923 137.2588 L 712.6099 137.0651 L 711.7776 137.6019 L 711.7118 137.0893 L 710.9155 137.5252 L 710.0892 137.1014 L 710.5263 136.7141 L 709.8916 135.8188 L 710.8197 135.4963 L 711.149 135.8389 L 711.8375 134.4931 L 712.3464 134.2072 L 711.8016 133.209 L 712.3045 133.0641 L 712.3883 131.6809 L 713.0649 131.0461 L 712.7177 130.4679 L 714.3522 129.6972 L 715.0288 128.7425 L 714.891 128.3136 L 715.837 128.2655 L 717.1543 126.5831 L 717.5494 124.6871 L 717.2021 124.3114 L 717.0465 122.8976 L 718.669 121.3817 L 719.2678 119.9752 L 719.9144 119.3182 L 721.0161 119.0317 L 721.8962 118.1843 L 721.8363 117.4488 L 722.6985 116.9957 L 723.1296 115.0345 L 722.6147 113.6626 L 723.1535 113.3258 L 723.884 113.6309 L 723.381 112.7277 L 724.0157 112.2684 L 723.6625 111.8608 L 725.0814 111.3583 L 725.1773 110.2473 L 725.9736 110.018 L 726.4585 109.4452 L 725.776 109.1885 L 725.9676 108.6002 L 726.9854 108.4937 L 727.2249 107.2629 L 727.6321 106.8647 L 727.2908 105.5844 L 728.5481 104.4902 L 728.3086 103.3733 L 728.9493 101.9002 L 729.6977 101.594 L 729.536 100.7151 L 731.1526 100.7739 L 732.2662 99.7309 L 733.6613 98.8181 L 734.0265 97.9607 L 735.1102 97.7337 L 736.0083 97.0022 L 735.8766 96.533 L 737.098 96.2125 L 737.8763 95.0445 L 738.6307 95.271 L 738.9301 94.4979 L 741.2711 93.8815 L 741.3071 93.0937 L 742.1094 92.4701 L 742.4866 91.6521 L 741.792 90.967 L 743.5224 88.7818 L 743.3906 87.9895 L 743.8577 87.3608 L 743.0554 86.298 L 743.2949 84.8527 L 742.4446 84.7288 L 742.0016 83.9276 L 740.6006 83.0186 L 740.5107 81.948 L 741.0317 81.8862 L 741.0137 81.1717 L 741.8339 80.122 L 741.7322 79.0463 L 742.2171 78.3951 L 741.9357 77.6173 L 742.7919 77.1054 L 740.6185 76.1823 L 739.942 75.5595 L 739.2055 75.4827 L 737.6009 74.53 L 736.637 74.2651 L 735.7987 74.9102 L 733.5116 74.7259 L 731.434 75.9324 L 729.2486 75.7632 L 728.602 75.402 L 728.3086 74.0809 L 729.0451 72.3894 L 728.2308 70.5893 L 729.6318 70.1875 L 730.506 69.4799 L 731.4699 69.6175 L 732.1884 68.6543 L 733.7331 67.9056 L 733.6912 67.3329 L 734.721 67.0505 L 735.1042 65.933 L 736.0382 65.5175 L 736.9663 64.0359 L 738.5409 63.0429 L 738.7984 62.3699 L 740.2413 61.5416 L 740.882 61.4087 L 741.2532 60.5279 L 741.81 60.3799 L 741.8938 59.5454 L 743.0793 58.5031 L 744.4444 57.6926 L 744.9833 57.6547 L 744.624 56.8524 L 746.8693 56.3871 L 747.3602 56.0657 L 749.2702 56.3342 L 750.3 55.8237 L 750.9766 56.6519 L 751.4795 56.4325 L 753.156 56.5535 L 754.2097 56.2661 L 755.1198 55.3967 L 756.916 55.4912 L 758.6403 55 L 758.8918 55.5441 L 760.3048 56.3228 L 761.0412 57.1588 L 761.7238 57.1097 L 762.3585 57.6471 L 762.3644 58.8024 L 762.077 59.6023 L 763.2027 60.2737 L 763.8972 60.2433 L 764.5498 61.4239 L 764.3642 61.8341 L 765.1785 62.4041 L 764.5678 63.8 L 763.1188 64.3671 L 762.3285 65.7462 L 762.0172 66.73 L 760.9395 67.2871 L 761.143 68.425 L 760.5443 69.1549 L 758.2811 70.5472 L 757.7183 71.623 L 756.0239 73.0642 L 754.9462 73.1831 L 754.3594 73.9312 L 752.0723 75.4635 L 753.1021 75.9785 L 754.0361 75.7017 L 755.042 76.1169 L 755.6108 77.1362 L 756.7843 77.4748 L 756.922 78.1409 L 758.5505 78.5415 L 759.0415 79.32 L 760.0055 79.2197 L 760.5263 79.6939 L 761.5562 79.6592 L 762.3585 80.3381 L 761.9394 81.1524 L 763.1188 82.458 L 763.0889 83.1462 L 764.2325 83.4208 L 765.7233 84.1249 L 766.9567 84.183 L 767.9267 83.6916 L 768.5314 82.4387 L 769.7468 81.5038 L 769.8486 80.5233 L 770.9023 80.1336 L 772.5189 77.7482 L 773.3152 78.9731 L 775.4407 78.8074 L 776.0993 80.4963 L 776.6142 80.504 L 777.6381 81.5965 L 778.1231 81.0598 L 779.0391 82.5006 L 778.9194 83.7496 L 780.6257 84.1288 L 781.1467 84.5739 L 783.0746 84.2914 L 783.7332 84.8566 L 784.7749 84.5623 L 785.3198 84.9534 L 784.8827 85.5073 L 784.9486 86.9689 L 784.302 87.6945 L 783.32 88.0555 L 782.0447 88.1604 L 782.3501 88.8478 L 781.9609 90.0683 L 782.4878 90.3017 L 782.7872 91.9676 L 783.1763 92.6377 L 784.0565 92.5169 L 784.1223 94.1624 L 783.6374 94.9664 L 784.0445 95.2983 L 784.1882 96.5564 L 785.0025 98.0233 L 784.5474 98.9003 L 785.0623 100.1112 L 785.9185 101.4566 L 786.0143 102.0651 L 786.7508 102.7957 L 786.2598 103.4873 L 787.116 104.0536 L 787.2417 105.4387 L 786.7149 106.3603 L 787.6608 107.255 L 787.6249 107.8821 L 789.0199 108.8647 L 788.9002 109.5637 L 789.2714 110.3974 L 790.0258 110.9905 L 790.9539 110.6623 L 792.9117 111.2436 L 794.5223 112.1339 L 795.8215 112.5337 L 796.7616 112.027 L 797.5279 112.1814 L 799.3181 111.6313 L 801.7969 111.4137 L 801.7909 111.0775 L 803.4374 110.7374 L 803.4075 110.0852 L 804.4553 108.5529 L 806.1856 109.5755 L 807.1795 109.4018 L 808.1135 110.69 L 808.9098 111.2476 L 810.3288 110.6386 L 811.9274 110.6939 L 812.3106 110.1247 L 813.0949 109.9548 L 814.4301 110.1801 L 815.4001 110.0338 L 816.0646 111.0379 L 816.6035 111.3069 L 818.8607 112.0389 L 819.3517 111.2317 L 819.2798 110.3856 L 819.6331 109.6625 L 820.597 109.0463 L 821.9562 109.1845 L 822.6028 109.5084 L 823.3811 110.4765 L 824.8061 110.3619 L 826.0036 109.6941 L 826.6742 108.7187 L 828.3506 109.0661 L 828.7757 108.2806 L 829.9672 107.1959 L 829.4523 106.4549 L 829.6798 105.7852 L 830.8174 105.5135 L 831.2485 104.9348 L 832.1406 104.923 L 832.6675 104.2659 L 832.398 103.0707 L 833.2063 101.3703 L 833.817 101.3507 L 833.8589 102.0023 L 834.8049 101.8963 L 837.146 102.0455 L 837.7028 102.7053 L 838.4392 102.3204 L 839.02 103.3458 L 839.954 104.0024 L 842.0137 105.9782 L 842.9417 107.4167 L 844.0493 108.5134 L 844.1212 109.0779 L 845.1031 110.1208 L 845.5641 110.2235 L 845.8874 111.1922 L 846.9891 112.3397 L 846.8574 113.2743 L 848.0968 113.2822 L 848.8033 113.6824 L 849.1565 115.6773 L 849.9828 115.7091 L 850.7611 116.5667 L 851.6652 116.2609 L 851.3778 117.2183 L 852.0604 117.9735 L 853.0543 118.3036 L 852.5693 119.2625 L 852.7489 120.0548 L 853.2878 120.4412 L 852.7848 121.5412 L 852.3118 121.5452 L 851.779 122.3948 L 851.7969 123.1012 L 851.0186 122.307 L 850.7432 123.5445 L 849.9409 123.5524 L 850.2222 124.2115 L 849.3541 124.6192 L 849.5816 124.9429 L 848.3901 125.4948 L 848.5578 126.2869 L 847.8393 125.8308 L 846.8694 126.5351 L 847.6178 126.7353 L 847.3603 127.1757 L 848.2524 127.7045 L 847.4681 128.4459 L 848.0249 129.9219 L 847.8992 130.5 L 848.3363 131.6609 L 846.7496 133.1728 L 846.4981 132.7182 L 844.7139 134.1589 L 844.2529 134.912 L 843.3967 134.6824 L 842.798 135.0691 L 843.0614 136.0889 L 842.2711 135.5729 L 841.7861 135.8672 L 842.2891 136.6818 L 841.9837 137.0328 L 842.1454 138.0299 L 840.8162 138.959 L 840.8102 139.7999 L 840.3312 139.9454 L 840.7803 140.8233 L 839.2056 142.2446 L 838.08 142.6173 L 838.9422 143.3794 L 837.6429 143.3226 L 836.9065 143.6835 L 836.4933 144.3894 L 837.146 144.6532 L 836.9304 145.1891 L 838.1518 145.5261 L 837.7028 145.912 L 837.0741 145.5505 L 836.4634 146.0948 L 837.0981 146.2208 L 837.3016 146.9117 L 836.17 147.5095 L 835.9545 148.3436 L 835.0923 148.2826 L 835.8288 149.2556 L 835.5653 149.7363 L 836.164 150.853 L 835.7988 151.7096 L 834.8409 151.8851 L 835.7749 152.726 L 835.8826 153.3999 L 835.4097 154.5321 L 835.8168 154.7283 L 835.709 156.3119 L 835.0923 156.8443 L 834.5654 156.3037 L 833.7931 156.7009 L 834.3499 157.758 L 834.6433 157.3932 L 835.4097 158.3852 L 835.8467 158.3319 L 836.0383 159.854 L 835.5593 159.8417 L 835.8886 161.345 L 836.6251 162.0479 L 836.4814 163.9118 L 836.9005 164.2866 L 836.4814 164.8633 L 836.5053 166.1206 L 835.6072 167.0529 L 835.8707 167.9198 L 835.703 169.5727 L 834.9965 169.676 L 834.4756 170.7515 L 833.5895 171.3144 L 831.9729 170.5984 L 831.9849 169.9242 L 830.7994 170.3047 L 829.2188 169.7132 L 828.2728 170.193 L 827.9974 171.2109 L 827.207 171.5918 L 827.6142 172.8056 L 827.1831 174.2278 L 826.297 175.3111 L 825.8599 176.9894 L 825.1893 176.9686 L 825.2492 177.9209 L 824.884 179.1611 L 823.9918 179.3693 L 823.9799 180.9484 L 823.1596 181.6656 L 823.3871 183.072 L 822.9082 184.9479 L 822.4351 185.9391 L 821.1838 187.1069 L 821.8125 187.7393 L 821.5131 188.1122 L 821.9502 189.4915 L 820.9802 190.0327 L 821.3454 190.7672 L 821.2137 192.0693 L 821.7047 192.3929 L 821.6508 193.1539 L 822.4471 194.1972 L 822.016 195.0055 L 822.4351 195.174 L 821.7765 196.8638 L 821.0581 197.8677 L 821.4413 198.3066 L 820.5611 198.9229 L 820.0522 199.717 L 819.0643 199.9832 L 819.3517 199.0707 L 820.2318 198.6992 L 820.3216 197.8803 L 818.9445 197.1547 L 819.3158 196.0587 L 818.8308 195.115 L 818.0045 194.5508 L 817.8129 193.7176 L 817.0466 192.8259 L 817.31 191.9223 L 816.7951 191.3761 L 817.2801 190.381 L 816.7113 189.7978 L 816.9508 188.4978 L 815.8072 187.5969 L 815.4659 187.9907 L 812.1669 190.3013 L 810.0235 192.3677 L 807.6704 194.8245 L 805.1857 196.9565 L 804.3355 198.2137 L 802.5513 200.2622 L 800.8629 201.8099 L 798.6236 202.648 L 795.7138 203.9822 L 795.0013 205.8735 L 794.181 207.232 L 793.0794 208.4345 L 791.2891 209.1063 L 789.3313 210.2252 L 786.7747 211.2982 L 784.8229 213.0882 L 781.2963 214.9232 L 780.2665 216.3501 L 779.4882 218.9726 L 777.674 220.3563 Z M 817.5375 141.9772 L 817.5735 141.1228 L 818.0764 140.0425 L 817.6633 139.0964 L 818.1901 138.5873 L 817.6453 138.4298 L 817.9866 137.2063 L 818.8068 137.1619 L 819.5552 136.5245 L 819.0703 134.7549 L 819.657 134.0179 L 819.4175 132.0748 L 818.5853 132.0507 L 816.9867 132.4608 L 815.9629 131.8095 L 814.2325 131.7693 L 813.4063 131.5363 L 812.1849 131.468 L 812.2447 132.2598 L 810.9874 132.304 L 810.9275 132.8509 L 810.1013 133.0802 L 810.5144 133.9455 L 810.5503 135.1699 L 809.8199 136.1453 L 809.1972 136.1978 L 808.7901 136.8714 L 807.9459 136.0567 L 807.1376 135.8067 L 806.8322 134.7589 L 805.8922 135.1014 L 806.0359 136.8512 L 805.8383 137.6584 L 807.7543 139.6058 L 807.5986 140.9205 L 809.4906 142.0096 L 810.5982 141.1147 L 811.7238 141.6775 L 812.586 141.0378 L 812.5681 140.5805 L 814.3642 141.1836 L 816.3041 140.799 L 816.376 141.9367 L 817.5375 141.9772 Z" fill="[object Object]" fill-opacity="1" stroke="rgba(30,144,255,1)" stroke-width="1" paint-order="fill" stroke-opacity="1" stroke-dasharray="" stroke-linecap="butt" stroke-miterlimit="10" style="filter: url(&quot;#zr2323-shadow-0&quot;);">
</path>
<path d="M 455.5267 418.733 L 457.7121 417.3316 L 458.7539 416.2402 L 459.2029 414.2908 L 460.1309 413.4326 L 461.8433 412.5988 L 461.496 410.8939 L 462.4959 409.3974 L 461.6218 408.8636 L 461.6996 407.5128 L 462.9869 407.9213 L 463.4778 407.2822 L 464.2023 405.4382 L 466.2559 405.5966 L 467.6989 404.5889 L 468.3755 403.7063 L 469.2616 403.9749 L 470.3932 402.9393 L 470.9859 401.8803 L 472.0397 402.4552 L 472.7103 402.1485 L 472.7522 400.9224 L 473.5305 400.865 L 473.3689 400.1134 L 473.9976 399.5727 L 475.2848 400.2714 L 476.0033 399.2283 L 477.2307 399.9316 L 478.3563 399.4101 L 479.0149 400.0273 L 479.6675 399.7593 L 482.4516 399.8215 L 482.5534 399.4196 L 483.6311 399.7976 L 483.8587 400.7165 L 485.2597 400.7692 L 486.1338 401.1331 L 488.0438 401.4444 L 489.0616 402.5415 L 488.9658 403.0495 L 490.6423 403.2652 L 491.6721 404.7712 L 491.5224 405.251 L 492.6361 405.827 L 493.2947 405.6782 L 494.1508 406.5425 L 495.0789 406.456 L 494.7735 407.3975 L 495.0429 408.1809 L 496.1147 407.7147 L 497.2343 407.9213 L 499.258 408.8059 L 499.725 408.402 L 501.3536 408.2097 L 501.4613 408.7434 L 502.9522 408.5751 L 503.2815 409.1137 L 504.3532 409.0367 L 504.4311 409.9555 L 505.0537 409.484 L 506.329 409.5369 L 506.6224 410.1383 L 508.0594 410.2153 L 508.209 410.764 L 508.7419 409.3156 L 508.4545 407.1957 L 508.8078 406.5665 L 508.1133 405.9711 L 508.2809 403.9029 L 509.6939 402.6996 L 510.6638 403.1454 L 514.388 402.8482 L 515.8908 402.5271 L 516.6332 401.0709 L 518.3755 399.0035 L 517.8546 397.9754 L 517.0343 397.2681 L 516.5554 395.6967 L 515.1723 395.4962 L 514.9807 394.8852 L 514.0467 394.6132 L 513.7533 392.8725 L 514.5796 392.5532 L 514.6694 391.9289 L 513.9329 390.9572 L 512.5439 388.0121 L 512.7235 387.1898 L 514.1245 386.843 L 514.1904 385.2663 L 513.436 384.8155 L 512.6876 383.7717 L 513.406 382.6764 L 513.4719 381.9656 L 511.8014 382.0983 L 509.0173 381.7666 L 508.5383 380.9141 L 508.8617 380.1661 L 508.4006 377.7584 L 507.9815 376.6527 L 506.796 375.2455 L 507.275 374.5895 L 506.2871 373.415 L 505.4609 371.7277 L 505.5926 371.2802 L 506.7182 370.814 L 507.4786 369.9855 L 509.8256 365.9898 L 510.3944 364.2768 L 510.8854 364.0657 L 510.2208 360.7902 L 509.2389 358.1378 L 508.8617 357.6751 L 508.7 356.3251 L 507.6522 355.7695 L 505.7543 356.0963 L 500.2459 355.4708 L 499.3658 355.7368 L 496.5158 357.2032 L 495.5459 356.666 L 493.6 356.7174 L 490.0376 355.9002 L 485.1818 356.0263 L 483.9305 355.4194 L 480.847 356.0823 L 479.464 356.1663 L 477.7396 356.9836 L 473.5425 356.6707 L 470.1836 356.7267 L 468.6808 355.5174 L 467.9444 355.4614 L 464.5855 356.736 L 463.9149 358.077 L 459.3466 359.3162 L 453.8502 360.0834 L 450.2698 361.4551 L 444.7136 364.0047 L 437.8402 367.2487 L 432.2181 369.5338 L 429.0688 371.2143 L 424.8357 373.7357 L 422.8958 375.0425 L 421.6984 375.0095 L 421.5427 376.9787 L 421.0278 380.7625 L 421.4709 384.7965 L 421.9917 386.9285 L 423.4227 390.1955 L 423.776 392.1195 L 423.4407 392.6246 L 424.71 394.1075 L 425.1112 396.198 L 427.3085 397.7747 L 428.4281 398.7835 L 430.0447 399.7737 L 431.4457 400.999 L 433.0383 401.6791 L 434.164 401.7749 L 436.4152 402.9488 L 439.9597 403.5433 L 440.7919 404.2435 L 441.3547 403.9125 L 441.9475 404.7808 L 442.5821 404.9103 L 442.6899 406.0767 L 443.7796 407.0228 L 444.1867 406.8355 L 447.5037 408.0415 L 447.8929 410.0228 L 447.5336 409.7341 L 445.3183 409.7871 L 444.7076 409.0175 L 443.3904 408.4693 L 443.3545 409.306 L 441.9056 409.1137 L 442.3187 410.5233 L 444.3723 413.799 L 446.5337 413.7459 L 447.2642 414.3825 L 448.3659 413.0518 L 450.0663 412.6904 L 451.5272 412.7482 L 454.425 413.1579 L 454.5568 413.5628 L 453.4311 415.2315 L 452.1858 416.1292 L 452.9042 417.95 L 454.3652 418.3366 L 455.5147 418.2545 L 455.5267 418.733 Z" fill="[object Object]" fill-opacity="1" stroke="dodgerblue" stroke-width="1" paint-order="fill" stroke-opacity="1" stroke-dasharray="" stroke-linecap="butt" stroke-miterlimit="10" style="filter: url(&quot;#zr2323-shadow-1&quot;);">
</path>
<path d="M 568.2857 416.2933 L 569.0162 416.2933 L 570.525 415.217 L 571.3093 415.0868 L 572.405 415.9071 L 574.9077 416.8631 L 575.9016 417.8196 L 577.4104 418.733 L 579.4401 417.6553 L 580.3561 414.3584 L 583.3977 413.153 L 584.9664 412.8494 L 587.7804 411.9581 L 589.1216 414.532 L 590.6064 414.5609 L 594.1749 413.7459 L 596.6716 411.1106 L 598.3899 410.2827 L 599.0425 409.0704 L 600.2041 410.6533 L 601.0124 410.4896 L 602.2278 409.0848 L 603.5271 409.1281 L 604.5748 408.7674 L 604.8802 407.4696 L 604.1557 406.5617 L 604.7485 405.1359 L 604.6167 403.8454 L 605.2215 403.1597 L 606.0776 402.9968 L 604.2156 400.4197 L 604.8143 399.6971 L 604.4371 399.4053 L 604.1497 398.0376 L 604.479 397.8225 L 603.1079 397.4067 L 602.7846 396.4034 L 600.5633 393.85 L 599.5694 392.9488 L 600.7609 392.5627 L 601.641 391.0049 L 602.4853 391.0239 L 603.2217 390.4383 L 603.6288 389.3437 L 603.1319 388.3021 L 602.7008 389.1391 L 602.2817 387.9408 L 601.21 387.0188 L 601.7728 386.7432 L 602.2278 384.9246 L 600.6232 384.3362 L 601.653 383.1458 L 601.8386 382.3731 L 603.9581 381.1272 L 605.3891 380.8999 L 608.0774 381.5677 L 607.8798 379.6739 L 608.0295 378.6047 L 608.6642 378.5385 L 607.7481 376.8416 L 608.2091 376.459 L 607.5745 375.3588 L 607.4966 373.8394 L 610.4723 370.122 L 610.5921 369.4068 L 612.023 369.7314 L 613.8432 368.894 L 612.9451 367.0842 L 613.6995 366.281 L 613.8731 365.0697 L 615.0107 364.441 L 616.2321 365.0369 L 617.2859 364.8069 L 618.9384 364.9336 L 620.0101 364.0047 L 619.6509 362.9451 L 620.052 362.6029 L 618.9743 362.1297 L 617.3038 362.6685 L 617.5254 362.0313 L 617.1063 361.2772 L 617.5134 360.8885 L 615.6993 360.3736 L 615.2083 359.9103 L 614.1785 361.6378 L 613.6157 362.0313 L 611.6937 362.6217 L 612.3583 363.3998 L 612.9331 363.4139 L 613.2145 364.9805 L 612.5679 365.403 L 611.101 365.1026 L 611.0771 364 L 609.3228 362.8466 L 608.2271 363.5686 L 607.9876 364.4081 L 606.0298 364.9008 L 605.3652 364.6568 L 605.2334 366.3279 L 604.6407 366.9198 L 605.4849 368.593 L 604.8562 368.3532 L 604.5808 369.0681 L 603.4312 368.7435 L 602.3595 369.4962 L 601.4914 368.5225 L 601.5512 366.7506 L 599.0485 366.342 L 597.9708 365.8302 L 597.2763 364.5489 L 595.9291 365.112 L 594.4383 364.4926 L 590.2891 364.1642 L 588.433 366.0462 L 587.7744 367.2721 L 585.6729 368.7953 L 586.1399 369.5103 L 585.2119 369.4021 L 584.3676 369.9902 L 583.4516 368.5225 L 581.847 368.184 L 581.3261 367.6293 L 579.5958 364.9008 L 578.1947 364.2955 L 577.147 364.1408 L 576.1531 361.1039 L 575.0574 360.3877 L 575.4226 359.405 L 574.0755 358.5492 L 570.0999 357.4274 L 567.1362 354.7988 L 565.5555 354.0199 L 565.6034 353.3625 L 562.4601 351.9879 L 562.4062 351.4849 L 560.5142 348.591 L 558.9276 345.5303 L 558.8557 344.8854 L 556.7362 340.8547 L 554.7843 339.8554 L 553.9701 339.0139 L 551.5752 335.5782 L 549.0126 335.4721 L 545.6118 332.8678 L 544.2706 330.01 L 542.5882 330.6263 L 541.5704 331.3992 L 537.4211 336.3995 L 536.3794 337.7709 L 535.6848 338.0388 L 534.667 339.5086 L 534.7089 339.9201 L 533.5114 342.2805 L 530.1585 344.9596 L 529.488 346.5515 L 527.4702 347.7359 L 529.4401 349.0094 L 531.9128 351.6525 L 533.6731 354.5516 L 535.0202 355.1208 L 535.5531 355.9049 L 535.4094 357.2452 L 535.8285 359.1992 L 536.8044 362.1016 L 536.9122 363.3342 L 539.5766 367.5118 L 541.0255 370.4609 L 541.5943 372.1564 L 542.4325 373.7074 L 543.6539 374.4432 L 544.4802 375.7506 L 546.1926 377.2574 L 547.4379 377.9192 L 548.3779 377.8908 L 550.2041 381.1035 L 550.3298 383.0083 L 550.0663 384.2413 L 549.1203 385.2616 L 549.8568 386.0735 L 549.9646 386.9475 L 552.3595 386.6815 L 553.2097 387.2801 L 555.0957 387.4179 L 556.2872 387.1661 L 557.5445 388.4543 L 558.5564 388.7872 L 558.2989 389.5959 L 558.8318 389.5531 L 559.4545 392.1862 L 560.4184 393.1347 L 562.5738 394.4462 L 562.2326 395.3816 L 562.7235 396.5992 L 563.8252 397.1821 L 564.4539 396.819 L 565.0705 399.0513 L 565.7471 399.8933 L 565.6214 400.9799 L 564.9927 402.3019 L 563.7952 402.9153 L 564.5616 404.1044 L 564.2503 405.1742 L 563.5198 404.9487 L 562.8373 405.587 L 563.6576 406.2399 L 563.903 407.2582 L 563.0229 407.3111 L 562.975 407.9598 L 564.1784 409.2868 L 564.6514 409.2579 L 565.6753 410.5618 L 566.5255 410.9854 L 566.3698 411.515 L 567.3397 412.647 L 566.747 413.5676 L 567.4535 413.4905 L 567.3757 414.2716 L 567.9205 414.8841 L 568.2857 416.2933 Z" fill="[object Object]" fill-opacity="1" stroke="dodgerblue" stroke-width="1" paint-order="fill" stroke-opacity="1" stroke-dasharray="" stroke-linecap="butt" stroke-miterlimit="10" style="filter: url(&quot;#zr2323-shadow-1&quot;);">
</path>
<path d="M 774.6325 305.8321 L 775.0516 304.3239 L 775.1114 301.5424 L 774.9378 299.6996 L 773.7343 299.6319 L 773.6505 298.3596 L 773.0698 297.4308 L 771.7406 296.944 L 771.1478 294.2786 L 771.4412 293.5005 L 772.3573 292.7813 L 772.1717 292.3499 L 771.1419 292.5566 L 771.3035 291.685 L 771.9681 292.0758 L 772.5129 291.6221 L 771.3933 291.4425 L 770.0402 287.6837 L 770.6509 287.6434 L 770.8066 286.5731 L 770.5551 285.0919 L 771.058 284.6805 L 771.4831 283.3798 L 771.2855 281.3526 L 771.9801 280.2196 L 773.0039 280.2821 L 773.7763 279.5599 L 773.9619 277.6445 L 772.0639 277.1104 L 772.0519 274.9313 L 772.7345 273.9673 L 772.3992 273.0172 L 769.4953 271.735 L 769.0643 271.2472 L 768.8727 270.0019 L 768.3158 268.8107 L 768.9325 268.7311 L 769.0822 268.0584 L 768.3937 266.1394 L 767.6452 265.649 L 766.2562 265.3928 L 765.1246 265.8081 L 765.1006 266.2985 L 763.0889 265.892 L 761.646 264.4921 L 761.9034 264.0022 L 762.592 264.2052 L 763.9211 263.3184 L 764.5558 261.5154 L 765.2264 261.0881 L 765.3102 259.9126 L 765.0587 258.716 L 764.0768 257.6829 L 765.8012 257.0063 L 766.1903 257.5818 L 767.4297 257.5203 L 769.8426 258.7864 L 770.7407 259.939 L 770.9083 260.912 L 773.1715 261.6079 L 774.4528 263.3184 L 775.6563 262.3351 L 776.0035 261.5198 L 776.74 261.63 L 776.5125 259.9346 L 778.2488 259.9478 L 779.2846 261.5683 L 779.4882 263.5566 L 780.506 262.5864 L 781.5119 263.7816 L 782.2842 263.9757 L 782.9189 265.9229 L 784.3798 265.7992 L 784.5714 264.9424 L 785.4276 264.1125 L 784.5953 262.2161 L 785.5892 261.6123 L 786.176 260.0755 L 785.4395 255.632 L 790.6725 254.8905 L 791.1754 254.2414 L 792.0555 254.0617 L 791.8579 252.9047 L 792.3729 252.8302 L 792.3908 251.8405 L 793.4266 250.8034 L 792.6363 249.3603 L 791.6903 248.2026 L 789.9659 245.6412 L 789.8761 241.7181 L 790.8221 241.6311 L 790.6725 240.6053 L 791.3371 240.4706 L 791.7681 240.9964 L 793.4865 240.7052 L 794.4564 241.405 L 795.5102 240.614 L 795.4743 239.3804 L 797.3184 238.9333 L 799.7133 238.6816 L 802.2519 238.5948 L 802.8147 237.506 L 802.7608 235.1836 L 801.743 234.7853 L 802.689 234.2401 L 802.1382 233.7642 L 802.2699 233.0377 L 801.6771 233.055 L 801.3838 234.8416 L 800.3779 234.8373 L 799.7492 234.3223 L 800.5455 232.182 L 800.6593 231.1929 L 799.833 231.1497 L 798.5817 231.845 L 796.6957 230.3339 L 795.9772 230.0405 L 796.0251 231.0029 L 797.1926 230.8345 L 798.1087 231.8148 L 798.1506 232.6184 L 797.486 234.517 L 796.8035 234.8156 L 796.1269 233.8421 L 794.5103 233.9026 L 793.5883 235.9241 L 793.271 237.1071 L 791.8699 237.3586 L 791.3251 237.0768 L 790.2773 237.8009 L 789.6546 236.6173 L 787.8045 235.3395 L 787.5231 232.9297 L 787.5591 231.1324 L 786.3975 231.7759 L 785.5293 231.7413 L 785.0623 230.7525 L 785.1342 229.9542 L 786.5352 228.7424 L 786.661 228.0356 L 786.0383 228.2209 L 783.4877 227.3163 L 783.0925 227.4325 L 781.6675 226.4466 L 781.446 225.8442 L 780.5359 225.2678 L 779.572 223.3253 L 778.596 222.3421 L 778.5422 221.7886 L 777.7279 220.9136 L 777.674 220.3563 L 775.2132 221.7456 L 774.1175 223.0333 L 773.0159 223.6732 L 771.6148 224.1329 L 770.6569 224.9926 L 770.0162 224.4724 L 767.5016 223.3639 L 766.0347 222.9474 L 764.7713 222.2906 L 764.0409 222.2734 L 762.2447 223.1191 L 761.5562 224.3779 L 761.7298 225.1259 L 760.4784 225.328 L 759.73 224.6229 L 757.3291 224.9668 L 756.1736 226.1023 L 753.5811 226.9029 L 751.8867 226.1325 L 750.3479 225.8313 L 749.4378 226.0034 L 747.8153 227.3766 L 746.9052 227.0665 L 745.7377 225.8958 L 744.63 226.012 L 743.6122 225.1388 L 742.8698 224.004 L 740.5587 223.351 L 740.3731 222.0889 L 740.6964 221.5354 L 742.1513 220.8064 L 742.8338 219.555 L 742.6063 219.0539 L 741.0556 217.8682 L 739.5648 216.021 L 740.0737 215.3075 L 739.8043 214.889 L 738.6547 215.0086 L 737.3854 214.7011 L 735.4096 213.6342 L 734.2899 213.2417 L 733.0685 211.8562 L 732.4219 212.6192 L 731.8351 212.4913 L 731.3083 213.1266 L 730.0449 213.391 L 729.1349 214.206 L 727.8536 214.7097 L 726.734 213.9585 L 725.6682 214.2913 L 724.8479 215.1495 L 724.5606 215.5083 L 724.1894 215.9825 L 723.7403 216.2432 L 723.6685 216.3885 L 723.6804 216.4868 L 723.7104 217.0127 L 722.8242 217.9196 L 722.6865 217.9838 L 720.7826 218.6515 L 720.573 218.7414 L 720.3814 218.9212 L 719.633 220.0649 L 716.8788 220.6949 L 718.4894 221.7156 L 718.5732 223.1363 L 719.7468 223.1707 L 721.6986 224.6315 L 722.6686 226.4165 L 723.5726 228.5183 L 723.3332 229.6738 L 724.369 230.9986 L 724.6743 232.3246 L 726.1053 232.6919 L 725.9317 234.0886 L 726.2609 235.8288 L 725.8598 236.7084 L 726.237 237.9657 L 725.752 239.1547 L 725.7221 239.6149 L 726.5903 240.966 L 725.6622 242.8143 L 726.5244 244.0202 L 725.7101 245.8069 L 727.2608 246.0859 L 726.7878 246.7272 L 725.5305 246.5047 L 724.2193 247.2814 L 724.9737 248.1065 L 724.2253 248.7966 L 724.1774 251.1534 L 725.285 251.8493 L 724.6444 252.5499 L 725.0814 253.6671 L 724.5845 254.6668 L 724.1414 257.5291 L 723.6026 257.8939 L 724.0576 258.3554 L 723.6026 262.5996 L 722.4291 264.2008 L 721.3753 264.9292 L 721.5489 265.8567 L 720.9861 266.7803 L 719.2199 266.767 L 718.5792 267.1605 L 720.4473 268.0496 L 723.2553 269.6919 L 723.8481 269.4527 L 725.0156 270.1348 L 725.9017 269.8557 L 725.6502 271.3049 L 727.5542 271.9523 L 728.2248 271.5088 L 728.1829 270.7419 L 727.4704 270.0285 L 727.4764 269.2889 L 728.147 268.8373 L 731.0149 268.8417 L 733.1583 270.0241 L 734.3678 270.0728 L 734.727 270.9192 L 736.2837 271.4911 L 736.5951 272.4447 L 737.8823 272.4758 L 739.1696 273.7586 L 739.0678 275.398 L 739.6187 275.5269 L 741.2592 277.0481 L 742.9775 278.0897 L 744.7079 278.2678 L 744.8815 279.3058 L 745.8454 279.2613 L 747.6297 280.184 L 747.7374 280.9332 L 747.1986 281.9239 L 747.7554 281.9998 L 747.8332 283.2502 L 748.9888 285.32 L 753.2697 287.097 L 756.6166 289.3781 L 757.0058 290.2933 L 756.7723 291.0473 L 759.281 292.997 L 759.6582 294.4541 L 760.6401 294.6835 L 760.4246 295.2146 L 761.7837 297.3361 L 762.7476 298.1251 L 764.0409 299.6861 L 764.4241 300.5575 L 765.4778 301.5288 L 766.5795 301.7864 L 767.6512 303.4053 L 768.6631 303.7718 L 769.4055 304.5005 L 772.4052 305.8411 L 773.6984 305.6101 L 774.6325 305.8321 Z" fill="[object Object]" fill-opacity="1" stroke="dodgerblue" stroke-width="1" paint-order="fill" stroke-opacity="1" stroke-dasharray="" stroke-linecap="butt" stroke-miterlimit="10" style="filter: url(&quot;#zr2323-shadow-1&quot;);">
</path>
<path d="M 620.0101 364.0047 L 621.028 365.0979 L 621.1238 366.6191 L 621.974 367.7045 L 622.2853 368.6589 L 622.3811 371.5628 L 622.7463 372.3826 L 622.3991 372.9624 L 621.2555 373.5753 L 621.8542 374.5517 L 621.9919 376.7141 L 621.8422 378.1744 L 621.1178 379.1534 L 624.5246 378.7608 L 625.1652 379.1203 L 625.8238 378.5527 L 628.0451 379.125 L 628.2367 379.972 L 629.3443 379.7023 L 629.4821 378.8223 L 630.0209 378.548 L 630.446 379.3852 L 631.8291 379.1155 L 631.1645 378.1981 L 631.5117 377.3 L 630.6136 376.6574 L 631.1944 376.0812 L 632.9128 375.6279 L 634.7748 374.547 L 635.9004 373.5093 L 637.553 372.8586 L 638.2594 371.7889 L 639.0138 371.7795 L 641.3489 369.8538 L 641.6782 370.1314 L 642.9894 369.6514 L 643.6181 371.2944 L 644.618 372.8681 L 645.067 374.2922 L 646.7674 374.3064 L 647.3901 373.4904 L 646.9351 372.7879 L 647.2704 371.9538 L 648.7432 371.9491 L 649.5575 369.7502 L 650.8987 369.0163 L 651.4974 367.9771 L 652.4614 367.8596 L 653.3056 368.4943 L 652.7308 369.4491 L 653.575 369.8208 L 654.7186 368.8 L 655.3712 368.9599 L 655.7783 369.8208 L 656.4549 370.1032 L 657.9936 370.0561 L 658.2331 369.6844 L 659.7898 369.4867 L 660.5981 368.4003 L 661.586 368.6354 L 661.9572 367.9865 L 662.9391 367.6246 L 663.1727 365.5766 L 662.3344 363.8171 L 661.8135 363.8359 L 661.0711 362.6029 L 663.4361 362.8654 L 663.7474 361.783 L 663.0529 358.3762 L 663.2325 357.4228 L 663.5618 356.0356 L 662.8853 354.8548 L 663.0709 353.3671 L 661.7237 353.0269 L 661.3226 352.0298 L 659.1851 351.6898 L 658.5924 352.7799 L 657.9397 352.1882 L 657.8859 351.1543 L 656.9039 351.564 L 657.5506 349.5768 L 658.6822 347.1041 L 658.5205 345.5721 L 658.6881 343.5639 L 657.9757 341.8267 L 657.1494 341.1786 L 655.0958 340.0913 L 655.1616 339.1526 L 653.7546 338.3576 L 653.4073 337.6323 L 652.1081 336.178 L 652.3895 333.7892 L 653.2996 333.4206 L 653.7666 331.436 L 655.8262 330.1526 L 657.2692 328.9161 L 657.6045 326.5606 L 658.8318 326.2348 L 659.9455 326.4551 L 661.0891 327.1434 L 661.9333 326.5101 L 661.3884 324.9004 L 661.574 323.5853 L 662.083 323.535 L 662.5081 322.3537 L 664.8611 321.9098 L 666.5615 319.7058 L 665.4598 318.8972 L 665.1545 317.304 L 665.7173 317.0211 L 665.4299 315.3112 L 666.0945 314.4729 L 665.8909 313.7215 L 664.8371 313.2162 L 664.6395 312.206 L 665.6694 311.3011 L 667.9385 307.9358 L 668.8726 307.5684 L 669.7108 306.8111 L 674.806 306.3985 L 676.2669 306.6297 L 676.8776 307.7135 L 678.584 308.789 L 678.3086 309.4019 L 679.6557 310.2422 L 678.7756 311.7103 L 679.9311 312.4198 L 681.7992 312.3471 L 682.6913 311.0647 L 683.4158 310.8465 L 683.6253 310.0605 L 684.5833 309.3883 L 687.4752 310.0559 L 688.5109 309.2793 L 689.1097 307.1602 L 689.894 307.0559 L 690.5347 305.7958 L 691.2292 306.394 L 691.3489 305.1299 L 690.852 304.3783 L 691.2532 303.8849 L 693.8456 304.0659 L 694.5042 304.3964 L 695.3904 303.4324 L 696.067 303.3148 L 696.1568 302.1525 L 697.5877 301.7683 L 697.6895 300.9821 L 698.7852 300.0834 L 699.5516 300.6569 L 701.695 299.957 L 702.3596 300.3679 L 703.5691 299.0227 L 704.1977 299.0363 L 706.1855 297.9177 L 706.886 294.8725 L 705.3892 293.0824 L 706.2454 292.6734 L 706.892 293.1723 L 708.2272 293.2667 L 709.9396 292.6824 L 709.4725 291.8422 L 710.4604 291.8871 L 710.6401 291.4335 L 709.9575 290.0779 L 708.4846 289.2212 L 708.2631 288.7997 L 708.5505 287.0029 L 709.1073 287.4598 L 709.8857 287.3433 L 711.5142 287.7644 L 711.6339 287.0522 L 710.4724 286.2194 L 710.0413 285.4498 L 710.4006 284.8325 L 711.1969 285.3469 L 711.628 284.6357 L 710.9454 284.3764 L 710.1192 283.2145 L 710.1611 282.5088 L 711.3346 281.0448 L 712.8554 281.9462 L 712.9512 282.8705 L 713.957 283.1698 L 714.5318 282.4954 L 714.3582 280.6968 L 713.2386 279.9878 L 713.8612 278.3035 L 713.5379 278.4772 L 712.0052 276.8879 L 713.3583 274.6247 L 713.1727 272.3427 L 715.0886 271.1142 L 717.1483 270.0728 L 718.4535 268.2531 L 718.5792 267.1605 L 719.2199 266.767 L 720.9861 266.7803 L 721.5489 265.8567 L 721.3753 264.9292 L 722.4291 264.2008 L 723.6026 262.5996 L 724.0576 258.3554 L 723.6026 257.8939 L 724.1414 257.5291 L 724.5845 254.6668 L 725.0814 253.6671 L 724.6444 252.5499 L 725.285 251.8493 L 724.1774 251.1534 L 724.2253 248.7966 L 724.9737 248.1065 L 724.2193 247.2814 L 725.5305 246.5047 L 726.7878 246.7272 L 727.2608 246.0859 L 725.7101 245.8069 L 726.5244 244.0202 L 725.6622 242.8143 L 726.5903 240.966 L 725.7221 239.6149 L 725.752 239.1547 L 723.7163 239.1937 L 723.0997 240.3663 L 722.1896 240.6574 L 720.9023 241.505 L 720.4712 240.375 L 719.2738 240.5792 L 718.4296 240.1491 L 717.0525 240.2751 L 715.8131 240.0145 L 714.6156 240.9921 L 714.2803 240.5488 L 713.3583 240.7835 L 712.3105 239.7321 L 710.0234 239.4716 L 709.4186 239.8972 L 707.7123 238.0741 L 707.1016 237.0594 L 705.8502 237.7098 L 705.0539 237.3976 L 705.0958 236.249 L 703.6589 236.3357 L 702.4794 237.8356 L 702.4734 238.6772 L 700.1742 238.3735 L 699.3839 237.7271 L 698.2882 238.5123 L 695.4023 238.1956 L 694.6479 237.5407 L 692.7081 237.2285 L 691.0975 238.0568 L 690.1455 238.7944 L 688.7265 238.9203 L 687.1159 240.2143 L 686.0083 240.2099 L 685.7867 240.6705 L 684.3797 240.8617 L 683.4277 241.7529 L 683.4756 242.4662 L 682.2842 242.9927 L 681.386 242.8056 L 680.015 243.3801 L 678.7157 242.2356 L 678.4882 241.3137 L 677.7817 240.9834 L 675.7041 241.066 L 674.1354 241.5789 L 674.7102 243.0667 L 673.5606 244.861 L 673.2194 246.1514 L 673.1415 247.7048 L 670.567 247.5171 L 667.4536 247.7878 L 661.8435 247.1461 L 661.568 247.8227 L 660.167 248.6001 L 658.6702 248.6743 L 656.8441 249.5789 L 656.5986 250.5015 L 655.8262 251.2278 L 653.8265 253.8512 L 653.2996 253.9521 L 650.3478 258.5709 L 649.7551 261.0749 L 650.7011 262.1015 L 650.6652 263.8654 L 650.1263 263.8434 L 649.342 264.6333 L 649.2222 265.3222 L 648.3301 266.2543 L 647.1147 266.5018 L 645.4562 266.3516 L 645.2766 267.0146 L 643.4085 267.793 L 641.8997 269.4483 L 638.4989 272.5823 L 634.9904 273.4256 L 631.5596 274.4381 L 627.4823 274.3271 L 623.4708 274.8602 L 622.3631 274.6114 L 618.7229 273.1681 L 614.7054 274.567 L 614.4719 276.2695 L 614.0527 277.4397 L 612.8134 279.3816 L 611.7776 280.3133 L 610.4843 281.9775 L 609.7838 282.3078 L 607.2452 284.2602 L 605.7124 286.4656 L 604.6407 287.1731 L 601.3716 287.6165 L 600.4316 289.0508 L 599.1264 289.4319 L 597.3302 291.1237 L 595.6478 292.3049 L 593.7737 291.9186 L 593.0193 291.42 L 585.2478 290.8813 L 583.3618 290.1766 L 581.2902 289.6876 L 579.482 289.6742 L 576.6141 288.6069 L 574.285 287.191 L 573.0576 285.244 L 570.9501 283.2993 L 570.0759 283.4915 L 564.2144 283.2547 L 563.3342 282.6204 L 561.9152 282.7678 L 559.8616 283.8311 L 556.9817 286.121 L 555.4849 289.136 L 554.0838 291.3976 L 552.7606 295.0256 L 552.9522 296.9801 L 552.138 297.6967 L 551.8027 298.8783 L 551.0542 299.3927 L 549.9945 302.0034 L 549.761 303.0298 L 550.0244 304.0705 L 551.641 304.7676 L 552.2098 305.6554 L 552.3655 307.1874 L 552.7307 308.1627 L 554.8801 311.2056 L 555.6944 311.9559 L 557.1613 312.6018 L 559.173 314.5458 L 561.0291 317.7786 L 561.2506 319.8429 L 560.8435 321.37 L 559.6161 321.8961 L 557.5984 321.9556 L 554.485 325.4964 L 552.8385 326.9736 L 550.6052 326.8589 L 549.4377 327.4556 L 548.4797 328.4705 L 544.9472 329.5733 L 544.2706 330.01 L 545.6118 332.8678 L 549.0126 335.4721 L 551.5752 335.5782 L 553.9701 339.0139 L 554.7843 339.8554 L 556.7362 340.8547 L 558.8557 344.8854 L 558.9276 345.5303 L 560.5142 348.591 L 562.4062 351.4849 L 562.4601 351.9879 L 565.6034 353.3625 L 565.5555 354.0199 L 567.1362 354.7988 L 570.0999 357.4274 L 574.0755 358.5492 L 575.4226 359.405 L 575.0574 360.3877 L 576.1531 361.1039 L 577.147 364.1408 L 578.1947 364.2955 L 579.5958 364.9008 L 581.3261 367.6293 L 581.847 368.184 L 583.4516 368.5225 L 584.3676 369.9902 L 585.2119 369.4021 L 586.1399 369.5103 L 585.6729 368.7953 L 587.7744 367.2721 L 588.433 366.0462 L 590.2891 364.1642 L 594.4383 364.4926 L 595.9291 365.112 L 597.2763 364.5489 L 597.9708 365.8302 L 599.0485 366.342 L 601.5512 366.7506 L 601.4914 368.5225 L 602.3595 369.4962 L 603.4312 368.7435 L 604.5808 369.0681 L 604.8562 368.3532 L 605.4849 368.593 L 604.6407 366.9198 L 605.2334 366.3279 L 605.3652 364.6568 L 606.0298 364.9008 L 607.9876 364.4081 L 608.2271 363.5686 L 609.3228 362.8466 L 611.0771 364 L 611.101 365.1026 L 612.5679 365.403 L 613.2145 364.9805 L 612.9331 363.4139 L 612.3583 363.3998 L 611.6937 362.6217 L 613.6157 362.0313 L 614.1785 361.6378 L 615.2083 359.9103 L 615.6993 360.3736 L 617.5134 360.8885 L 617.1063 361.2772 L 617.5254 362.0313 L 617.3038 362.6685 L 618.9743 362.1297 L 620.052 362.6029 L 619.6509 362.9451 L 620.0101 364.0047 Z" fill="[object Object]" fill-opacity="1" stroke="dodgerblue" stroke-width="1" paint-order="fill" stroke-opacity="1" stroke-dasharray="" stroke-linecap="butt" stroke-miterlimit="10" style="filter: url(&quot;#zr2323-shadow-1&quot;);">
</path>
<path d="M 421.6984 375.0095 L 421.2374 375.3729 L 417.0522 379.6455 L 415.262 377.6875 L 410.4123 377.9333 L 406.9995 377.4748 L 407.1193 371.5911 L 398.1203 373.4197 L 393.4203 373.5894 L 384.0921 371.3838 L 379.7213 369.1621 L 375.8775 367.3567 L 369.4591 363.9156 L 365.9146 363.653 L 364.0106 364.1548 L 356.6522 361.9563 L 356.1672 361.7221 L 354.3351 359.115 L 350.641 354.2204 L 346.0427 353.6282 L 337.2054 351.1776 L 331.1523 349.5954 L 325.2248 349.2745 L 320.0219 349.0745 L 318.9262 350.5585 L 312.6395 350.2421 L 303.0778 352.4444 L 291.7917 351.3731 L 283.1699 350.5073 L 275.8954 350.0885 L 268.3633 348.6328 L 256.9874 346.5329 L 254.7122 346.1708 L 258.8255 355.5128 L 261.5079 361.3989 L 268.6807 377.6214 L 263.8549 382.5722 L 264.1722 383.5868 L 271.2672 393.0489 L 274.7997 395.7062 L 275.6798 396.0834 L 277.0329 397.4353 L 278.7513 397.9897 L 278.9788 407.6762 L 284.8584 404.6512 L 283.6549 402.7475 L 285.6966 402.0288 L 286.0977 404.1284 L 286.6725 405.0975 L 288.4268 406.5185 L 288.5705 405.1646 L 288.2352 403.8933 L 292.2527 401.7509 L 293.4262 404.2147 L 294.6776 404.6944 L 295.1685 403.62 L 296.1504 402.7332 L 296.1864 399.6684 L 304.2872 399.989 L 306.5085 397.6074 L 312.9868 398.2479 L 314.4596 398.2957 L 315.5194 399.19 L 318.1957 403.5769 L 318.3035 406.2879 L 316.7947 408.4212 L 316.7947 415.7093 L 313.3161 417.9355 L 312.3641 419.2068 L 311.7953 421.5825 L 310.6996 422.6237 L 309.8255 423.0403 L 308.1251 423.1857 L 307.3527 424.1454 L 303.431 426.4642 L 302.0839 426.1875 L 301.7007 426.5273 L 302.6706 426.7992 L 306.4965 426.4691 L 309.5919 427.241 L 311.2983 429.2914 L 314.1243 430.0839 L 315.9265 431.6019 L 318.4592 432.0741 L 319.7883 434.232 L 319.5129 435.1875 L 320.0398 436.934 L 322.4587 437.5833 L 323.6502 437.7005 L 323.6202 439.9332 L 326.069 440.295 L 327.9431 439.8207 L 330.7212 439.7865 L 330.7391 445.465 L 331.1822 448.0404 L 330.4577 448.9243 L 330.5775 450.2753 L 331.4157 450.929 L 331.9606 450.1672 L 333.3616 451.0863 L 333.3556 452.4586 L 336.4211 451.6813 L 338.7322 450.4227 L 338.1095 452.5619 L 338.9178 453.556 L 339.0076 454.8265 L 340.9415 455.2256 L 341.0673 455.9056 L 340.3368 456.4675 L 340.8577 457.148 L 342.5341 457.5081 L 345.5458 458.865 L 346.4618 460.5193 L 348.0604 459.5315 L 350.0901 460.3711 L 352.0959 458.3419 L 353.4969 456.2753 L 356.263 453.9893 L 355.6583 453.6299 L 353.7783 451.3814 L 353.1796 450.9782 L 351.1978 448.4136 L 352.5868 447.9275 L 354.88 447.5202 L 355.9457 447.0295 L 360.6458 445.6758 L 362.0049 444.6072 L 364.1064 443.9458 L 366.7947 446.0043 L 374.3268 448.0454 L 375.6979 448.2024 L 378.1826 445.6709 L 379.3202 445.0434 L 382.6012 441.8112 L 384.3076 441.229 L 387.7563 440.3145 L 390.5284 439.117 L 393.0072 438.2572 L 395.2225 438.3695 L 398.0066 439.4004 L 397.6593 441.278 L 397.1264 442.7705 L 399.8147 446.794 L 400.4314 448.6836 L 400.0962 449.8281 L 400.2039 451.3224 L 399.6172 452.6406 L 397.0606 453.8957 L 396.378 454.8856 L 393.2347 460.8158 L 384.0502 467.4279 L 385.086 468.9206 L 385.9421 470.8564 L 386.505 474.2858 L 383.0623 476.1571 L 383.0503 479.012 L 383.4095 480.0793 L 383.7508 482.4304 L 388.6005 484.2642 L 389.5764 484.7491 L 392.8455 488.3524 L 393.4742 489.5048 L 394.7615 490.377 L 397.8569 493.2721 L 399.9405 495 L 401.0661 494.8593 L 402.8204 493.8496 L 404.5807 493.4026 L 404.8321 492.0975 L 409.0592 491.8014 L 412.8372 491.3299 L 414.0885 490.5826 L 417.4354 490.1865 L 419.1538 488.7281 L 421.4529 487.5361 L 423.3748 486.8453 L 425.2189 486.625 L 426.5361 487.0405 L 429.2603 486.9203 L 429.6196 486.2797 L 429.7393 484.7541 L 430.8889 484.9141 L 432.6133 484.1442 L 433.6071 482.0558 L 433.4215 480.2689 L 434.2538 478.3989 L 433.0563 476.3413 L 432.7629 475.256 L 432.9126 473.4553 L 433.3677 472.6201 L 434.3076 471.9542 L 434.7926 470.4045 L 433.8766 468.4444 L 434.164 467.8344 L 434.1879 465.4707 L 434.7268 464.0745 L 434.601 462.8129 L 434.9842 462.2689 L 434.5232 460.8948 L 435.3554 459.5266 L 435.6189 458.4159 L 435.4692 456.8078 L 436.2416 456.2408 L 437.6306 454.4226 L 437.0139 453.4428 L 437.9599 452.3454 L 438.8281 451.8633 L 439.4208 450.5554 L 439.1873 450.2605 L 439.6064 448.5756 L 440.5943 446.7646 L 442.7677 447.3631 L 443.6898 446.3574 L 443.3665 443.7548 L 445.9171 442.937 L 448.0605 443.5344 L 448.4497 442.4768 L 449.0843 442.095 L 450.0543 440.6274 L 451.6709 441.1654 L 453.1318 440.4563 L 453.1677 439.0779 L 451.4254 438.2962 L 450.4135 437.1976 L 450.2339 436.0459 L 450.8207 435.1339 L 453.5149 433.4864 L 453.4072 432.9019 L 454.0239 431.9426 L 453.3114 431.3439 L 453.4491 429.8845 L 453.1617 429.199 L 453.1018 427.2847 L 452.4911 425.7071 L 452.6767 422.0667 L 454.6226 420.3725 L 454.9579 419.289 L 455.5267 418.733 L 455.5147 418.2545 L 454.3652 418.3366 L 452.9042 417.95 L 452.1858 416.1292 L 453.4311 415.2315 L 454.5568 413.5628 L 454.425 413.1579 L 451.5272 412.7482 L 450.0663 412.6904 L 448.3659 413.0518 L 447.2642 414.3825 L 446.5337 413.7459 L 444.3723 413.799 L 442.3187 410.5233 L 441.9056 409.1137 L 443.3545 409.306 L 443.3904 408.4693 L 444.7076 409.0175 L 445.3183 409.7871 L 447.5336 409.7341 L 447.8929 410.0228 L 447.5037 408.0415 L 444.1867 406.8355 L 443.7796 407.0228 L 442.6899 406.0767 L 442.5821 404.9103 L 441.9475 404.7808 L 441.3547 403.9125 L 440.7919 404.2435 L 439.9597 403.5433 L 436.4152 402.9488 L 434.164 401.7749 L 433.0383 401.6791 L 431.4457 400.999 L 430.0447 399.7737 L 428.4281 398.7835 L 427.3085 397.7747 L 425.1112 396.198 L 424.71 394.1075 L 423.4407 392.6246 L 423.776 392.1195 L 423.4227 390.1955 L 421.9917 386.9285 L 421.4709 384.7965 L 421.0278 380.7625 L 421.5427 376.9787 L 421.6984 375.0095 Z" fill="[object Object]" fill-opacity="1" stroke="dodgerblue" stroke-width="1" paint-order="fill" stroke-opacity="1" stroke-dasharray="" stroke-linecap="butt" stroke-miterlimit="10" style="filter: url(&quot;#zr2323-shadow-1&quot;);">
</path>
<text xml:space="preserve" fill="#bdbdd9" fill-opacity="1" stroke="none" transform="matrix(1,0,0,1,549.737,409.9073)" dominant-baseline="central" text-anchor="middle" x="0" y="0" style="font: 13 13px sans-serif;"></text>
<text xml:space="preserve" fill="#bdbdd9" fill-opacity="1" stroke="none" transform="matrix(1,0,0,1,527.8953,382.1474)" dominant-baseline="central" text-anchor="middle" x="0" y="0" style="font: 13 13px sans-serif;"></text>
<text xml:space="preserve" fill="#bdbdd9" fill-opacity="1" stroke="none" transform="matrix(1,0,0,1,455.6734,437.8535)" dominant-baseline="central" text-anchor="middle" x="0" y="0" style="font: 13 13px sans-serif;"></text>
<text xml:space="preserve" fill="#bdbdd9" fill-opacity="1" stroke="none" transform="matrix(1,0,0,1,700.0425,333.1221)" dominant-baseline="central" text-anchor="middle" x="0" y="0" style="font: 13 13px sans-serif;"></text>
<text xml:space="preserve" fill="#bdbdd9" fill-opacity="1" stroke="none" transform="matrix(1,0,0,1,758.1554,314.2985)" dominant-baseline="central" text-anchor="middle" x="0" y="0" style="font: 13 13px sans-serif;"></text>
<text xml:space="preserve" fill="#bdbdd9" fill-opacity="1" stroke="none" transform="matrix(1,0,0,1,498.9437,444.141)" dominant-baseline="central" text-anchor="middle" x="0" y="0" style="font: 13 13px sans-serif;"></text>
<text xml:space="preserve" fill="rgba(189,189,217,1)" fill-opacity="1" stroke="none" transform="matrix(1,0,0,1,744.1301,141.1883)" dominant-baseline="central" text-anchor="middle" x="0" y="0" style="font: 13 13px sans-serif;"></text>
<text xml:space="preserve" fill="#bdbdd9" fill-opacity="1" stroke="none" transform="matrix(1,0,0,1,469.7016,387.0762)" dominant-baseline="central" text-anchor="middle" x="0" y="0" style="font: 13 13px sans-serif;"></text>
<text xml:space="preserve" fill="#bdbdd9" fill-opacity="1" stroke="none" transform="matrix(1,0,0,1,573.7611,374.3715)" dominant-baseline="central" text-anchor="middle" x="0" y="0" style="font: 13 13px sans-serif;"></text>
<text xml:space="preserve" fill="#bdbdd9" fill-opacity="1" stroke="none" transform="matrix(1,0,0,1,759.8468,258.8487)" dominant-baseline="central" text-anchor="middle" x="0" y="0" style="font: 13 13px sans-serif;"></text>
<text xml:space="preserve" fill="#bdbdd9" fill-opacity="1" stroke="none" transform="matrix(1,0,0,1,635.7657,308.1105)" dominant-baseline="central" text-anchor="middle" x="0" y="0" style="font: 13 13px sans-serif;"></text>
<text xml:space="preserve" fill="#bdbdd9" fill-opacity="1" stroke="none" transform="matrix(1,0,0,1,355.1195,420.5854)" dominant-baseline="central" text-anchor="middle" x="0" y="0" style="font: 13 13px sans-serif;"></text>
<defs>
<filter id="zr2323-shadow-0" x="-100%" y="-100%" width="300%" height="300%">
<feDropShadow dx="0" dy="1" flood-color="rgba(0,0,0,1)" stdDeviation="0 0">
</feDropShadow>
</filter>
<filter id="zr2323-shadow-1" x="-100%" y="-100%" width="300%" height="300%">
<feDropShadow dx="0" dy="1" flood-color="#000000" stdDeviation="0 0">
</feDropShadow>
</filter>
</defs>
</g>
</svg>