<svg xmlns="http://www.w3.org/2000/svg" xmlns:xlink="http://www.w3.org/1999/xlink" version="1.1" baseProfile="full" width="1108" height="550" style="user-select: none; position: absolute; left: 0px; top: 0px;">
<g>
<rect width="1108" height="550" x="0" y="0" id="0" style="fill: transparent;">
</rect>
</g>
<g>
<path d="M -5 -5 L 91 -5 L 91 67 L -5 67 L -5 -5" fill="rgba(0,0,0,0)" fill-opacity="1" stroke="#ccc" stroke-width="0" paint-order="fill" stroke-opacity="1" stroke-dasharray="" stroke-linecap="butt" stroke-miterlimit="10" transform="matrix(1,0,0,1,35,443)">
</path>
<path d="M 3.5 0 L 16.5 0 A 3.5 3.5 0 0 1 20 3.5 L 20 10.5 A 3.5 3.5 0 0 1 16.5 14 L 3.5 14 A 3.5 3.5 0 0 1 0 10.5 L 0 3.5 A 3.5 3.5 0 0 1 3.5 0" fill="red" fill-opacity="1" stroke="none" transform="matrix(1,0,0,1,35,443)">
</path>
<text xml:space="preserve" fill="#333" fill-opacity="1" stroke="none" transform="matrix(1,0,0,1,35,443)" dominant-baseline="central" text-anchor="start" x="30" y="7" style="font: 14px sans-serif;">超大城市</text>
<path d="M 3.5 0 L 16.5 0 A 3.5 3.5 0 0 1 20 3.5 L 20 10.5 A 3.5 3.5 0 0 1 16.5 14 L 3.5 14 A 3.5 3.5 0 0 1 0 10.5 L 0 3.5 A 3.5 3.5 0 0 1 3.5 0" fill="blue" fill-opacity="1" stroke="none" transform="matrix(1,0,0,1,35,467)">
</path>
<text xml:space="preserve" fill="#333" fill-opacity="1" stroke="none" transform="matrix(1,0,0,1,35,467)" dominant-baseline="central" text-anchor="start" x="30" y="7" style="font: 14px sans-serif;">大城市</text>
<path d="M 3.5 0 L 16.5 0 A 3.5 3.5 0 0 1 20 3.5 L 20 10.5 A 3.5 3.5 0 0 1 16.5 14 L 3.5 14 A 3.5 3.5 0 0 1 0 10.5 L 0 3.5 A 3.5 3.5 0 0 1 3.5 0" fill="green" fill-opacity="1" stroke="none" transform="matrix(1,0,0,1,35,491)">
</path>
<text xml:space="preserve" fill="#333" fill-opacity="1" stroke="none" transform="matrix(1,0,0,1,35,491)" dominant-baseline="central" text-anchor="start" x="30" y="7" style="font: 14px sans-serif;">中小城市</text>
<path d="M -21 -5 L 21 -5 L 21 21 L -21 21 L -21 -5" fill="rgba(0,0,0,0)" fill-opacity="1" stroke="#ccc" stroke-width="0" paint-order="fill" stroke-opacity="1" stroke-dasharray="" stroke-linecap="butt" stroke-miterlimit="10" transform="matrix(1,0,0,1,554,5)">
</path>
<text xml:space="preserve" fill="#34471f" fill-opacity="1" stroke="none" transform="matrix(1,0,0,1,554,5)" dominant-baseline="central" text-anchor="middle" x="0" y="8" style="font: 16px &quot;Microsoft YaHei&quot;;">北京</text>
<path d="M 548.8284 378.0462 L 549.238 376.2942 L 548.9139 373.3695 L 550.3171 373.3122 L 550.3042 372.2682 L 549.5451 372.2416 L 549.4768 370.6491 L 549.8649 369.7778 L 547.3698 370.1052 L 547.0628 366.8633 L 546.9264 362.8615 L 548.837 362.8658 L 548.8413 360.6906 L 549.3787 358.0958 L 548.2015 358.3433 L 548.5427 357.1454 L 547.1524 356.4871 L 547.4126 357.2692 L 545.9411 357.0217 L 545.843 355.0858 L 544.9985 353.7248 L 542.8233 353.7512 L 542.2561 353.0044 L 542.1921 351.2282 L 541.4585 350.5388 L 541.5352 353.7512 L 537.7862 353.4906 L 537.4109 354.0916 L 537.2318 355.1565 L 538.571 355.0638 L 538.7586 359.6121 L 539.1467 359.7669 L 539.2534 362.9632 L 539.8208 364.25 L 538.3321 364.5638 L 538.3493 368.5174 L 539.0231 368.4864 L 539.1298 370.8128 L 539.441 371.0208 L 539.7439 378.2189 L 535.9694 378.5064 L 535.9779 379.8916 L 537.4578 379.5332 L 538.8993 380.7944 L 539.0103 381.8963 L 541.3263 381.5469 L 542.4693 381.8256 L 543.1688 380.5467 L 542.7124 378.5064 L 544.6615 378.0506 L 548.611 378.3073 L 548.8284 378.0462 Z" fill="[object Object]" fill-opacity="1" stroke="dodgerblue" stroke-width="1" paint-order="fill" stroke-opacity="1" stroke-dasharray="" stroke-linecap="butt" stroke-miterlimit="10" style="filter: url(&quot;#zr2323-shadow-0&quot;);">
</path>
<path d="M 524.7947 371.5337 L 524.799 373.0778 L 523.7668 375.688 L 523.8821 377.4048 L 524.9654 376.9533 L 526.727 377.4091 L 528.0106 377.1437 L 528.5652 377.8252 L 529.6229 377.8428 L 529.8488 379.1748 L 535.9694 378.5064 L 539.7439 378.2189 L 539.441 371.0208 L 539.1298 370.8128 L 539.0231 368.4864 L 538.3493 368.5174 L 538.3321 364.5638 L 539.8208 364.25 L 539.2534 362.9632 L 539.1467 359.7669 L 538.7586 359.6121 L 538.571 355.0638 L 537.2318 355.1565 L 537.4109 354.0916 L 537.9057 352.0586 L 538.7374 351.7892 L 538.7245 350.848 L 536.0332 350.8877 L 535.9308 352.1206 L 533.8879 352.1957 L 534.2121 357.4462 L 530.9963 358.6704 L 530.1431 356.8316 L 530.2243 358.7411 L 527.9851 359.245 L 526.2407 358.6704 L 525.234 359.139 L 526.2748 360.1734 L 526.5989 364.4974 L 526.7439 371.0826 L 527.1406 371.3703 L 524.7947 371.5337 Z" fill="[object Object]" fill-opacity="1" stroke="dodgerblue" stroke-width="1" paint-order="fill" stroke-opacity="1" stroke-dasharray="" stroke-linecap="butt" stroke-miterlimit="10" style="filter: url(&quot;#zr2323-shadow-0&quot;);">
</path>
<path d="M 579.8101 338.7056 L 576.1932 335.9857 L 576.3937 334.467 L 574.6963 334.6481 L 573.4252 332.6836 L 570.6742 331.0945 L 569.817 330.1544 L 571.0837 328.5435 L 570.8789 327.2151 L 570.0686 326.412 L 569.1303 327.3121 L 567.3347 325.3045 L 565.6243 324.0691 L 563.1678 324.316 L 561.7048 323.2484 L 560.1864 321.6072 L 557.6018 321.4308 L 556.8427 320.6941 L 554.9276 320.2 L 554.4116 319.159 L 553.5584 318.9428 L 553.4391 321.0734 L 552.5434 321.4881 L 552.697 322.5865 L 551.925 322.8557 L 551.8867 324.3293 L 552.5989 325.1633 L 552.0443 327.1533 L 550.4152 326.8004 L 550.4578 327.4886 L 548.6708 326.7914 L 546.7131 326.5311 L 543.1133 328.2389 L 541.8849 328.3406 L 541.177 329.9336 L 541.7399 331.6949 L 541.002 332.8688 L 538.9762 333.4693 L 538.4943 332.1186 L 538.0209 332.242 L 537.9397 333.5179 L 538.9293 334.5331 L 535.5855 334.988 L 529.9086 336.2065 L 535.1462 345.3786 L 536.093 349.4562 L 536.0332 350.8877 L 538.7245 350.848 L 538.7374 351.7892 L 537.9057 352.0586 L 537.4109 354.0916 L 537.7862 353.4906 L 541.5352 353.7512 L 541.4585 350.5388 L 542.1921 351.2282 L 542.2561 353.0044 L 542.8233 353.7512 L 544.9985 353.7248 L 545.843 355.0858 L 545.9411 357.0217 L 547.4126 357.2692 L 547.1524 356.4871 L 548.5427 357.1454 L 548.2015 358.3433 L 549.3787 358.0958 L 548.8413 360.6906 L 548.837 362.8658 L 546.9264 362.8615 L 547.0628 366.8633 L 547.3698 370.1052 L 549.8649 369.7778 L 549.4768 370.6491 L 549.5451 372.2416 L 550.3042 372.2682 L 550.3171 373.3122 L 548.9139 373.3695 L 549.238 376.2942 L 548.8284 378.0462 L 548.692 379.8826 L 549.383 381.3035 L 549.754 380.5467 L 550.9866 381.7062 L 551.3619 381.2061 L 552.842 382.5647 L 553.7546 382.6223 L 552.2279 384.6319 L 550.3597 383.7112 L 550.2233 384.6096 L 549.3063 384.7116 L 549.4513 385.8181 L 548.5598 385.9775 L 548.2058 387.0709 L 547.421 386.6151 L 546.4657 388.8994 L 545.0711 389.1784 L 546.0604 389.6654 L 547.4722 389.5194 L 547.4083 390.3961 L 549.2934 390.5954 L 548.8839 392.1542 L 550.6838 391.5962 L 552.731 393.5179 L 553.8911 393.9079 L 555.0726 395.1966 L 557.316 394.3949 L 557.3927 393.2612 L 559.3761 392.7429 L 559.9562 393.5845 L 561.5086 392.9955 L 560.8943 392.6855 L 562.3915 392.0212 L 562.4853 390.3385 L 563.6197 389.7408 L 565.4965 389.7628 L 565.5989 390.5378 L 567.4499 391.1045 L 568.1023 390.1835 L 567.0916 388.9527 L 569.0279 389.6391 L 569.2284 388.315 L 572.2737 388.4213 L 574.4744 388.7447 L 576.0568 389.5104 L 576.1249 390.3651 L 578.0698 390.1791 L 577.4002 391.0781 L 579.0039 391.3615 L 578.9784 390.6838 L 580.5606 390.8965 L 580.5094 389.2447 L 581.1749 389.2404 L 581.1066 386.7789 L 582.4245 385.1984 L 581.6697 385.3091 L 581.5716 384.2379 L 583.461 384.2069 L 586.2162 381.3521 L 584.7959 379.1038 L 585.8026 376.847 L 585.6788 375.7851 L 586.63 375.6657 L 586.3441 373.2502 L 583.9003 373.4359 L 583.8406 371.8834 L 585.0049 370.9722 L 585.4826 369.4991 L 584.8471 368.5748 L 585.4102 366.903 L 584.9921 364.3781 L 586.9541 364.7672 L 585.6447 362.5077 L 586.6938 362.1452 L 586.7707 360.1294 L 587.5384 359.5368 L 586.9369 358.1092 L 587.291 356.9156 L 589.9523 358.1578 L 589.5045 356.2527 L 589.2487 351.7408 L 588.8392 348.1972 L 587.6577 348.4446 L 587.581 347.2207 L 588.6985 347.0352 L 588.9416 346.1384 L 589.6411 346.2931 L 589.4235 344.3496 L 588.3829 342.8257 L 587.3934 343.5148 L 585.9731 342.6182 L 586.455 341.3861 L 584.7747 340.26 L 580.9873 339.6946 L 579.8101 338.7056 Z M 581.4692 329.0686 L 582.4331 328.5348 L 581.4264 319.8603 L 581.3114 317.9372 L 580.3901 315.2203 L 580.454 318.0387 L 579.8825 318.9339 L 576.7135 319.4413 L 576.2956 315.529 L 575.4299 314.1487 L 575.4811 317.324 L 576.2616 322.6749 L 576.9269 325.0176 L 576.9226 323.3938 L 577.9845 323.2527 L 578.7053 328.1948 L 578.2619 329.7264 L 578.9229 329.3821 L 579.0851 331.7389 L 580.6802 332.2069 L 580.5992 330.6398 L 581.0511 330.5074 L 580.4156 329.179 L 581.4692 329.0686 Z" fill="[object Object]" fill-opacity="1" stroke="dodgerblue" stroke-width="1" paint-order="fill" stroke-opacity="1" stroke-dasharray="" stroke-linecap="butt" stroke-miterlimit="10" style="filter: url(&quot;#zr2323-shadow-0&quot;);">
</path>
<path d="M 511.1892 371.5693 L 509.9268 371.6444 L 505.9773 372.8034 L 506.2032 373.5022 L 504.8044 373.6306 L 504.7915 375.0553 L 503.8191 375.0153 L 503.1197 375.7364 L 503.0345 376.9931 L 501.3625 376.6216 L 501.6056 377.5462 L 500.7953 377.6968 L 500.0701 376.1305 L 499.0209 375.2056 L 497.1699 375.6834 L 494.8752 375.3693 L 492.4144 373.7192 L 491.6636 374.228 L 490.1921 373.6439 L 489.1387 374.9976 L 488.452 374.6615 L 485.2021 375.7544 L 484.0249 376.6569 L 482.7667 376.7853 L 481.2397 377.9356 L 479.8494 378.1259 L 479.5892 379.1348 L 477.8917 379.0818 L 476.1261 379.8649 L 474.322 378.7321 L 472.7183 379.2411 L 472.0828 379.9713 L 472.6628 381.4228 L 472.8248 383.2464 L 469.882 383.9989 L 469.4938 385.3577 L 470.8885 386.4601 L 472.4154 386.7612 L 473.8869 387.7883 L 474.3815 389.2627 L 475.5544 390.0818 L 475.8361 389.1077 L 476.6507 389.7718 L 476.3392 390.5334 L 476.6207 393.4072 L 475.9256 393.3939 L 475.6482 394.7006 L 476.1175 396.9595 L 475.8061 399.1255 L 477.0943 401.1369 L 477.0259 402.1825 L 477.6443 402.8692 L 479.022 401.7262 L 480.1735 401.8459 L 480.0413 400.9507 L 482.7796 400.6673 L 482.9758 401.9742 L 483.8544 401.8369 L 485.168 402.4439 L 485.3854 403.6667 L 484.3449 403.5517 L 483.7094 404.1764 L 483.1251 403.5517 L 482.3103 405.0982 L 483.1208 408.2891 L 484.5494 408.0762 L 485.6371 406.9283 L 488.5416 406.9683 L 488.7166 406.3787 L 490.1581 406.8486 L 491.5315 406.2281 L 492.9604 402.1292 L 495.6686 402.2845 L 495.7453 403.2371 L 496.6922 402.8072 L 497.9973 403.1351 L 498.0059 403.7024 L 499.2171 403.7954 L 499.5157 401.0439 L 499.5157 397.9472 L 500.7825 396.1266 L 500.6503 394.9132 L 502.5566 393.2569 L 502.0875 392.6942 L 502.0192 391.1355 L 504.6893 391.0425 L 504.911 390.4581 L 507.2185 390.5465 L 507.9093 391.0161 L 508.1738 392.8049 L 509.6708 394.2399 L 510.0718 395.8875 L 509.5258 397.4645 L 509.6453 399.7414 L 511.2318 398.5008 L 511.8204 399.8167 L 514.2772 398.6871 L 516.93 398.0978 L 517.3267 398.9705 L 518.7342 399.0591 L 517.7277 399.6837 L 518.5551 400.3127 L 519.8473 404.6683 L 520.9733 405.9888 L 521.7112 405.4525 L 523.1996 402.3552 L 523.9759 402.3065 L 524.1978 398.2928 L 525.0038 398.2928 L 525.2895 397.4688 L 527.7163 397.2695 L 528.049 395.7902 L 530.8939 396.3126 L 531.1241 397.7258 L 533.2056 397.9028 L 533.4402 399.2628 L 532.9411 399.4444 L 533.3164 401.9432 L 535.5386 401.7572 L 535.6877 403.4584 L 536.993 403.6047 L 538.0209 403.1661 L 538.2767 407.2962 L 539.7013 407.1366 L 539.5008 403.0021 L 539.1169 401.4603 L 544.056 401.2697 L 544.2179 399.4491 L 545.8985 399.4578 L 545.924 396.8796 L 545.1734 396.3969 L 544.508 395.0149 L 543.5527 395.0992 L 543.0407 394.4479 L 541.9702 394.7713 L 542.0002 393.2169 L 543.9579 393.6729 L 543.6891 391.6225 L 542.8702 391.2508 L 543.1474 389.8514 L 544.0217 390.6175 L 545.0711 389.1784 L 546.4657 388.8994 L 547.421 386.6151 L 548.2058 387.0709 L 548.5598 385.9775 L 549.4513 385.8181 L 549.3063 384.7116 L 550.2233 384.6096 L 550.3597 383.7112 L 552.2279 384.6319 L 553.7546 382.6223 L 552.842 382.5647 L 551.3619 381.2061 L 550.9866 381.7062 L 549.754 380.5467 L 549.383 381.3035 L 548.692 379.8826 L 548.8284 378.0462 L 548.611 378.3073 L 544.6615 378.0506 L 542.7124 378.5064 L 543.1688 380.5467 L 542.4693 381.8256 L 541.3263 381.5469 L 539.0103 381.8963 L 538.8993 380.7944 L 537.4578 379.5332 L 535.9779 379.8916 L 535.9694 378.5064 L 529.8488 379.1748 L 529.6229 377.8428 L 528.5652 377.8252 L 528.0106 377.1437 L 526.727 377.4091 L 524.9654 376.9533 L 523.8821 377.4048 L 523.7668 375.688 L 524.799 373.0778 L 524.7947 371.5337 L 522.3936 371.5383 L 520.1033 372.8564 L 518.5165 374.2411 L 518.5082 371.6134 L 512.6393 371.6797 L 511.1892 371.5693 Z" fill="[object Object]" fill-opacity="1" stroke="dodgerblue" stroke-width="1" paint-order="fill" stroke-opacity="1" stroke-dasharray="" stroke-linecap="butt" stroke-miterlimit="10" style="filter: url(&quot;#zr2323-shadow-0&quot;);">
</path>
<path d="M 492.4144 373.7192 L 494.8752 375.3693 L 497.1699 375.6834 L 499.0209 375.2056 L 500.0701 376.1305 L 500.7953 377.6968 L 501.6056 377.5462 L 501.3625 376.6216 L 503.0345 376.9931 L 503.1197 375.7364 L 503.8191 375.0153 L 504.7915 375.0553 L 504.8044 373.6306 L 506.2032 373.5022 L 505.9773 372.8034 L 509.9268 371.6444 L 511.1892 371.5693 L 509.9439 371.4897 L 509.9439 366.4298 L 509.5344 365.267 L 506.8261 365.6428 L 505.7513 366.054 L 505.4399 365.351 L 500.5222 366.1293 L 500.7099 363.6175 L 502.3392 363.2903 L 501.8018 362.8041 L 502.4416 362.1672 L 501.8273 361.6236 L 502.4585 360.766 L 502.2923 358.7634 L 501.7549 357.3488 L 499.3664 354.0429 L 497.2509 352.885 L 497.2382 352.0986 L 496.2444 351.5507 L 496.142 349.4562 L 496.4022 347.8437 L 494.8369 346.651 L 494.6535 348.3032 L 493.3228 349.7214 L 492.8623 349.0807 L 492.376 346.8498 L 490.5974 347.7819 L 490.1881 346.4212 L 489.2625 345.2505 L 487.8551 346.4079 L 482.6046 347.243 L 481.4871 348.493 L 482.1269 351.0998 L 483.4279 352.2884 L 482.9672 354.0209 L 481.854 354.9577 L 482.8308 356.8493 L 481.7048 357.2825 L 481.1802 358.9889 L 482.7965 361.7517 L 483.7946 361.1681 L 484.4173 362.4106 L 484.3192 363.423 L 484.9206 363.9933 L 486.7546 364.6522 L 488.2985 367.9203 L 489.5099 368.8579 L 489.6549 370.3927 L 491.2031 371.5294 L 492.4144 373.7192 Z" fill="[object Object]" fill-opacity="1" stroke="dodgerblue" stroke-width="1" paint-order="fill" stroke-opacity="1" stroke-dasharray="" stroke-linecap="butt" stroke-miterlimit="10" style="filter: url(&quot;#zr2323-shadow-0&quot;);">
</path>
<path d="M 524.7947 371.5337 L 527.1406 371.3703 L 526.7439 371.0826 L 526.5989 364.4974 L 526.2748 360.1734 L 525.234 359.139 L 526.2407 358.6704 L 527.9851 359.245 L 530.2243 358.7411 L 530.1431 356.8316 L 530.9963 358.6704 L 534.2121 357.4462 L 533.8879 352.1957 L 535.9308 352.1206 L 536.0332 350.8877 L 536.093 349.4562 L 535.1462 345.3786 L 529.9086 336.2065 L 535.5855 334.988 L 538.9293 334.5331 L 537.9397 333.5179 L 538.0209 332.242 L 536.9075 331.814 L 535.2144 331.8404 L 535.0565 331.1034 L 533.7259 330.6972 L 533.278 328.9361 L 534.4212 328.6892 L 534.2719 327.7358 L 535.7006 327.4225 L 536.4299 326.721 L 536.2423 325.4102 L 534.4936 325.6221 L 534.3272 324.8588 L 532.4123 324.7133 L 532.3866 325.5383 L 531.2179 325.5163 L 529.0514 326.1562 L 529.1111 327.0342 L 528.2368 327.2504 L 528.3775 328.389 L 527.7463 328.4861 L 527.452 327.4446 L 525.8057 326.2312 L 526.0188 327.9213 L 524.8247 328.5655 L 523.2637 326.6989 L 521.4595 326.9855 L 520.7557 326.3237 L 520.133 326.9328 L 517.5655 320.8573 L 515.433 321.7794 L 514.0468 318.2592 L 514.0937 317.4785 L 512.4431 317.7167 L 511.0228 315.8599 L 512.1702 315.1806 L 512.055 313.3946 L 510.9716 313.0242 L 511.2873 314.3956 L 510.5323 315.0572 L 509.8927 314.5016 L 508.5107 314.819 L 507.3976 314.0959 L 507.9819 312.6628 L 507.6705 311.2694 L 508.3231 311.1547 L 508.7324 306.4287 L 506.0285 306.3273 L 502.288 304.5333 L 501.6311 305.2474 L 500.4198 304.5556 L 500.292 302.6295 L 499.7929 301.6511 L 499.5798 299.6902 L 497.9718 299.9371 L 497.5197 301.1355 L 495.6089 300.4747 L 495.69 301.7702 L 495.144 303.4141 L 493.8602 304.4189 L 492.5465 304.895 L 492.7385 306.6359 L 493.3825 308.6771 L 492.4911 308.5359 L 492.9304 309.594 L 489.4928 310.3522 L 485.458 310.4669 L 485.313 312.1733 L 484.3875 311.816 L 481.4574 312.0322 L 479.9389 311.3752 L 479.2011 311.9264 L 477.9386 310.4933 L 476.6592 311.0182 L 475.5716 310.7666 L 474.2322 312.182 L 473.4091 312.0762 L 473.1703 313.7562 L 472.5135 314.9381 L 471.1828 315.507 L 470.9866 316.3935 L 469.7498 317.2446 L 468.9224 318.5415 L 468.3166 320.2704 L 468.8157 320.5309 L 469.481 322.1938 L 471.4047 323.61 L 471.6009 325.1236 L 472.8547 326.5972 L 472.2278 329.3467 L 473.6693 332.6129 L 474.292 334.5597 L 475.5289 335.0631 L 477.7381 334.8246 L 478.4163 334.2728 L 479.8623 334.7098 L 481.7048 334.4934 L 483.5558 335.403 L 484.7713 335.01 L 486.921 335.6545 L 488.7932 337.4428 L 490.4312 337.7473 L 491.7832 338.8998 L 491.9537 339.5709 L 494.1076 341.726 L 493.4509 343.294 L 491.3181 343.4707 L 489.8638 344.2082 L 489.2625 345.2505 L 490.1881 346.4212 L 490.5974 347.7819 L 492.376 346.8498 L 492.8623 349.0807 L 493.3228 349.7214 L 494.6535 348.3032 L 494.8369 346.651 L 496.4022 347.8437 L 496.142 349.4562 L 496.2444 351.5507 L 497.2382 352.0986 L 497.2509 352.885 L 499.3664 354.0429 L 501.7549 357.3488 L 502.2923 358.7634 L 502.4585 360.766 L 501.8273 361.6236 L 502.4416 362.1672 L 501.8018 362.8041 L 502.3392 363.2903 L 500.7099 363.6175 L 500.5222 366.1293 L 505.4399 365.351 L 505.7513 366.054 L 506.8261 365.6428 L 509.5344 365.267 L 509.9439 366.4298 L 509.9439 371.4897 L 511.1892 371.5693 L 512.6393 371.6797 L 518.5082 371.6134 L 518.5165 374.2411 L 520.1033 372.8564 L 522.3936 371.5383 L 524.7947 371.5337 Z" fill="[object Object]" fill-opacity="1" stroke="dodgerblue" stroke-width="1" paint-order="fill" stroke-opacity="1" stroke-dasharray="" stroke-linecap="butt" stroke-miterlimit="10" style="filter: url(&quot;#zr2323-shadow-0&quot;);">
</path>
<path d="M 489.2625 345.2505 L 489.8638 344.2082 L 491.3181 343.4707 L 493.4509 343.294 L 494.1076 341.726 L 491.9537 339.5709 L 491.7832 338.8998 L 490.4312 337.7473 L 488.7932 337.4428 L 486.921 335.6545 L 484.7713 335.01 L 483.5558 335.403 L 481.7048 334.4934 L 479.8623 334.7098 L 478.4163 334.2728 L 477.7381 334.8246 L 475.5289 335.0631 L 474.292 334.5597 L 473.6693 332.6129 L 472.2278 329.3467 L 472.8547 326.5972 L 471.6009 325.1236 L 471.4047 323.61 L 469.481 322.1938 L 468.8157 320.5309 L 468.3166 320.2704 L 467.2759 320.7602 L 466.0775 320.4823 L 465.2672 321.8058 L 464.6529 321.1175 L 462.6016 323.1866 L 459.9357 321.5455 L 459.394 321.7661 L 457.8075 321.1485 L 455.5812 320.7691 L 454.2675 321.2586 L 453.7044 321.9733 L 451.9388 322.9394 L 451.5336 320.4736 L 450.284 318.3253 L 450.6166 317.7915 L 450.7104 315.6348 L 449.6697 316.0892 L 449.5204 317.3504 L 448.6972 315.9964 L 446.7695 315.3658 L 447.7248 314.2591 L 444.8032 309.5233 L 442.3252 306.8962 L 439.2886 305.8911 L 438.862 306.4508 L 438.0431 305.7456 L 434.2003 305.6485 L 432.6819 304.3441 L 431.9911 304.2337 L 430.8522 303.0483 L 429.0907 303.3657 L 428.4383 302.8588 L 427.018 303.4668 L 424.54 302.6119 L 424.8512 303.921 L 423.4821 302.6823 L 422.1003 301.9685 L 418.8973 301.7923 L 417.9844 300.8405 L 415.4852 297.527 L 414.8923 297.1259 L 414.9094 294.8705 L 412.056 295.5533 L 411.075 298.4477 L 409.8511 299.2453 L 408.2431 299.0735 L 407.2664 301.8627 L 408.3496 303.912 L 407.2066 306.0189 L 405.5475 307.5132 L 404.1229 308.2847 L 402.2292 308.4389 L 400.4039 307.1959 L 398.9367 306.9489 L 397.1111 307.4648 L 398.1347 308.2096 L 399.4143 308.4038 L 399.6234 308.9591 L 397.6059 308.6064 L 396.5951 309.0077 L 395.7548 307.5926 L 394.5095 307.9717 L 393.328 307.3897 L 392.812 307.8615 L 388.5427 308.633 L 387.9456 307.7688 L 385.86 309.0298 L 385.3097 310.6124 L 385.685 311.512 L 384.0985 311.9792 L 383.1858 311.4193 L 381.8764 311.8427 L 381.13 311.1857 L 380.0766 311.6134 L 378.1913 310.8196 L 376.5876 310.833 L 375.7175 311.847 L 375.6323 313.8313 L 375.2185 313.505 L 374.873 317.2536 L 373.5124 317.6637 L 372.3907 317.2623 L 371.9131 316.0495 L 370.1944 317.2139 L 369.3072 316.8389 L 367.3323 318.5415 L 367.6864 320.9984 L 367.0125 321.9159 L 365.4003 322.8247 L 364.0995 322.3175 L 361.9456 322.7806 L 359.4207 325.2648 L 358.3502 325.6618 L 358.4995 326.359 L 356.5674 329.1966 L 353.9913 330.9223 L 354.1278 331.5712 L 351.9996 333.6327 L 349.9309 334.7936 L 348.3486 334.7185 L 347.0988 335.3897 L 346.6 337.8137 L 344.5782 340.5072 L 344.7104 341.4698 L 346.0114 342.9274 L 346.2459 345.3035 L 344.9323 344.9236 L 343.4863 345.7985 L 341.7931 347.7289 L 341.614 349.0497 L 340.7525 351.6744 L 341.469 352.9027 L 340.8206 355.5146 L 341.3111 356.9687 L 343.2731 356.8139 L 343.8234 356.3677 L 345.073 356.6946 L 345.5721 357.3885 L 346.6469 357.5566 L 347.5596 358.6218 L 349.1249 359.7446 L 350.7412 360.1204 L 352.4346 360.9117 L 353.778 364.179 L 355.3519 365.7799 L 357.1601 366.3591 L 360.4784 369.9679 L 361.067 370.9545 L 358.2137 374.9669 L 358.4185 375.6967 L 359.7705 375.9888 L 361.7365 377.2808 L 362.3251 377.2011 L 361.9499 378.8561 L 360.8453 379.3118 L 360.9348 381.8699 L 359.6255 384.8886 L 358.6147 385.5924 L 359.3312 387.4252 L 361.7794 388.2707 L 362.5897 389.7187 L 363.5023 389.5017 L 365.8353 390.7858 L 366.168 391.6802 L 369.3157 393.3896 L 370.5013 394.2442 L 372.1519 394.4436 L 374.1822 394.1115 L 374.967 392.8139 L 376.0844 392.0079 L 376.6302 389.9268 L 377.6924 388.4877 L 378.315 386.7345 L 379.4368 385.9554 L 380.1063 382.2063 L 381.2493 380.6484 L 381.4797 379.6482 L 383.0877 378.2809 L 384.9302 378.396 L 385.8855 377.1967 L 386.7343 377.3471 L 387.9584 375.418 L 390.5429 375.0419 L 391.2596 374.4758 L 392.7054 374.3164 L 393.6052 372.5513 L 394.9786 371.6974 L 395.4862 370.7421 L 399.0348 369.269 L 401.1587 369.4064 L 401.5725 368.8049 L 403.5386 368.5218 L 407.134 366.5271 L 407.2833 365.8595 L 409.7018 364.9529 L 411.314 363.7988 L 412.3076 365.059 L 416.0993 364.9883 L 417.0162 364.6345 L 418.9527 365.3154 L 419.8185 366.9119 L 421.3922 366.8676 L 423.047 367.7832 L 424.719 370.7731 L 425.4655 370.4854 L 426.7877 371.463 L 429.9779 370.291 L 431.492 369.1453 L 432.4687 367.2657 L 433.6374 366.3194 L 435.9363 365.9612 L 438.7555 366.8456 L 443.6346 366.7836 L 445.2682 365.8329 L 446.3473 365.8992 L 447.2729 367.6769 L 447.1236 370.1583 L 445.2554 371.1402 L 442.4105 374.9669 L 443.5493 377.1347 L 448.1172 378.471 L 448.9958 379.6925 L 450.4588 379.3959 L 451.7853 378.2586 L 451.9729 379.4402 L 453.568 379.2942 L 453.5082 378.6834 L 456.3446 377.095 L 457.7861 377.4135 L 456.8948 379.5375 L 455.6536 380.259 L 455.9352 381.5822 L 455.1419 384.499 L 456.5705 386.9162 L 459.9571 384.4016 L 461.7527 384.468 L 462.0939 386.5619 L 462.6356 386.7965 L 464.5293 386.0351 L 465.0965 385.3711 L 466.8751 385.6501 L 467.694 384.986 L 469.4938 385.3577 L 469.882 383.9989 L 472.8248 383.2464 L 472.6628 381.4228 L 472.0828 379.9713 L 472.7183 379.2411 L 474.322 378.7321 L 476.1261 379.8649 L 477.8917 379.0818 L 479.5892 379.1348 L 479.8494 378.1259 L 481.2397 377.9356 L 482.7667 376.7853 L 484.0249 376.6569 L 485.2021 375.7544 L 488.452 374.6615 L 489.1387 374.9976 L 490.1921 373.6439 L 491.6636 374.228 L 492.4144 373.7192 L 491.2031 371.5294 L 489.6549 370.3927 L 489.5099 368.8579 L 488.2985 367.9203 L 486.7546 364.6522 L 484.9206 363.9933 L 484.3192 363.423 L 484.4173 362.4106 L 483.7946 361.1681 L 482.7965 361.7517 L 481.1802 358.9889 L 481.7048 357.2825 L 482.8308 356.8493 L 481.854 354.9577 L 482.9672 354.0209 L 483.4279 352.2884 L 482.1269 351.0998 L 481.4871 348.493 L 482.6046 347.243 L 487.8551 346.4079 L 489.2625 345.2505 Z" fill="[object Object]" fill-opacity="1" stroke="dodgerblue" stroke-width="1" paint-order="fill" stroke-opacity="1" stroke-dasharray="" stroke-linecap="butt" stroke-miterlimit="10" style="filter: url(&quot;#zr2323-shadow-0&quot;);">
</path>
<path d="M 469.4938 385.3577 L 467.694 384.986 L 466.8751 385.6501 L 465.0965 385.3711 L 464.5293 386.0351 L 462.6356 386.7965 L 462.0939 386.5619 L 461.7527 384.468 L 459.9571 384.4016 L 456.5705 386.9162 L 455.1419 384.499 L 455.9352 381.5822 L 455.6536 380.259 L 456.8948 379.5375 L 457.7861 377.4135 L 456.3446 377.095 L 453.5082 378.6834 L 453.568 379.2942 L 451.9729 379.4402 L 451.7853 378.2586 L 450.4588 379.3959 L 448.9958 379.6925 L 448.1172 378.471 L 443.5493 377.1347 L 442.4105 374.9669 L 445.2554 371.1402 L 447.1236 370.1583 L 447.2729 367.6769 L 446.3473 365.8992 L 445.2682 365.8329 L 443.6346 366.7836 L 438.7555 366.8456 L 435.9363 365.9612 L 433.6374 366.3194 L 432.4687 367.2657 L 431.492 369.1453 L 429.9779 370.291 L 426.7877 371.463 L 425.4655 370.4854 L 424.719 370.7731 L 423.047 367.7832 L 421.3922 366.8676 L 419.8185 366.9119 L 418.9527 365.3154 L 417.0162 364.6345 L 416.0993 364.9883 L 412.3076 365.059 L 411.314 363.7988 L 409.7018 364.9529 L 407.2833 365.8595 L 407.134 366.5271 L 403.5386 368.5218 L 401.5725 368.8049 L 401.1587 369.4064 L 399.0348 369.269 L 395.4862 370.7421 L 394.9786 371.6974 L 393.6052 372.5513 L 392.7054 374.3164 L 391.2596 374.4758 L 390.5429 375.0419 L 387.9584 375.418 L 386.7343 377.3471 L 385.8855 377.1967 L 384.9302 378.396 L 383.0877 378.2809 L 381.4797 379.6482 L 381.2493 380.6484 L 380.1063 382.2063 L 379.4368 385.9554 L 378.315 386.7345 L 377.6924 388.4877 L 376.6302 389.9268 L 376.0844 392.0079 L 374.967 392.8139 L 374.1822 394.1115 L 372.1519 394.4436 L 370.5013 394.2442 L 369.9084 395.1922 L 369.9513 396.6006 L 369.0769 396.8442 L 367.5628 399.0501 L 364.415 399.2805 L 363.7712 399.9937 L 359.1904 400.9286 L 358.1497 402.1825 L 355.8295 400.2774 L 354.8188 398.9261 L 352.9549 398.2131 L 351.4493 400.078 L 347.76 402.7098 L 346.7364 402.7585 L 344.8256 401.7572 L 342.9276 402.6742 L 342.3348 404.4467 L 341.1192 405.0982 L 341.4904 406.0731 L 342.2836 405.4482 L 343.2005 406.0288 L 342.996 407.6818 L 343.9641 410.7223 L 347.7515 412.8325 L 349.5854 414.0473 L 350.3702 413.5197 L 352.7672 413.4974 L 354.7633 414.4772 L 354.1021 416.0291 L 354.584 421.0447 L 355.0276 423.0094 L 354.3837 424.6641 L 354.87 424.5798 L 356.2219 426.0836 L 356.3286 427.4191 L 355.6376 428.9454 L 355.2324 428.7235 L 354.0852 430.0457 L 354.2771 431.0265 L 353.6671 432.291 L 354.6054 433.5604 L 352.8227 435.1006 L 351.88 437.4975 L 351.991 438.5539 L 355.2836 438.8514 L 355.7143 437.9502 L 357.7403 438.0655 L 358.7169 440.17 L 359.6083 441.0269 L 360.952 441.3731 L 360.5381 443.1537 L 360.7984 446.1735 L 361.1482 446.6975 L 359.3012 448.5673 L 358.8449 450.8459 L 359.6255 454.6355 L 360.2141 454.1246 L 360.1074 453.014 L 361.3144 452.5297 L 362.6109 451.4591 L 363.2849 449.8998 L 363.1569 449.1313 L 364.3512 447.8122 L 365.7501 447.1416 L 366.9528 448.4161 L 367.4902 449.6823 L 369.5417 450.7126 L 370.092 452.3431 L 371.4397 453.1782 L 371.0302 454.5333 L 373.9348 455.1198 L 375.227 453.1516 L 376.5066 452.8495 L 376.724 452.0054 L 377.8458 452.2319 L 379.3173 451.9344 L 380.5285 451.1347 L 382.0598 452.4054 L 383.4075 452.8674 L 383.8425 451.188 L 385.25 451.3345 L 385.6552 452.5297 L 387.0201 451.9698 L 388.4487 452.2186 L 390.0866 450.7926 L 390.5514 449.62 L 390.5302 448.092 L 391.7115 449.9221 L 394.1683 451.2413 L 394.9786 452.503 L 394.9743 454.1602 L 395.9853 455.5642 L 395.8232 457.5904 L 396.7358 457.8838 L 396.8766 460.2393 L 396.0194 460.5591 L 395.546 461.5459 L 396.9023 462.2347 L 399.2352 462.297 L 400.6513 463.0084 L 401.2868 464.5464 L 401.5682 467.6051 L 402.66 467.4939 L 402.6216 466.3423 L 405.1423 467.0983 L 405.0741 468.7432 L 405.6242 469.5658 L 406.1233 472.154 L 407.8719 475.2318 L 409.2879 475.6497 L 410.4866 475.3963 L 411.1816 477.0197 L 411.6083 476.4506 L 410.913 475.1206 L 412.7726 475.9744 L 413.0541 475.672 L 414.4999 476.6195 L 416.0652 476.5129 L 421.9339 476.8509 L 423.4097 477.5182 L 423.5718 475.9301 L 422.0746 475.5875 L 421.5884 474.3956 L 422.5439 474.3287 L 422.4756 473.3413 L 421.597 472.6566 L 421.4776 471.0688 L 422.1984 471.131 L 422.5182 470.1306 L 423.3499 469.7926 L 423.4097 468.2007 L 426.1565 468.1297 L 426.9453 467.6628 L 427.2568 465.7601 L 428.033 465.7155 L 428.8733 464.4795 L 430.2081 466.2313 L 431.027 465.88 L 431.091 466.8269 L 432.3066 466.8981 L 432.5071 466.1557 L 434.4776 466.3513 L 434.6055 465.5376 L 435.4415 465.6578 L 435.6589 464.3107 L 436.5375 464.1461 L 436.6101 462.6081 L 435.9192 460.977 L 437.139 460.4215 L 439.5572 461.2481 L 440.5553 459.6258 L 440.3549 459.2614 L 441.1354 456.8749 L 439.7363 456.5861 L 439.9241 455.4266 L 439.3398 454.9556 L 440.0306 452.0144 L 440.4999 452.472 L 442.7986 452.9784 L 442.8841 453.9157 L 444.1165 454.0403 L 444.0696 454.9776 L 444.9227 455.4842 L 445.0849 457.186 L 445.7245 457.2173 L 445.6904 458.3681 L 446.7609 458.3904 L 446.7397 459.1281 L 447.9765 459.5015 L 448.2367 461.3857 L 449.1665 461.4613 L 449.6911 462.8659 L 450.8852 461.6215 L 451.7383 461.866 L 452.0069 460.128 L 453.1627 460.1724 L 453.8923 459.6258 L 453.6746 454.7068 L 453.9518 453.4137 L 456.511 453.9291 L 456.4555 455.9196 L 457.7265 456.8083 L 457.3682 458.4747 L 459.9017 458.4393 L 460.5074 456.8572 L 461.1427 456.8529 L 461.211 455.4842 L 462.563 456.0529 L 463.6976 455.6664 L 463.399 458.8747 L 465.0496 459.1458 L 465.071 459.7726 L 466.3504 459.8703 L 478.5017 458.9993 L 479.1541 458.7281 L 479.022 457.666 L 479.9261 458.6126 L 480.0242 460.1324 L 481.5555 460.217 L 482.1355 459.3103 L 483.1208 459.0615 L 483.1336 460.248 L 484.9249 460.5457 L 484.9376 461.0124 L 486.5798 460.7013 L 486.6522 460.1147 L 488.8616 459.5592 L 489.3052 456.7506 L 492.1072 456.7107 L 494.4317 456.0752 L 494.4616 454.9556 L 495.9629 454.7111 L 497.2551 455.1242 L 497.2168 455.6708 L 498.4964 455.2354 L 498.4026 456.0219 L 499.49 455.9463 L 500.4113 456.8039 L 500.791 458.2971 L 503.4567 457.9727 L 504.2541 456.5684 L 504.4589 454.418 L 503.7467 453.8891 L 503.8576 452.996 L 502.8254 450.0374 L 503.1154 447.0926 L 502.9876 444.6235 L 502.2966 440.5339 L 502.6035 438.2165 L 503.8619 434.6389 L 503.4907 433.8889 L 504.3693 432.229 L 503.4695 430.9066 L 505.4484 427.1262 L 506.1437 424.0077 L 505.6532 423.4089 L 506.6085 421.5502 L 508.3231 420.038 L 508.4724 418.4991 L 509.0227 417.4258 L 508.9329 416.1711 L 508.1012 413.719 L 509.722 411.6975 L 509.8415 409.0913 L 510.2382 407.8502 L 509.8415 405.5368 L 510.1058 403.4231 L 509.6622 402.6078 L 509.6453 399.7414 L 509.5258 397.4645 L 510.0718 395.8875 L 509.6708 394.2399 L 508.1738 392.8049 L 507.9093 391.0161 L 507.2185 390.5465 L 504.911 390.4581 L 504.6893 391.0425 L 502.0192 391.1355 L 502.0875 392.6942 L 502.5566 393.2569 L 500.6503 394.9132 L 500.7825 396.1266 L 499.5157 397.9472 L 499.5157 401.0439 L 499.2171 403.7954 L 498.0059 403.7024 L 497.9973 403.1351 L 496.6922 402.8072 L 495.7453 403.2371 L 495.6686 402.2845 L 492.9604 402.1292 L 491.5315 406.2281 L 490.1581 406.8486 L 488.7166 406.3787 L 488.5416 406.9683 L 485.6371 406.9283 L 484.5494 408.0762 L 483.1208 408.2891 L 482.3103 405.0982 L 483.1251 403.5517 L 483.7094 404.1764 L 484.3449 403.5517 L 485.3854 403.6667 L 485.168 402.4439 L 483.8544 401.8369 L 482.9758 401.9742 L 482.7796 400.6673 L 480.0413 400.9507 L 480.1735 401.8459 L 479.022 401.7262 L 477.6443 402.8692 L 477.0259 402.1825 L 477.0943 401.1369 L 475.8061 399.1255 L 476.1175 396.9595 L 475.6482 394.7006 L 475.9256 393.3939 L 476.6207 393.4072 L 476.3392 390.5334 L 476.6507 389.7718 L 475.8361 389.1077 L 475.5544 390.0818 L 474.3815 389.2627 L 473.8869 387.7883 L 472.4154 386.7612 L 470.8885 386.4601 L 469.4938 385.3577 Z" fill="[object Object]" fill-opacity="1" stroke="dodgerblue" stroke-width="1" paint-order="fill" stroke-opacity="1" stroke-dasharray="" stroke-linecap="butt" stroke-miterlimit="10" style="filter: url(&quot;#zr2323-shadow-0&quot;);">
</path>
<path d="M 606.3175 445.6938 L 607.2728 446.0046 L 607.3369 447.035 L 608.8381 448.061 L 610.0877 447.6656 L 611.0432 446.8174 L 613.8837 448.4828 L 616.2466 450.7616 L 616.3873 452.4674 L 617.0612 454.0403 L 618.4601 454.009 L 618.5455 453.2715 L 619.6118 453.3161 L 619.343 451.5347 L 620.0468 451.6546 L 619.4711 449.3758 L 621.9319 448.8958 L 623.4887 448.2919 L 625.4933 447.075 L 626.4017 447.568 L 626.615 448.4651 L 628.7261 447.6167 L 628.4661 446.3954 L 629.349 446.1955 L 626.8836 443.2336 L 627.4084 442.6786 L 626.9946 441.8481 L 628.5556 440.8626 L 628.3551 440.241 L 629.8224 440.21 L 629.4897 439.3175 L 631.9932 437.8703 L 631.6946 433.871 L 633.8443 433.9509 L 634.5567 433.0989 L 636.4332 432.8281 L 638.4847 431.7499 L 640.097 432.0958 L 643.2617 431.1862 L 642.9631 430.037 L 643.7436 429.7085 L 642.4938 427.61 L 639.8453 428.404 L 639.4188 427.5077 L 640.5489 426.8999 L 640.647 426.1679 L 639.1245 423.1426 L 639.2738 421.1556 L 638.3952 420.0246 L 639.3719 418.1089 L 641.8542 417.9313 L 642.3702 417.0489 L 644.2553 416.477 L 645.3046 416.5213 L 645.2406 415.293 L 644.541 415.3419 L 644.0891 413.901 L 644.8525 413.6927 L 644.5922 412.5486 L 643.364 409.8271 L 642.2209 410.0354 L 642.2721 407.7482 L 643.5943 406.9063 L 644.0677 408.1118 L 646.1661 406.2547 L 645.2663 404.398 L 646.3325 403.1218 L 648.7934 402.8028 L 649.9151 402.9225 L 651.2416 404.008 L 652.0476 403.689 L 651.6936 401.8326 L 652.8751 401.6419 L 652.2695 400.1577 L 649.7146 399.7237 L 649.0025 397.5442 L 650.6487 397.3979 L 647.9788 394.7626 L 647.6505 394.0052 L 647.7912 392.1672 L 647.1855 388.2266 L 645.4582 385.0967 L 644.0208 384.0919 L 642.4769 384.7336 L 642.4938 386.6105 L 643.4493 388.5763 L 642.5878 389.5104 L 641.3935 388.9924 L 638.9795 385.7297 L 637.4782 385.5571 L 637.5464 386.3628 L 636.092 386.4158 L 634.9788 385.9155 L 634.8679 385.0967 L 633.3964 384.676 L 632.2237 381.7946 L 631.1446 381.9142 L 629.5452 379.9669 L 629.0333 380.25 L 627.0713 376.8957 L 626.3379 376.3339 L 624.9771 376.4666 L 624.184 375.7454 L 624.0175 373.4582 L 623.203 373.4802 L 623.1901 374.7632 L 622.3755 374.7722 L 622.3541 376.6613 L 620.4349 375.7587 L 618.8739 374.2411 L 618.3877 372.9937 L 618.2939 370.0566 L 617.8717 367.8273 L 617.91 362.9722 L 618.1062 360.8587 L 617.9527 357.729 L 617.5474 357.1411 L 613.9265 355.4306 L 612.8048 353.9412 L 613.2696 351.6434 L 614.6642 349.8981 L 614.7282 348.2856 L 616.4854 345.4362 L 616.5621 342.6669 L 615.4832 340.304 L 615.7476 339.5312 L 614.3272 339.1029 L 611.9816 339.1383 L 611.6702 338.0388 L 610.7063 337.4912 L 610.7106 336.5641 L 608.6888 335.9591 L 607.7078 336.6392 L 607.6483 337.4251 L 606.1768 336.8687 L 606.053 337.681 L 605.136 337.3454 L 604.6584 338.1359 L 604.445 337.0055 L 602.8714 336.2373 L 601.9159 337.9902 L 600.551 339.0896 L 598.1711 338.9615 L 598.7428 340.9708 L 598.3161 341.2183 L 597.8044 339.5356 L 596.721 339.3724 L 594.7121 339.677 L 593.9147 338.2904 L 592.9806 337.5795 L 592.0636 338.4185 L 591.2574 337.5088 L 591.1593 336.4624 L 588.0927 338.1093 L 587.5512 337.0321 L 586.2376 337.6192 L 585.6616 337.0321 L 584.8173 337.3454 L 584.6723 336.1976 L 583.6017 335.8046 L 583.5846 334.8333 L 582.77 334.979 L 581.2814 335.7162 L 580.8892 338.339 L 579.8101 338.7056 L 580.9873 339.6946 L 584.7747 340.26 L 586.455 341.3861 L 585.9731 342.6182 L 587.3934 343.5148 L 588.3829 342.8257 L 589.4235 344.3496 L 589.6411 346.2931 L 588.9416 346.1384 L 588.6985 347.0352 L 587.581 347.2207 L 587.6577 348.4446 L 588.8392 348.1972 L 589.2487 351.7408 L 589.5045 356.2527 L 589.9523 358.1578 L 587.291 356.9156 L 586.9369 358.1092 L 587.5384 359.5368 L 586.7707 360.1294 L 586.6938 362.1452 L 585.6447 362.5077 L 586.9541 364.7672 L 584.9921 364.3781 L 585.4102 366.903 L 584.8471 368.5748 L 585.4826 369.4991 L 585.0049 370.9722 L 583.8406 371.8834 L 583.9003 373.4359 L 586.3441 373.2502 L 586.63 375.6657 L 585.6788 375.7851 L 585.8026 376.847 L 584.7959 379.1038 L 586.2162 381.3521 L 583.461 384.2069 L 581.5716 384.2379 L 581.6697 385.3091 L 582.4245 385.1984 L 581.1066 386.7789 L 581.1749 389.2404 L 580.5094 389.2447 L 580.5606 390.8965 L 578.9784 390.6838 L 579.0039 391.3615 L 577.4002 391.0781 L 578.0698 390.1791 L 576.1249 390.3651 L 576.0568 389.5104 L 574.4744 388.7447 L 572.2737 388.4213 L 569.2284 388.315 L 569.0279 389.6391 L 567.0916 388.9527 L 568.1023 390.1835 L 567.4499 391.1045 L 568.3966 391.9902 L 567.1299 392.5082 L 568.5886 394.6296 L 568.8233 396.9949 L 567.484 397.8142 L 567.9787 398.7578 L 566.631 400.1001 L 567.0318 401.5136 L 568.0897 402.9445 L 566.4603 403.6091 L 567.693 406.0464 L 569.4288 405.3862 L 569.6634 406.3567 L 567.7654 406.4454 L 568.4564 407.0303 L 568.5673 408.4397 L 566.0936 408.3334 L 565.1424 406.0331 L 564.4174 407.1589 L 565.4581 408.0808 L 565.0145 411.5381 L 566.678 412.1144 L 565.9443 413.2714 L 567.7142 413.9896 L 568.0726 414.6945 L 566.9337 414.2732 L 566.8187 416.8849 L 568.0385 417.4214 L 567.8635 419.1952 L 567.3816 420.131 L 566.311 419.6608 L 565.8974 420.5391 L 566.9637 420.8894 L 566.5542 421.4392 L 567.5992 421.8164 L 569.4929 420.956 L 575.2677 421.1023 L 575.3061 422.5659 L 576.6154 422.2643 L 576.8842 421.6435 L 578.7096 421.4172 L 578.7182 421.914 L 580.3859 421.7941 L 581.5374 421.0357 L 581.6483 419.9537 L 582.5824 419.7807 L 584.0325 418.0909 L 585.1797 418.0246 L 585.1328 417.4124 L 586.455 417.5014 L 587.0819 418.8007 L 588.3913 418.5388 L 588.5706 420.3792 L 589.8116 422.4239 L 591.5262 422.7035 L 591.5474 424.0077 L 590.4898 424.074 L 590.1528 424.9257 L 590.3235 426.4651 L 591.2234 426.554 L 591.185 428.3464 L 592.567 428.8122 L 592.5839 428.1555 L 594.2942 428.5549 L 594.9083 429.4955 L 594.1833 430.5694 L 594.7038 431.9538 L 596.0558 431.51 L 597.1944 431.8739 L 598.1668 431.3327 L 599.6255 431.3591 L 599.7962 431.8608 L 601.8818 432.0781 L 602.1037 433.9689 L 601.5492 436.5653 L 601.7027 438.6649 L 602.3552 440.5738 L 603.2381 441.4487 L 604.3769 441.2665 L 605.9037 441.6262 L 605.4772 444.2417 L 606.3175 445.6938 Z" fill="[object Object]" fill-opacity="1" stroke="dodgerblue" stroke-width="1" paint-order="fill" stroke-opacity="1" stroke-dasharray="" stroke-linecap="butt" stroke-miterlimit="10" style="filter: url(&quot;#zr2323-shadow-0&quot;);">
</path>
<path d="M 615.7476 339.5312 L 616.9162 336.0695 L 616.9845 334.6435 L 617.7436 333.999 L 619.5137 334.0917 L 619.373 334.6788 L 621.561 335.6235 L 622.1965 334.7231 L 624.6275 335.0631 L 625.5871 335.756 L 625.7536 332.9219 L 626.2312 332.635 L 626.1458 330.8296 L 627.9799 330.2825 L 627.933 329.5453 L 631.6008 329.3467 L 631.7458 328.5171 L 633.2983 329.3554 L 635.3413 332.0832 L 636.5227 332.1759 L 637.9771 330.9136 L 639.9177 330.9664 L 642.1826 330.4897 L 643.2148 329.4835 L 644.8098 329.1656 L 645.569 331.3107 L 646.8314 330.5604 L 647.6333 328.5301 L 648.3669 329.3201 L 649.8213 329.6293 L 649.5782 330.7105 L 651.0838 330.2428 L 651.135 332.2023 L 654.5342 329.5012 L 654.6068 326.1915 L 656.3126 326.1164 L 656.8886 325.4369 L 657.9334 325.8206 L 658.3856 324.1088 L 658.7992 324.2455 L 659.4988 322.1587 L 658.4623 321.3073 L 658.5989 319.0399 L 658.2065 317.9416 L 657.2936 317.6196 L 655.7669 315.9437 L 656.8586 315.2644 L 657.4174 313.2314 L 656.445 312.4643 L 656.0143 311.168 L 656.5048 309.6865 L 655.319 308.7078 L 655.7369 308.1569 L 656.1848 305.3092 L 657.7629 302.3035 L 656.5986 300.9637 L 655.9245 299.0074 L 654.3935 296.7117 L 654.5556 295.7295 L 652.3803 295.9364 L 651.1521 294.1656 L 651.2459 292.8266 L 652.0945 292.7913 L 651.2671 290.9456 L 649.9706 291.1616 L 648.2048 287.1541 L 647.9574 285.9301 L 649.6592 286.2118 L 650.2606 282.5753 L 649.0834 280.964 L 648.2389 280.7528 L 647.0916 282.0733 L 646.3964 283.6053 L 645.0658 283.0242 L 644.7415 283.6097 L 643.6583 282.9889 L 643.2488 281.2809 L 642.0461 281.2588 L 640.6684 279.9824 L 642.2592 279.0624 L 640.7494 278.1955 L 640.3229 276.6506 L 639.1672 274.9652 L 639.0691 274.0545 L 638.0838 272.9763 L 637.8023 271.6389 L 636.6508 270.5126 L 637.0773 268.8627 L 636.1389 266.923 L 636.0537 264.35 L 633.6354 264.3677 L 633.1704 263.8178 L 632.633 261.03 L 631.4984 258.8403 L 629.3361 259.1174 L 627.4211 260.687 L 627.6472 262.103 L 627.0586 262.3404 L 626.5212 264.3369 L 626.632 265.8717 L 623.9194 266.6767 L 623.4675 265.6914 L 621.6248 264.8251 L 620.3838 265.3088 L 619.0658 264.759 L 619.0189 266.9317 L 618.2598 267.4772 L 618.0336 269.1619 L 616.1059 270.1737 L 615.7263 270.9966 L 615.1035 270.0155 L 613.8922 270.3013 L 611.8792 268.5462 L 609.8789 267.574 L 608.9319 267.6619 L 609.4951 266.5097 L 609.06 266.2106 L 608.9491 266.1314 L 603.3233 273.7904 L 602.0651 273.5528 L 602.0482 275.062 L 600.4103 276.0081 L 600.5553 277.3286 L 599.2205 277.9622 L 597.8513 279.758 L 596.6529 279.7316 L 596.2817 278.5827 L 595.045 279.5995 L 594.7464 278.6004 L 595.6719 276.3602 L 594.8914 274.6264 L 594.3626 272.1975 L 590.6135 272.7255 L 589.5045 273.5394 L 589.1804 272.9105 L 588.272 273.1832 L 587.9094 272.369 L 585.5423 272.6067 L 585.5721 274.7585 L 585.214 275.3568 L 583.4184 275.0049 L 581.4904 275.1237 L 581.6612 273.8125 L 580.8721 273.0423 L 580.6461 271.3001 L 578.8503 271.6389 L 578.3515 270.1914 L 577.7074 271.0714 L 577.1571 270.4905 L 574.6408 270.3543 L 574.7048 269.2016 L 573.6555 269.1268 L 573.8219 267.8642 L 570.9644 269.0036 L 569.7529 268.3526 L 568.6654 268.7001 L 567.8549 268.0932 L 568.499 270.816 L 567.6076 272.3911 L 565.6627 272.4044 L 565.2107 273.4383 L 562.1996 273.2931 L 561.5384 272.3957 L 560.9372 272.8487 L 560.5319 275.0489 L 559.0392 275.1632 L 556.672 276.7387 L 556.4672 278.6795 L 557.0132 282.2318 L 555.8319 282.2275 L 554.9616 283.3146 L 554.6632 287.6958 L 557.1625 290.0341 L 557.8789 291.3114 L 557.8706 293.2448 L 558.3099 294.1613 L 557.2946 295.3991 L 556.9236 296.7648 L 556.4076 296.7117 L 555.6143 298.9854 L 555.819 299.9635 L 557.1881 299.8313 L 558.7533 300.7788 L 558.442 302.9512 L 556.4033 303.3787 L 556.7146 305.2254 L 557.2136 305.3753 L 557.717 309.563 L 558.7321 313.13 L 558.1392 315.8202 L 556.4246 317.0991 L 554.8892 316.9493 L 553.4903 317.646 L 553.5584 318.9428 L 554.4116 319.159 L 554.9276 320.2 L 556.8427 320.6941 L 557.6018 321.4308 L 560.1864 321.6072 L 561.7048 323.2484 L 563.1678 324.316 L 565.6243 324.0691 L 567.3347 325.3045 L 569.1303 327.3121 L 570.0686 326.412 L 570.8789 327.2151 L 576.2616 322.6749 L 575.4811 317.324 L 575.4299 314.1487 L 576.2956 315.529 L 576.7135 319.4413 L 579.8825 318.9339 L 580.454 318.0387 L 580.3901 315.2203 L 581.3114 317.9372 L 581.4264 319.8603 L 582.4331 328.5348 L 581.4692 329.0686 L 582.77 334.979 L 583.5846 334.8333 L 583.6017 335.8046 L 584.6723 336.1976 L 584.8173 337.3454 L 585.6616 337.0321 L 586.2376 337.6192 L 587.5512 337.0321 L 588.0927 338.1093 L 591.1593 336.4624 L 591.2574 337.5088 L 592.0636 338.4185 L 592.9806 337.5795 L 593.9147 338.2904 L 594.7121 339.677 L 596.721 339.3724 L 597.8044 339.5356 L 598.3161 341.2183 L 598.7428 340.9708 L 598.1711 338.9615 L 600.551 339.0896 L 601.9159 337.9902 L 602.8714 336.2373 L 604.445 337.0055 L 604.6584 338.1359 L 605.136 337.3454 L 606.053 337.681 L 606.1768 336.8687 L 607.6483 337.4251 L 607.7078 336.6392 L 608.6888 335.9591 L 610.7106 336.5641 L 610.7063 337.4912 L 611.6702 338.0388 L 611.9816 339.1383 L 614.3272 339.1029 L 615.7476 339.5312 Z M 576.2616 322.6749 L 570.8789 327.2151 L 571.0837 328.5435 L 569.817 330.1544 L 570.6742 331.0945 L 573.4252 332.6836 L 574.6963 334.6481 L 576.3937 334.467 L 576.1932 335.9857 L 579.8101 338.7056 L 580.8892 338.339 L 581.2814 335.7162 L 582.77 334.979 L 581.4692 329.0686 L 580.4156 329.179 L 581.0511 330.5074 L 580.5992 330.6398 L 580.6802 332.2069 L 579.0851 331.7389 L 578.9229 329.3821 L 578.2619 329.7264 L 578.7053 328.1948 L 577.9845 323.2527 L 576.9226 323.3938 L 576.9269 325.0176 L 576.2616 322.6749 Z" fill="[object Object]" fill-opacity="1" stroke="dodgerblue" stroke-width="1" paint-order="fill" stroke-opacity="1" stroke-dasharray="" stroke-linecap="butt" stroke-miterlimit="10" style="filter: url(&quot;#zr2323-shadow-0&quot;);">
</path>
<path d="M 538.0209 332.242 L 538.4943 332.1186 L 538.9762 333.4693 L 541.002 332.8688 L 541.7399 331.6949 L 541.177 329.9336 L 541.8849 328.3406 L 543.1133 328.2389 L 546.7131 326.5311 L 548.6708 326.7914 L 550.4578 327.4886 L 550.4152 326.8004 L 552.0443 327.1533 L 552.5989 325.1633 L 551.8867 324.3293 L 551.925 322.8557 L 552.697 322.5865 L 552.5434 321.4881 L 553.4391 321.0734 L 553.5584 318.9428 L 553.4903 317.646 L 554.8892 316.9493 L 556.4246 317.0991 L 558.1392 315.8202 L 558.7321 313.13 L 557.717 309.563 L 557.2136 305.3753 L 556.7146 305.2254 L 556.4033 303.3787 L 558.442 302.9512 L 558.7533 300.7788 L 557.1881 299.8313 L 555.819 299.9635 L 555.6143 298.9854 L 556.4076 296.7117 L 556.9236 296.7648 L 557.2946 295.3991 L 558.3099 294.1613 L 557.8706 293.2448 L 557.8789 291.3114 L 557.1625 290.0341 L 554.6632 287.6958 L 554.9616 283.3146 L 555.8319 282.2275 L 557.0132 282.2318 L 556.4672 278.6795 L 556.672 276.7387 L 559.0392 275.1632 L 560.5319 275.0489 L 560.9372 272.8487 L 561.5384 272.3957 L 560.6981 271.9557 L 558.9454 272.0876 L 557.1155 270.6885 L 557.0601 268.4407 L 555.9981 267.319 L 554.629 267.2926 L 554.1299 266.5097 L 552.2279 265.3923 L 551.2126 266.0082 L 550.0056 265.4978 L 550.3214 263.7784 L 549.7199 261.7555 L 548.8541 261.2189 L 549.7625 260.2604 L 551.1828 257.4423 L 549.9587 256.1411 L 548.8498 255.7191 L 547.7281 252.8532 L 546.9093 253.9695 L 545.6211 253.9431 L 544.8961 253.3851 L 543.4076 253.7718 L 541.7614 252.8575 L 541.6887 252.4004 L 539.1853 252.4094 L 538.1786 251.4467 L 536.7797 251.2667 L 534.8434 251.7236 L 535.0608 252.5456 L 532.9752 253.2663 L 533.4488 252.4224 L 533.7898 250.3568 L 532.6894 248.5332 L 533.2183 248.195 L 533.7428 246.5604 L 532.5701 245.8354 L 530.881 246.4375 L 529.4993 246.5427 L 530.301 244.377 L 531.2308 244.4605 L 531.7768 243.7178 L 530.8255 242.4792 L 528.723 241.9916 L 527.1534 240.1952 L 524.4238 238.1486 L 523.7711 238.2672 L 522.206 237.5602 L 520.0819 238.1002 L 518.6318 238.9258 L 518.2608 236.7563 L 517.4674 236.9584 L 517.6422 239.2685 L 516.0343 241.4206 L 513.5905 239.4001 L 511.6328 239.9798 L 511.0356 239.2641 L 510.0249 239.7955 L 509.7646 241.1394 L 508.886 241.6359 L 508.016 240.1819 L 507.6962 240.8101 L 506.6128 240.8321 L 505.6318 241.4953 L 504.6424 239.8306 L 503.67 239.5583 L 501.4734 239.6549 L 500.9999 241.157 L 497.7073 242.0971 L 495.1312 243.4807 L 494.4786 242.5978 L 493.1649 243.0282 L 492.7725 243.7442 L 490.8362 243.8674 L 488.5801 245.0797 L 488.6654 246.3978 L 488.0256 248.006 L 489.0833 248.4938 L 490.0983 249.6756 L 489.4714 251.6314 L 487.8634 251.9259 L 488.4394 250.8316 L 487.8763 248.6872 L 486.5755 249.5878 L 487.066 250.1812 L 486.4048 250.8006 L 486.4219 251.9523 L 487.6972 252.0752 L 486.5114 253.4642 L 486.5712 255.1782 L 487.3005 257.2971 L 485.4197 258.6293 L 483.3084 258.405 L 482.0545 255.9168 L 482.1355 255.451 L 480.8602 253.508 L 479.3503 253.3147 L 478.4674 253.7277 L 475.9597 253.508 L 475.3456 252.1763 L 474.1982 251.1876 L 473.3238 251.0557 L 472.3002 251.8334 L 470.9525 251.8775 L 469.2293 254.5849 L 469.9672 255.8553 L 468.7731 257.5873 L 467.0116 257.3061 L 466.5253 258.427 L 464.6998 258.5282 L 463.6847 256.3168 L 463.7488 255.2837 L 461.7825 252.4619 L 459.8974 252.8752 L 458.1573 254.9628 L 457.0015 254.0048 L 454.8219 255.3058 L 454.1992 256.3037 L 452.8941 256.7212 L 453.5382 258.7569 L 453.3589 259.5218 L 455.884 260.854 L 456.3743 262.0236 L 454.8262 262.4372 L 453.9987 264.7062 L 454.5192 265.8981 L 454.0287 266.8833 L 454.6385 268.1679 L 453.5339 269.7778 L 451.6188 271.2383 L 452.0027 271.6035 L 451.3331 272.9235 L 450.1902 273.676 L 448.2067 273.8078 L 446.6628 274.5165 L 445.2597 273.9664 L 441.4168 276.2811 L 441.3442 277.5529 L 440.3932 279.705 L 439.3184 279.8021 L 437.5612 279.1769 L 437.6421 279.6963 L 436.3201 281.4263 L 436.192 282.179 L 434.5074 284.6972 L 434.9084 285.8066 L 434.5203 286.4715 L 435.1641 287.2686 L 433.3259 288.8496 L 433.1254 290.7344 L 432.588 291.0691 L 431.8973 292.866 L 430.4215 292.8617 L 428.8776 292.1084 L 427.3677 293.4741 L 428.613 294.5357 L 427.1161 297.3858 L 426.617 297.778 L 427.0946 299.0955 L 428.4809 301.5453 L 428.4383 302.8588 L 429.0907 303.3657 L 430.8522 303.0483 L 431.9911 304.2337 L 432.6819 304.3441 L 434.2003 305.6485 L 438.0431 305.7456 L 438.862 306.4508 L 439.2886 305.8911 L 442.3252 306.8962 L 444.8032 309.5233 L 447.7248 314.2591 L 446.7695 315.3658 L 448.6972 315.9964 L 449.5204 317.3504 L 449.6697 316.0892 L 450.7104 315.6348 L 450.6166 317.7915 L 450.284 318.3253 L 451.5336 320.4736 L 451.9388 322.9394 L 453.7044 321.9733 L 454.2675 321.2586 L 455.5812 320.7691 L 457.8075 321.1485 L 459.394 321.7661 L 459.9357 321.5455 L 462.6016 323.1866 L 464.6529 321.1175 L 465.2672 321.8058 L 466.0775 320.4823 L 467.2759 320.7602 L 468.3166 320.2704 L 468.9224 318.5415 L 469.7498 317.2446 L 470.9866 316.3935 L 471.1828 315.507 L 472.5135 314.9381 L 473.1703 313.7562 L 473.4091 312.0762 L 474.2322 312.182 L 475.5716 310.7666 L 476.6592 311.0182 L 477.9386 310.4933 L 479.2011 311.9264 L 479.9389 311.3752 L 481.4574 312.0322 L 484.3875 311.816 L 485.313 312.1733 L 485.458 310.4669 L 489.4928 310.3522 L 492.9304 309.594 L 492.4911 308.5359 L 493.3825 308.6771 L 492.7385 306.6359 L 492.5465 304.895 L 493.8602 304.4189 L 495.144 303.4141 L 495.69 301.7702 L 495.6089 300.4747 L 497.5197 301.1355 L 497.9718 299.9371 L 499.5798 299.6902 L 499.7929 301.6511 L 500.292 302.6295 L 500.4198 304.5556 L 501.6311 305.2474 L 502.288 304.5333 L 506.0285 306.3273 L 508.7324 306.4287 L 508.3231 311.1547 L 507.6705 311.2694 L 507.9819 312.6628 L 507.3976 314.0959 L 508.5107 314.819 L 509.8927 314.5016 L 510.5323 315.0572 L 511.2873 314.3956 L 510.9716 313.0242 L 512.055 313.3946 L 512.1702 315.1806 L 511.0228 315.8599 L 512.4431 317.7167 L 514.0937 317.4785 L 514.0468 318.2592 L 515.433 321.7794 L 517.5655 320.8573 L 520.133 326.9328 L 520.7557 326.3237 L 521.4595 326.9855 L 523.2637 326.6989 L 524.8247 328.5655 L 526.0188 327.9213 L 525.8057 326.2312 L 527.452 327.4446 L 527.7463 328.4861 L 528.3775 328.389 L 528.2368 327.2504 L 529.1111 327.0342 L 529.0514 326.1562 L 531.2179 325.5163 L 532.3866 325.5383 L 532.4123 324.7133 L 534.3272 324.8588 L 534.4936 325.6221 L 536.2423 325.4102 L 536.4299 326.721 L 535.7006 327.4225 L 534.2719 327.7358 L 534.4212 328.6892 L 533.278 328.9361 L 533.7259 330.6972 L 535.0565 331.1034 L 535.2144 331.8404 L 536.9075 331.814 L 538.0209 332.242 Z" fill="[object Object]" fill-opacity="1" stroke="rgba(30,144,255,1)" stroke-width="1" paint-order="fill" stroke-opacity="1" stroke-dasharray="" stroke-linecap="butt" stroke-miterlimit="10" style="filter: url(&quot;#zr2323-shadow-1&quot;);">
</path>
<path d="M 606.3175 445.6938 L 605.4772 444.2417 L 605.9037 441.6262 L 604.3769 441.2665 L 603.2381 441.4487 L 602.3552 440.5738 L 601.7027 438.6649 L 601.5492 436.5653 L 602.1037 433.9689 L 601.8818 432.0781 L 599.7962 431.8608 L 599.6255 431.3591 L 598.1668 431.3327 L 597.1944 431.8739 L 596.0558 431.51 L 594.7038 431.9538 L 594.1833 430.5694 L 594.9083 429.4955 L 594.2942 428.5549 L 592.5839 428.1555 L 592.567 428.8122 L 591.185 428.3464 L 591.2234 426.554 L 590.3235 426.4651 L 590.1528 424.9257 L 590.4898 424.074 L 591.5474 424.0077 L 591.5262 422.7035 L 589.8116 422.4239 L 588.5706 420.3792 L 588.3913 418.5388 L 587.0819 418.8007 L 586.455 417.5014 L 585.1328 417.4124 L 585.1797 418.0246 L 584.0325 418.0909 L 582.5824 419.7807 L 581.6483 419.9537 L 581.5374 421.0357 L 580.3859 421.7941 L 578.7182 421.914 L 578.7096 421.4172 L 576.8842 421.6435 L 576.6154 422.2643 L 575.3061 422.5659 L 575.2677 421.1023 L 569.4929 420.956 L 567.5992 421.8164 L 566.5542 421.4392 L 566.9637 420.8894 L 565.8974 420.5391 L 566.311 419.6608 L 567.3816 420.131 L 567.8635 419.1952 L 568.0385 417.4214 L 566.8187 416.8849 L 566.9337 414.2732 L 568.0726 414.6945 L 567.7142 413.9896 L 565.9443 413.2714 L 566.678 412.1144 L 565.0145 411.5381 L 565.4581 408.0808 L 564.4174 407.1589 L 565.1424 406.0331 L 566.0936 408.3334 L 568.5673 408.4397 L 568.4564 407.0303 L 567.7654 406.4454 L 569.6634 406.3567 L 569.4288 405.3862 L 567.693 406.0464 L 566.4603 403.6091 L 568.0897 402.9445 L 567.0318 401.5136 L 566.631 400.1001 L 567.9787 398.7578 L 567.484 397.8142 L 568.8233 396.9949 L 568.5886 394.6296 L 567.1299 392.5082 L 568.3966 391.9902 L 567.4499 391.1045 L 565.5989 390.5378 L 565.4965 389.7628 L 563.6197 389.7408 L 562.4853 390.3385 L 562.3915 392.0212 L 560.8943 392.6855 L 561.5086 392.9955 L 559.9562 393.5845 L 559.3761 392.7429 L 557.3927 393.2612 L 557.316 394.3949 L 555.0726 395.1966 L 553.8911 393.9079 L 552.731 393.5179 L 550.6838 391.5962 L 548.8839 392.1542 L 549.2934 390.5954 L 547.4083 390.3961 L 547.4722 389.5194 L 546.0604 389.6654 L 545.0711 389.1784 L 544.0217 390.6175 L 543.1474 389.8514 L 542.8702 391.2508 L 543.6891 391.6225 L 543.9579 393.6729 L 542.0002 393.2169 L 541.9702 394.7713 L 543.0407 394.4479 L 543.5527 395.0992 L 544.508 395.0149 L 545.1734 396.3969 L 545.924 396.8796 L 545.8985 399.4578 L 544.2179 399.4491 L 544.056 401.2697 L 539.1169 401.4603 L 539.5008 403.0021 L 539.7013 407.1366 L 538.2767 407.2962 L 538.0209 403.1661 L 536.993 403.6047 L 535.6877 403.4584 L 535.5386 401.7572 L 533.3164 401.9432 L 532.9411 399.4444 L 533.4402 399.2628 L 533.2056 397.9028 L 531.1241 397.7258 L 530.8939 396.3126 L 528.049 395.7902 L 527.7163 397.2695 L 525.2895 397.4688 L 525.0038 398.2928 L 524.1978 398.2928 L 523.9759 402.3065 L 523.1996 402.3552 L 521.7112 405.4525 L 520.9733 405.9888 L 519.8473 404.6683 L 518.5551 400.3127 L 517.7277 399.6837 L 518.7342 399.0591 L 517.3267 398.9705 L 516.93 398.0978 L 514.2772 398.6871 L 511.8204 399.8167 L 511.2318 398.5008 L 509.6453 399.7414 L 509.6622 402.6078 L 510.1058 403.4231 L 509.8415 405.5368 L 510.2382 407.8502 L 509.8415 409.0913 L 509.722 411.6975 L 508.1012 413.719 L 508.9329 416.1711 L 509.0227 417.4258 L 508.4724 418.4991 L 508.3231 420.038 L 506.6085 421.5502 L 505.6532 423.4089 L 506.1437 424.0077 L 505.4484 427.1262 L 503.4695 430.9066 L 504.3693 432.229 L 503.4907 433.8889 L 503.8619 434.6389 L 502.6035 438.2165 L 502.2966 440.5339 L 502.9876 444.6235 L 503.1154 447.0926 L 502.8254 450.0374 L 503.8576 452.996 L 503.7467 453.8891 L 504.4589 454.418 L 504.2541 456.5684 L 503.4567 457.9727 L 504.4034 460.9014 L 505.1286 461.6302 L 506.5744 460.8348 L 506.2118 462.0482 L 507.4274 462.0036 L 507.9093 463.5639 L 508.5577 463.8883 L 507.8069 465.0307 L 508.626 468.6143 L 508.4383 471.2379 L 508.9798 471.2023 L 508.6174 472.5543 L 508.016 472.8434 L 508.6643 473.9687 L 508.4852 475.383 L 510.123 476.6997 L 510.7754 477.9408 L 510.9547 479.2931 L 513.2748 480.659 L 514.563 480.739 L 515.3049 481.7982 L 516.1069 481.0816 L 520.6107 482.3766 L 520.9519 483.5067 L 522.1248 484.7215 L 522.5472 485.9321 L 523.6006 486.6576 L 523.6218 487.9882 L 524.6497 488.6381 L 524.7564 489.5061 L 526.5691 491.122 L 529.7636 492.2393 L 529.9598 491.5271 L 532.2161 491.7053 L 533.359 492.5866 L 534.5362 492.471 L 537.5942 492.8316 L 538.2767 492.244 L 539.8846 493.0187 L 541.7528 492.9608 L 545.1563 493.8777 L 546.9433 495 L 547.5234 494.1317 L 550.1976 493.4326 L 550.2616 492.3106 L 551.0805 492.1327 L 550.9397 490.9884 L 549.8478 488.9185 L 549.8735 485.8832 L 548.9139 485.1799 L 548.9308 484.2766 L 547.3229 484.0808 L 546.7897 485.3668 L 545.7066 485.9008 L 545.0966 484.5303 L 546.0392 484.5123 L 545.5018 482.7548 L 544.7299 483.4711 L 542.4521 484.3078 L 542.2902 483.4844 L 543.156 482.6346 L 543.7019 480.3653 L 544.5975 480.3564 L 543.7489 477.696 L 541.6759 477.2555 L 541.4073 476.1392 L 540.5032 475.5209 L 540.4689 472.1228 L 541.0575 471.7671 L 542.2219 472.7232 L 544.3075 472.6076 L 544.8322 473.2524 L 544.6444 474.9914 L 544.9515 476.7886 L 546.3931 476.5705 L 546.6619 477.4113 L 548.867 476.7486 L 548.6451 475.0316 L 548.1631 475.0093 L 548.0608 473.0835 L 547.5788 472.225 L 548.2869 472.0072 L 550.8843 472.234 L 550.91 471.6425 L 553.0936 471.9183 L 553.1022 470.8333 L 553.9637 470.0906 L 555.8745 469.7839 L 555.8402 467.6851 L 555.2516 466.9914 L 554.3987 464.5864 L 554.8935 464.9954 L 558.1775 464.8931 L 558.2373 465.7644 L 562.046 465.5509 L 561.9649 463.0483 L 562.4811 462.9814 L 562.6815 461.6215 L 564.2766 461.3547 L 564.4814 459.8792 L 565.8803 459.5991 L 565.6543 458.4214 L 564.4814 458.4527 L 564.3407 457.1727 L 565.0486 455.9819 L 564.6605 454.8977 L 565.4324 453.9247 L 565.3088 453.1829 L 566.567 452.574 L 566.6182 453.1339 L 568.8488 454.0136 L 568.6612 451.8545 L 569.3222 451.2592 L 569.335 453.1872 L 570.4056 453.2895 L 571.9752 451.8322 L 573.0243 451.7745 L 573.9072 451.0547 L 573.8048 449.2113 L 574.5255 449.0427 L 573.7793 447.8522 L 573.7707 446.8618 L 576.513 446.8928 L 576.4747 445.8537 L 579.0851 446.4487 L 579.4049 447.1859 L 580.7442 446.8974 L 581.1621 445.5693 L 582.3264 445.5249 L 582.305 446.8841 L 583.1155 447.106 L 583.4055 448.4874 L 584.1135 448.4074 L 584.1561 450.2552 L 584.8342 450.3662 L 584.9025 451.7878 L 586.4976 452.3608 L 587.9394 452.2586 L 587.9777 450.9304 L 590.0078 451.6723 L 590.2083 452.4807 L 592.4815 452.0367 L 592.3025 451.4857 L 593.4413 450.8238 L 595.0021 450.9038 L 594.9895 451.3212 L 598.8493 452.6496 L 599.9072 451.8721 L 600.3805 453.4937 L 600.9351 453.476 L 601.2549 454.6978 L 602.1549 455.5109 L 606.633 454.1292 L 606.2023 452.7829 L 604.8503 451.9477 L 604.8417 451.4191 L 601.6387 449.4068 L 601.2634 446.511 L 602.2018 446.4044 L 603.0078 447.3148 L 604.4067 446.3777 L 605.5711 446.3244 L 606.3175 445.6938 Z" fill="[object Object]" fill-opacity="1" stroke="dodgerblue" stroke-width="1" paint-order="fill" stroke-opacity="1" stroke-dasharray="" stroke-linecap="butt" stroke-miterlimit="10" style="filter: url(&quot;#zr2323-shadow-0&quot;);">
</path>
<path d="M 517.4674 236.9584 L 518.2608 236.7563 L 518.6318 238.9258 L 520.0819 238.1002 L 522.206 237.5602 L 523.7711 238.2672 L 524.4238 238.1486 L 527.1534 240.1952 L 528.723 241.9916 L 530.8255 242.4792 L 531.7768 243.7178 L 531.2308 244.4605 L 530.301 244.377 L 529.4993 246.5427 L 530.881 246.4375 L 532.5701 245.8354 L 533.7428 246.5604 L 533.2183 248.195 L 532.6894 248.5332 L 533.7898 250.3568 L 533.4488 252.4224 L 532.9752 253.2663 L 535.0608 252.5456 L 534.8434 251.7236 L 536.7797 251.2667 L 538.1786 251.4467 L 539.1853 252.4094 L 541.6887 252.4004 L 541.7614 252.8575 L 543.4076 253.7718 L 544.8961 253.3851 L 545.6211 253.9431 L 546.9093 253.9695 L 547.7281 252.8532 L 548.8498 255.7191 L 549.9587 256.1411 L 551.1828 257.4423 L 549.7625 260.2604 L 548.8541 261.2189 L 549.7199 261.7555 L 550.3214 263.7784 L 550.0056 265.4978 L 551.2126 266.0082 L 552.2279 265.3923 L 554.1299 266.5097 L 554.629 267.2926 L 555.9981 267.319 L 557.0601 268.4407 L 557.1155 270.6885 L 558.9454 272.0876 L 560.6981 271.9557 L 561.5384 272.3957 L 562.1996 273.2931 L 565.2107 273.4383 L 565.6627 272.4044 L 567.6076 272.3911 L 568.499 270.816 L 567.8549 268.0932 L 568.6654 268.7001 L 569.7529 268.3526 L 570.9644 269.0036 L 573.8219 267.8642 L 573.6555 269.1268 L 574.7048 269.2016 L 574.6408 270.3543 L 577.1571 270.4905 L 577.7074 271.0714 L 578.3515 270.1914 L 578.8503 271.6389 L 580.6461 271.3001 L 580.8721 273.0423 L 581.6612 273.8125 L 581.4904 275.1237 L 583.4184 275.0049 L 585.214 275.3568 L 585.5721 274.7585 L 585.5423 272.6067 L 587.9094 272.369 L 588.272 273.1832 L 589.1804 272.9105 L 589.5045 273.5394 L 590.6135 272.7255 L 594.3626 272.1975 L 594.8914 274.6264 L 595.6719 276.3602 L 594.7464 278.6004 L 595.045 279.5995 L 596.2817 278.5827 L 596.6529 279.7316 L 597.8513 279.758 L 599.2205 277.9622 L 600.5553 277.3286 L 600.4103 276.0081 L 602.0482 275.062 L 602.0651 273.5528 L 603.3233 273.7904 L 608.9491 266.1314 L 609.06 266.2106 L 612.2204 260.8847 L 612.7067 261.1839 L 613.9391 259.0514 L 616.0676 257.5435 L 615.112 257.0423 L 613.9306 254.6246 L 613.2867 254.5849 L 613.0562 252.6729 L 611.6147 252.1676 L 610.2201 252.7213 L 610.0963 251.2447 L 607.4947 252.361 L 607.4733 251.2754 L 605.7972 251.2403 L 605.9849 249.913 L 606.7185 249.2362 L 607.034 246.7624 L 606.3687 246.7624 L 606.5735 245.2467 L 604.8034 245.2072 L 605.166 243.1117 L 603.9845 243.2303 L 602.4406 241.8159 L 602.5642 240.9463 L 604.4281 239.0137 L 603.5026 238.2539 L 603.9376 235.8342 L 603.8138 234.2668 L 604.8886 234.1349 L 605.8911 233.2481 L 606.0873 232.1944 L 606.9871 232.0233 L 609.5034 230.7151 L 607.8914 229.7141 L 607.7293 229.0908 L 606.3261 229.7845 L 605.6692 228.213 L 605.9165 225.1584 L 604.4622 223.3503 L 605.392 223.5477 L 606.3773 222.9775 L 605.0422 221.468 L 605.1105 219.5375 L 605.9251 218.7742 L 605.0336 218.2698 L 604.5603 219.1734 L 602.3723 218.397 L 600.8412 216.1906 L 600.2098 216.55 L 599.7664 213.9974 L 599.7834 212.4757 L 601.997 213.1993 L 599.9198 211.4537 L 599.7621 210.0068 L 600.7772 209.3316 L 600.9308 206.293 L 601.3315 204.6317 L 603.4385 203.023 L 603.6093 201.5021 L 604.6243 200.757 L 603.6774 199.3546 L 602.5302 198.6402 L 601.4127 196.6467 L 601.5492 195.1394 L 599.2162 194.0484 L 597.493 194.2017 L 596.4182 192.6903 L 594.1321 193.2423 L 594.7335 191.8623 L 597.523 192.0638 L 596.9599 190.6402 L 598.329 189.9615 L 600.9777 190.2155 L 603.123 189.6855 L 603.2552 188.8226 L 604.0826 188.2796 L 604.04 185.6695 L 602.9395 183.0117 L 603.4812 182.5124 L 602.8457 181.6107 L 603.4045 180.2491 L 602.2571 179.483 L 602.7433 178.5375 L 602.449 177.3163 L 601.643 176.8303 L 600.696 175.3029 L 601.3827 174.4933 L 602.0694 174.8477 L 602.159 172.9792 L 601.5108 172.5721 L 601.417 171.3558 L 603.6007 169.0849 L 603.3874 167.1949 L 603.6902 165.6509 L 603.123 163.2845 L 604.0314 162.3311 L 603.8095 161.3078 L 604.155 158.5485 L 606.2961 157.2851 L 606.3304 156.0739 L 608.416 155.3789 L 609.7851 154.2204 L 610.8044 153.9099 L 611.039 152.9657 L 612.3228 152.3275 L 612.5659 151.5672 L 613.9348 151.3659 L 615.2358 152.3495 L 618.2427 152.9788 L 618.8782 151.8948 L 618.7929 150.3127 L 619.2832 149.727 L 619.5649 145.2349 L 618.7246 143.317 L 618.0039 140.1106 L 617.5774 139.1058 L 618.1958 137.4418 L 620.2088 139.9882 L 622.1153 140.6085 L 623.6551 139.7568 L 625.3142 139.4028 L 626.8539 139.6956 L 627.9927 139.1626 L 629.6816 136.6122 L 628.6025 134.0182 L 631.797 132.717 L 631.9634 131.6516 L 633.0937 131.4813 L 633.3452 130.5296 L 635.2689 130.1192 L 634.2707 127.8624 L 636.0451 127.3384 L 636.463 126.2518 L 637.5335 126.5879 L 639.2438 125.6277 L 637.8664 124.7328 L 638.2671 122.0664 L 637.1582 120.9015 L 637.0432 120.1553 L 635.8617 120.0462 L 634.0405 119.0251 L 633.8742 117.638 L 632.8121 116.2811 L 631.4175 115.8188 L 631.3365 115.2298 L 629.6133 115.3083 L 629.2123 114.6236 L 627.9968 114.34 L 627.2206 114.7414 L 626.295 114.3139 L 625.7364 112.796 L 624.2863 112.7524 L 622.721 114.8156 L 622.0172 114.3925 L 622.0003 111.9978 L 620.8955 110.9949 L 620.9424 109.595 L 616.7755 104.6072 L 615.8714 104.5681 L 615.2656 103.3604 L 613.7856 103.9576 L 613.0522 103.6264 L 613.2484 101.486 L 611.363 100.9935 L 609.222 99.6338 L 607.3197 99.3331 L 606.4454 98.4047 L 605.9422 97.0102 L 604.556 95.96 L 603.8352 95.8904 L 604.6029 92.8273 L 605.6649 91.2678 L 603.9462 90.7277 L 603.6007 89.2511 L 602.5856 89.4733 L 601.6813 88.7981 L 601.5961 87.6788 L 600.3336 86.6204 L 598.9304 84.8262 L 598.5123 81.7172 L 596.6101 79.4273 L 596.6101 78.0646 L 597.2925 76.7718 L 598.1159 76.2541 L 597.5528 75.2702 L 597.6594 71.4014 L 599.2674 69.561 L 599.2502 68.0033 L 599.856 67.8119 L 600.8796 65.7542 L 600.2441 64.6275 L 600.1117 62.4877 L 599.3483 61.3352 L 599.5317 60.4351 L 598.794 59.3915 L 597.6211 60.1697 L 596.4182 59.9133 L 595.6634 58.9218 L 594.0171 58.8392 L 592.3451 57.5826 L 591.7139 56.2346 L 590.3917 55.3826 L 589.1123 55.6739 L 588.4553 55.0824 L 587.0095 55 L 585.6319 56.7303 L 584.0751 57.0172 L 584.3353 58.3043 L 583.4696 60.4436 L 583.5975 61.7178 L 584.3054 62.0964 L 585.0475 63.6535 L 585.3845 65.9064 L 585.184 67.2509 L 584.6296 67.6639 L 583.7553 70.5617 L 584.1989 71.8803 L 583.6784 76.071 L 580.2621 78.3999 L 578.6158 77.8688 L 575.6046 75.2572 L 574.4317 73.808 L 572.8111 73.3117 L 572.278 74.6263 L 570.0772 74.796 L 568.8871 74.1822 L 567.5906 74.6132 L 567.1385 75.4228 L 565.3643 76.6805 L 564.315 76.5456 L 563.6454 78.2781 L 561.2441 78.082 L 559.6576 77.3986 L 559.0435 77.5381 L 557.3886 76.3019 L 556.0279 77.2159 L 555.0597 77.3508 L 553.0084 75.7491 L 551.2512 76.8414 L 550.4749 80.0541 L 550.799 81.1644 L 549.6047 84.086 L 551.1104 85.2572 L 551.2212 86.3722 L 552.6372 89.1464 L 552.4793 89.839 L 553.6353 90.2094 L 553.8827 91.9038 L 554.9404 93.359 L 555.7507 98.2521 L 555.0299 99.8125 L 553.051 99.7252 L 551.895 98.5659 L 550.2744 98.3612 L 549.818 98.749 L 547.3955 98.8928 L 546.2311 97.8121 L 543.7872 98.0909 L 542.7252 98.7927 L 540.8997 97.1671 L 539.6289 97.0888 L 539.1767 95.6639 L 538.4474 95.1583 L 536.8437 92.5138 L 536.6687 90.9673 L 535.7944 89.6911 L 535.837 88.9985 L 533.8795 86.8557 L 532.7492 87.0341 L 531.5508 88.9156 L 529.755 88.9243 L 527.6694 90.7277 L 527.452 91.7295 L 526.4922 93.0628 L 526.761 95.873 L 526.5563 97.4679 L 528.1471 98.7577 L 528.6461 100.1698 L 530.5186 102.0483 L 531.8749 102.8372 L 532.988 104.1145 L 533.1159 105.0779 L 534.805 106.4686 L 536.2039 108.662 L 537.8288 109.111 L 538.2512 111.008 L 539.7865 112.1898 L 541.1813 115.605 L 541.2452 116.8483 L 542.9855 117.9477 L 544.5122 119.7278 L 547.4381 120.2817 L 548.065 121.8309 L 548.0865 123.4367 L 550.3256 125.3963 L 550.5645 126.4481 L 551.6007 126.3826 L 552.4539 129.0366 L 552.3003 130.6954 L 553.358 132.8478 L 553.277 133.3327 L 554.514 133.743 L 556.3052 133.647 L 557.3032 135.3893 L 558.5699 135.9002 L 559.4016 136.8697 L 560.3741 136.5771 L 560.9157 137.7127 L 560.6941 140.4467 L 561.6408 141.303 L 563.1166 141.8404 L 562.2592 143.4654 L 562.5151 145.921 L 561.7218 147.6644 L 561.1631 147.6383 L 560.9584 148.7918 L 561.5598 150.1553 L 560.7153 151.2656 L 560.5405 152.4936 L 560.8688 153.8313 L 559.6404 153.9624 L 558.0411 155.3 L 556.9322 158.7147 L 557.6999 160.092 L 558.8599 160.1883 L 560.6429 160.9491 L 561.5341 160.4376 L 563.0739 160.6342 L 563.8459 162.4317 L 564.4217 162.8733 L 564.0719 163.7395 L 565.8377 164.4261 L 566.341 165.4627 L 568.4905 164.8941 L 569.3179 165.686 L 569.5055 166.6788 L 570.5889 167.3613 L 570.7553 168.6606 L 571.3139 168.6473 L 573.3526 170.2705 L 575.3956 170.4413 L 575.4341 171.6927 L 574.3934 173.3773 L 572.8111 172.5414 L 570.862 173.4518 L 569.5014 172.9441 L 568.3371 173.3422 L 568.2645 174.9573 L 567.5906 176.0382 L 567.0361 178.5506 L 567.6547 180.4593 L 566.631 181.4266 L 566.7632 182.6701 L 565.4496 184.9293 L 563.9526 185.8139 L 563.0056 187.7058 L 562.2763 187.7145 L 561.3722 190.4825 L 560.3229 190.9339 L 559.5638 192.5152 L 557.1796 193.1241 L 556.1729 196.2434 L 554.3304 197.869 L 553.6182 199.3239 L 552.36 200.8752 L 553.3622 202.3875 L 554.2749 202.3437 L 555.4907 203.6411 L 557.9942 203.1894 L 558.7064 202.5803 L 559.8666 202.5803 L 560.4167 204.5352 L 561.6279 205.2672 L 562.7582 207.1917 L 564.2297 208.4239 L 564.2169 209.7305 L 562.6773 211.0548 L 562.0203 212.0765 L 558.7235 212.6598 L 557.7425 212.4667 L 556.9663 211.581 L 553.8399 211.5984 L 553.3025 211.0328 L 551.7374 210.6426 L 551.3364 212.6905 L 548.7389 212.4493 L 546.6874 213.4315 L 544.2051 212.8572 L 543.3267 212.1202 L 542.7167 212.5238 L 541.2537 212.3965 L 538.6436 214.9622 L 537.0911 214.0806 L 537.3469 212.3835 L 535.2015 211.3792 L 535.5641 209.805 L 535.3467 208.3624 L 533.7345 207.4155 L 532.9752 207.5996 L 531.1668 206.9725 L 529.4523 207.753 L 528.1642 207.3761 L 527.0084 207.8713 L 525.7672 207.297 L 524.2702 207.4593 L 522.2272 209.7305 L 521.6174 209.7569 L 520.3038 211.3572 L 518.9558 211.0986 L 517.8384 211.4932 L 518.4696 214.2035 L 519.8687 216.1729 L 520.9307 216.7211 L 519.7278 218.8049 L 518.2734 220.3272 L 518.3844 221.1038 L 517.4503 223.5697 L 517.6296 224.9433 L 518.4015 226.725 L 518.8494 229.0644 L 517.8896 230.175 L 517.3779 229.7932 L 517.1903 231.0398 L 517.8215 232.3964 L 517.0579 233.4105 L 517.4417 234.0033 L 516.6783 235.7728 L 517.4674 236.9584 Z" fill="[object Object]" fill-opacity="1" stroke="rgba(30,144,255,1)" stroke-width="1" paint-order="fill" stroke-opacity="1" stroke-dasharray="" stroke-linecap="butt" stroke-miterlimit="10" style="filter: url(&quot;#zr2323-shadow-1&quot;);">
</path>
<path d="M 654.5342 329.5012 L 655.1399 330.459 L 656.0355 330.2558 L 656.6069 333.4119 L 659.3666 332.9085 L 660.6333 333.4339 L 662.3308 334.6965 L 662.4375 335.3323 L 664.6169 334.9703 L 665.9817 335.1822 L 666.5575 334.6435 L 667.3635 335.2793 L 667.1758 334.2905 L 668.1142 334.2331 L 667.8114 332.9085 L 669.061 331.9508 L 670.1786 330.0396 L 672.7888 329.5542 L 673.1854 329.0862 L 672.9081 327.3211 L 674.7763 327.1226 L 675.4289 326.3944 L 676.704 326.0147 L 676.5037 325.0926 L 678.8281 324.753 L 678.8153 325.7678 L 679.647 324.8147 L 679.7579 323.0365 L 683.4941 322.9131 L 684.2789 323.941 L 686.6716 323.7735 L 688.5865 325.6664 L 690.6935 326.0501 L 694.1654 324.6118 L 694.9586 322.9218 L 694.6173 322.41 L 697.4239 323.3014 L 698.1104 323.9853 L 699.744 323.8659 L 700.3198 322.7453 L 699.3219 321.6866 L 700.1065 320.6587 L 700.887 320.9367 L 701.4244 323.6234 L 702.7978 324.4044 L 702.593 325.0442 L 704.1583 324.3557 L 704.7555 322.5734 L 703.8257 322.6088 L 703.9621 321.8058 L 705.9413 320.0148 L 705.3398 318.7797 L 705.3824 317.1962 L 708.0823 317.7254 L 708.0652 316.6494 L 708.9224 316.2039 L 709.0079 315.3131 L 710.4323 313.9945 L 710.8844 313.0772 L 712.3388 312.6802 L 713.1364 311.794 L 714.4158 312.6628 L 715.4054 312.4246 L 716.719 312.9625 L 717.346 314.3164 L 718.2544 314.6955 L 718.7236 313.7429 L 718.5189 312.5657 L 720.5107 310.4756 L 722.8906 311.146 L 722.8863 310.489 L 724.0932 309.2237 L 725.0359 306.2172 L 726.2898 305.4063 L 727.2708 305.7984 L 728.2304 305.2034 L 729.7914 306.5522 L 729.7276 307.1121 L 733.4935 306.3406 L 733.9671 305.415 L 734.9779 305.1506 L 735.0845 304.0267 L 733.7878 304.0838 L 734.756 303.0614 L 734.0309 302.5238 L 735.8479 300.7831 L 735.1784 298.7958 L 733.9073 296.7868 L 734.4447 296.2405 L 735.6005 296.3286 L 736.5389 295.4211 L 737.524 296.4254 L 738.1723 295.4606 L 739.1917 295.5179 L 740.0491 296.5709 L 739.921 295.3594 L 742.4885 295.9057 L 742.1687 295.1699 L 744.1265 293.5355 L 744.8472 293.637 L 745.4487 292.4785 L 743.41 291.0074 L 741.5035 292.2759 L 740.6334 292.3904 L 740.693 290.3645 L 740.096 290.4657 L 739.7079 288.7218 L 742.4802 288.1624 L 740.9575 286.9338 L 739.4817 286.2823 L 739.3069 284.0192 L 742.5995 283.1915 L 741.8447 281.4747 L 741.192 281.7081 L 738.5733 280.1673 L 735.7753 280.229 L 734.8414 281.0432 L 734.0097 281.0696 L 733.323 279.6786 L 732.7556 279.5775 L 732.3463 277.4121 L 731.617 276.5187 L 732.0903 273.7157 L 731.1562 271.8763 L 731.2331 271.1592 L 730.4186 265.7882 L 729.8555 264.6975 L 728.2475 266.1181 L 726.9084 265.9378 L 726.9167 266.7822 L 724.3621 267.8204 L 722.7327 267.8424 L 721.9267 265.63 L 722.3915 264.3633 L 722.1186 262.7714 L 720.5747 261.285 L 718.2503 259.5615 L 718.3227 257.9699 L 717.7426 256.4884 L 717.6274 255.0112 L 718.3782 253.2004 L 716.7788 252.1807 L 715.2901 252.0445 L 715.5547 251.3412 L 714.7315 250.6119 L 714.177 247.9665 L 714.1386 246.3583 L 713.3241 246.0113 L 712.8293 244.4559 L 711.7118 242.8569 L 710.6456 242.6812 L 708.4276 243.1117 L 707.9628 241.3458 L 706.8668 240.753 L 705.357 241.8116 L 704.0133 242.0136 L 703.0366 241.2579 L 700.1919 240.7396 L 698.9976 241.4864 L 697.0698 241.671 L 696.5536 242.4528 L 694.4426 241.5304 L 693.9776 242.4705 L 692.3739 242.8613 L 691.3376 244.8031 L 688.4287 245.8794 L 687.8658 246.5473 L 686.2536 247.2723 L 682.8798 245.4226 L 681.5919 246.0374 L 679.6811 248.1729 L 677.1264 249.4913 L 677.0409 250.1942 L 675.9492 250.1986 L 674.7251 251.6094 L 673.0702 251.6491 L 672.1447 250.5942 L 670.3065 250.9942 L 668.98 251.6841 L 667.628 251.4291 L 666.5489 252.0488 L 664.8855 254.6156 L 664.3866 256.251 L 663.7254 256.651 L 663.8406 257.9171 L 664.604 259.9528 L 662.7061 261.9755 L 663.1325 263.541 L 661.9596 264.3807 L 660.4286 264.4424 L 660.4712 265.2253 L 658.987 265.1813 L 656.4536 266.8569 L 656.2871 268.2691 L 654.547 269.1091 L 654.2356 269.9363 L 652.295 272.4705 L 652.986 273.5394 L 654.5044 274.7672 L 656.0355 274.4064 L 657.3791 275.6298 L 657.0122 276.9631 L 654.1247 280.1937 L 653.3827 280.2113 L 652.8282 279.2694 L 651.4676 279.265 L 651.2116 279.9867 L 649.4161 280.3081 L 649.0834 280.964 L 650.2606 282.5753 L 649.6592 286.2118 L 647.9574 285.9301 L 648.2048 287.1541 L 649.9706 291.1616 L 651.2671 290.9456 L 652.0945 292.7913 L 651.2459 292.8266 L 651.1521 294.1656 L 652.3803 295.9364 L 654.5556 295.7295 L 654.3935 296.7117 L 655.9245 299.0074 L 656.5986 300.9637 L 657.7629 302.3035 L 656.1848 305.3092 L 655.7369 308.1569 L 655.319 308.7078 L 656.5048 309.6865 L 656.0143 311.168 L 656.445 312.4643 L 657.4174 313.2314 L 656.8586 315.2644 L 655.7669 315.9437 L 657.2936 317.6196 L 658.2065 317.9416 L 658.5989 319.0399 L 658.4623 321.3073 L 659.4988 322.1587 L 658.7992 324.2455 L 658.3856 324.1088 L 657.9334 325.8206 L 656.8886 325.4369 L 656.3126 326.1164 L 654.6068 326.1915 L 654.5342 329.5012 Z" fill="[object Object]" fill-opacity="1" stroke="dodgerblue" stroke-width="1" paint-order="fill" stroke-opacity="1" stroke-dasharray="" stroke-linecap="butt" stroke-miterlimit="10" style="filter: url(&quot;#zr2323-shadow-0&quot;);">
</path>
<path d="M 707.9628 241.3458 L 708.5257 240.5245 L 709.0119 238.2716 L 710.3044 237.5338 L 710.6242 236.3041 L 711.3878 236.2119 L 711.3449 235.3382 L 710.5561 234.4642 L 710.7394 232.5765 L 710.0399 230.0303 L 712.0359 228.4806 L 712.6202 227.3833 L 714.8468 225.0749 L 716.0068 223.1705 L 713.8231 222.1744 L 713.725 220.9722 L 711.9209 219.621 L 710.5389 219.3137 L 709.8608 217.5064 L 710.6839 215.9888 L 709.3917 215.5325 L 708.3467 214.0676 L 708.8926 212.5853 L 706.743 208.9718 L 705.5489 208.9457 L 704.8067 208.0249 L 704.8365 207.2007 L 706.0435 205.4908 L 705.6384 205.3505 L 706.1501 203.891 L 707.1609 203.606 L 709.2893 204.465 L 711.153 202.9528 L 712.6374 204.2459 L 714.4201 203.4393 L 715.9642 203.9258 L 716.1645 202.8038 L 715.623 202.3173 L 714.3306 199.8936 L 713.6951 197.6237 L 712.761 196.5588 L 713.4093 196.0726 L 713.1919 194.3989 L 715.2518 193.1241 L 717.0602 191.2273 L 718.0155 190.7762 L 719.2525 191.0913 L 720.5447 189.8081 L 723.3939 189.3349 L 725.8974 186.2825 L 728.674 186.2474 L 729.284 186.8476 L 730.5422 186.7072 L 732.2056 185.3147 L 733.6854 185.1482 L 734.2954 186.0636 L 736.927 186.8429 L 737.6009 188.3671 L 738.8719 189.0635 L 739.4774 190.2679 L 741.6954 190.8461 L 742.7871 189.0328 L 743.9984 188.6431 L 744.6084 187.3074 L 746.6257 188.4941 L 748.2081 188.7087 L 749.9951 186.7991 L 749.9568 185.9366 L 748.6134 185.3541 L 748.0843 182.7884 L 748.3148 182.1621 L 746.8859 180.109 L 746.4764 178.9139 L 747.9479 175.5435 L 750.0549 173.2329 L 751.6288 173.3205 L 752.5031 172.6991 L 753.8465 172.5895 L 754.8956 168.6563 L 754.3711 167.6412 L 755.3947 166.9368 L 753.8934 166.2763 L 756.525 165.8739 L 756.9941 167.0769 L 757.7234 166.8406 L 758.7856 168.2187 L 759.2844 168.2274 L 759.7835 170.6993 L 761.4512 171.1983 L 762.2232 170.5111 L 764.36 170.463 L 764.6755 168.2011 L 765.2983 167.7594 L 764.8505 165.8739 L 767.1108 165.0254 L 767.2475 163.8488 L 764.8717 161.3603 L 762.9184 159.8386 L 761.1612 159.3445 L 760.6835 158.8153 L 758.4613 160.092 L 757.1734 160.3106 L 754.883 159.2001 L 752.4903 159.4755 L 751.4921 157.5736 L 750.5497 158.1112 L 749.2701 157.11 L 747.8243 156.6597 L 746.9073 156.9351 L 745.7599 156.5724 L 743.3119 157.5255 L 741.2261 157.4162 L 739.4305 158.8765 L 737.878 158.6317 L 735.6689 160.2059 L 732.133 160.337 L 730.9643 162.0994 L 731.1562 162.7817 L 729.9793 163.582 L 727.7996 164.4568 L 721.53 163.9407 L 719.1203 162.7774 L 719.1246 161.9376 L 718.0584 161.251 L 716.9067 159.4581 L 715.6101 158.2382 L 714.6675 158.6973 L 711.5797 159.4581 L 710.091 158.3954 L 709.8608 157.578 L 706.9051 155.9733 L 706.6237 155.3 L 705.2546 155.2956 L 704.8024 154.627 L 703.5697 154.3164 L 702.6399 154.6661 L 701.8637 154.1285 L 699.5095 153.9099 L 699.2023 154.7229 L 698.3237 154.863 L 696.8139 153.3592 L 695.8969 153.2148 L 694.8264 154.1111 L 692.3953 153.3943 L 691.3674 153.8751 L 689.3201 153.4772 L 688.5653 152.8654 L 686.3219 153.0924 L 684.8675 150.8721 L 681.7028 151.602 L 679.8475 152.5548 L 678.8493 152.402 L 677.9624 153.1058 L 674.1962 152.6949 L 673.4924 153.1669 L 671.3727 153.0138 L 669.6624 153.8574 L 669.5557 154.6183 L 668.6302 155.2521 L 667.9778 154.6487 L 666.0286 154.1984 L 665.0348 154.7229 L 663.4225 154.5133 L 662.8042 153.8356 L 660.3517 152.7865 L 659.8869 152.2532 L 658.2065 152.3452 L 657.716 151.602 L 656.1038 151.3836 L 655.1826 150.505 L 655.4597 148.9667 L 654.1675 147.3805 L 651.4164 145.7943 L 650.6147 144.9945 L 650.2051 142.2945 L 647.3176 140.9055 L 646.6992 139.3549 L 647.595 137.3894 L 646.6309 134.9221 L 646.6738 133.0662 L 642.835 132.097 L 641.6154 132.2455 L 640.8861 130.8877 L 640.8732 128.4561 L 641.2273 126.8889 L 639.6746 126.3695 L 639.2438 125.6277 L 637.5335 126.5879 L 636.463 126.2518 L 636.0451 127.3384 L 634.2707 127.8624 L 635.2689 130.1192 L 633.3452 130.5296 L 633.0937 131.4813 L 631.9634 131.6516 L 631.797 132.717 L 628.6025 134.0182 L 629.6816 136.6122 L 627.9927 139.1626 L 626.8539 139.6956 L 625.3142 139.4028 L 623.6551 139.7568 L 622.1153 140.6085 L 620.2088 139.9882 L 618.1958 137.4418 L 617.5774 139.1058 L 618.0039 140.1106 L 618.7246 143.317 L 619.5649 145.2349 L 619.2832 149.727 L 618.7929 150.3127 L 618.8782 151.8948 L 618.2427 152.9788 L 615.2358 152.3495 L 613.9348 151.3659 L 612.5659 151.5672 L 612.3228 152.3275 L 611.039 152.9657 L 610.8044 153.9099 L 609.7851 154.2204 L 608.416 155.3789 L 606.3304 156.0739 L 606.2961 157.2851 L 604.155 158.5485 L 603.8095 161.3078 L 604.0314 162.3311 L 603.123 163.2845 L 603.6902 165.6509 L 603.3874 167.1949 L 603.6007 169.0849 L 601.417 171.3558 L 601.5108 172.5721 L 602.159 172.9792 L 602.0694 174.8477 L 601.3827 174.4933 L 600.696 175.3029 L 601.643 176.8303 L 602.449 177.3163 L 602.7433 178.5375 L 602.2571 179.483 L 603.4045 180.2491 L 602.8457 181.6107 L 603.4812 182.5124 L 602.9395 183.0117 L 604.04 185.6695 L 604.0826 188.2796 L 603.2552 188.8226 L 603.123 189.6855 L 600.9777 190.2155 L 598.329 189.9615 L 596.9599 190.6402 L 597.523 192.0638 L 594.7335 191.8623 L 594.1321 193.2423 L 596.4182 192.6903 L 597.493 194.2017 L 599.2162 194.0484 L 601.5492 195.1394 L 601.4127 196.6467 L 602.5302 198.6402 L 603.6774 199.3546 L 604.6243 200.757 L 603.6093 201.5021 L 603.4385 203.023 L 601.3315 204.6317 L 600.9308 206.293 L 600.7772 209.3316 L 599.7621 210.0068 L 599.9198 211.4537 L 601.997 213.1993 L 599.7834 212.4757 L 599.7664 213.9974 L 600.2098 216.55 L 600.8412 216.1906 L 602.3723 218.397 L 604.5603 219.1734 L 605.0336 218.2698 L 605.9251 218.7742 L 605.1105 219.5375 L 605.0422 221.468 L 606.3773 222.9775 L 605.392 223.5477 L 604.4622 223.3503 L 605.9165 225.1584 L 605.6692 228.213 L 606.3261 229.7845 L 607.7293 229.0908 L 607.8914 229.7141 L 609.5034 230.7151 L 606.9871 232.0233 L 606.0873 232.1944 L 605.8911 233.2481 L 604.8886 234.1349 L 603.8138 234.2668 L 603.9376 235.8342 L 603.5026 238.2539 L 604.4281 239.0137 L 602.5642 240.9463 L 602.4406 241.8159 L 603.9845 243.2303 L 605.166 243.1117 L 604.8034 245.2072 L 606.5735 245.2467 L 606.3687 246.7624 L 607.034 246.7624 L 606.7185 249.2362 L 605.9849 249.913 L 605.7972 251.2403 L 607.4733 251.2754 L 607.4947 252.361 L 610.0963 251.2447 L 610.2201 252.7213 L 611.6147 252.1676 L 613.0562 252.6729 L 613.2867 254.5849 L 613.9306 254.6246 L 615.112 257.0423 L 616.0676 257.5435 L 613.9391 259.0514 L 612.7067 261.1839 L 612.2204 260.8847 L 609.06 266.2106 L 609.4951 266.5097 L 608.9319 267.6619 L 609.8789 267.574 L 611.8792 268.5462 L 613.8922 270.3013 L 615.1035 270.0155 L 615.7263 270.9966 L 616.1059 270.1737 L 618.0336 269.1619 L 618.2598 267.4772 L 619.0189 266.9317 L 619.0658 264.759 L 620.3838 265.3088 L 621.6248 264.8251 L 623.4675 265.6914 L 623.9194 266.6767 L 626.632 265.8717 L 626.5212 264.3369 L 627.0586 262.3404 L 627.6472 262.103 L 627.4211 260.687 L 629.3361 259.1174 L 631.4984 258.8403 L 632.633 261.03 L 633.1704 263.8178 L 633.6354 264.3677 L 636.0537 264.35 L 636.1389 266.923 L 637.0773 268.8627 L 636.6508 270.5126 L 637.8023 271.6389 L 638.0838 272.9763 L 639.0691 274.0545 L 639.1672 274.9652 L 640.3229 276.6506 L 640.7494 278.1955 L 642.2592 279.0624 L 640.6684 279.9824 L 642.0461 281.2588 L 643.2488 281.2809 L 643.6583 282.9889 L 644.7415 283.6097 L 645.0658 283.0242 L 646.3964 283.6053 L 647.0916 282.0733 L 648.2389 280.7528 L 649.0834 280.964 L 649.4161 280.3081 L 651.2116 279.9867 L 651.4676 279.265 L 652.8282 279.2694 L 653.3827 280.2113 L 654.1247 280.1937 L 657.0122 276.9631 L 657.3791 275.6298 L 656.0355 274.4064 L 654.5044 274.7672 L 652.986 273.5394 L 652.295 272.4705 L 654.2356 269.9363 L 654.547 269.1091 L 656.2871 268.2691 L 656.4536 266.8569 L 658.987 265.1813 L 660.4712 265.2253 L 660.4286 264.4424 L 661.9596 264.3807 L 663.1325 263.541 L 662.7061 261.9755 L 664.604 259.9528 L 663.8406 257.9171 L 663.7254 256.651 L 664.3866 256.251 L 664.8855 254.6156 L 666.5489 252.0488 L 667.628 251.4291 L 668.98 251.6841 L 670.3065 250.9942 L 672.1447 250.5942 L 673.0702 251.6491 L 674.7251 251.6094 L 675.9492 250.1986 L 677.0409 250.1942 L 677.1264 249.4913 L 679.6811 248.1729 L 681.5919 246.0374 L 682.8798 245.4226 L 686.2536 247.2723 L 687.8658 246.5473 L 688.4287 245.8794 L 691.3376 244.8031 L 692.3739 242.8613 L 693.9776 242.4705 L 694.4426 241.5304 L 696.5536 242.4528 L 697.0698 241.671 L 698.9976 241.4864 L 700.1919 240.7396 L 703.0366 241.2579 L 704.0133 242.0136 L 705.357 241.8116 L 706.8668 240.753 L 707.9628 241.3458 Z" fill="[object Object]" fill-opacity="1" stroke="dodgerblue" stroke-width="1" paint-order="fill" stroke-opacity="1" stroke-dasharray="" stroke-linecap="butt" stroke-miterlimit="10" style="filter: url(&quot;#zr2323-shadow-0&quot;);">
</path>
<path d="M 451.6188 271.2383 L 453.5339 269.7778 L 454.6385 268.1679 L 454.0287 266.8833 L 454.5192 265.8981 L 453.9987 264.7062 L 454.8262 262.4372 L 456.3743 262.0236 L 455.884 260.854 L 453.3589 259.5218 L 453.5382 258.7569 L 452.8941 256.7212 L 454.1992 256.3037 L 454.8219 255.3058 L 457.0015 254.0048 L 458.1573 254.9628 L 459.8974 252.8752 L 461.7825 252.4619 L 463.7488 255.2837 L 463.6847 256.3168 L 464.6998 258.5282 L 466.5253 258.427 L 467.0116 257.3061 L 468.7731 257.5873 L 469.9672 255.8553 L 469.2293 254.5849 L 470.9525 251.8775 L 472.3002 251.8334 L 473.3238 251.0557 L 474.1982 251.1876 L 475.3456 252.1763 L 475.9597 253.508 L 478.4674 253.7277 L 479.3503 253.3147 L 480.8602 253.508 L 482.1355 255.451 L 482.0545 255.9168 L 483.3084 258.405 L 485.4197 258.6293 L 487.3005 257.2971 L 486.5712 255.1782 L 486.5114 253.4642 L 487.6972 252.0752 L 486.4219 251.9523 L 486.4048 250.8006 L 487.066 250.1812 L 486.5755 249.5878 L 487.8763 248.6872 L 488.4394 250.8316 L 487.8634 251.9259 L 489.4714 251.6314 L 490.0983 249.6756 L 489.0833 248.4938 L 488.0256 248.006 L 488.6654 246.3978 L 488.5801 245.0797 L 490.8362 243.8674 L 492.7725 243.7442 L 493.1649 243.0282 L 494.4786 242.5978 L 495.1312 243.4807 L 497.7073 242.0971 L 500.9999 241.157 L 501.4734 239.6549 L 503.67 239.5583 L 504.6424 239.8306 L 505.6318 241.4953 L 506.6128 240.8321 L 507.6962 240.8101 L 508.016 240.1819 L 508.886 241.6359 L 509.7646 241.1394 L 510.0249 239.7955 L 511.0356 239.2641 L 511.6328 239.9798 L 513.5905 239.4001 L 516.0343 241.4206 L 517.6422 239.2685 L 517.4674 236.9584 L 516.6783 235.7728 L 517.4417 234.0033 L 517.0579 233.4105 L 517.8215 232.3964 L 517.1903 231.0398 L 517.3779 229.7932 L 517.8896 230.175 L 518.8494 229.0644 L 518.4015 226.725 L 517.6296 224.9433 L 517.4503 223.5697 L 518.3844 221.1038 L 518.2734 220.3272 L 519.7278 218.8049 L 520.9307 216.7211 L 519.8687 216.1729 L 518.4696 214.2035 L 517.8384 211.4932 L 518.9558 211.0986 L 520.3038 211.3572 L 521.6174 209.7569 L 522.2272 209.7305 L 524.2702 207.4593 L 525.7672 207.297 L 527.0084 207.8713 L 528.1642 207.3761 L 529.4523 207.753 L 531.1668 206.9725 L 532.9752 207.5996 L 533.7345 207.4155 L 535.3467 208.3624 L 535.5641 209.805 L 535.2015 211.3792 L 537.3469 212.3835 L 537.0911 214.0806 L 538.6436 214.9622 L 541.2537 212.3965 L 542.7167 212.5238 L 543.3267 212.1202 L 544.2051 212.8572 L 546.6874 213.4315 L 548.7389 212.4493 L 551.3364 212.6905 L 551.7374 210.6426 L 553.3025 211.0328 L 553.8399 211.5984 L 556.9663 211.581 L 557.7425 212.4667 L 558.7235 212.6598 L 562.0203 212.0765 L 562.6773 211.0548 L 564.2169 209.7305 L 564.2297 208.4239 L 562.7582 207.1917 L 561.6279 205.2672 L 560.4167 204.5352 L 559.8666 202.5803 L 558.7064 202.5803 L 557.9942 203.1894 L 555.4907 203.6411 L 554.2749 202.3437 L 553.3622 202.3875 L 552.36 200.8752 L 553.6182 199.3239 L 554.3304 197.869 L 556.1729 196.2434 L 557.1796 193.1241 L 559.5638 192.5152 L 560.3229 190.9339 L 561.3722 190.4825 L 562.2763 187.7145 L 563.0056 187.7058 L 563.9526 185.8139 L 565.4496 184.9293 L 566.7632 182.6701 L 566.631 181.4266 L 567.6547 180.4593 L 567.0361 178.5506 L 567.5906 176.0382 L 568.2645 174.9573 L 568.3371 173.3422 L 569.5014 172.9441 L 570.862 173.4518 L 572.8111 172.5414 L 574.3934 173.3773 L 575.4341 171.6927 L 575.3956 170.4413 L 573.3526 170.2705 L 571.3139 168.6473 L 570.7553 168.6606 L 570.5889 167.3613 L 569.5055 166.6788 L 569.3179 165.686 L 568.4905 164.8941 L 566.341 165.4627 L 565.8377 164.4261 L 564.0719 163.7395 L 564.4217 162.8733 L 563.8459 162.4317 L 563.0739 160.6342 L 561.5341 160.4376 L 560.6429 160.9491 L 558.8599 160.1883 L 557.6999 160.092 L 556.9322 158.7147 L 558.0411 155.3 L 559.6404 153.9624 L 560.8688 153.8313 L 560.5405 152.4936 L 560.7153 151.2656 L 561.5598 150.1553 L 560.9584 148.7918 L 561.1631 147.6383 L 561.7218 147.6644 L 562.5151 145.921 L 562.2592 143.4654 L 563.1166 141.8404 L 561.6408 141.303 L 560.6941 140.4467 L 560.9157 137.7127 L 560.3741 136.5771 L 559.4016 136.8697 L 558.5699 135.9002 L 557.3032 135.3893 L 556.3052 133.647 L 554.514 133.743 L 553.277 133.3327 L 550.9312 135.2014 L 548.9863 134.2931 L 547.6215 134.9308 L 546.423 134.5553 L 544.9985 134.7736 L 543.2924 134.2496 L 542.8445 131.9268 L 541.5266 131.2456 L 540.5842 131.7301 L 538.426 131.7957 L 535.8158 133.446 L 534.0074 133.4112 L 533.3378 133.839 L 532.0156 133.3588 L 530.365 134.0182 L 528.2921 133.2364 L 526.2919 133.3457 L 525.6819 133.0531 L 523.1144 133.4855 L 522.2186 134.0225 L 521.1524 135.7822 L 521.8007 138.1274 L 521.1524 138.9399 L 520.5042 137.9789 L 519.0966 137.6646 L 517.6808 135.7605 L 515.74 135.73 L 514.9168 136.3544 L 514.1194 136.0136 L 514.2644 135.0749 L 513.39 133.8871 L 513.3303 132.1318 L 511.5816 130.56 L 510.9333 129.2112 L 508.916 128.1417 L 508.3615 129.0802 L 506.2801 130.5078 L 506.4037 132.6819 L 505.6149 133.6731 L 505.2522 136.1404 L 506.003 136.8259 L 503.8917 138.4855 L 503.3159 139.7391 L 503.2902 140.9666 L 501.8401 142.1985 L 501.2899 141.7705 L 500.1 142.251 L 500.3005 144.1295 L 498.6797 145.7986 L 497.5623 146.3754 L 496.061 149.395 L 495.2891 149.7313 L 494.6321 150.9684 L 494.2866 152.9657 L 493.293 154.2071 L 493.7706 156.0957 L 493.3228 158.0982 L 492.6958 158.846 L 492.5294 160.5557 L 491.5272 163.3283 L 489.2326 163.0833 L 487.4839 162.0951 L 486.2769 161.9112 L 483.8884 165.5984 L 481.4402 167.0244 L 481.0947 167.72 L 481.3421 169.1724 L 482.9074 171.2552 L 483.2444 172.152 L 482.4853 172.7035 L 479.6404 172.9659 L 478.5144 171.9902 L 476.399 173.0665 L 475.853 173.8282 L 473.9891 174.9002 L 473.3367 177.0098 L 472.5859 177.5175 L 471.1401 177.5001 L 470.236 178.4018 L 468.7305 178.6425 L 467.438 179.7544 L 464.9472 180.341 L 464.4738 181.0238 L 464.1624 178.3143 L 463.5014 178.5286 L 459.3899 184.6316 L 457.5558 184.6797 L 457.3768 185.7832 L 454.7068 186.0154 L 453.2737 182.8145 L 452.6339 179.6625 L 451.3886 180.0345 L 451.7 178.7037 L 449.192 177.7144 L 447.8101 177.9115 L 447.0638 177.2899 L 445.0975 176.6859 L 443.7241 176.839 L 442.1078 175.7842 L 439.5444 175.605 L 437.5142 178.1041 L 436.8787 178.4366 L 435.5353 181.1157 L 434.9765 181.606 L 431.3811 181.4529 L 431.0655 182.1097 L 428.7538 182.9853 L 426.9753 182.1972 L 423.1409 183.8348 L 421.7719 188.9452 L 421.951 190.2856 L 421.597 191.363 L 420.6245 191.8887 L 418.5603 191.5515 L 417.3703 191.8098 L 415.9671 190.833 L 414.4401 191.626 L 412.7298 193.3169 L 412.2352 194.2893 L 411.4759 194.447 L 410.1923 196.4669 L 409.3136 196.9183 L 408.3924 196.6116 L 407.9657 197.6324 L 408.5074 199.0653 L 407.0957 200.4064 L 406.0935 202.4794 L 405.9527 203.733 L 404.5153 206.4159 L 405.9485 208.8712 L 406.1447 207.9765 L 411.0495 207.9504 L 412.3631 209.1562 L 413.9284 209.656 L 412.7043 212.2037 L 412.8024 213.6159 L 411.7574 214.8834 L 411.5143 217.0371 L 412.0219 217.752 L 413.3825 217.2696 L 412.1328 219.0856 L 412.555 220.5423 L 411.9452 220.3272 L 412.1626 221.6083 L 411.5271 222.6835 L 414.8411 224.6142 L 415.5021 225.8605 L 416.9224 225.8475 L 416.8329 227.3967 L 425.0133 238.5878 L 425.1967 239.7911 L 425.845 239.8349 L 427.1161 241.469 L 428.9714 240.9156 L 430.1741 241.9212 L 430.1869 244.2628 L 429.7562 244.9919 L 430.6944 245.049 L 430.7029 245.7519 L 432.3961 245.6817 L 433.1042 244.9875 L 433.4795 245.7432 L 434.5203 245.6948 L 434.9467 246.3803 L 436.1025 246.1429 L 436.5247 246.7801 L 439.8984 246.2177 L 441.6854 247.2326 L 442.1504 249.2495 L 442.8669 250.7218 L 442.3209 251.372 L 442.6195 252.941 L 443.5024 253.8376 L 442.5769 254.8443 L 443.4172 256.5542 L 443.9162 256.1629 L 445.2382 257.3412 L 445.5368 258.3392 L 446.8888 258.9108 L 446.0614 260.6914 L 447.3112 262.9207 L 447.3581 264.8691 L 448.1684 264.8164 L 448.4968 266.7778 L 449.2134 268.1459 L 450.2371 268.7088 L 450.5185 270.2575 L 451.6188 271.2383 Z" fill="[object Object]" fill-opacity="1" stroke="rgba(30,144,255,1)" stroke-width="1" paint-order="fill" stroke-opacity="1" stroke-dasharray="" stroke-linecap="butt" stroke-miterlimit="10" style="filter: url(&quot;#zr2323-shadow-1&quot;);">
</path>
<text xml:space="preserve" fill="#bdbdd9" fill-opacity="1" stroke="none" transform="matrix(1,0,0,1,543.1432,366.2175)" dominant-baseline="central" text-anchor="middle" x="0" y="0" style="font: 13 13px sans-serif;">东城区</text>
<text xml:space="preserve" fill="#bdbdd9" fill-opacity="1" stroke="none" transform="matrix(1,0,0,1,531.7938,365.0114)" dominant-baseline="central" text-anchor="middle" x="0" y="0" style="font: 13 13px sans-serif;">西城区</text>
<text xml:space="preserve" fill="#bdbdd9" fill-opacity="1" stroke="none" transform="matrix(1,0,0,1,559.9305,354.6726)" dominant-baseline="central" text-anchor="middle" x="0" y="0" style="font: 13 13px sans-serif;">朝阳区</text>
<text xml:space="preserve" fill="#bdbdd9" fill-opacity="1" stroke="none" transform="matrix(1,0,0,1,511.6242,389.9114)" dominant-baseline="central" text-anchor="middle" x="0" y="0" style="font: 13 13px sans-serif;">丰台区</text>
<text xml:space="preserve" fill="#bdbdd9" fill-opacity="1" stroke="none" transform="matrix(1,0,0,1,496.1847,361.4737)" dominant-baseline="central" text-anchor="middle" x="0" y="0" style="font: 13 13px sans-serif;">石景山区</text>
<text xml:space="preserve" fill="#bdbdd9" fill-opacity="1" stroke="none" transform="matrix(1,0,0,1,503.623,336.9656)" dominant-baseline="central" text-anchor="middle" x="0" y="0" style="font: 13 13px sans-serif;">海淀区</text>
<text xml:space="preserve" fill="#bdbdd9" fill-opacity="1" stroke="none" transform="matrix(1,0,0,1,417.43,344.657)" dominant-baseline="central" text-anchor="middle" x="0" y="0" style="font: 13 13px sans-serif;">门头沟区</text>
<text xml:space="preserve" fill="#bdbdd9" fill-opacity="1" stroke="none" transform="matrix(1,0,0,1,425.6787,420.6585)" dominant-baseline="central" text-anchor="middle" x="0" y="0" style="font: 13 13px sans-serif;">房山区</text>
<text xml:space="preserve" fill="#bdbdd9" fill-opacity="1" stroke="none" transform="matrix(1,0,0,1,608.6462,394.4368)" dominant-baseline="central" text-anchor="middle" x="0" y="0" style="font: 13 13px sans-serif;">通州区</text>
<text xml:space="preserve" fill="#bdbdd9" fill-opacity="1" stroke="none" transform="matrix(1,0,0,1,606.4945,300.0293)" dominant-baseline="central" text-anchor="middle" x="0" y="0" style="font: 13 13px sans-serif;">顺义区</text>
<text xml:space="preserve" fill="rgba(189,189,217,1)" fill-opacity="1" stroke="none" transform="matrix(1,0,0,1,494.0777,285.1128)" dominant-baseline="central" text-anchor="middle" x="0" y="0" style="font: 13 13px sans-serif;">昌平区</text>
<text xml:space="preserve" fill="#bdbdd9" fill-opacity="1" stroke="none" transform="matrix(1,0,0,1,554.4648,442.0892)" dominant-baseline="central" text-anchor="middle" x="0" y="0" style="font: 13 13px sans-serif;">大兴区</text>
<text xml:space="preserve" fill="rgba(189,189,217,1)" fill-opacity="1" stroke="none" transform="matrix(1,0,0,1,577.9611,167.379)" dominant-baseline="central" text-anchor="middle" x="0" y="0" style="font: 13 13px sans-serif;">怀柔区</text>
<text xml:space="preserve" fill="#bdbdd9" fill-opacity="1" stroke="none" transform="matrix(1,0,0,1,696.703,288.036)" dominant-baseline="central" text-anchor="middle" x="0" y="0" style="font: 13 13px sans-serif;">平谷区</text>
<text xml:space="preserve" fill="#bdbdd9" fill-opacity="1" stroke="none" transform="matrix(1,0,0,1,680.6898,204.6187)" dominant-baseline="central" text-anchor="middle" x="0" y="0" style="font: 13 13px sans-serif;">密云区</text>
<text xml:space="preserve" fill="rgba(189,189,217,1)" fill-opacity="1" stroke="none" transform="matrix(1,0,0,1,489.9747,199.69)" dominant-baseline="central" text-anchor="middle" x="0" y="0" style="font: 13 13px sans-serif;">延庆区</text>
<defs>
<filter id="zr2323-shadow-0" x="-100%" y="-100%" width="300%" height="300%">
<feDropShadow dx="0" dy="1" flood-color="#000000" stdDeviation="0 0">
</feDropShadow>
</filter>
<filter id="zr2323-shadow-1" x="-100%" y="-100%" width="300%" height="300%">
<feDropShadow dx="0" dy="1" flood-color="rgba(0,0,0,1)" stdDeviation="0 0">
</feDropShadow>
</filter>
</defs>
</g>
</svg>