<svg xmlns="http://www.w3.org/2000/svg" xmlns:xlink="http://www.w3.org/1999/xlink" version="1.1" baseProfile="full" width="1108" height="550" style="user-select: none; position: absolute; left: 0px; top: 0px;">
<g>
<rect width="1108" height="550" x="0" y="0" id="0" style="fill: transparent;">
</rect>
</g>
<g>
<path d="M -21 -5 L 21 -5 L 21 21 L -21 21 L -21 -5" fill="rgba(0,0,0,0)" fill-opacity="1" stroke="#ccc" stroke-width="0" paint-order="fill" stroke-opacity="1" stroke-dasharray="" stroke-linecap="butt" stroke-miterlimit="10" transform="matrix(1,0,0,1,554,5)">
</path>
<text xml:space="preserve" fill="#34471f" fill-opacity="1" stroke="none" transform="matrix(1,0,0,1,554,5)" dominant-baseline="central" text-anchor="middle" x="0" y="8" style="font: 16px &quot;Microsoft YaHei&quot;;">天津</text>
<path d="M 522.0547 349.343 L 520.4289 347.0232 L 520.2572 345.574 L 519.5789 345.1854 L 517.4781 345.9716 L 516.5542 344.8894 L 515.8048 344.3238 L 514.0179 344.2618 L 513.7539 348.3665 L 513.6536 353.3603 L 515.7466 353.6302 L 516.9635 353.2763 L 520.2599 350.3417 L 522.0547 349.343 Z" fill="[object Object]" fill-opacity="1" stroke="dodgerblue" stroke-width="1" paint-order="fill" stroke-opacity="1" stroke-dasharray="" stroke-linecap="butt" stroke-miterlimit="10" style="filter: url(&quot;#zr2323-shadow-0&quot;);">
</path>
<path d="M 529.466 338.5816 L 527.1513 338.7405 L 527.3861 341.0327 L 523.4244 340.9578 L 521.7485 342.2607 L 520.6373 340.5514 L 520.3338 341.4436 L 518.9243 342.1194 L 518.3623 343.3299 L 519.8402 344.6286 L 519.5789 345.1854 L 520.2572 345.574 L 520.4289 347.0232 L 522.0547 349.343 L 523.5908 351.712 L 525.7181 354.2357 L 526.4333 356.6625 L 527.1196 357.4495 L 529.3736 358.8244 L 530.7011 359.1118 L 530.8753 357.6882 L 531.741 356.331 L 533.008 356.3133 L 533.2216 357.2771 L 534.4173 357.2063 L 534.4517 356.7022 L 536.7691 357.3831 L 537.1412 358.5149 L 537.5001 357.4363 L 538.0571 357.6175 L 538.4661 356.6317 L 538.9992 353.6302 L 532.4193 351.7869 L 531.2633 347.0409 L 531.6302 346.2764 L 534.5256 345.6491 L 533.2216 341.6025 L 535.84 340.7546 L 535.2381 339.0629 L 532.6174 337.5481 L 529.466 338.5816 Z" fill="[object Object]" fill-opacity="1" stroke="dodgerblue" stroke-width="1" paint-order="fill" stroke-opacity="1" stroke-dasharray="" stroke-linecap="butt" stroke-miterlimit="10" style="filter: url(&quot;#zr2323-shadow-0&quot;);">
</path>
<path d="M 530.7619 369.5713 L 530.6087 369.1114 L 531.7701 368.7088 L 530.841 366.7448 L 532.8522 365.9176 L 533.3219 367.1162 L 534.5598 366.5721 L 533.834 364.5067 L 534.8792 364.1928 L 534.3988 361.5303 L 535.6526 359.7264 L 530.7011 359.1118 L 529.3736 358.8244 L 527.1196 357.4495 L 526.4333 356.6625 L 525.7181 354.2357 L 523.5908 351.712 L 522.0547 349.343 L 520.2599 350.3417 L 516.9635 353.2763 L 515.7466 353.6302 L 513.6536 353.3603 L 513.7382 356.6405 L 514.4639 360.9069 L 515.4509 362.4503 L 518.4334 361.2076 L 520.4289 364.1972 L 519.8534 364.7234 L 521.1229 365.2232 L 521.1256 370.9031 L 524.4011 371.1463 L 527.7715 370.2084 L 530.7619 369.5713 Z" fill="[object Object]" fill-opacity="1" stroke="dodgerblue" stroke-width="1" paint-order="fill" stroke-opacity="1" stroke-dasharray="" stroke-linecap="butt" stroke-miterlimit="10" style="filter: url(&quot;#zr2323-shadow-0&quot;);">
</path>
<path d="M 515.4509 362.4503 L 514.4639 360.9069 L 513.7382 356.6405 L 513.6536 353.3603 L 513.7539 348.3665 L 514.0179 344.2618 L 515.8048 344.3238 L 516.5542 344.8894 L 516.5991 341.6953 L 515.546 341.9869 L 512.1757 341.8322 L 512.2046 343.0072 L 509.8794 343.0956 L 506.8151 342.4551 L 506.8548 341.2844 L 505.3846 341.8322 L 503.7745 340.3349 L 503.3734 341.5188 L 502.3098 341.8234 L 502.5394 342.7467 L 500.8766 344.5711 L 500.1376 344.9334 L 504.0016 349.427 L 504.4133 350.0856 L 504.8144 354.6113 L 505.3978 356.185 L 502.3994 357.887 L 504.5374 359.0986 L 509.721 363.631 L 510.7504 363.454 L 512.128 363.8698 L 515.4509 362.4503 Z" fill="[object Object]" fill-opacity="1" stroke="dodgerblue" stroke-width="1" paint-order="fill" stroke-opacity="1" stroke-dasharray="" stroke-linecap="butt" stroke-miterlimit="10" style="filter: url(&quot;#zr2323-shadow-0&quot;);">
</path>
<path d="M 524.1898 329.7552 L 522.3423 331.852 L 521.9465 331.9228 L 520.8142 330.2143 L 519.7743 329.7905 L 517.1482 331.5563 L 516.1082 330.0466 L 515.4642 330.488 L 512.1941 331.5034 L 511.3706 332.1037 L 512.4474 332.7704 L 513.3369 332.6336 L 513.8015 336.1439 L 513.0387 337.0226 L 513.2418 337.791 L 515.0526 339.5928 L 516.5991 341.6953 L 516.5542 344.8894 L 517.4781 345.9716 L 519.5789 345.1854 L 519.8402 344.6286 L 518.3623 343.3299 L 518.9243 342.1194 L 520.3338 341.4436 L 520.6373 340.5514 L 521.7485 342.2607 L 523.4244 340.9578 L 527.3861 341.0327 L 527.1513 338.7405 L 529.466 338.5816 L 529.4475 336.3645 L 529.0832 335.7419 L 527.7318 336.2232 L 527.5524 335.4946 L 525.6415 335.5345 L 527.3941 333.5388 L 524.1898 329.7552 Z" fill="[object Object]" fill-opacity="1" stroke="dodgerblue" stroke-width="1" paint-order="fill" stroke-opacity="1" stroke-dasharray="" stroke-linecap="butt" stroke-miterlimit="10" style="filter: url(&quot;#zr2323-shadow-0&quot;);">
</path>
<path d="M 516.5991 341.6953 L 515.0526 339.5928 L 513.2418 337.791 L 513.0387 337.0226 L 513.8015 336.1439 L 513.3369 332.6336 L 512.4474 332.7704 L 511.3706 332.1037 L 509.7659 330.4572 L 507.6808 330.7794 L 506.3584 330.254 L 504.9095 331.7507 L 504.2918 333.4327 L 504.0517 335.2385 L 503.3549 338.6036 L 503.7745 340.3349 L 505.3846 341.8322 L 506.8548 341.2844 L 506.8151 342.4551 L 509.8794 343.0956 L 512.2046 343.0072 L 512.1757 341.8322 L 515.546 341.9869 L 516.5991 341.6953 Z M 504.1413 330.5806 L 506.1658 329.7112 L 506.2503 328.5413 L 504.466 327.0583 L 503.2177 327.7248 L 503.793 329.0797 L 503.2836 329.2653 L 504.1413 330.5806 Z" fill="[object Object]" fill-opacity="1" stroke="dodgerblue" stroke-width="1" paint-order="fill" stroke-opacity="1" stroke-dasharray="" stroke-linecap="butt" stroke-miterlimit="10" style="filter: url(&quot;#zr2323-shadow-0&quot;);">
</path>
<path d="M 530.7011 359.1118 L 535.6526 359.7264 L 538.1257 359.89 L 539.7197 360.3322 L 542.7154 362.0877 L 544.4389 364.374 L 546.4264 365.8336 L 548.5431 366.4218 L 551.0083 366.2802 L 552.7212 365.8956 L 553.608 366.5236 L 554.3127 368.9256 L 555.2391 371.0711 L 556.3239 372.279 L 558.9633 373.903 L 560.5283 374.4207 L 563.8566 374.4915 L 566.0366 373.8896 L 568.1271 372.3897 L 569.072 371.2836 L 569.8241 371.1507 L 570.5209 372.2614 L 570.1513 374.9827 L 571.2072 376.1289 L 572.445 376.3368 L 574.0023 375.5182 L 575.1186 375.7305 L 576.5413 377.846 L 577.7395 380.7142 L 578.2912 381.0152 L 580.561 378.5897 L 581.2498 378.2444 L 580.8407 375.8899 L 581.1258 374.288 L 580.9411 372.9605 L 580.2785 373.6373 L 579.3838 372.8807 L 580.004 370.2527 L 579.6636 369.9741 L 580.6137 367.6823 L 581.2762 367.8285 L 581.8622 364.7986 L 583.4035 365.2232 L 587.5789 365.5638 L 587.2437 362.7554 L 588.4024 359.4478 L 586.2831 359.3241 L 586.378 353.9526 L 583.0394 353.8821 L 582.9046 352.1804 L 579.3996 352.1316 L 576.6309 351.8268 L 577.8872 344.1558 L 578.7899 340.8782 L 579.5211 340.5293 L 583.934 342.7996 L 586.2355 341.6336 L 586.3253 339.8976 L 586.8427 338.5373 L 588.8669 337.8705 L 589.0411 334.8279 L 589.379 333.7858 L 585.6919 332.8365 L 585.2248 333.0574 L 583.2293 332.4615 L 579.4524 330.1879 L 578.6633 329.9141 L 578.6738 326.7185 L 577.9296 326.0124 L 578.0826 327.2922 L 576.441 328.047 L 576.5466 329.1505 L 574.3242 328.3295 L 576.3591 327.6011 L 576.7102 325.6726 L 574.6436 326.7009 L 573.4188 326.7229 L 572.6958 326.1977 L 573.5298 325.0898 L 573.6724 322.654 L 570.7163 320.342 L 569.349 320.439 L 567.6071 319.8257 L 566.5329 318.5112 L 565.8466 319.6846 L 564.7329 320.0242 L 561.6368 319.8301 L 561.4918 320.5626 L 559.9662 321.8245 L 558.153 321.2244 L 558.5567 318.4624 L 557.1737 317.5051 L 555.7352 317.642 L 553.5737 319.2479 L 553.9194 320.0507 L 550.3986 319.2875 L 546.4501 319.0934 L 543.647 318.6698 L 542.3301 318.9876 L 541.8893 318.1229 L 536.9775 316.4553 L 535.2381 315.379 L 533.8156 316.4597 L 533.9501 317.0642 L 535.6578 316.6274 L 536.1592 317.4919 L 536.7135 321.9258 L 535.4652 322.9409 L 531.7806 323.8718 L 529.2918 325.1207 L 526.8186 326.7934 L 524.1898 329.7552 L 527.3941 333.5388 L 525.6415 335.5345 L 527.5524 335.4946 L 527.7318 336.2232 L 529.0832 335.7419 L 529.4475 336.3645 L 529.466 338.5816 L 532.6174 337.5481 L 535.2381 339.0629 L 535.84 340.7546 L 533.2216 341.6025 L 534.5256 345.6491 L 531.6302 346.2764 L 531.2633 347.0409 L 532.4193 351.7869 L 538.9992 353.6302 L 538.4661 356.6317 L 538.0571 357.6175 L 537.5001 357.4363 L 537.1412 358.5149 L 536.7691 357.3831 L 534.4517 356.7022 L 534.4173 357.2063 L 533.2216 357.2771 L 533.008 356.3133 L 531.741 356.331 L 530.8753 357.6882 L 530.7011 359.1118 Z" fill="[object Object]" fill-opacity="1" stroke="dodgerblue" stroke-width="1" paint-order="fill" stroke-opacity="1" stroke-dasharray="" stroke-linecap="butt" stroke-miterlimit="10" style="filter: url(&quot;#zr2323-shadow-0&quot;);">
</path>
<path d="M 503.7745 340.3349 L 503.3549 338.6036 L 504.0517 335.2385 L 502.8641 334.7218 L 499.0343 334.1127 L 495.4396 334.6645 L 493.1459 335.8655 L 493.2912 338.3695 L 491.9186 338.524 L 491.7736 337.0976 L 491.3169 336.9166 L 488.1153 338.3164 L 486.2705 338.3299 L 485.014 339.1822 L 484.5021 335.3621 L 483.7894 335.4725 L 483.9451 337.1551 L 483.2299 337.4288 L 483.3751 339.0982 L 483.9558 339.5487 L 481.3165 340.7678 L 481.063 337.8573 L 480.353 338.0958 L 479.6245 335.5565 L 477.5342 336.1128 L 477.3021 335.3621 L 473.6228 336.3381 L 472.5722 336.1439 L 472.4324 334.6425 L 471.4876 333.8874 L 470.6351 336.0158 L 469.8195 335.6361 L 468.8931 336.731 L 468.3968 338.4976 L 467.2249 338.1267 L 467.4362 337.4729 L 464.839 338.1972 L 464.9656 339.3146 L 466.8502 339.8004 L 466.8078 340.7458 L 463.8572 341.0683 L 464.868 344.7214 L 463.8413 345.0086 L 463.6646 345.786 L 464.4325 348.7864 L 463.9628 349.0514 L 463.1049 351.482 L 461.5134 351.0136 L 461.2124 353.0819 L 460.5316 353.0731 L 459.724 356.2161 L 458.7158 356.0347 L 458.2274 357.9402 L 457.5359 357.8031 L 456.752 359.7661 L 456.0156 359.5937 L 455.7543 361.2076 L 459.0033 362.5167 L 458.8081 363.5294 L 456.7837 364.4007 L 457.2165 365.5238 L 459.5524 363.9009 L 460.3285 364.9136 L 461.041 363.9405 L 463.5668 364.2148 L 466.1033 365.6877 L 467.3122 366.8111 L 468.2173 365.0109 L 468.8772 365.7273 L 471.4848 366.6385 L 471.1337 367.6958 L 472.6515 368.0053 L 473.0261 369.7307 L 476.8955 370.3015 L 481.868 371.9428 L 486.2256 374.3012 L 485.278 375.757 L 486.6743 376.4962 L 486.1016 377.0847 L 485.6634 380.4752 L 489.9074 380.8692 L 490.0684 379.5721 L 491.0581 378.4966 L 494.0803 381.3605 L 499.9212 384.5125 L 502.6185 386.2706 L 505.4241 389.2329 L 509.6576 396.3424 L 511.4736 399.1868 L 513.5982 403.0336 L 516.5068 407.0538 L 527.167 418.2326 L 529.1281 419.3638 L 537.9435 422.9793 L 539.6301 423.5872 L 542.3565 425.4909 L 543.246 425.2423 L 544.1196 424.1907 L 542.9847 423.8179 L 543.209 423.1569 L 542.4436 422.1187 L 544.753 420.3574 L 544.1486 418.6717 L 545.777 418.2237 L 545.3151 415.8242 L 544.4917 415.8154 L 544.4072 414.813 L 545.1094 414.7865 L 544.1274 413.6911 L 543.7316 411.8198 L 542.9108 412.0725 L 542.689 409.9265 L 541.8444 409.0664 L 538.68 409.359 L 531.1947 400.5695 L 531.7727 399.5635 L 529.5952 398.1235 L 530.5191 394.4906 L 526.5204 391.9834 L 526.7343 391.7222 L 529.4183 392.2227 L 531.0759 389.2329 L 531.2793 388.2321 L 532.0207 387.506 L 531.01 386.8019 L 531.9706 385.3672 L 533.681 386.8416 L 534.1535 387.8601 L 534.3831 384.8005 L 535.6421 382.839 L 535.138 381.9626 L 535.9613 381.3208 L 534.8924 380.7762 L 536.1699 380.2715 L 535.4123 379.0633 L 533.8103 379.9529 L 532.7677 379.1162 L 532.1607 375.9475 L 530.6299 374.4738 L 529.8223 374.8896 L 528.7427 374.4163 L 529.1887 373.903 L 530.3659 374.4339 L 529.9147 373.071 L 530.0677 371.089 L 530.7619 369.5713 L 527.7715 370.2084 L 524.4011 371.1463 L 521.1256 370.9031 L 521.1229 365.2232 L 519.8534 364.7234 L 520.4289 364.1972 L 518.4334 361.2076 L 515.4509 362.4503 L 512.128 363.8698 L 510.7504 363.454 L 509.721 363.631 L 504.5374 359.0986 L 502.3994 357.887 L 505.3978 356.185 L 504.8144 354.6113 L 504.4133 350.0856 L 504.0016 349.427 L 500.1376 344.9334 L 500.8766 344.5711 L 502.5394 342.7467 L 502.3098 341.8234 L 503.3734 341.5188 L 503.7745 340.3349 Z" fill="[object Object]" fill-opacity="1" stroke="dodgerblue" stroke-width="1" paint-order="fill" stroke-opacity="1" stroke-dasharray="" stroke-linecap="butt" stroke-miterlimit="10" style="filter: url(&quot;#zr2323-shadow-0&quot;);">
</path>
<path d="M 530.7619 369.5713 L 530.0677 371.089 L 529.9147 373.071 L 530.3659 374.4339 L 529.1887 373.903 L 528.7427 374.4163 L 529.8223 374.8896 L 530.6299 374.4738 L 532.1607 375.9475 L 532.7677 379.1162 L 533.8103 379.9529 L 535.4123 379.0633 L 536.1699 380.2715 L 534.8924 380.7762 L 535.9613 381.3208 L 535.138 381.9626 L 535.6421 382.839 L 534.3831 384.8005 L 534.1535 387.8601 L 533.681 386.8416 L 531.9706 385.3672 L 531.01 386.8019 L 532.0207 387.506 L 531.2793 388.2321 L 531.0759 389.2329 L 529.4183 392.2227 L 526.7343 391.7222 L 526.5204 391.9834 L 530.5191 394.4906 L 529.5952 398.1235 L 531.7727 399.5635 L 531.1947 400.5695 L 538.68 409.359 L 541.8444 409.0664 L 542.689 409.9265 L 542.9108 412.0725 L 543.7316 411.8198 L 544.1274 413.6911 L 545.1094 414.7865 L 544.4072 414.813 L 544.4917 415.8154 L 545.3151 415.8242 L 545.777 418.2237 L 544.1486 418.6717 L 544.753 420.3574 L 549.3587 416.7291 L 554.1912 412.7732 L 558.0262 409.0176 L 563.8459 416.4497 L 564.4531 413.5625 L 565.9495 411.0484 L 569.1009 408.1176 L 573.4532 404.3012 L 576.6441 403.7071 L 575.4328 394.628 L 578.2411 393.4185 L 578.5049 394.0077 L 580.2206 392.2315 L 581.6905 391.9347 L 584.4831 394.5614 L 585.9163 394.566 L 585.4676 390.4997 L 585.7843 390.3978 L 585.5994 388.0506 L 586.7291 384.6411 L 587.0802 384.5701 L 587.7004 382.6796 L 587.2807 381.8784 L 585.6655 382.0023 L 583.7783 379.5102 L 582.0601 378.2841 L 581.2498 378.2444 L 580.561 378.5897 L 578.2912 381.0152 L 577.7395 380.7142 L 576.5413 377.846 L 575.1186 375.7305 L 574.0023 375.5182 L 572.445 376.3368 L 571.2072 376.1289 L 570.1513 374.9827 L 570.5209 372.2614 L 569.8241 371.1507 L 569.072 371.2836 L 568.1271 372.3897 L 566.0366 373.8896 L 563.8566 374.4915 L 560.5283 374.4207 L 558.9633 373.903 L 556.3239 372.279 L 555.2391 371.0711 L 554.3127 368.9256 L 553.608 366.5236 L 552.7212 365.8956 L 551.0083 366.2802 L 548.5431 366.4218 L 546.4264 365.8336 L 544.4389 364.374 L 542.7154 362.0877 L 539.7197 360.3322 L 538.1257 359.89 L 535.6526 359.7264 L 534.3988 361.5303 L 534.8792 364.1928 L 533.834 364.5067 L 534.5598 366.5721 L 533.3219 367.1162 L 532.8522 365.9176 L 530.841 366.7448 L 531.7701 368.7088 L 530.6087 369.1114 L 530.7619 369.5713 Z" fill="[object Object]" fill-opacity="1" stroke="dodgerblue" stroke-width="1" paint-order="fill" stroke-opacity="1" stroke-dasharray="" stroke-linecap="butt" stroke-miterlimit="10" style="filter: url(&quot;#zr2323-shadow-0&quot;);">
</path>
<path d="M 468.8931 336.731 L 467.291 335.3976 L 467.9957 334.7218 L 467.2144 334.5806 L 466.9241 332.9249 L 467.4045 330.9119 L 470.6006 330.6337 L 471.9178 331.1236 L 471.8622 329.9626 L 472.4219 325.902 L 473.1978 325.6547 L 472.6039 324.3661 L 473.3693 323.6644 L 472.5168 320.3288 L 474.3907 319.6626 L 474.9001 319.9802 L 476.7346 317.6993 L 476.8718 316.1862 L 478.0542 316.7332 L 479.9282 316.804 L 480.8915 315.3041 L 481.034 313.2576 L 483.2696 313.2047 L 483.734 311.723 L 483.4887 309.6415 L 482.2269 310.2678 L 482.0712 309.1477 L 482.6177 309.0243 L 481.868 306.9786 L 482.2401 306.9563 L 482.0317 305.2019 L 486.0382 304.0557 L 485.6739 304.8844 L 488.1972 304.3068 L 489.2159 306.9343 L 491.2825 306.8814 L 493.497 306.4187 L 492.6076 306.0306 L 492.3778 305.224 L 493.6845 304.6817 L 493.3967 303.615 L 496.0703 302.0986 L 494.2729 300.0051 L 499.2243 298.7008 L 502.1249 299.2428 L 503.5371 299.018 L 504.9544 300.5031 L 506.1421 300.7455 L 507.3192 300.4414 L 507.2269 299.9478 L 508.5518 299.3882 L 509.4492 297.9075 L 509.0295 296.0083 L 509.9084 295.7089 L 510.0589 297.0703 L 510.9378 296.3872 L 510.7662 294.8892 L 509.8371 295.1096 L 510.0245 294.2725 L 511.3626 293.7129 L 511.4973 294.5102 L 512.3392 294.4838 L 512.429 295.2329 L 513.7354 295.0919 L 514.6116 293.3165 L 516.2535 293.3342 L 516.0052 290.6865 L 516.8552 290.2461 L 516.7918 289.2243 L 517.5467 290.0478 L 518.6341 290.0258 L 518.6393 289.0436 L 522.089 287.4803 L 524.2295 288.2025 L 524.1081 287.6607 L 525.177 287.1277 L 527.584 288.0835 L 528.2783 289.4576 L 530.0572 289.5722 L 530.3369 290.4048 L 531.0442 290.2593 L 531.1735 288.7354 L 532.1158 288.5107 L 533.1452 289.6603 L 534.3065 289.3697 L 535.576 289.6955 L 536.4127 292.3738 L 538.0596 292.4619 L 538.3209 293.7481 L 537.4921 294.2902 L 537.8959 295.1801 L 540.377 294.5631 L 540.6066 295.4797 L 541.826 294.3475 L 543.333 296.634 L 543.8689 295.9598 L 544.7186 297.1232 L 544.5682 298.5157 L 543.4386 299.5336 L 544.4548 300.4766 L 545.5079 299.3397 L 547.2631 301.323 L 549.2584 303.0639 L 548.047 303.7957 L 549.6859 305.3077 L 550.5436 304.2099 L 553.4627 307.2033 L 556.0257 306.1672 L 556.857 305.2416 L 557.6224 306.5553 L 557.9443 308.6495 L 556.6406 312.6225 L 555.3948 313.1078 L 555.3791 315.4983 L 556.5455 315.9304 L 557.1737 317.5051 L 555.7352 317.642 L 553.5737 319.2479 L 553.9194 320.0507 L 550.3986 319.2875 L 546.4501 319.0934 L 543.647 318.6698 L 542.3301 318.9876 L 541.8893 318.1229 L 536.9775 316.4553 L 535.2381 315.379 L 533.8156 316.4597 L 533.9501 317.0642 L 535.6578 316.6274 L 536.1592 317.4919 L 536.7135 321.9258 L 535.4652 322.9409 L 531.7806 323.8718 L 529.2918 325.1207 L 526.8186 326.7934 L 524.1898 329.7552 L 522.3423 331.852 L 521.9465 331.9228 L 520.8142 330.2143 L 519.7743 329.7905 L 517.1482 331.5563 L 516.1082 330.0466 L 515.4642 330.488 L 512.1941 331.5034 L 511.3706 332.1037 L 509.7659 330.4572 L 507.6808 330.7794 L 506.3584 330.254 L 504.9095 331.7507 L 504.2918 333.4327 L 504.0517 335.2385 L 502.8641 334.7218 L 499.0343 334.1127 L 495.4396 334.6645 L 493.1459 335.8655 L 493.2912 338.3695 L 491.9186 338.524 L 491.7736 337.0976 L 491.3169 336.9166 L 488.1153 338.3164 L 486.2705 338.3299 L 485.014 339.1822 L 484.5021 335.3621 L 483.7894 335.4725 L 483.9451 337.1551 L 483.2299 337.4288 L 483.3751 339.0982 L 483.9558 339.5487 L 481.3165 340.7678 L 481.063 337.8573 L 480.353 338.0958 L 479.6245 335.5565 L 477.5342 336.1128 L 477.3021 335.3621 L 473.6228 336.3381 L 472.5722 336.1439 L 472.4324 334.6425 L 471.4876 333.8874 L 470.6351 336.0158 L 469.8195 335.6361 L 468.8931 336.731 Z M 504.1413 330.5806 L 506.1658 329.7112 L 506.2503 328.5413 L 504.466 327.0583 L 503.2177 327.7248 L 503.793 329.0797 L 503.2836 329.2653 L 504.1413 330.5806 Z" fill="[object Object]" fill-opacity="1" stroke="dodgerblue" stroke-width="1" paint-order="fill" stroke-opacity="1" stroke-dasharray="" stroke-linecap="butt" stroke-miterlimit="10" style="filter: url(&quot;#zr2323-shadow-0&quot;);">
</path>
<path d="M 541.826 294.3475 L 542.5676 291.6866 L 541.5489 289.4047 L 542.6627 289.0524 L 541.1556 288.929 L 540.2924 287.5637 L 540.3533 285.7891 L 540.0234 284.8246 L 537.7217 284.1685 L 537.0277 281.5489 L 538.2153 281.1484 L 538.9201 279.6338 L 539.7382 278.846 L 538.6613 276.1566 L 539.7119 275.4611 L 539.6565 274.5326 L 541.0738 275.6636 L 540.8072 277.5958 L 541.9976 276.7596 L 541.8339 275.7735 L 543.4174 277.3801 L 544.9325 275.8528 L 544.3492 275.0871 L 543.8212 271.3113 L 542.9318 270.2071 L 542.1032 267.7697 L 542.0715 266.6084 L 541.4539 265.2711 L 542.4172 264.7565 L 542.0451 264.123 L 541.1504 264.5276 L 540.7888 263.6657 L 539.126 261.5767 L 538.5797 260.3013 L 537.9778 260.0551 L 537.0277 257.9972 L 535.8637 257.1532 L 536.1804 256.045 L 537.0249 255.7946 L 536.7691 254.4757 L 536.1857 254.1151 L 536.0536 252.4053 L 534.9241 251.2713 L 533.6915 251.3197 L 533.0027 250.3176 L 531.6514 250.5768 L 531.3424 249.9658 L 530.424 250.0625 L 530.5718 248.0279 L 531.683 247.3952 L 531.3716 246.1165 L 530.0387 244.3281 L 528.3996 244.0601 L 528.2544 243.1772 L 529.7193 242.9662 L 530.4425 243.3835 L 532.4432 243.032 L 532.2373 241.6921 L 528.1912 238.4154 L 526.5309 238.5121 L 526.473 239.4608 L 525.8157 238.1652 L 524.1134 237.7787 L 525.206 236.3295 L 523.0575 234.6959 L 520.054 231.7408 L 517.7077 229.7256 L 515.538 227.6099 L 512.5927 225.165 L 510.9932 223.55 L 507.3192 220.5486 L 507.8972 219.9607 L 507.5461 218.4074 L 506.0312 218.8375 L 505.2526 219.5832 L 503.1201 218.5873 L 503.5002 219.8686 L 500.6997 218.7278 L 500.6442 217.9424 L 498.8759 217.7451 L 498.4194 216.5825 L 495.9595 215.5869 L 494.0776 214.4419 L 489.8917 212.714 L 486.7429 211.8368 L 485.2384 211.1307 L 481.8628 210.2538 L 480.3293 211.6745 L 479.6537 212.7314 L 476.8374 213.5121 L 474.3328 214.8411 L 473.8524 214.7315 L 474.0054 212.6437 L 473.2347 211.5955 L 471.8702 212.9683 L 470.5822 211.0299 L 470.115 209.0608 L 470.5373 207.0965 L 468.2385 205.9173 L 468.1961 204.4092 L 469.3601 204.0102 L 467.9376 201.7659 L 468.022 199.6051 L 468.7611 197.6156 L 469.5951 198.435 L 469.2415 196.5769 L 466.6813 196.6866 L 466.127 197.4272 L 465.6598 196.6166 L 462.6457 196.691 L 462.6352 198.5141 L 461.5503 199.5439 L 461.8037 201.1392 L 460.5131 201.4767 L 461.1096 202.7873 L 460.3679 203.1027 L 460.6504 204.1987 L 457.6362 205.0668 L 456.0949 204.7335 L 454.1391 205.7639 L 452.3233 206.0355 L 451.674 206.8334 L 449.6258 206.759 L 449.9083 210.5695 L 447.525 211.9464 L 447.839 212.7972 L 446.4402 212.8322 L 446.6328 213.4201 L 445.1442 214.3631 L 445.5375 215.1568 L 445.0414 215.6789 L 447.3877 218.5085 L 446.5483 218.697 L 446.7965 219.8598 L 444.7826 220.6714 L 444.5767 219.8158 L 443.711 219.3422 L 442.3227 220.1406 L 442.9748 222.5671 L 442.2593 223.0936 L 442.6264 224.2302 L 441.5019 224.1512 L 441.3252 223.0806 L 441.8238 222.0186 L 439.8892 223.2297 L 440.9319 223.3922 L 440.6284 223.9098 L 441.5283 224.9413 L 440.7866 224.814 L 439.5066 225.727 L 439.9686 227.8733 L 442.1777 230.2394 L 441.56 230.3623 L 441.3197 231.6617 L 439.3087 232.5926 L 439.5461 232.8956 L 438.2741 234.7003 L 438.4323 235.6135 L 437.7937 235.7366 L 437.4849 237.5548 L 438.9945 238.3278 L 439.6174 240.739 L 440.2878 240.6732 L 440.5016 242.3161 L 441.1218 242.7114 L 442.9615 242.5224 L 443.7269 242.7993 L 443.4867 241.6351 L 444.1914 241.2574 L 444.8987 243.1463 L 444.4053 243.1025 L 444.9066 246.9996 L 442.6342 247.5225 L 443.104 249.7725 L 442.0562 249.9746 L 443.273 251.0779 L 443.9433 254.7525 L 441.998 255.2933 L 442.0983 256.01 L 439.6227 256.5199 L 439.7415 257.0826 L 437.7487 257.4432 L 437.0178 259.0304 L 437.9995 259.1623 L 438.2873 260.341 L 438.8309 260.2485 L 439.5356 261.2467 L 439.5199 262.9884 L 438.4245 262.1439 L 439.1318 263.969 L 439.892 263.2435 L 441.3594 264.2858 L 441.9216 262.9443 L 442.9748 262.7025 L 445.1178 264.2726 L 445.1784 266.1024 L 446.2343 266.9119 L 447.7387 265.8341 L 449.1032 266.0891 L 449.0873 265.381 L 450.7054 264.8752 L 452.1332 266.5643 L 453.3103 266.4632 L 454.667 267.1538 L 453.7141 269.0147 L 452.4182 268.2007 L 452.4736 269.578 L 451.7294 269.8286 L 450.1247 271.7427 L 450.0164 272.5214 L 448.5278 272.8602 L 447.707 272.5742 L 447.3321 273.4061 L 447.5407 274.9111 L 446.5457 275.4171 L 446.7384 276.8783 L 447.6383 277.6575 L 447.2874 278.4144 L 447.9181 280.9019 L 447.1 281.8439 L 447.224 282.8258 L 444.5318 283.1252 L 443.4419 282.9753 L 443.9249 284.7632 L 445.139 285.5424 L 446.704 284.9348 L 446.4295 286.3703 L 444.413 287.0266 L 445.5902 291.9595 L 448.2612 291.4795 L 449.0768 290.6909 L 449.4728 291.8009 L 451.1434 289.6911 L 451.8878 289.189 L 451.6265 287.9865 L 453.6692 287.1321 L 454.4189 287.4318 L 454.7039 288.3787 L 454.0415 288.3523 L 453.7116 289.8806 L 453.9859 291.3429 L 454.6458 291.8758 L 455.7782 291.4927 L 457.3353 292.1402 L 457.3829 293.5587 L 456.8418 293.6909 L 457.3011 296.0435 L 456.8444 298.3174 L 455.8731 298.476 L 456.2876 300.6353 L 453.1229 301.3803 L 452.9223 302.5439 L 452.075 302.6849 L 452.2045 303.9323 L 452.917 304.4261 L 453.9886 304.2936 L 454.4478 306.3967 L 454.754 309.7209 L 453.8434 309.9943 L 455.2265 313.6016 L 454.6458 313.9987 L 454.8122 317.3465 L 455.9392 317.9331 L 456.4248 317.4435 L 456.6148 319.4685 L 457.7892 319.8788 L 457.5095 320.8185 L 457.924 321.7493 L 456.9949 321.6171 L 456.372 322.451 L 456.1581 321.1627 L 455.5274 321.3125 L 455.3505 320.1655 L 454.4162 320.1611 L 454.6168 323.682 L 453.8461 323.3689 L 450.7608 323.8897 L 451.0062 326.5596 L 451.7294 326.5021 L 452.1965 327.6011 L 452.2018 331.6314 L 452.4209 332.6071 L 452.1833 334.4437 L 452.6902 334.8323 L 452.7086 338.9657 L 453.5374 339.9684 L 458.1825 339.69 L 461.1545 340.7191 L 462.0782 341.9117 L 462.3422 343.9572 L 463.0495 343.8776 L 463.9838 347.6552 L 462.9439 347.7745 L 463.2027 348.7069 L 464.4325 348.7864 L 463.6646 345.786 L 463.8413 345.0086 L 464.868 344.7214 L 463.8572 341.0683 L 466.8078 340.7458 L 466.8502 339.8004 L 464.9656 339.3146 L 464.839 338.1972 L 467.4362 337.4729 L 467.2249 338.1267 L 468.3968 338.4976 L 468.8931 336.731 L 467.291 335.3976 L 467.9957 334.7218 L 467.2144 334.5806 L 466.9241 332.9249 L 467.4045 330.9119 L 470.6006 330.6337 L 471.9178 331.1236 L 471.8622 329.9626 L 472.4219 325.902 L 473.1978 325.6547 L 472.6039 324.3661 L 473.3693 323.6644 L 472.5168 320.3288 L 474.3907 319.6626 L 474.9001 319.9802 L 476.7346 317.6993 L 476.8718 316.1862 L 478.0542 316.7332 L 479.9282 316.804 L 480.8915 315.3041 L 481.034 313.2576 L 483.2696 313.2047 L 483.734 311.723 L 483.4887 309.6415 L 482.2269 310.2678 L 482.0712 309.1477 L 482.6177 309.0243 L 481.868 306.9786 L 482.2401 306.9563 L 482.0317 305.2019 L 486.0382 304.0557 L 485.6739 304.8844 L 488.1972 304.3068 L 489.2159 306.9343 L 491.2825 306.8814 L 493.497 306.4187 L 492.6076 306.0306 L 492.3778 305.224 L 493.6845 304.6817 L 493.3967 303.615 L 496.0703 302.0986 L 494.2729 300.0051 L 499.2243 298.7008 L 502.1249 299.2428 L 503.5371 299.018 L 504.9544 300.5031 L 506.1421 300.7455 L 507.3192 300.4414 L 507.2269 299.9478 L 508.5518 299.3882 L 509.4492 297.9075 L 509.0295 296.0083 L 509.9084 295.7089 L 510.0589 297.0703 L 510.9378 296.3872 L 510.7662 294.8892 L 509.8371 295.1096 L 510.0245 294.2725 L 511.3626 293.7129 L 511.4973 294.5102 L 512.3392 294.4838 L 512.429 295.2329 L 513.7354 295.0919 L 514.6116 293.3165 L 516.2535 293.3342 L 516.0052 290.6865 L 516.8552 290.2461 L 516.7918 289.2243 L 517.5467 290.0478 L 518.6341 290.0258 L 518.6393 289.0436 L 522.089 287.4803 L 524.2295 288.2025 L 524.1081 287.6607 L 525.177 287.1277 L 527.584 288.0835 L 528.2783 289.4576 L 530.0572 289.5722 L 530.3369 290.4048 L 531.0442 290.2593 L 531.1735 288.7354 L 532.1158 288.5107 L 533.1452 289.6603 L 534.3065 289.3697 L 535.576 289.6955 L 536.4127 292.3738 L 538.0596 292.4619 L 538.3209 293.7481 L 537.4921 294.2902 L 537.8959 295.1801 L 540.377 294.5631 L 540.6066 295.4797 L 541.826 294.3475 Z" fill="[object Object]" fill-opacity="1" stroke="rgba(30,144,255,1)" stroke-width="1" paint-order="fill" stroke-opacity="1" stroke-dasharray="" stroke-linecap="butt" stroke-miterlimit="10" style="filter: url(&quot;#zr2323-shadow-1&quot;);">
</path>
<path d="M 528.8061 164.7013 L 524.9474 163.6341 L 522.7805 164.3995 L 521.6984 165.375 L 521.5901 164.4827 L 520.1042 164.0496 L 519.3203 164.2857 L 519.1092 163.3541 L 517.8105 163.9752 L 517.6523 163.4591 L 516.1557 163.8484 L 516.7232 165.8167 L 515.839 165.5893 L 511.294 166.2716 L 511.302 167.444 L 510.3941 167.8028 L 509.7262 166.7574 L 509.1904 167.8904 L 510.2278 170.6029 L 509.3489 170.6728 L 509.4175 173.272 L 511.4128 172.5107 L 513.5455 173.631 L 513.9123 176.9703 L 516.1716 178.6992 L 518.8267 181.7946 L 518.0191 182.819 L 516.6994 182.8366 L 516.285 184.0933 L 515.1397 183.8831 L 514.712 184.8901 L 512.4447 184.8989 L 510.2673 185.871 L 511.0936 188.4901 L 509.9743 188.2317 L 510.0008 188.893 L 508.6863 188.9324 L 508.9873 190.7676 L 508.5782 192.4543 L 509.6813 192.2833 L 510.0404 192.9536 L 511.1305 192.5943 L 511.6925 193.7859 L 510.5972 194.2461 L 510.7372 195.2801 L 511.682 194.8376 L 511.983 196.1959 L 511.5158 196.2309 L 511.9169 201.1303 L 511.4023 201.7483 L 511.8695 205.2509 L 511.0961 205.3517 L 510.8083 206.9783 L 509.8266 206.9386 L 509.6893 208.3944 L 510.5762 209.0258 L 510.6843 210.8544 L 511.7032 210.8411 L 511.6663 211.7842 L 513.3396 212.4421 L 513.3818 213.1305 L 512.4317 213.5868 L 512.3973 214.7403 L 509.5046 214.7797 L 508.9292 216.1351 L 508.0133 216.8457 L 508.7682 217.517 L 507.5461 218.4074 L 507.8972 219.9607 L 507.3192 220.5486 L 510.9932 223.55 L 512.5927 225.165 L 515.538 227.6099 L 517.7077 229.7256 L 520.054 231.7408 L 523.0575 234.6959 L 525.206 236.3295 L 524.1134 237.7787 L 525.8157 238.1652 L 526.473 239.4608 L 526.5309 238.5121 L 528.1912 238.4154 L 532.2373 241.6921 L 532.4432 243.032 L 530.4425 243.3835 L 529.7193 242.9662 L 528.2544 243.1772 L 528.3996 244.0601 L 530.0387 244.3281 L 531.3716 246.1165 L 531.683 247.3952 L 530.5718 248.0279 L 530.424 250.0625 L 531.3424 249.9658 L 531.6514 250.5768 L 533.0027 250.3176 L 533.6915 251.3197 L 534.9241 251.2713 L 536.0536 252.4053 L 536.1857 254.1151 L 536.7691 254.4757 L 537.0249 255.7946 L 536.1804 256.045 L 535.8637 257.1532 L 537.0277 257.9972 L 537.9778 260.0551 L 538.5797 260.3013 L 539.126 261.5767 L 540.7888 263.6657 L 541.1504 264.5276 L 542.0451 264.123 L 542.4172 264.7565 L 541.4539 265.2711 L 542.0715 266.6084 L 542.1032 267.7697 L 542.9318 270.2071 L 543.8212 271.3113 L 544.3492 275.0871 L 544.9325 275.8528 L 543.4174 277.3801 L 541.8339 275.7735 L 541.9976 276.7596 L 540.8072 277.5958 L 541.0738 275.6636 L 539.6565 274.5326 L 539.7119 275.4611 L 538.6613 276.1566 L 539.7382 278.846 L 538.9201 279.6338 L 538.2153 281.1484 L 537.0277 281.5489 L 537.7217 284.1685 L 540.0234 284.8246 L 540.3533 285.7891 L 540.2924 287.5637 L 541.1556 288.929 L 542.6627 289.0524 L 542.9952 288.1408 L 543.9427 288.0791 L 544.4521 286.67 L 546.9357 286.0929 L 550.8446 286.5422 L 553.146 286.4012 L 553.5393 285.7891 L 554.5211 286.3659 L 554.5186 287.9295 L 555.1151 288.3831 L 559.6179 288.9334 L 559.5148 289.9729 L 563.1519 289.8189 L 563.6613 288.471 L 563.0014 287.6783 L 562.9592 286.4673 L 564.0571 287.0399 L 564.6747 286.0533 L 566.0605 286.7755 L 567.2165 285.9696 L 568.5441 285.8464 L 569.2751 286.5862 L 570.7954 285.9431 L 570.4338 285.1242 L 571.6135 284.7764 L 573.3001 283.2924 L 572.8673 282.5748 L 573.213 281.4169 L 577.5653 280.3604 L 577.1457 279.7043 L 576.2139 280.0345 L 575.5409 278.0976 L 575.5937 277.2744 L 575.029 274.823 L 575.4195 274.713 L 575.029 272.3145 L 574.2978 272.5654 L 572.7485 264.277 L 572.7749 263.393 L 573.894 263.5073 L 574.5381 262.6716 L 575.8762 262.0031 L 575.4195 260.7145 L 576.573 260.0375 L 577.853 261.5106 L 579.7534 260.763 L 579.4999 259.7339 L 580.5056 259.6152 L 580.7432 258.8985 L 584.0396 259.4218 L 585.9927 258.5467 L 587.096 257.5443 L 588.6295 255.1745 L 588.1015 253.8953 L 587.2991 253.6669 L 586.8689 251.601 L 589.0728 250.7878 L 589.1362 251.7547 L 590.0785 251.5043 L 590.1681 252.5329 L 591.0523 252.3219 L 591.5933 254.0537 L 594.7976 253.4427 L 596.9037 252.8491 L 596.5633 251.6933 L 597.1757 250.2559 L 597.5109 247.1051 L 601.4038 246.0418 L 602.6576 244.4689 L 601.9316 241.1696 L 602.0848 240.5544 L 606.7776 242.1183 L 607.0731 243.032 L 608.6014 242.3469 L 608.7518 241.8065 L 610.346 241.5869 L 611.2143 240.704 L 612.5419 241.1431 L 613.0882 240.458 L 613.0196 237.8884 L 613.8404 236.9443 L 615.0572 236.7774 L 616.5801 237.6909 L 616.5274 235.9121 L 615.6035 235.2843 L 614.0647 235.3325 L 612.8639 234.7617 L 612.1012 233.4882 L 612.7081 232.2457 L 614.3605 233.3962 L 615.6774 233.2424 L 616.4902 232.373 L 616.5536 231.0603 L 616.0258 230.3623 L 613.6425 229.1813 L 612.1406 227.3289 L 611.3173 226.8636 L 609.7917 227.1138 L 609.3747 228.9223 L 607.2685 230.6477 L 606.2655 230.7705 L 605.3022 229.651 L 606.276 228.0708 L 606.2892 227.3333 L 605.3628 225.7796 L 603.101 226.0518 L 602.6681 224.8666 L 602.6047 223.3087 L 601.7048 223.6597 L 600.5989 225.7487 L 599.7095 226.4248 L 599.1498 223.436 L 599.3399 222.5891 L 600.2082 223.5721 L 601.3404 222.6811 L 601.6943 220.7067 L 603.4836 220.9392 L 603.2435 219.1579 L 604.1197 218.1267 L 603.6077 216.9027 L 603.9613 216.5693 L 605.3391 217.0255 L 605.7349 216.4905 L 605.4579 215.2359 L 605.7878 214.1174 L 607.4981 214.8499 L 608.369 213.1438 L 608.1474 212.2972 L 608.6146 210.9114 L 607.807 209.2978 L 608.5749 208.3068 L 608.7281 206.8775 L 607.8597 207.1973 L 606.532 206.4741 L 607.1497 204.966 L 605.7905 203.9926 L 606.6113 202.8005 L 605.3206 203.0327 L 605.1492 202.1296 L 603.993 201.2794 L 604.967 199.6842 L 604.5764 198.4394 L 603.7265 198.0013 L 602.6206 199.18 L 602.1482 198.0975 L 600.7202 197.401 L 599.5194 197.5806 L 598.3422 196.7962 L 595.9192 196.9538 L 594.1852 195.5605 L 593.9556 194.005 L 593.1982 193.2952 L 591.5671 193.3041 L 592.5621 192.6208 L 591.2002 192.3141 L 591.0947 191.3633 L 592.2269 191.2627 L 592.335 190.1369 L 593.082 190.3516 L 593.4885 188.5119 L 594.1641 189.2214 L 594.9454 188.8624 L 593.7972 187.1935 L 594.6472 186.3879 L 591.8336 185.6608 L 590.5878 184.8375 L 590.3001 184.1107 L 589.1441 183.6246 L 587.6343 183.9487 L 586.7845 182.1315 L 585.486 183.6202 L 584.4249 182.6308 L 583.6174 182.679 L 582.2079 182.4338 L 582.4297 181.1727 L 581.709 181.2865 L 580.6269 180.5643 L 579.88 181.5843 L 579.1437 180.4417 L 578.2543 181.3085 L 577.4016 180.9275 L 576.6891 179.1941 L 574.4984 179.8331 L 574.0365 177.9638 L 572.7722 178.9183 L 570.2122 178.1785 L 570.7585 179.0715 L 569.0323 180.5335 L 568.3038 180.4285 L 568.9162 178.813 L 567.6969 179.4435 L 567.1768 180.6299 L 566.1449 180.4899 L 564.3263 181.6411 L 563.7933 183.9487 L 562.6346 183.8566 L 561.7636 183.235 L 559.6046 182.7184 L 558.958 182.1009 L 558.9765 180.6737 L 557.9815 179.6187 L 556.3873 179.9777 L 555.1071 178.3405 L 555.16 177.0579 L 554.3841 176.9967 L 554.6004 176.1869 L 553.2331 175.6529 L 551.8079 175.6309 L 551.6549 174.8608 L 550.0026 174.7952 L 549.9921 173.9636 L 548.0443 174.2786 L 546.6719 173.7928 L 545.9961 173.0576 L 545.4418 173.6046 L 544.922 172.865 L 543.7606 173.2635 L 542.8184 174.607 L 541.5726 173.9724 L 540.8521 172.3007 L 540.9365 171.233 L 539.7568 170.5679 L 538.2999 170.3317 L 537.4764 171.0798 L 536.3282 169.5789 L 535.101 168.857 L 534.3276 169.0278 L 534.428 167.3873 L 532.8363 165.8473 L 531.9391 165.9787 L 531.0601 165.0776 L 530.5481 165.4888 L 528.8061 164.7013 Z" fill="[object Object]" fill-opacity="1" stroke="dodgerblue" stroke-width="1" paint-order="fill" stroke-opacity="1" stroke-dasharray="" stroke-linecap="butt" stroke-miterlimit="10" style="filter: url(&quot;#zr2323-shadow-0&quot;);">
</path>
<path d="M 581.2498 378.2444 L 582.0601 378.2841 L 583.7783 379.5102 L 585.6655 382.0023 L 587.2807 381.8784 L 587.7004 382.6796 L 587.0802 384.5701 L 586.7291 384.6411 L 585.5994 388.0506 L 585.7843 390.3978 L 585.4676 390.4997 L 585.9163 394.566 L 584.4831 394.5614 L 581.6905 391.9347 L 580.2206 392.2315 L 578.5049 394.0077 L 578.2411 393.4185 L 575.4328 394.628 L 576.6441 403.7071 L 573.4532 404.3012 L 569.1009 408.1176 L 565.9495 411.0484 L 564.4531 413.5625 L 563.8459 416.4497 L 558.0262 409.0176 L 554.1912 412.7732 L 549.3587 416.7291 L 544.753 420.3574 L 542.4436 422.1187 L 543.209 423.1569 L 542.9847 423.8179 L 544.1196 424.1907 L 543.246 425.2423 L 542.3565 425.4909 L 539.6301 423.5872 L 537.9435 422.9793 L 529.1281 419.3638 L 528.6424 420.4639 L 526.8636 422.6201 L 522.1813 428.6329 L 519.1382 426.3873 L 517.0451 429.1386 L 518.6103 430.297 L 516.7469 432.6987 L 520.3258 435.4555 L 520.772 436.0372 L 516.4461 439.2253 L 510.7609 443.0801 L 510.27 442.4406 L 508.9424 442.1474 L 508.7524 444.3194 L 504.9913 446.8027 L 505.4373 446.896 L 505.4637 448.8241 L 506.3452 448.2999 L 507.2506 449.0063 L 507.2743 450.0281 L 509.1245 450.6547 L 509.9454 449.4327 L 513.1679 448.9397 L 513.2181 449.4638 L 509.9982 449.8993 L 509.4782 453.6543 L 509.7183 456.0853 L 509.6524 458.0678 L 508.8448 460.0904 L 507.8391 459.7304 L 507.6332 460.7351 L 507.9316 462.278 L 507.446 462.327 L 507.5753 463.7498 L 508.7023 463.6075 L 508.7101 464.937 L 509.6603 465.3328 L 510.1168 466.4578 L 510.0297 467.8011 L 509.3409 468.2503 L 510.3596 468.4593 L 510.4891 470.9413 L 509.2116 474.9985 L 509.4385 476.3288 L 509.2089 477.9886 L 508.177 478.892 L 510.9404 479.0167 L 511.2862 479.5641 L 513.131 478.7585 L 514.5405 478.772 L 514.976 479.1992 L 515.6014 477.9487 L 517.7261 477.8108 L 518.4177 476.6316 L 518.3069 475.7904 L 519.6792 475.6971 L 520.2018 473.1967 L 520.9672 472.3602 L 522.5614 472.1155 L 523.5776 472.6762 L 523.4483 474.2421 L 522.5509 475.5058 L 524.7969 475.3946 L 523.6462 477.2633 L 524.5067 477.2768 L 524.921 478.505 L 526.7263 478.6473 L 528.5606 479.9068 L 529.1386 481.3266 L 529.2548 482.6929 L 528.3971 482.8487 L 528.6978 483.9125 L 526.4967 484.7005 L 525.0318 487.3049 L 525.1374 488.4001 L 529.598 486.9264 L 529.8011 487.7012 L 525.9055 488.9968 L 525.346 489.0012 L 526.4438 492.0561 L 526.7183 492.0737 L 528.0195 494.844 L 530.0335 493.263 L 530.3923 494.7014 L 533.0264 493.833 L 535.6077 493.2272 L 535.4863 490.8269 L 537.1068 490.8803 L 537.9144 492.6572 L 538.2153 494.7327 L 538.7327 495 L 540.1157 494.452 L 541.9659 492.6572 L 546.1466 492.5771 L 546.9357 493.459 L 546.9938 492.3454 L 548.4059 491.1208 L 547.7645 488.4758 L 550.5094 488.0307 L 550.5436 492.6217 L 555.8435 490.0788 L 558.3536 487.336 L 556.7963 486.5925 L 558.5146 485.0567 L 559.5862 485.9157 L 562.8669 483.1426 L 570.4655 480.5699 L 571.3497 481.1796 L 572.4081 480.4942 L 571.9065 479.0167 L 575.1081 479.4617 L 576.5703 478.843 L 577.0454 479.8578 L 578.2595 479.871 L 579.1991 480.8014 L 580.6349 480.4719 L 580.5188 481.8382 L 581.234 481.7716 L 580.7087 483.1603 L 581.6695 483.2849 L 584.0608 482.5594 L 583.5013 480.9616 L 584.2218 480.4273 L 585.1192 478.8565 L 586.6051 479.0745 L 587.2412 479.9068 L 591.9734 478.674 L 603.0324 476.5603 L 603.6553 472.2713 L 605.0144 469.3577 L 606.4714 467.8055 L 620.5364 462.7316 L 622.4263 460.3883 L 622.8089 457.5566 L 622.9092 443.5822 L 621.9591 441.6544 L 620.5391 440.7707 L 609.3508 438.901 L 606.0334 437.2669 L 604.4734 434.5321 L 604.4048 424.0976 L 606.6693 422.2652 L 612.79 422.0254 L 625.0339 419.3283 L 628.238 415.0569 L 630.1437 413.7354 L 638.5948 416.8045 L 640.9517 417.3188 L 643.5383 417.2214 L 645.9745 413.057 L 646.2014 410.5118 L 645.8979 408.5744 L 649.0202 400.4409 L 652.2957 399.2223 L 653.5916 394.9468 L 653.362 393.1173 L 645.0876 390.7786 L 644.5413 389.3835 L 644.1877 381.635 L 643.5463 377.0183 L 641.9204 371.279 L 641.5958 365.0197 L 642.187 360.6726 L 643.3562 356.8792 L 645.8056 352.1892 L 648.2575 348.0218 L 658.7648 340.5514 L 666.329 335.0355 L 668.013 330.8587 L 668.8206 326.4139 L 679.5943 322.7997 L 679.9904 323.1351 L 680.4179 320.0418 L 685.7969 319.8656 L 685.9658 318.7714 L 685.8047 313.4562 L 685.5858 313.2224 L 680.3702 311.0968 L 679.7052 309.4036 L 680.0747 308.5966 L 678.7366 307.8161 L 679.3727 305.8191 L 678.7339 304.5186 L 678.0186 303.994 L 677.5305 305.4134 L 676.4853 306.1496 L 674.4556 304.7522 L 672.3758 304.9373 L 672.2782 303.7075 L 671.6815 302.8964 L 670.0531 303.1961 L 669.842 302.3762 L 668.8602 301.8606 L 667.8677 299.4499 L 667.8203 298.313 L 666.6087 297.7753 L 663.8111 298.0397 L 662.9796 297.4228 L 661.4436 297.4713 L 660.2664 297.0967 L 655.7743 296.9733 L 654.8849 297.8503 L 654.2779 296.7266 L 652.2455 296.0523 L 652.4117 294.9377 L 651.5435 293.7658 L 649.5957 293.7878 L 647.405 294.2946 L 646.2543 293.1711 L 645.0824 293.7393 L 645.1667 294.4574 L 643.9791 294.9377 L 643.4407 294.6469 L 643.1028 295.3563 L 644.1797 296.255 L 644.0265 298.0089 L 643.2454 298.1984 L 642.9182 295.8981 L 641.9389 297.5638 L 642.6541 298.9299 L 641.6512 299.5116 L 641.5034 300.4634 L 644.1929 301.9311 L 644.565 302.5836 L 639.64 312.2565 L 639.3814 312.3182 L 635.512 310.1486 L 636.9981 307.3443 L 636.0954 307.4281 L 632.1312 305.1931 L 632.3685 304.7345 L 632.3238 302.2528 L 632.6378 301.7328 L 631.3288 300.9261 L 629.2807 301.5169 L 627.6733 302.2881 L 626.7574 303.293 L 621.1223 304.5054 L 619.1033 304.4085 L 618.8975 306.5861 L 616.6909 306.3967 L 616.6302 310.3339 L 616.9152 310.4308 L 617.9631 313.2003 L 618.3854 313.1166 L 619.0742 314.969 L 619.8318 314.6779 L 619.8396 316.0144 L 623.2945 318.1361 L 618.9951 325.924 L 617.9736 329.3623 L 618.7101 329.636 L 618.5384 334.8854 L 611.5284 334.859 L 610.9952 335.2828 L 611.0164 330.8587 L 608.3875 330.8631 L 605.6638 326.6566 L 604.3389 325.0017 L 603.9323 324.0483 L 602.28 324.6839 L 602.2722 325.2311 L 600.9631 326.0124 L 598.8278 326.6477 L 598.907 331.3974 L 599.4612 331.2561 L 599.9628 332.3466 L 598.6272 334.6029 L 598.4083 336.7134 L 593.8553 335.6802 L 589.379 333.7858 L 589.0411 334.8279 L 588.8669 337.8705 L 586.8427 338.5373 L 586.3253 339.8976 L 586.2355 341.6336 L 583.934 342.7996 L 579.5211 340.5293 L 578.7899 340.8782 L 577.8872 344.1558 L 576.6309 351.8268 L 579.3996 352.1316 L 582.9046 352.1804 L 583.0394 353.8821 L 586.378 353.9526 L 586.2831 359.3241 L 588.4024 359.4478 L 587.2437 362.7554 L 587.5789 365.5638 L 583.4035 365.2232 L 581.8622 364.7986 L 581.2762 367.8285 L 580.6137 367.6823 L 579.6636 369.9741 L 580.004 370.2527 L 579.3838 372.8807 L 580.2785 373.6373 L 580.9411 372.9605 L 581.1258 374.288 L 580.8407 375.8899 L 581.2498 378.2444 Z" fill="[object Object]" fill-opacity="1" stroke="dodgerblue" stroke-width="1" paint-order="fill" stroke-opacity="1" stroke-dasharray="" stroke-linecap="butt" stroke-miterlimit="10" style="filter: url(&quot;#zr2323-shadow-0&quot;);">
</path>
<path d="M 635.3563 283.0326 L 634.9842 285.9519 L 635.644 287.2732 L 637.5259 287.9469 L 638.4126 287.4891 L 640.7829 287.4362 L 641.5271 288.8588 L 644.6758 286.291 L 643.6781 284.6354 L 644.4515 283.9881 L 644.9715 284.7808 L 644.6786 285.7098 L 646.1223 285.2342 L 646.563 285.8905 L 644.697 288.6429 L 644.0424 291.0523 L 643.3008 290.9245 L 642.4799 292.5939 L 643.6544 293.6776 L 643.4407 294.6469 L 643.1028 295.3563 L 644.1797 296.255 L 644.0265 298.0089 L 643.2454 298.1984 L 642.9182 295.8981 L 641.9389 297.5638 L 642.6541 298.9299 L 641.6512 299.5116 L 641.5034 300.4634 L 644.1929 301.9311 L 644.565 302.5836 L 639.64 312.2565 L 639.3814 312.3182 L 635.512 310.1486 L 636.9981 307.3443 L 636.0954 307.4281 L 632.1312 305.1931 L 632.3685 304.7345 L 632.3238 302.2528 L 632.6378 301.7328 L 631.3288 300.9261 L 629.2807 301.5169 L 627.6733 302.2881 L 626.7574 303.293 L 621.1223 304.5054 L 619.1033 304.4085 L 618.8975 306.5861 L 616.6909 306.3967 L 616.6302 310.3339 L 616.9152 310.4308 L 617.9631 313.2003 L 618.3854 313.1166 L 619.0742 314.969 L 619.8318 314.6779 L 619.8396 316.0144 L 623.2945 318.1361 L 618.9951 325.924 L 617.9736 329.3623 L 618.7101 329.636 L 618.5384 334.8854 L 611.5284 334.859 L 610.9952 335.2828 L 611.0164 330.8587 L 608.3875 330.8631 L 605.6638 326.6566 L 604.3389 325.0017 L 603.9323 324.0483 L 602.28 324.6839 L 602.2722 325.2311 L 600.9631 326.0124 L 598.8278 326.6477 L 598.907 331.3974 L 599.4612 331.2561 L 599.9628 332.3466 L 598.6272 334.6029 L 598.4083 336.7134 L 593.8553 335.6802 L 589.379 333.7858 L 585.6919 332.8365 L 585.2248 333.0574 L 583.2293 332.4615 L 579.4524 330.1879 L 578.6633 329.9141 L 578.6738 326.7185 L 577.9296 326.0124 L 578.0826 327.2922 L 576.441 328.047 L 576.5466 329.1505 L 574.3242 328.3295 L 576.3591 327.6011 L 576.7102 325.6726 L 574.6436 326.7009 L 573.4188 326.7229 L 572.6958 326.1977 L 573.5298 325.0898 L 573.6724 322.654 L 570.7163 320.342 L 569.349 320.439 L 567.6071 319.8257 L 566.5329 318.5112 L 565.8466 319.6846 L 564.7329 320.0242 L 561.6368 319.8301 L 561.4918 320.5626 L 559.9662 321.8245 L 558.153 321.2244 L 558.5567 318.4624 L 557.1737 317.5051 L 556.5455 315.9304 L 555.3791 315.4983 L 555.3948 313.1078 L 556.6406 312.6225 L 557.9443 308.6495 L 557.6224 306.5553 L 556.857 305.2416 L 556.0257 306.1672 L 553.4627 307.2033 L 550.5436 304.2099 L 549.6859 305.3077 L 548.047 303.7957 L 549.2584 303.0639 L 547.2631 301.323 L 545.5079 299.3397 L 544.4548 300.4766 L 543.4386 299.5336 L 544.5682 298.5157 L 544.7186 297.1232 L 543.8689 295.9598 L 543.333 296.634 L 541.826 294.3475 L 542.5676 291.6866 L 541.5489 289.4047 L 542.6627 289.0524 L 542.9952 288.1408 L 543.9427 288.0791 L 544.4521 286.67 L 546.9357 286.0929 L 550.8446 286.5422 L 553.146 286.4012 L 553.5393 285.7891 L 554.5211 286.3659 L 554.5186 287.9295 L 555.1151 288.3831 L 559.6179 288.9334 L 559.5148 289.9729 L 563.1519 289.8189 L 563.6613 288.471 L 563.0014 287.6783 L 562.9592 286.4673 L 564.0571 287.0399 L 564.6747 286.0533 L 566.0605 286.7755 L 567.2165 285.9696 L 568.5441 285.8464 L 569.2751 286.5862 L 570.7954 285.9431 L 570.4338 285.1242 L 571.6135 284.7764 L 573.3001 283.2924 L 572.8673 282.5748 L 573.213 281.4169 L 577.5653 280.3604 L 577.1457 279.7043 L 576.2139 280.0345 L 575.5409 278.0976 L 575.5937 277.2744 L 575.029 274.823 L 575.4195 274.713 L 575.029 272.3145 L 574.2978 272.5654 L 572.7485 264.277 L 572.7749 263.393 L 573.894 263.5073 L 574.5381 262.6716 L 575.8762 262.0031 L 575.4195 260.7145 L 576.573 260.0375 L 577.853 261.5106 L 579.7534 260.763 L 579.4999 259.7339 L 580.5056 259.6152 L 580.7432 258.8985 L 584.0396 259.4218 L 585.9927 258.5467 L 587.096 257.5443 L 588.6295 255.1745 L 588.1015 253.8953 L 587.2991 253.6669 L 586.8689 251.601 L 589.0728 250.7878 L 589.1362 251.7547 L 590.0785 251.5043 L 590.1681 252.5329 L 591.0523 252.3219 L 591.5933 254.0537 L 594.7976 253.4427 L 596.9037 252.8491 L 596.5633 251.6933 L 597.1757 250.2559 L 597.5109 247.1051 L 601.4038 246.0418 L 602.6576 244.4689 L 601.9316 241.1696 L 602.0848 240.5544 L 606.7776 242.1183 L 607.0731 243.032 L 608.6014 242.3469 L 608.7518 241.8065 L 610.346 241.5869 L 611.2143 240.704 L 612.5419 241.1431 L 613.0882 240.458 L 613.0196 237.8884 L 613.8404 236.9443 L 615.0572 236.7774 L 616.5801 237.6909 L 616.2846 238.9382 L 616.6065 240.3173 L 617.9868 242.3907 L 619.4543 241.0861 L 621.2913 240.8313 L 622.281 239.7112 L 623.6112 237.5854 L 621.901 234.4234 L 621.843 232.6584 L 622.2229 230.9945 L 624.2526 230.8978 L 625.2161 230.4851 L 625.6092 229.1592 L 624.1946 227.0129 L 628.0506 224.5244 L 629.5497 224.4936 L 632.2552 224.9939 L 633.1472 223.9933 L 634.7071 223.809 L 637.7054 225.4371 L 639.4922 226.6485 L 641.9786 226.9559 L 643.475 226.5653 L 644.3195 227.0523 L 644.7287 226.2622 L 645.4757 226.3325 L 647.6002 225.0862 L 650.6778 226.8286 L 652.3274 226.4686 L 653.7341 226.9865 L 656.6558 228.6895 L 659.6145 229.932 L 660.3774 230.9681 L 659.8204 232.5179 L 658.5878 233.778 L 657.2549 236.0308 L 657.0967 237.6644 L 656.355 239.2633 L 655.6767 239.3115 L 655.6767 240.3437 L 654.8162 241.0905 L 654.7978 242.3819 L 655.7928 242.9312 L 655.6053 244.1832 L 656.2362 244.6358 L 656.1571 246.0021 L 655.5289 247.0787 L 653.4938 247.6764 L 653.1931 252.9634 L 652.2904 253.5482 L 653.0928 253.8909 L 653.7157 256.1813 L 653.4174 257.3157 L 651.4986 258.182 L 651.108 258.8018 L 649.5058 258.6919 L 648.7299 261.8756 L 648.0015 261.8668 L 648.297 273.1155 L 643.4802 274.0176 L 643.6861 275.6063 L 645.8715 275.2587 L 646.4786 276.8474 L 646.0879 280.0874 L 647.1013 281.7425 L 645.6102 282.9842 L 644.5149 281.0955 L 643.9132 281.5445 L 641.9045 281.9981 L 638.4101 282.0948 L 635.3563 283.0326 Z M 627.6311 275.941 L 622.1358 273.3752 L 614.8354 274.141 L 615.3395 278.9824 L 609.6755 279.5679 L 609.211 274.7439 L 608.8784 272.9968 L 607.8385 272.8998 L 606.1389 273.5865 L 606.3895 274.1674 L 603.8981 274.5941 L 603.5812 276.0685 L 602.4095 276.4998 L 602.2695 274.9507 L 601.6017 274.9946 L 601.4672 273.8988 L 598.1917 274.2685 L 598.2261 273.243 L 597.6429 272.737 L 597.6005 271.6766 L 595.7133 271.0607 L 595.7927 271.857 L 594.89 272.2134 L 593.6257 274.6954 L 590.6854 275.021 L 589.8329 274.9155 L 589.9016 276.0288 L 589.358 276.8257 L 587.7321 277.0193 L 587.8482 277.9172 L 586.4414 278.036 L 587.257 279.8453 L 586.2831 280.6289 L 584.5542 280.9721 L 584.7786 281.8262 L 583.5724 281.9893 L 582.8729 282.8478 L 583.2478 285.525 L 582.6461 285.8552 L 581.7249 284.7543 L 581.0941 285.0273 L 581.5533 286.1326 L 580.0621 287.1982 L 581.696 289.744 L 582.543 289.3433 L 583.0471 292.1711 L 589.5639 290.9862 L 594.5284 289.2992 L 594.9612 290.3475 L 596.7956 289.8586 L 597.2389 290.8452 L 598.6853 290.5191 L 598.8146 292.1623 L 602.3092 290.6821 L 603.6314 290.5323 L 603.6421 291.8538 L 602.7447 292.7084 L 603.7185 293.8275 L 604.4786 296.1405 L 605.3234 296.2991 L 605.3234 298.0926 L 607.8544 297.6608 L 608.9208 295.775 L 609.2375 287.0399 L 612.4653 286.6829 L 613.3707 287.009 L 616.0919 288.6781 L 623.5585 287.881 L 631.3288 282.0727 L 630.8986 277.5033 L 627.6311 275.941 Z" fill="[object Object]" fill-opacity="1" stroke="rgba(30,144,255,1)" stroke-width="1" paint-order="fill" stroke-opacity="1" stroke-dasharray="" stroke-linecap="butt" stroke-miterlimit="10" style="filter: url(&quot;#zr2323-shadow-1&quot;);">
</path>
<path d="M 529.1281 419.3638 L 527.167 418.2326 L 516.5068 407.0538 L 513.5982 403.0336 L 511.4736 399.1868 L 509.6576 396.3424 L 505.4241 389.2329 L 502.6185 386.2706 L 499.9212 384.5125 L 494.0803 381.3605 L 491.0581 378.4966 L 490.0684 379.5721 L 489.9074 380.8692 L 485.6634 380.4752 L 486.1016 377.0847 L 486.6743 376.4962 L 485.278 375.757 L 486.2256 374.3012 L 481.868 371.9428 L 476.8955 370.3015 L 473.0261 369.7307 L 472.6515 368.0053 L 471.1337 367.6958 L 471.4848 366.6385 L 468.8772 365.7273 L 468.2173 365.0109 L 467.3122 366.8111 L 466.1033 365.6877 L 463.5668 364.2148 L 461.041 363.9405 L 460.3285 364.9136 L 459.5524 363.9009 L 457.2165 365.5238 L 456.7837 364.4007 L 458.8081 363.5294 L 459.0033 362.5167 L 455.7543 361.2076 L 455.0418 360.9821 L 453.5003 361.6763 L 454.2472 364.1041 L 453.5083 364.3431 L 453.8434 365.6257 L 451.6396 365.922 L 451.666 366.6916 L 448.1082 366.9967 L 446.0337 366.9615 L 444.1887 367.6779 L 443.6054 366.5944 L 440.4355 366.6032 L 439.3457 365.6921 L 437.5429 366.1431 L 436.6771 366.7888 L 437.0018 365.3603 L 439.1635 365.1967 L 439.3667 364.1795 L 437.4505 363.7461 L 437.3502 364.4183 L 436.3367 364.6438 L 436.2945 365.944 L 435.8009 366.9879 L 435.0223 366.7271 L 434.6687 367.6471 L 432.2826 366.6916 L 431.4803 366.758 L 430.5327 369.6996 L 430.5275 370.8544 L 432.0136 371.5976 L 431.9607 374.3056 L 431.1583 374.8411 L 431.4249 376.4076 L 431.0897 378.9614 L 430.6595 378.8995 L 430.2953 381.3516 L 429.3108 382.0246 L 428.3211 384.765 L 427.3418 384.8226 L 427.2575 385.5354 L 426.0354 386.1863 L 425.4045 388.4933 L 424.9533 388.4581 L 424.8714 391.0666 L 424.0426 394.5792 L 423.6283 395.6203 L 422.4537 395.6026 L 422.4168 397.4413 L 422.0552 397.4633 L 422.0342 406.4908 L 424.816 406.482 L 424.969 418.0241 L 429.4217 418.3036 L 428.8489 422.589 L 428.9809 423.4586 L 430.4272 423.5341 L 430.0156 425.3089 L 429.4638 425.2555 L 429.2712 427.3013 L 427.9542 429.8133 L 429.0311 430.2615 L 428.3977 431.8417 L 429.4349 432.0061 L 429.3715 432.743 L 428.527 432.623 L 427.7324 435.6641 L 428.7883 435.7839 L 428.7012 436.6098 L 430.4483 436.7741 L 429.6143 441.2637 L 429.4745 443.5021 L 431.9317 443.3377 L 432.6839 444.4615 L 433.3727 446.6915 L 435.0592 446.4693 L 435.8062 447.0337 L 436.9042 447.0604 L 436.8119 447.6244 L 438.208 447.1804 L 438.208 445.883 L 439.2426 445.461 L 442.4257 446.074 L 451.4074 446.8558 L 451.6475 445.9053 L 453.0279 445.6699 L 453.5504 449.8148 L 452.8406 453.1566 L 454.0757 453.3788 L 454.5272 454.2897 L 453.8936 457.0765 L 454.5931 459.3348 L 454.6115 462.0512 L 454.9415 462.567 L 458.5918 462.6738 L 459.9958 462.2513 L 461.3709 461.3044 L 463.4824 460.9531 L 462.8014 462.8472 L 464.6674 462.7316 L 464.5672 460.8196 L 465.3484 461.2554 L 468.2201 461.2243 L 468.534 460.255 L 469.3047 460.2639 L 477.7191 458.6725 L 477.4049 459.566 L 479.3685 460.0461 L 481.6093 460.1705 L 481.8575 457.4589 L 487.0227 455.881 L 487.598 456.0676 L 486.8934 457.1478 L 486.434 459.0059 L 486.3918 460.5529 L 487.6192 459.4948 L 487.4662 461.1353 L 489.0761 461.0063 L 489.3638 461.6421 L 491.119 461.9801 L 491.0953 462.6336 L 492.0479 462.5802 L 490.847 464.2032 L 489.6937 469.4378 L 489.7464 471.8265 L 488.8517 472.2091 L 489.6039 473.3079 L 490.6096 473.3478 L 490.5595 474.2289 L 491.2905 474.2289 L 492.4227 479.1413 L 492.7077 481.5713 L 495.5821 481.8338 L 495.7563 483.5208 L 497.6303 483.3785 L 497.6697 484.6471 L 496.8779 484.9276 L 497.7463 485.8937 L 497.8888 486.8818 L 500.1534 487.4073 L 500.0822 486.3077 L 502.0378 486.1651 L 502.4496 484.0818 L 503.0223 483.5029 L 505.3212 483.8148 L 505.6776 482.4658 L 507.4882 481.7672 L 508.1216 481.0684 L 508.177 478.892 L 509.2089 477.9886 L 509.4385 476.3288 L 509.2116 474.9985 L 510.4891 470.9413 L 510.3596 468.4593 L 509.3409 468.2503 L 510.0297 467.8011 L 510.1168 466.4578 L 509.6603 465.3328 L 508.7101 464.937 L 508.7023 463.6075 L 507.5753 463.7498 L 507.446 462.327 L 507.9316 462.278 L 507.6332 460.7351 L 507.8391 459.7304 L 508.8448 460.0904 L 509.6524 458.0678 L 509.7183 456.0853 L 509.4782 453.6543 L 509.9982 449.8993 L 513.2181 449.4638 L 513.1679 448.9397 L 509.9454 449.4327 L 509.1245 450.6547 L 507.2743 450.0281 L 507.2506 449.0063 L 506.3452 448.2999 L 505.4637 448.8241 L 505.4373 446.896 L 504.9913 446.8027 L 508.7524 444.3194 L 508.9424 442.1474 L 510.27 442.4406 L 510.7609 443.0801 L 516.4461 439.2253 L 520.772 436.0372 L 520.3258 435.4555 L 516.7469 432.6987 L 518.6103 430.297 L 517.0451 429.1386 L 519.1382 426.3873 L 522.1813 428.6329 L 526.8636 422.6201 L 528.6424 420.4639 L 529.1281 419.3638 Z" fill="[object Object]" fill-opacity="1" stroke="dodgerblue" stroke-width="1" paint-order="fill" stroke-opacity="1" stroke-dasharray="" stroke-linecap="butt" stroke-miterlimit="10" style="filter: url(&quot;#zr2323-shadow-0&quot;);">
</path>
<path d="M 583.6174 182.679 L 584.9712 181.8425 L 585.7975 182.0266 L 586.6657 179.8331 L 584.974 178.6075 L 585.4569 177.3425 L 586.3306 176.4407 L 586.671 175.3465 L 586.6288 173.6222 L 587.7453 173.7184 L 589.2709 172.6201 L 587.9485 172.4145 L 587.3625 169.439 L 585.4993 166.1842 L 583.9473 166.7397 L 583.2505 163.3106 L 584.6229 163.8658 L 584.3828 162.5319 L 585.3566 162.0772 L 585.4437 160.6209 L 584.8974 159.9736 L 584.6995 160.8656 L 583.232 158.7273 L 582.6408 158.9549 L 581.7988 156.6155 L 580.0938 153.9227 L 579.6609 148.7607 L 579.2755 147.7557 L 577.9638 148.1054 L 577.4016 145.4222 L 576.7682 145.239 L 577.4492 144.1554 L 578.7953 144.7319 L 578.4812 143.7752 L 578.6526 142.1807 L 576.9107 142.434 L 576.6811 141.5778 L 578.8006 140.9445 L 580.2733 141.154 L 580.2917 140.0751 L 580.9621 138.8259 L 578.4285 137.7735 L 578.1697 135.8563 L 578.9114 134.4021 L 579.8166 133.948 L 580.7325 134.4109 L 581.3079 132.9306 L 582.4032 132.8956 L 582.6962 130.538 L 583.0578 130.5512 L 583.5752 128.1589 L 585.2063 126.5834 L 585.0029 125.3961 L 583.3349 123.1791 L 583.2927 121.2593 L 584.6176 122.0185 L 585.1534 120.8578 L 588.2572 121.7044 L 588.083 122.4286 L 588.962 122.9172 L 589.7301 121.8482 L 590.7383 121.5079 L 591.3453 122.1756 L 592.4591 122.1012 L 593.3539 121.3946 L 593.9926 121.9618 L 595.3756 122.2018 L 596.0355 123.7553 L 597.5688 125.0864 L 598.4268 125.1082 L 598.4822 126.0813 L 597.6666 126.9893 L 599.3347 128.1851 L 601.6441 128.6916 L 602.8423 127.7791 L 606.6246 127.7968 L 607.7356 127.1246 L 609.9737 127.1114 L 611.4044 125.8021 L 612.0985 125.898 L 612.7451 124.724 L 614.049 124.2745 L 616.1868 124.2048 L 617.0762 124.5101 L 618.6651 125.7933 L 619.5441 125.7759 L 620.2751 127.7268 L 621.4814 128.0674 L 622.9778 127.4911 L 625.018 129.3725 L 625.86 129.6082 L 627.2403 127.6526 L 628.3146 128.5563 L 628.9138 128.3074 L 630.8088 129.3025 L 631.8434 127.4561 L 631.7351 125.4355 L 632.6775 122.2018 L 633.6408 121.4426 L 632.9572 119.1213 L 633.7568 117.9522 L 632.7249 117.35 L 632.7618 116.5431 L 631.5901 115.9368 L 631.247 116.6128 L 630.9143 114.4841 L 628.5627 114.4756 L 627.982 115.6706 L 626.6783 115.2258 L 626.1397 115.88 L 626.2506 117.215 L 625.7412 117.8866 L 623.4687 115.8015 L 623.5927 113.3415 L 623.3896 112.4736 L 624.0072 111.6537 L 624.1999 108.2787 L 626.2189 109.0854 L 627.9346 108.1393 L 629.0721 107.1581 L 629.6897 105.3053 L 628.3488 104.5903 L 628.0691 103.4526 L 626.2004 103.4832 L 625.443 102.7815 L 625.2662 101.5741 L 626.2506 101.5829 L 625.691 99.9615 L 624.9256 99.3254 L 623.5505 100.2013 L 621.4707 100.5193 L 620.8216 99.6999 L 619.164 99.87 L 617.1713 98.3274 L 616.4191 96.214 L 615.6537 96.6715 L 614.1995 95.9745 L 613.1226 96.166 L 612.6026 99.103 L 610.8659 98.3753 L 610.0081 99.2904 L 609.9368 96.6933 L 608.6857 94.4189 L 607.828 95.5823 L 607.2657 95.3251 L 606.6825 96.5409 L 605.0858 96.9198 L 604.1699 95.6432 L 604.8377 95.0203 L 605.2151 93.2993 L 606.6351 92.2843 L 605.7773 91.8705 L 604.8772 87.8153 L 605.1966 87.3537 L 602.4464 86.3391 L 602.6286 85.1068 L 601.7312 84.0878 L 601.3748 82.2593 L 599.6302 82.59 L 599.0337 81.3536 L 599.0602 79.7254 L 597.999 79.6819 L 597.3841 79.0857 L 595.6764 76.1998 L 593.2352 76.9528 L 592.3562 76.0562 L 591.4932 74.4504 L 590.8571 74.285 L 590.2289 71.3216 L 590.6907 70.8387 L 590.0493 70.0556 L 590.1628 68.6548 L 589.4688 67.6586 L 588.4446 67.3802 L 588.537 65.8838 L 589.4528 65.1357 L 589.9332 63.7483 L 589.5137 62.1391 L 588.4975 61.2085 L 586.5946 61.0434 L 585.9003 61.4695 L 585.069 60.204 L 581.279 61.2259 L 580.6718 61.0564 L 578.7874 61.5522 L 576.9768 61.6826 L 575.8471 60.7129 L 573.8623 60.3041 L 572.9069 59.5866 L 572.3288 57.9214 L 570.9696 58.0824 L 570.7241 57.5432 L 568.507 56.2041 L 567.9529 56.2476 L 566.3375 55.1348 L 564.1152 55 L 563.2073 56.265 L 562.389 56.6738 L 561.7609 56.2738 L 559.7022 56.0563 L 559.0212 57.4563 L 559.5492 59.1822 L 558.8101 59.5083 L 557.6039 60.913 L 557.1474 60.0737 L 556.0863 59.6213 L 554.6214 61.4869 L 555.3421 63.1221 L 552.2064 63.9134 L 552.3701 66.0665 L 553.7796 66.6928 L 555.2311 67.8587 L 553.3441 68.1283 L 553.1303 67.5541 L 552.5892 69.0159 L 552.9746 70.0862 L 553.5261 69.9644 L 553.4707 71.8916 L 554.2968 71.783 L 556.118 70.5735 L 558.0579 71.9787 L 557.4851 73.084 L 556.8016 72.984 L 554.9329 74.5419 L 555.2391 75.2425 L 552.7899 74.7246 L 552.9112 75.8779 L 552.0956 74.8768 L 551.1243 74.8203 L 550.5042 75.7387 L 549.5671 74.7811 L 549.3455 75.9562 L 547.5691 75.5601 L 547.0598 76.0824 L 548.2686 78.0019 L 548.9073 79.8908 L 547.176 81.554 L 547.8673 82.0633 L 546.9437 83.0429 L 548.1815 82.982 L 548.0759 84.0531 L 547.1126 84.31 L 546.6612 85.1939 L 543.0718 85.9254 L 543.1351 85.3899 L 541.6465 84.1052 L 540.7306 84.6757 L 539.7963 84.3011 L 538.6006 85.0762 L 537.7032 87.9374 L 536.55 89.148 L 536.5578 89.7709 L 534.2855 89.1306 L 532.3429 91.1691 L 532.583 92.2451 L 532.137 93.1555 L 531.2738 92.7939 L 530.6721 91.5045 L 529.4211 90.9905 L 528.4762 91.2171 L 527.2568 90.385 L 526.4992 91.23 L 525.1111 91.6134 L 524.6782 92.4846 L 523.3215 93.761 L 523.2424 94.5931 L 522.4216 95.0333 L 522.4294 96.0528 L 519.8694 95.5387 L 519.8244 97.0505 L 520.6188 98.5234 L 519.5816 99.2642 L 520.2125 99.9965 L 520.6188 101.4826 L 521.5162 102.1451 L 522.1339 103.3046 L 521.1546 103.8886 L 519.4893 103.5268 L 518.1721 103.7404 L 516.1953 103.4003 L 516.1294 104.6427 L 514.5827 104.3594 L 514.1367 105.2835 L 514.4534 106.8357 L 515.4853 108.1958 L 515.1158 109.7262 L 515.4087 112.1421 L 515.3084 113.8781 L 516.5305 114.9901 L 516.3616 116.2333 L 517.2273 117.8343 L 516.8525 119.5575 L 517.3144 122.4636 L 515.9103 124.0868 L 515.9578 125.2914 L 515.3693 126.0771 L 513.5243 126.4698 L 513.7275 129.499 L 513.0017 131.1798 L 512.3154 130.1538 L 510.8507 130.1364 L 511.149 132.149 L 510.7821 133.0049 L 509.6392 133.3412 L 508.1612 134.8736 L 507.3667 134.2492 L 509.2935 136.6423 L 508.9398 137.6512 L 508.1004 137.162 L 507.2586 137.9132 L 507.9341 140.2192 L 505.5139 140.8919 L 505.3766 141.4119 L 506.5037 141.6301 L 506.9419 143.5043 L 509.6761 144.116 L 509.4333 145.3131 L 508.0689 145.9684 L 507.7889 147.4672 L 509.5942 149.2721 L 508.3776 152.3446 L 508.6731 152.8211 L 509.4677 152.0126 L 510.4574 152.572 L 510.8058 153.551 L 511.4894 153.4943 L 511.9486 152.3317 L 512.5927 153.4854 L 511.2333 154.5521 L 511.5421 155.138 L 512.9331 155.0985 L 513.3738 154.0495 L 513.9942 154.4821 L 513.812 155.5053 L 514.9074 155.2035 L 516.1979 156.3226 L 517.5098 156.2746 L 519.938 156.996 L 520.244 157.8398 L 521.5769 157.7654 L 523.084 158.745 L 523.6779 157.6736 L 524.8524 157.9621 L 525.4171 156.7555 L 526.9057 156.5981 L 529.3367 161.1762 L 528.4815 161.3643 L 527.8348 163.4547 L 528.8061 164.7013 L 530.5481 165.4888 L 531.0601 165.0776 L 531.9391 165.9787 L 532.8363 165.8473 L 534.428 167.3873 L 534.3276 169.0278 L 535.101 168.857 L 536.3282 169.5789 L 537.4764 171.0798 L 538.2999 170.3317 L 539.7568 170.5679 L 540.9365 171.233 L 540.8521 172.3007 L 541.5726 173.9724 L 542.8184 174.607 L 543.7606 173.2635 L 544.922 172.865 L 545.4418 173.6046 L 545.9961 173.0576 L 546.6719 173.7928 L 548.0443 174.2786 L 549.9921 173.9636 L 550.0026 174.7952 L 551.6549 174.8608 L 551.8079 175.6309 L 553.2331 175.6529 L 554.6004 176.1869 L 554.3841 176.9967 L 555.16 177.0579 L 555.1071 178.3405 L 556.3873 179.9777 L 557.9815 179.6187 L 558.9765 180.6737 L 558.958 182.1009 L 559.6046 182.7184 L 561.7636 183.235 L 562.6346 183.8566 L 563.7933 183.9487 L 564.3263 181.6411 L 566.1449 180.4899 L 567.1768 180.6299 L 567.6969 179.4435 L 568.9162 178.813 L 568.3038 180.4285 L 569.0323 180.5335 L 570.7585 179.0715 L 570.2122 178.1785 L 572.7722 178.9183 L 574.0365 177.9638 L 574.4984 179.8331 L 576.6891 179.1941 L 577.4016 180.9275 L 578.2543 181.3085 L 579.1437 180.4417 L 579.88 181.5843 L 580.6269 180.5643 L 581.709 181.2865 L 582.4297 181.1727 L 582.2079 182.4338 L 583.6174 182.679 Z" fill="[object Object]" fill-opacity="1" stroke="dodgerblue" stroke-width="1" paint-order="fill" stroke-opacity="1" stroke-dasharray="" stroke-linecap="butt" stroke-miterlimit="10" style="filter: url(&quot;#zr2323-shadow-0&quot;);">
</path>
<text xml:space="preserve" fill="#bdbdd9" fill-opacity="1" stroke="none" transform="matrix(1,0,0,1,517.8542,348.946)" dominant-baseline="central" text-anchor="middle" x="0" y="0" style="font: 13 13px sans-serif;">和平区</text>
<text xml:space="preserve" fill="#bdbdd9" fill-opacity="1" stroke="none" transform="matrix(1,0,0,1,528.6807,348.33)" dominant-baseline="central" text-anchor="middle" x="0" y="0" style="font: 13 13px sans-serif;">河东区</text>
<text xml:space="preserve" fill="#bdbdd9" fill-opacity="1" stroke="none" transform="matrix(1,0,0,1,524.6531,360.2446)" dominant-baseline="central" text-anchor="middle" x="0" y="0" style="font: 13 13px sans-serif;">河西区</text>
<text xml:space="preserve" fill="#bdbdd9" fill-opacity="1" stroke="none" transform="matrix(1,0,0,1,508.3684,352.1024)" dominant-baseline="central" text-anchor="middle" x="0" y="0" style="font: 13 13px sans-serif;">南开区</text>
<text xml:space="preserve" fill="#bdbdd9" fill-opacity="1" stroke="none" transform="matrix(1,0,0,1,520.4183,337.8634)" dominant-baseline="central" text-anchor="middle" x="0" y="0" style="font: 13 13px sans-serif;">河北区</text>
<text xml:space="preserve" fill="#bdbdd9" fill-opacity="1" stroke="none" transform="matrix(1,0,0,1,509.9084,335.077)" dominant-baseline="central" text-anchor="middle" x="0" y="0" style="font: 13 13px sans-serif;">红桥区</text>
<text xml:space="preserve" fill="#bdbdd9" fill-opacity="1" stroke="none" transform="matrix(1,0,0,1,556.7844,348.1971)" dominant-baseline="central" text-anchor="middle" x="0" y="0" style="font: 13 13px sans-serif;">东丽区</text>
<text xml:space="preserve" fill="#bdbdd9" fill-opacity="1" stroke="none" transform="matrix(1,0,0,1,500.7657,379.6892)" dominant-baseline="central" text-anchor="middle" x="0" y="0" style="font: 13 13px sans-serif;">西青区</text>
<text xml:space="preserve" fill="#bdbdd9" fill-opacity="1" stroke="none" transform="matrix(1,0,0,1,557.1104,390.0419)" dominant-baseline="central" text-anchor="middle" x="0" y="0" style="font: 13 13px sans-serif;">津南区</text>
<text xml:space="preserve" fill="#bdbdd9" fill-opacity="1" stroke="none" transform="matrix(1,0,0,1,512.4342,313.9478)" dominant-baseline="central" text-anchor="middle" x="0" y="0" style="font: 13 13px sans-serif;">北辰区</text>
<text xml:space="preserve" fill="rgba(189,189,217,1)" fill-opacity="1" stroke="none" transform="matrix(1,0,0,1,490.9751,272.6817)" dominant-baseline="central" text-anchor="middle" x="0" y="0" style="font: 13 13px sans-serif;">武清区</text>
<text xml:space="preserve" fill="#bdbdd9" fill-opacity="1" stroke="none" transform="matrix(1,0,0,1,561.9496,226.6635)" dominant-baseline="central" text-anchor="middle" x="0" y="0" style="font: 13 13px sans-serif;">宝坻区</text>
<text xml:space="preserve" fill="#bdbdd9" fill-opacity="1" stroke="none" transform="matrix(1,0,0,1,595.4786,394.0856)" dominant-baseline="central" text-anchor="middle" x="0" y="0" style="font: 13 13px sans-serif;">滨海新区</text>
<text xml:space="preserve" fill="rgba(189,189,217,1)" fill-opacity="1" stroke="none" transform="matrix(1,0,0,1,600.9632,280.2612)" dominant-baseline="central" text-anchor="middle" x="0" y="0" style="font: 13 13px sans-serif;">宁河区</text>
<text xml:space="preserve" fill="#bdbdd9" fill-opacity="1" stroke="none" transform="matrix(1,0,0,1,475.5811,424.1947)" dominant-baseline="central" text-anchor="middle" x="0" y="0" style="font: 13 13px sans-serif;">静海区</text>
<text xml:space="preserve" fill="#bdbdd9" fill-opacity="1" stroke="none" transform="matrix(1,0,0,1,569.5667,119.4743)" dominant-baseline="central" text-anchor="middle" x="0" y="0" style="font: 13 13px sans-serif;">蓟州区</text>
<defs>
<filter id="zr2323-shadow-0" x="-100%" y="-100%" width="300%" height="300%">
<feDropShadow dx="0" dy="1" flood-color="#000000" stdDeviation="0 0">
</feDropShadow>
</filter>
<filter id="zr2323-shadow-1" x="-100%" y="-100%" width="300%" height="300%">
<feDropShadow dx="0" dy="1" flood-color="rgba(0,0,0,1)" stdDeviation="0 0">
</feDropShadow>
</filter>
</defs>
</g>
</svg>