<svg xmlns="http://www.w3.org/2000/svg" xmlns:xlink="http://www.w3.org/1999/xlink" version="1.1" baseProfile="full" width="1108" height="550" style="user-select: none; position: absolute; left: 0px; top: 0px;">
<g>
<rect width="1108" height="550" x="0" y="0" id="0" style="fill: transparent;">
</rect>
</g>
<g>
<path d="M 621.786 184.3642 L 618.168 183.4679 L 616.1911 182.3671 L 614.1203 180.0356 L 612.2133 179.131 L 609.8068 178.2613 L 608.351 177.4048 L 606.1324 177.0178 L 603.339 175.2182 L 600.3657 173.7101 L 599.6781 173.0582 L 598.5205 171.2942 L 597.2312 169.9346 L 595.1845 169.2005 L 594.5561 167.7892 L 602.9254 161.0832 L 604.0669 160.0334 L 606.9355 153.3038 L 607.8004 151.514 L 608.0098 149.4084 L 608.8989 137.8422 L 607.2336 135.8788 L 607.3465 133.8725 L 607.0698 133.4403 L 604.2415 132.3121 L 602.8905 132.083 L 603.5889 130.7217 L 603.621 129.2309 L 601.6979 129.3259 L 599.1248 128.6044 L 597.9403 127.6066 L 595.5579 127.559 L 594.1075 126.5051 L 592.8693 126.531 L 592.5309 127.2999 L 591.0348 128.0645 L 590.7636 126.6996 L 591.2309 125.9265 L 590.9918 125.3089 L 589.8557 125.0239 L 589.2326 125.3867 L 588.3892 125.2139 L 587.7527 124.5965 L 587.809 121.8033 L 585.9987 121.54 L 586.6084 119.8051 L 584.3415 119.913 L 582.8401 119.3694 L 581.6529 119.8354 L 580.9492 119.283 L 580.9895 118.062 L 580.0628 118.2044 L 578.6527 118.8645 L 578.5507 118.1268 L 576.7027 116.7808 L 575.4028 116.9534 L 574.4735 115.254 L 572.6604 116.4142 L 571.7768 116.2029 L 571.758 115.6464 L 569.9906 115.1289 L 567.8097 115.0212 L 567.114 114.7926 L 566.3485 113.6931 L 566.0826 112.5764 L 564.1138 112.3695 L 561.3231 110.71 L 560.1682 109.4903 L 558.554 109.3137 L 556.3945 108.7794 L 555.5323 110.6453 L 554.2968 111.8695 L 553.8133 112.0246 L 553.2734 113.0765 L 551.8821 114.2104 L 551.0334 115.6939 L 551.063 116.3452 L 550.2706 116.4574 L 548.933 117.6867 L 548.0547 117.8679 L 548.095 119.1751 L 548.7477 119.9345 L 548.2508 121.4493 L 548.7987 123.422 L 548.6295 124.0568 L 547.0529 125.568 L 547.7378 128.0083 L 546.9588 129.395 L 546.0242 130.3975 L 546.0295 131.7718 L 544.5093 133.384 L 544.3589 134.5643 L 544.794 136.6485 L 545.3634 137.2021 L 545.5595 138.1536 L 546.1181 138.7117 L 545.9033 139.9057 L 545.0841 140.148 L 544.7242 140.9528 L 545.299 144.4586 L 545.1888 145.8181 L 543.87 147.234 L 544.0849 148.8929 L 543.1233 151.1847 L 544.2353 154.6042 L 543.6175 155.2371 L 542.7205 155.2804 L 542.4572 158.281 L 543.0347 160.2633 L 541.9335 162.6236 L 542.5002 164.9845 L 543.2335 166.1045 L 543.6739 167.5286 L 544.8316 168.9661 L 545.4493 170.1474 L 544.4018 173.6058 L 547.5578 174.1229 L 548.7369 175.7397 L 550.0611 176.2526 L 553.5233 177.9221 L 553.7542 178.4179 L 551.3638 184.695 L 553.4319 186.1704 L 554.5143 182.7239 L 556.553 183.2808 L 557.1546 182.0147 L 559.4672 183.0545 L 560.5657 181.8886 L 560.7618 181.0403 L 562.2901 179.3223 L 562.2713 180.053 L 562.8891 180.4749 L 562.3277 180.7489 L 562.6795 181.5275 L 562.4217 182.2322 L 563.3242 182.5324 L 563.8292 181.9581 L 564.8578 182.2801 L 564.7585 183.0414 L 566.1041 183.7333 L 566.2357 186.2749 L 566.4747 186.3706 L 567.3316 185.0257 L 568.2797 184.8125 L 569.2628 185.5349 L 570.8528 185.7395 L 570.7453 186.5056 L 572.1259 187.4197 L 573.5253 187.8029 L 573.5575 188.6518 L 574.3874 190.3022 L 574.0974 191.3301 L 573.0606 192.2012 L 572.6255 194.1399 L 572.8995 194.7194 L 574.2344 195.3992 L 575.2416 197.9707 L 575.9453 197.9664 L 575.1396 196.8985 L 577.3286 197.1512 L 577.3259 199.6754 L 576.7296 199.6536 L 576.7618 200.8528 L 577.2748 201.3325 L 577.8469 203.0336 L 578.7065 202.3532 L 579.4343 202.9201 L 579.8963 204.1547 L 581.062 205.2892 L 579.8856 207.1045 L 580.412 207.8072 L 582.8696 207.8945 L 582.9529 209.5402 L 584.645 209.7542 L 584.6987 213.7543 L 583.6727 215.1173 L 582.6923 214.9295 L 581.4595 215.2746 L 579.1926 215.4057 L 578.2982 217.1579 L 578.822 217.4724 L 578.6474 218.8623 L 579.4102 220.2 L 580.2911 220.9082 L 580.2804 221.363 L 581.1748 221.7827 L 583.4444 222.0975 L 583.4175 222.7316 L 584.9485 224.3149 L 586.2593 225.2378 L 587.3766 227.3247 L 589.8664 229.2985 L 591.0321 229.4823 L 593.5811 231.2595 L 594.5561 232.7876 L 595.8964 234.2851 L 599.5626 237.0097 L 598.867 238.2278 L 604.1609 238.4644 L 607.4216 239.7221 L 607.8299 238.3022 L 612.9949 239.9588 L 617.7624 240.2481 L 617.8753 237.9999 L 617.7114 237.2814 L 617.2199 231.2333 L 617.4267 229.5611 L 620.4134 228.2568 L 622.4037 227.0929 L 624.7593 223.287 L 626.2822 219.1028 L 626.6716 216.249 L 623.4593 215.9037 L 622.6024 216.6684 L 621.6543 214.9906 L 621.2514 209.1212 L 621.5711 207.5846 L 619.1699 207.7505 L 618.3856 208.1215 L 617.5717 206.5983 L 617.048 204.1765 L 617.1232 201.725 L 616.8519 201.4459 L 617.5932 199.5534 L 618.6434 197.4215 L 622.3393 198.0885 L 624.4074 196.5629 L 624.0206 195.5038 L 621.1252 189.7448 L 620.7384 187.2934 L 621.2166 185.6264 L 622.0223 184.9518 L 621.786 184.3642 Z" fill="[object Object]" fill-opacity="1" stroke="rgba(30,144,255,1)" stroke-width="1" paint-order="fill" stroke-opacity="1" stroke-dasharray="" stroke-linecap="butt" stroke-miterlimit="10" style="filter: url(&quot;#zr2323-shadow-1&quot;);">
</path>
<path d="M 608.8989 137.8422 L 612.1086 126.5051 L 612.6457 125.3737 L 616.3443 122.2263 L 617.2602 120.4826 L 618.7079 118.2044 L 620.0481 115.5991 L 621.5523 113.3438 L 622.8254 111.7186 L 626.0888 108.0599 L 628.1892 106.0222 L 632.1402 101.7678 L 632.5726 100.9543 L 633.4992 93.7178 L 633.5261 92.7374 L 633.1715 89.7024 L 632.1509 89.0148 L 631.5224 89.0278 L 631.0872 87.962 L 630.4104 87.4034 L 628.2832 86.9351 L 626.3359 85.9384 L 625.4361 85.2297 L 624.1227 83.1467 L 623.6499 80.8797 L 622.5487 78.0556 L 621.8799 74.9451 L 619.5244 72.762 L 619.793 70.8583 L 619.1349 69.8766 L 619.3257 68.625 L 620.3624 66.0668 L 619.9971 64.3105 L 620.3893 61.6809 L 619.3122 59.8486 L 619.6936 58.5559 L 619.1269 57.1136 L 618.3748 56.0312 L 616.3308 55.86 L 615.9682 55 L 614.5393 55.8129 L 613.1641 55.783 L 611.3028 56.7885 L 609.9491 57.8155 L 607.4001 57.5245 L 606.4117 56.6516 L 604.126 55.6632 L 602.9334 57.5673 L 602.5064 58.5944 L 601.7919 59.1594 L 600.4114 61.2956 L 599.2457 61.9293 L 598.6225 62.7729 L 597.9725 62.7643 L 597.8034 64.1177 L 597.1909 65.4028 L 597.0835 66.3667 L 596.4604 66.838 L 593.7342 66.0797 L 592.8827 65.5056 L 590.9247 65.0129 L 588.2227 64.5503 L 585.9316 64.9016 L 583.4148 65.6342 L 582.2116 66.2168 L 580.1676 66.2725 L 578.7978 66.8167 L 578.4298 67.6822 L 578.6044 69.3365 L 579.1496 72.1917 L 578.9375 74.1987 L 579.061 75.6571 L 579.6707 77.6822 L 578.9455 79.7851 L 578.1934 80.472 L 576.3535 81.4679 L 575.1906 81.0257 L 573.5011 80.8668 L 571.2342 80.1972 L 569.7355 78.1757 L 568.6477 78.5104 L 567.764 79.2486 L 566.6816 81.0214 L 565.5696 83.2111 L 565.113 84.8131 L 563.9715 86.2262 L 563.6652 87.6484 L 562.7843 89.7927 L 562.5721 91.3917 L 562.9588 91.6884 L 562.3438 92.6128 L 563.2033 93.6576 L 563.026 94.9348 L 562.2283 96.3974 L 561.7717 96.5565 L 561.1244 97.8686 L 560.9713 98.867 L 560.2166 99.478 L 559.0965 99.5038 L 558.0221 100.2828 L 556.8108 102.3361 L 554.5627 104.3168 L 553.6521 105.6001 L 553.9422 107.0991 L 555.022 108.7967 L 556.3945 108.7794 L 558.554 109.3137 L 560.1682 109.4903 L 561.3231 110.71 L 564.1138 112.3695 L 566.0826 112.5764 L 566.3485 113.6931 L 567.114 114.7926 L 567.8097 115.0212 L 569.9906 115.1289 L 571.758 115.6464 L 571.7768 116.2029 L 572.6604 116.4142 L 574.4735 115.254 L 575.4028 116.9534 L 576.7027 116.7808 L 578.5507 118.1268 L 578.6527 118.8645 L 580.0628 118.2044 L 580.9895 118.062 L 580.9492 119.283 L 581.6529 119.8354 L 582.8401 119.3694 L 584.3415 119.913 L 586.6084 119.8051 L 585.9987 121.54 L 587.809 121.8033 L 587.7527 124.5965 L 588.3892 125.2139 L 589.2326 125.3867 L 589.8557 125.0239 L 590.9918 125.3089 L 591.2309 125.9265 L 590.7636 126.6996 L 591.0348 128.0645 L 592.5309 127.2999 L 592.8693 126.531 L 594.1075 126.5051 L 595.5579 127.559 L 597.9403 127.6066 L 599.1248 128.6044 L 601.6979 129.3259 L 603.621 129.2309 L 603.5889 130.7217 L 602.8905 132.083 L 604.2415 132.3121 L 607.0698 133.4403 L 607.3465 133.8725 L 607.2336 135.8788 L 608.8989 137.8422 Z" fill="[object Object]" fill-opacity="1" stroke="rgba(30,144,255,1)" stroke-width="1" paint-order="fill" stroke-opacity="1" stroke-dasharray="" stroke-linecap="butt" stroke-miterlimit="10" style="filter: url(&quot;#zr2323-shadow-1&quot;);">
</path>
<path d="M 544.4018 173.6058 L 543.5746 176.1396 L 541.8771 177.6047 L 540.4267 178.3222 L 538.8608 180.1922 L 538.235 181.8799 L 537.6548 188.8042 L 538.662 192.7109 L 539.7041 194.5669 L 540.9478 196.3231 L 542.5244 199.0127 L 543.3812 200.8789 L 542.0651 204.3206 L 541.1331 205.7997 L 540.1876 208.0822 L 540.0453 209.1822 L 540.1742 211.2737 L 540.8 213.8111 L 540.8914 214.9513 L 540.5099 216.38 L 539.1375 218.2941 L 538.6701 219.2645 L 537.9637 221.7565 L 537.0693 222.9678 L 535.7639 223.755 L 534.198 224.293 L 531.8774 225.6185 L 530.4377 225.9334 L 529.8925 225.5659 L 526.9514 224.9272 L 526.0301 225.3165 L 525.6004 227.8542 L 525.5682 231.1807 L 525.0713 232.8357 L 528.1869 232.481 L 528.4045 231.9249 L 530.5532 230.918 L 531.9445 230.8218 L 533.6313 230.2133 L 535.5866 230.6466 L 537.088 230.559 L 538.9333 229.4648 L 541.4635 229.9463 L 542.1967 229.8368 L 543.7465 230.5284 L 544.4448 229.3466 L 546.7869 229.7668 L 548.2669 229.5085 L 548.3555 230.7254 L 547.3054 232.0782 L 547.2301 235.7569 L 546.6284 237.8071 L 546.5184 239.1787 L 547.0824 239.5774 L 547.6948 241.1334 L 546.8057 242.5845 L 548.5248 242.7248 L 549.0028 241.0721 L 550.6144 238.403 L 550.8964 236.817 L 552.2743 238.0744 L 554.372 237.8641 L 555.3443 238.3987 L 556.5718 238.3417 L 557.066 239.034 L 558.0866 239.5469 L 557.9282 241.4008 L 558.0973 242.773 L 557.7831 243.1851 L 556.7947 243.0756 L 556.2763 243.8692 L 556.2951 244.9435 L 558.8736 248.4746 L 558.5137 248.5843 L 559.2738 249.5014 L 560.9337 249.9752 L 562.1289 251.88 L 560.6329 252.2575 L 560.0205 253.0126 L 559.1556 252.7579 L 558.6802 253.9345 L 557.4097 254.9444 L 557.1009 256.433 L 556.4509 257.5003 L 555.7096 257.6234 L 554.7345 257.2237 L 554.1867 257.5575 L 552.978 257.4696 L 552.8115 258.1021 L 553.9852 258.5986 L 554.8259 259.9341 L 551.1059 260.5625 L 550.9286 262.461 L 550.0718 262.7819 L 549.2124 262.0918 L 547.0448 262.7994 L 546.2309 263.7621 L 547.0206 265.6173 L 546.9159 266.1802 L 544.1977 265.8065 L 543.6471 267.4247 L 546.3303 269.3776 L 547.2972 269.6284 L 548.6133 270.5478 L 549.4836 270.5655 L 550.4344 271.1551 L 551.6431 272.6336 L 551.4443 273.8219 L 550.2142 275.2437 L 543.2012 274.4205 L 539.7391 274.0728 L 539.5242 274.8739 L 538.2269 275.9129 L 536.6422 276.428 L 535.0145 277.2337 L 536.6476 280.7043 L 536.755 281.9863 L 537.9772 283.1012 L 537.5742 283.5682 L 537.9368 284.9566 L 538.8581 285.2915 L 538.2135 286.0276 L 538.6647 286.7198 L 537.7676 287.4119 L 535.1891 287.9411 L 533.258 288.0071 L 532.8201 286.9799 L 530.9856 284.9433 L 531.7538 283.3655 L 531.7834 282.546 L 531.2005 280.8277 L 530.5801 280.1317 L 530.3625 278.5152 L 529.6803 279.3697 L 528.2004 280.3695 L 526.6748 282.2772 L 524.7087 284.2381 L 523.1186 284.3219 L 522.1543 284.8596 L 521.1874 284.7934 L 522.1973 285.8205 L 522.3504 286.4024 L 523.1938 286.883 L 525.6031 286.8961 L 526.9998 287.6765 L 529.4466 287.5354 L 530.0375 289.1934 L 529.7555 290.8473 L 530.29 293.1457 L 530.9159 294.3855 L 531.9822 295.1446 L 533.1129 295.5153 L 535.5383 298.3713 L 536.1023 298.826 L 538.4847 298.8481 L 539.0165 299.5766 L 543.5719 309.2969 L 544.0769 310.0175 L 542.8682 310.6189 L 542.742 312.233 L 541.9415 313.4537 L 539.0246 315.5594 L 538.8957 316.2009 L 537.6494 317.0373 L 537.6817 317.6701 L 536.3038 316.9753 L 535.5893 317.0373 L 536.9968 318.6836 L 535.9788 320.2151 L 536.089 322.2519 L 535.2939 322.6017 L 535.2241 324.8869 L 535.8767 327.554 L 537.1015 326.4241 L 537.585 326.9912 L 539.3845 326.969 L 540.9129 326.1539 L 542.0356 326.8052 L 542.3229 328.7814 L 543.0992 328.4889 L 543.3785 326.0476 L 544.7402 325.3786 L 545.0733 324.6611 L 545.9651 324.3023 L 546.1369 323.3102 L 546.7896 322.8142 L 548.1594 320.8438 L 547.9983 320.41 L 548.8417 319.5866 L 548.8256 319.0953 L 547.2463 316.6833 L 548.9061 316.6213 L 550.0745 315.6877 L 550.2491 314.9002 L 550.9286 315.0418 L 551.0603 315.9532 L 552.6772 317.2673 L 552.3603 318.2985 L 553.2493 318.7146 L 553.3782 319.7592 L 554.6298 320.8217 L 554.5788 322.1899 L 554.8903 322.7434 L 553.8214 323.9258 L 554.2565 324.6521 L 554.8582 324.3421 L 555.3738 324.8338 L 556.4966 324.6921 L 558.4036 326.5659 L 558.6749 328.0147 L 558.4922 329.6101 L 559.8835 330.9133 L 560.751 332.3718 L 561.8469 333.5157 L 561.5112 335.3472 L 562.2847 337.6006 L 564.6 340.7733 L 564.643 342.3756 L 565.5777 343.8361 L 565.6233 345.1948 L 566.652 345.781 L 568.2367 347.9839 L 567.8258 349.8898 L 568.3065 351.7427 L 569.4642 352.6183 L 570.6406 351.7161 L 571.6666 351.4805 L 572.9371 351.7561 L 572.9666 349.872 L 573.3856 349.2989 L 574.5486 349.0634 L 576.0125 349.6943 L 576.5738 348.3615 L 577.9705 348.979 L 578.2176 349.7254 L 579.2383 349.2412 L 579.8506 349.4188 L 580.5544 350.7563 L 581.6556 350.9962 L 585.0963 349.4632 L 586.6863 348.8857 L 586.4446 348.0417 L 587.0677 347.8463 L 588.3838 348.2061 L 588.8001 347.7619 L 590.417 347.2421 L 590.6024 346.6293 L 591.5479 347.7441 L 593.4468 348.2238 L 595.2624 347.3355 L 595.5606 345.4657 L 595.5015 343.2456 L 595.2409 341.2881 L 596.8176 340.5025 L 597.4676 341.1016 L 598.397 340.8442 L 597.8946 339.3488 L 597.097 338.1153 L 597.9134 337.6716 L 598.6037 336.5449 L 600.0085 336.3762 L 600.2422 335.7553 L 601.7489 336.1633 L 601.8564 334.8061 L 602.8582 335.019 L 603.5083 334.5046 L 604.8216 336.5626 L 605.2138 335.773 L 606.4816 337.299 L 607.5344 337.3122 L 606.4628 336.048 L 606.1109 334.2208 L 606.6105 334.0789 L 607.0671 332.1856 L 606.9516 330.5365 L 607.4404 330.0445 L 607.2416 328.9321 L 608.5524 327.9483 L 608.4987 326.9647 L 607.1584 325.5425 L 607.3034 323.5272 L 606.0222 322.575 L 607.0026 321.6674 L 606.3822 320.8748 L 606.9623 320.2151 L 606.0733 319.3342 L 605.3561 319.7592 L 604.674 320.8306 L 603.9649 319.4449 L 604.7142 318.1039 L 604.0777 316.6124 L 602.9845 316.2142 L 602.262 315.2585 L 600.9405 315.0594 L 599.8661 314.0066 L 600.3335 312.8919 L 599.2698 311.0699 L 599.1705 309.571 L 599.9709 310.7162 L 602.3613 313.4979 L 601.4079 313.6306 L 602.3184 314.8383 L 603.2101 314.2499 L 603.1161 312.6133 L 603.484 311.3618 L 604.4617 311.9278 L 605.7268 312.233 L 607.3545 311.8305 L 607.0644 310.6985 L 607.6258 308.0901 L 607.231 306.6359 L 608.4853 307.0955 L 609.2347 306.1321 L 608.0474 304.3116 L 607.4162 301.6258 L 607.5425 301.0074 L 606.6615 299.0601 L 606.2586 298.9584 L 605.5737 297.7444 L 604.3355 294.3634 L 605.2648 293.5604 L 606.777 294.262 L 607.1208 295.2769 L 608.7619 294.5268 L 609.3662 296.0096 L 610.0108 295.7846 L 610.908 294.1164 L 611.7514 295.3432 L 612.5813 295.0343 L 614.1498 295.0166 L 614.0236 296.3362 L 614.7999 297.2014 L 615.7668 297.2632 L 616.0676 298.6936 L 616.7391 299.3073 L 617.0453 297.7797 L 616.3926 297.0645 L 617.7168 294.8533 L 617.2333 293.8693 L 617.6469 291.9324 L 618.4044 291.8486 L 618.313 291.0678 L 620.1072 292.4971 L 621.3213 292.8457 L 621.9901 293.9134 L 623.0886 294.562 L 624.5336 295.8374 L 625.4979 295.6124 L 627.19 297.5148 L 627.9689 296.3186 L 628.7559 296.2038 L 628.4148 294.8886 L 629.1051 294.8621 L 628.8794 293.8516 L 627.9448 293.7413 L 627.1202 292.9162 L 628.2644 291.8353 L 629.6047 292.2854 L 631.9897 294.2399 L 632.6639 295.8198 L 634.5629 296.4951 L 635.7984 296.3406 L 634.9067 295.352 L 635.3552 294.9901 L 636.392 295.8464 L 636.7143 295.6036 L 637.9713 296.1465 L 638.2748 295.5373 L 637.8343 293.8163 L 638.2264 292.9604 L 639.3761 294.1164 L 640.7002 294.7253 L 642.011 294.2002 L 642.6931 294.5356 L 643.4103 295.6433 L 644.6915 294.4606 L 645.4462 294.3767 L 646.4588 293.6089 L 647.8233 293.1942 L 649.3274 293.0442 L 650.2326 292.6692 L 650.8315 293.5472 L 652.2416 294.7342 L 654.5032 297.4751 L 655.6662 296.6232 L 657.6726 297.5457 L 658.4917 297.6914 L 657.8847 297.0381 L 657.549 294.5974 L 657.9384 294.3017 L 659.2948 295.8552 L 660.2322 297.25 L 662.1311 294.1296 L 662.1473 293.3044 L 662.6845 291.5619 L 662.577 290.3224 L 662.0587 288.7259 L 661.0648 286.6492 L 659.7354 285.869 L 657.3099 283.5859 L 657.4845 282.8589 L 658.9859 282.2948 L 660.3182 282.6473 L 660.3611 281.2638 L 659.1525 278.4888 L 657.5302 276.996 L 656.7916 274.843 L 656.3215 272.1275 L 656.7969 270.7547 L 656.5713 268.5331 L 657.6215 265.4151 L 658.3655 261.103 L 658.2742 258.2251 L 658.4219 256.7361 L 658.9779 256.0378 L 660.1597 255.5415 L 662.1661 253.9696 L 663.3103 252.815 L 664.2504 250.7652 L 664.7848 249.0933 L 665.4215 246.3162 L 665.1609 245.5136 L 663.0283 246.1233 L 662.099 245.8908 L 660.6754 243.1238 L 661.6692 243.5271 L 663.5574 243.3211 L 664.5539 242.7862 L 664.7499 241.6901 L 665.1663 241.4272 L 667.6078 238.4776 L 669.2194 238.8632 L 669.3912 237.2857 L 666.8047 236.6374 L 666.4205 235.1174 L 666.5898 234.5216 L 668.1987 234.3246 L 670.0681 235.2531 L 672.848 234.5086 L 674.4139 232.8882 L 674.994 230.0994 L 674.8705 228.7601 L 675.5366 226.6028 L 677.4651 225.8328 L 679.7911 225.4172 L 681.2818 225.4346 L 682.8772 224.3192 L 682.1735 224.363 L 681.7411 223.79 L 682.383 223.1165 L 682.5818 223.9037 L 683.5058 223.8993 L 684.3061 225.2728 L 685.214 225.5091 L 686.7262 223.4489 L 687.2392 222.4037 L 687.5319 220.8033 L 688.2867 218.2723 L 688.1873 216.699 L 686.4441 215.2527 L 680.4116 213.0161 L 677.2421 210.1296 L 675.0075 207.5715 L 672.2732 207.9032 L 671.5077 208.7938 L 669.1817 208.0167 L 668.5612 207.122 L 669.0286 205.804 L 670.8631 202.1961 L 670.0224 200.94 L 667.3956 200.3208 L 665.8942 197.7485 L 664.4008 196.188 L 664.3282 195.5343 L 663.2324 194.4014 L 662.201 192.528 L 660.286 191.5173 L 658.7201 191.4433 L 657.694 190.8291 L 655.2579 190.0758 L 654.4924 189.3094 L 653.8827 187.9814 L 652.6686 187.5808 L 650.9417 185.3609 L 649.6738 185.5828 L 647.8501 185.2607 L 646.8429 184.6428 L 646.0022 185.8527 L 645.79 187.1629 L 645.2743 187.472 L 643.037 187.3544 L 642.6878 187.8638 L 641.4576 186.9975 L 640.7969 187.3457 L 639.8515 188.6953 L 638.1432 188.1338 L 637.1736 188.2817 L 636.9667 188.9348 L 631.4042 187.7288 L 628.6297 186.7667 L 627.8158 186.2923 L 625.6751 185.7482 L 624.9258 185.2564 L 621.786 184.3642 L 622.0223 184.9518 L 621.2166 185.6264 L 620.7384 187.2934 L 621.1252 189.7448 L 624.0206 195.5038 L 624.4074 196.5629 L 622.3393 198.0885 L 618.6434 197.4215 L 617.5932 199.5534 L 616.8519 201.4459 L 617.1232 201.725 L 617.048 204.1765 L 617.5717 206.5983 L 618.3856 208.1215 L 619.1699 207.7505 L 621.5711 207.5846 L 621.2514 209.1212 L 621.6543 214.9906 L 622.6024 216.6684 L 623.4593 215.9037 L 626.6716 216.249 L 626.2822 219.1028 L 624.7593 223.287 L 622.4037 227.0929 L 620.4134 228.2568 L 617.4267 229.5611 L 617.2199 231.2333 L 617.7114 237.2814 L 617.8753 237.9999 L 617.7624 240.2481 L 612.9949 239.9588 L 607.8299 238.3022 L 607.4216 239.7221 L 604.1609 238.4644 L 598.867 238.2278 L 599.5626 237.0097 L 595.8964 234.2851 L 594.5561 232.7876 L 593.5811 231.2595 L 591.0321 229.4823 L 589.8664 229.2985 L 587.3766 227.3247 L 586.2593 225.2378 L 584.9485 224.3149 L 583.4175 222.7316 L 583.4444 222.0975 L 581.1748 221.7827 L 580.2804 221.363 L 580.2911 220.9082 L 579.4102 220.2 L 578.6474 218.8623 L 578.822 217.4724 L 578.2982 217.1579 L 579.1926 215.4057 L 581.4595 215.2746 L 582.6923 214.9295 L 583.6727 215.1173 L 584.6987 213.7543 L 584.645 209.7542 L 582.9529 209.5402 L 582.8696 207.8945 L 580.412 207.8072 L 579.8856 207.1045 L 581.062 205.2892 L 579.8963 204.1547 L 579.4343 202.9201 L 578.7065 202.3532 L 577.8469 203.0336 L 577.2748 201.3325 L 576.7618 200.8528 L 576.7296 199.6536 L 577.3259 199.6754 L 577.3286 197.1512 L 575.1396 196.8985 L 575.9453 197.9664 L 575.2416 197.9707 L 574.2344 195.3992 L 572.8995 194.7194 L 572.6255 194.1399 L 573.0606 192.2012 L 574.0974 191.3301 L 574.3874 190.3022 L 573.5575 188.6518 L 573.5253 187.8029 L 572.1259 187.4197 L 570.7453 186.5056 L 570.8528 185.7395 L 569.2628 185.5349 L 568.2797 184.8125 L 567.3316 185.0257 L 566.4747 186.3706 L 566.2357 186.2749 L 566.1041 183.7333 L 564.7585 183.0414 L 564.8578 182.2801 L 563.8292 181.9581 L 563.3242 182.5324 L 562.4217 182.2322 L 562.6795 181.5275 L 562.3277 180.7489 L 562.8891 180.4749 L 562.2713 180.053 L 562.2901 179.3223 L 560.7618 181.0403 L 560.5657 181.8886 L 559.4672 183.0545 L 557.1546 182.0147 L 556.553 183.2808 L 554.5143 182.7239 L 553.4319 186.1704 L 551.3638 184.695 L 553.7542 178.4179 L 553.5233 177.9221 L 550.0611 176.2526 L 548.7369 175.7397 L 547.5578 174.1229 L 544.4018 173.6058 Z" fill="[object Object]" fill-opacity="1" stroke="rgba(30,144,255,1)" stroke-width="1" paint-order="fill" stroke-opacity="1" stroke-dasharray="" stroke-linecap="butt" stroke-miterlimit="10" style="filter: url(&quot;#zr2323-shadow-1&quot;);">
</path>
<path d="M 561.8093 472.5804 L 562.1988 472.8601 L 562.3519 474.7044 L 562.8273 475.6741 L 562.6043 476.4363 L 563.0825 477.5821 L 564.1111 477.6182 L 563.9822 478.7867 L 564.471 479.0123 L 564.2884 479.9554 L 564.6161 481.3183 L 565.3574 481.8418 L 565.1318 480.8444 L 565.9886 480.6459 L 566.4774 478.5115 L 568.465 476.1792 L 569.4292 475.5974 L 569.722 474.303 L 570.3747 473.9647 L 570.5198 475.223 L 571.0596 475.0607 L 571.4276 476.5311 L 572.6631 476.8378 L 573.7859 476.5445 L 575.0455 476.8243 L 575.5962 480.2171 L 576.0178 481.3499 L 575.3571 482.2301 L 576.1736 483.4714 L 576.3321 484.4737 L 576.9794 485.2277 L 578.0591 485.3542 L 579.0019 487.3954 L 578.8864 488.2897 L 580.0387 489.6991 L 580.8605 489.663 L 581.6771 490.8151 L 581.5159 491.9402 L 582.8857 493.6485 L 584.2018 493.8067 L 584.449 494.869 L 585.0908 495 L 586.0471 493.9062 L 585.4562 491.2624 L 586.1008 491.0003 L 586.9818 491.6556 L 588.8619 490.5937 L 589.6757 490.7473 L 590.4197 489.1886 L 591.4189 488.7821 L 592.5416 487.5806 L 593.7449 487.3141 L 595.19 485.3045 L 594.9992 484.4873 L 595.4585 482.9343 L 596.6967 482.2075 L 596.1354 481.7516 L 595.6439 480.3616 L 595.7916 479.2515 L 595.4155 478.6197 L 595.5525 477.6768 L 596.2321 476.2288 L 595.7567 474.8126 L 594.6339 472.4587 L 595.1685 469.2897 L 594.8864 469.0013 L 593.5972 469.461 L 593.2131 469.2267 L 593.0331 467.032 L 591.9319 466.1895 L 592.128 465.4958 L 591.4645 465.1534 L 591.2363 464.383 L 592.3509 463.2074 L 592.0447 461.5277 L 592.8129 458.7769 L 594.2767 459.2226 L 593.6831 456.4905 L 593.2373 456.0766 L 593.2024 454.3982 L 592.3187 453.4984 L 592.273 452.6977 L 592.7726 452.0095 L 591.9454 451.5283 L 591.5908 449.8823 L 591.0026 449.9857 L 590.7743 447.1892 L 591.8701 446.5913 L 593.2319 444.0611 L 595.0207 443.2792 L 595.4881 442.0796 L 597.9081 441.7786 L 598.4238 443.2388 L 598.3755 441.5315 L 601.2574 441.8505 L 602.4795 442.74 L 603.7231 443.0006 L 604.0346 442.6097 L 603.887 441.3294 L 604.3973 441.3069 L 604.9962 442.8119 L 605.2031 441.5945 L 605.5925 441.3159 L 605.8396 443.068 L 606.5648 444.3891 L 607.7842 444.9643 L 608.0555 444.3261 L 608.8881 445.1666 L 609.8819 442.9917 L 610.4057 442.8165 L 611.3028 444.3712 L 612.9788 445.5261 L 614.8697 447.0903 L 616.2422 446.8971 L 616.1428 446.0475 L 615.5573 446.1598 L 615.987 443.1983 L 616.4195 443.5218 L 617.0131 442.9827 L 617.3568 443.5488 L 618.4527 443.4499 L 620.3463 444.9463 L 621.152 444.1015 L 621.238 442.9287 L 621.7 442.6727 L 621.2917 441.7786 L 622.0626 441.1587 L 622.5944 441.9269 L 622.7153 441.3159 L 624.1711 441.298 L 625.189 441.864 L 625.3421 438.0956 L 625.9008 437.8352 L 626.6421 438.3382 L 626.6608 439.4159 L 627.6224 439.618 L 627.977 438.0103 L 628.5222 438.7782 L 628.9547 436.2682 L 628.2348 435.9989 L 628.1381 434.935 L 627.6278 434.4502 L 629.3763 434.9709 L 629.9054 434.1091 L 629.183 433.9789 L 629.3441 433.3057 L 628.7103 432.0313 L 627.8051 432.4531 L 626.0566 429.743 L 625.7396 427.4107 L 626.5078 428.0251 L 626.2822 426.7649 L 625.6698 427.034 L 624.0609 426.4958 L 623.8407 426.0519 L 624.8237 425.2224 L 624.7673 423.7698 L 625.6375 424.1016 L 626.6958 422.8733 L 628.2456 423.3843 L 628.2 422.0889 L 628.8418 421.3091 L 629.8142 421.9455 L 630.5582 421.1792 L 631.0389 421.4346 L 631.38 420.4532 L 630.8697 419.0866 L 629.5832 419.575 L 629.3227 420.4308 L 628.0146 420.1037 L 627.5526 419.4092 L 627.1632 417.7067 L 627.7003 418.3115 L 628.4282 418.0069 L 628.6512 419.4047 L 629.2125 419.7811 L 629.2206 418.2309 L 630.5877 416.1032 L 631.3371 415.7852 L 631.893 413.6314 L 630.4346 413.318 L 630.0774 412.9016 L 630.2734 411.0259 L 631.1651 410.6589 L 631.2189 408.6092 L 631.0497 407.2132 L 631.7588 406.8955 L 631.6298 405.8756 L 632.4974 406.1306 L 632.2127 405.2896 L 632.398 404.3861 L 631.8421 403.5498 L 631.3236 403.532 L 631.0497 402.6197 L 631.5036 401.1129 L 631.0363 400.6704 L 630.44 401.9713 L 629.8571 401.7791 L 630.2278 399.4008 L 629.2769 400.3797 L 628.3745 399.6288 L 628.8123 397.8008 L 628.2241 397.3674 L 627.5418 396.1072 L 626.9107 396.4424 L 626.0942 395.0663 L 625.7906 395.3254 L 625.1944 394.4096 L 625.0708 393.5252 L 624.4557 392.5202 L 623.1396 392.1853 L 622.9382 390.5599 L 622.5702 389.7785 L 622.0841 391.2296 L 621.5711 390.6447 L 620.6928 390.926 L 620.5075 391.7163 L 618.9818 390.0821 L 618.5655 390.9885 L 617.9397 390.3857 L 617.6899 391.4887 L 616.8949 391.2609 L 615.1705 389.8276 L 614.7568 388.9124 L 614.2465 389.457 L 613.4193 388.9481 L 613.2017 389.4749 L 612.5732 388.6088 L 612.0522 388.6803 L 610.7146 385.083 L 609.5435 385.5829 L 608.9714 386.1987 L 608.4396 385.8149 L 608.2946 386.7208 L 607.8004 386.6182 L 607.4055 383.8561 L 606.9462 385.8684 L 604.6874 384.8332 L 604.6417 383.2761 L 603.9353 383.0129 L 603.8628 384.9893 L 603.4652 385.3954 L 602.861 384.6056 L 602.5091 383.41 L 602.1491 383.7356 L 600.7015 383.0753 L 600.8546 385.0072 L 600.4328 386.4307 L 599.5894 386.569 L 599.2349 387.1493 L 597.4569 385.3865 L 596.1461 385.3284 L 594.6823 383.7891 L 594.2311 382.4374 L 593.624 381.5811 L 593.6294 380.8853 L 594.3788 380.5419 L 595.7244 381.9334 L 595.9205 382.656 L 596.7827 383.7267 L 596.7343 381.871 L 595.7486 380.7871 L 596.4604 379.2531 L 596.5597 375.1296 L 596.7746 373.8774 L 597.9537 374.528 L 598.4265 373.8641 L 597.943 373.463 L 598.1015 372.6744 L 597.0808 372.5407 L 596.3261 371.4849 L 595.3511 371.712 L 595.3726 369.1954 L 596.3234 370.0772 L 596.7397 368.7501 L 595.9903 368.1355 L 596.224 367.2005 L 597.5294 365.6512 L 597.8061 364.3604 L 597.3951 363.0385 L 596.1596 362.5757 L 595.5364 361.6012 L 595.2383 362.8783 L 594.6582 363.0385 L 594.129 361.5834 L 592.9875 361.0584 L 592.2784 361.2408 L 590.64 359.0922 L 589.6542 359.4613 L 588.8592 358.9542 L 588.126 359.9596 L 585.7005 359.3323 L 584.5322 359.9106 L 583.8311 361.0895 L 583.0039 360.9828 L 582.4372 362.4734 L 580.976 363.1854 L 581.3387 366.2121 L 582.1847 365.8782 L 581.3628 367.766 L 581.2393 370.3534 L 580.2481 370.3713 L 579.1308 370.8924 L 578.5157 370.4069 L 577.667 373.4897 L 575.709 373.4942 L 574.2317 374.5948 L 572.373 376.5247 L 571.8519 377.813 L 568.7766 378.8563 L 567.4095 379.6054 L 566.268 379.5786 L 564.5328 380.6132 L 563.3913 379.6812 L 562.9535 378.892 L 562.3679 378.8518 L 562.0967 379.5965 L 560.8074 378.7716 L 559.1637 379.3602 L 558.2102 379.2843 L 557.2459 380.8496 L 554.9065 380.2252 L 554.517 381.0191 L 554.6486 381.9736 L 553.8912 382.375 L 553.577 383.1289 L 555.5779 387.9571 L 556.0641 390.1759 L 556.4133 393.5252 L 554.6836 393.2929 L 552.3791 391.6092 L 548.3824 391.1136 L 547.0797 391.1582 L 546.8004 391.9039 L 546.9723 393.869 L 546.3223 394.4632 L 545.1217 396.487 L 544.743 398.1002 L 543.3758 399.1103 L 541.6757 401.2337 L 541.1975 400.6301 L 540.9317 399.3785 L 540.2011 399.1013 L 538.9817 399.5752 L 538.1759 399.3338 L 537.4399 399.9641 L 536.7872 399.6153 L 538.5895 397.6623 L 537.7059 395.5621 L 536.9565 395.0886 L 535.8391 395.8213 L 534.2732 395.5577 L 532.7879 396.3128 L 531.9822 397.622 L 531.2032 397.926 L 530.1289 397.5639 L 527.9264 395.2852 L 527.0965 393.9182 L 526.288 393.3689 L 525.7132 391.8905 L 524.9504 391.3368 L 524.5583 389.6089 L 523.3254 388.8946 L 519.2536 390.9572 L 517.634 392.4934 L 516.0627 393.6502 L 515.4046 393.8155 L 515.3778 394.4632 L 516.4737 397.3629 L 517.3895 398.1628 L 516.7342 400.4692 L 516.0788 400.2367 L 516.3339 401.019 L 515.6168 403.3799 L 515.2327 403.6125 L 513.7716 403.3799 L 513.1189 402.7315 L 512.5146 403.3977 L 511.6819 403.5453 L 510.8305 403.0534 L 508.9772 406.059 L 508.3406 405.6475 L 507.6557 406.1664 L 507.6477 407.1013 L 506.5921 407.5711 L 505.1901 409.4147 L 505.6252 410.4306 L 503.8766 410.5157 L 503.4818 412.2837 L 503.686 413.6269 L 503.0199 414.0433 L 503.2132 416.2197 L 502.907 419.2658 L 502.3726 420.2919 L 503.1837 421.4794 L 503.5839 423.7474 L 502.5364 424.2271 L 503.1246 426.1774 L 504.3789 427.2806 L 504.986 426.9308 L 505.9932 427.7964 L 506.6835 427.6887 L 507.6101 428.2897 L 508.2171 429.4919 L 507.645 430.3711 L 507.1777 429.6488 L 506.0335 430.6493 L 506.6405 432.7088 L 506.388 433.5929 L 507.2421 433.4807 L 506.3477 434.8901 L 507.0595 436.147 L 507.919 434.32 L 509.0256 432.9826 L 509.646 433.0588 L 509.7132 433.7545 L 510.6371 433.3416 L 510.8708 436.6678 L 511.3139 437.4805 L 512.1278 437.3907 L 512.904 438.3606 L 512.6301 440.9116 L 513.4412 440.3726 L 514.1288 440.5927 L 514.4512 442.493 L 514.8567 443.095 L 517.0538 443.9622 L 518.7137 443.1174 L 519.3261 443.6477 L 520.0298 443.0187 L 521.1847 443.3556 L 521.7085 444.4566 L 521.0934 446.1014 L 521.4319 447.2792 L 522.2886 446.043 L 521.8885 444.2363 L 523.9298 444.3127 L 524.0989 443.5353 L 525.9872 442.8524 L 529.7609 440.6556 L 530.6231 441.9762 L 530.9668 440.9924 L 531.453 441.1318 L 531.5256 442.1021 L 532.4173 442.4435 L 532.8604 441.9403 L 534.4532 442.5873 L 535.0145 443.3736 L 535.9412 442.5918 L 536.6208 442.7221 L 536.7443 444.133 L 535.2321 446.2452 L 534.5042 446.0026 L 533.908 443.2074 L 533.1774 444.8654 L 532.5757 445.6519 L 531.5148 446.1194 L 531.4772 447.6702 L 532.5704 447.4679 L 533.8139 448.2996 L 533.4083 451.6002 L 534.3323 452.4953 L 535.1489 452.077 L 535.7478 452.3424 L 535.5813 453.7908 L 536.2474 454.0742 L 536.9377 452.9316 L 537.3271 453.359 L 536.8571 454.7312 L 536.191 454.7986 L 537.1874 456.279 L 538.4794 456.5941 L 539.0703 457.4401 L 538.4176 457.9893 L 540.0587 460.2265 L 541.5118 459.2361 L 542.1296 460.8614 L 541.8717 461.3611 L 542.4089 462.1132 L 542.0356 463.1849 L 542.9622 462.8563 L 543.1448 464.8155 L 542.9111 465.3425 L 543.1153 467.762 L 543.9399 468.2172 L 544.6785 465.9957 L 545.1405 465.6083 L 545.6589 462.9643 L 546.9239 463.5048 L 546.9185 462.559 L 548.3878 462.1852 L 549.2204 462.9958 L 552.0191 463.4102 L 553.1902 463.9011 L 554.0819 463.8336 L 555.868 464.4236 L 556.5019 465.1308 L 557.4124 464.847 L 557.5199 465.9192 L 557.0284 466.185 L 557.7643 467.8566 L 558.6103 467.7891 L 561.5541 466.8789 L 561.761 468.0729 L 562.0967 467.9287 L 562.3841 466.185 L 563.6652 466.3202 L 564.0494 467.2483 L 563.1737 468.2442 L 561.5541 468.4695 L 561.9033 470.376 L 561.6885 471.6562 L 562.0322 471.9989 L 561.9651 472.4993 L 561.8093 472.5804 Z M 560.4771 472.3461 L 560.2891 469.8937 L 560.8155 468.6768 L 560.4529 468.2983 L 559.2577 468.7219 L 558.4036 468.5912 L 557.9631 469.0959 L 555.2127 469.8035 L 554.3585 470.4481 L 553.7703 470.376 L 552.9324 471.0522 L 551.2241 471.4849 L 550.1981 472.4317 L 549.3466 472.1477 L 547.9741 472.3596 L 547.3537 473.6356 L 547.684 476.1927 L 550.2061 475.6334 L 550.609 475.0876 L 551.8929 475.417 L 552.0997 474.6818 L 552.978 474.3345 L 553.3889 475.1057 L 554.1759 474.3481 L 555.527 473.8611 L 555.7149 472.4001 L 556.4509 473.6852 L 556.9129 473.3425 L 556.7785 472.1792 L 557.5064 471.0566 L 558.8816 470.4752 L 559.4618 472.0935 L 560.4771 472.3461 Z M 561.9463 475.6244 L 562.0779 474.5691 L 561.1888 473.8025 L 561.2479 475.0876 L 561.9463 475.6244 Z M 562.0322 471.9989 L 561.6885 471.6562 L 561.8093 472.5804 L 561.9651 472.4993 L 562.0322 471.9989 Z" fill="[object Object]" fill-opacity="1" stroke="rgba(30,144,255,1)" stroke-width="1" paint-order="fill" stroke-opacity="1" stroke-dasharray="" stroke-linecap="butt" stroke-miterlimit="10" style="filter: url(&quot;#zr2323-shadow-1&quot;);">
</path>
<path d="M 588.8592 358.9542 L 589.4475 358.0558 L 588.5369 357.0996 L 588.1125 356.0947 L 586.7239 356.1792 L 585.7408 355.819 L 585.714 354.8853 L 584.9861 353.4673 L 585.1875 352.7383 L 587.3981 354.9965 L 587.7929 353.1161 L 588.5772 353.2983 L 589.4528 354.3519 L 591.5639 354.9343 L 592.4422 354.6498 L 592.7001 353.7162 L 591.9534 352.765 L 593.6966 352.3783 L 592.7082 351.1739 L 591.5183 350.303 L 591.7358 348.7791 L 591.5479 347.7441 L 590.6024 346.6293 L 590.417 347.2421 L 588.8001 347.7619 L 588.3838 348.2061 L 587.0677 347.8463 L 586.4446 348.0417 L 586.6863 348.8857 L 585.0963 349.4632 L 581.6556 350.9962 L 580.5544 350.7563 L 579.8506 349.4188 L 579.2383 349.2412 L 578.2176 349.7254 L 577.9705 348.979 L 576.5738 348.3615 L 576.0125 349.6943 L 574.5486 349.0634 L 573.3856 349.2989 L 572.9666 349.872 L 572.9371 351.7561 L 571.6666 351.4805 L 570.6406 351.7161 L 569.4642 352.6183 L 568.3065 351.7427 L 567.8258 349.8898 L 568.2367 347.9839 L 566.652 345.781 L 565.6233 345.1948 L 565.5777 343.8361 L 564.643 342.3756 L 564.6 340.7733 L 562.2847 337.6006 L 561.5112 335.3472 L 561.8469 333.5157 L 560.751 332.3718 L 559.8835 330.9133 L 558.4922 329.6101 L 558.6749 328.0147 L 558.4036 326.5659 L 556.4966 324.6921 L 555.3738 324.8338 L 554.8582 324.3421 L 554.2565 324.6521 L 553.8214 323.9258 L 554.8903 322.7434 L 554.5788 322.1899 L 554.6298 320.8217 L 553.3782 319.7592 L 553.2493 318.7146 L 552.3603 318.2985 L 552.6772 317.2673 L 551.0603 315.9532 L 550.9286 315.0418 L 550.2491 314.9002 L 550.0745 315.6877 L 548.9061 316.6213 L 547.2463 316.6833 L 548.8256 319.0953 L 548.8417 319.5866 L 547.9983 320.41 L 548.1594 320.8438 L 546.7896 322.8142 L 546.1369 323.3102 L 545.9651 324.3023 L 545.0733 324.6611 L 544.7402 325.3786 L 543.3785 326.0476 L 543.0992 328.4889 L 542.3229 328.7814 L 542.0356 326.8052 L 540.9129 326.1539 L 539.3845 326.969 L 537.585 326.9912 L 537.1015 326.4241 L 535.8767 327.554 L 535.2241 324.8869 L 535.2939 322.6017 L 536.089 322.2519 L 535.9788 320.2151 L 536.9968 318.6836 L 535.5893 317.0373 L 536.3038 316.9753 L 537.6817 317.6701 L 537.6494 317.0373 L 538.8957 316.2009 L 539.0246 315.5594 L 541.9415 313.4537 L 542.742 312.233 L 542.8682 310.6189 L 544.0769 310.0175 L 543.5719 309.2969 L 539.0165 299.5766 L 538.4847 298.8481 L 536.1023 298.826 L 535.5383 298.3713 L 533.1129 295.5153 L 531.9822 295.1446 L 530.9159 294.3855 L 530.29 293.1457 L 529.7555 290.8473 L 530.0375 289.1934 L 529.4466 287.5354 L 526.9998 287.6765 L 525.6031 286.8961 L 523.1938 286.883 L 522.3504 286.4024 L 522.1973 285.8205 L 521.1874 284.7934 L 522.1543 284.8596 L 523.1186 284.3219 L 524.7087 284.2381 L 526.6748 282.2772 L 528.2004 280.3695 L 529.6803 279.3697 L 530.3625 278.5152 L 530.5801 280.1317 L 531.2005 280.8277 L 531.7834 282.546 L 531.7538 283.3655 L 530.9856 284.9433 L 532.8201 286.9799 L 533.258 288.0071 L 535.1891 287.9411 L 537.7676 287.4119 L 538.6647 286.7198 L 538.2135 286.0276 L 538.8581 285.2915 L 537.9368 284.9566 L 537.5742 283.5682 L 537.9772 283.1012 L 536.755 281.9863 L 536.6476 280.7043 L 535.0145 277.2337 L 536.6422 276.428 L 538.2269 275.9129 L 539.5242 274.8739 L 539.7391 274.0728 L 543.2012 274.4205 L 550.2142 275.2437 L 551.4443 273.8219 L 551.6431 272.6336 L 550.4344 271.1551 L 549.4836 270.5655 L 548.6133 270.5478 L 547.2972 269.6284 L 546.3303 269.3776 L 543.6471 267.4247 L 544.1977 265.8065 L 546.9159 266.1802 L 547.0206 265.6173 L 546.2309 263.7621 L 547.0448 262.7994 L 549.2124 262.0918 L 550.0718 262.7819 L 550.9286 262.461 L 551.1059 260.5625 L 554.8259 259.9341 L 553.9852 258.5986 L 552.8115 258.1021 L 552.978 257.4696 L 554.1867 257.5575 L 554.7345 257.2237 L 555.7096 257.6234 L 556.4509 257.5003 L 557.1009 256.433 L 557.4097 254.9444 L 558.6802 253.9345 L 559.1556 252.7579 L 560.0205 253.0126 L 560.6329 252.2575 L 562.1289 251.88 L 560.9337 249.9752 L 559.2738 249.5014 L 558.5137 248.5843 L 558.8736 248.4746 L 556.2951 244.9435 L 556.2763 243.8692 L 556.7947 243.0756 L 557.7831 243.1851 L 558.0973 242.773 L 557.9282 241.4008 L 558.0866 239.5469 L 557.066 239.034 L 556.5718 238.3417 L 555.3443 238.3987 L 554.372 237.8641 L 552.2743 238.0744 L 550.8964 236.817 L 550.6144 238.403 L 549.0028 241.0721 L 548.5248 242.7248 L 546.8057 242.5845 L 547.6948 241.1334 L 547.0824 239.5774 L 546.5184 239.1787 L 546.6284 237.8071 L 547.2301 235.7569 L 547.3054 232.0782 L 548.3555 230.7254 L 548.2669 229.5085 L 546.7869 229.7668 L 544.4448 229.3466 L 543.7465 230.5284 L 542.1967 229.8368 L 541.4635 229.9463 L 538.9333 229.4648 L 537.088 230.559 L 535.5866 230.6466 L 533.6313 230.2133 L 531.9445 230.8218 L 530.5532 230.918 L 528.4045 231.9249 L 528.1869 232.481 L 525.0713 232.8357 L 524.1876 233.6414 L 523.0139 233.5976 L 518.9931 233.9962 L 513.7098 234.1057 L 512.1197 233.9086 L 510.0757 232.8094 L 508.6361 232.5117 L 507.406 232.7919 L 506.1597 232.7087 L 505.1363 233.0283 L 502.249 233.4444 L 501.5533 233.3568 L 498.674 234.9203 L 496.1305 235.6343 L 494.5538 235.8576 L 493.2323 236.5848 L 491.4167 238.0613 L 489.6601 238.7317 L 487.224 240.121 L 485.317 240.6074 L 483.4825 242.7291 L 479.7061 245.632 L 478.4088 246.3339 L 470.6491 247.1234 L 468.9301 247.7112 L 465.836 247.7419 L 463.1635 248.9967 L 460.9557 250.6467 L 453.8594 251.4455 L 446.5027 252.4199 L 440.2069 252.8194 L 431.346 253.1926 L 431.1231 253.6535 L 430.2609 253.5613 L 429.5303 256.78 L 429.2966 258.5722 L 428.0289 258.9808 L 426.5812 258.8534 L 425.2732 260.1538 L 423.6696 260.7559 L 422.5174 260.2988 L 420.9891 261.0063 L 419.7133 262.4786 L 419.7267 263.173 L 420.605 263.9468 L 424.3223 263.2654 L 425.9473 263.5203 L 426.7424 262.7599 L 427.626 262.5006 L 429.0818 261.3667 L 431.7006 260.5713 L 432.8931 263.0236 L 433.9379 263.3489 L 435.426 263.0544 L 436.6185 263.1906 L 438.3321 261.7402 L 439.1379 261.9292 L 440.1854 262.9708 L 441.8265 262.2061 L 443.0674 262.5357 L 445.2377 262.7686 L 445.7237 263.4368 L 446.645 263.7357 L 447.6737 263.3709 L 449.2477 264.1093 L 450.9882 264.6018 L 450.3274 265.4195 L 450.1341 266.6595 L 449.5216 267.9173 L 449.5244 268.687 L 450.0615 270.1035 L 452.8173 271.2255 L 453.9937 270.6975 L 454.0286 271.9955 L 453.5855 272.9812 L 452.9596 272.858 L 451.5361 274.0464 L 450.8404 274.0024 L 449.8816 274.9047 L 449.7795 276.1022 L 448.8986 276.9564 L 448.1545 276.9916 L 447.2118 276.177 L 446.5698 276.2167 L 446.1777 276.9783 L 446.6343 277.5772 L 446.4543 278.4007 L 445.7104 278.3787 L 444.9126 280.0436 L 444.6789 282.145 L 445.5089 284.2117 L 446.5806 285.3444 L 446.6988 286.0541 L 447.6469 286.4729 L 448.8797 286.301 L 449.7016 285.7897 L 449.9595 286.1643 L 451.246 286.3582 L 453.0617 285.8116 L 453.9615 285.772 L 455.0895 284.5907 L 456.3627 283.6344 L 456.6017 282.9469 L 457.797 282.5196 L 458.6753 281.722 L 459.3763 282.2551 L 460.0505 283.5771 L 460.9261 282.9778 L 461.4176 283.4581 L 462.4275 283.5551 L 463.1312 284.3263 L 465.0463 285.4282 L 465.2128 288.3864 L 465.7231 289.5594 L 467.5818 291.0634 L 468.2963 292.8942 L 468.3822 294.3503 L 469.3088 294.9548 L 469.9884 296.2214 L 469.8192 297.7399 L 471.0332 298.7288 L 472.2876 299.0777 L 472.8086 299.7003 L 472.8623 303.6357 L 473.7164 304.5414 L 476.8348 304.1482 L 477.5761 304.5237 L 477.3585 306.0791 L 479.6577 307.1442 L 480.4044 305.814 L 481.2263 305.4913 L 482.5343 306.521 L 483.7189 306.8967 L 485.3276 307.8779 L 486.7807 308.3022 L 488.959 308.236 L 489.652 308.457 L 489.9206 311.3927 L 490.6404 312.2594 L 490.7828 313.4934 L 491.2824 314.095 L 491.1427 315.4311 L 490.6432 315.409 L 491.1427 318.2809 L 490.7398 319.352 L 491.6718 319.9894 L 491.7632 319.4007 L 493.0256 318.7987 L 494.5108 319.9761 L 495.647 318.874 L 496.3937 319.4626 L 498.3544 321.6364 L 498.8593 323.0091 L 498.6821 323.5627 L 500.1781 324.5326 L 499.7753 325.3653 L 500.2668 325.6887 L 500.6643 326.9735 L 502.5632 328.6174 L 502.9823 328.5111 L 503.2428 331.0285 L 503.6484 332.9038 L 503.0467 333.1255 L 502.7539 334.3405 L 501.9401 335.223 L 500.9409 335.2984 L 500.2211 334.642 L 498.4565 334.2208 L 498.1664 335.5868 L 495.604 335.3738 L 495.5933 336.1855 L 494.527 336.1855 L 493.6272 336.8198 L 492.4883 339.5395 L 493.0953 341.874 L 494.4356 343.5431 L 494.1698 346.5182 L 495.1071 347.6508 L 495.7196 347.6463 L 495.7168 348.939 L 496.3964 350.2408 L 497.2827 350.112 L 498.0241 351.1206 L 497.6238 351.5206 L 498.3356 352.7872 L 498.4618 354.3074 L 496.5602 355.37 L 496.3131 356.0502 L 496.9523 356.317 L 497.1995 357.4376 L 498.1798 357.7133 L 498.8755 358.6162 L 499.3993 358.2026 L 500.6938 358.3938 L 501.9804 357.1886 L 503.2454 358.9676 L 505.268 361.2053 L 505.7595 362.4867 L 505.6037 364.1689 L 506.0281 365.0859 L 505.4211 367.0447 L 505.9905 367.7526 L 507.132 367.3296 L 508.3057 368.5764 L 508.1096 370.8033 L 508.5179 373.2135 L 509.4634 373.3205 L 509.8931 374.0378 L 509.4016 374.8622 L 508.4723 374.8222 L 508.7731 376.0879 L 509.9281 377.2825 L 510.3846 379.0436 L 511.1313 379.5608 L 512.6597 379.8329 L 513.17 381.3982 L 513.7742 381.8665 L 514.4726 383.1735 L 514.1664 384.8466 L 513.64 384.9492 L 513.1001 386.0157 L 513.5809 387.3501 L 512.9148 389.0106 L 513.1592 390.3366 L 514.6446 391.502 L 515.4046 393.8155 L 516.0627 393.6502 L 517.634 392.4934 L 519.2536 390.9572 L 523.3254 388.8946 L 524.5583 389.6089 L 524.9504 391.3368 L 525.7132 391.8905 L 526.288 393.3689 L 527.0965 393.9182 L 527.9264 395.2852 L 530.1289 397.5639 L 531.2032 397.926 L 531.9822 397.622 L 532.7879 396.3128 L 534.2732 395.5577 L 535.8391 395.8213 L 536.9565 395.0886 L 537.7059 395.5621 L 538.5895 397.6623 L 536.7872 399.6153 L 537.4399 399.9641 L 538.1759 399.3338 L 538.9817 399.5752 L 540.2011 399.1013 L 540.9317 399.3785 L 541.1975 400.6301 L 541.6757 401.2337 L 543.3758 399.1103 L 544.743 398.1002 L 545.1217 396.487 L 546.3223 394.4632 L 546.9723 393.869 L 546.8004 391.9039 L 547.0797 391.1582 L 548.3824 391.1136 L 552.3791 391.6092 L 554.6836 393.2929 L 556.4133 393.5252 L 556.0641 390.1759 L 555.5779 387.9571 L 553.577 383.1289 L 553.8912 382.375 L 554.6486 381.9736 L 554.517 381.0191 L 554.9065 380.2252 L 557.2459 380.8496 L 558.2102 379.2843 L 559.1637 379.3602 L 560.8074 378.7716 L 562.0967 379.5965 L 562.3679 378.8518 L 562.9535 378.892 L 563.3913 379.6812 L 564.5328 380.6132 L 566.268 379.5786 L 567.4095 379.6054 L 568.7766 378.8563 L 571.8519 377.813 L 572.373 376.5247 L 574.2317 374.5948 L 575.709 373.4942 L 577.667 373.4897 L 578.5157 370.4069 L 579.1308 370.8924 L 580.2481 370.3713 L 581.2393 370.3534 L 581.3628 367.766 L 582.1847 365.8782 L 581.3387 366.2121 L 580.976 363.1854 L 582.4372 362.4734 L 583.0039 360.9828 L 583.8311 361.0895 L 584.5322 359.9106 L 585.7005 359.3323 L 588.126 359.9596 L 588.8592 358.9542 Z" fill="[object Object]" fill-opacity="1" stroke="rgba(30,144,255,1)" stroke-width="1" paint-order="fill" stroke-opacity="1" stroke-dasharray="" stroke-linecap="butt" stroke-miterlimit="10" style="filter: url(&quot;#zr2323-shadow-1&quot;);">
</path>
<text xml:space="preserve" fill="rgba(189,189,217,1)" fill-opacity="1" stroke="none" transform="matrix(1,0,0,1,584.3025,174.5137)" dominant-baseline="central" text-anchor="middle" x="0" y="0" style="font: 13 13px sans-serif;">银川市</text>
<text xml:space="preserve" fill="rgba(189,189,217,1)" fill-opacity="1" stroke="none" transform="matrix(1,0,0,1,593.5891,96.4211)" dominant-baseline="central" text-anchor="middle" x="0" y="0" style="font: 13 13px sans-serif;">石嘴山市</text>
<text xml:space="preserve" fill="rgba(189,189,217,1)" fill-opacity="1" stroke="none" transform="matrix(1,0,0,1,604.7371,263.1121)" dominant-baseline="central" text-anchor="middle" x="0" y="0" style="font: 13 13px sans-serif;">吴忠市</text>
<text xml:space="preserve" fill="rgba(189,189,217,1)" fill-opacity="1" stroke="none" transform="matrix(1,0,0,1,567.435,426.9771)" dominant-baseline="central" text-anchor="middle" x="0" y="0" style="font: 13 13px sans-serif;">固原市</text>
<text xml:space="preserve" fill="rgba(189,189,217,1)" fill-opacity="1" stroke="none" transform="matrix(1,0,0,1,506.7049,315.2901)" dominant-baseline="central" text-anchor="middle" x="0" y="0" style="font: 13 13px sans-serif;">中卫市</text>
<defs>
<filter id="zr2323-shadow-0" x="-100%" y="-100%" width="300%" height="300%">
<feDropShadow dx="0" dy="1" flood-color="rgba(0,0,0,1)" stdDeviation="0 0">
</feDropShadow>
</filter>
<filter id="zr2323-shadow-1" x="-100%" y="-100%" width="300%" height="300%">
<feDropShadow dx="0" dy="1" flood-color="rgba(0,0,0,1)" stdDeviation="0 0">
</feDropShadow>
</filter>
</defs>
</g>
</svg>