<svg xmlns="http://www.w3.org/2000/svg" xmlns:xlink="http://www.w3.org/1999/xlink" version="1.1" baseProfile="full" width="1108" height="550" style="user-select: none; position: absolute; left: 0px; top: 0px;">
<g>
<rect width="1108" height="550" x="0" y="0" id="0" style="fill: transparent;">
</rect>
</g>
<g>
<path d="M -21 -5 L 21 -5 L 21 21 L -21 21 L -21 -5" fill="rgba(0,0,0,0)" fill-opacity="1" stroke="#ccc" stroke-width="0" paint-order="fill" stroke-opacity="1" stroke-dasharray="" stroke-linecap="butt" stroke-miterlimit="10" transform="matrix(1,0,0,1,554,5)">
</path>
<text xml:space="preserve" fill="#34471f" fill-opacity="1" stroke="none" transform="matrix(1,0,0,1,554,5)" dominant-baseline="central" text-anchor="middle" x="0" y="8" style="font: 16px &quot;Microsoft YaHei&quot;;">山西</text>
<path d="M 589.7843 246.7864 L 588.4213 244.99 L 586.8512 244.7535 L 584.6415 242.8089 L 584.1298 240.8212 L 583.0412 241.0489 L 581.9062 239.5914 L 582.9319 239.0969 L 582.7924 238.0556 L 583.9856 236.0566 L 583.9437 235.287 L 586.2418 233.0575 L 587.6118 232.5636 L 588.098 231.4668 L 588.9818 231.1216 L 590.3123 228.8764 L 592.0429 228.8807 L 594.2572 227.3656 L 594.5968 226.1477 L 593.8339 225.0522 L 594.3316 223.9656 L 593.7897 222.6395 L 594.0107 221.4009 L 592.7058 220.7118 L 590.7868 221.1086 L 590.6984 222.2905 L 589.9192 223.0844 L 588.3073 223.5425 L 587.87 224.5503 L 586.386 226.283 L 585.0346 226.3615 L 584.7113 225.2747 L 583.2599 226.9596 L 581.4316 227.8677 L 578.2055 228.9463 L 576.6936 230.2872 L 575.2724 232.8827 L 572.7464 233.5252 L 569.7923 233.5645 L 569.1388 233.9667 L 566.9035 233.2104 L 567.3524 234.5569 L 565.8731 236.061 L 563.1005 235.768 L 562.4841 234.8542 L 562.7515 233.7306 L 560.7372 231.6809 L 560.7256 232.9569 L 559.3789 233.8617 L 557.1854 232.9569 L 556.5551 231.091 L 555.8154 230.7634 L 554.3873 231.7552 L 552.0962 230.9512 L 550.8564 229.1646 L 549.7376 228.5969 L 548.9584 228.9026 L 547.286 228.3873 L 545.8928 229.9727 L 547.0697 231.6765 L 545.1438 232.1266 L 544.439 232.9133 L 546.0788 235.1296 L 546.9511 237.78 L 546.0788 240.0947 L 545.2601 240.6199 L 543.9715 240.5542 L 544.1087 241.3597 L 541.1942 240.099 L 539.8219 240.7468 L 538.0332 238.8606 L 535.0885 238.5412 L 533.2277 237.6575 L 529.9899 238.8212 L 528.05 237.9068 L 527.1382 236.6689 L 525.7845 237.0013 L 525.5845 235.0946 L 524.4331 234.3995 L 524.5378 235.4575 L 522.8235 235.5056 L 522.2234 236.8526 L 520.451 237.4038 L 520.0742 238.0075 L 518.8856 237.7012 L 517.3923 238.3181 L 517.4086 239.4951 L 515.9688 241.1977 L 513.473 242.5243 L 512.4984 243.5446 L 509.4258 243.9957 L 508.3465 244.7228 L 508.286 245.4675 L 507.0928 246.0985 L 506.6508 247.1589 L 507.2998 248.1276 L 506.702 249.4164 L 507.8371 251.3634 L 508.2419 253.9694 L 509.6793 255.6855 L 510.091 257.7754 L 508.3232 259.0227 L 509.356 259.686 L 509.563 261.3732 L 513.4381 260.7184 L 514.0266 261.0655 L 515.6315 260.5515 L 516.848 259.4707 L 519.0461 260.077 L 519.0298 261.149 L 520.1579 262.1555 L 520.1533 262.806 L 522.3327 263.8917 L 522.9421 265.3956 L 527.8965 265.6199 L 528.385 268.1229 L 529.1176 269.3507 L 531.2575 271.3227 L 532.3973 270.6843 L 533.8487 270.5523 L 534.4558 271.4591 L 536.6678 270.9925 L 538.1076 271.1069 L 538.9589 272.3662 L 542.0293 274.0839 L 541.9316 276.873 L 544.7669 279.959 L 545.1298 281.5512 L 546.3044 282.1468 L 548.1676 281.7762 L 548.363 283.0733 L 547.272 284.8385 L 548.449 285.0239 L 549.4003 286.8781 L 548.1629 287.4655 L 549.6144 288.2428 L 550.2935 289.4928 L 551.4868 289.188 L 551.8403 287.6288 L 553.5173 287.6951 L 553.7639 289.2101 L 555.7968 289.4973 L 556.2946 288.0661 L 557.4785 288.786 L 559.8418 288.0837 L 559.9232 286.0172 L 561.7956 285.2446 L 564.2588 286.0702 L 564.4356 285.0592 L 566.0335 284.7061 L 565.1218 282.835 L 565.2474 281.3527 L 564.6612 279.4651 L 563.6703 279.0947 L 563.6424 276.9876 L 565.8056 276.3397 L 565.0496 274.639 L 566.2289 273.3923 L 566.201 271.7189 L 567.4664 271.5473 L 567.6478 270.0637 L 568.3851 269.3902 L 567.5989 266.8734 L 569.2667 265.2109 L 568.7852 264.2742 L 570.4227 261.4566 L 571.4764 261.4391 L 572.137 259.7431 L 573.2418 259.2862 L 574.6165 260.0726 L 573.6419 256.9059 L 574.3071 256.2781 L 573.7768 255.1499 L 575.198 253.0085 L 576.4261 252.0126 L 576.8611 250.5258 L 578.8801 251.5608 L 579.8011 251.0784 L 580.7548 251.4249 L 581.9527 251.0608 L 582.9226 251.4994 L 584.4764 249.5129 L 585.6208 250.6574 L 587.4257 248.9342 L 586.6628 247.9653 L 587.5025 247.2203 L 588.9493 247.4438 L 589.7843 246.7864 Z" fill="[object Object]" fill-opacity="1" stroke="dodgerblue" stroke-width="1" paint-order="fill" stroke-opacity="1" stroke-dasharray="" stroke-linecap="butt" stroke-miterlimit="10" style="filter: url(&quot;#zr2323-shadow-0&quot;);">
</path>
<path d="M 617.145 148.0404 L 617.6195 147.8169 L 618.3173 149.0463 L 621.0155 148.2897 L 623.6322 149.4203 L 625.8256 149.2742 L 627.2887 150.3921 L 627.6236 151.4286 L 628.6168 152.3061 L 631.2592 152.8438 L 634.4202 152.6933 L 634.3457 154.6899 L 636.7043 157.2858 L 636.9555 158.2117 L 638.0441 159.2326 L 637.5835 163.4216 L 636.5927 164.5643 L 637.2579 170.2427 L 637.7533 172.147 L 638.9652 172.5357 L 639.8281 172.1513 L 640.1514 170.5708 L 642.5263 169.6426 L 643.3008 172.6696 L 644.9918 173.3694 L 645.6315 175.6163 L 646.5921 175.7157 L 648.2296 174.981 L 649.4996 175.8453 L 650.3625 175.7503 L 651.9373 174.6008 L 655.8915 173.6891 L 656.9987 174.3155 L 658.5175 173.8662 L 659.6177 171.6676 L 659.1409 169.7764 L 660.6109 166.7037 L 662.2089 167.0877 L 663.5812 166.9065 L 664.0929 165.5865 L 664.7605 165.8798 L 665.2559 163.6847 L 663.1928 162.9431 L 662.0995 161.9948 L 663.2626 160.7406 L 662.588 158.9742 L 663.3137 156.5237 L 664.8163 155.7918 L 665.5164 154.2595 L 664.9675 153.9669 L 665.0443 150.1384 L 666.4329 148.0103 L 666.7283 145.256 L 668.2053 144.676 L 668.5658 142.6963 L 669.6777 141.3311 L 669.6777 139.9964 L 670.2987 138.3316 L 669.6591 137.7997 L 667.4284 138.9708 L 666.3794 135.887 L 665.2513 135.4883 L 662.9416 135.4668 L 661.6809 132.758 L 661.6251 130.0121 L 661.7925 124.9141 L 662.1438 123.8789 L 660.7458 120.8472 L 661.6041 119.7872 L 660.9994 117.3732 L 655.0844 117.9114 L 655.1774 117.0998 L 652.9631 117.7534 L 651.6744 117.8046 L 650.6347 117.0101 L 650.7649 116.0876 L 652.0094 115.3232 L 651.6302 114.0083 L 649.1391 115.1994 L 645.3175 114.1107 L 644.6243 114.3029 L 643.4358 113.4364 L 642.3425 113.876 L 641.3191 110.7908 L 641.3819 108.9269 L 640.9423 108.4707 L 637.6835 107.8183 L 636.16 107.2087 L 635.2273 107.4602 L 635.6483 105.9812 L 637.3835 105.6786 L 638.493 104.2342 L 638.7861 102.6497 L 638.4023 100.9423 L 638.7233 99.8568 L 640.8725 100.5591 L 642.1518 103.8168 L 644.6895 102.5007 L 645.2291 100.1121 L 644.5802 99.2013 L 643.4497 95.0367 L 645.043 94.0504 L 646.4177 94.3989 L 646.4479 95.1516 L 647.5807 95.2068 L 649.4554 94.1949 L 652.4467 93.7103 L 652.6769 92.0187 L 653.4841 91.0032 L 655.5146 91.4365 L 657.7685 90.3447 L 659.2386 90.0091 L 661.5878 90.2894 L 664.9931 88.7265 L 667.1912 86.2302 L 668.0215 84.7576 L 668.2448 83.2176 L 666.5678 82.5814 L 665.0396 82.891 L 663.7394 81.2329 L 661.4436 82.5983 L 660.362 82.5814 L 658.2663 81.4703 L 656.6567 81.4703 L 655.1914 77.6218 L 655.8147 76.0375 L 654.568 75.1481 L 654.126 73.9922 L 655.6914 69.5786 L 655.5333 68.4748 L 654.5075 68.3691 L 654.9704 65.6593 L 653.6446 64.2395 L 652.4606 64.5014 L 651.0231 62.875 L 651.4046 62.4992 L 650.5277 60.5568 L 649.6253 59.8771 L 648.5064 56.8853 L 647.2829 55 L 644.8011 55.5735 L 643.6777 56.3158 L 643.238 57.3451 L 643.7009 59.3453 L 643.5799 60.6918 L 642.0448 64.3832 L 642.382 65.2958 L 643.9242 66.7287 L 644.101 68.737 L 643.1218 70.0862 L 640.4143 71.0127 L 638.2 70.56 L 637.0044 70.9492 L 636.0996 72.6207 L 633.9131 74.5468 L 632.4826 75.2583 L 631.8151 74.966 L 630.8358 73.0736 L 628.8052 70.8646 L 628.5843 71.969 L 627.1235 74.0092 L 623.1205 75.8511 L 622.0063 77.5964 L 620.9247 78.1853 L 617.5125 81.3516 L 616.2123 82.9673 L 613.0094 83.9769 L 610.7322 84.2654 L 606.9781 85.0758 L 603.1379 85.0037 L 602.4284 83.9642 L 601.8097 81.7926 L 600.8863 80.0035 L 599.4814 78.3675 L 597.9602 79.0922 L 595.3527 79.5838 L 592.3847 80.6436 L 587.977 81.517 L 585.6556 82.3397 L 580.4641 84.5539 L 580.3291 86.0731 L 578.4357 92.2737 L 577.8938 93.3107 L 572.8394 95.8745 L 571.7462 95.8702 L 571.2345 95.1218 L 568.9364 93.5062 L 566.0638 90.9565 L 566.1591 91.9422 L 565.2799 92.2694 L 564.931 93.3787 L 565.9429 94.7774 L 565.9429 96.1807 L 564.2123 96.3423 L 563.7122 96.8485 L 563.7936 98.7034 L 564.531 99.6823 L 564.2053 100.6612 L 565.9568 101.5383 L 565.3264 102.2111 L 567.0453 105.4187 L 565.6916 111.5501 L 564.5751 113.5686 L 564.9683 116.4164 L 564.2844 119.6077 L 564.7612 121.0311 L 565.8521 121.5056 L 565.887 125.0082 L 567.3524 126.416 L 568.4712 126.0223 L 569.7831 124.3879 L 571.9648 125.5131 L 572.8859 125.1837 L 572.9511 124.0201 L 576.5959 123.8361 L 576.4191 122.9765 L 577.1588 122.3222 L 578.7823 122.1939 L 580.3826 120.3129 L 581.4712 120.0907 L 582.6784 119.1889 L 582.9157 117.8089 L 583.739 118.3857 L 584.4229 117.3049 L 583.3646 115.968 L 582.9552 114.1321 L 587.4397 114.1492 L 588.9842 113.8546 L 592.7825 114.4352 L 595.2295 113.8333 L 598.8255 110.8633 L 601.5283 111.5672 L 602.5517 112.5699 L 603.6333 112.698 L 605.1033 114.559 L 606.6338 114.5974 L 609.7646 118.4497 L 607.4712 119.4881 L 606.2058 119.7103 L 604.6614 121.7621 L 603.8496 122.0657 L 604.4218 123.8533 L 607.2758 126.202 L 608.2085 128.2651 L 606.899 130.5731 L 607.3293 131.931 L 606.7408 132.9551 L 609.218 136.0585 L 609.3529 137.7739 L 610.7904 137.9884 L 611.6092 139.7174 L 612.2046 140.0564 L 613.6211 142.1596 L 613.342 143.4005 L 613.9956 144.9681 L 616.7682 146.9789 L 617.145 148.0404 Z" fill="[object Object]" fill-opacity="1" stroke="dodgerblue" stroke-width="1" paint-order="fill" stroke-opacity="1" stroke-dasharray="" stroke-linecap="butt" stroke-miterlimit="10" style="filter: url(&quot;#zr2323-shadow-0&quot;);">
</path>
<path d="M 615.9797 213.5834 L 613.9375 213.6705 L 612.1906 214.4761 L 610.7555 214.3672 L 609.5227 213.6095 L 608.5365 213.8098 L 605.936 215.3776 L 604.0636 216.1008 L 601.9865 217.373 L 601.4701 218.5496 L 597.381 220.773 L 597.0833 221.1349 L 594.0107 221.4009 L 593.7897 222.6395 L 594.3316 223.9656 L 593.8339 225.0522 L 594.5968 226.1477 L 594.2572 227.3656 L 592.0429 228.8807 L 590.3123 228.8764 L 588.9818 231.1216 L 588.098 231.4668 L 587.6118 232.5636 L 586.2418 233.0575 L 583.9437 235.287 L 583.9856 236.0566 L 582.7924 238.0556 L 582.9319 239.0969 L 581.9062 239.5914 L 583.0412 241.0489 L 584.1298 240.8212 L 584.6415 242.8089 L 586.8512 244.7535 L 588.4213 244.99 L 589.7843 246.7864 L 591.4101 246.8039 L 591.552 246.1686 L 593.3035 244.9287 L 595.0039 246.9004 L 596.8158 246.6594 L 597.5601 244.955 L 598.4719 244.2497 L 599.807 244.3723 L 600.4816 245.7304 L 599.8861 246.6637 L 600.4187 248.43 L 601.4631 248.7631 L 602.3726 251.7539 L 604.1729 252.1969 L 604.5195 253.5306 L 603.6798 257.7666 L 604.0357 258.7372 L 606.0174 260.3098 L 606.1709 262.362 L 607.3084 263.4873 L 608.5458 265.9937 L 609.8902 267.5905 L 609.9903 269.1262 L 611.9767 272.2517 L 613.9305 272.4543 L 614.7702 273.7755 L 617.7567 273.9341 L 619.1035 273.6346 L 620.8387 274.8064 L 622.1645 274.9033 L 623.4368 274.3526 L 624.0346 273.3175 L 626.9002 273.4496 L 627.605 274.9121 L 629.0239 274.2601 L 631.0498 273.9958 L 633.5479 271.8775 L 634.7249 271.8246 L 638.7233 274.0354 L 639.428 273.388 L 639.6374 271.9435 L 639.8467 269.7379 L 642.0099 268.2021 L 642.1541 266.7283 L 640.812 265.4835 L 640.1607 264.1512 L 638.8675 264.1996 L 638.2046 262.6873 L 638.2767 260.2 L 637.6184 257.5163 L 636.4019 256.3133 L 634.5109 251.9074 L 632.9618 251.5126 L 633.2828 248.5089 L 633.1711 246.8872 L 632.0826 246.1116 L 632.0174 245.3098 L 630.3799 243.1942 L 629.6217 242.7782 L 630.2892 240.0684 L 630.8823 240.2828 L 630.4474 238.7337 L 628.9146 239.1844 L 626.756 238.5544 L 625.3906 238.7906 L 624.8278 238.34 L 625.7861 237.2769 L 624.5301 236.9751 L 624.3509 235.5494 L 622.6018 236.1441 L 621.0318 234.3995 L 619.7641 234.2027 L 618.3034 234.5874 L 616.7729 233.853 L 616.5542 232.7865 L 615.4052 231.4887 L 615.4703 229.8766 L 616.0727 226.2742 L 614.8423 224.7205 L 614.3654 223.4508 L 615.04 220.943 L 616.924 218.7196 L 617.4776 217.5212 L 615.4982 215.5868 L 616.0704 214.8027 L 615.9797 213.5834 Z" fill="[object Object]" fill-opacity="1" stroke="dodgerblue" stroke-width="1" paint-order="fill" stroke-opacity="1" stroke-dasharray="" stroke-linecap="butt" stroke-miterlimit="10" style="filter: url(&quot;#zr2323-shadow-0&quot;);">
</path>
<path d="M 532.4066 344.6512 L 533.6371 345.285 L 533.8069 346.9725 L 534.6954 348.2451 L 534.828 350.7332 L 537.268 352.3016 L 538.2844 354.8317 L 539.7172 356.2716 L 541.271 357.1035 L 542.2991 360.9741 L 543.469 363.8933 L 544.0063 364.4845 L 546.3835 364.4263 L 548.1885 366.3884 L 550.3284 367.6655 L 551.6216 369.2388 L 553.7546 369.064 L 556.3807 369.2701 L 557.3111 371.3461 L 556.9645 371.974 L 557.8577 373.2434 L 557.9112 374.4054 L 559.772 375.2356 L 561.5816 375.4959 L 562.9121 374.2752 L 563.3889 374.9438 L 562.6678 377.6953 L 563.0028 380.2954 L 562.6702 382.1508 L 563.1726 384.3259 L 562.8725 385.5801 L 559.2998 387.8646 L 558.8927 388.8497 L 559.5789 391.4325 L 560.5861 391.5405 L 561.1234 391.0229 L 566.3638 389.3086 L 567.8757 390.6449 L 569.4597 393.404 L 570.8949 392.7153 L 572.2323 394.1605 L 575.3212 395.3674 L 576.8006 394.6784 L 579.4289 395.4709 L 579.7941 398.9851 L 581.3968 399.2961 L 584.4578 398.7823 L 588.3282 399.8505 L 589.7215 401.55 L 592.7476 401.8295 L 593.7431 402.9479 L 596.9158 401.0631 L 597.1415 401.7032 L 599.0418 401.4688 L 600.3234 403.2681 L 601.0328 403.5341 L 603.4449 401.9332 L 605.1708 402.2308 L 606.4175 403.5522 L 607.0897 405.704 L 608.5923 405.6454 L 610.0647 403.4169 L 611.6627 403.6108 L 613.2536 404.4273 L 614.4143 404.2423 L 616.7868 406.1688 L 617.573 406.2139 L 618.6872 406.3583 L 619.6385 405.8033 L 620.5712 406.4485 L 621.6342 405.3927 L 621.483 404.2017 L 620.7224 404.1341 L 620.3665 403.0606 L 621.2806 399.6791 L 620.9247 396.1106 L 620.3386 395.4845 L 620.9829 394.1785 L 622.9972 394.7324 L 623.5043 393.7688 L 622.6902 392.7018 L 623.4624 391.8465 L 622.125 391.653 L 621.6551 390.6944 L 622.96 389.7585 L 622.318 385.787 L 621.3388 384.8204 L 623.3577 384.8833 L 624.4603 384.2585 L 624.0904 383.2293 L 622.7228 382.9911 L 622.6111 382.3306 L 621.1317 381.4544 L 623.6113 380.7626 L 622.9925 379.7879 L 624.0114 379.4196 L 623.6392 378.4451 L 622.5064 377.8569 L 623.9322 376.766 L 623.7532 375.7292 L 624.5928 374.9932 L 624.209 372.3418 L 624.972 371.974 L 625.6744 370.5569 L 625.2628 369.3598 L 625.3093 366.487 L 624.1718 363.5037 L 622.125 363.3783 L 619.9292 361.2651 L 617.6777 360.8129 L 617.4032 359.2465 L 615.9192 358.4053 L 616.189 355.811 L 616.5914 354.872 L 617.338 355.091 L 617.7265 353.5441 L 616.738 351.886 L 615.133 351.3006 L 615.4284 349.6743 L 614.9027 348.79 L 612.2976 348.3612 L 611.7719 346.9323 L 613.1094 345.0529 L 613.3792 343.3839 L 611.7975 343.9283 L 611.1462 343.1787 L 611.8068 341.8448 L 612.9675 340.8323 L 614.9423 341.421 L 615.3354 340.5647 L 614.1747 339.8423 L 613.563 338.7455 L 612.7512 336.0713 L 610.9532 334.7168 L 608.6086 332.3473 L 607.5898 332.0802 L 606.4803 330.9448 L 605.5499 330.9671 L 606.1895 328.9285 L 603.9519 326.0367 L 602.9215 323.9689 L 601.9702 323.9066 L 601.2212 325.4541 L 599.8396 326.0367 L 598.4091 327.2066 L 597.7066 326.1034 L 597.5159 327.4468 L 595.8924 327.2644 L 595.6505 325.8721 L 594.4549 325.8232 L 594.5689 327.8695 L 592.0591 327.4913 L 591.0101 328.0964 L 589.8355 327.4024 L 588.3585 327.5803 L 586.6745 327.26 L 584.4834 328.9864 L 582.3737 331.2698 L 580.7129 331.2253 L 579.6592 329.8676 L 579.8709 326.8196 L 579.3406 326.0278 L 579.7476 324.4269 L 579.2894 323.3909 L 578.3381 323.2042 L 577.2541 321.8396 L 575.1771 321.7729 L 573.2814 318.7605 L 572.1998 318.7428 L 572.2439 317.2106 L 571.0228 315.4746 L 569.1829 315.1328 L 567.5152 313.646 L 566.7685 314.6623 L 565.5334 314.9241 L 564.4263 316.5934 L 561.6002 315.7631 L 560.5465 313.6948 L 559.2998 313.3442 L 558.4485 313.7968 L 556.5295 313.9389 L 556.8389 314.8132 L 558.6299 315.5145 L 558.6578 318.7561 L 559.665 319.8578 L 560.1069 322.6708 L 561.4723 322.8619 L 562.1352 324.1511 L 561.6932 325.1339 L 559.9604 325.7921 L 558.4578 325.0093 L 556.6389 326.6461 L 555.2433 326.7039 L 554.3082 325.9167 L 551.6216 325.463 L 550.3889 327.002 L 549.6957 325.8321 L 547.5558 323.8133 L 545.9276 323.4398 L 544.1692 321.0664 L 542.0525 321.4041 L 541.3989 322.3818 L 538.0029 323.9111 L 535.8886 324.0444 L 535.9631 324.9783 L 537.2145 326.6372 L 536.2654 328.844 L 537.1028 329.8631 L 536.7027 330.611 L 535.3513 330.838 L 534.1464 330.3706 L 533.009 335.2068 L 531.9716 335.8262 L 531.8228 338.6875 L 533.016 340.4042 L 532.4648 341.537 L 532.4066 344.6512 Z" fill="[object Object]" fill-opacity="1" stroke="dodgerblue" stroke-width="1" paint-order="fill" stroke-opacity="1" stroke-dasharray="" stroke-linecap="butt" stroke-miterlimit="10" style="filter: url(&quot;#zr2323-shadow-0&quot;);">
</path>
<path d="M 535.7514 445.226 L 537.6331 445.2759 L 544.2436 447.1299 L 544.2133 448.0617 L 545.609 448.448 L 547.7582 447.9344 L 548.9166 447.2299 L 548.0652 449.6846 L 552.2869 449.4936 L 553.543 448.1617 L 555.3246 448.2162 L 557.1343 449.0527 L 558.8532 448.7981 L 560.1232 449.6118 L 561.5723 449.2982 L 563.0377 450.0984 L 563.4215 449.4254 L 565.7777 449.5028 L 566.7546 449.1027 L 565.7428 447.0754 L 566.7267 446.3483 L 566.8593 447.5162 L 567.5175 446.7027 L 567.7082 447.7753 L 569.1923 448.5253 L 570.5181 449.7255 L 570.2855 450.826 L 570.7995 451.8675 L 571.2089 450.4758 L 572.016 450.1939 L 573.7256 450.6441 L 575.3864 448.1753 L 576.6703 446.7845 L 579.1824 447.8071 L 581.22 447.6617 L 582.4295 446.8708 L 582.7738 444.9034 L 584.3089 444.2811 L 585.2789 444.699 L 585.7487 443.6224 L 585.4137 441.0658 L 586.1767 439.3364 L 587.2839 439.7857 L 588.2515 439.4589 L 589.7983 439.9627 L 590.7077 440.8933 L 591.9684 440.8752 L 592.9849 441.488 L 594.1828 440.1307 L 594.4898 438.0112 L 595.2993 437.6029 L 595.2876 435.8653 L 596.1296 435.9969 L 596.3878 433.1354 L 598.5324 432.8362 L 600.4258 434.1692 L 602.5168 434.7134 L 602.14 433.888 L 602.6261 432.2967 L 601.9958 431.8344 L 602.9425 430.8372 L 603.6705 431.6939 L 604.8638 431.7573 L 606.0756 430.9188 L 607.2013 429.0066 L 608.5342 428.3406 L 609.7437 428.9568 L 612.2209 428.0145 L 613.3559 428.318 L 612.9233 427.1811 L 613.3629 424.7812 L 615.2516 422.6222 L 616.0402 420.9345 L 615.575 418.2342 L 616.2216 418.0307 L 617.2125 419.9528 L 619.6943 420.0613 L 619.7013 418.605 L 619.1616 416.4167 L 617.994 415.8155 L 618.4685 414.7443 L 617.6544 412.056 L 618.315 409.834 L 617.4776 408.466 L 618.629 408.0462 L 617.6195 407.6174 L 617.573 406.2139 L 616.7868 406.1688 L 614.4143 404.2423 L 613.2536 404.4273 L 611.6627 403.6108 L 610.0647 403.4169 L 608.5923 405.6454 L 607.0897 405.704 L 606.4175 403.5522 L 605.1708 402.2308 L 603.4449 401.9332 L 601.0328 403.5341 L 600.3234 403.2681 L 599.0418 401.4688 L 597.1415 401.7032 L 596.9158 401.0631 L 593.7431 402.9479 L 592.7476 401.8295 L 589.7215 401.55 L 588.3282 399.8505 L 584.4578 398.7823 L 581.3968 399.2961 L 579.7941 398.9851 L 579.4289 395.4709 L 576.8006 394.6784 L 575.3212 395.3674 L 572.2323 394.1605 L 570.8949 392.7153 L 569.4597 393.404 L 567.8757 390.6449 L 566.3638 389.3086 L 561.1234 391.0229 L 560.5861 391.5405 L 561.1327 394.8404 L 560.3093 396.4259 L 557.4343 397.9982 L 555.5689 399.3772 L 554.6827 400.5131 L 553.0684 401.2073 L 551.2193 400.8467 L 550.1446 401.2659 L 547.507 400.6348 L 545.4833 401.1262 L 542.8387 399.6836 L 541.3431 400.4003 L 540.3267 400.166 L 541.1384 403.0696 L 542.4317 402.799 L 543.8435 404.6258 L 544.0436 405.9116 L 542.6084 406.8186 L 539.5428 406.6201 L 536.1305 404.7972 L 535.0303 403.4665 L 534.507 404.0574 L 534.2465 407.2699 L 535.1978 408.7459 L 535.4792 409.9831 L 533.9464 411.4778 L 534.5837 413.5604 L 534.0674 415.1239 L 532.0275 417.3118 L 530.6924 417.7142 L 530.3249 419.4824 L 529.4991 420.4233 L 529.8317 424.0343 L 530.8156 424.7314 L 530.7273 427.6748 L 529.7573 429.0293 L 531.0552 432.5778 L 531.2087 434.3959 L 532.7346 436.5004 L 534.3558 437.3442 L 533.7859 439.9309 L 535.4304 440.8297 L 536.3026 442.6686 L 535.7514 445.226 Z" fill="[object Object]" fill-opacity="1" stroke="dodgerblue" stroke-width="1" paint-order="fill" stroke-opacity="1" stroke-dasharray="" stroke-linecap="butt" stroke-miterlimit="10" style="filter: url(&quot;#zr2323-shadow-0&quot;);">
</path>
<path d="M 566.0638 90.9565 L 562.8399 89.4485 L 560.0185 88.6458 L 557.0505 86.4382 L 555.013 86.7819 L 551.1216 89.5547 L 549.2329 89.5589 L 548.1722 91.9167 L 548.6793 92.7411 L 547.9024 93.7188 L 545.0763 95.7596 L 544.5669 98.6779 L 543.8505 100.1845 L 542.4572 101.8236 L 542.3456 103.4888 L 540.2312 105.9301 L 539.7591 107.7629 L 537.6797 111.0638 L 536.7306 113.5388 L 534.8791 116.0193 L 534.4814 118.2916 L 532.9137 120.6891 L 531.3227 122.3137 L 530.8552 123.417 L 531.0389 124.6061 L 530.697 127.5202 L 530.9296 128.5819 L 530.2597 130.2005 L 528.5222 131.7725 L 529.2689 133.2808 L 528.8618 135.6555 L 529.5294 137.5209 L 531.0831 138.825 L 532.7183 140.962 L 531.9298 141.7518 L 529.5875 141.7948 L 527.5616 142.3614 L 527.0126 143.8042 L 528.0361 146.2441 L 530.0015 146.4718 L 531.0599 147.443 L 531.9181 147.3055 L 532.5857 149.8202 L 533.2556 150.5641 L 532.9835 151.9792 L 533.8418 152.9901 L 533.6533 153.8335 L 536.0398 157.5614 L 535.2001 158.1213 L 536.2468 159.1766 L 537.1772 161.2621 L 537.9937 161.0724 L 538.3867 160.0469 L 539.8242 159.4006 L 542.3991 160.2968 L 543.0178 161.5077 L 542.9038 162.9172 L 543.4202 164.2452 L 544.3762 164.8015 L 544.3204 166.7987 L 546.0137 166.2939 L 546.7231 166.8116 L 547.2906 170.2772 L 548.6188 170.083 L 548.9305 170.8385 L 548.1187 171.3351 L 548.3793 172.2722 L 549.4329 172.1557 L 549.3538 171.1019 L 550.3656 170.437 L 552.1822 171.6287 L 554.3152 171.158 L 556.062 171.8921 L 557.1227 171.3437 L 559.6882 169.3145 L 561.8747 169.4829 L 562.4981 170.8558 L 563.5587 171.2401 L 564.189 173.0324 L 566.8128 173.2614 L 567.4385 172.9374 L 567.7245 170.8471 L 568.641 169.9016 L 569.3969 170.3204 L 571.5113 169.3448 L 572.6534 167.9982 L 572.8557 166.2464 L 574.4583 165.5821 L 575.8935 166.9669 L 576.5401 166.8504 L 577.2867 164.6118 L 579.3894 164.1632 L 580.1081 162.2749 L 580.7478 161.7318 L 581.9713 158.832 L 584.4508 158.1084 L 588.1305 156.3988 L 589.1098 154.3628 L 590.952 153.5323 L 592.0405 153.4892 L 593.485 154.7803 L 593.1733 156.0975 L 595.0294 157.4064 L 597.5741 158.2463 L 598.2672 158.1687 L 600.0652 156.8595 L 605.6267 156.8897 L 606.6036 157.7897 L 608.8575 155.611 L 610.281 156.3644 L 610.4764 155.116 L 613.8095 154.5565 L 614.819 151.8458 L 616.2774 150.4566 L 616.2634 148.8485 L 617.145 148.0404 L 616.7682 146.9789 L 613.9956 144.9681 L 613.342 143.4005 L 613.6211 142.1596 L 612.2046 140.0564 L 611.6092 139.7174 L 610.7904 137.9884 L 609.3529 137.7739 L 609.218 136.0585 L 606.7408 132.9551 L 607.3293 131.931 L 606.899 130.5731 L 608.2085 128.2651 L 607.2758 126.202 L 604.4218 123.8533 L 603.8496 122.0657 L 604.6614 121.7621 L 606.2058 119.7103 L 607.4712 119.4881 L 609.7646 118.4497 L 606.6338 114.5974 L 605.1033 114.559 L 603.6333 112.698 L 602.5517 112.5699 L 601.5283 111.5672 L 598.8255 110.8633 L 595.2295 113.8333 L 592.7825 114.4352 L 588.9842 113.8546 L 587.4397 114.1492 L 582.9552 114.1321 L 583.3646 115.968 L 584.4229 117.3049 L 583.739 118.3857 L 582.9157 117.8089 L 582.6784 119.1889 L 581.4712 120.0907 L 580.3826 120.3129 L 578.7823 122.1939 L 577.1588 122.3222 L 576.4191 122.9765 L 576.5959 123.8361 L 572.9511 124.0201 L 572.8859 125.1837 L 571.9648 125.5131 L 569.7831 124.3879 L 568.4712 126.0223 L 567.3524 126.416 L 565.887 125.0082 L 565.8521 121.5056 L 564.7612 121.0311 L 564.2844 119.6077 L 564.9683 116.4164 L 564.5751 113.5686 L 565.6916 111.5501 L 567.0453 105.4187 L 565.3264 102.2111 L 565.9568 101.5383 L 564.2053 100.6612 L 564.531 99.6823 L 563.7936 98.7034 L 563.7122 96.8485 L 564.2123 96.3423 L 565.9429 96.1807 L 565.9429 94.7774 L 564.931 93.3787 L 565.2799 92.2694 L 566.1591 91.9422 L 566.0638 90.9565 Z" fill="[object Object]" fill-opacity="1" stroke="rgba(30,144,255,1)" stroke-width="1" paint-order="fill" stroke-opacity="1" stroke-dasharray="" stroke-linecap="butt" stroke-miterlimit="10" style="filter: url(&quot;#zr2323-shadow-1&quot;);">
</path>
<path d="M 615.3354 340.5647 L 616.71 339.5792 L 618.3592 339.9538 L 621.3504 337.6088 L 622.7018 337.2923 L 622.3227 336.049 L 622.8716 334.8148 L 622.4506 332.6101 L 623.5578 330.7045 L 624.2858 330.3439 L 625.4163 330.9671 L 625.4349 332.3607 L 625.9768 332.9307 L 627.6003 331.5014 L 628.3819 331.577 L 628.6982 329.8142 L 627.0282 325.4319 L 627.8748 324.538 L 628.8122 322.6486 L 627.5748 321.0886 L 628.5563 319.2225 L 628.4516 318.0188 L 627.4096 317.8234 L 626.8398 316.8864 L 627.6632 314.649 L 627.3329 311.9555 L 627.6446 311.4365 L 630.794 310.3188 L 631.0428 308.749 L 631.929 306.9183 L 633.7154 305.1988 L 633.7386 303.7148 L 634.39 302.3153 L 634.5597 300.1369 L 635.5785 298.6587 L 637.651 297.3489 L 638.4023 293.4791 L 639.5537 292.1927 L 640.5818 291.9452 L 641.1609 290.7521 L 641.3214 288.3753 L 641.775 286.9709 L 642.9985 285.4212 L 646.4107 279.3064 L 645.9874 277.9882 L 646.8317 275.9607 L 647.2923 273.987 L 646.6782 272.3927 L 644.5336 271.6353 L 643.4497 270.7239 L 642.3356 270.8164 L 639.6374 271.9435 L 639.428 273.388 L 638.7233 274.0354 L 634.7249 271.8246 L 633.5479 271.8775 L 631.0498 273.9958 L 629.0239 274.2601 L 627.605 274.9121 L 626.9002 273.4496 L 624.0346 273.3175 L 623.4368 274.3526 L 622.1645 274.9033 L 620.8387 274.8064 L 619.1035 273.6346 L 617.7567 273.9341 L 614.7702 273.7755 L 613.9305 272.4543 L 611.9767 272.2517 L 609.9903 269.1262 L 609.8902 267.5905 L 608.5458 265.9937 L 607.3084 263.4873 L 606.1709 262.362 L 606.0174 260.3098 L 604.0357 258.7372 L 603.6798 257.7666 L 604.5195 253.5306 L 604.1729 252.1969 L 602.3726 251.7539 L 601.4631 248.7631 L 600.4187 248.43 L 599.8861 246.6637 L 600.4816 245.7304 L 599.807 244.3723 L 598.4719 244.2497 L 597.5601 244.955 L 596.8158 246.6594 L 595.0039 246.9004 L 593.3035 244.9287 L 591.552 246.1686 L 591.4101 246.8039 L 589.7843 246.7864 L 588.9493 247.4438 L 587.5025 247.2203 L 586.6628 247.9653 L 587.4257 248.9342 L 585.6208 250.6574 L 584.4764 249.5129 L 582.9226 251.4994 L 581.9527 251.0608 L 580.7548 251.4249 L 579.8011 251.0784 L 578.8801 251.5608 L 576.8611 250.5258 L 576.4261 252.0126 L 575.198 253.0085 L 573.7768 255.1499 L 574.3071 256.2781 L 573.6419 256.9059 L 574.6165 260.0726 L 573.2418 259.2862 L 572.137 259.7431 L 571.4764 261.4391 L 570.4227 261.4566 L 568.7852 264.2742 L 569.2667 265.2109 L 567.5989 266.8734 L 568.3851 269.3902 L 567.6478 270.0637 L 567.4664 271.5473 L 566.201 271.7189 L 566.2289 273.3923 L 565.0496 274.639 L 565.8056 276.3397 L 563.6424 276.9876 L 563.6703 279.0947 L 564.6612 279.4651 L 565.2474 281.3527 L 565.1218 282.835 L 566.0335 284.7061 L 564.4356 285.0592 L 564.2588 286.0702 L 561.7956 285.2446 L 559.9232 286.0172 L 559.8418 288.0837 L 557.4785 288.786 L 556.2946 288.0661 L 555.7968 289.4973 L 553.7639 289.2101 L 553.5173 287.6951 L 551.8403 287.6288 L 551.4868 289.188 L 550.2935 289.4928 L 550.14 290.2483 L 547.9792 291.0216 L 546.7417 292.1795 L 546.5161 294.1246 L 544.2436 298.1188 L 542.106 300.2742 L 540.0824 303.2453 L 539.1218 302.674 L 538.9031 301.1286 L 538.0983 300.9426 L 537.6912 299.7474 L 536.312 299.6014 L 535.2629 300.9515 L 535.0373 302.2798 L 533.3928 303.0903 L 531.5506 302.9042 L 531.1157 304.1356 L 529.4945 304.0381 L 530.2714 305.1191 L 530.3946 306.4086 L 529.727 307.326 L 529.9852 309.4673 L 529.0758 311.645 L 528.4896 314.6978 L 527.5848 315.2526 L 526.1683 318.2054 L 524.3354 319.8489 L 523.2933 319.1248 L 521.4302 320.6798 L 519.7067 321.1864 L 518.4134 322.4663 L 515.4826 323.1464 L 515.4105 324.4179 L 513.7033 324.827 L 513.1567 326.3525 L 510.105 324.6492 L 508.6279 323.5599 L 507.9976 323.8888 L 507.2533 322.3596 L 505.7251 322.9153 L 506.4578 324.1867 L 507.9488 325.5474 L 508.0185 327.1621 L 509.5653 327.3756 L 510.3399 328.0964 L 508.1209 329.9744 L 506.0717 330.4017 L 505.146 331.5592 L 503.9085 331.9199 L 503.4061 333.1266 L 501.5406 333.4206 L 501.1941 334.2313 L 501.2243 336.2985 L 502.3012 337.6043 L 503.7573 338.5939 L 505.2808 338.0723 L 505.7507 336.303 L 506.6183 338.0857 L 506.8137 337.3503 L 508.0674 337.426 L 508.5628 338.1036 L 507.8464 338.848 L 508.2883 340.48 L 509.6677 342.554 L 512.3891 344.6066 L 514.2847 346.8118 L 515.278 347.2002 L 515.7502 346.468 L 515.0291 344.0622 L 517.497 342.9243 L 519.709 342.4961 L 521.1628 343.5044 L 522.87 342.8173 L 524.1679 342.8976 L 523.8702 343.9819 L 525.8589 343.3303 L 529.1758 343.3794 L 531.6251 345.3743 L 532.4066 344.6512 L 532.4648 341.537 L 533.016 340.4042 L 531.8228 338.6875 L 531.9716 335.8262 L 533.009 335.2068 L 534.1464 330.3706 L 535.3513 330.838 L 536.7027 330.611 L 537.1028 329.8631 L 536.2654 328.844 L 537.2145 326.6372 L 535.9631 324.9783 L 535.8886 324.0444 L 538.0029 323.9111 L 541.3989 322.3818 L 542.0525 321.4041 L 544.1692 321.0664 L 545.9276 323.4398 L 547.5558 323.8133 L 549.6957 325.8321 L 550.3889 327.002 L 551.6216 325.463 L 554.3082 325.9167 L 555.2433 326.7039 L 556.6389 326.6461 L 558.4578 325.0093 L 559.9604 325.7921 L 561.6932 325.1339 L 562.1352 324.1511 L 561.4723 322.8619 L 560.1069 322.6708 L 559.665 319.8578 L 558.6578 318.7561 L 558.6299 315.5145 L 556.8389 314.8132 L 556.5295 313.9389 L 558.4485 313.7968 L 559.2998 313.3442 L 560.5465 313.6948 L 561.6002 315.7631 L 564.4263 316.5934 L 565.5334 314.9241 L 566.7685 314.6623 L 567.5152 313.646 L 569.1829 315.1328 L 571.0228 315.4746 L 572.2439 317.2106 L 572.1998 318.7428 L 573.2814 318.7605 L 575.1771 321.7729 L 577.2541 321.8396 L 578.3381 323.2042 L 579.2894 323.3909 L 579.7476 324.4269 L 579.3406 326.0278 L 579.8709 326.8196 L 579.6592 329.8676 L 580.7129 331.2253 L 582.3737 331.2698 L 584.4834 328.9864 L 586.6745 327.26 L 588.3585 327.5803 L 589.8355 327.4024 L 591.0101 328.0964 L 592.0591 327.4913 L 594.5689 327.8695 L 594.4549 325.8232 L 595.6505 325.8721 L 595.8924 327.2644 L 597.5159 327.4468 L 597.7066 326.1034 L 598.4091 327.2066 L 599.8396 326.0367 L 601.2212 325.4541 L 601.9702 323.9066 L 602.9215 323.9689 L 603.9519 326.0367 L 606.1895 328.9285 L 605.5499 330.9671 L 606.4803 330.9448 L 607.5898 332.0802 L 608.6086 332.3473 L 610.9532 334.7168 L 612.7512 336.0713 L 613.563 338.7455 L 614.1747 339.8423 L 615.3354 340.5647 Z" fill="[object Object]" fill-opacity="1" stroke="dodgerblue" stroke-width="1" paint-order="fill" stroke-opacity="1" stroke-dasharray="" stroke-linecap="butt" stroke-miterlimit="10" style="filter: url(&quot;#zr2323-shadow-0&quot;);">
</path>
<path d="M 456.3349 412.5665 L 456.3558 415.0968 L 457.142 416.4663 L 457.1467 417.8272 L 457.791 418.2387 L 458.0561 420.0523 L 456.9699 422.1968 L 456.5326 424.9849 L 455.8139 426.6739 L 453.8926 428.6759 L 452.897 430.7013 L 451.441 435.0081 L 450.9944 435.6522 L 449.5174 441.8059 L 447.0495 444.7535 L 445.4864 447.2253 L 445.6748 450.162 L 444.9236 451.0806 L 444.9445 455.207 L 445.426 455.6394 L 443.9653 459.2042 L 443.2512 462.0103 L 442.5789 462.4796 L 442.5929 464.8633 L 441.5578 466.0441 L 440.118 468.9995 L 439.4481 469.2093 L 439.0272 471.007 L 437.7758 473.7548 L 438.1968 475.8051 L 437.9223 476.851 L 438.6271 480.3192 L 438.4293 484.8275 L 437.7013 487.1974 L 438.0781 488.7854 L 439.818 491.711 L 441.2345 493.03 L 444.1978 493.3461 L 447.2495 494.5876 L 451.5782 493.0484 L 453.974 495 L 454.7346 494.9908 L 458.1445 493.2957 L 460.4263 493.2454 L 463.2594 493.5339 L 465.5505 490.0855 L 467.8393 490.2641 L 469.5791 492.6865 L 471.1259 491.2943 L 472.7634 490.667 L 473.8357 488.8999 L 474.6963 484.5119 L 475.5406 484.489 L 477.0688 486.2136 L 477.7271 486.209 L 480.8927 483.7481 L 482.5559 482.9844 L 485.3331 482.6278 L 486.9567 478.9893 L 487.6126 478.482 L 488.5267 479.2405 L 490.2223 479.4554 L 490.976 480.278 L 491.8528 479.9855 L 492.6786 478.1256 L 494.7627 478.9755 L 497.2375 477.285 L 498.0447 477.8789 L 500.2009 478.4546 L 502.5478 476.7962 L 503.9015 477.6002 L 505.9391 477.3855 L 507.2882 475.9421 L 508.7163 475.7913 L 509.5932 476.4308 L 510.5911 475.1018 L 510.7213 473.6909 L 512.1053 472.7505 L 512.3147 471.2124 L 513.6777 469.6153 L 515.5292 468.6436 L 514.8895 466.076 L 515.8269 466.0532 L 517.1481 464.9727 L 518.6274 464.9271 L 519.1507 464.0565 L 520.1951 464.1339 L 520.879 463.0857 L 522.3885 462.5981 L 522.4374 460.7073 L 522.8654 460.3383 L 525.5635 459.819 L 526.466 460.229 L 527.2429 459.523 L 528.2245 460.1197 L 528.7595 459.3681 L 530.6226 459.564 L 531.4157 460.4294 L 533.7348 460.3702 L 534.6861 461.9784 L 535.9305 461.2449 L 535.6142 458.1933 L 536.2027 455.4937 L 535.9933 453.81 L 534.8233 451.6673 L 534.8536 450.9169 L 536.8167 449.5527 L 536.8679 447.9071 L 535.7514 445.226 L 536.3026 442.6686 L 535.4304 440.8297 L 533.7859 439.9309 L 534.3558 437.3442 L 532.7346 436.5004 L 531.2087 434.3959 L 531.132 435.1895 L 529.8829 437.0992 L 526.7986 437.5075 L 524.6285 436.6909 L 524.4773 434.8948 L 523.9237 434.1329 L 522.6421 434.473 L 523.9633 432.4826 L 523.7004 431.4627 L 524.3145 430.7693 L 524.7331 428.6759 L 527.3871 427.8288 L 527.7127 426.5561 L 524.2284 425.6867 L 524.0191 423.4504 L 525.1216 422.3733 L 523.1305 422.3959 L 519.9835 421.5362 L 517.7412 419.1432 L 515.6292 419.4959 L 515.2082 418.3472 L 514.0103 419.2607 L 511.8355 418.7769 L 511.3773 419.9799 L 511.1377 422.5498 L 510.4492 423.7084 L 510.3655 425.2973 L 509.5932 425.6097 L 508.8745 424.6861 L 506.1508 424.152 L 504.8808 424.7043 L 501.6732 425.243 L 500.9917 424.3376 L 498.3936 425.8361 L 494.8766 426.9094 L 493.5392 425.2838 L 494.2184 424.3557 L 493.2694 422.4909 L 493.3694 420.2106 L 494.5557 420.2197 L 495.186 418.7678 L 494.6347 417.3796 L 495.7908 416.819 L 497.6283 417.2937 L 497.0491 414.5138 L 496.2583 414.2653 L 494.6185 414.8709 L 493.2112 416.6472 L 492.546 416.611 L 491.6458 414.9431 L 489.5036 413.8179 L 489.1012 413.0227 L 488.85 410.5701 L 487.9173 409.7663 L 486.7613 407.2338 L 485.8006 406.6471 L 484.4167 407.1661 L 482.3093 411.2159 L 482.0534 412.2683 L 479.1389 412.7652 L 477.7294 407.4956 L 476.4082 409.0529 L 476.2849 411.6359 L 476.5222 413.8405 L 474.3055 415.8878 L 473.5659 415.8561 L 472.2493 414.5093 L 470.7142 413.836 L 468.3742 413.5423 L 466.1087 412.8826 L 465.4132 412.0334 L 462.0987 413.1221 L 461.8312 412.1599 L 462.7453 410.5339 L 461.6102 410.3127 L 460.5658 408.8994 L 459.0284 409.1703 L 458.4539 410.7371 L 456.3349 412.5665 Z" fill="[object Object]" fill-opacity="1" stroke="dodgerblue" stroke-width="1" paint-order="fill" stroke-opacity="1" stroke-dasharray="" stroke-linecap="butt" stroke-miterlimit="10" style="filter: url(&quot;#zr2323-shadow-0&quot;);">
</path>
<path d="M 528.8618 135.6555 L 527.3476 135.2439 L 526.1078 136.05 L 524.1586 135.0339 L 521.2163 137.2078 L 517.7342 136.0414 L 516.9387 134.9395 L 513.6521 133.3065 L 512.0495 134.0908 L 510.6004 133.2594 L 509.477 133.3579 L 508.8861 132.5952 L 505.9019 131.961 L 503.7364 133.1565 L 502.4803 133.3965 L 502.7292 134.3137 L 503.8108 134.7209 L 503.2223 135.8913 L 502.7618 135.0296 L 501.9895 135.4926 L 502.5176 136.3673 L 502.2175 139.1983 L 501.643 140.6057 L 502.2594 141.945 L 501.857 143.3747 L 499.8287 144.1778 L 498.5168 145.9562 L 498.5122 147.4516 L 497.8888 148.8529 L 497.0724 149.2698 L 494.5022 149.5364 L 493.0438 149.0334 L 489.6827 149.2785 L 488.2266 149.0936 L 486.7868 150.0911 L 485.4075 152.3921 L 485.7285 153.1622 L 487.3079 153.0331 L 487.3265 155.1461 L 487.9754 155.2495 L 488.8407 154.2724 L 489.4501 154.6985 L 488.615 155.9985 L 489.0733 156.8897 L 490.4572 157.8199 L 492.2622 157.7466 L 491.1736 159.0301 L 490.4433 160.9733 L 490.7364 161.7964 L 487.7382 168.4556 L 488.3313 169.6944 L 487.7079 171.6028 L 486.8938 172.1686 L 486.4124 174.7563 L 484.0445 177.194 L 481.0463 177.9161 L 478.911 179.46 L 478.1016 180.7577 L 479.5274 184.168 L 479.8391 186.7705 L 479.6576 188.0485 L 478.7831 188.785 L 479.539 190.6747 L 478.8086 191.8539 L 477.8783 194.5254 L 476.6548 195.3107 L 477.1223 196.8121 L 476.064 198.6874 L 476.585 200.116 L 476.2896 201.8056 L 478.2435 201.9142 L 479.1622 203.4219 L 480.3415 203.7 L 482.8187 201.7708 L 485.6238 200.3287 L 487.1311 199.0868 L 489.8478 198.696 L 490.7712 199.9509 L 491.1923 203.1264 L 492.2925 203.8347 L 492.3995 205.3648 L 493.802 208.3479 L 497.5934 207.6955 L 497.7004 208.8829 L 499.0239 209.8662 L 502.1942 210.0664 L 502.92 210.5407 L 503.1595 212.9216 L 504.1039 214.3454 L 505.9926 216.2401 L 506.1112 213.7314 L 506.9997 213.3177 L 508.5721 214.5981 L 509.3141 214.2366 L 511.6704 212.0727 L 515.6804 210.3275 L 516.8573 208.0608 L 517.5505 207.7737 L 519.1856 209.2353 L 520.2184 212.434 L 517.8784 214.0755 L 518.0598 215.0858 L 521.5326 218.6019 L 521.5419 220.1102 L 520.9581 220.7336 L 521.5442 222.0507 L 521.2814 223.1062 L 523.1282 224.4456 L 523.0328 226.7544 L 524.0842 227.8808 L 524.1493 229.0904 L 520.6603 229.9028 L 520.7627 233.0968 L 521.8931 233.9972 L 522.8235 235.5056 L 524.5378 235.4575 L 524.4331 234.3995 L 525.5845 235.0946 L 525.7845 237.0013 L 527.1382 236.6689 L 528.05 237.9068 L 529.9899 238.8212 L 533.2277 237.6575 L 535.0885 238.5412 L 538.0332 238.8606 L 539.8219 240.7468 L 541.1942 240.099 L 544.1087 241.3597 L 543.9715 240.5542 L 545.2601 240.6199 L 546.0788 240.0947 L 546.9511 237.78 L 546.0788 235.1296 L 544.439 232.9133 L 545.1438 232.1266 L 547.0697 231.6765 L 545.8928 229.9727 L 547.286 228.3873 L 548.9584 228.9026 L 549.7376 228.5969 L 550.8564 229.1646 L 552.0962 230.9512 L 554.3873 231.7552 L 555.8154 230.7634 L 556.5551 231.091 L 557.1854 232.9569 L 559.3789 233.8617 L 560.7256 232.9569 L 560.7372 231.6809 L 562.7515 233.7306 L 562.4841 234.8542 L 563.1005 235.768 L 565.8731 236.061 L 567.3524 234.5569 L 566.9035 233.2104 L 569.1388 233.9667 L 569.7923 233.5645 L 572.7464 233.5252 L 575.2724 232.8827 L 576.6936 230.2872 L 578.2055 228.9463 L 581.4316 227.8677 L 583.2599 226.9596 L 584.7113 225.2747 L 585.0346 226.3615 L 586.386 226.283 L 587.87 224.5503 L 588.3073 223.5425 L 589.9192 223.0844 L 590.6984 222.2905 L 590.7868 221.1086 L 592.7058 220.7118 L 594.0107 221.4009 L 597.0833 221.1349 L 597.381 220.773 L 601.4701 218.5496 L 601.9865 217.373 L 604.0636 216.1008 L 605.936 215.3776 L 608.5365 213.8098 L 609.5227 213.6095 L 610.7555 214.3672 L 612.1906 214.4761 L 613.9375 213.6705 L 615.9797 213.5834 L 616.3286 210.9193 L 618.5127 208.8786 L 618.5894 206.7909 L 619.0523 204.6519 L 620.1107 204.1477 L 621.9575 204.5823 L 623.8369 204.2476 L 624.4626 203.3871 L 624.2579 200.9151 L 625.279 199.9379 L 626.1559 200.6849 L 627.7771 200.0899 L 628.033 198.7698 L 629.2402 196.2696 L 631.2033 196.6212 L 631.0428 193.9355 L 631.9593 192.9206 L 632.0593 191.5764 L 630.9916 190.6053 L 629.1541 189.7254 L 627.8074 187.5243 L 627.7492 185.1378 L 627.3422 182.2375 L 627.8353 180.2862 L 629.4472 180.0871 L 630.7195 178.5085 L 633.6084 175.6595 L 634.3365 174.5187 L 636.067 174.8168 L 636.7415 173.1016 L 637.7533 172.147 L 637.2579 170.2427 L 636.5927 164.5643 L 637.5835 163.4216 L 638.0441 159.2326 L 636.9555 158.2117 L 636.7043 157.2858 L 634.3457 154.6899 L 634.4202 152.6933 L 631.2592 152.8438 L 628.6168 152.3061 L 627.6236 151.4286 L 627.2887 150.3921 L 625.8256 149.2742 L 623.6322 149.4203 L 621.0155 148.2897 L 618.3173 149.0463 L 617.6195 147.8169 L 617.145 148.0404 L 616.2634 148.8485 L 616.2774 150.4566 L 614.819 151.8458 L 613.8095 154.5565 L 610.4764 155.116 L 610.281 156.3644 L 608.8575 155.611 L 606.6036 157.7897 L 605.6267 156.8897 L 600.0652 156.8595 L 598.2672 158.1687 L 597.5741 158.2463 L 595.0294 157.4064 L 593.1733 156.0975 L 593.485 154.7803 L 592.0405 153.4892 L 590.952 153.5323 L 589.1098 154.3628 L 588.1305 156.3988 L 584.4508 158.1084 L 581.9713 158.832 L 580.7478 161.7318 L 580.1081 162.2749 L 579.3894 164.1632 L 577.2867 164.6118 L 576.5401 166.8504 L 575.8935 166.9669 L 574.4583 165.5821 L 572.8557 166.2464 L 572.6534 167.9982 L 571.5113 169.3448 L 569.3969 170.3204 L 568.641 169.9016 L 567.7245 170.8471 L 567.4385 172.9374 L 566.8128 173.2614 L 564.189 173.0324 L 563.5587 171.2401 L 562.4981 170.8558 L 561.8747 169.4829 L 559.6882 169.3145 L 557.1227 171.3437 L 556.062 171.8921 L 554.3152 171.158 L 552.1822 171.6287 L 550.3656 170.437 L 549.3538 171.1019 L 549.4329 172.1557 L 548.3793 172.2722 L 548.1187 171.3351 L 548.9305 170.8385 L 548.6188 170.083 L 547.2906 170.2772 L 546.7231 166.8116 L 546.0137 166.2939 L 544.3204 166.7987 L 544.3762 164.8015 L 543.4202 164.2452 L 542.9038 162.9172 L 543.0178 161.5077 L 542.3991 160.2968 L 539.8242 159.4006 L 538.3867 160.0469 L 537.9937 161.0724 L 537.1772 161.2621 L 536.2468 159.1766 L 535.2001 158.1213 L 536.0398 157.5614 L 533.6533 153.8335 L 533.8418 152.9901 L 532.9835 151.9792 L 533.2556 150.5641 L 532.5857 149.8202 L 531.9181 147.3055 L 531.0599 147.443 L 530.0015 146.4718 L 528.0361 146.2441 L 527.0126 143.8042 L 527.5616 142.3614 L 529.5875 141.7948 L 531.9298 141.7518 L 532.7183 140.962 L 531.0831 138.825 L 529.5294 137.5209 L 528.8618 135.6555 Z" fill="[object Object]" fill-opacity="1" stroke="rgba(30,144,255,1)" stroke-width="1" paint-order="fill" stroke-opacity="1" stroke-dasharray="" stroke-linecap="butt" stroke-miterlimit="10" style="filter: url(&quot;#zr2323-shadow-1&quot;);">
</path>
<path d="M 447.4007 329.4759 L 446.9541 330.3973 L 445.5516 330.7045 L 445.6399 331.3544 L 447.5891 331.8887 L 448.1497 332.6145 L 447.8822 334.0843 L 447.2239 334.8059 L 448.0636 335.2158 L 447.8845 336.704 L 447.0123 338.5181 L 446.2191 339.0932 L 447.5426 339.2225 L 448.48 339.985 L 447.7287 341.4523 L 447.9729 342.1927 L 448.9778 341.0776 L 449.6127 341.8358 L 448.8056 342.9288 L 448.88 344.736 L 447.9101 344.8789 L 446.9937 343.9283 L 446.5378 345.3877 L 448.0334 346.4635 L 449.3778 349.3706 L 450.6687 351.1844 L 452.0248 352.1496 L 451.6527 354.4025 L 452.2644 355.4443 L 452.3784 358.8707 L 450.7525 361.7082 L 451.7736 363.5171 L 451.4991 365.6133 L 450.5478 367.3205 L 450.05 370.3282 L 450.7781 371.5703 L 450.799 376.0254 L 449.7384 377.7761 L 450.0244 379.8552 L 449.3592 382.016 L 449.5406 384.308 L 450.6106 387.0011 L 450.478 388.4268 L 451.7783 391.2839 L 452.1783 393.1835 L 451.8178 394.0524 L 452.9599 395.498 L 453.0273 396.6736 L 452.3691 397.818 L 453.0901 399.3547 L 452.8226 402.3571 L 454.9416 402.6682 L 454.916 405.334 L 455.5533 406.1417 L 456.0162 408.0056 L 455.6162 408.9355 L 456.1627 410.2133 L 456.3349 412.5665 L 458.4539 410.7371 L 459.0284 409.1703 L 460.5658 408.8994 L 461.6102 410.3127 L 462.7453 410.5339 L 461.8312 412.1599 L 462.0987 413.1221 L 465.4132 412.0334 L 466.1087 412.8826 L 468.3742 413.5423 L 470.7142 413.836 L 472.2493 414.5093 L 473.5659 415.8561 L 474.3055 415.8878 L 476.5222 413.8405 L 476.2849 411.6359 L 476.4082 409.0529 L 477.7294 407.4956 L 479.1389 412.7652 L 482.0534 412.2683 L 482.3093 411.2159 L 484.4167 407.1661 L 485.8006 406.6471 L 486.7613 407.2338 L 487.9173 409.7663 L 488.85 410.5701 L 489.1012 413.0227 L 489.5036 413.8179 L 491.6458 414.9431 L 492.546 416.611 L 493.2112 416.6472 L 494.6185 414.8709 L 496.2583 414.2653 L 497.0491 414.5138 L 497.6283 417.2937 L 495.7908 416.819 L 494.6347 417.3796 L 495.186 418.7678 L 494.5557 420.2197 L 493.3694 420.2106 L 493.2694 422.4909 L 494.2184 424.3557 L 493.5392 425.2838 L 494.8766 426.9094 L 498.3936 425.8361 L 500.9917 424.3376 L 501.6732 425.243 L 504.8808 424.7043 L 506.1508 424.152 L 508.8745 424.6861 L 509.5932 425.6097 L 510.3655 425.2973 L 510.4492 423.7084 L 511.1377 422.5498 L 511.3773 419.9799 L 511.8355 418.7769 L 514.0103 419.2607 L 515.2082 418.3472 L 515.6292 419.4959 L 517.7412 419.1432 L 519.9835 421.5362 L 523.1305 422.3959 L 525.1216 422.3733 L 524.0191 423.4504 L 524.2284 425.6867 L 527.7127 426.5561 L 527.3871 427.8288 L 524.7331 428.6759 L 524.3145 430.7693 L 523.7004 431.4627 L 523.9633 432.4826 L 522.6421 434.473 L 523.9237 434.1329 L 524.4773 434.8948 L 524.6285 436.6909 L 526.7986 437.5075 L 529.8829 437.0992 L 531.132 435.1895 L 531.2087 434.3959 L 531.0552 432.5778 L 529.7573 429.0293 L 530.7273 427.6748 L 530.8156 424.7314 L 529.8317 424.0343 L 529.4991 420.4233 L 530.3249 419.4824 L 530.6924 417.7142 L 532.0275 417.3118 L 534.0674 415.1239 L 534.5837 413.5604 L 533.9464 411.4778 L 535.4792 409.9831 L 535.1978 408.7459 L 534.2465 407.2699 L 534.507 404.0574 L 535.0303 403.4665 L 536.1305 404.7972 L 539.5428 406.6201 L 542.6084 406.8186 L 544.0436 405.9116 L 543.8435 404.6258 L 542.4317 402.799 L 541.1384 403.0696 L 540.3267 400.166 L 541.3431 400.4003 L 542.8387 399.6836 L 545.4833 401.1262 L 547.507 400.6348 L 550.1446 401.2659 L 551.2193 400.8467 L 553.0684 401.2073 L 554.6827 400.5131 L 555.5689 399.3772 L 557.4343 397.9982 L 560.3093 396.4259 L 561.1327 394.8404 L 560.5861 391.5405 L 559.5789 391.4325 L 558.8927 388.8497 L 559.2998 387.8646 L 562.8725 385.5801 L 563.1726 384.3259 L 562.6702 382.1508 L 563.0028 380.2954 L 562.6678 377.6953 L 563.3889 374.9438 L 562.9121 374.2752 L 561.5816 375.4959 L 559.772 375.2356 L 557.9112 374.4054 L 557.8577 373.2434 L 556.9645 371.974 L 557.3111 371.3461 L 556.3807 369.2701 L 553.7546 369.064 L 551.6216 369.2388 L 550.3284 367.6655 L 548.1885 366.3884 L 546.3835 364.4263 L 544.0063 364.4845 L 543.469 363.8933 L 542.2991 360.9741 L 541.271 357.1035 L 539.7172 356.2716 L 538.2844 354.8317 L 537.268 352.3016 L 534.828 350.7332 L 534.6954 348.2451 L 533.8069 346.9725 L 533.6371 345.285 L 532.4066 344.6512 L 531.6251 345.3743 L 529.1758 343.3794 L 525.8589 343.3303 L 523.8702 343.9819 L 524.1679 342.8976 L 522.87 342.8173 L 521.1628 343.5044 L 519.709 342.4961 L 517.497 342.9243 L 515.0291 344.0622 L 515.7502 346.468 L 515.278 347.2002 L 514.2847 346.8118 L 512.3891 344.6066 L 509.6677 342.554 L 508.2883 340.48 L 507.8464 338.848 L 508.5628 338.1036 L 508.0674 337.426 L 506.8137 337.3503 L 506.6183 338.0857 L 505.7507 336.303 L 505.2808 338.0723 L 503.7573 338.5939 L 502.3012 337.6043 L 501.2243 336.2985 L 498.5982 338.1392 L 498.1284 339.8334 L 496.3304 339.8869 L 496.4304 340.8769 L 493.7207 340.9795 L 493.8579 339.548 L 492.0692 339.5792 L 491.2877 340.7877 L 490.341 340.2347 L 489.7455 336.1381 L 488.7034 334.6232 L 488.9175 333.7012 L 486.2472 333.2959 L 485.1377 334.0486 L 484.1631 333.9684 L 482.6326 332.6457 L 483.5095 328.8618 L 484.0724 328.528 L 483.3281 327.2155 L 481.2579 327.3578 L 480.088 328.1899 L 479.753 329.4537 L 478.9552 329.516 L 479.1646 327.7583 L 478.4365 327.4202 L 478.6575 328.8663 L 477.4456 329.7118 L 475.643 328.9819 L 475.0778 329.7652 L 473.4612 330.4418 L 473.3798 331.1585 L 470.363 332.3741 L 467.816 331.9778 L 467.0182 331.1051 L 466.4413 329.4269 L 464.2735 328.666 L 463.8711 327.1088 L 460.8659 327.0286 L 460.1681 327.7671 L 460.0821 329.97 L 459.1819 331.4479 L 457.8142 331.2298 L 456.179 332.1915 L 455.3161 331.4167 L 454.2996 332.2671 L 454.0717 331.5859 L 452.1806 330.8959 L 450.5757 331.1006 L 450.1477 330.3528 L 448.5917 330.4818 L 447.4007 329.4759 Z" fill="[object Object]" fill-opacity="1" stroke="dodgerblue" stroke-width="1" paint-order="fill" stroke-opacity="1" stroke-dasharray="" stroke-linecap="butt" stroke-miterlimit="10" style="filter: url(&quot;#zr2323-shadow-0&quot;);">
</path>
<path d="M 550.2935 289.4928 L 549.6144 288.2428 L 548.1629 287.4655 L 549.4003 286.8781 L 548.449 285.0239 L 547.272 284.8385 L 548.363 283.0733 L 548.1676 281.7762 L 546.3044 282.1468 L 545.1298 281.5512 L 544.7669 279.959 L 541.9316 276.873 L 542.0293 274.0839 L 538.9589 272.3662 L 538.1076 271.1069 L 536.6678 270.9925 L 534.4558 271.4591 L 533.8487 270.5523 L 532.3973 270.6843 L 531.2575 271.3227 L 529.1176 269.3507 L 528.385 268.1229 L 527.8965 265.6199 L 522.9421 265.3956 L 522.3327 263.8917 L 520.1533 262.806 L 520.1579 262.1555 L 519.0298 261.149 L 519.0461 260.077 L 516.848 259.4707 L 515.6315 260.5515 L 514.0266 261.0655 L 513.4381 260.7184 L 509.563 261.3732 L 509.356 259.686 L 508.3232 259.0227 L 510.091 257.7754 L 509.6793 255.6855 L 508.2419 253.9694 L 507.8371 251.3634 L 506.702 249.4164 L 507.2998 248.1276 L 506.6508 247.1589 L 507.0928 246.0985 L 508.286 245.4675 L 508.3465 244.7228 L 509.4258 243.9957 L 512.4984 243.5446 L 513.473 242.5243 L 515.9688 241.1977 L 517.4086 239.4951 L 517.3923 238.3181 L 518.8856 237.7012 L 520.0742 238.0075 L 520.451 237.4038 L 522.2234 236.8526 L 522.8235 235.5056 L 521.8931 233.9972 L 520.7627 233.0968 L 520.6603 229.9028 L 524.1493 229.0904 L 524.0842 227.8808 L 523.0328 226.7544 L 523.1282 224.4456 L 521.2814 223.1062 L 521.5442 222.0507 L 520.9581 220.7336 L 521.5419 220.1102 L 521.5326 218.6019 L 518.0598 215.0858 L 517.8784 214.0755 L 520.2184 212.434 L 519.1856 209.2353 L 517.5505 207.7737 L 516.8573 208.0608 L 515.6804 210.3275 L 511.6704 212.0727 L 509.3141 214.2366 L 508.5721 214.5981 L 506.9997 213.3177 L 506.1112 213.7314 L 505.9926 216.2401 L 504.1039 214.3454 L 503.1595 212.9216 L 502.92 210.5407 L 502.1942 210.0664 L 499.0239 209.8662 L 497.7004 208.8829 L 497.5934 207.6955 L 493.802 208.3479 L 492.3995 205.3648 L 492.2925 203.8347 L 491.1923 203.1264 L 490.7712 199.9509 L 489.8478 198.696 L 487.1311 199.0868 L 485.6238 200.3287 L 482.8187 201.7708 L 480.3415 203.7 L 479.1622 203.4219 L 478.2435 201.9142 L 476.2896 201.8056 L 476.585 200.116 L 476.064 198.6874 L 474.4614 200.4895 L 474.5056 202.6528 L 473.4449 203.8087 L 472.6076 206.0169 L 473.4565 208.7785 L 474.7033 209.2223 L 474.1427 210.5711 L 474.0474 213.579 L 472.0842 214.3585 L 472.2563 218.3971 L 470.4583 219.3778 L 469.6187 218.7022 L 468.1068 218.4145 L 467.0764 219.3124 L 466.0761 222.2033 L 465.6133 224.4151 L 463.0035 225.5715 L 461.2334 228.4048 L 459.6378 229.0423 L 457.6258 228.7978 L 456.3489 229.5796 L 455.8394 233.2585 L 455.7999 235.2739 L 455.3161 235.7768 L 453.4786 235.7768 L 452.6179 237.605 L 452.7645 240.3004 L 453.332 241.9288 L 452.297 243.8117 L 452.6668 246.3964 L 452.2713 248.0355 L 452.6319 249.9031 L 453.646 251.6704 L 453.1692 252.5084 L 453.4018 254.044 L 454.7486 255.0886 L 456.9117 256.0674 L 457.9445 258.2409 L 460.2681 262.2565 L 460.8124 264.5425 L 461.8638 265.8266 L 464.8318 267.2342 L 465.9017 268.3297 L 465.6342 269.6808 L 463.8083 270.2134 L 463.1035 270.9308 L 463.2687 271.8819 L 465.0109 273.018 L 466.9577 273.6302 L 468.0696 274.9033 L 467.9183 275.7801 L 466.3297 276.5821 L 466.7902 279.9326 L 468.0044 281.8291 L 466.7274 283.8146 L 466.7367 285.1166 L 466.1064 286.3086 L 466.0436 288.6182 L 465.3272 290.076 L 460.1379 290.9774 L 459.147 294.8719 L 459.7797 296.557 L 462.6499 297.3047 L 462.5918 298.9994 L 461.7754 299.5704 L 462.3825 301.775 L 460.8752 302.1381 L 460.31 303.954 L 456.728 309.3787 L 454.3554 311.9555 L 454.1019 314.0631 L 452.1225 315.8741 L 450.0779 319.0937 L 448.2288 319.3735 L 448.1264 320.582 L 449.5337 321.1153 L 449.0452 321.853 L 447.524 320.9153 L 445.9354 320.7331 L 445.6097 321.5597 L 447.1333 322.9019 L 448.1357 324.8848 L 447.4007 329.4759 L 448.5917 330.4818 L 450.1477 330.3528 L 450.5757 331.1006 L 452.1806 330.8959 L 454.0717 331.5859 L 454.2996 332.2671 L 455.3161 331.4167 L 456.179 332.1915 L 457.8142 331.2298 L 459.1819 331.4479 L 460.0821 329.97 L 460.1681 327.7671 L 460.8659 327.0286 L 463.8711 327.1088 L 464.2735 328.666 L 466.4413 329.4269 L 467.0182 331.1051 L 467.816 331.9778 L 470.363 332.3741 L 473.3798 331.1585 L 473.4612 330.4418 L 475.0778 329.7652 L 475.643 328.9819 L 477.4456 329.7118 L 478.6575 328.8663 L 478.4365 327.4202 L 479.1646 327.7583 L 478.9552 329.516 L 479.753 329.4537 L 480.088 328.1899 L 481.2579 327.3578 L 483.3281 327.2155 L 484.0724 328.528 L 483.5095 328.8618 L 482.6326 332.6457 L 484.1631 333.9684 L 485.1377 334.0486 L 486.2472 333.2959 L 488.9175 333.7012 L 488.7034 334.6232 L 489.7455 336.1381 L 490.341 340.2347 L 491.2877 340.7877 L 492.0692 339.5792 L 493.8579 339.548 L 493.7207 340.9795 L 496.4304 340.8769 L 496.3304 339.8869 L 498.1284 339.8334 L 498.5982 338.1392 L 501.2243 336.2985 L 501.1941 334.2313 L 501.5406 333.4206 L 503.4061 333.1266 L 503.9085 331.9199 L 505.146 331.5592 L 506.0717 330.4017 L 508.1209 329.9744 L 510.3399 328.0964 L 509.5653 327.3756 L 508.0185 327.1621 L 507.9488 325.5474 L 506.4578 324.1867 L 505.7251 322.9153 L 507.2533 322.3596 L 507.9976 323.8888 L 508.6279 323.5599 L 510.105 324.6492 L 513.1567 326.3525 L 513.7033 324.827 L 515.4105 324.4179 L 515.4826 323.1464 L 518.4134 322.4663 L 519.7067 321.1864 L 521.4302 320.6798 L 523.2933 319.1248 L 524.3354 319.8489 L 526.1683 318.2054 L 527.5848 315.2526 L 528.4896 314.6978 L 529.0758 311.645 L 529.9852 309.4673 L 529.727 307.326 L 530.3946 306.4086 L 530.2714 305.1191 L 529.4945 304.0381 L 531.1157 304.1356 L 531.5506 302.9042 L 533.3928 303.0903 L 535.0373 302.2798 L 535.2629 300.9515 L 536.312 299.6014 L 537.6912 299.7474 L 538.0983 300.9426 L 538.9031 301.1286 L 539.1218 302.674 L 540.0824 303.2453 L 542.106 300.2742 L 544.2436 298.1188 L 546.5161 294.1246 L 546.7417 292.1795 L 547.9792 291.0216 L 550.14 290.2483 L 550.2935 289.4928 Z" fill="[object Object]" fill-opacity="1" stroke="dodgerblue" stroke-width="1" paint-order="fill" stroke-opacity="1" stroke-dasharray="" stroke-linecap="butt" stroke-miterlimit="10" style="filter: url(&quot;#zr2323-shadow-0&quot;);">
</path>
<text xml:space="preserve" fill="#bdbdd9" fill-opacity="1" stroke="none" transform="matrix(1,0,0,1,550.6238,255.1046)" dominant-baseline="central" text-anchor="middle" x="0" y="0" style="font: 13 13px sans-serif;">太原市</text>
<text xml:space="preserve" fill="#bdbdd9" fill-opacity="1" stroke="none" transform="matrix(1,0,0,1,617.0054,115.4227)" dominant-baseline="central" text-anchor="middle" x="0" y="0" style="font: 13 13px sans-serif;">大同市</text>
<text xml:space="preserve" fill="#bdbdd9" fill-opacity="1" stroke="none" transform="matrix(1,0,0,1,612.0301,244.2478)" dominant-baseline="central" text-anchor="middle" x="0" y="0" style="font: 13 13px sans-serif;">阳泉市</text>
<text xml:space="preserve" fill="#bdbdd9" fill-opacity="1" stroke="none" transform="matrix(1,0,0,1,578.7486,359.8964)" dominant-baseline="central" text-anchor="middle" x="0" y="0" style="font: 13 13px sans-serif;">长治市</text>
<text xml:space="preserve" fill="#bdbdd9" fill-opacity="1" stroke="none" transform="matrix(1,0,0,1,574.6002,420.588)" dominant-baseline="central" text-anchor="middle" x="0" y="0" style="font: 13 13px sans-serif;">晋城市</text>
<text xml:space="preserve" fill="rgba(189,189,217,1)" fill-opacity="1" stroke="none" transform="matrix(1,0,0,1,572.0788,129.8498)" dominant-baseline="central" text-anchor="middle" x="0" y="0" style="font: 13 13px sans-serif;">朔州市</text>
<text xml:space="preserve" fill="#bdbdd9" fill-opacity="1" stroke="none" transform="matrix(1,0,0,1,574.2432,295.725)" dominant-baseline="central" text-anchor="middle" x="0" y="0" style="font: 13 13px sans-serif;">晋中市</text>
<text xml:space="preserve" fill="#bdbdd9" fill-opacity="1" stroke="none" transform="matrix(1,0,0,1,487.2846,450.8236)" dominant-baseline="central" text-anchor="middle" x="0" y="0" style="font: 13 13px sans-serif;">运城市</text>
<text xml:space="preserve" fill="rgba(189,189,217,1)" fill-opacity="1" stroke="none" transform="matrix(1,0,0,1,557.054,186.6604)" dominant-baseline="central" text-anchor="middle" x="0" y="0" style="font: 13 13px sans-serif;">忻州市</text>
<text xml:space="preserve" fill="#bdbdd9" fill-opacity="1" stroke="none" transform="matrix(1,0,0,1,504.4702,382.2681)" dominant-baseline="central" text-anchor="middle" x="0" y="0" style="font: 13 13px sans-serif;">临汾市</text>
<text xml:space="preserve" fill="#bdbdd9" fill-opacity="1" stroke="none" transform="matrix(1,0,0,1,497.9516,269.8334)" dominant-baseline="central" text-anchor="middle" x="0" y="0" style="font: 13 13px sans-serif;">吕梁市</text>
<defs>
<filter id="zr2323-shadow-0" x="-100%" y="-100%" width="300%" height="300%">
<feDropShadow dx="0" dy="1" flood-color="#000000" stdDeviation="0 0">
</feDropShadow>
</filter>
<filter id="zr2323-shadow-1" x="-100%" y="-100%" width="300%" height="300%">
<feDropShadow dx="0" dy="1" flood-color="rgba(0,0,0,1)" stdDeviation="0 0">
</feDropShadow>
</filter>
</defs>
</g>
</svg>