<svg xmlns="http://www.w3.org/2000/svg" xmlns:xlink="http://www.w3.org/1999/xlink" version="1.1" baseProfile="full" width="1108" height="550" style="user-select: none; position: absolute; left: 0px; top: 0px;">
<g>
<rect width="1108" height="550" x="0" y="0" id="0" style="fill: transparent;">
</rect>
</g>
<g>
<path d="M -21 -5 L 21 -5 L 21 21 L -21 21 L -21 -5" fill="rgba(0,0,0,0)" fill-opacity="1" stroke="#ccc" stroke-width="0" paint-order="fill" stroke-opacity="1" stroke-dasharray="" stroke-linecap="butt" stroke-miterlimit="10" transform="matrix(1,0,0,1,554,5)">
</path>
<text xml:space="preserve" fill="#34471f" fill-opacity="1" stroke="none" transform="matrix(1,0,0,1,554,5)" dominant-baseline="central" text-anchor="middle" x="0" y="8" style="font: 16px &quot;Microsoft YaHei&quot;;">江苏</text>
<path d="M 546.286 323.1895 L 545.9337 320.9539 L 545.0045 320.1129 L 544.4614 319.1128 L 544.317 317.9091 L 542.641 317.5861 L 541.7542 317.9799 L 540.9946 319.0065 L 539.6623 319.0109 L 538.7628 317.9312 L 538.5252 316.7056 L 536.6964 314.5823 L 536.3909 313.6004 L 535.1221 313.6269 L 534.6851 314.476 L 532.712 313.8701 L 533.5224 313.304 L 533.3527 311.6103 L 534.3329 310.642 L 533.7771 310.4254 L 532.4999 310.695 L 532.432 311.292 L 531.736 311.0355 L 531.5578 311.7297 L 530.2976 311.9021 L 529.7333 312.5257 L 529.2793 312.0437 L 528.1081 312.0746 L 528.1506 311.2168 L 527.616 311.0797 L 527.9299 310.3635 L 527.9215 309.0637 L 527.616 308.8914 L 526.4661 309.9788 L 526.203 310.8984 L 524.913 311.0886 L 524.162 310.5625 L 524.2341 309.5456 L 522.8551 308.9179 L 521.7774 309.5456 L 521.5822 310.39 L 520.4704 309.6694 L 520.4195 308.4891 L 518.3531 308.6747 L 518.5695 310.474 L 517.7166 310.474 L 516.1466 309.833 L 515.3616 309.8418 L 514.0632 310.6199 L 513.4438 311.4378 L 512.7478 310.0805 L 511.0803 309.5854 L 510.8003 309.1831 L 508.6405 310.6863 L 508.2034 312.9104 L 508.5302 313.4765 L 509.7861 314.4584 L 510.8682 314.8963 L 511.6149 315.666 L 511.3094 317.0817 L 512.0392 317.3428 L 512.2684 318.1481 L 511.5513 319.2233 L 510.3759 319.3783 L 510.3504 321.2107 L 510.6984 321.7551 L 511.5555 321.8348 L 511.5937 322.3661 L 513.0704 322.6582 L 514.2287 322.3748 L 514.5512 321.764 L 516.4564 322.4368 L 517.6954 322.0694 L 517.95 322.9149 L 517.5299 326.3246 L 517.6657 327.6446 L 517.4281 328.9779 L 516.8934 330.09 L 517.7633 331.6675 L 518.421 331.1845 L 518.2088 332.709 L 518.6586 333.7196 L 517.9712 334.349 L 518.4931 334.544 L 518.3192 335.2623 L 519.1042 335.6878 L 518.7477 336.641 L 517.5723 336.5347 L 517.2923 337.1333 L 518.23 337.7718 L 516.8765 337.8915 L 515.5016 339.0135 L 515.4805 339.9272 L 516.0363 339.9272 L 516.2952 341.0095 L 515.4253 342.975 L 516.0448 343.8403 L 516.6262 344.0089 L 516.0491 346.0193 L 514.2796 348.6339 L 512.9558 349.3843 L 512.4296 349.0913 L 510.8214 349.6906 L 509.5018 349.775 L 509.103 349.3843 L 508.0507 349.9526 L 507.2954 349.6773 L 506.3788 350.4011 L 505.8315 350.0636 L 505.038 350.8275 L 504.13 350.2146 L 503.8753 351.4447 L 503.0522 351.951 L 503.0564 353.1503 L 503.9475 355.9003 L 503.4298 355.5137 L 502.9843 356.5979 L 503.4468 357.5445 L 502.5897 357.629 L 501.3422 358.2244 L 501.3931 358.6467 L 500.5784 359.6557 L 498.9321 360.5225 L 498.3593 361.0648 L 496.2377 361.6562 L 495.3169 363.4837 L 494.6931 363.6749 L 495.3975 364.9202 L 494.7653 366.4592 L 495.9406 367.9184 L 495.0411 368.5858 L 495.1429 370.8553 L 494.8544 371.4872 L 494.0652 371.643 L 494.3112 372.9918 L 493.4796 374.216 L 493.4966 375.5472 L 493.1316 376.8387 L 493.9591 377.3285 L 494.7695 378.3886 L 496.051 378.4688 L 497.0311 379.7339 L 498.8599 380.6159 L 499.7764 381.4267 L 501.2913 381.9348 L 500.8967 383.0176 L 500.8712 384.1139 L 501.5289 384.8894 L 502.6746 385.6116 L 503.7439 385.7542 L 502.3351 390.4226 L 502.0381 392.1442 L 503.5826 392.1442 L 504.1979 393.4245 L 505.1696 393.7904 L 505.946 393.2639 L 506.3831 393.835 L 506.3109 395.0665 L 505.6066 395.1468 L 505.6363 395.7715 L 507.4014 397.1148 L 508.806 395.3788 L 509.0775 395.9143 L 510.4226 395.5618 L 511.0209 394.5845 L 511.6531 394.2767 L 512.3872 394.9951 L 512.9897 394.0492 L 514.0972 394.1696 L 514.6021 395.12 L 514.0972 395.6064 L 514.8864 396.0303 L 515.0264 397.0032 L 516.7873 397.1594 L 517.3644 397.5299 L 517.5511 398.4136 L 518.3319 399.0921 L 517.0504 400.3824 L 516.571 400.3958 L 516.346 401.2306 L 515.0985 402.4988 L 514.4961 402.0701 L 514.216 402.9276 L 514.5724 404.1379 L 514.2414 405.1161 L 515.3192 405.9782 L 516.5286 406.0363 L 517.3814 406.4786 L 518.124 406.1167 L 519.7873 406.1436 L 519.974 407.3543 L 520.6741 406.6708 L 521.2257 406.7511 L 521.4846 404.9731 L 521.9174 404.4238 L 522.1422 402.4854 L 523.08 402.03 L 523.6698 402.3112 L 524.1111 401.7933 L 525.9908 403.4322 L 524.7773 404.4506 L 525.278 405.4288 L 525.7659 407.2694 L 526.2751 408.1586 L 527.1619 408.1809 L 527.5438 407.247 L 528.5494 407.0595 L 530.4928 407.7073 L 531.265 408.9987 L 531.4178 410.1875 L 530.7729 410.6254 L 531.91 411.1394 L 531.6088 412.2972 L 532.2622 413.6339 L 531.7446 414.9619 L 531.6257 416.9699 L 532.5889 417.4127 L 532.3556 420.5575 L 531.3966 423.9273 L 531.0614 425.758 L 531.3287 428.1087 L 529.9327 431.0331 L 529.6484 430.8942 L 528.2949 432.5472 L 526.0842 433.4075 L 524.8961 433.4478 L 523.6146 433.9137 L 523.865 432.6055 L 523.4492 431.499 L 522.6345 431.7856 L 521.964 433.0356 L 521.1578 435.8495 L 520.1013 438.0771 L 519.9867 440.8881 L 518.8411 440.081 L 519.1042 440.6863 L 520.5171 442.1526 L 523.1479 442.61 L 524.4463 444.2247 L 524.6585 446.4273 L 525.7447 447.4817 L 526.5466 447.4682 L 527.5396 446.8132 L 528.4306 447.4728 L 529.1265 446.7773 L 531.3329 446.185 L 532.9624 446.6157 L 534.7742 445.9876 L 535.5125 446.4407 L 539.9933 446.6651 L 540.163 447.3022 L 541.4359 447.042 L 542.2846 446.2569 L 544.8772 447.06 L 545.8998 446.5619 L 546.7654 447.1272 L 547.5164 446.4363 L 549.1458 446.885 L 549.2774 445.3417 L 550.2618 444.2247 L 551.1825 444.117 L 551.8233 442.7805 L 552.5106 442.6863 L 553.1429 440.8881 L 554.5092 440.9733 L 554.8783 440.3142 L 555.9561 439.4175 L 555.7906 438.4536 L 556.181 437.2703 L 557.6703 435.4372 L 557.3734 434.7292 L 556.6477 434.5321 L 556.3295 433.4254 L 555.5572 432.3905 L 554.3479 432.2068 L 553.9788 430.8854 L 553.9788 428.0907 L 553.5969 426.1386 L 552.9477 426.3893 L 551.8402 425.7491 L 551.8827 425.0732 L 552.7143 423.793 L 552.9816 422.2042 L 552.4598 421.8148 L 552.7525 420.8887 L 553.7666 420.8618 L 555.0608 420.1817 L 556.2659 417.7302 L 556.2022 417.1756 L 554.8444 417.4843 L 554.8783 416.3616 L 555.4809 414.9843 L 556.1301 414.9753 L 557.5006 413.1064 L 557.5345 411.5909 L 557.9589 410.6477 L 558.8839 407.3945 L 558.7651 406.8673 L 557.246 407.3275 L 556.6647 405.4199 L 555.3493 405.1653 L 555.7227 404.0888 L 555.2942 402.2934 L 555.5827 401.3468 L 555.2815 400.6324 L 553.109 400.1056 L 551.6705 397.811 L 550.9576 397.6637 L 550.6352 396.4319 L 549.8374 395.9857 L 549.1543 394.8657 L 548.293 394.3927 L 547.9832 393.023 L 547.0709 392.5903 L 547.0157 391.5777 L 546.1586 391.7785 L 545.3948 391.0737 L 543.4302 391.5019 L 542.815 392.1175 L 541.5675 392.2022 L 541.1008 393.2683 L 539.709 393.5227 L 539.866 391.6759 L 541.4063 391.6312 L 541.6693 390.1014 L 541.0456 389.7937 L 540.1588 388.1617 L 538.9495 387.3324 L 538.8773 386.4719 L 539.6496 385.6918 L 541.4402 385.3486 L 543.146 385.2862 L 543.6679 384.5418 L 544.4656 384.4749 L 546.4599 383.0265 L 546.8884 383.49 L 548.1741 383.8688 L 548.7724 383.3295 L 549.3368 381.3778 L 549.9902 380.8387 L 549.5913 379.716 L 549.3834 377.5646 L 549.0609 376.4913 L 546.2987 375.8278 L 545.0809 376.2597 L 544.0243 375.9525 L 543.4133 374.8393 L 543.3963 374.1269 L 544.7287 372.9695 L 546.0907 372.4798 L 546.7612 372.8627 L 548.0001 372.4086 L 548.9719 373.2678 L 549.5829 372.876 L 549.7993 371.8344 L 550.3424 372.0614 L 550.3806 371.3315 L 549.8205 370.9887 L 549.6889 369.756 L 548.9591 369.3066 L 548.1699 369.3867 L 548.59 368.6658 L 548.1911 366.0099 L 547.7328 364.4353 L 548.6324 362.581 L 548.6621 360.6247 L 547.9704 360.7581 L 547.2194 358.98 L 546.4217 358.9222 L 545.5476 359.4956 L 544.9493 358.7356 L 543.2012 358.1133 L 541.8603 358.1133 L 541.8858 357.2334 L 542.8786 356.6068 L 543.5873 354.8162 L 544.1601 353.9721 L 545.607 354.0299 L 544.8135 353.5456 L 546.9351 353.5012 L 547.1346 351.7823 L 547.7541 351.8045 L 550.3594 350.8896 L 551.522 350.3079 L 552.8629 351.0317 L 555.1372 350.6854 L 555.6336 351.1117 L 557.5345 350.5788 L 557.925 349.5263 L 559.4567 347.9991 L 558.502 347.4042 L 554.5855 345.7175 L 552.8119 345.2381 L 551.191 345.0873 L 547.6904 345.4911 L 546.8375 344.7055 L 545.4627 344.4305 L 543.9904 343.6051 L 544.2916 342.4115 L 544.1983 339.1821 L 543.8758 338.6809 L 543.897 336.9958 L 544.3595 336.2066 L 543.3369 335.014 L 543.252 334.3845 L 544.4996 332.9882 L 542.8278 331.9555 L 542.8913 331.4504 L 544.0922 331.3352 L 544.0158 330.604 L 543.2647 330.6572 L 542.5137 329.5539 L 542.4289 328.1495 L 543.4133 326.5727 L 542.8871 325.4168 L 542.9805 323.8271 L 543.9012 324.1945 L 544.7414 323.1407 L 546.286 323.1895 Z M 531.0444 418.2894 L 530.3316 417.9583 L 529.5635 419.2825 L 529.5975 419.8954 L 530.2764 419.7254 L 531.0444 418.2894 Z" fill="[object Object]" fill-opacity="1" stroke="dodgerblue" stroke-width="1" paint-order="fill" stroke-opacity="1" stroke-dasharray="" stroke-linecap="butt" stroke-miterlimit="10" style="filter: url(&quot;#zr2323-shadow-1&quot;);">
</path>
<path d="M 581.4534 454.5648 L 582.4548 455.701 L 583.541 456.4195 L 584.3811 457.6008 L 584.5891 459.1147 L 585.1873 459.6492 L 586.5324 459.5998 L 587.5848 457.5828 L 588.8747 457.3717 L 589.4305 456.9405 L 589.7106 455.6426 L 591.2721 454.4885 L 591.3655 453.8733 L 592.4474 453.6488 L 592.8039 454.4256 L 594.3993 455.2923 L 595.0994 453.7072 L 597.1701 453.1235 L 598.2945 453.3885 L 600.1063 452.5803 L 601.1672 453.6623 L 601.0102 454.8163 L 601.7442 454.8432 L 602.4146 455.6335 L 603.4287 455.0677 L 603.9167 454.3358 L 603.4415 453.8868 L 603.6707 453.146 L 604.5065 453.0966 L 604.8544 453.5905 L 606.7045 453.6353 L 607.5913 454.3942 L 609.2462 453.55 L 610.7398 453.375 L 625.1199 443.9914 L 629.9232 439.4758 L 632.6345 435.7599 L 635.923 433.6987 L 642.1562 429.5417 L 643.688 428.6237 L 648.4531 425.4044 L 649.917 425.3641 L 651.5803 425.6954 L 653.1206 425.3283 L 654.2705 425.4492 L 654.6948 424.4823 L 655.9042 424.4509 L 655.798 423.7886 L 656.3921 423.3902 L 657.3213 423.5199 L 658.764 422.1863 L 658.2549 420.4636 L 658.764 419.439 L 659.7739 418.9559 L 661.6027 417.4261 L 661.8191 418.4727 L 662.5871 417.6587 L 662.0949 415.3152 L 661.7385 412.5386 L 660.9578 411.6177 L 659.6848 411.734 L 659.4005 412.1765 L 658.2167 412.4805 L 657.8475 409.946 L 658.6028 409.5572 L 658.904 410.0891 L 659.6127 409.9282 L 660.4189 408.6948 L 661.5051 408.9629 L 662.1967 408.3954 L 661.5518 407.5955 L 661.8149 406.9566 L 661.3608 406.4384 L 661.8361 405.7102 L 661.556 405.0536 L 660.0115 404.4997 L 659.2053 404.5086 L 659.7866 403.2089 L 659.3411 402.0076 L 659.8842 401.1593 L 661.0087 400.7663 L 662.2095 399.1502 L 661.0214 398.5877 L 660.7668 397.2576 L 662.1501 395.5439 L 661.7597 393.951 L 661.2845 393.7369 L 660.9578 391.7606 L 659.9351 390.5876 L 659.0016 391.3993 L 658.7853 390.5608 L 657.9451 391.2565 L 656.9734 391.1897 L 656.2945 389.3254 L 656.8546 388.4826 L 656.9565 387.154 L 655.6792 385.7765 L 654.8391 385.7542 L 654.7457 384.7067 L 653.9013 382.7725 L 652.2338 381.9348 L 652.0556 380.8921 L 650.7741 380.6917 L 648.9198 380.0412 L 647.2099 379.1369 L 646.4291 379.3463 L 645.4659 378.4554 L 646.3103 377.2751 L 646.2976 376.6338 L 645.1647 375.6764 L 644.6767 373.7218 L 644.8124 370.7261 L 643.4801 371.7543 L 636.6698 375.6631 L 634.6755 376.5625 L 632.3545 376.705 L 630.0377 376.4691 L 626.9784 375.9124 L 621.6956 374.2872 L 618.4836 373.0496 L 617.3676 375.0441 L 617.3464 376.2597 L 618.4836 377.8942 L 617.2021 378.6826 L 616.6251 380.4511 L 617.9065 381.7165 L 617.7877 382.7369 L 617.0366 383.998 L 616.048 384.4304 L 616.8245 385.3619 L 617.0409 387.1138 L 618.246 387.6623 L 618.7 386.7662 L 620.1893 387.7693 L 621.0507 386.6011 L 622.8583 385.1747 L 623.2486 384.6131 L 624.2501 384.359 L 625.663 384.417 L 626.0746 383.9802 L 627.6912 384.0203 L 628.7435 383.1246 L 630.0844 382.8838 L 630.7888 383.8688 L 629.8807 386.0529 L 629.1933 386.6635 L 629.6771 388.2196 L 630.339 388.6655 L 629.9613 389.8562 L 630.8184 391.319 L 631.3446 393.2505 L 632.032 393.5896 L 632.3417 394.6604 L 630.6954 395.0084 L 630.2966 394.1562 L 629.5668 393.8974 L 628.5526 394.3124 L 628.489 395.8652 L 628.9896 398.2217 L 628.5611 398.7083 L 628.6459 399.6546 L 627.7719 400.3377 L 627.5979 401.2172 L 628.2089 401.8156 L 627.6191 402.4542 L 626.5074 401.5923 L 626.1976 405.259 L 625.82 407.0058 L 624.6871 407.2202 L 623.8936 408.2971 L 622.5018 409.4053 L 622.451 410.5897 L 621.1016 412.0961 L 621.0337 413.8127 L 622.0181 414.9127 L 624.1482 415.2883 L 623.9064 415.977 L 624.4791 415.9681 L 624.6064 418.3296 L 624.912 418.9917 L 625.366 418.3744 L 626.5965 419.7254 L 625.0096 422.1192 L 624.7804 423.1754 L 625.1114 424.0795 L 623.5923 424.7643 L 621.3987 426.2057 L 620.9319 426.8236 L 620.1596 429.6537 L 619.7904 432.489 L 619.8244 433.86 L 620.1809 434.4335 L 621.1185 434.7068 L 624.0591 435.0698 L 624.3604 436.7997 L 623.5626 437.091 L 621.3732 436.4187 L 619.9475 435.7375 L 618.5811 433.8151 L 618.3818 431.9962 L 618.8952 429.3715 L 619.6334 427.6743 L 620.2827 422.24 L 620.2275 421.1839 L 619.5274 420.4144 L 617.9829 419.6537 L 617.2064 419.8685 L 616.5741 419.3854 L 616.4935 420.4546 L 614.792 418.6025 L 614.652 416.5762 L 612.8825 415.8294 L 611.9236 414.8859 L 609.0467 415.4896 L 606.3481 415.5388 L 605.283 417.198 L 604.112 417.2606 L 602.228 415.3107 L 601.078 414.8188 L 599.2916 414.7785 L 596.6227 413.8351 L 595.7105 414.4701 L 595.0824 414.3269 L 594.8618 412.5386 L 594.0938 412.485 L 592.9694 409.7137 L 592.0698 409.1819 L 590.9284 409.1819 L 589.5239 410.0936 L 589.7743 411.8993 L 590.084 412.3732 L 589.6427 413.2181 L 588.6583 414.1615 L 587.555 414.3671 L 586.6173 416.299 L 586.0657 416.9565 L 585.3104 419.7433 L 584.0544 419.7254 L 584.1266 421.1661 L 584.6697 422.1371 L 584.5042 423.0501 L 583.9144 423.0859 L 583.9144 423.7974 L 585.6668 423.5602 L 585.9214 423.9273 L 585.6329 425.6641 L 584.7842 427.1862 L 583.1124 426.8639 L 583.0191 429.1028 L 581.7462 429.4521 L 582.0644 431.275 L 581.2879 433.2237 L 581.0715 434.2811 L 581.2963 437.2478 L 580.5029 438.5254 L 580.7787 440.2469 L 581.6486 441.2468 L 581.326 442.6146 L 581.4236 444.4938 L 580.6939 446.1895 L 581.5934 446.7369 L 583.0572 448.3208 L 582.9597 449.1914 L 583.0361 452.5443 L 582.2383 452.9125 L 581.4534 454.5648 Z" fill="[object Object]" fill-opacity="1" stroke="dodgerblue" stroke-width="1" paint-order="fill" stroke-opacity="1" stroke-dasharray="" stroke-linecap="butt" stroke-miterlimit="10" style="filter: url(&quot;#zr2323-shadow-1&quot;);">
</path>
<path d="M 496.4456 124.2944 L 496.1995 125.0778 L 495.4611 125.1471 L 494.3112 126.3071 L 492.2873 126.1166 L 492.2151 125.5712 L 489.8475 125.7227 L 487.5604 125.3981 L 487.4458 126.6361 L 486.7457 126.6491 L 486.5547 127.4023 L 483.9112 127.2985 L 483.0456 128.0042 L 482.2394 127.2768 L 482.0442 129.9787 L 481.0344 130.1563 L 479.9184 129.8272 L 479.4474 128.8485 L 479.1377 129.9484 L 478.4673 129.7535 L 478.9764 126.9954 L 479.108 125.3331 L 479.0231 122.5072 L 476.1632 120.2792 L 475.6285 119.4659 L 476.2905 118.1079 L 478.0557 117.2993 L 478.2551 115.8075 L 479.545 113.3391 L 477.9496 112.6045 L 477.207 112.8378 L 476.2226 112.3495 L 475.9553 111.4204 L 475.2043 112.2112 L 473.1803 111.2692 L 471.5551 110.7592 L 471.814 109.7439 L 473.3584 108.3745 L 474.258 106.2624 L 474.1307 105.5499 L 473.1845 105.036 L 472.7347 104.0258 L 473.3457 102.9032 L 471.9327 102.0788 L 471.466 102.2989 L 469.9257 102.1695 L 469.6626 102.5796 L 467.1465 101.6213 L 466.9597 102.9724 L 466.179 102.9249 L 466.145 102.0572 L 464.8891 101.4918 L 464.9569 100.6502 L 462.8099 99.7958 L 461.9316 99.8044 L 461.0235 101.1768 L 458.7577 100.6373 L 458.2613 103.2228 L 456.5894 103.1623 L 456.356 102.6529 L 455.2613 103.158 L 454.1963 102.9551 L 454.0563 102.4328 L 453.0719 102.9465 L 452.8639 102.3248 L 451.9856 103.0587 L 450.4368 102.9465 L 449.9828 102.4932 L 450.1653 103.9092 L 449.9828 105.1311 L 450.3519 105.511 L 449.8173 109.2168 L 450.055 111.7703 L 450.0719 113.767 L 450.4114 114.2642 L 450.5895 115.9027 L 449.7451 115.8853 L 448.4977 114.8651 L 446.5798 114.4284 L 442.8543 113.1965 L 441.7298 113.0236 L 441.5431 114.8132 L 440.8939 116.1966 L 439.8119 117.6885 L 438.8996 118.5058 L 438.2335 118.069 L 437.5546 118.9512 L 436.0737 118.7523 L 435.5857 120.1278 L 434.7583 121.5727 L 433.061 121.5165 L 432.4203 120.6209 L 431.3977 120.2964 L 430.6764 121.0968 L 428.7626 120.556 L 427.2733 120.5517 L 426.8278 121.1876 L 426.7769 119.6043 L 426.429 119.2108 L 425.2493 119.3405 L 424.1121 117.1609 L 423.115 116.1361 L 423.2041 115.7773 L 422.2451 115.2499 L 422.0754 114.061 L 420.5097 113.0669 L 420.4163 110.7981 L 418.2905 109.3075 L 417.5734 109.9599 L 416.6654 109.3205 L 415.9907 109.5236 L 415.2142 110.4698 L 414.1025 110.3704 L 414.0304 111.1179 L 415.002 110.9407 L 415.159 111.5672 L 414.2765 111.2 L 412.8889 111.8525 L 413.2963 110.5475 L 411.2723 111.3599 L 410.6104 112.0772 L 411.128 112.4791 L 411.8493 112.155 L 412.9187 112.9199 L 412.8635 113.6244 L 411.7136 114.4068 L 410.2497 114.4847 L 410.7886 115.7167 L 410.4576 116.1664 L 410.7249 117.4376 L 409.5878 118.0906 L 410.203 119.8076 L 409.9102 120.5517 L 409.3374 120.1797 L 409.0616 119.1545 L 408.3318 119.9591 L 409.2695 120.5603 L 409.3247 121.6203 L 408.7264 122.7279 L 407.7208 122.3817 L 406.7915 122.7711 L 406.8509 123.1909 L 405.1197 123.6799 L 405.0688 124.3983 L 402.5356 124.381 L 402.0689 122.5201 L 401.8228 119.7168 L 401.0166 117.3943 L 400.5201 115.1071 L 400.6134 113.8924 L 401.4197 111.8179 L 401.1439 110.7117 L 400.0746 109.1174 L 399.3362 107.2428 L 398.6955 104.8763 L 397.8384 102.7781 L 397.2316 102.9206 L 396.1454 103.8617 L 395.5004 103.7753 L 394.6942 101.8975 L 394.6475 100.0806 L 395.4283 98.2165 L 395.8314 97.9879 L 395.2034 96.7972 L 395.3137 96.2538 L 394.6051 95.2143 L 393.2473 93.9508 L 391.6391 91.6656 L 389.6534 91.7604 L 389.2035 91.0664 L 388.3549 91.2216 L 388.2276 90.45 L 387.5572 90.2776 L 387.4002 89.0579 L 386.3266 88.1012 L 386.2885 86.4854 L 387.8415 86.3562 L 388.4058 86.046 L 387.4214 83.0696 L 384.604 83.229 L 384.6973 81.5366 L 384.9731 81.3127 L 388.2319 80.6454 L 387.4851 79.9307 L 385.8429 79.8103 L 385.8472 80.1159 L 384.0948 80.3527 L 384.1075 78.0282 L 382.3508 76.9997 L 380.6154 76.2079 L 379.2533 74.6116 L 376.5377 74.5169 L 376.0625 70.8911 L 375.2986 70.5815 L 375.375 73.7512 L 375.7824 74.6546 L 374.781 74.5987 L 375.1078 73.7039 L 375.0144 70.3665 L 374.0384 69.9021 L 374.0384 71.4459 L 373.4741 71.2308 L 373.7626 72.706 L 374.6282 73.0242 L 374.6834 73.5662 L 373.8772 73.3942 L 373.4401 75.8034 L 372.1841 75.812 L 369.9608 74.9902 L 368.9169 74.8611 L 367.7713 74.0481 L 367.0711 74.1728 L 365.6369 73.5232 L 365.4672 74.1341 L 364.1604 74.1039 L 364.1179 74.5514 L 362.7643 74.1857 L 362.1448 73.3684 L 361.4447 73.4372 L 360.7912 75.1753 L 356.722 76.5349 L 355.6697 76.5263 L 353.9258 77.0728 L 352.3897 76.8576 L 352.2242 77.3568 L 350.7222 77.7399 L 348.8383 77.4084 L 348.0278 77.9335 L 348.0447 78.6179 L 347.3489 79.1818 L 345.223 82.4409 L 345.2485 84.9173 L 345.0618 85.8005 L 344.8623 91.9588 L 342.4692 92.5753 L 342.0279 93.3211 L 342.2359 95.0806 L 341.8836 96.0985 L 342.8893 95.8051 L 344.001 96.5902 L 344.0689 97.2416 L 343.5258 98.1648 L 343.5045 98.976 L 342.9656 99.2305 L 342.9742 100.8573 L 341.9303 102.4888 L 342.397 103.4558 L 343.3051 103.8185 L 344.1198 103.3738 L 346.9245 102.5925 L 347.1027 104.6733 L 348.2187 105.6406 L 350.4591 106.1933 L 350.544 107.3248 L 351.5326 108.828 L 351.4563 110.4006 L 352.9031 111.9951 L 354.1591 112.4143 L 353.7433 113.443 L 354.3883 113.6936 L 355.814 113.4689 L 357.5155 115.4357 L 358.8097 116.5295 L 359.3782 116.6334 L 359.6626 117.7792 L 359.1703 118.415 L 357.7489 118.0258 L 357.3712 118.549 L 357.8592 118.908 L 361.5125 118.9383 L 364.4701 120.5128 L 369.0315 120.5473 L 370.7118 120.993 L 371.8871 121.564 L 372.8758 122.4856 L 373.5547 124.0131 L 373.5123 124.7402 L 375.2181 126.5884 L 376.9832 128.9611 L 378.532 128.9784 L 379.928 128.6624 L 381.1755 127.5669 L 383.1188 127.0387 L 383.9759 127.1686 L 385.8726 128.3246 L 387.6633 129 L 387.031 130.6977 L 387.0523 131.577 L 388.5288 132.0968 L 388.6943 133.3401 L 387.659 135.6236 L 388.1894 137.4612 L 387.693 138.649 L 387.6378 139.5984 L 388.8004 140.9947 L 390.7862 142.3997 L 391.41 142.4389 L 391.5543 143.6663 L 392.0635 143.9829 L 393.4043 143.2152 L 393.731 143.7574 L 393.3746 145.5404 L 393.8413 145.8615 L 393.5528 147.4497 L 393.0309 147.8836 L 392.3138 149.4114 L 391.898 151.2955 L 392.8824 151.3171 L 393.5401 152.9324 L 394.1341 152.5634 L 395.4495 153.4058 L 396.7861 153.51 L 398.0294 155.0475 L 399.3448 155.269 L 399.8072 156.355 L 399.8327 157.9365 L 401.0632 158.3362 L 401.9246 158.2449 L 401.4324 159.7573 L 402.1749 159.692 L 403.7491 160.5265 L 404.5511 161.2654 L 405.6374 161.2785 L 406.0192 160.6656 L 406.9697 161.7261 L 409.4605 161.5522 L 410.9244 160.2396 L 411.739 160.2657 L 412.1973 161.0307 L 413.5297 161.3349 L 414.1365 159.6877 L 415.944 160.0745 L 416.9836 159.3009 L 418.5451 160.9916 L 418.0402 162.0782 L 419.3343 162.5912 L 420.2424 164.0043 L 420.6582 165.1653 L 421.405 165.5827 L 422.9029 165.3392 L 424.7783 164.426 L 426.0301 163.3955 L 427.8165 162.926 L 428.1516 161.9827 L 428.9027 162.0609 L 430.0993 163.0869 L 431.211 164.6478 L 430.9988 166.0134 L 431.1601 166.8223 L 432.0511 167.4574 L 432.9931 169.6848 L 433.5108 169.9198 L 434.4485 169.4194 L 435.1826 168.497 L 436.1203 168.2708 L 436.6041 167.6966 L 436.7144 166.4743 L 436.1161 165.2435 L 436.5828 164.9436 L 437.5927 165.3001 L 438.8063 166.8223 L 440.355 168.3274 L 440.7369 169.5325 L 440.1047 171.347 L 440.8218 172.9922 L 440.8345 174.7508 L 442.1542 176.7232 L 443.1768 179.5063 L 444.0678 180.3688 L 445.99 179.0837 L 446.9659 179.1404 L 447.3393 179.7197 L 447.3818 180.8437 L 446.8683 181.9808 L 446.9108 183.5975 L 446.6901 185.6156 L 446.3931 185.9642 L 446.8726 187.0585 L 446.6095 189.1995 L 446.0664 192.1087 L 445.4808 193.2168 L 444.7722 193.4393 L 444.6788 194.5039 L 445.3196 194.9315 L 445.5699 196.1448 L 446.8853 197.2752 L 447.9715 196.2364 L 448.7947 196.1666 L 449.8046 195.093 L 450.8866 194.7876 L 452.5923 194.7091 L 453.1737 194.9971 L 454.1199 194.805 L 456.5088 195.6386 L 457.0943 196.1579 L 458.1509 196.4067 L 457.8411 195.4814 L 458.0618 194.8399 L 459.2202 194.5694 L 459.3984 194.9752 L 460.8029 195.4771 L 462.0122 194.5868 L 462.131 193.291 L 462.9754 192.0389 L 463.5058 193.4087 L 465.1649 193.3913 L 465.882 193.9062 L 467.0064 193.8145 L 467.0913 194.5345 L 467.9187 194.3556 L 467.7278 193.736 L 469.0432 193.3913 L 470.3034 192.5493 L 470.541 191.8033 L 473.5961 191.9211 L 474.5041 191.7291 L 475.6752 193.2517 L 476.8633 193.7535 L 478.3102 193.4393 L 478.5012 192.4751 L 479.0867 192.0738 L 478.4715 189.7446 L 477.6441 188.7939 L 478.3526 187.5905 L 478.3654 186.3261 L 479.4474 186.7272 L 479.7954 186.0428 L 479.5535 183.9026 L 478.8915 183.907 L 478.7855 181.7848 L 478.323 180.1902 L 477.4107 179.3146 L 476.8761 178.1735 L 476.2566 174.7726 L 475.1024 172.7354 L 474.4744 172.7702 L 474.1858 174.5593 L 473.6088 174.7334 L 473.1463 174.124 L 472.0685 174.0369 L 472.0601 171.7039 L 471.0586 171.6821 L 469.5948 171.0294 L 469.0813 170.059 L 468.1436 169.8153 L 467.732 168.3578 L 468.2242 166.918 L 469.3359 166.8484 L 469.6797 167.2182 L 470.3967 166.1047 L 470.1082 163.3391 L 470.4094 162.7739 L 469.2595 158.8664 L 466.5736 159.7355 L 466.0008 158.9576 L 466.1663 158.0798 L 465.3261 157.5454 L 465.1606 155.7165 L 465.5086 154.0789 L 469.7857 153.193 L 470.4349 152.8195 L 470.1676 152.3636 L 471.0586 150.9655 L 471.8649 151.5213 L 472.2595 152.5677 L 472.9214 153.0453 L 473.3669 154.1311 L 474.712 153.675 L 476.1165 154.4437 L 476.9651 154.3569 L 477.2452 153.1973 L 476.9779 152.2203 L 477.4192 151.9511 L 478.9891 152.433 L 479.7783 151.899 L 481.7515 153.8791 L 481.7345 155.3689 L 482.4304 157.4107 L 483.1729 158.0842 L 487.4501 157.8539 L 487.6834 157.137 L 488.7187 156.746 L 493.0723 156.2203 L 494.5362 156.3724 L 497.9773 157.2457 L 498.4229 157.6019 L 499.6831 157.4498 L 501.0961 158.397 L 502.072 158.1102 L 502.6236 157.4411 L 504.724 156.3463 L 503.6293 155.7816 L 503.6632 154.3656 L 504.1173 153.1973 L 503.7905 152.2117 L 504.8386 151.2 L 507.9361 151.5169 L 507.8979 149.2638 L 508.9417 144.6511 L 508.335 144.3257 L 508.004 143.1978 L 508.441 140.5567 L 509.0223 140.1318 L 508.7889 138.0595 L 510.4438 137.1448 L 512.7649 137.3745 L 513.4183 137.1231 L 513.5838 135.8923 L 513.3462 134.2066 L 512.6078 133.808 L 513.4522 133.444 L 513.6093 132.4043 L 514.2924 132.0058 L 514.3306 129.524 L 515.0646 129.5587 L 516.537 127.8007 L 516.1679 125.9305 L 515.2386 125.792 L 514.6361 125.173 L 514.4579 123.8876 L 513.5541 123.8443 L 511.5428 123.1433 L 510.779 123.2947 L 510.2232 124.2468 L 509.8583 125.9088 L 509.0266 126.1945 L 508.8399 125.5626 L 507.0196 124.5584 L 505.8272 124.2944 L 505.2162 123.8227 L 503.6674 124.7748 L 502.6151 125.8179 L 502.6067 126.2422 L 500.5445 127.1816 L 499.8189 126.675 L 498.4483 126.5365 L 497.4979 125.5279 L 496.976 125.8309 L 496.4456 124.2944 Z" fill="[object Object]" fill-opacity="1" stroke="dodgerblue" stroke-width="1" paint-order="fill" stroke-opacity="1" stroke-dasharray="" stroke-linecap="butt" stroke-miterlimit="10" style="filter: url(&quot;#zr2323-shadow-1&quot;);">
</path>
<path d="M 618.4836 373.0496 L 618.0168 372.7781 L 615.2842 369.9963 L 614.9363 369.1063 L 613.1372 369.5647 L 610.7185 369.4312 L 609.6747 368.252 L 608.9237 365.7519 L 608.5375 365.147 L 607.9987 365.8408 L 607.6126 365.5473 L 606.9294 363.9417 L 606.1996 364.6044 L 604.9818 363.7683 L 603.8616 364.5688 L 603.3481 364.173 L 602.0285 364.1463 L 601.3878 364.8579 L 599.9621 368.3633 L 600.518 368.5591 L 599.8263 371.1667 L 600.0173 371.4026 L 599.2195 374.9106 L 599.9408 375.3825 L 600.8701 377.1682 L 600.4501 377.9298 L 598.6806 377.195 L 598.617 377.7517 L 600.2888 378.4821 L 600.1912 379.716 L 599.5378 379.7962 L 598.2818 381.8634 L 598.9522 382.6432 L 598.8971 384.2253 L 599.3935 385.1613 L 600.327 384.7111 L 602.5589 384.6978 L 601.7061 386.6011 L 600.938 387.2833 L 600.5689 388.2731 L 600.9465 389.2586 L 598.9437 389.1426 L 598.443 391.3503 L 597.7938 391.9435 L 596.8518 393.7814 L 596.733 395.6332 L 597.1319 396.9006 L 595.9141 396.722 L 594.7345 396.2177 L 594.6157 395.2895 L 593.6015 394.2989 L 593.2154 393.0454 L 590.8223 392.6215 L 590.3895 392.2111 L 589.9227 390.4092 L 588.7855 389.8428 L 587.6824 390.3467 L 586.978 389.3433 L 586.9356 387.7381 L 586.3457 387.154 L 585.7475 387.2432 L 585.9511 386.4006 L 585.5607 385.1791 L 584.7885 385.0856 L 584.2836 384.4615 L 583.5155 384.31 L 583.227 383.6593 L 582.7688 384.2699 L 579.6076 384.7335 L 576.6289 382.7369 L 576.2597 381.7743 L 575.1183 381.351 L 574.2654 382.26 L 573.1834 382.7369 L 572.9034 384.7111 L 573.3574 384.6398 L 573.8496 385.8924 L 574.7067 387.047 L 573.9217 387.3591 L 573.6459 386.7037 L 573.1155 386.9979 L 571.7365 386.726 L 570.4465 385.2594 L 569.3433 385.344 L 568.7153 384.1184 L 567.0478 383.9579 L 566.0973 385.3486 L 566.3349 386.298 L 565.3802 387.3992 L 564.9092 388.5674 L 564.9686 390.3021 L 565.3845 390.2576 L 564.9771 392.2468 L 564.4255 392.3271 L 564.2176 393.2505 L 564.294 396.7131 L 565.5033 396.7934 L 566.2161 397.2889 L 565.499 398.4761 L 565.4608 399.2707 L 566.0336 399.6367 L 565.1171 402.9632 L 563.8611 404.6024 L 562.567 405.8085 L 560.7212 406.8762 L 559.1003 407.5821 L 558.8839 407.3945 L 557.9589 410.6477 L 557.5345 411.5909 L 557.5006 413.1064 L 556.1301 414.9753 L 555.4809 414.9843 L 554.8783 416.3616 L 554.8444 417.4843 L 556.2022 417.1756 L 556.2659 417.7302 L 555.0608 420.1817 L 553.7666 420.8618 L 552.7525 420.8887 L 552.4598 421.8148 L 552.9816 422.2042 L 552.7143 423.793 L 551.8827 425.0732 L 551.8402 425.7491 L 552.9477 426.3893 L 553.5969 426.1386 L 553.9788 428.0907 L 553.9788 430.8854 L 554.3479 432.2068 L 555.5572 432.3905 L 556.3295 433.4254 L 556.6477 434.5321 L 557.3734 434.7292 L 557.6703 435.4372 L 556.181 437.2703 L 555.7906 438.4536 L 555.9561 439.4175 L 554.8783 440.3142 L 556.2659 441.0092 L 556.0919 443.0316 L 556.6266 443.821 L 557.4624 442.9733 L 557.6789 443.9107 L 559.0494 444.4624 L 559.2233 444.9334 L 560.0848 444.7002 L 560.0677 444.1933 L 560.9503 444.2606 L 561.3704 445.3596 L 563.475 444.0677 L 564.9898 443.8165 L 566.3816 443.978 L 566.7041 444.5072 L 567.3406 443.4891 L 567.663 442.2872 L 567.6588 440.2603 L 568.1468 440.0317 L 569.0039 441.4755 L 569.2797 443.2245 L 569.8907 443.4487 L 569.1991 446.1536 L 568.796 447.1497 L 568.4098 449.2184 L 568.8384 450.8521 L 569.2627 450.6725 L 569.8525 451.5299 L 571.0406 450.4839 L 571.8553 451.1707 L 571.0746 451.1123 L 570.6205 451.6196 L 570.7606 453.0113 L 571.4734 452.5848 L 572.5936 453.1684 L 573.2004 452.2706 L 574.363 452.7554 L 575.568 453.9811 L 576.0093 454.8387 L 577.1592 454.5828 L 577.6642 455.2294 L 577.8976 454.3133 L 578.5722 454.0709 L 580.0743 454.8702 L 581.4534 454.5648 L 582.2383 452.9125 L 583.0361 452.5443 L 582.9597 449.1914 L 583.0572 448.3208 L 581.5934 446.7369 L 580.6939 446.1895 L 581.4236 444.4938 L 581.326 442.6146 L 581.6486 441.2468 L 580.7787 440.2469 L 580.5029 438.5254 L 581.2963 437.2478 L 581.0715 434.2811 L 581.2879 433.2237 L 582.0644 431.275 L 581.7462 429.4521 L 583.0191 429.1028 L 583.1124 426.8639 L 584.7842 427.1862 L 585.6329 425.6641 L 585.9214 423.9273 L 585.6668 423.5602 L 583.9144 423.7974 L 583.9144 423.0859 L 584.5042 423.0501 L 584.6697 422.1371 L 584.1266 421.1661 L 584.0544 419.7254 L 585.3104 419.7433 L 586.0657 416.9565 L 586.6173 416.299 L 587.555 414.3671 L 588.6583 414.1615 L 589.6427 413.2181 L 590.084 412.3732 L 589.7743 411.8993 L 589.5239 410.0936 L 590.9284 409.1819 L 592.0698 409.1819 L 592.9694 409.7137 L 594.0938 412.485 L 594.8618 412.5386 L 595.0824 414.3269 L 595.7105 414.4701 L 596.6227 413.8351 L 599.2916 414.7785 L 601.078 414.8188 L 602.228 415.3107 L 604.112 417.2606 L 605.283 417.198 L 606.3481 415.5388 L 609.0467 415.4896 L 611.9236 414.8859 L 612.8825 415.8294 L 614.652 416.5762 L 614.792 418.6025 L 616.4935 420.4546 L 616.5741 419.3854 L 617.2064 419.8685 L 617.9829 419.6537 L 619.5274 420.4144 L 620.2275 421.1839 L 620.2827 422.24 L 619.6334 427.6743 L 618.8952 429.3715 L 618.3818 431.9962 L 618.5811 433.8151 L 619.9475 435.7375 L 621.3732 436.4187 L 623.5626 437.091 L 624.3604 436.7997 L 624.0591 435.0698 L 621.1185 434.7068 L 620.1809 434.4335 L 619.8244 433.86 L 619.7904 432.489 L 620.1596 429.6537 L 620.9319 426.8236 L 621.3987 426.2057 L 623.5923 424.7643 L 625.1114 424.0795 L 624.7804 423.1754 L 625.0096 422.1192 L 626.5965 419.7254 L 625.366 418.3744 L 624.912 418.9917 L 624.6064 418.3296 L 624.4791 415.9681 L 623.9064 415.977 L 624.1482 415.2883 L 622.0181 414.9127 L 621.0337 413.8127 L 621.1016 412.0961 L 622.451 410.5897 L 622.5018 409.4053 L 623.8936 408.2971 L 624.6871 407.2202 L 625.82 407.0058 L 626.1976 405.259 L 626.5074 401.5923 L 627.6191 402.4542 L 628.2089 401.8156 L 627.5979 401.2172 L 627.7719 400.3377 L 628.6459 399.6546 L 628.5611 398.7083 L 628.9896 398.2217 L 628.489 395.8652 L 628.5526 394.3124 L 629.5668 393.8974 L 630.2966 394.1562 L 630.6954 395.0084 L 632.3417 394.6604 L 632.032 393.5896 L 631.3446 393.2505 L 630.8184 391.319 L 629.9613 389.8562 L 630.339 388.6655 L 629.6771 388.2196 L 629.1933 386.6635 L 629.8807 386.0529 L 630.7888 383.8688 L 630.0844 382.8838 L 628.7435 383.1246 L 627.6912 384.0203 L 626.0746 383.9802 L 625.663 384.417 L 624.2501 384.359 L 623.2486 384.6131 L 622.8583 385.1747 L 621.0507 386.6011 L 620.1893 387.7693 L 618.7 386.7662 L 618.246 387.6623 L 617.0409 387.1138 L 616.8245 385.3619 L 616.048 384.4304 L 617.0366 383.998 L 617.7877 382.7369 L 617.9065 381.7165 L 616.6251 380.4511 L 617.2021 378.6826 L 618.4836 377.8942 L 617.3464 376.2597 L 617.3676 375.0441 L 618.4836 373.0496 Z" fill="[object Object]" fill-opacity="1" stroke="dodgerblue" stroke-width="1" paint-order="fill" stroke-opacity="1" stroke-dasharray="" stroke-linecap="butt" stroke-miterlimit="10" style="filter: url(&quot;#zr2323-shadow-1&quot;);">
</path>
<path d="M 610.7398 453.375 L 610.8203 454.3537 L 612.0085 455.8312 L 612.7256 459.8964 L 614.5034 463.1137 L 615.9207 464.633 L 616.9178 467.87 L 618.0762 468.8098 L 620.7537 470.024 L 624.6489 474.1087 L 625.1835 475.0491 L 627.0039 476.4623 L 628.1028 476.9078 L 633.5553 477.9745 L 635.7448 478.0375 L 640.0813 477.4299 L 642.7588 476.6513 L 644.8464 475.7692 L 643.9638 477.4659 L 644.21 478.5012 L 643.7729 479.7888 L 644.0148 481.4097 L 643.8535 481.9861 L 644.3584 482.6526 L 644.944 482.4814 L 645.4744 481.6123 L 646.6286 481.6123 L 648.8053 480.374 L 648.3895 478.1051 L 648.801 477.9161 L 649.6752 478.5868 L 650.2268 480.6217 L 649.777 480.9909 L 650.0188 482.1752 L 650.9863 483.9181 L 650.1504 485.0893 L 651.1475 485.7604 L 651.5973 486.7471 L 651.6398 487.9141 L 651.2069 489.0677 L 652.866 490.7623 L 652.849 492.2181 L 653.791 494.4498 L 654.924 495 L 655.9677 493.4625 L 659.4132 487.1841 L 660.7031 486.1614 L 661.3142 485.2784 L 662.3749 485.8325 L 663.3212 485.765 L 664.1316 485.1118 L 665.4894 485.1838 L 666.3381 485.9766 L 666.5885 484.1839 L 666.9194 484.5802 L 667.7171 483.1299 L 668.4087 482.4409 L 669.703 483.9271 L 670.0339 483.4092 L 669.9023 482.2923 L 670.7128 482.1887 L 670.454 479.9239 L 670.6704 478.6993 L 670.4243 477.3399 L 669.5247 475.6072 L 668.536 475.1211 L 669.5756 473.5463 L 670.1272 473.9827 L 670.4709 473.4338 L 671.6463 473.4743 L 672.4398 474.2617 L 673.1823 474.3832 L 674.2983 473.0783 L 675.0154 472.8129 L 674.9984 470.9416 L 677.4891 470.06 L 678.8512 469.9611 L 680.2981 470.8246 L 680.854 471.6523 L 681.3293 471.288 L 682.233 471.6298 L 682.4155 471.0721 L 684.1764 470.2264 L 684.4649 468.8547 L 684.9317 468.8412 L 684.9783 466.8088 L 684.4183 465.1724 L 684.9911 461.9678 L 684.24 461.1094 L 682.53 460.8039 L 681.5626 460.2378 L 681.6475 459.6627 L 682.6064 458.5351 L 682.738 457.785 L 683.4169 457.0214 L 685.2372 457.0752 L 687.1254 456.3476 L 691.1734 457.3268 L 693.7872 457.0842 L 694.3303 456.4151 L 695.5523 456.6037 L 695.5269 455.4989 L 697.1181 455.1665 L 697.36 455.6246 L 698.2129 454.6322 L 698.094 453.119 L 697.1266 447.9573 L 697.2538 445.7903 L 696.9993 445.7544 L 697.1732 443.5968 L 698.4716 443.3725 L 698.7942 441.6101 L 699.2057 441.1795 L 699.8592 442.7581 L 700.3641 443.0182 L 701.0854 441.8477 L 701.4885 441.758 L 703.2028 442.8343 L 704.0514 442.7087 L 704.5861 441.9777 L 703.8265 441.1751 L 703.2622 439.3861 L 702.9482 440.0631 L 702.2142 440.0989 L 702.0105 438.4178 L 702.4687 437.7857 L 702.2523 435.9078 L 701.3103 435.984 L 701.2552 435.1504 L 700.5806 435.258 L 700.6527 433.842 L 701.4801 433.4388 L 700.9921 432.8564 L 703.6144 431.7543 L 703.2622 431.0555 L 704.3994 429.264 L 703.4489 428.158 L 704.8109 427.5399 L 704.6922 427.034 L 703.4956 426.5281 L 703.5296 425.8521 L 704.5564 425.2746 L 705.6172 425.3149 L 706.4573 424.8046 L 706.4573 424.151 L 708.5959 422.3072 L 708.9523 422.701 L 709.8052 422.4772 L 710.1361 420.9379 L 710.6029 420.8394 L 711.0697 422.513 L 712.1559 422.334 L 712.716 421.4659 L 714.9649 421.0586 L 715.0667 420.2264 L 715.8517 419.6045 L 716.5773 420.2309 L 718.3594 418.9872 L 720.5319 414.8367 L 718.5164 412.9767 L 714.2478 408.4803 L 703.3768 394.6069 L 701.3485 394.0848 L 700.0417 393.7369 L 698.2001 392.2781 L 696.9738 391.6669 L 689.3277 391.6714 L 687.3163 391.3012 L 686.0901 390.6009 L 683.6078 386.4629 L 681.8299 382.5987 L 681.3123 381.0258 L 677.5061 370.9666 L 676.5217 369.9919 L 675.9107 368.1897 L 674.3662 367.7404 L 669.8981 368.4522 L 666.1302 369.5603 L 664.2971 369.6848 L 661.2633 368.8216 L 658.607 367.6692 L 656.4515 366.7305 L 654.8773 365.6674 L 651.9919 365.1826 L 647.3117 368.1676 L 646.1109 369.1286 L 644.8124 370.7261 L 644.6767 373.7218 L 645.1647 375.6764 L 646.2976 376.6338 L 646.3103 377.2751 L 645.4659 378.4554 L 646.4291 379.3463 L 647.2099 379.1369 L 648.9198 380.0412 L 650.7741 380.6917 L 652.0556 380.8921 L 652.2338 381.9348 L 653.9013 382.7725 L 654.7457 384.7067 L 654.8391 385.7542 L 655.6792 385.7765 L 656.9565 387.154 L 656.8546 388.4826 L 656.2945 389.3254 L 656.9734 391.1897 L 657.9451 391.2565 L 658.7853 390.5608 L 659.0016 391.3993 L 659.9351 390.5876 L 660.9578 391.7606 L 661.2845 393.7369 L 661.7597 393.951 L 662.1501 395.5439 L 660.7668 397.2576 L 661.0214 398.5877 L 662.2095 399.1502 L 661.0087 400.7663 L 659.8842 401.1593 L 659.3411 402.0076 L 659.7866 403.2089 L 659.2053 404.5086 L 660.0115 404.4997 L 661.556 405.0536 L 661.8361 405.7102 L 661.3608 406.4384 L 661.8149 406.9566 L 661.5518 407.5955 L 662.1967 408.3954 L 661.5051 408.9629 L 660.4189 408.6948 L 659.6127 409.9282 L 658.904 410.0891 L 658.6028 409.5572 L 657.8475 409.946 L 658.2167 412.4805 L 659.4005 412.1765 L 659.6848 411.734 L 660.9578 411.6177 L 661.7385 412.5386 L 662.0949 415.3152 L 662.5871 417.6587 L 661.8191 418.4727 L 661.6027 417.4261 L 659.7739 418.9559 L 658.764 419.439 L 658.2549 420.4636 L 658.764 422.1863 L 657.3213 423.5199 L 656.3921 423.3902 L 655.798 423.7886 L 655.9042 424.4509 L 654.6948 424.4823 L 654.2705 425.4492 L 653.1206 425.3283 L 651.5803 425.6954 L 649.917 425.3641 L 648.4531 425.4044 L 643.688 428.6237 L 642.1562 429.5417 L 635.923 433.6987 L 632.6345 435.7599 L 629.9232 439.4758 L 625.1199 443.9914 L 610.7398 453.375 Z" fill="[object Object]" fill-opacity="1" stroke="dodgerblue" stroke-width="1" paint-order="fill" stroke-opacity="1" stroke-dasharray="" stroke-linecap="butt" stroke-miterlimit="10" style="filter: url(&quot;#zr2323-shadow-1&quot;);">
</path>
<path d="M 632.083 309.2273 L 632.4861 310.1689 L 633.7674 311.1505 L 634.2215 310.6464 L 636.1224 309.5589 L 636.6613 311.8536 L 636.6189 313.1493 L 637.2087 314.4893 L 636.725 317.9312 L 637.2087 319.2189 L 636.3176 319.5066 L 637.3063 322.1934 L 637.5906 325.5585 L 638.0064 326.3556 L 637.9513 327.3168 L 638.6514 330.994 L 638.2992 331.508 L 638.9102 332.5495 L 639.6612 332.2525 L 640.2341 333.3561 L 641.21 332.6602 L 643.374 331.7073 L 643.4291 332.6114 L 643.9851 333.7151 L 642.9625 335.1248 L 643.4843 335.9361 L 643.5692 337.0445 L 644.4009 338.672 L 643.4249 339.1111 L 643.4291 341.7105 L 643.0388 342.935 L 643.3146 343.9955 L 642.9412 344.608 L 643.7814 345.7352 L 644.3542 345.8284 L 644.8846 347.8703 L 642.7375 352.6573 L 643.0558 354.6251 L 643.3273 354.7318 L 643.7177 356.6201 L 645.0925 356.8912 L 646.1151 356.7268 L 648.3173 357.2156 L 649.6879 357.3089 L 650.1122 357.7178 L 653.2479 359.4245 L 653.5873 359.8068 L 655.5604 360.5536 L 655.9848 363.1591 L 656.8121 364.1108 L 658.4076 364.6667 L 658.2124 365.6629 L 659.0144 366.4014 L 658.607 367.6692 L 661.2633 368.8216 L 664.2971 369.6848 L 666.1302 369.5603 L 669.8981 368.4522 L 674.3662 367.7404 L 675.9107 368.1897 L 676.5217 369.9919 L 677.5061 370.9666 L 681.3123 381.0258 L 681.8299 382.5987 L 683.6078 386.4629 L 686.0901 390.6009 L 687.3163 391.3012 L 689.3277 391.6714 L 696.9738 391.6669 L 698.2001 392.2781 L 700.0417 393.7369 L 701.3485 394.0848 L 703.6738 391.2432 L 706.1136 387.903 L 707.5351 386.4184 L 709.4233 385.2192 L 712.4699 383.4988 L 715.2152 382.6299 L 716.8149 383.0532 L 720.3113 385.5982 L 721.4994 386.5789 L 723.8628 390.1995 L 723.4555 390.4047 L 724.2108 392.0193 L 725.0127 393.0587 L 726.833 394.058 L 729.2644 394.656 L 730.0833 394.6738 L 731.178 395.6376 L 733.1724 396.4632 L 735.1072 398.3556 L 737.7253 399.7261 L 737.8186 399.3377 L 740.2669 400.427 L 740.9755 400.2975 L 746.4662 402.6775 L 754.2185 404.8749 L 766.1164 408.4044 L 765.552 399.6457 L 765.7472 398.1369 L 764.9792 396.3249 L 763.5323 392.3226 L 760.2396 384.564 L 759.6116 383.2448 L 758.5296 379.667 L 758.1859 377.0301 L 757.1081 374.3139 L 750.7858 366.4503 L 749.7759 363.8128 L 747.5525 362.8255 L 737.1907 358.4155 L 733.5457 357.3978 L 732.12 356.0381 L 733.3887 354.4653 L 730.4228 352.6573 L 728.1569 352.6839 L 727.0622 351.8888 L 727.2828 350.2724 L 728.6237 349.8416 L 730.1597 348.5141 L 729.7312 343.2412 L 726.9985 342.1896 L 726.4257 341.3467 L 726.1881 339.6345 L 725.6958 332.8995 L 724.5587 326.3512 L 723.9477 325.1333 L 721.9152 323.3578 L 718.9959 321.9942 L 714.1375 321.3965 L 712.7669 321.069 L 703.9665 316.449 L 701.6158 312.4107 L 698.2043 311.6987 L 696.2991 310.6155 L 693.94 308.7631 L 691.5171 308.6394 L 689.4974 308.0913 L 690.851 305.6562 L 690.5793 303.4294 L 685.4451 305.3557 L 684.4776 306.1334 L 682.0506 306.2704 L 682.0675 307.3885 L 681.1595 307.4769 L 681.1383 308.5687 L 681.5711 308.0913 L 682.4452 308.3344 L 681.3972 308.8074 L 680.086 308.6394 L 679.7338 309.6208 L 678.6518 310.1247 L 677.6504 311.0709 L 676.7126 311.491 L 676.7763 309.2583 L 673.0084 309.4881 L 672.758 310.7879 L 671.2984 310.1645 L 671.2432 309.3467 L 669.7878 308.9665 L 668.2687 309.8418 L 667.5601 310.5403 L 666.9151 312.1365 L 666.1854 312.1542 L 665.8756 310.8277 L 666.389 309.8595 L 666.4527 308.9665 L 665.4725 307.9896 L 664.399 307.5521 L 663.6819 309.1301 L 663.3 308.7013 L 663.8006 306.6947 L 663.1133 305.7269 L 663.2661 305.3115 L 662.184 304.2776 L 661.433 305.3203 L 660.5547 305.7888 L 658.3609 305.7137 L 657.9578 306.0672 L 655.5095 305.6783 L 655.1064 305.2099 L 654.2323 305.338 L 654.3257 306.8626 L 653.4304 306.1688 L 652.7429 306.4295 L 651.9919 306.1467 L 650.2862 306.3677 L 650.2946 305.3778 L 649.8236 304.5736 L 649.4375 301.6049 L 648.2197 301.3135 L 647.8209 300.3065 L 646.5946 300.5009 L 646.2424 300.1741 L 646.4631 298.5093 L 645.224 298.1429 L 644.5112 298.7434 L 642.5678 298.6992 L 641.9653 299.26 L 640.9427 299.3086 L 640.6456 298.7963 L 638.9144 300.492 L 637.6755 301.3267 L 635.8296 301.2649 L 633.8481 301.6668 L 633.7845 303.4338 L 634.0942 304.2864 L 633.5511 304.441 L 633.585 305.8594 L 632.9316 306.7344 L 632.6176 308.4935 L 632.9358 309.0461 L 632.083 309.2273 Z M 722.9166 316.3163 L 722.8317 317.2277 L 723.2815 317.4268 L 725.2928 317.3826 L 725.3903 316.449 L 724.843 316.2234 L 722.9166 316.3163 Z" fill="[object Object]" fill-opacity="1" stroke="dodgerblue" stroke-width="1" paint-order="fill" stroke-opacity="1" stroke-dasharray="" stroke-linecap="butt" stroke-miterlimit="10" style="filter: url(&quot;#zr2323-shadow-1&quot;);">
</path>
<path d="M 603.4076 119.6087 L 602.5462 119.2497 L 600.2931 116.2053 L 597.2125 114.4803 L 593.9495 113.0971 L 589.6767 110.8413 L 588.4589 109.1348 L 587.398 108.4263 L 585.408 107.5797 L 584.1987 106.1631 L 583.5792 104.5352 L 581.7886 104.3106 L 576.3403 100.1842 L 577.0659 98.031 L 577.8425 98.3675 L 578.3686 98.0829 L 578.4195 96.4694 L 579.5906 96.5212 L 580.7108 95.3825 L 580.9315 94.2785 L 579.6245 94.6881 L 577.7406 93.9637 L 575.7463 92.7779 L 570.052 92.3468 L 569.7846 91.4457 L 571.4267 92.0062 L 574.7788 91.7432 L 576.0221 92.183 L 576.5864 92.7779 L 578.1097 92.8081 L 578.7674 91.6398 L 577.5072 91.1698 L 577.2611 90.6742 L 575.9245 90.4672 L 575.6742 89.5879 L 574.3206 89.1354 L 574.503 90.6569 L 569.8016 91.1268 L 569.2245 90.2776 L 568.028 89.9974 L 567.0944 90.6526 L 565.7112 90.5362 L 564.8371 90.1009 L 561.765 87.7737 L 560.1441 88.1529 L 559.2233 87.5971 L 557.3352 84.1334 L 557.8486 83.4013 L 557.6703 82.2514 L 557.1018 81.2697 L 557.3479 79.8188 L 556.4908 78.4371 L 557.2673 75.6786 L 557.4115 73.6738 L 557.1994 71.6351 L 557.1655 69.2357 L 557.7425 66.9058 L 558.3875 65.2813 L 558.7694 63.1758 L 559.1852 62.5057 L 562.3124 60.2249 L 562.7664 60.4869 L 562.4354 61.9816 L 563.2501 64.5206 L 564.4085 64.0609 L 563.3138 60.4869 L 563.3774 60.0359 L 564.3109 59.6623 L 564.0054 58.0006 L 562.8598 55.7855 L 561.8839 55.7511 L 560.2884 55.0257 L 559.3846 55 L 557.874 56.5881 L 556.5501 56.2147 L 554.1442 56.5881 L 553.2108 57.2149 L 551.6238 57.6872 L 550.9746 59.7138 L 550.2957 60.3279 L 550.2873 61.5435 L 549.8502 61.8528 L 546.7526 61.6809 L 545.8277 62.1921 L 544.0115 62.2179 L 543.2436 61.8141 L 541.1771 62.046 L 540.5916 62.5357 L 538.5888 62.7076 L 537.0401 63.2789 L 535.6313 62.2737 L 534.4687 62.5787 L 533.9171 63.2274 L 532.5507 63.9406 L 531.0063 64.3831 L 530.7898 64.7999 L 530.9892 68.0749 L 530.5437 71.1578 L 530.6626 73.0371 L 528.316 76.3498 L 526.6103 79.7198 L 526.4024 80.4689 L 526.4151 82.2643 L 525.8593 83.2333 L 525.2143 82.9491 L 523.725 82.9017 L 523.6655 83.6424 L 524.7051 84.7838 L 524.2978 85.6626 L 524.4802 86.5845 L 524.0686 88.0236 L 523.0418 88.5321 L 521.3445 88.3511 L 520.6529 88.8769 L 521.544 89.4457 L 521.4167 90.8939 L 520.5638 90.7043 L 519.7491 91.2001 L 519.7534 92.8211 L 520.8014 93.0538 L 521.5398 93.9119 L 522.9824 93.5152 L 523.6868 93.7955 L 524.8112 95.4127 L 523.5976 96.5729 L 523.5128 97.1078 L 521.8877 98.1087 L 520.0249 98.2165 L 518.8114 98.7645 L 517.7717 99.7915 L 517.0971 99.8174 L 515.8072 98.2942 L 514.7676 98.1302 L 513.4946 98.9414 L 511.3179 97.9879 L 511.0463 96.2063 L 508.7126 96.3702 L 507.8385 96.9439 L 506.8711 97.0086 L 506.3577 96.4737 L 505.2926 96.3659 L 505.1017 98.4107 L 504.0027 98.9371 L 503.4468 100.1367 L 502.1951 100.5682 L 501.0028 100.223 L 500.4257 101.9104 L 500.85 103.3652 L 501.4865 103.9653 L 501.4059 105.3512 L 500.6378 105.1656 L 499.9335 105.9256 L 498.7878 105.0619 L 497.6294 108.4263 L 497.9434 111.6278 L 498.8812 115.0207 L 498.8133 116.9879 L 498.1598 118.895 L 497.4428 119.4833 L 497.0523 120.4263 L 496.4456 124.2944 L 496.976 125.8309 L 497.4979 125.5279 L 498.4483 126.5365 L 499.8189 126.675 L 500.5445 127.1816 L 502.6067 126.2422 L 502.6151 125.8179 L 503.6674 124.7748 L 505.2162 123.8227 L 505.8272 124.2944 L 507.0196 124.5584 L 508.8399 125.5626 L 509.0266 126.1945 L 509.8583 125.9088 L 510.2232 124.2468 L 510.779 123.2947 L 511.5428 123.1433 L 513.5541 123.8443 L 514.4579 123.8876 L 514.6361 125.173 L 515.2386 125.792 L 516.1679 125.9305 L 516.537 127.8007 L 515.0646 129.5587 L 514.3306 129.524 L 514.2924 132.0058 L 515.9429 133.678 L 516.7365 133.9813 L 516.7194 133.3834 L 517.9967 133.3271 L 519.1253 134.289 L 521.5227 135.4286 L 522.155 134.8479 L 523.029 135.8316 L 522.9103 136.6508 L 523.5382 137.0581 L 524.9555 136.7635 L 526.8903 133.6001 L 526.9837 132.1747 L 527.9809 132.0274 L 528.9228 131.0182 L 530.9299 131.3128 L 531.7318 131.1308 L 534.1886 131.0961 L 534.6384 130.0653 L 535.504 129.9614 L 536.0386 130.4206 L 536.6496 129.6539 L 537.6511 131.0486 L 537.6808 132.9025 L 538.4487 132.8592 L 538.5124 131.8195 L 539.2889 130.9879 L 539.7344 129.9268 L 540.8207 128.8529 L 540.808 127.4587 L 542.344 127.3374 L 543.6976 127.9869 L 544.1091 127.4976 L 544.317 125.6664 L 545.8149 125.8396 L 547.9577 125.7703 L 547.7541 126.8916 L 546.1205 126.9435 L 545.4373 129.6583 L 545.5009 132.2917 L 545.8913 134.055 L 546.8927 133.652 L 546.706 134.7525 L 547.4443 136.8588 L 546.7866 141.4717 L 548.1317 141.7493 L 548.0723 144.317 L 548.5221 144.7161 L 548.7215 147.224 L 551.2377 147.4888 L 551.5432 150.2666 L 552.0948 150.4272 L 551.9124 151.9076 L 552.1797 152.1986 L 550.9449 153.5013 L 551.9845 154.6826 L 552.5531 154.0268 L 553.0114 154.7261 L 553.9194 155.1257 L 554.5049 156.2421 L 553.8006 157.3629 L 554.4116 158.7707 L 555.1033 159.1445 L 555.5912 160.4613 L 557.0254 162.526 L 558.3747 162.8825 L 559.007 163.7607 L 559.0409 164.5348 L 559.9829 164.7913 L 561.4637 164.7391 L 561.4765 163.9173 L 564.0861 164.1217 L 564.1285 164.713 L 565.325 164.8827 L 565.3802 165.5611 L 566.7338 165.2044 L 569.216 164.8696 L 570.8836 164.4869 L 571.2698 165.7306 L 571.6771 165.9437 L 572.1311 168.0011 L 573.3531 167.8402 L 573.6968 169.6456 L 574.3885 170.2504 L 577.032 168.2752 L 578.8226 166.7266 L 579.6882 166.4657 L 580.4689 165.6002 L 580.3459 165.0349 L 581.691 165.0827 L 582.0983 166.5222 L 583.1634 166.3178 L 583.7744 167.1659 L 584.1478 166.8659 L 584.4236 166.0743 L 584.2581 164.8913 L 583.0616 162.1 L 583.7956 161.2394 L 584.8097 161.1655 L 585.4674 160.2527 L 585.6711 158.988 L 584.2581 157.4889 L 583.435 157.9365 L 582.8409 156.5419 L 581.8225 157.2109 L 580.6047 154.4134 L 581.1818 154.3135 L 581.5128 153.5361 L 581.203 151.3779 L 579.7646 152.0162 L 579.2809 150.8005 L 581.4491 149.19 L 582.9554 147.2327 L 583.3288 147.4931 L 584.5424 147.2501 L 586.3543 145.5621 L 587.4744 145.0155 L 588.8025 143.7053 L 591.289 142.3954 L 594.2635 139.8543 L 596.2154 137.6433 L 597.1659 137.0668 L 597.3653 136.0353 L 598.1885 135.3246 L 598.1587 133.5957 L 598.5491 132.8592 L 599.5335 132.4823 L 600.3439 130.923 L 601.8503 130.2776 L 601.9564 129.3205 L 601.0017 127.8439 L 600.798 127.0603 L 601.583 124.8181 L 601.3327 122.7841 L 602.3171 122.8274 L 602.5632 121.5943 L 603.119 121.538 L 603.4076 119.6087 Z" fill="[object Object]" fill-opacity="1" stroke="rgba(30,144,255,1)" stroke-width="1" paint-order="fill" stroke-opacity="1" stroke-dasharray="" stroke-linecap="butt" stroke-miterlimit="10" style="filter: url(&quot;#zr2323-shadow-0&quot;);">
</path>
<path d="M 555.1669 286.5738 L 555.6209 286.5958 L 562.253 289.2683 L 564.905 288.6685 L 566.3392 287.6453 L 567.2981 285.2951 L 567.6333 282.2623 L 567.3151 280.0678 L 566.0039 274.4515 L 565.7536 272.162 L 565.7663 269.1557 L 567.1241 267.8443 L 568.3462 266.0052 L 568.7196 265.1078 L 568.6856 263.6036 L 567.1369 262.4336 L 566.4962 260.4858 L 565.4608 258.6878 L 564.9177 256.0332 L 564.277 255.4267 L 561.7099 254.1965 L 560.1059 253.107 L 558.4638 253.7659 L 558.1031 252.7424 L 558.5402 252.2768 L 557.9716 250.0413 L 557.7552 248.2323 L 557.1697 248.5264 L 556.2998 248.241 L 553.6776 248.0698 L 552.5785 247.5473 L 552.0185 245.809 L 552.273 243.9394 L 552.9435 243.347 L 553.5205 241.627 L 552.7864 240.2407 L 553.2914 240.425 L 555.1499 239.7889 L 557.1145 239.5126 L 559.3252 238.6047 L 561.0437 238.4513 L 559.9999 236.9296 L 558.956 234.207 L 559.567 233.4706 L 560.4284 233.4268 L 563.2501 232.3661 L 564.6971 231.9629 L 568.8129 231.7438 L 571.5243 231.1785 L 572.6997 231.0778 L 575.0886 230.2057 L 577.2314 228.3 L 578.1097 227.8795 L 579.3275 227.9408 L 581.3515 227.1743 L 582.3062 227.1743 L 583.0021 227.6167 L 583.4604 228.5847 L 584.0417 228.7425 L 586.8634 226.4297 L 587.9072 225.9348 L 588.06 224.9057 L 586.9483 223.6798 L 586.8592 223.0887 L 585.9002 222.2175 L 585.111 222.1738 L 584.7545 221.1933 L 583.4434 221.4778 L 581.4407 218.445 L 580.5581 218.5062 L 578.848 216.5505 L 578.4365 214.967 L 578.4831 213.9655 L 577.9739 212.4787 L 577.3078 209.6893 L 576.8028 208.7845 L 576.2937 205.7823 L 575.6954 204.3188 L 576.2469 203.9475 L 576.5398 204.6552 L 578.6953 203.052 L 577.7575 202.624 L 577.8467 201.7461 L 578.4025 201.1478 L 577.6005 199.8509 L 577.6727 198.6285 L 579.6627 196.2102 L 579.667 194.4516 L 580.8254 191.3496 L 581.4279 190.7172 L 581.7207 188.6369 L 582.4293 187.9959 L 582.2511 187.1065 L 583.1676 185.5763 L 583.4774 184.3166 L 585.3996 182.4122 L 586.4519 180.8437 L 587.8987 180.3644 L 589.5112 178.9052 L 589.4942 177.812 L 590.0246 175.7783 L 589.3881 174.3417 L 589.8761 173.5363 L 589.1378 173.1053 L 588.0897 173.6277 L 587.6908 172.7615 L 586.193 170.5333 L 586.6555 170.1982 L 586.3415 168.6058 L 584.954 168.2056 L 584.1478 166.8659 L 583.7744 167.1659 L 583.1634 166.3178 L 582.0983 166.5222 L 581.691 165.0827 L 580.3459 165.0349 L 580.4689 165.6002 L 579.6882 166.4657 L 578.8226 166.7266 L 577.032 168.2752 L 574.3885 170.2504 L 573.6968 169.6456 L 573.3531 167.8402 L 572.1311 168.0011 L 571.6771 165.9437 L 571.2698 165.7306 L 570.8836 164.4869 L 569.216 164.8696 L 566.7338 165.2044 L 565.3802 165.5611 L 565.325 164.8827 L 564.1285 164.713 L 564.0861 164.1217 L 561.4765 163.9173 L 561.4637 164.7391 L 559.9829 164.7913 L 559.0409 164.5348 L 559.007 163.7607 L 558.3747 162.8825 L 557.0254 162.526 L 555.5912 160.4613 L 555.1033 159.1445 L 554.4116 158.7707 L 553.7709 159.3139 L 553.1429 160.4917 L 552.9138 162.4521 L 552.4385 163.5738 L 550.9959 165.2871 L 549.846 165.735 L 547.5249 168.0533 L 547.3807 169.4281 L 546.7145 170.059 L 545.6367 170.3766 L 545.3779 170.9032 L 544.4146 171.3296 L 544.2662 172.2654 L 545.0384 172.4785 L 545.2124 174.5071 L 544.5547 175.3082 L 543.897 175.4475 L 543.0654 177.15 L 541.7924 178.6177 L 540.9819 178.548 L 541.1644 177.7815 L 540.2478 177.8164 L 539.0895 176.3227 L 537.4643 176.8365 L 537.3158 177.5898 L 536.7515 177.4941 L 536.1278 178.2039 L 535.3003 178.021 L 534.1844 179.3059 L 532.521 179.6979 L 531.6979 179.0271 L 530.8789 179.1447 L 530.3868 180.2686 L 528.2397 182.4471 L 527.5013 183.8242 L 526.6188 186.4045 L 526.0545 186.9931 L 526.4915 188.9247 L 525.7447 191.0923 L 526.4533 192.0607 L 526.2369 194.2814 L 527.1407 195.3244 L 526.7673 196.8256 L 527.0601 198.3404 L 525.9611 199.2877 L 525.5071 201.8073 L 526.0332 203.8077 L 522.889 204.9129 L 523.8437 207.8055 L 524.9555 209.8248 L 526.5466 211.2632 L 526.3006 212.3693 L 525.872 212.4874 L 525.2907 214.897 L 525.3077 217.7186 L 524.9767 219.2938 L 524.5439 219.8497 L 524.7688 224.2402 L 522.0532 230.0173 L 524.5651 234.1368 L 518.7647 236.3683 L 516.0703 237.5742 L 504.2233 242.3992 L 499.1103 248.3551 L 497.6634 250.1335 L 489.7923 249.2157 L 485.3708 248.8425 L 482.32 250.7835 L 482.4983 253.3266 L 482.1885 257.4966 L 481.4969 257.7251 L 481.4374 258.4812 L 482.2861 258.3273 L 482.3158 260.1649 L 481.1956 259.8 L 480.924 260.1165 L 482.494 260.5869 L 482.7952 261.9895 L 481.8278 261.8577 L 481.6454 262.7547 L 483.2281 262.9482 L 483.6991 264.316 L 483.9919 266.1988 L 484.0937 269.1689 L 484.6665 270.7973 L 485.948 272.1047 L 488.5532 272.1576 L 488.9945 273.1305 L 487.764 274.3238 L 484.5859 275.4336 L 483.3809 276.4025 L 483.2027 277.4419 L 483.7118 280.7551 L 484.064 281.6498 L 484.5308 284.2811 L 485.4812 283.4965 L 487.1021 283.3818 L 487.4755 284.572 L 488.3963 284.4971 L 488.1035 285.9256 L 488.7655 288.0907 L 487.8446 289.1448 L 488.1714 290.6137 L 488.8036 291.3019 L 489.9535 291.4299 L 490.2633 292.8418 L 490.8404 293.0316 L 491.9521 291.8799 L 493.2717 292.352 L 493.6451 293.4199 L 493.7299 295.0307 L 493.2759 295.7104 L 493.4202 296.7433 L 493.9591 297.3216 L 495.7242 297.0788 L 496.6577 297.6218 L 497.5531 297.4144 L 499.6407 294.8674 L 500.3069 296.6065 L 502.1357 297.0788 L 502.6109 296.7698 L 504.932 296.8979 L 506.765 296.2754 L 507.9021 296.2225 L 509.1751 297.3129 L 510.2486 296.7346 L 511.5173 296.5535 L 512.2344 295.3131 L 513.3886 295.2072 L 513.9232 294.7217 L 515.0306 295.1366 L 515.298 295.6 L 518.0646 296.5535 L 519.0532 297.1936 L 520.3559 297.0259 L 521.2809 295.9797 L 522.7618 295.503 L 522.4902 293.6096 L 522.0107 293.2654 L 521.3743 291.8534 L 521.2936 289.8286 L 522.0446 289.1228 L 521.667 283.7786 L 522.1253 283.2408 L 525.3883 284.2811 L 526.9498 283.6155 L 527.0134 282.5841 L 526.5339 282.0773 L 526.9158 281.5483 L 527.1704 278.8032 L 526.7716 278.2833 L 526.9879 277.3715 L 527.5013 276.9971 L 528.8592 277.9265 L 529.0501 276.8077 L 529.7672 276.3364 L 529.2793 274.6761 L 529.8012 274.4515 L 529.7969 273.3683 L 530.9978 273.5312 L 532.4659 272.9676 L 533.34 273.2582 L 532.9581 273.8878 L 533.1151 274.958 L 534.0995 274.5484 L 535.2452 275.09 L 536.183 275.1826 L 536.7727 274.4295 L 538.2536 274.4603 L 540.7061 273.2098 L 541.8603 273.0909 L 542.7599 273.452 L 543.1757 274.315 L 542.9465 275.5436 L 543.4557 276.2703 L 542.6834 276.4861 L 542.3652 278.3186 L 542.815 278.4772 L 544.5887 277.9265 L 544.6438 279.8386 L 545.3524 281.6232 L 546.5787 282.6326 L 549.0695 286.4635 L 549.7356 286.8471 L 555.1669 286.5738 Z" fill="[object Object]" fill-opacity="1" stroke="dodgerblue" stroke-width="1" paint-order="fill" stroke-opacity="1" stroke-dasharray="" stroke-linecap="butt" stroke-miterlimit="10" style="filter: url(&quot;#zr2323-shadow-1&quot;);">
</path>
<path d="M 690.5793 303.4294 L 689.6374 301.0131 L 688.6148 300.2889 L 687.3885 300.0239 L 686.0349 299.1142 L 685.967 298.0589 L 687.3206 297.6572 L 688.8269 297.8205 L 689.6034 294.1745 L 690.2696 293.0713 L 690.9824 283.1394 L 690.7788 281.5264 L 690.3248 280.5216 L 689.1833 279.7329 L 688.6402 277.4244 L 687.8637 271.4708 L 687.2952 268.4032 L 686.1792 266.4011 L 684.4097 265.1034 L 682.6998 264.2369 L 682.8695 259.5581 L 681.796 254.6051 L 680.5782 247.8459 L 680.8115 246.8361 L 680.523 245.8485 L 678.7409 244.9882 L 678.8045 243.1846 L 679.6871 241.899 L 679.7338 240.5565 L 678.9191 238.903 L 678.3081 238.4118 L 676.997 238.1399 L 675.9744 238.3328 L 674.9517 238.0697 L 674.3025 236.7542 L 672.8089 234.9653 L 672.0366 232.1864 L 671.8457 230.232 L 671.2093 226.6136 L 671.0311 224.9758 L 668.2094 216.5505 L 665.9265 210.7997 L 663.8771 206.9928 L 662.9945 205.7692 L 660.9238 201.6151 L 659.9266 198.2094 L 657.1983 190.111 L 655.3016 185.2363 L 653.4897 182.386 L 648.8944 170.703 L 644.5791 158.9794 L 643.9935 155.9076 L 643.7007 153.1192 L 643.0601 150.1277 L 641.8634 147.0938 L 640.548 142.4084 L 640.1111 138.2112 L 640.3487 137.2445 L 638.9272 136.1306 L 634.4252 134.2066 L 624.6277 128.7186 L 620.0408 125.6362 L 613.9561 121.9361 L 610.6676 120.9064 L 605.4103 120.0715 L 603.4076 119.6087 L 603.119 121.538 L 602.5632 121.5943 L 602.3171 122.8274 L 601.3327 122.7841 L 601.583 124.8181 L 600.798 127.0603 L 601.0017 127.8439 L 601.9564 129.3205 L 601.8503 130.2776 L 600.3439 130.923 L 599.5335 132.4823 L 598.5491 132.8592 L 598.1587 133.5957 L 598.1885 135.3246 L 597.3653 136.0353 L 597.1659 137.0668 L 596.2154 137.6433 L 594.2635 139.8543 L 591.289 142.3954 L 588.8025 143.7053 L 587.4744 145.0155 L 586.3543 145.5621 L 584.5424 147.2501 L 583.3288 147.4931 L 582.9554 147.2327 L 581.4491 149.19 L 579.2809 150.8005 L 579.7646 152.0162 L 581.203 151.3779 L 581.5128 153.5361 L 581.1818 154.3135 L 580.6047 154.4134 L 581.8225 157.2109 L 582.8409 156.5419 L 583.435 157.9365 L 584.2581 157.4889 L 585.6711 158.988 L 585.4674 160.2527 L 584.8097 161.1655 L 583.7956 161.2394 L 583.0616 162.1 L 584.2581 164.8913 L 584.4236 166.0743 L 584.1478 166.8659 L 584.954 168.2056 L 586.3415 168.6058 L 586.6555 170.1982 L 586.193 170.5333 L 587.6908 172.7615 L 588.0897 173.6277 L 589.1378 173.1053 L 589.8761 173.5363 L 589.3881 174.3417 L 590.0246 175.7783 L 589.4942 177.812 L 589.5112 178.9052 L 587.8987 180.3644 L 586.4519 180.8437 L 585.3996 182.4122 L 583.4774 184.3166 L 583.1676 185.5763 L 582.2511 187.1065 L 582.4293 187.9959 L 581.7207 188.6369 L 581.4279 190.7172 L 580.8254 191.3496 L 579.667 194.4516 L 579.6627 196.2102 L 577.6727 198.6285 L 577.6005 199.8509 L 578.4025 201.1478 L 577.8467 201.7461 L 577.7575 202.624 L 578.6953 203.052 L 576.5398 204.6552 L 576.2469 203.9475 L 575.6954 204.3188 L 576.2937 205.7823 L 576.8028 208.7845 L 577.3078 209.6893 L 577.9739 212.4787 L 578.4831 213.9655 L 578.4365 214.967 L 578.848 216.5505 L 580.5581 218.5062 L 581.4407 218.445 L 583.4434 221.4778 L 584.7545 221.1933 L 585.111 222.1738 L 585.9002 222.2175 L 586.8592 223.0887 L 586.9483 223.6798 L 588.06 224.9057 L 587.9072 225.9348 L 586.8634 226.4297 L 584.0417 228.7425 L 584.7885 230.8498 L 585.7814 230.5957 L 586.9567 230.7228 L 587.5381 232.8745 L 587.7842 235.4169 L 588.9638 235.1933 L 589.2693 236.0745 L 588.9978 237.0391 L 589.6767 237.6443 L 589.613 239.3986 L 590.6314 240.7014 L 591.0472 240.1838 L 593.0797 239.8767 L 594.132 239.3371 L 595.2479 241.5919 L 594.429 241.8025 L 593.4106 244.5362 L 593.0288 244.9444 L 593.5973 246.3884 L 595.0613 246.9152 L 596.487 247.6615 L 596.6397 248.2981 L 596.2833 249.9754 L 596.4021 251.574 L 597.9848 251.7804 L 598.1206 252.8039 L 597.1149 254.1394 L 597.832 255.7914 L 599.5718 255.8003 L 600.7089 254.9741 L 604.9563 253.5287 L 606.8445 253.4277 L 606.7766 254.5436 L 607.5107 254.1965 L 608.4909 254.4514 L 608.8049 253.7704 L 610.4809 253.9329 L 611.983 253.3354 L 614.3974 253.889 L 615.8867 253.7176 L 617.0493 253.2696 L 618.6024 253.0675 L 620.4312 252.4612 L 622.9007 250.6737 L 623.9021 250.9899 L 628.3871 253.1509 L 629.554 253.5639 L 632.9782 255.1455 L 639.2242 255.9365 L 638.6896 258.4899 L 638.9909 259.2504 L 638.8635 260.8199 L 640.1789 262.7195 L 640.4547 264.1533 L 640.1407 266.5375 L 640.4038 269.7455 L 639.3982 272.3645 L 639.4957 273.6193 L 638.5156 273.5136 L 638.4392 274.0992 L 639.0969 274.4956 L 638.8635 275.689 L 638.0149 276.5655 L 634.8452 276.2571 L 634.8155 276.9443 L 633.4535 277.3627 L 632.2866 277.0015 L 631.9896 276.0017 L 630.1226 275.7991 L 630.2074 278.1644 L 630.5384 278.6842 L 630.1735 281.3192 L 631.9259 281.6498 L 631.8156 282.4121 L 632.5454 282.6722 L 632.3545 283.8975 L 631.5483 283.9813 L 631.5228 284.8454 L 630.7633 285.7183 L 630.4747 286.609 L 631.4083 286.5296 L 630.9288 287.932 L 629.431 287.6453 L 628.9685 288.1569 L 629.5031 289.8594 L 628.8284 290.38 L 629.0703 291.0769 L 629.9571 291.2093 L 630.6191 291.8888 L 631.6841 291.024 L 631.858 290.4726 L 633.602 289.9344 L 634.039 291.3195 L 633.0164 292.4403 L 632.4096 293.5346 L 632.1041 294.9071 L 631.6162 295.2734 L 630.462 295.0218 L 630.5257 296.9023 L 629.885 297.6572 L 629.2485 297.1892 L 628.5356 297.8073 L 628.7011 298.9111 L 627.7549 298.6462 L 627.2288 300.5318 L 626.5795 300.3419 L 625.9855 301.3356 L 625.9345 305.9655 L 625.035 306.2439 L 625.3448 307.9277 L 626.0619 308.2813 L 627.4367 307.6758 L 628.4593 307.7023 L 630.1184 307.1808 L 630.0929 306.3853 L 631.701 307.3753 L 631.6077 309.0152 L 632.083 309.2273 L 632.9358 309.0461 L 632.6176 308.4935 L 632.9316 306.7344 L 633.585 305.8594 L 633.5511 304.441 L 634.0942 304.2864 L 633.7845 303.4338 L 633.8481 301.6668 L 635.8296 301.2649 L 637.6755 301.3267 L 638.9144 300.492 L 640.6456 298.7963 L 640.9427 299.3086 L 641.9653 299.26 L 642.5678 298.6992 L 644.5112 298.7434 L 645.224 298.1429 L 646.4631 298.5093 L 646.2424 300.1741 L 646.5946 300.5009 L 647.8209 300.3065 L 648.2197 301.3135 L 649.4375 301.6049 L 649.8236 304.5736 L 650.2946 305.3778 L 650.2862 306.3677 L 651.9919 306.1467 L 652.7429 306.4295 L 653.4304 306.1688 L 654.3257 306.8626 L 654.2323 305.338 L 655.1064 305.2099 L 655.5095 305.6783 L 657.9578 306.0672 L 658.3609 305.7137 L 660.5547 305.7888 L 661.433 305.3203 L 662.184 304.2776 L 663.2661 305.3115 L 663.1133 305.7269 L 663.8006 306.6947 L 663.3 308.7013 L 663.6819 309.1301 L 664.399 307.5521 L 665.4725 307.9896 L 666.4527 308.9665 L 666.389 309.8595 L 665.8756 310.8277 L 666.1854 312.1542 L 666.9151 312.1365 L 667.5601 310.5403 L 668.2687 309.8418 L 669.7878 308.9665 L 671.2432 309.3467 L 671.2984 310.1645 L 672.758 310.7879 L 673.0084 309.4881 L 676.7763 309.2583 L 676.7126 311.491 L 677.6504 311.0709 L 678.6518 310.1247 L 679.7338 309.6208 L 680.086 308.6394 L 681.3972 308.8074 L 682.4452 308.3344 L 681.5711 308.0913 L 681.1383 308.5687 L 681.1595 307.4769 L 682.0675 307.3885 L 682.0506 306.2704 L 684.4776 306.1334 L 685.4451 305.3557 L 690.5793 303.4294 Z" fill="[object Object]" fill-opacity="1" stroke="rgba(30,144,255,1)" stroke-width="1" paint-order="fill" stroke-opacity="1" stroke-dasharray="" stroke-linecap="butt" stroke-miterlimit="10" style="filter: url(&quot;#zr2323-shadow-0&quot;);">
</path>
<path d="M 558.502 347.4042 L 560.4624 346.3921 L 562.8173 346.3255 L 566.6192 346.5164 L 568.9784 347.0668 L 570.5484 347.1112 L 571.1806 346.0991 L 572.3857 344.9408 L 573.9896 343.8403 L 576.1494 343.3388 L 577.3672 343.4631 L 579.3233 344.102 L 580.104 344.71 L 581.7631 342.793 L 582.4972 341.6928 L 582.3783 341.2979 L 584.7631 341.1161 L 584.8734 342.2784 L 584.3429 342.4203 L 584.3472 346.6096 L 586.5027 346.1569 L 586.3924 344.9763 L 587.0925 344.3062 L 587.7418 344.5325 L 588.217 345.8684 L 588.1915 347.8837 L 588.7941 346.8449 L 588.6328 344.7277 L 589.1123 343.8181 L 591.1872 343.2146 L 592.4517 342.5712 L 593.2451 341.3245 L 594.743 341.9412 L 596.4275 339.1555 L 597.5223 338.162 L 599.2959 337.6521 L 600.6113 337.7541 L 601.8419 338.2685 L 603.119 339.3063 L 604.986 337.3549 L 605.2448 336.6943 L 604.8969 333.4448 L 605.7286 333.3605 L 605.9153 331.5213 L 605.0369 329.8862 L 605.7413 329.2925 L 605.5801 328.3533 L 606.4924 327.7553 L 606.8487 325.5761 L 606.1487 324.996 L 605.7031 323.154 L 604.7314 322.9814 L 603.9125 323.3976 L 602.7668 322.5386 L 603.0426 320.2413 L 603.5221 319.7721 L 603.4373 315.8341 L 604.3538 314.3832 L 603.7215 313.4367 L 602.8517 311.46 L 603.1827 310.0496 L 602.8602 308.7499 L 603.3142 308.5863 L 602.8856 307.8172 L 602.7541 306.5886 L 603.8404 306.3588 L 604.1628 305.1966 L 605.0412 305.2497 L 605.8304 306.1025 L 606.7045 306.5356 L 606.9252 307.3664 L 608.5121 307.2692 L 609.1274 307.6537 L 609.2759 306.9023 L 610.1245 306.7831 L 609.0128 304.6576 L 609.1656 303.5751 L 608.8388 301.8258 L 607.9817 301.8701 L 607.01 301.3488 L 607.5107 299.3969 L 606.0892 298.1693 L 606.0553 297.1053 L 604.9691 295.5382 L 605.0921 293.9009 L 606.7257 292.3343 L 606.4372 291.6063 L 604.201 290.9755 L 603.5518 289.6697 L 603.9549 288.4656 L 603.45 288.3553 L 602.1601 289.1007 L 601.2648 288.7699 L 600.8107 288.1305 L 600.9762 287.1382 L 601.7357 286.3092 L 601.7824 285.3612 L 601.3623 284.9776 L 602.1049 283.9241 L 601.4685 283.4039 L 601.8715 282.8353 L 600.8617 280.9755 L 600.3525 277.583 L 599.8008 277.4685 L 598.7867 278.6666 L 597.5986 279.2085 L 596.0032 278.9046 L 595.5831 278.4552 L 595.0442 276.865 L 595.2224 275.4115 L 594.3399 274.5527 L 593.8604 272.8973 L 594.6114 270.0447 L 594.7133 268.4251 L 593.8519 267.2943 L 592.893 261.6861 L 591.8194 259.945 L 590.1561 258.5031 L 589.596 256.978 L 590.2707 256.8769 L 590.0373 255.8838 L 590.6059 253.2168 L 590.8774 252.6326 L 593.5082 250.1555 L 594.2466 248.6537 L 594.726 249.005 L 595.0613 246.9152 L 593.5973 246.3884 L 593.0288 244.9444 L 593.4106 244.5362 L 594.429 241.8025 L 595.2479 241.5919 L 594.132 239.3371 L 593.0797 239.8767 L 591.0472 240.1838 L 590.6314 240.7014 L 589.613 239.3986 L 589.6767 237.6443 L 588.9978 237.0391 L 589.2693 236.0745 L 588.9638 235.1933 L 587.7842 235.4169 L 587.5381 232.8745 L 586.9567 230.7228 L 585.7814 230.5957 L 584.7885 230.8498 L 584.0417 228.7425 L 583.4604 228.5847 L 583.0021 227.6167 L 582.3062 227.1743 L 581.3515 227.1743 L 579.3275 227.9408 L 578.1097 227.8795 L 577.2314 228.3 L 575.0886 230.2057 L 572.6997 231.0778 L 571.5243 231.1785 L 568.8129 231.7438 L 564.6971 231.9629 L 563.2501 232.3661 L 560.4284 233.4268 L 559.567 233.4706 L 558.956 234.207 L 559.9999 236.9296 L 561.0437 238.4513 L 559.3252 238.6047 L 557.1145 239.5126 L 555.1499 239.7889 L 553.2914 240.425 L 552.7864 240.2407 L 553.5205 241.627 L 552.9435 243.347 L 552.273 243.9394 L 552.0185 245.809 L 552.5785 247.5473 L 553.6776 248.0698 L 556.2998 248.241 L 557.1697 248.5264 L 557.7552 248.2323 L 557.9716 250.0413 L 558.5402 252.2768 L 558.1031 252.7424 L 558.4638 253.7659 L 560.1059 253.107 L 561.7099 254.1965 L 564.277 255.4267 L 564.9177 256.0332 L 565.4608 258.6878 L 566.4962 260.4858 L 567.1369 262.4336 L 568.6856 263.6036 L 568.7196 265.1078 L 568.3462 266.0052 L 567.1241 267.8443 L 565.7663 269.1557 L 565.7536 272.162 L 566.0039 274.4515 L 567.3151 280.0678 L 567.6333 282.2623 L 567.2981 285.2951 L 566.3392 287.6453 L 564.905 288.6685 L 562.253 289.2683 L 555.6209 286.5958 L 555.1669 286.5738 L 555.4681 288.0642 L 555.6506 290.2829 L 556.3719 294.0995 L 556.9278 295.1543 L 556.983 297.7014 L 557.1866 298.4121 L 556.966 305.1348 L 557.8358 306.3323 L 557.5855 307.5742 L 557.8571 308.3256 L 558.6505 308.5996 L 557.8231 310.0805 L 557.8316 311.6766 L 557.0084 311.9818 L 555.833 311.4202 L 555.3366 309.3245 L 554.5644 309.939 L 554.4328 312.2338 L 552.8161 313.1625 L 552.8671 313.8612 L 553.7879 314.7636 L 553.8727 315.7368 L 552.9477 316.5685 L 552.5361 318.4092 L 551.942 319.4579 L 552.3579 320.1395 L 551.3565 320.2501 L 549.9181 321.7197 L 548.4457 322.8176 L 547.6225 324.1636 L 546.7569 323.8979 L 546.286 323.1895 L 544.7414 323.1407 L 543.9012 324.1945 L 542.9805 323.8271 L 542.8871 325.4168 L 543.4133 326.5727 L 542.4289 328.1495 L 542.5137 329.5539 L 543.2647 330.6572 L 544.0158 330.604 L 544.0922 331.3352 L 542.8913 331.4504 L 542.8278 331.9555 L 544.4996 332.9882 L 543.252 334.3845 L 543.3369 335.014 L 544.3595 336.2066 L 543.897 336.9958 L 543.8758 338.6809 L 544.1983 339.1821 L 544.2916 342.4115 L 543.9904 343.6051 L 545.4627 344.4305 L 546.8375 344.7055 L 547.6904 345.4911 L 551.191 345.0873 L 552.8119 345.2381 L 554.5855 345.7175 L 558.502 347.4042 Z" fill="[object Object]" fill-opacity="1" stroke="dodgerblue" stroke-width="1" paint-order="fill" stroke-opacity="1" stroke-dasharray="" stroke-linecap="butt" stroke-miterlimit="10" style="filter: url(&quot;#zr2323-shadow-1&quot;);">
</path>
<path d="M 558.8839 407.3945 L 559.1003 407.5821 L 560.7212 406.8762 L 562.567 405.8085 L 563.8611 404.6024 L 565.1171 402.9632 L 566.0336 399.6367 L 565.4608 399.2707 L 565.499 398.4761 L 566.2161 397.2889 L 565.5033 396.7934 L 564.294 396.7131 L 564.2176 393.2505 L 564.4255 392.3271 L 564.9771 392.2468 L 565.3845 390.2576 L 564.9686 390.3021 L 564.9092 388.5674 L 565.3802 387.3992 L 566.3349 386.298 L 566.0973 385.3486 L 567.0478 383.9579 L 568.7153 384.1184 L 569.3433 385.344 L 570.4465 385.2594 L 571.7365 386.726 L 573.1155 386.9979 L 573.6459 386.7037 L 573.9217 387.3591 L 574.7067 387.047 L 573.8496 385.8924 L 573.3574 384.6398 L 572.9034 384.7111 L 573.1834 382.7369 L 574.2654 382.26 L 575.1183 381.351 L 576.2597 381.7743 L 576.6289 382.7369 L 579.6076 384.7335 L 582.7688 384.2699 L 583.227 383.6593 L 583.5155 384.31 L 584.2836 384.4615 L 584.7885 385.0856 L 585.5607 385.1791 L 585.9511 386.4006 L 585.7475 387.2432 L 586.3457 387.154 L 586.9356 387.7381 L 586.978 389.3433 L 587.6824 390.3467 L 588.7855 389.8428 L 589.9227 390.4092 L 590.3895 392.2111 L 590.8223 392.6215 L 593.2154 393.0454 L 593.6015 394.2989 L 594.6157 395.2895 L 594.7345 396.2177 L 595.9141 396.722 L 597.1319 396.9006 L 596.733 395.6332 L 596.8518 393.7814 L 597.7938 391.9435 L 598.443 391.3503 L 598.9437 389.1426 L 600.9465 389.2586 L 600.5689 388.2731 L 600.938 387.2833 L 601.7061 386.6011 L 602.5589 384.6978 L 600.327 384.7111 L 599.3935 385.1613 L 598.8971 384.2253 L 598.9522 382.6432 L 598.2818 381.8634 L 599.5378 379.7962 L 600.1912 379.716 L 600.2888 378.4821 L 598.617 377.7517 L 598.6806 377.195 L 600.4501 377.9298 L 600.8701 377.1682 L 599.9408 375.3825 L 599.2195 374.9106 L 600.0173 371.4026 L 599.8263 371.1667 L 600.518 368.5591 L 599.9621 368.3633 L 601.3878 364.8579 L 602.0285 364.1463 L 603.3481 364.173 L 603.8616 364.5688 L 604.9818 363.7683 L 606.1996 364.6044 L 606.9294 363.9417 L 607.6126 365.5473 L 607.9987 365.8408 L 608.5375 365.147 L 608.9237 365.7519 L 609.6747 368.252 L 610.7185 369.4312 L 613.1372 369.5647 L 614.9363 369.1063 L 612.9123 365.0136 L 611.5417 361.8429 L 608.7794 351.3648 L 608.6224 349.5308 L 607.5998 344.8476 L 606.9252 343.321 L 605.6522 341.3822 L 604.2817 339.9937 L 603.119 339.3063 L 601.8419 338.2685 L 600.6113 337.7541 L 599.2959 337.6521 L 597.5223 338.162 L 596.4275 339.1555 L 594.743 341.9412 L 593.2451 341.3245 L 592.4517 342.5712 L 591.1872 343.2146 L 589.1123 343.8181 L 588.6328 344.7277 L 588.7941 346.8449 L 588.1915 347.8837 L 588.217 345.8684 L 587.7418 344.5325 L 587.0925 344.3062 L 586.3924 344.9763 L 586.5027 346.1569 L 584.3472 346.6096 L 584.3429 342.4203 L 584.8734 342.2784 L 584.7631 341.1161 L 582.3783 341.2979 L 582.4972 341.6928 L 581.7631 342.793 L 580.104 344.71 L 579.3233 344.102 L 577.3672 343.4631 L 576.1494 343.3388 L 573.9896 343.8403 L 572.3857 344.9408 L 571.1806 346.0991 L 570.5484 347.1112 L 568.9784 347.0668 L 566.6192 346.5164 L 562.8173 346.3255 L 560.4624 346.3921 L 558.502 347.4042 L 559.4567 347.9991 L 557.925 349.5263 L 557.5345 350.5788 L 555.6336 351.1117 L 555.1372 350.6854 L 552.8629 351.0317 L 551.522 350.3079 L 550.3594 350.8896 L 547.7541 351.8045 L 547.1346 351.7823 L 546.9351 353.5012 L 544.8135 353.5456 L 545.607 354.0299 L 544.1601 353.9721 L 543.5873 354.8162 L 542.8786 356.6068 L 541.8858 357.2334 L 541.8603 358.1133 L 543.2012 358.1133 L 544.9493 358.7356 L 545.5476 359.4956 L 546.4217 358.9222 L 547.2194 358.98 L 547.9704 360.7581 L 548.6621 360.6247 L 548.6324 362.581 L 547.7328 364.4353 L 548.1911 366.0099 L 548.59 368.6658 L 548.1699 369.3867 L 548.9591 369.3066 L 549.6889 369.756 L 549.8205 370.9887 L 550.3806 371.3315 L 550.3424 372.0614 L 549.7993 371.8344 L 549.5829 372.876 L 548.9719 373.2678 L 548.0001 372.4086 L 546.7612 372.8627 L 546.0907 372.4798 L 544.7287 372.9695 L 543.3963 374.1269 L 543.4133 374.8393 L 544.0243 375.9525 L 545.0809 376.2597 L 546.2987 375.8278 L 549.0609 376.4913 L 549.3834 377.5646 L 549.5913 379.716 L 549.9902 380.8387 L 549.3368 381.3778 L 548.7724 383.3295 L 548.1741 383.8688 L 546.8884 383.49 L 546.4599 383.0265 L 544.4656 384.4749 L 543.6679 384.5418 L 543.146 385.2862 L 541.4402 385.3486 L 539.6496 385.6918 L 538.8773 386.4719 L 538.9495 387.3324 L 540.1588 388.1617 L 541.0456 389.7937 L 541.6693 390.1014 L 541.4063 391.6312 L 539.866 391.6759 L 539.709 393.5227 L 541.1008 393.2683 L 541.5675 392.2022 L 542.815 392.1175 L 543.4302 391.5019 L 545.3948 391.0737 L 546.1586 391.7785 L 547.0157 391.5777 L 547.0709 392.5903 L 547.9832 393.023 L 548.293 394.3927 L 549.1543 394.8657 L 549.8374 395.9857 L 550.6352 396.4319 L 550.9576 397.6637 L 551.6705 397.811 L 553.109 400.1056 L 555.2815 400.6324 L 555.5827 401.3468 L 555.2942 402.2934 L 555.7227 404.0888 L 555.3493 405.1653 L 556.6647 405.4199 L 557.246 407.3275 L 558.7651 406.8673 L 558.8839 407.3945 Z" fill="[object Object]" fill-opacity="1" stroke="dodgerblue" stroke-width="1" paint-order="fill" stroke-opacity="1" stroke-dasharray="" stroke-linecap="butt" stroke-miterlimit="10" style="filter: url(&quot;#zr2323-shadow-1&quot;);">
</path>
<path d="M 658.607 367.6692 L 659.0144 366.4014 L 658.2124 365.6629 L 658.4076 364.6667 L 656.8121 364.1108 L 655.9848 363.1591 L 655.5604 360.5536 L 653.5873 359.8068 L 653.2479 359.4245 L 650.1122 357.7178 L 649.6879 357.3089 L 648.3173 357.2156 L 646.1151 356.7268 L 645.0925 356.8912 L 643.7177 356.6201 L 643.3273 354.7318 L 643.0558 354.6251 L 642.7375 352.6573 L 644.8846 347.8703 L 644.3542 345.8284 L 643.7814 345.7352 L 642.9412 344.608 L 643.3146 343.9955 L 643.0388 342.935 L 643.4291 341.7105 L 643.4249 339.1111 L 644.4009 338.672 L 643.5692 337.0445 L 643.4843 335.9361 L 642.9625 335.1248 L 643.9851 333.7151 L 643.4291 332.6114 L 643.374 331.7073 L 641.21 332.6602 L 640.2341 333.3561 L 639.6612 332.2525 L 638.9102 332.5495 L 638.2992 331.508 L 638.6514 330.994 L 637.9513 327.3168 L 638.0064 326.3556 L 637.5906 325.5585 L 637.3063 322.1934 L 636.3176 319.5066 L 637.2087 319.2189 L 636.725 317.9312 L 637.2087 314.4893 L 636.6189 313.1493 L 636.6613 311.8536 L 636.1224 309.5589 L 634.2215 310.6464 L 633.7674 311.1505 L 632.4861 310.1689 L 632.083 309.2273 L 631.6077 309.0152 L 631.701 307.3753 L 630.0929 306.3853 L 630.1184 307.1808 L 628.4593 307.7023 L 627.4367 307.6758 L 626.0619 308.2813 L 625.3448 307.9277 L 625.035 306.2439 L 625.9345 305.9655 L 625.9855 301.3356 L 626.5795 300.3419 L 627.2288 300.5318 L 627.7549 298.6462 L 628.7011 298.9111 L 628.5356 297.8073 L 629.2485 297.1892 L 629.885 297.6572 L 630.5257 296.9023 L 630.462 295.0218 L 631.6162 295.2734 L 632.1041 294.9071 L 632.4096 293.5346 L 633.0164 292.4403 L 634.039 291.3195 L 633.602 289.9344 L 631.858 290.4726 L 631.6841 291.024 L 630.6191 291.8888 L 629.9571 291.2093 L 629.0703 291.0769 L 628.8284 290.38 L 629.5031 289.8594 L 628.9685 288.1569 L 629.431 287.6453 L 630.9288 287.932 L 631.4083 286.5296 L 630.4747 286.609 L 630.7633 285.7183 L 631.5228 284.8454 L 631.5483 283.9813 L 632.3545 283.8975 L 632.5454 282.6722 L 631.8156 282.4121 L 631.9259 281.6498 L 630.1735 281.3192 L 630.5384 278.6842 L 630.2074 278.1644 L 630.1226 275.7991 L 631.9896 276.0017 L 632.2866 277.0015 L 633.4535 277.3627 L 634.8155 276.9443 L 634.8452 276.2571 L 638.0149 276.5655 L 638.8635 275.689 L 639.0969 274.4956 L 638.4392 274.0992 L 638.5156 273.5136 L 639.4957 273.6193 L 639.3982 272.3645 L 640.4038 269.7455 L 640.1407 266.5375 L 640.4547 264.1533 L 640.1789 262.7195 L 638.8635 260.8199 L 638.9909 259.2504 L 638.6896 258.4899 L 639.2242 255.9365 L 632.9782 255.1455 L 629.554 253.5639 L 628.3871 253.1509 L 623.9021 250.9899 L 622.9007 250.6737 L 620.4312 252.4612 L 618.6024 253.0675 L 617.0493 253.2696 L 615.8867 253.7176 L 614.3974 253.889 L 611.983 253.3354 L 610.4809 253.9329 L 608.8049 253.7704 L 608.4909 254.4514 L 607.5107 254.1965 L 606.7766 254.5436 L 606.8445 253.4277 L 604.9563 253.5287 L 600.7089 254.9741 L 599.5718 255.8003 L 597.832 255.7914 L 597.1149 254.1394 L 598.1206 252.8039 L 597.9848 251.7804 L 596.4021 251.574 L 596.2833 249.9754 L 596.6397 248.2981 L 596.487 247.6615 L 595.0613 246.9152 L 594.726 249.005 L 594.2466 248.6537 L 593.5082 250.1555 L 590.8774 252.6326 L 590.6059 253.2168 L 590.0373 255.8838 L 590.2707 256.8769 L 589.596 256.978 L 590.1561 258.5031 L 591.8194 259.945 L 592.893 261.6861 L 593.8519 267.2943 L 594.7133 268.4251 L 594.6114 270.0447 L 593.8604 272.8973 L 594.3399 274.5527 L 595.2224 275.4115 L 595.0442 276.865 L 595.5831 278.4552 L 596.0032 278.9046 L 597.5986 279.2085 L 598.7867 278.6666 L 599.8008 277.4685 L 600.3525 277.583 L 600.8617 280.9755 L 601.8715 282.8353 L 601.4685 283.4039 L 602.1049 283.9241 L 601.3623 284.9776 L 601.7824 285.3612 L 601.7357 286.3092 L 600.9762 287.1382 L 600.8107 288.1305 L 601.2648 288.7699 L 602.1601 289.1007 L 603.45 288.3553 L 603.9549 288.4656 L 603.5518 289.6697 L 604.201 290.9755 L 606.4372 291.6063 L 606.7257 292.3343 L 605.0921 293.9009 L 604.9691 295.5382 L 606.0553 297.1053 L 606.0892 298.1693 L 607.5107 299.3969 L 607.01 301.3488 L 607.9817 301.8701 L 608.8388 301.8258 L 609.1656 303.5751 L 609.0128 304.6576 L 610.1245 306.7831 L 609.2759 306.9023 L 609.1274 307.6537 L 608.5121 307.2692 L 606.9252 307.3664 L 606.7045 306.5356 L 605.8304 306.1025 L 605.0412 305.2497 L 604.1628 305.1966 L 603.8404 306.3588 L 602.7541 306.5886 L 602.8856 307.8172 L 603.3142 308.5863 L 602.8602 308.7499 L 603.1827 310.0496 L 602.8517 311.46 L 603.7215 313.4367 L 604.3538 314.3832 L 603.4373 315.8341 L 603.5221 319.7721 L 603.0426 320.2413 L 602.7668 322.5386 L 603.9125 323.3976 L 604.7314 322.9814 L 605.7031 323.154 L 606.1487 324.996 L 606.8487 325.5761 L 606.4924 327.7553 L 605.5801 328.3533 L 605.7413 329.2925 L 605.0369 329.8862 L 605.9153 331.5213 L 605.7286 333.3605 L 604.8969 333.4448 L 605.2448 336.6943 L 604.986 337.3549 L 603.119 339.3063 L 604.2817 339.9937 L 605.6522 341.3822 L 606.9252 343.321 L 607.5998 344.8476 L 608.6224 349.5308 L 608.7794 351.3648 L 611.5417 361.8429 L 612.9123 365.0136 L 614.9363 369.1063 L 615.2842 369.9963 L 618.0168 372.7781 L 618.4836 373.0496 L 621.6956 374.2872 L 626.9784 375.9124 L 630.0377 376.4691 L 632.3545 376.705 L 634.6755 376.5625 L 636.6698 375.6631 L 643.4801 371.7543 L 644.8124 370.7261 L 646.1109 369.1286 L 647.3117 368.1676 L 651.9919 365.1826 L 654.8773 365.6674 L 656.4515 366.7305 L 658.607 367.6692 Z" fill="[object Object]" fill-opacity="1" stroke="dodgerblue" stroke-width="1" paint-order="fill" stroke-opacity="1" stroke-dasharray="" stroke-linecap="butt" stroke-miterlimit="10" style="filter: url(&quot;#zr2323-shadow-1&quot;);">
</path>
<path d="M 554.4116 158.7707 L 553.8006 157.3629 L 554.5049 156.2421 L 553.9194 155.1257 L 553.0114 154.7261 L 552.5531 154.0268 L 551.9845 154.6826 L 550.9449 153.5013 L 552.1797 152.1986 L 551.9124 151.9076 L 552.0948 150.4272 L 551.5432 150.2666 L 551.2377 147.4888 L 548.7215 147.224 L 548.5221 144.7161 L 548.0723 144.317 L 548.1317 141.7493 L 546.7866 141.4717 L 547.4443 136.8588 L 546.706 134.7525 L 546.8927 133.652 L 545.8913 134.055 L 545.5009 132.2917 L 545.4373 129.6583 L 546.1205 126.9435 L 547.7541 126.8916 L 547.9577 125.7703 L 545.8149 125.8396 L 544.317 125.6664 L 544.1091 127.4976 L 543.6976 127.9869 L 542.344 127.3374 L 540.808 127.4587 L 540.8207 128.8529 L 539.7344 129.9268 L 539.2889 130.9879 L 538.5124 131.8195 L 538.4487 132.8592 L 537.6808 132.9025 L 537.6511 131.0486 L 536.6496 129.6539 L 536.0386 130.4206 L 535.504 129.9614 L 534.6384 130.0653 L 534.1886 131.0961 L 531.7318 131.1308 L 530.9299 131.3128 L 528.9228 131.0182 L 527.9809 132.0274 L 526.9837 132.1747 L 526.8903 133.6001 L 524.9555 136.7635 L 523.5382 137.0581 L 522.9103 136.6508 L 523.029 135.8316 L 522.155 134.8479 L 521.5227 135.4286 L 519.1253 134.289 L 517.9967 133.3271 L 516.7194 133.3834 L 516.7365 133.9813 L 515.9429 133.678 L 514.2924 132.0058 L 513.6093 132.4043 L 513.4522 133.444 L 512.6078 133.808 L 513.3462 134.2066 L 513.5838 135.8923 L 513.4183 137.1231 L 512.7649 137.3745 L 510.4438 137.1448 L 508.7889 138.0595 L 509.0223 140.1318 L 508.441 140.5567 L 508.004 143.1978 L 508.335 144.3257 L 508.9417 144.6511 L 507.8979 149.2638 L 507.9361 151.5169 L 504.8386 151.2 L 503.7905 152.2117 L 504.1173 153.1973 L 503.6632 154.3656 L 503.6293 155.7816 L 504.724 156.3463 L 502.6236 157.4411 L 502.072 158.1102 L 501.0961 158.397 L 499.6831 157.4498 L 498.4229 157.6019 L 497.9773 157.2457 L 494.5362 156.3724 L 493.0723 156.2203 L 488.7187 156.746 L 487.6834 157.137 L 487.4501 157.8539 L 483.1729 158.0842 L 482.4304 157.4107 L 481.7345 155.3689 L 481.7515 153.8791 L 479.7783 151.899 L 478.9891 152.433 L 477.4192 151.9511 L 476.9779 152.2203 L 477.2452 153.1973 L 476.9651 154.3569 L 476.1165 154.4437 L 474.712 153.675 L 473.3669 154.1311 L 472.9214 153.0453 L 472.2595 152.5677 L 471.8649 151.5213 L 471.0586 150.9655 L 470.1676 152.3636 L 470.4349 152.8195 L 469.7857 153.193 L 465.5086 154.0789 L 465.1606 155.7165 L 465.3261 157.5454 L 466.1663 158.0798 L 466.0008 158.9576 L 466.5736 159.7355 L 469.2595 158.8664 L 470.4094 162.7739 L 470.1082 163.3391 L 470.3967 166.1047 L 469.6797 167.2182 L 469.3359 166.8484 L 468.2242 166.918 L 467.732 168.3578 L 468.1436 169.8153 L 469.0813 170.059 L 469.5948 171.0294 L 471.0586 171.6821 L 472.0601 171.7039 L 472.0685 174.0369 L 473.1463 174.124 L 473.6088 174.7334 L 474.1858 174.5593 L 474.4744 172.7702 L 475.1024 172.7354 L 476.2566 174.7726 L 476.8761 178.1735 L 477.4107 179.3146 L 478.323 180.1902 L 478.7855 181.7848 L 478.8915 183.907 L 479.5535 183.9026 L 479.7954 186.0428 L 479.4474 186.7272 L 478.3654 186.3261 L 478.3526 187.5905 L 477.6441 188.7939 L 478.4715 189.7446 L 479.0867 192.0738 L 478.5012 192.4751 L 478.3102 193.4393 L 479.5959 193.9062 L 479.0273 194.7963 L 477.7459 194.8749 L 477.1773 196.4022 L 478.2636 196.926 L 477.9836 199.1786 L 478.2933 202.0911 L 474.6654 206.3329 L 474.0713 206.7961 L 474.4489 209.3572 L 473.7785 215.5707 L 473.0784 215.6319 L 473.7489 216.5636 L 473.6597 218.1999 L 473.7573 221.1058 L 469.9512 219.4338 L 469.4123 219.3989 L 468.8777 221.2458 L 467.749 222.7866 L 467.3671 224.5511 L 467.2441 226.4998 L 466.8579 228.0022 L 467.7193 229.6274 L 467.7999 231.4721 L 466.0305 233.5057 L 465.2455 234.0097 L 463.4379 233.7861 L 463.7222 235.1538 L 465.0121 235.4169 L 464.5199 236.7147 L 464.3205 239.0828 L 463.6373 240.8022 L 461.0066 242.5264 L 461.6558 243.5839 L 460.9726 245.3788 L 461.2272 246.3093 L 462.0928 246.4236 L 463.8792 246.1909 L 465.0927 247.701 L 465.1012 248.2718 L 464.1423 248.8205 L 464.5581 249.5055 L 464.7661 250.8888 L 465.8777 251.1524 L 466.2257 252.0791 L 466.9004 252.4042 L 467.5241 253.2783 L 468.36 253.6254 L 468.4746 255.3697 L 469.128 255.0445 L 470.8126 254.8907 L 472.2595 253.911 L 474.572 252.8127 L 476.8506 251.9123 L 477.678 250.7483 L 477.4022 249.2948 L 478.3145 247.4815 L 479.057 247.0249 L 480.2791 247.6615 L 481.5818 248.926 L 482.32 250.7835 L 485.3708 248.8425 L 489.7923 249.2157 L 497.6634 250.1335 L 499.1103 248.3551 L 504.2233 242.3992 L 516.0703 237.5742 L 518.7647 236.3683 L 524.5651 234.1368 L 522.0532 230.0173 L 524.7688 224.2402 L 524.5439 219.8497 L 524.9767 219.2938 L 525.3077 217.7186 L 525.2907 214.897 L 525.872 212.4874 L 526.3006 212.3693 L 526.5466 211.2632 L 524.9555 209.8248 L 523.8437 207.8055 L 522.889 204.9129 L 526.0332 203.8077 L 525.5071 201.8073 L 525.9611 199.2877 L 527.0601 198.3404 L 526.7673 196.8256 L 527.1407 195.3244 L 526.2369 194.2814 L 526.4533 192.0607 L 525.7447 191.0923 L 526.4915 188.9247 L 526.0545 186.9931 L 526.6188 186.4045 L 527.5013 183.8242 L 528.2397 182.4471 L 530.3868 180.2686 L 530.8789 179.1447 L 531.6979 179.0271 L 532.521 179.6979 L 534.1844 179.3059 L 535.3003 178.021 L 536.1278 178.2039 L 536.7515 177.4941 L 537.3158 177.5898 L 537.4643 176.8365 L 539.0895 176.3227 L 540.2478 177.8164 L 541.1644 177.7815 L 540.9819 178.548 L 541.7924 178.6177 L 543.0654 177.15 L 543.897 175.4475 L 544.5547 175.3082 L 545.2124 174.5071 L 545.0384 172.4785 L 544.2662 172.2654 L 544.4146 171.3296 L 545.3779 170.9032 L 545.6367 170.3766 L 546.7145 170.059 L 547.3807 169.4281 L 547.5249 168.0533 L 549.846 165.735 L 550.9959 165.2871 L 552.4385 163.5738 L 552.9138 162.4521 L 553.1429 160.4917 L 553.7709 159.3139 L 554.4116 158.7707 Z" fill="[object Object]" fill-opacity="1" stroke="dodgerblue" stroke-width="1" paint-order="fill" stroke-opacity="1" stroke-dasharray="" stroke-linecap="butt" stroke-miterlimit="10" style="filter: url(&quot;#zr2323-shadow-1&quot;);">
</path>
<text xml:space="preserve" fill="#bdbdd9" fill-opacity="1" stroke="none" transform="matrix(1,0,0,1,526.2942,377.9854)" dominant-baseline="central" text-anchor="middle" x="0" y="0" style="font: 13 13px sans-serif;">南京市</text>
<text xml:space="preserve" fill="#bdbdd9" fill-opacity="1" stroke="none" transform="matrix(1,0,0,1,621.545,415.1877)" dominant-baseline="central" text-anchor="middle" x="0" y="0" style="font: 13 13px sans-serif;">无锡市</text>
<text xml:space="preserve" fill="#bdbdd9" fill-opacity="1" stroke="none" transform="matrix(1,0,0,1,429.2103,133.5886)" dominant-baseline="central" text-anchor="middle" x="0" y="0" style="font: 13 13px sans-serif;">徐州市</text>
<text xml:space="preserve" fill="#bdbdd9" fill-opacity="1" stroke="none" transform="matrix(1,0,0,1,592.091,409.4989)" dominant-baseline="central" text-anchor="middle" x="0" y="0" style="font: 13 13px sans-serif;">常州市</text>
<text xml:space="preserve" fill="#bdbdd9" fill-opacity="1" stroke="none" transform="matrix(1,0,0,1,665.6358,430.0913)" dominant-baseline="central" text-anchor="middle" x="0" y="0" style="font: 13 13px sans-serif;">苏州市</text>
<text xml:space="preserve" fill="#bdbdd9" fill-opacity="1" stroke="none" transform="matrix(1,0,0,1,699.0997,353.2736)" dominant-baseline="central" text-anchor="middle" x="0" y="0" style="font: 13 13px sans-serif;">南通市</text>
<text xml:space="preserve" fill="rgba(189,189,217,1)" fill-opacity="1" stroke="none" transform="matrix(1,0,0,1,549.9266,112.6252)" dominant-baseline="central" text-anchor="middle" x="0" y="0" style="font: 13 13px sans-serif;">连云港市</text>
<text xml:space="preserve" fill="#bdbdd9" fill-opacity="1" stroke="none" transform="matrix(1,0,0,1,535.4743,228.1963)" dominant-baseline="central" text-anchor="middle" x="0" y="0" style="font: 13 13px sans-serif;">淮安市</text>
<text xml:space="preserve" fill="rgba(189,189,217,1)" fill-opacity="1" stroke="none" transform="matrix(1,0,0,1,633.3389,215.8815)" dominant-baseline="central" text-anchor="middle" x="0" y="0" style="font: 13 13px sans-serif;">盐城市</text>
<text xml:space="preserve" fill="#bdbdd9" fill-opacity="1" stroke="none" transform="matrix(1,0,0,1,576.2767,287.529)" dominant-baseline="central" text-anchor="middle" x="0" y="0" style="font: 13 13px sans-serif;">扬州市</text>
<text xml:space="preserve" fill="#bdbdd9" fill-opacity="1" stroke="none" transform="matrix(1,0,0,1,576.9068,372.6171)" dominant-baseline="central" text-anchor="middle" x="0" y="0" style="font: 13 13px sans-serif;">镇江市</text>
<text xml:space="preserve" fill="#bdbdd9" fill-opacity="1" stroke="none" transform="matrix(1,0,0,1,624.3052,311.8101)" dominant-baseline="central" text-anchor="middle" x="0" y="0" style="font: 13 13px sans-serif;">泰州市</text>
<text xml:space="preserve" fill="#bdbdd9" fill-opacity="1" stroke="none" transform="matrix(1,0,0,1,507.7388,190.518)" dominant-baseline="central" text-anchor="middle" x="0" y="0" style="font: 13 13px sans-serif;">宿迁市</text>
<defs>
<filter id="zr2323-shadow-0" x="-100%" y="-100%" width="300%" height="300%">
<feDropShadow dx="0" dy="1" flood-color="rgba(0,0,0,1)" stdDeviation="0 0">
</feDropShadow>
</filter>
<filter id="zr2323-shadow-1" x="-100%" y="-100%" width="300%" height="300%">
<feDropShadow dx="0" dy="1" flood-color="#000000" stdDeviation="0 0">
</feDropShadow>
</filter>
</defs>
</g>
</svg>