<svg xmlns="http://www.w3.org/2000/svg" xmlns:xlink="http://www.w3.org/1999/xlink" version="1.1" baseProfile="full" width="1108" height="550" style="user-select: none; position: absolute; left: 0px; top: 0px;">
<g>
<rect width="1108" height="550" x="0" y="0" id="0" style="fill: transparent;">
</rect>
</g>
<g>
<path d="M -21 -5 L 21 -5 L 21 21 L -21 21 L -21 -5" fill="rgba(0,0,0,0)" fill-opacity="1" stroke="#ccc" stroke-width="0" paint-order="fill" stroke-opacity="1" stroke-dasharray="" stroke-linecap="butt" stroke-miterlimit="10" transform="matrix(1,0,0,1,554,5)">
</path>
<text xml:space="preserve" fill="#34471f" fill-opacity="1" stroke="none" transform="matrix(1,0,0,1,554,5)" dominant-baseline="central" text-anchor="middle" x="0" y="8" style="font: 16px &quot;Microsoft YaHei&quot;;">河北</text>
<path d="M 411.8965 313.5051 L 410.0558 313.1764 L 408.9263 315.518 L 408.6881 316.7582 L 407.166 317.3139 L 406.3454 316.6159 L 405.3896 317.5318 L 405.5827 319.8488 L 404.9938 320.654 L 403.2336 320.9699 L 401.5022 320.5561 L 400.5111 321.0322 L 400.0767 323.0349 L 400.0059 324.9939 L 397.9592 326.9047 L 397.7179 330.5413 L 397.1805 331.277 L 399.0372 333.0877 L 398.5192 334.2119 L 396.7524 336.3005 L 396.1217 338.6444 L 396.5658 339.8369 L 397.7179 341.2933 L 397.1547 344.668 L 397.0936 346.1796 L 398.1716 347.3918 L 398.3743 348.3941 L 399.8096 349.0832 L 401.7114 348.7118 L 402.7316 349.1861 L 403.8385 350.5379 L 405.4765 349.9828 L 405.6439 351.3215 L 406.8217 351.6035 L 405.9238 352.5976 L 406.4516 353.0187 L 407.7291 352.7947 L 409.7533 353.386 L 411.3591 352.9784 L 411.5972 354.4208 L 411.0405 354.2192 L 410.4162 356.7556 L 411.1274 357.1501 L 412.6592 359.1319 L 412.7235 359.8809 L 413.7404 360.6075 L 413.8466 362.124 L 413.5441 364.9384 L 414.9955 365.3111 L 416.08 367.5028 L 416.3985 368.8462 L 417.7887 370.2259 L 418.5256 373.0809 L 418.4581 375.4156 L 419.0792 376.8286 L 420.2891 376.7836 L 420.9005 378.0304 L 422.1588 379.1965 L 422.0236 380.5791 L 419.9963 382.0162 L 419.6423 383.9224 L 423.372 382.9399 L 424.3889 383.7917 L 426.3969 384.5039 L 426.973 385.9961 L 426.5417 387.8452 L 425.7501 389.7491 L 425.8982 391.7079 L 422.9504 396.7123 L 421.8016 398.1675 L 421.3768 399.4785 L 421.0937 402.0971 L 423.4203 401.301 L 424.8008 398.3845 L 425.6439 398.1902 L 426.3101 398.9857 L 426.6737 397.8512 L 427.8 397.4263 L 428.2988 395.8899 L 429.2256 395.7137 L 430.7541 397.0241 L 432.7848 397.5031 L 433.6633 398.1494 L 435.2047 397.2546 L 435.5684 397.7788 L 436.7623 397.5799 L 437.9497 396.4909 L 438.5483 396.8659 L 438.6737 395.7905 L 440.6529 394.4353 L 441.7277 394.2592 L 444.2378 392.6334 L 446.0688 392.7779 L 449.348 394.2275 L 452.4405 394.0107 L 454.1171 393.4056 L 455.0535 391.7937 L 455.4816 390.0244 L 456.418 389.0272 L 458.3585 389.4468 L 460.0061 389.1896 L 460.566 387.0739 L 462.2201 385.9826 L 462.5355 384.603 L 463.7036 384.2424 L 464.2217 383.305 L 464.9554 383.5438 L 465.3609 382.4217 L 466.7575 382.4487 L 468.1799 383.039 L 469.554 381.5251 L 470.2684 382.0612 L 470.809 380.9305 L 472.2411 382.1379 L 473.6988 381.3269 L 473.6312 379.4667 L 474.4647 379.0795 L 473.8114 378.08 L 475.0633 377.8548 L 475.0761 377.1617 L 476.3569 376.9186 L 476.7688 377.7018 L 477.7407 377.1167 L 478.2298 379.0074 L 477.8533 380.399 L 478.8477 381.0791 L 481.5959 382.2009 L 482.3972 382.8678 L 483.3111 385.1756 L 482.9282 386.2983 L 482.9925 388.0256 L 483.1566 388.4271 L 485.1164 389.0994 L 485.3191 387.0514 L 486.0947 387.0559 L 486.5323 385.5587 L 486.1044 384.6932 L 486.9442 383.4987 L 489.3159 383.8863 L 489.9853 383.5708 L 489.5766 382.5704 L 488.2765 382.2415 L 487.4816 381.1602 L 488.8461 379.6739 L 487.8775 378.7553 L 487.7455 377.3012 L 488.2701 376.3335 L 488.4149 374.3493 L 489.6989 374.1378 L 489.76 372.6896 L 488.2765 372.3254 L 488.5372 370.5675 L 489.5573 369.8393 L 490.7061 369.7225 L 490.9121 368.0914 L 492.7109 368.5406 L 493.1615 367.5927 L 493.0842 365.9981 L 492.5307 365.0192 L 493.4962 364.7633 L 492.1896 364.2201 L 492.8493 363.1338 L 493.6249 360.0378 L 494.4391 358.67 L 493.6892 357.9212 L 492.2733 358.8 L 491.3015 358.2888 L 489.4286 358.3606 L 488.505 355.0571 L 487.6039 354.9406 L 487.3787 351.1513 L 487.8067 350.1977 L 486.4358 349.5218 L 486.4905 347.6737 L 485.3867 348.5372 L 483.9225 348.2017 L 483.4398 346.846 L 483.5299 345.0302 L 482.8477 344.8111 L 481.5251 346.2198 L 480.7367 348.4567 L 479.9354 348.4388 L 478.6481 346.9087 L 477.8308 347.0966 L 475.6103 346.5776 L 474.4937 345.7592 L 473.8855 344.6635 L 473.0295 344.9855 L 473.5057 346.5687 L 473.0166 346.9847 L 471.7809 346.4077 L 469.6312 347.0071 L 469.6827 346.0677 L 468.6787 345.4685 L 466.5484 345.3164 L 465.9144 346.6582 L 464.4631 346.5284 L 464.3215 345.218 L 465.2869 344.5428 L 465.5089 343.5592 L 466.307 343.157 L 467.3175 341.3112 L 466.809 341.2442 L 466.3327 338.2961 L 465.6795 337.9255 L 464.2668 335.8898 L 462.8476 335.1043 L 463.0568 334.2521 L 462.1944 333.4356 L 462.0367 335.1133 L 461.097 334.1673 L 461.6859 333.4669 L 460.6755 331.3216 L 458.3907 331.0362 L 456.6819 332.0217 L 455.2177 331.5401 L 453.7921 332.5881 L 452.6947 330.4967 L 451.8613 329.8191 L 449.8757 326.1965 L 449.3029 324.3527 L 448.2442 324.7401 L 446.4549 324.7401 L 447.6939 323.2441 L 446.9216 321.9489 L 446.8926 320.8142 L 446.1782 320.5161 L 444.9907 318.8702 L 442.6899 317.4562 L 441.9433 317.9008 L 440.7236 317.1538 L 438.3584 318.341 L 437.0905 318.0742 L 435.6005 316.9804 L 430.6448 318.2076 L 429.1066 318.9859 L 426.442 319.4529 L 426.2361 320.1202 L 424.2795 320.2047 L 422.5739 318.3277 L 421.3929 318.1854 L 419.5361 318.9726 L 418.1781 317.4295 L 416.4243 317.2516 L 416.5562 316.5048 L 414.0912 314.2915 L 413.1579 314.336 L 411.8965 313.5051 Z" fill="[object Object]" fill-opacity="1" stroke="dodgerblue" stroke-width="1" paint-order="fill" stroke-opacity="1" stroke-dasharray="" stroke-linecap="butt" stroke-miterlimit="10" style="filter: url(&quot;#zr2323-shadow-0&quot;);">
</path>
<path d="M 687.1059 268.5607 L 685.1654 269.0095 L 684.0101 268.5474 L 681.7446 266.2906 L 680.4124 266.5897 L 674.3238 265.6002 L 673.5129 266.5853 L 671.3278 266.0223 L 671.8685 265.0417 L 671.4888 263.2172 L 669.146 262.7777 L 669.3777 261.868 L 670.2434 261.2353 L 668.3319 260.8443 L 667.9908 259.9877 L 665.8154 260.6949 L 665.1686 259.386 L 664.1162 258.8371 L 663.2763 256.1416 L 663.5531 255.6238 L 662.2723 253.8864 L 662.1532 252.5268 L 661.2458 251.7901 L 660.3962 249.3836 L 659.7526 246.1506 L 661.0463 245.3799 L 660.9336 244.3949 L 662.3142 243.7908 L 661.8829 242.0228 L 662.9545 240.5398 L 662.8065 239.8007 L 663.7268 238.1217 L 664.0326 234.8048 L 664.8114 234.3025 L 665.2683 232.9181 L 665.3101 229.9977 L 664.3319 228.7673 L 664.3673 226.2115 L 666.0857 224.5636 L 666.9771 224.1845 L 667.3021 220.3377 L 666.3978 218.9966 L 665.5032 219.0577 L 664.4348 218.2654 L 663.5048 218.3742 L 660.7598 216.6422 L 659.8105 217.3558 L 658.2047 217.5168 L 658.3302 216.4246 L 656.4445 215.8894 L 654.2884 214.1149 L 652.4219 213.6235 L 649.5547 212.2888 L 649.4324 211.1022 L 647.6431 210.3462 L 647.5949 208.969 L 647.9778 206.1812 L 648.9014 205.6299 L 648.5249 204.5449 L 649.5611 202.5926 L 648.3833 202.0548 L 647.1476 203.1522 L 646.1306 203.3474 L 643.7589 202.6316 L 642.4911 202.7791 L 641.0816 202.4451 L 640.3092 201.1137 L 638.9384 201.6428 L 638.7517 201.2091 L 636.2545 202.263 L 634.8161 201.8509 L 634.063 200.0862 L 632.8949 199.2409 L 629.5868 202.0287 L 628.7404 201.981 L 628.5473 202.9352 L 629.1555 203.5426 L 627.5787 205.2393 L 626.9769 206.6067 L 624.8402 206.6848 L 623.9488 208.9907 L 622.446 210.1115 L 620.9013 210.7677 L 616.3091 211.2153 L 615.7331 212.2497 L 614.2045 212.3019 L 613.0268 212.854 L 611.2021 212.8191 L 608.3767 214.976 L 606.5199 214.1758 L 605.4933 214.4106 L 604.6374 215.5632 L 603.0895 216.6204 L 601.7475 216.5377 L 601.2391 217.3079 L 599.5336 217.4472 L 599.5818 218.4003 L 600.8272 218.8922 L 602.285 220.4596 L 602.5746 221.5136 L 603.2858 221.775 L 603.437 222.9425 L 603.0187 223.9186 L 604.1868 223.6005 L 604.5279 224.86 L 606.2045 224.0886 L 606.8932 225.0082 L 608.3831 224.8687 L 608.7114 225.9412 L 609.6156 226.3903 L 608.7178 227.3889 L 608.1965 227.1839 L 608.0066 229.1251 L 609.931 228.7848 L 610.6647 229.6748 L 609.9085 232.4814 L 608.6181 232.6954 L 607.1828 232.2064 L 606.1241 231.294 L 604.5183 232.0449 L 602.5038 232.4422 L 600.2254 230.5694 L 597.6414 230.5302 L 598.1208 231.9095 L 597.3968 233.5426 L 596.4957 233.9313 L 597.0267 235.0714 L 596.116 236.452 L 596.6888 237.6408 L 596.8175 239.0224 L 598.1594 241.0822 L 597.6156 241.3972 L 598.8288 243.7514 L 598.0597 245.3492 L 598.7226 246.6937 L 600.5601 247.3594 L 600.5698 248.091 L 599.6429 248.6474 L 600.8883 250.0892 L 603.0155 250.3259 L 602.9736 251.207 L 603.6301 252.5487 L 604.1997 252.6539 L 603.8811 254.7112 L 602.8738 255.242 L 602.8353 256.2996 L 601.725 256.9317 L 601.8698 257.7043 L 602.5842 256.8966 L 603.82 258.7931 L 605.0332 257.8887 L 606.2367 258.96 L 605.2263 259.2059 L 605.2649 259.856 L 606.3011 260.4665 L 606.5907 261.8285 L 608.042 260.5895 L 607.6848 258.8854 L 608.4571 258.7536 L 608.1933 257.858 L 609.1908 257.2126 L 610.9093 257.0282 L 612.145 257.7613 L 613.3936 257.8667 L 614.2399 257.3574 L 615.4628 257.713 L 617.5417 258.8766 L 616.1 261.8241 L 616.4508 262.7601 L 615.7621 263.1952 L 615.7428 265.6837 L 614.7323 266.0399 L 614.343 266.858 L 614.4202 269.7666 L 613.7926 270.3212 L 613.4419 271.827 L 611.0767 272.3289 L 610.9801 273.0821 L 612.6728 273.8354 L 613.9696 273.0733 L 612.9238 274.7915 L 613.3003 275.4039 L 615.2472 275.0911 L 615.421 275.6816 L 619.4628 276.2722 L 619.7331 277.1935 L 621.7026 278.3002 L 622.1016 277.7446 L 622.6905 279.5703 L 624.1097 280.179 L 624.1097 281.8424 L 622.7195 281.891 L 622.1724 283.8154 L 623.4113 283.9258 L 624.3961 282.9943 L 624.7597 283.7977 L 627.1507 285.0871 L 629.0429 288.1793 L 630.0276 291.0214 L 632.1579 294.9936 L 634.2722 295.8832 L 635.4629 295.839 L 636.4219 296.5383 L 639.6206 296.5206 L 639.4918 298.389 L 639.8426 299.2172 L 641.2714 299.9702 L 645.5192 303.418 L 647.2377 303.6973 L 647.9649 303.3648 L 651.2152 299.2349 L 649.5096 297.3795 L 647.6206 291.2293 L 648.5506 291.415 L 648.9883 290.6943 L 650.4203 290.1195 L 649.9247 288.5593 L 650.6263 287.7771 L 652.866 286.7875 L 655.6625 287.4104 L 657.0012 288.1527 L 659.0639 288.3869 L 661.7607 288.0423 L 663.9457 286.4208 L 664.8725 287.2823 L 665.9215 287.1807 L 667.0865 285.8246 L 668.6247 285.3741 L 665.8862 287.9715 L 665.5579 289.3681 L 667.3793 289.0587 L 669.9763 286.3856 L 672.2868 284.8089 L 673.0045 283.1444 L 675.9071 281.1231 L 677.1847 278.4722 L 680.4027 274.4213 L 683.0994 273.7296 L 684.7825 272.9764 L 687.0061 269.8194 L 687.1059 268.5607 Z M 610.0372 272.078 L 609.9149 270.8891 L 607.6623 269.8325 L 605.7765 270.0306 L 605.9052 271.2809 L 604.4442 271.4307 L 604.2383 269.7357 L 602.9511 270.1495 L 601.4772 270.0659 L 600.8369 269.234 L 600.2962 270.1759 L 599.3179 270.2287 L 598.6518 271.5055 L 597.5191 272.2805 L 596.7918 273.4036 L 597.5641 274.6901 L 600.5279 273.9455 L 602.6518 274.8267 L 603.3179 276.2193 L 604.248 275.6199 L 604.3316 273.364 L 606.1015 273.7869 L 608.0292 273.5799 L 610.0372 272.078 Z M 652.5249 293.6619 L 653.0012 294.4936 L 653.6866 293.5114 L 652.9433 292.2331 L 652.0389 292.755 L 652.5249 293.6619 Z M 664.5249 287.7683 L 663.1798 289.4388 L 662.0535 290.0444 L 662.0663 291.0524 L 663.9232 290.7075 L 664.6408 289.62 L 664.5249 287.7683 Z M 663.0028 287.026 L 661.7992 288.4621 L 662.3302 289.1117 L 663.1219 288.2543 L 663.0028 287.026 Z" fill="[object Object]" fill-opacity="1" stroke="dodgerblue" stroke-width="1" paint-order="fill" stroke-opacity="1" stroke-dasharray="" stroke-linecap="butt" stroke-miterlimit="10" style="filter: url(&quot;#zr2323-shadow-0&quot;);">
</path>
<path d="M 687.1059 268.5607 L 686.3625 266.5237 L 684.6441 263.9381 L 686.7905 256.7517 L 687.9039 253.3864 L 689.0688 248.9936 L 689.8412 247.7931 L 690.9675 247.4864 L 691.0158 246.3564 L 694.4237 243.1343 L 696.5283 242.6485 L 698.0922 243.073 L 698.0858 241.6597 L 697.2169 241.196 L 698.2564 237.8506 L 699.1863 236.9546 L 700.6119 236.3909 L 701.867 237.1295 L 703.077 235.5038 L 704.554 235.7049 L 704.9499 234.818 L 705.4132 235.5869 L 707.5597 234.3069 L 710.62 233.6823 L 712.11 231.8178 L 713.1076 231.3114 L 713.0464 232.739 L 714.398 233.6037 L 714.8968 232.9967 L 713.3232 229.5701 L 713.9861 228.1959 L 713.0207 226.9921 L 712.1196 226.822 L 711.0255 227.655 L 709.7994 227.0924 L 709.2749 225.963 L 709.8348 224.8513 L 708.0842 223.339 L 709.3779 220.6643 L 709.0271 220.1025 L 708.5476 216.4333 L 707.0834 217.2296 L 705.0464 215.324 L 704.8115 214.3149 L 702.4816 215.3501 L 702.9 213.6583 L 703.8236 212.1193 L 703.3344 210.8502 L 702.295 210.029 L 701.1236 207.9787 L 701.2073 206.4808 L 700.5476 205.2176 L 701.2395 203.1131 L 700.8887 201.1831 L 701.4647 199.8911 L 698.8839 196.758 L 698.9804 195.7487 L 699.653 195.4845 L 699.7624 194.1379 L 697.9152 193.2462 L 697.2137 193.7007 L 696.3899 193.2635 L 695.743 194.454 L 695.0802 194.6445 L 693.2748 194.2072 L 689.2555 194.376 L 688.0616 194.7831 L 686.2595 194.848 L 683.9458 193.9777 L 682.163 192.2464 L 682.7776 190.8877 L 682.6747 189.9187 L 680.0327 189.5554 L 679.2474 190.1783 L 679.0415 189.2137 L 676.3802 189.9361 L 675.4212 190.931 L 674.2659 189.7674 L 671.7397 191.7141 L 670.9996 191.5886 L 670.2466 192.6142 L 668.7052 192.9605 L 669.3745 194.4583 L 667.0157 194.8047 L 665.4035 194.034 L 664.2514 195.0515 L 662.1082 194.7355 L 660.7792 196.1559 L 660.6408 197.3861 L 659.6786 198.2311 L 657.1943 198.6341 L 656.1548 197.4512 L 653.8636 200.1859 L 652.2063 201.053 L 651.9135 201.8856 L 653.191 204.8487 L 653.0108 206.6153 L 651.405 208.3739 L 650.8387 209.7031 L 649.9923 209.8769 L 649.4324 211.1022 L 649.5547 212.2888 L 652.4219 213.6235 L 654.2884 214.1149 L 656.4445 215.8894 L 658.3302 216.4246 L 658.2047 217.5168 L 659.8105 217.3558 L 660.7598 216.6422 L 663.5048 218.3742 L 664.4348 218.2654 L 665.5032 219.0577 L 666.3978 218.9966 L 667.3021 220.3377 L 666.9771 224.1845 L 666.0857 224.5636 L 664.3673 226.2115 L 664.3319 228.7673 L 665.3101 229.9977 L 665.2683 232.9181 L 664.8114 234.3025 L 664.0326 234.8048 L 663.7268 238.1217 L 662.8065 239.8007 L 662.9545 240.5398 L 661.8829 242.0228 L 662.3142 243.7908 L 660.9336 244.3949 L 661.0463 245.3799 L 659.7526 246.1506 L 660.3962 249.3836 L 661.2458 251.7901 L 662.1532 252.5268 L 662.2723 253.8864 L 663.5531 255.6238 L 663.2763 256.1416 L 664.1162 258.8371 L 665.1686 259.386 L 665.8154 260.6949 L 667.9908 259.9877 L 668.3319 260.8443 L 670.2434 261.2353 L 669.3777 261.868 L 669.146 262.7777 L 671.4888 263.2172 L 671.8685 265.0417 L 671.3278 266.0223 L 673.5129 266.5853 L 674.3238 265.6002 L 680.4124 266.5897 L 681.7446 266.2906 L 684.0101 268.5474 L 685.1654 269.0095 L 687.1059 268.5607 Z" fill="[object Object]" fill-opacity="1" stroke="dodgerblue" stroke-width="1" paint-order="fill" stroke-opacity="1" stroke-dasharray="" stroke-linecap="butt" stroke-miterlimit="10" style="filter: url(&quot;#zr2323-shadow-0&quot;);">
</path>
<path d="M 494.2041 447.6881 L 493.4543 447.857 L 491.4591 446.9259 L 489.8018 447.1222 L 488.4084 446.5927 L 487.7487 445.5387 L 487.0408 446.2733 L 486.4036 443.6182 L 485.6249 442.168 L 486.5323 439.989 L 484.4117 440.463 L 480.254 440.0756 L 479.0633 441.0146 L 478.1622 441.1696 L 478.7415 439.196 L 478.5291 437.8565 L 477.3738 438.0159 L 476.4631 437.5512 L 475.5299 436.3533 L 476.4599 435.5154 L 475.7873 434.0448 L 475.0375 433.6351 L 473.1389 434.1403 L 471.266 433.8445 L 469.4575 434.5774 L 467.6489 434.6912 L 464.7784 433.2937 L 463.2853 433.2891 L 461.9594 434.072 L 462.0527 434.5501 L 459.5073 437.0229 L 458.7639 436.0527 L 457.2933 435.7931 L 456.8492 435.0828 L 456.0254 435.4061 L 455.4719 436.7496 L 453.6601 436.7905 L 452.5435 438.0615 L 448.434 438.5399 L 447.6649 439.0229 L 447.8419 441.5754 L 445.4574 442.7836 L 444.0092 442.4279 L 443.1758 441.4614 L 441.1098 442.013 L 437.7116 441.1696 L 436.8362 441.5252 L 435.2498 440.8368 L 435.0213 441.6118 L 432.6464 440.8687 L 431.3013 441.7714 L 429.1291 441.7121 L 425.0003 442.0404 L 424.051 441.6346 L 424.4758 440.5679 L 423.1532 439.3419 L 421.3704 439.2143 L 419.5071 436.959 L 419.1725 435.1784 L 417.0293 432.3743 L 414.9922 431.4733 L 414.1234 430.5315 L 412.8973 430.254 L 411.3559 430.4542 L 409.6567 431.5962 L 408.7782 433.3665 L 407.9866 434.2041 L 409.5506 438.312 L 409.2545 439.9616 L 408.5208 439.8887 L 407.0019 441.2334 L 406.4902 440.6955 L 406.4741 439.3875 L 405.4154 438.8042 L 404.7331 439.1459 L 403.6969 440.928 L 404.0896 442.9934 L 403.5779 444.1518 L 403.9318 445.3151 L 402.6672 445.6117 L 399.8643 447.8068 L 398.3164 447.4599 L 397.3188 447.8479 L 396.6623 449.1855 L 394.812 448.633 L 393.721 449.5827 L 393.1032 450.8295 L 393.7146 451.5328 L 395.1949 451.0258 L 394.9439 452.5882 L 393.6889 454.352 L 394.1812 455.6914 L 396.6237 456.0891 L 397.1161 456.9167 L 396.8393 458.4442 L 398.3422 458.9931 L 399.2689 460.5441 L 399.2979 461.5234 L 397.2191 462.4435 L 397.853 462.828 L 397.5762 465.0991 L 398.9665 465.8869 L 399.2239 467.3575 L 401.3317 467.7791 L 403.3912 469.7589 L 405.306 469.8781 L 406.3744 472.6707 L 406.5159 474.2808 L 407.6584 473.7211 L 408.1217 474.4138 L 409.7887 474.9782 L 410.8249 476.052 L 412.7203 476.1714 L 412.6012 474.7809 L 414.0043 474.5285 L 414.989 475.662 L 415.4943 477.1491 L 416.5208 476.8323 L 416.6624 475.7171 L 417.808 475.7125 L 417.5827 474.2441 L 418.1588 474.6157 L 419.1017 476.9884 L 419.6455 477.1629 L 419.6777 475.1801 L 418.9408 475.1847 L 419.2433 474.2808 L 420.4919 475.2949 L 421.1451 474.4551 L 421.5763 474.9553 L 421.2739 476.456 L 422.7542 476.1301 L 423.047 476.9333 L 422.1009 478.3382 L 422.9955 479.7113 L 424.2409 480.1384 L 424.6077 479.624 L 426.0365 479.9639 L 426.516 479.5 L 428.8266 480.607 L 428.4372 481.9255 L 430.1524 481.783 L 430.5547 479.9455 L 431.1918 480.0879 L 431.7872 481.3006 L 432.8362 480.5472 L 434.5257 481.6774 L 436.4469 481.6084 L 437.29 481.0985 L 437.8403 482.8031 L 439.6617 483.419 L 440.4694 483.1891 L 440.9264 484.4393 L 443.3689 484.9864 L 444.0768 486.3199 L 446.7188 486.743 L 447.9835 488.132 L 449.4317 488.7899 L 449.216 490.1013 L 450.6352 489.6365 L 451.6167 489.908 L 452.862 488.8359 L 454.6674 488.9601 L 454.7317 488.4356 L 456.1509 488.8497 L 456.8428 487.7962 L 458.6963 489.8896 L 459.0632 489.3098 L 461.3995 489.9448 L 463.0214 489.6733 L 463.0825 488.5645 L 464.1252 488.3298 L 465.7825 488.8221 L 465.5122 490.3774 L 466.4872 492.237 L 465.8951 494.7467 L 466.1718 495 L 467.8999 493.6874 L 470.101 493.5584 L 472.4856 490.7134 L 472.6143 487.3777 L 473.3287 486.2923 L 475.4333 486.6969 L 475.7262 484.8761 L 477.3545 484.1865 L 478.7543 485.437 L 479.6843 485.1335 L 480.3151 483.9797 L 482.3425 485.4232 L 483.2596 486.7383 L 484.2089 488.9969 L 485.3578 489.6779 L 485.1099 490.9205 L 485.9048 492.3198 L 487.3272 492.3613 L 488.727 491.3485 L 489.1615 489.6227 L 489.9016 489.5767 L 490.5034 487.8054 L 491.0601 489.0153 L 491.8421 488.2378 L 492.7656 488.1734 L 492.8461 486.8625 L 493.48 486.7567 L 493.7858 487.9894 L 494.468 488.2517 L 494.0851 485.2991 L 494.114 481.7187 L 493.5541 481.4614 L 493.4189 479.7388 L 492.0963 479.7204 L 491.1277 478.6228 L 491.4237 476.6533 L 490.0014 476.6258 L 488.5951 477.5393 L 488.2508 476.8828 L 488.6981 475.2857 L 487.7391 473.9138 L 487.2564 471.57 L 485.1196 470.5383 L 485.8533 469.1951 L 486.1044 467.8249 L 485.2612 467.0276 L 484.8171 467.385 L 483.8839 464.9205 L 485.0714 464.1511 L 484.6626 462.8371 L 485.6216 462.9058 L 486.8188 461.3816 L 486.97 459.2218 L 488.0158 456.2125 L 488.5662 456.5783 L 489.6795 454.8868 L 489.6056 454.2423 L 490.5935 453.8127 L 491.3047 452.2364 L 492.6144 451.711 L 492.8075 450.4366 L 494.2041 447.6881 Z" fill="[object Object]" fill-opacity="1" stroke="dodgerblue" stroke-width="1" paint-order="fill" stroke-opacity="1" stroke-dasharray="" stroke-linecap="butt" stroke-miterlimit="10" style="filter: url(&quot;#zr2323-shadow-0&quot;);">
</path>
<path d="M 482.9925 388.0256 L 482.9282 386.2983 L 483.3111 385.1756 L 482.3972 382.8678 L 481.5959 382.2009 L 478.8477 381.0791 L 477.8533 380.399 L 478.2298 379.0074 L 477.7407 377.1167 L 476.7688 377.7018 L 476.3569 376.9186 L 475.0761 377.1617 L 475.0633 377.8548 L 473.8114 378.08 L 474.4647 379.0795 L 473.6312 379.4667 L 473.6988 381.3269 L 472.2411 382.1379 L 470.809 380.9305 L 470.2684 382.0612 L 469.554 381.5251 L 468.1799 383.039 L 466.7575 382.4487 L 465.3609 382.4217 L 464.9554 383.5438 L 464.2217 383.305 L 463.7036 384.2424 L 462.5355 384.603 L 462.2201 385.9826 L 460.566 387.0739 L 460.0061 389.1896 L 458.3585 389.4468 L 456.418 389.0272 L 455.4816 390.0244 L 455.0535 391.7937 L 454.1171 393.4056 L 452.4405 394.0107 L 449.348 394.2275 L 446.0688 392.7779 L 444.2378 392.6334 L 441.7277 394.2592 L 440.6529 394.4353 L 438.6737 395.7905 L 438.5483 396.8659 L 437.9497 396.4909 L 436.7623 397.5799 L 435.5684 397.7788 L 435.2047 397.2546 L 433.6633 398.1494 L 432.7848 397.5031 L 430.7541 397.0241 L 429.2256 395.7137 L 428.2988 395.8899 L 427.8 397.4263 L 426.6737 397.8512 L 426.3101 398.9857 L 425.6439 398.1902 L 424.8008 398.3845 L 423.4203 401.301 L 421.0937 402.0971 L 418.6447 404.2643 L 417.9367 407.8907 L 415.9963 409.1136 L 415.0405 410.5045 L 414.8828 412.544 L 414.2746 413.8542 L 414.2521 415.2465 L 412.5755 416.8568 L 411.7485 418.5721 L 411.5136 420.0428 L 408.5626 421.0916 L 408.2698 421.5775 L 408.5787 424.0985 L 407.8096 426.1935 L 408.3406 427.0753 L 409.3189 427.2572 L 409.4154 428.3848 L 408.4982 430.1358 L 409.6567 431.5962 L 411.3559 430.4542 L 412.8973 430.254 L 414.1234 430.5315 L 414.9922 431.4733 L 417.0293 432.3743 L 419.1725 435.1784 L 419.5071 436.959 L 421.3704 439.2143 L 423.1532 439.3419 L 424.4758 440.5679 L 424.051 441.6346 L 425.0003 442.0404 L 429.1291 441.7121 L 431.3013 441.7714 L 432.6464 440.8687 L 435.0213 441.6118 L 435.2498 440.8368 L 436.8362 441.5252 L 437.7116 441.1696 L 441.1098 442.013 L 443.1758 441.4614 L 444.0092 442.4279 L 445.4574 442.7836 L 447.8419 441.5754 L 447.6649 439.0229 L 448.434 438.5399 L 452.5435 438.0615 L 453.6601 436.7905 L 455.4719 436.7496 L 456.0254 435.4061 L 456.8492 435.0828 L 457.2933 435.7931 L 458.7639 436.0527 L 459.5073 437.0229 L 462.0527 434.5501 L 461.9594 434.072 L 463.2853 433.2891 L 464.7784 433.2937 L 467.6489 434.6912 L 469.4575 434.5774 L 471.266 433.8445 L 473.1389 434.1403 L 475.0375 433.6351 L 475.7873 434.0448 L 476.4599 435.5154 L 475.5299 436.3533 L 476.4631 437.5512 L 477.3738 438.0159 L 478.5291 437.8565 L 478.7415 439.196 L 478.1622 441.1696 L 479.0633 441.0146 L 480.254 440.0756 L 484.4117 440.463 L 486.5323 439.989 L 485.6249 442.168 L 486.4036 443.6182 L 487.0408 446.2733 L 487.7487 445.5387 L 488.4084 446.5927 L 489.8018 447.1222 L 491.4591 446.9259 L 493.4543 447.857 L 494.2041 447.6881 L 495.4398 446.6521 L 496.4793 447.0765 L 497.2387 445.7166 L 498.9153 446.3052 L 502.1945 444.8224 L 503.5815 443.8189 L 504.5436 443.7869 L 504.7657 442.0039 L 505.9049 439.1368 L 507.3755 437.5285 L 508.2412 437.7563 L 508.9942 435.4926 L 510.201 433.3529 L 509.5735 433.2208 L 509.1776 431.7919 L 510.8446 430.4952 L 510.9829 429.3216 L 513.0682 427.2935 L 511.736 424.1621 L 509.6861 422.9627 L 508.8526 421.7818 L 508.1671 417.2062 L 505.2613 414.0402 L 504.1221 413.9223 L 503.9612 412.7889 L 501.9692 412.7072 L 501.493 411.3112 L 500.3087 411.0393 L 499.8453 410.3369 L 500.2765 408.9687 L 499.1695 410.0922 L 496.7689 409.3719 L 496.3023 407.5782 L 495.6265 406.5503 L 493.7246 405.6268 L 491.7069 405.2827 L 489.8212 402.6038 L 487.5138 401.2467 L 488.2636 400.3603 L 490.4808 400.3196 L 491.8517 399.8131 L 490.8091 399.3565 L 491.1566 398.597 L 490.1687 397.9551 L 490.3747 397.0964 L 491.5814 397.3585 L 491.3594 398.0636 L 493.0489 397.6568 L 491.826 397.3223 L 490.7769 396.2197 L 490.5613 395.3704 L 489.1615 395.0225 L 488.2347 393.8481 L 488.3055 396.1746 L 485.6088 393.4959 L 484.373 392.6876 L 482.0979 392.7238 L 480.3215 394.0288 L 479.6393 393.5501 L 480.254 392.9224 L 478.8573 391.0444 L 479.8034 390.4892 L 480.373 388.594 L 481.6249 387.8046 L 482.9925 388.0256 Z" fill="[object Object]" fill-opacity="1" stroke="dodgerblue" stroke-width="1" paint-order="fill" stroke-opacity="1" stroke-dasharray="" stroke-linecap="butt" stroke-miterlimit="10" style="filter: url(&quot;#zr2323-shadow-0&quot;);">
</path>
<path d="M 486.4905 347.6737 L 487.7359 347.6782 L 488.0706 346.0946 L 488.7174 345.312 L 489.9499 345.1688 L 489.4221 344.2656 L 489.3578 342.3569 L 490.394 342.8575 L 491.3208 341.6642 L 493.3899 342.3748 L 494.1945 341.414 L 495.0472 341.3246 L 495.0312 340.0514 L 496.1382 340.364 L 496.1188 342.9871 L 497.6892 342.9871 L 497.8502 341.9994 L 499.0988 342.4373 L 499.2822 341.3336 L 499.8389 342.0083 L 502.5742 342.4552 L 502.8349 341.4721 L 505.3289 340.8599 L 505.6056 339.6806 L 506.9185 338.0014 L 506.1398 334.9347 L 506.2717 334.2119 L 507.633 332.0618 L 508.8751 331.6025 L 509.9274 330.0063 L 511.1696 329.106 L 514.1302 330.1312 L 513.8438 329.1594 L 514.3039 328.4285 L 514.9218 329.0792 L 517.4287 328.7673 L 517.094 327.6844 L 518.4262 325.1587 L 518.5582 323.2308 L 517.95 322.2426 L 519.0699 321.7353 L 519.0763 319.5285 L 518.3909 318.7635 L 518.1463 317.2205 L 518.7127 316.816 L 517.596 315.0425 L 517.9886 314.2871 L 520.1608 312.1948 L 520.3925 310.9336 L 521.5639 309.8814 L 522.4617 309.8992 L 522.1914 308.7451 L 522.8542 306.6552 L 522.4938 305.4665 L 522.6934 304.1717 L 524.7014 303.3116 L 526.0691 303.3736 L 526.7159 302.629 L 526.4874 301.7204 L 528.0417 300.7854 L 530.9283 302.5757 L 531.971 302.3807 L 531.8615 301.1975 L 532.6435 300.7189 L 533.1133 301.8755 L 535.0409 300.7633 L 535.411 298.9958 L 536.2863 299.8241 L 537.2485 298.3979 L 536.5534 297.4548 L 535.4529 297.7514 L 535.16 296.8349 L 535.8326 295.1706 L 536.4086 294.8211 L 536.3571 292.1092 L 535.7425 290.7562 L 534.5615 290.1195 L 533.6218 288.8023 L 533.5864 288.0776 L 531.5462 287.4281 L 530.8447 286.041 L 530.7803 283.4358 L 529.7537 282.4294 L 530.5067 280.457 L 530.8897 275.2145 L 530.3619 273.8001 L 527.2276 273.7649 L 526.2718 272.1308 L 527.086 270.1715 L 527.0409 268.5695 L 528.0063 265.7849 L 529.4416 264.7426 L 529.5542 264.0876 L 531.4979 263.0634 L 531.5945 263.7095 L 532.695 262.681 L 532.769 260.0141 L 531.514 258.556 L 530.2943 257.8843 L 528.0289 258.2575 L 527.9194 258.9513 L 526.5067 258.8239 L 522.2235 259.0435 L 521.7215 257.9896 L 520.164 258.6834 L 519.9548 257.5638 L 519.3241 257.4365 L 519.308 258.9644 L 518.3748 259.7681 L 517.2903 258.6571 L 516.5759 257.3267 L 515.8969 257.0897 L 516.1672 258.2882 L 515.7778 259.364 L 514.8832 259.2981 L 514.5292 260.6203 L 513.1487 260.159 L 512.6724 260.9453 L 511.3273 261.7846 L 511.382 263.1908 L 507.9773 262.8128 L 507.2757 260.7433 L 506.1977 259.7989 L 504.9395 259.4387 L 505.2323 258.5297 L 504.6016 256.9009 L 503.6877 256.1021 L 503.5557 256.8351 L 501.9821 257.3004 L 501.242 256.8746 L 499.6651 257.8184 L 497.6023 255.8915 L 496.0931 257.735 L 495.9483 256.3611 L 496.4696 255.7818 L 496.4213 254.4698 L 495.6297 253.6539 L 494.2138 253.7767 L 494.8445 252.5619 L 495.2564 250.7028 L 494.4069 247.6047 L 493.6216 247.7405 L 492.2733 246.9608 L 491.9837 244.9377 L 493.1422 244.9596 L 494.4777 243.8389 L 495.5589 244.7845 L 498.0497 244.0491 L 498.7673 242.8017 L 496.0127 241.2266 L 496.6305 238.6944 L 495.797 238.2966 L 496.4503 237.1295 L 494.6547 235.4602 L 494.3232 234.6563 L 492.2025 233.5382 L 491.6168 233.7042 L 490.3521 236.8017 L 490.2653 237.6365 L 488.4889 238.0386 L 488.5468 239.2322 L 487.4205 241.2178 L 487.5203 242.2897 L 486.7576 243.3137 L 487.4012 244.2854 L 485.8984 244.8545 L 484.4052 247.4251 L 482.7801 247.85 L 480.9812 249.9095 L 479.1019 250.4179 L 479.1791 251.8164 L 478.661 252.2812 L 477.1486 251.2113 L 474.9667 250.1286 L 472.6948 249.8306 L 471.7873 250.2908 L 470.7575 252.1409 L 469.5476 251.9216 L 468.2668 252.7197 L 466.9828 252.882 L 464.7076 254.8208 L 462.0656 257.8711 L 461.2225 256.462 L 459.3206 256.5103 L 458.1589 256.0056 L 455.9546 255.8959 L 455.7197 257.5243 L 454.1461 257.9457 L 452.8524 257.1994 L 451.7744 260.102 L 450.3359 259.2981 L 449.3029 258.095 L 448.2538 259.9482 L 447.9481 261.7011 L 446.9055 262.9799 L 446.7092 264.769 L 445.1838 265.3759 L 444.9071 267.9579 L 443.607 269.9514 L 443.5362 273.5403 L 444.0478 273.8133 L 443.3914 275.2497 L 441.9658 275.9549 L 441.3061 278.234 L 441.9046 279.9541 L 440.8459 281.0614 L 441.8693 281.9483 L 443.43 282.1999 L 443.8612 282.8707 L 443.5458 284.3806 L 442.7156 284.4247 L 442.2361 285.6656 L 440.9489 285.8334 L 439.4525 285.4757 L 438.0752 288.356 L 438.5225 290.1239 L 437.4927 292.1844 L 436.0382 292.5913 L 435.0277 292.0208 L 431.3238 292.8744 L 429.8499 293.9494 L 429.0422 294.0379 L 427.8515 293.2327 L 426.3165 293.9184 L 425.4154 293.8255 L 424.8169 291.7201 L 423.9127 290.9419 L 423.2337 291.0657 L 422.5063 288.2279 L 420.2795 289.0985 L 419.7099 290.933 L 418.0333 290.5749 L 417.0872 291.4724 L 416.4532 293.0779 L 414.8346 292.7993 L 414.1491 293.8653 L 411.4427 296.5383 L 410.2521 298.0171 L 408.7428 298.1986 L 408.2795 300.0278 L 408.6624 302.7442 L 408.7139 304.9831 L 409.9753 307.0457 L 411.7002 307.8709 L 412.701 308.7806 L 412.6045 310.0412 L 411.7453 310.9914 L 411.8965 313.5051 L 413.1579 314.336 L 414.0912 314.2915 L 416.5562 316.5048 L 416.4243 317.2516 L 418.1781 317.4295 L 419.5361 318.9726 L 421.3929 318.1854 L 422.5739 318.3277 L 424.2795 320.2047 L 426.2361 320.1202 L 426.442 319.4529 L 429.1066 318.9859 L 430.6448 318.2076 L 435.6005 316.9804 L 437.0905 318.0742 L 438.3584 318.341 L 440.7236 317.1538 L 441.9433 317.9008 L 442.6899 317.4562 L 444.9907 318.8702 L 446.1782 320.5161 L 446.8926 320.8142 L 446.9216 321.9489 L 447.6939 323.2441 L 446.4549 324.7401 L 448.2442 324.7401 L 449.3029 324.3527 L 449.8757 326.1965 L 451.8613 329.8191 L 452.6947 330.4967 L 453.7921 332.5881 L 455.2177 331.5401 L 456.6819 332.0217 L 458.3907 331.0362 L 460.6755 331.3216 L 461.6859 333.4669 L 461.097 334.1673 L 462.0367 335.1133 L 462.1944 333.4356 L 463.0568 334.2521 L 462.8476 335.1043 L 464.2668 335.8898 L 465.6795 337.9255 L 466.3327 338.2961 L 466.809 341.2442 L 467.3175 341.3112 L 466.307 343.157 L 465.5089 343.5592 L 465.2869 344.5428 L 464.3215 345.218 L 464.4631 346.5284 L 465.9144 346.6582 L 466.5484 345.3164 L 468.6787 345.4685 L 469.6827 346.0677 L 469.6312 347.0071 L 471.7809 346.4077 L 473.0166 346.9847 L 473.5057 346.5687 L 473.0295 344.9855 L 473.8855 344.6635 L 474.4937 345.7592 L 475.6103 346.5776 L 477.8308 347.0966 L 478.6481 346.9087 L 479.9354 348.4388 L 480.7367 348.4567 L 481.5251 346.2198 L 482.8477 344.8111 L 483.5299 345.0302 L 483.4398 346.846 L 483.9225 348.2017 L 485.3867 348.5372 L 486.4905 347.6737 Z" fill="[object Object]" fill-opacity="1" stroke="dodgerblue" stroke-width="1" paint-order="fill" stroke-opacity="1" stroke-dasharray="" stroke-linecap="butt" stroke-miterlimit="10" style="filter: url(&quot;#zr2323-shadow-0&quot;);">
</path>
<path d="M 538.7417 167.1951 L 537.5703 165.7494 L 537.1584 164.4332 L 535.3917 164.287 L 533.7023 160.8308 L 535.2791 159.2326 L 534.3394 157.8238 L 533.905 156.5186 L 532.7336 155.7459 L 532.1222 154.6301 L 532.7561 152.4379 L 531.6298 151.7217 L 531.5236 150.9414 L 532.2187 149.2052 L 531.1343 147.7698 L 530.4006 146.0092 L 530.0305 144.0953 L 530.9283 142.7856 L 530.6194 141.5533 L 529.1874 139.5302 L 527.5172 138.3843 L 524.8012 138.1491 L 524.2798 137.619 L 522.2203 136.76 L 521.9243 135.4909 L 520.6306 134.4016 L 520.4086 132.9624 L 519.2372 131.8567 L 519.5075 130.9048 L 519.0956 127.9227 L 518.3361 126.5369 L 516.6274 125.3134 L 516.8526 123.4724 L 515.884 120.3378 L 519.0441 117.848 L 521.1294 115.4871 L 523.234 114.2583 L 524.4762 111.4023 L 524.6242 111.0412 L 522.1141 110.9817 L 521.242 111.3556 L 520.1511 107.9029 L 519.3305 107.0837 L 517.7408 104.084 L 516.2058 100.099 L 513.0264 101.2645 L 511.81 100.6457 L 511.1374 101.2009 L 510.9122 102.2945 L 510.1527 102.3751 L 508.1865 104.0077 L 506.7383 103.8974 L 506.5646 105.2633 L 504.7432 105.2845 L 503.2983 106.5829 L 503.0215 107.8732 L 501.8631 108.1449 L 500.2476 109.2828 L 499.0151 109.4569 L 497.7214 110.8967 L 496.2862 111.9759 L 494.7287 112.4348 L 491.7809 114.5899 L 488.579 115.6742 L 487.6104 115.6913 L 486.2041 117.0864 L 487.0987 118.1799 L 488.0352 118.3799 L 488.3087 119.1034 L 487.5332 120.8232 L 489.1454 123.0464 L 488.5178 123.4937 L 485.8276 123.7025 L 484.7624 121.6749 L 483.9161 121.6877 L 483.4527 122.416 L 483.5621 123.6897 L 483.118 124.478 L 480.4374 125.1259 L 480.5146 123.7664 L 479.9772 123.072 L 478.5806 122.8121 L 477.332 122.1348 L 475.8806 122.1561 L 475.1598 121.6067 L 474.5902 122.3138 L 472.9909 123.0592 L 471.4365 122.1902 L 469.0681 122.4373 L 467.0826 122.3265 L 465.0616 122.7312 L 464.0254 123.8218 L 463.1855 123.1486 L 464.9361 120.7721 L 465.303 117.2311 L 464.9104 114.067 L 464.9651 111.9844 L 463.4655 109.5121 L 466.2813 108.1364 L 467.1276 106.7272 L 466.2394 104.733 L 466.4357 103.1511 L 465.9691 100.6457 L 466.8283 100.205 L 465.9369 99.1753 L 466.0045 97.6971 L 465.2483 95.3854 L 464.7301 95.614 L 464.6368 94.3951 L 463.1919 92.7535 L 463.2144 89.5948 L 461.2933 86.9918 L 461.5604 86.5356 L 459.8323 86.4342 L 459.6006 87.6551 L 457.8693 88.6734 L 455.6264 88.6988 L 455.3464 88.2931 L 453.8822 88.3607 L 452.4888 89.0834 L 451.3367 88.9101 L 449.3641 87.6382 L 448.0962 87.5579 L 445.6182 88.9988 L 445.1034 90.6686 L 445.1935 91.9118 L 444.0575 92.119 L 443.3656 93.8831 L 443.4783 94.7125 L 444.3632 95.3981 L 444.3021 96.4819 L 445.1388 96.9094 L 445.6054 98.2138 L 444.4372 98.6205 L 443.8773 99.51 L 441.1355 100.2982 L 438.7413 99.3194 L 437.438 99.9337 L 437.1934 101.3196 L 436.3664 101.1331 L 436.5499 101.9851 L 434.3712 105.2209 L 432.183 107.6227 L 430.1492 110.2596 L 430.0205 111.2579 L 430.7671 112.7323 L 430.339 113.9437 L 431.6327 115.3298 L 431.8869 116.6058 L 430.9698 116.4994 L 430.7735 117.5161 L 432.981 121.6451 L 431.3881 121.858 L 431.8708 123.4639 L 431.0889 124.4013 L 431.5876 126.7585 L 431.5587 128.9933 L 425.039 127.3811 L 424.1733 127.9696 L 421.5699 127.927 L 418.8281 129.4626 L 417.586 131.0116 L 416.4726 130.875 L 415.9995 132.7703 L 414.1749 134.0514 L 413.4862 135.7131 L 415.8483 136.3497 L 417.1419 137.2215 L 416.6399 138.1577 L 416.8169 139.5088 L 416.1057 140.6678 L 416.2698 141.5404 L 414.9086 142.2165 L 416.067 143.8941 L 416.7557 143.6502 L 417.5056 144.4463 L 417.5924 146.3648 L 418.5256 147.3328 L 418.7927 145.5339 L 419.2433 145.2855 L 420.3084 146.6003 L 420.7719 147.8512 L 419.9866 148.391 L 419.7936 150.5041 L 418.6319 151.7217 L 415.9577 151.8718 L 413.8241 155.6515 L 413.0936 156.2911 L 410.9311 156.5873 L 411.0855 157.1582 L 413.3478 158.7815 L 415.2175 161.1101 L 416.067 161.759 L 418.5964 164.5321 L 418.7734 165.9903 L 419.5103 167.3974 L 419.9931 166.9068 L 420.5465 167.7245 L 422.841 168.4088 L 422.0333 168.9254 L 422.5772 170.5315 L 422.6094 172.0778 L 423.6488 172.9481 L 423.4557 173.6419 L 422.2039 174.7022 L 424.0317 177.423 L 425.1998 176.9485 L 425.187 178.9242 L 426.722 180.9872 L 427.3527 181.2418 L 429.158 185.3794 L 430.0044 186.0147 L 430.8121 187.8776 L 430.4678 188.1889 L 431.8161 189.7111 L 432.9263 189.4646 L 434.1653 190.7968 L 433.6858 193.2722 L 434.693 193.4323 L 434.8411 194.467 L 434.3005 195.1468 L 434.1492 197.1998 L 433.3769 198.6038 L 433.7888 199.6873 L 435.0052 200.8883 L 434.3744 202.0027 L 435.7486 205.6082 L 437.2546 205.6125 L 439.1532 206.1118 L 439.5619 206.8368 L 442.3841 205.3912 L 443.6005 206.941 L 445.0326 206.65 L 446.6062 207.2492 L 446.397 208.691 L 445.6182 210.0681 L 443.5587 212.4061 L 440.3664 213.8757 L 438.1653 213.6105 L 436.788 213.9236 L 434.677 214.9499 L 432.7751 214.5411 L 432.0157 215.4979 L 431.8 217.0772 L 428.9971 217.5342 L 427.2433 218.483 L 426.1813 218.4308 L 426.1524 217.7213 L 424.8652 217.3949 L 423.372 218.322 L 424.4307 222.2237 L 425.039 223.0776 L 424.5337 225.3177 L 422.1556 226.5516 L 420.9327 223.4741 L 419.4267 222.8336 L 418.6415 223.8532 L 419.0019 225.4572 L 418.7284 226.9397 L 417.689 228.2962 L 416.0606 228.5797 L 415.6681 229.9629 L 416.5401 229.7272 L 417.9689 230.2989 L 421.0228 230.9099 L 421.4347 231.3376 L 421.3736 233.0841 L 422.3358 235.9758 L 423.3591 235.5606 L 424.4726 236.3734 L 425.1226 236.1942 L 428.7011 237.2169 L 430.6029 235.801 L 431.4782 237.0901 L 429.9722 238.4365 L 431.2498 240.2905 L 433.866 238.7643 L 434.323 239.8532 L 436.4758 239.3634 L 437.5056 239.5471 L 439.8162 239.2497 L 440.3825 241.5109 L 439.578 242.5085 L 440.4887 244.9333 L 440.4533 253.6671 L 441.6343 256.2075 L 443.8001 256.225 L 444.8588 256.5981 L 445.8403 259.4914 L 447.932 258.3892 L 448.5306 258.8898 L 448.2538 259.9482 L 449.3029 258.095 L 450.3359 259.2981 L 451.7744 260.102 L 452.8524 257.1994 L 454.1461 257.9457 L 455.7197 257.5243 L 455.9546 255.8959 L 458.1589 256.0056 L 459.3206 256.5103 L 461.2225 256.462 L 462.0656 257.8711 L 464.7076 254.8208 L 466.9828 252.882 L 468.2668 252.7197 L 469.5476 251.9216 L 470.7575 252.1409 L 471.7873 250.2908 L 472.6948 249.8306 L 474.9667 250.1286 L 477.1486 251.2113 L 478.661 252.2812 L 479.1791 251.8164 L 479.1019 250.4179 L 480.9812 249.9095 L 482.7801 247.85 L 484.4052 247.4251 L 485.8984 244.8545 L 487.4012 244.2854 L 486.7576 243.3137 L 487.5203 242.2897 L 487.4205 241.2178 L 488.5468 239.2322 L 488.4889 238.0386 L 490.2653 237.6365 L 490.3521 236.8017 L 491.6168 233.7042 L 491.7037 231.4075 L 492.7882 230.8357 L 492.3892 229.6312 L 493.0102 228.3703 L 494.217 227.9385 L 496.7013 225.248 L 498.0786 224.8251 L 497.9917 224.2193 L 499.0891 223.5961 L 499.8486 223.9055 L 500.2701 222.3238 L 502.4133 222.5983 L 502.5549 221.8795 L 506.1366 221.4265 L 507.0891 221.6879 L 508.0932 220.6207 L 508.0674 219.4276 L 509.0071 218.5614 L 510.6901 220.0982 L 512.7625 220.5119 L 512.592 219.1055 L 513.1487 217.7126 L 513.892 217.8998 L 514.6965 216.5203 L 514.5357 215.8851 L 515.308 214.6542 L 515.9838 214.6584 L 516.8945 213.3148 L 518.3973 213.1713 L 518.8446 212.6626 L 517.3804 209.9725 L 517.551 209.5077 L 516.5212 208.5346 L 516.3024 206.6588 L 513.5992 206.2941 L 513.4673 205.3522 L 512.7143 205.2393 L 510.1816 201.7772 L 508.8751 200.6151 L 508.8461 199.0155 L 509.4672 197.4078 L 507.1471 196.6194 L 508.1028 194.1942 L 509.9693 192.77 L 511.3563 192.8999 L 511.736 191.0478 L 512.6788 190.6454 L 514.6515 190.4984 L 515.7746 189.0191 L 518.9991 190.0225 L 519.4721 191.5411 L 520.6628 191.2424 L 521.8374 189.6895 L 521.9146 190.3556 L 523.5558 189.4905 L 525.3965 188.1327 L 526.5196 188.2279 L 526.0594 186.9309 L 527.2823 185.6473 L 528.5437 186.0017 L 529.0104 183.7507 L 530.0466 181.8592 L 531.3981 180.6159 L 532.2091 177.9147 L 532.8591 177.3324 L 533.9468 178.3159 L 534.1399 179.2695 L 535.0184 179.2091 L 535.8712 179.9901 L 536.3282 178.6438 L 539.4819 178.6395 L 541.2131 178.2641 L 541.3258 178.8379 L 543.2051 179.071 L 543.8036 178.4928 L 543.3371 176.8753 L 542.3459 175.3962 L 540.8206 174.5513 L 540.4955 173.4522 L 537.2035 169.7779 L 537.2099 168.6327 L 538.7417 167.1951 Z" fill="[object Object]" fill-opacity="1" stroke="dodgerblue" stroke-width="1" paint-order="fill" stroke-opacity="1" stroke-dasharray="" stroke-linecap="butt" stroke-miterlimit="10" style="filter: url(&quot;#zr2323-shadow-0&quot;);">
</path>
<path d="M 679.0415 189.2137 L 678.4429 187.7825 L 679.7816 186.5419 L 680.4156 185.1072 L 679.9329 184.1394 L 678.7841 184.2388 L 676.8629 185.7251 L 675.8588 185.9368 L 675.1798 185.3664 L 673.8058 185.8288 L 673.529 184.7227 L 672.4413 183.9883 L 671.6207 184.295 L 670.4654 183.6211 L 669.1139 182.1053 L 668.5378 180.2793 L 666.6456 179.7268 L 665.8314 179.8649 L 666.6102 178.3418 L 664.9819 177.9104 L 664.1259 176.6079 L 663.5048 176.7243 L 663.36 175.3057 L 663.8041 174.0685 L 664.7051 173.5686 L 665.6448 169.864 L 666.2337 165.9516 L 666.916 165.4956 L 668.393 166.1969 L 671.1122 165.5989 L 671.3375 164.4461 L 672.1066 163.5345 L 671.7623 162.881 L 668.6698 162.1588 L 667.8781 160.8824 L 667.9103 159.8683 L 669.3069 158.0815 L 671.5016 158.7987 L 672.9658 158.8803 L 673.6352 158.0127 L 674.7872 157.7508 L 675.1316 156.965 L 675.1605 154.5915 L 677.4292 154.1066 L 679.0479 152.0305 L 680.3383 151.1557 L 680.5701 150.1225 L 679.4437 149.1324 L 679.6014 148.4639 L 681.6191 148.271 L 681.6063 147.0201 L 682.6843 146.2191 L 683.5564 144.866 L 683.1091 142.332 L 681.735 142.7599 L 681.1622 144.4849 L 678.8645 143.4575 L 675.7591 143.7272 L 672.8468 143.3848 L 671.4212 142.8284 L 669.8121 142.8626 L 668.5475 142.0967 L 667.8009 142.9953 L 665.5933 143.2521 L 664.4734 142.4561 L 663.2924 140.4582 L 663.3536 138.3586 L 659.5306 139.7483 L 659.1959 141.3651 L 658.1178 141.6902 L 655.7719 140.7576 L 654.8579 139.9236 L 652.4959 140.193 L 649.9859 139.6841 L 647.9681 139.8936 L 647.3825 139.6157 L 646.0116 140.2358 L 644.6278 140.2444 L 641.5707 141.164 L 640.9271 142.5588 L 639.952 142.4904 L 638.3913 140.4368 L 638.3495 138.3543 L 639.0253 137.4951 L 638.1339 136.3284 L 638.3688 134.7092 L 637.2843 133.2016 L 634.5264 131.8311 L 634.3977 131.3231 L 635.6946 130.9048 L 636.7179 129.0701 L 636.0711 126.3791 L 636.5924 125.7908 L 636.0035 125.2452 L 634.8772 125.5265 L 634.4589 124.9852 L 632.4347 124.4056 L 631.6721 123.5022 L 631.3985 122.0241 L 631.6656 121.0021 L 631.2473 119.8142 L 629.3454 118.4735 L 628.5763 117.1077 L 628.6503 115.67 L 627.421 113.6844 L 627.9069 110.8925 L 629.1877 108.9304 L 631.8619 108.7902 L 632.7115 109.3125 L 633.2617 111.5595 L 634.4589 112.3499 L 635.5369 111.636 L 636.9207 107.7119 L 637.5192 107.0964 L 637.944 104.9663 L 637.1556 104.4488 L 635.2537 102.3793 L 634.4267 101.9596 L 634.3623 101.1034 L 636.2513 100.4253 L 636.2385 98.0909 L 636.6278 97.244 L 635.6592 96.0754 L 633.7283 95.7071 L 632.7919 94.8945 L 635.0735 94.3105 L 635.7879 93.1596 L 634.5296 90.8462 L 633.5385 90.3303 L 632.2384 90.3811 L 631.5336 90.9942 L 631.9166 92.4997 L 631.1121 94.0904 L 630.3526 94.3782 L 627.981 94.3274 L 626.7098 93.9338 L 626.6455 93.3542 L 627.7332 92.8847 L 628.6503 90.99 L 627.7139 90.0978 L 625.767 89.3877 L 625.3197 88.5805 L 626.0888 86.4553 L 626.1982 84.9097 L 625.3293 84.1118 L 622.5457 83.0903 L 621.8796 82.1323 L 619.7235 81.0312 L 619.4049 79.8165 L 622.0244 78.5347 L 623.2408 77.6368 L 623.8683 76.4483 L 621.6736 74.1061 L 621.3164 72.4344 L 621.9246 71.5379 L 621.8313 69.9598 L 620.7371 68.5211 L 618.5746 66.6247 L 617.8506 65.4352 L 614.5328 62.259 L 613.3035 59.8198 L 612.2995 58.5902 L 610.6905 57.2309 L 610.4266 56.3543 L 610.8867 55.3941 L 609.8023 55 L 606.1531 57.0464 L 604.1482 57.4197 L 602.9865 56.9289 L 601.3131 56.757 L 600.7822 56.044 L 597.7508 55.8805 L 596.9945 56.866 L 594.4136 56.0818 L 593.5319 56.9541 L 592.4893 57.2225 L 592.9495 57.7553 L 592.3863 59.207 L 590.5392 60.5082 L 590.0693 61.7761 L 591.1441 61.604 L 591.5399 62.1163 L 591.3662 64.7838 L 590.256 65.4814 L 587.2085 65.494 L 586.7741 65.0317 L 584.4667 64.1535 L 583.2986 64.7039 L 581.7958 64.5863 L 579.4691 65.2503 L 577.4482 65.0065 L 575.3983 64.0359 L 574.626 65.5781 L 572.988 66.0152 L 571.4723 65.8554 L 570.9671 67.432 L 568.8786 68.1931 L 566.3331 69.4591 L 566.2044 70.2123 L 564.9461 71.8746 L 565.4803 76.4946 L 566.5391 81.0312 L 566.4844 82.5163 L 565.7796 83.6433 L 563.5077 83.2169 L 560.0451 83.0144 L 561.8504 86.0077 L 563.1086 85.957 L 563.852 88.1157 L 564.4699 88.3184 L 565.1392 90.2204 L 564.6887 92.9269 L 564.5857 95.195 L 564.0097 96.2321 L 562.1915 96.0669 L 561.6477 97.1805 L 560.3958 97.8919 L 558.9026 97.0746 L 557.8053 97.6209 L 556.9429 99.7007 L 554.0145 99.9253 L 552.2896 101.1161 L 550.3942 100.7389 L 548.8528 101.1966 L 547.2115 100.5186 L 546.23 98.4298 L 545.3386 97.786 L 544.6468 98.0401 L 543.2019 100.0439 L 542.1077 100.4846 L 540.1512 100.2431 L 541.2003 97.6166 L 540.9525 96.8248 L 539.1761 95.7579 L 536.8431 96.0458 L 535.8004 97.0026 L 535.3917 98.5611 L 534.6805 99.1457 L 532.1286 100.349 L 531.9838 101.362 L 531.0216 102.6634 L 531.0828 104.1179 L 530.1077 105.6791 L 529.0007 105.2039 L 527.1729 105.5433 L 525.7634 106.498 L 525.7151 107.4911 L 526.8961 109.3763 L 525.3611 111.3938 L 524.4762 111.4023 L 523.234 114.2583 L 521.1294 115.4871 L 519.0441 117.848 L 515.884 120.3378 L 516.8526 123.4724 L 516.6274 125.3134 L 518.3361 126.5369 L 519.0956 127.9227 L 519.5075 130.9048 L 519.2372 131.8567 L 520.4086 132.9624 L 520.6306 134.4016 L 521.9243 135.4909 L 522.2203 136.76 L 524.2798 137.619 L 524.8012 138.1491 L 527.5172 138.3843 L 529.1874 139.5302 L 530.6194 141.5533 L 530.9283 142.7856 L 530.0305 144.0953 L 530.4006 146.0092 L 531.1343 147.7698 L 532.2187 149.2052 L 531.5236 150.9414 L 531.6298 151.7217 L 532.7561 152.4379 L 532.1222 154.6301 L 532.7336 155.7459 L 533.905 156.5186 L 534.3394 157.8238 L 535.2791 159.2326 L 533.7023 160.8308 L 535.3917 164.287 L 537.1584 164.4332 L 537.5703 165.7494 L 538.7417 167.1951 L 539.3113 167.4318 L 540.4215 169.6874 L 541.2003 170.1051 L 543.4432 170.0492 L 544.222 170.3549 L 544.193 168.7661 L 542.8801 166.4851 L 543.2856 164.6999 L 546.362 165.0482 L 547.3435 164.1365 L 549.0201 163.9774 L 550.4296 165.0827 L 551.2599 164.5365 L 551.6943 161.9955 L 551.2502 160.9769 L 552.0901 159.3228 L 552.9364 159.4215 L 553.815 160.2679 L 554.9928 160.4011 L 555.5077 161.9696 L 554.7128 163.3582 L 554.4457 165.3193 L 555.0346 166.696 L 556.6854 168.2538 L 556.2285 169.287 L 557.0941 170.2386 L 558.5519 170.7683 L 560.3412 172.5258 L 560.8399 174.0599 L 561.2711 173.5428 L 562.9832 174.1504 L 564.4119 175.366 L 564.6147 176.4957 L 565.4256 176.9787 L 565.3387 178.0182 L 566.7836 178.5445 L 566.9413 180.4778 L 569.6252 183.2928 L 572.1899 184.0099 L 573.5608 183.3792 L 574.5037 183.4786 L 576.1899 182.9301 L 576.5471 183.4786 L 580.7949 183.7766 L 582.7676 185.0467 L 583.7588 184.7443 L 585.2165 186.1486 L 586.7612 186.274 L 587.8425 185.2498 L 588.6727 185.2325 L 591.186 184.3339 L 592.8432 185.0467 L 595.3855 185.1288 L 596.4764 186.127 L 595.8071 187.7176 L 594.6389 187.8128 L 593.8344 186.624 L 593.1779 188.2797 L 592.2415 188.4354 L 591.3597 189.8365 L 592.2286 191.779 L 590.8255 191.9781 L 590.0918 192.8003 L 589.0106 191.7877 L 587.8457 191.4112 L 586.2946 191.6492 L 584.1642 192.8263 L 583.0572 194.1812 L 583.8971 195.7185 L 583.0444 196.0866 L 581.6316 195.9133 L 581.1071 196.8013 L 582.5455 198.9678 L 582.5102 199.7871 L 583.8585 200.7365 L 582.3879 202.4234 L 582.7193 203.9461 L 582.1079 204.4842 L 581.992 205.6473 L 582.7998 205.5822 L 583.7008 207.8745 L 584.4442 208.1004 L 584.412 209.6988 L 585.3645 210.4895 L 585.5158 211.7368 L 587.2793 210.9545 L 587.7009 213.8714 L 588.2576 214.9586 L 590.0371 215.15 L 591.4917 214.4976 L 591.6815 213.6322 L 593.2359 213.4496 L 594.9446 214.6019 L 596.4635 215.1108 L 598.0629 214.7629 L 599.3437 215.6763 L 598.8771 216.5594 L 599.5336 217.4472 L 601.2391 217.3079 L 601.7475 216.5377 L 603.0895 216.6204 L 604.6374 215.5632 L 605.4933 214.4106 L 606.5199 214.1758 L 608.3767 214.976 L 611.2021 212.8191 L 613.0268 212.854 L 614.2045 212.3019 L 615.7331 212.2497 L 616.3091 211.2153 L 620.9013 210.7677 L 622.446 210.1115 L 623.9488 208.9907 L 624.8402 206.6848 L 626.9769 206.6067 L 627.5787 205.2393 L 629.1555 203.5426 L 628.5473 202.9352 L 628.7404 201.981 L 629.5868 202.0287 L 632.8949 199.2409 L 634.063 200.0862 L 634.8161 201.8509 L 636.2545 202.263 L 638.7517 201.2091 L 638.9384 201.6428 L 640.3092 201.1137 L 641.0816 202.4451 L 642.4911 202.7791 L 643.7589 202.6316 L 646.1306 203.3474 L 647.1476 203.1522 L 648.3833 202.0548 L 649.5611 202.5926 L 648.5249 204.5449 L 648.9014 205.6299 L 647.9778 206.1812 L 647.5949 208.969 L 647.6431 210.3462 L 649.4324 211.1022 L 649.9923 209.8769 L 650.8387 209.7031 L 651.405 208.3739 L 653.0108 206.6153 L 653.191 204.8487 L 651.9135 201.8856 L 652.2063 201.053 L 653.8636 200.1859 L 656.1548 197.4512 L 657.1943 198.6341 L 659.6786 198.2311 L 660.6408 197.3861 L 660.7792 196.1559 L 662.1082 194.7355 L 664.2514 195.0515 L 665.4035 194.034 L 667.0157 194.8047 L 669.3745 194.4583 L 668.7052 192.9605 L 670.2466 192.6142 L 670.9996 191.5886 L 671.7397 191.7141 L 674.2659 189.7674 L 675.4212 190.931 L 676.3802 189.9361 L 679.0415 189.2137 Z" fill="[object Object]" fill-opacity="1" stroke="dodgerblue" stroke-width="1" paint-order="fill" stroke-opacity="1" stroke-dasharray="" stroke-linecap="butt" stroke-miterlimit="10" style="filter: url(&quot;#zr2323-shadow-0&quot;);">
</path>
<path d="M 537.2775 392.3355 L 537.6604 393.3559 L 538.8736 393.3378 L 539.3338 394.6566 L 538.9348 396.0119 L 540.6049 397.1189 L 542.2108 399.5599 L 543.3145 396.8614 L 544.8366 396.1565 L 546.3749 393.9475 L 547.4529 393.1933 L 547.8198 392.2542 L 549.2679 390.4125 L 550.7675 389.3972 L 552.5921 386.632 L 552.6018 385.5678 L 553.7538 385.2026 L 554.5487 382.4578 L 555.5302 382.3316 L 556.7948 381.417 L 556.7273 379.9171 L 557.7828 380.5431 L 558.2655 379.6604 L 558.2591 378.1565 L 559.8906 375.924 L 559.9904 374.7812 L 561.2261 374.7677 L 562.7836 375.3795 L 564.7949 374.7182 L 566.5809 374.6147 L 568.0033 375.0061 L 569.4578 374.9386 L 571.9969 375.519 L 574.3653 374.4212 L 575.3404 374.3718 L 578.1723 375.0376 L 579.9389 374.3538 L 581.12 374.7587 L 584.2608 375.0151 L 586.7097 373.5756 L 587.9229 373.4901 L 589.8151 374.0344 L 591.0379 374.7721 L 592.6598 374.0794 L 594.7966 369.9966 L 596.3863 368.0823 L 597.149 364.5433 L 598.7741 361.5497 L 598.581 360.464 L 599.9519 359.5624 L 601.606 359.67 L 604.0838 359.4369 L 604.7597 358.966 L 606.0147 359.1991 L 607.2568 358.0109 L 607.9584 356.0295 L 609.2456 355.4604 L 609.1523 353.6682 L 610.8932 352.6559 L 610.2689 352.1901 L 611.2407 348.9982 L 613.1973 347.2889 L 613.8699 345.9068 L 615.6173 344.0957 L 616.6728 342.634 L 618.2625 341.0923 L 618.7484 339.1044 L 617.7154 338.3273 L 613.1426 339.6493 L 611.0509 339.7118 L 609.8667 339.2607 L 607.3212 335.8362 L 607.0509 333.6676 L 606.3365 332.9672 L 604.7242 332.3472 L 603.1699 330.2292 L 603.0348 328.9588 L 605.0847 328.638 L 605.0493 328.1701 L 602.9447 328.1122 L 602.7033 326.1207 L 603.0283 324.5264 L 602.7258 322.3227 L 598.6486 323.1907 L 597.8248 323.8718 L 594.684 322.9593 L 592.3509 324.0232 L 590.3171 325.9425 L 589.1682 326.4726 L 589.1586 325.2878 L 588.6148 326.0851 L 585.9824 327.0205 L 585.3066 326.6285 L 583.3468 327.0473 L 582.6035 325.3858 L 583.6654 323.9074 L 583.4884 323.1907 L 582.2173 322.5052 L 582.2012 321.3214 L 579.9776 323.0082 L 578.2205 322.9281 L 577.4675 324.1969 L 575.5624 324.9894 L 574.9671 323.6848 L 574.2237 323.6181 L 573.8601 321.722 L 573.2293 321.2013 L 574.0532 318.7146 L 572.5922 318.1899 L 572.7563 316.9804 L 571.4208 317.3895 L 571.3597 318.0742 L 570.3524 317.7052 L 564.4667 318.7101 L 563.926 316.2781 L 563.9743 314.3449 L 563.5559 314.6514 L 560.4119 314.2915 L 558.8962 314.607 L 558.5197 315.2692 L 559.2824 320.614 L 558.7386 321.8465 L 557.4835 322.0157 L 557.2583 323.1729 L 556.3186 323.489 L 555.7039 322.8346 L 554.5873 323.7161 L 554.5744 324.602 L 553.6669 325.368 L 554.14 326.3568 L 552.7176 326.4726 L 553.1745 327.3814 L 554.1915 327.6933 L 553.9694 328.7985 L 552.9075 330.3763 L 551.6074 329.8503 L 551.9131 330.7375 L 551.0732 332.1733 L 550.0338 331.8879 L 549.0201 332.7531 L 548.502 331.0273 L 546.4971 331.6025 L 543.7972 331.2057 L 542.9959 329.5873 L 543.1407 328.4999 L 542.0595 328.1612 L 542.111 327.2923 L 543.2824 326.9492 L 543.2502 325.4303 L 541.7731 324.9716 L 541.4609 324.1613 L 539.5912 322.8301 L 538.8318 319.2216 L 539.0313 317.9186 L 540.8141 317.176 L 542.2944 315.1936 L 541.6508 312.7011 L 540.0096 311.4043 L 537.3966 310.2587 L 534.0659 309.6062 L 534.407 308.2791 L 532.8366 307.445 L 532.9074 306.7262 L 532.0643 305.9056 L 531.0635 306.0165 L 530.5614 304.8767 L 530.452 302.9702 L 530.9283 302.5757 L 528.0417 300.7854 L 526.4874 301.7204 L 526.7159 302.629 L 526.0691 303.3736 L 524.7014 303.3116 L 522.6934 304.1717 L 522.4938 305.4665 L 522.8542 306.6552 L 522.1914 308.7451 L 522.4617 309.8992 L 521.5639 309.8814 L 520.3925 310.9336 L 520.1608 312.1948 L 517.9886 314.2871 L 517.596 315.0425 L 518.7127 316.816 L 518.1463 317.2205 L 518.3909 318.7635 L 519.0763 319.5285 L 519.0699 321.7353 L 517.95 322.2426 L 518.5582 323.2308 L 518.4262 325.1587 L 517.094 327.6844 L 517.4287 328.7673 L 514.9218 329.0792 L 514.3039 328.4285 L 513.8438 329.1594 L 514.1302 330.1312 L 511.1696 329.106 L 509.9274 330.0063 L 508.8751 331.6025 L 507.633 332.0618 L 506.2717 334.2119 L 506.1398 334.9347 L 506.9185 338.0014 L 505.6056 339.6806 L 507.0473 340.2389 L 507.2854 339.5466 L 509.522 340.297 L 510.5936 341.1593 L 512.4472 341.1191 L 512.8816 343.5727 L 512.0191 344.3371 L 512.2283 346.0454 L 513.5992 347.1994 L 513.197 348.1614 L 513.9403 349.7232 L 515.3595 350.6902 L 514.7577 352.8216 L 515.4238 353.6772 L 517.1616 353.0948 L 517.3257 354.6269 L 518.8446 355.0167 L 519.7392 355.8637 L 522.9057 354.5149 L 523.1793 355.5007 L 522.8446 356.6435 L 522.0047 357.5491 L 521.9886 358.7507 L 523.1922 359.4906 L 523.0312 360.7825 L 523.9516 361.5407 L 522.8929 361.7247 L 522.5389 362.5054 L 523.5397 363.9552 L 524.016 365.6119 L 525.4609 367.7139 L 526.4617 367.7095 L 525.1262 369.4753 L 524.9782 370.2574 L 528.1383 370.0147 L 528.9878 368.7428 L 528.9525 366.9997 L 529.8503 366.4158 L 530.909 366.546 L 531.7747 367.5612 L 533.2935 366.6224 L 533.7763 366.8785 L 533.8149 365.5356 L 534.3813 366.8065 L 535.8133 365.6793 L 536.9396 363.7487 L 537.6797 363.1383 L 539.0346 363.0485 L 541.3612 363.6589 L 544.4794 363.5243 L 544.6886 362.6177 L 545.3354 363.3761 L 548.695 362.9632 L 548.7916 365.6254 L 547.2148 370.4731 L 546.2912 371.4666 L 546.1947 373.4047 L 544.1834 373.3013 L 544.5857 375.6765 L 543.8423 377.3147 L 544.1641 379.2236 L 543.543 379.102 L 543.0667 380.453 L 542.4231 380.4395 L 542.2204 382.0657 L 541.7409 381.9846 L 539.8197 384.6256 L 539.4368 387.0829 L 538.7578 387.8181 L 539.2373 388.4362 L 539.2501 389.9251 L 536.8849 390.742 L 537.2775 392.3355 Z" fill="[object Object]" fill-opacity="1" stroke="dodgerblue" stroke-width="1" paint-order="fill" stroke-opacity="1" stroke-dasharray="" stroke-linecap="butt" stroke-miterlimit="10" style="filter: url(&quot;#zr2323-shadow-0&quot;);">
</path>
<path d="M 532.695 262.681 L 531.5945 263.7095 L 531.4979 263.0634 L 529.5542 264.0876 L 529.4416 264.7426 L 528.0063 265.7849 L 527.0409 268.5695 L 527.086 270.1715 L 526.2718 272.1308 L 527.2276 273.7649 L 530.3619 273.8001 L 530.8897 275.2145 L 530.5067 280.457 L 529.7537 282.4294 L 530.7803 283.4358 L 530.8447 286.041 L 531.5462 287.4281 L 533.5864 288.0776 L 533.6218 288.8023 L 534.5615 290.1195 L 535.7425 290.7562 L 536.3571 292.1092 L 536.4086 294.8211 L 535.8326 295.1706 L 535.16 296.8349 L 535.4529 297.7514 L 536.5534 297.4548 L 537.2485 298.3979 L 536.2863 299.8241 L 535.411 298.9958 L 535.0409 300.7633 L 533.1133 301.8755 L 532.6435 300.7189 L 531.8615 301.1975 L 531.971 302.3807 L 530.9283 302.5757 L 530.452 302.9702 L 530.5614 304.8767 L 531.0635 306.0165 L 532.0643 305.9056 L 532.9074 306.7262 L 532.8366 307.445 L 534.407 308.2791 L 534.0659 309.6062 L 537.3966 310.2587 L 540.0096 311.4043 L 541.6508 312.7011 L 542.2944 315.1936 L 540.8141 317.176 L 539.0313 317.9186 L 538.8318 319.2216 L 539.5912 322.8301 L 541.4609 324.1613 L 541.7731 324.9716 L 543.2502 325.4303 L 543.2824 326.9492 L 542.111 327.2923 L 542.0595 328.1612 L 543.1407 328.4999 L 542.9959 329.5873 L 543.7972 331.2057 L 546.4971 331.6025 L 548.502 331.0273 L 549.0201 332.7531 L 550.0338 331.8879 L 551.0732 332.1733 L 551.9131 330.7375 L 551.6074 329.8503 L 552.9075 330.3763 L 553.9694 328.7985 L 554.1915 327.6933 L 553.1745 327.3814 L 552.7176 326.4726 L 554.14 326.3568 L 553.6669 325.368 L 554.5744 324.602 L 554.5873 323.7161 L 555.7039 322.8346 L 556.3186 323.489 L 557.2583 323.1729 L 557.4835 322.0157 L 558.7386 321.8465 L 559.2824 320.614 L 558.5197 315.2692 L 558.8962 314.607 L 557.889 313.785 L 558.14 312.0482 L 557.4385 311.7595 L 557.4964 310.2499 L 558.1368 308.6253 L 557.8761 307.2719 L 556.7241 307.201 L 556.6854 304.2204 L 555.9678 304.2204 L 555.971 301.8888 L 556.3765 301.4191 L 557.0008 298.9781 L 558.3073 297.1094 L 558.4071 293.9583 L 559.2309 294.1883 L 559.9485 293.1796 L 560.7209 293.9184 L 563.6235 293.9406 L 564.0966 292.6444 L 564.679 292.525 L 566.1658 289.8897 L 566.819 289.3327 L 566.0725 287.2293 L 564.1062 287.0349 L 563.7587 283.8419 L 563.3886 282.884 L 564.383 282.831 L 564.3315 281.9219 L 565.239 282.3279 L 564.5406 280.2276 L 564 277.0657 L 564.8174 276.8761 L 565.0878 274.6813 L 564.3926 274.6108 L 564.1384 273.386 L 563.0571 274.5932 L 562.0531 274.6328 L 561.4964 272.3113 L 562.4747 272.2761 L 562.3009 270.3608 L 564.3991 268.2263 L 563.3725 267.6367 L 562.2172 268.1647 L 561.3774 267.0736 L 560.959 267.4871 L 559.8391 266.1279 L 561.6283 265.0197 L 561.2872 263.1557 L 561.9019 262.9667 L 561.5704 261.9339 L 560.8979 261.9119 L 559.9678 260.1897 L 561.1714 258.6878 L 560.4795 257.5243 L 561.2068 256.0802 L 560.0837 256.4401 L 560.1191 257.4101 L 558.008 255.8125 L 555.601 255.7379 L 555.6943 256.4488 L 556.9236 257.612 L 555.8198 257.9501 L 553.6734 256.7956 L 552.8785 257.2038 L 551.572 257.0326 L 550.9316 255.8256 L 548.8302 255.8213 L 548.8624 256.8526 L 547.617 257.5814 L 546.7449 257.3794 L 546.4907 259.3904 L 545.9437 260.4226 L 544.0579 260.1854 L 544.4569 261.2178 L 543.7393 261.991 L 542.3813 262.0658 L 542.6966 263.182 L 541.7345 263.1908 L 541.7055 262.3206 L 540.6307 262.0438 L 540.6371 262.8788 L 541.4384 263.415 L 541.1166 265.0417 L 542.7128 265.0372 L 543.2437 266.968 L 542.2236 267.6763 L 540.946 267.1748 L 538.008 266.99 L 536.4794 265.9519 L 535.7972 264.58 L 534.4328 264.4261 L 533.3611 263.8062 L 532.695 262.681 Z M 581.1683 224.8513 L 580.8947 225.6839 L 578.671 225.2567 L 577.6252 226.072 L 576.634 225.5095 L 574.9317 225.3264 L 574.9092 225.7668 L 573.2455 226.3816 L 572.0644 228.0868 L 570.6646 228.3572 L 569.2293 227.8818 L 568.6469 226.9353 L 567.0218 226.6824 L 563.9936 227.5546 L 563.4884 226.883 L 561.7281 227.2493 L 561.5897 228.4619 L 559.6589 228.0257 L 559.1022 229.5789 L 559.35 230.8444 L 558.4425 232.9399 L 559.6106 233.726 L 559.8166 237.6321 L 560.7949 238.5326 L 561.9566 238.5938 L 563.9035 240.8154 L 564.8882 240.7673 L 565.9888 241.4672 L 565.7506 240.5224 L 566.9091 241.3841 L 567.0379 242.8761 L 568.251 244.4343 L 568.1062 245.1872 L 566.8287 245.0078 L 566.6581 245.8178 L 565.6991 246.19 L 566.4457 248.3495 L 564.7434 249.2127 L 565.3001 250.7247 L 566.2398 251.1719 L 566.4586 250.0235 L 568.1642 249.9927 L 567.8488 250.773 L 568.8046 254.2373 L 569.3548 254.6804 L 570.8512 254.1671 L 571.424 253.5267 L 573.4964 254.1628 L 577.0138 256.01 L 578.2978 255.5712 L 578.5649 254.6936 L 579.556 254.0926 L 578.6485 252.6715 L 579.1763 252.233 L 579.1312 249.2696 L 578.3235 248.9278 L 578.7612 247.2762 L 580.9719 246.1725 L 579.704 244.9289 L 579.6075 244.0665 L 578.5423 243.9702 L 578.4844 242.5829 L 580.4281 242.0447 L 580.2833 241.5372 L 583.2986 241.4365 L 583.688 240.846 L 583.0604 239.6651 L 582.0725 240.2205 L 579.0122 239.136 L 578.1208 237.3043 L 578.6099 236.439 L 577.5351 235.6087 L 578.5101 234.5078 L 578.2173 234.0535 L 579.4691 233.0971 L 579.6043 231.879 L 580.5826 230.8444 L 580.0612 228.6059 L 579.8778 226.1679 L 581.8247 225.9717 L 581.1683 224.8513 Z" fill="[object Object]" fill-opacity="1" stroke="dodgerblue" stroke-width="1" paint-order="fill" stroke-opacity="1" stroke-dasharray="" stroke-linecap="butt" stroke-miterlimit="10" style="filter: url(&quot;#zr2323-shadow-0&quot;);">
</path>
<path d="M 513.0682 427.2935 L 513.6249 426.5207 L 514.6515 422.6403 L 514.378 421.0825 L 515.9773 419.4617 L 515.6266 418.5812 L 515.987 417.3922 L 517.4287 416.0221 L 518.0562 416.2807 L 518.8703 415.2238 L 518.6064 414.4709 L 519.2115 412.7662 L 518.8124 412.0363 L 519.633 410.0877 L 519.1954 408.86 L 520.8816 408.2802 L 521.6378 407.1571 L 523.0152 407.3201 L 523.2276 406.5458 L 524.8012 406.2606 L 525.7569 406.5639 L 528.8849 405.5362 L 530.2236 406.7722 L 532.2606 407.0484 L 534.732 404.296 L 533.6186 402.9748 L 531.8262 402.8164 L 532.6145 401.2467 L 531.9517 400.4778 L 531.6781 399.1349 L 532.5277 398.3483 L 534.2912 399.994 L 534.0563 399.2389 L 534.983 398.8456 L 534.3909 396.1203 L 535.0409 396.1836 L 534.864 394.476 L 537.2775 392.3355 L 536.8849 390.742 L 539.2501 389.9251 L 539.2373 388.4362 L 538.7578 387.8181 L 539.4368 387.0829 L 539.8197 384.6256 L 541.7409 381.9846 L 542.2204 382.0657 L 542.4231 380.4395 L 543.0667 380.453 L 543.543 379.102 L 544.1641 379.2236 L 543.8423 377.3147 L 544.5857 375.6765 L 544.1834 373.3013 L 546.1947 373.4047 L 546.2912 371.4666 L 547.2148 370.4731 L 548.7916 365.6254 L 548.695 362.9632 L 545.3354 363.3761 L 544.6886 362.6177 L 544.4794 363.5243 L 541.3612 363.6589 L 539.0346 363.0485 L 537.6797 363.1383 L 536.9396 363.7487 L 535.8133 365.6793 L 534.3813 366.8065 L 533.8149 365.5356 L 533.7763 366.8785 L 533.2935 366.6224 L 531.7747 367.5612 L 530.909 366.546 L 529.8503 366.4158 L 528.9525 366.9997 L 528.9878 368.7428 L 528.1383 370.0147 L 524.9782 370.2574 L 525.1262 369.4753 L 526.4617 367.7095 L 525.4609 367.7139 L 524.016 365.6119 L 523.5397 363.9552 L 522.5389 362.5054 L 522.8929 361.7247 L 523.9516 361.5407 L 523.0312 360.7825 L 523.1922 359.4906 L 521.9886 358.7507 L 522.0047 357.5491 L 522.8446 356.6435 L 523.1793 355.5007 L 522.9057 354.5149 L 519.7392 355.8637 L 518.8446 355.0167 L 517.3257 354.6269 L 517.1616 353.0948 L 515.4238 353.6772 L 514.7577 352.8216 L 515.3595 350.6902 L 513.9403 349.7232 L 513.197 348.1614 L 513.5992 347.1994 L 512.2283 346.0454 L 512.0191 344.3371 L 512.8816 343.5727 L 512.4472 341.1191 L 510.5936 341.1593 L 509.522 340.297 L 507.2854 339.5466 L 507.0473 340.2389 L 505.6056 339.6806 L 505.3289 340.8599 L 502.8349 341.4721 L 502.5742 342.4552 L 499.8389 342.0083 L 499.2822 341.3336 L 499.0988 342.4373 L 497.8502 341.9994 L 497.6892 342.9871 L 496.1188 342.9871 L 496.1382 340.364 L 495.0312 340.0514 L 495.0472 341.3246 L 494.1945 341.414 L 493.3899 342.3748 L 491.3208 341.6642 L 490.394 342.8575 L 489.3578 342.3569 L 489.4221 344.2656 L 489.9499 345.1688 L 488.7174 345.312 L 488.0706 346.0946 L 487.7359 347.6782 L 486.4905 347.6737 L 486.4358 349.5218 L 487.8067 350.1977 L 487.3787 351.1513 L 487.6039 354.9406 L 488.505 355.0571 L 489.4286 358.3606 L 491.3015 358.2888 L 492.2733 358.8 L 493.6892 357.9212 L 494.4391 358.67 L 493.6249 360.0378 L 492.8493 363.1338 L 492.1896 364.2201 L 493.4962 364.7633 L 492.5307 365.0192 L 493.0842 365.9981 L 493.1615 367.5927 L 492.7109 368.5406 L 490.9121 368.0914 L 490.7061 369.7225 L 489.5573 369.8393 L 488.5372 370.5675 L 488.2765 372.3254 L 489.76 372.6896 L 489.6989 374.1378 L 488.4149 374.3493 L 488.2701 376.3335 L 487.7455 377.3012 L 487.8775 378.7553 L 488.8461 379.6739 L 487.4816 381.1602 L 488.2765 382.2415 L 489.5766 382.5704 L 489.9853 383.5708 L 489.3159 383.8863 L 486.9442 383.4987 L 486.1044 384.6932 L 486.5323 385.5587 L 486.0947 387.0559 L 485.3191 387.0514 L 485.1164 389.0994 L 483.1566 388.4271 L 482.9925 388.0256 L 481.6249 387.8046 L 480.373 388.594 L 479.8034 390.4892 L 478.8573 391.0444 L 480.254 392.9224 L 479.6393 393.5501 L 480.3215 394.0288 L 482.0979 392.7238 L 484.373 392.6876 L 485.6088 393.4959 L 488.3055 396.1746 L 488.2347 393.8481 L 489.1615 395.0225 L 490.5613 395.3704 L 490.7769 396.2197 L 491.826 397.3223 L 493.0489 397.6568 L 491.3594 398.0636 L 491.5814 397.3585 L 490.3747 397.0964 L 490.1687 397.9551 L 491.1566 398.597 L 490.8091 399.3565 L 491.8517 399.8131 L 490.4808 400.3196 L 488.2636 400.3603 L 487.5138 401.2467 L 489.8212 402.6038 L 491.7069 405.2827 L 493.7246 405.6268 L 495.6265 406.5503 L 496.3023 407.5782 L 496.7689 409.3719 L 499.1695 410.0922 L 500.2765 408.9687 L 499.8453 410.3369 L 500.3087 411.0393 L 501.493 411.3112 L 501.9692 412.7072 L 503.9612 412.7889 L 504.1221 413.9223 L 505.2613 414.0402 L 508.1671 417.2062 L 508.8526 421.7818 L 509.6861 422.9627 L 511.736 424.1621 L 513.0682 427.2935 Z" fill="[object Object]" fill-opacity="1" stroke="dodgerblue" stroke-width="1" paint-order="fill" stroke-opacity="1" stroke-dasharray="" stroke-linecap="butt" stroke-miterlimit="10" style="filter: url(&quot;#zr2323-shadow-0&quot;);">
</path>
<text xml:space="preserve" fill="#bdbdd9" fill-opacity="1" stroke="none" transform="matrix(1,0,0,1,445.2804,357.6368)" dominant-baseline="central" text-anchor="middle" x="0" y="0" style="font: 13 13px sans-serif;">石家庄市</text>
<text xml:space="preserve" fill="#bdbdd9" fill-opacity="1" stroke="none" transform="matrix(1,0,0,1,641.6109,251.4691)" dominant-baseline="central" text-anchor="middle" x="0" y="0" style="font: 13 13px sans-serif;">唐山市</text>
<text xml:space="preserve" fill="#bdbdd9" fill-opacity="1" stroke="none" transform="matrix(1,0,0,1,682.1646,229.1116)" dominant-baseline="central" text-anchor="middle" x="0" y="0" style="font: 13 13px sans-serif;">秦皇岛市</text>
<text xml:space="preserve" fill="#bdbdd9" fill-opacity="1" stroke="none" transform="matrix(1,0,0,1,443.7856,462.627)" dominant-baseline="central" text-anchor="middle" x="0" y="0" style="font: 13 13px sans-serif;">邯郸市</text>
<text xml:space="preserve" fill="#bdbdd9" fill-opacity="1" stroke="none" transform="matrix(1,0,0,1,460.4389,412.3878)" dominant-baseline="central" text-anchor="middle" x="0" y="0" style="font: 13 13px sans-serif;">邢台市</text>
<text xml:space="preserve" fill="#bdbdd9" fill-opacity="1" stroke="none" transform="matrix(1,0,0,1,472.764,291.0377)" dominant-baseline="central" text-anchor="middle" x="0" y="0" style="font: 13 13px sans-serif;">保定市</text>
<text xml:space="preserve" fill="#bdbdd9" fill-opacity="1" stroke="none" transform="matrix(1,0,0,1,477.3674,173.2681)" dominant-baseline="central" text-anchor="middle" x="0" y="0" style="font: 13 13px sans-serif;">张家口市</text>
<text xml:space="preserve" fill="#bdbdd9" fill-opacity="1" stroke="none" transform="matrix(1,0,0,1,599.7202,136.2236)" dominant-baseline="central" text-anchor="middle" x="0" y="0" style="font: 13 13px sans-serif;">承德市</text>
<text xml:space="preserve" fill="#bdbdd9" fill-opacity="1" stroke="none" transform="matrix(1,0,0,1,562.177,350.1727)" dominant-baseline="central" text-anchor="middle" x="0" y="0" style="font: 13 13px sans-serif;">沧州市</text>
<text xml:space="preserve" fill="#bdbdd9" fill-opacity="1" stroke="none" transform="matrix(1,0,0,1,554.9799,278.8022)" dominant-baseline="central" text-anchor="middle" x="0" y="0" style="font: 13 13px sans-serif;">廊坊市</text>
<text xml:space="preserve" fill="#bdbdd9" fill-opacity="1" stroke="none" transform="matrix(1,0,0,1,513.8245,383.42)" dominant-baseline="central" text-anchor="middle" x="0" y="0" style="font: 13 13px sans-serif;">衡水市</text>
<defs>
<filter id="zr2323-shadow-0" x="-100%" y="-100%" width="300%" height="300%">
<feDropShadow dx="0" dy="1" flood-color="#000000" stdDeviation="0 0">
</feDropShadow>
</filter>
<filter id="zr2323-shadow-1" x="-100%" y="-100%" width="300%" height="300%">
<feDropShadow dx="0" dy="1" flood-color="rgba(0,0,0,1)" stdDeviation="0 0">
</feDropShadow>
</filter>
</defs>
</g>
</svg>