<svg xmlns="http://www.w3.org/2000/svg" xmlns:xlink="http://www.w3.org/1999/xlink" version="1.1" baseProfile="full" width="1108" height="550" style="user-select: none; position: absolute; left: 0px; top: 0px;">
<g>
<rect width="1108" height="550" x="0" y="0" id="0" style="fill: transparent;">
</rect>
</g>
<g>
<path d="M 491.1887 58.6842 L 492.3081 60.0093 L 491.9449 62.3972 L 492.8003 63.0687 L 493.6502 66.0452 L 493.2496 67.045 L 493.5304 68.0407 L 494.3409 67.8364 L 495.3873 67.5641 L 495.9095 66.9386 L 496.9877 67.547 L 496.5684 68.7344 L 497.145 70.0115 L 498.2475 70.8758 L 498.8745 70.3691 L 499.5334 71.1782 L 499.9565 71.9278 L 501.3978 72.1621 L 502.0006 71.5615 L 501.8957 70.3521 L 502.637 68.9174 L 501.6393 68.462 L 501.6299 66.5387 L 502.5865 64.4546 L 503.2809 64.6375 L 503.178 63.141 L 502.7044 63.1792 L 502.6875 61.8914 L 501.8658 60.3406 L 501.1245 59.8649 L 499.6813 57.3808 L 499.043 57.3256 L 496.866 56.3494 L 495.4734 56.4682 L 494.9642 57.8011 L 493.9516 57.3171 L 491.9543 57.402 L 491.1887 58.6842 Z" fill="[object Object]" fill-opacity="1" stroke="dodgerblue" stroke-width="0.134013789353097" paint-order="fill" stroke-opacity="1" stroke-dasharray="" stroke-linecap="butt" stroke-miterlimit="10" style="filter: url(&quot;#zr2323-shadow-1&quot;);" transform="matrix(7.462,0,0,7.462,-3044.6975,-330.8395)">
</path>
<path d="M 467.4516 104.2806 L 467.9383 105.0315 L 468.9528 104.611 L 471.0081 104.5895 L 471.6221 106.1 L 472.3503 106.306 L 474.6433 106.1773 L 476.0135 107.5251 L 477.7412 107.9502 L 478.183 108.5427 L 479.4802 108.7617 L 480.1746 109.4488 L 481.7152 108.693 L 483.4991 108.5255 L 483.9783 108.109 L 484.6559 104.2206 L 485.1014 103.9503 L 484.6896 101.8187 L 485.1931 100.9355 L 484.6109 99.5424 L 483.4803 100.0267 L 483.1902 101.823 L 482.2805 102.7664 L 479.7329 102.6249 L 479.2424 101.7544 L 479.6749 100.091 L 479.6393 98.9938 L 479.0515 98.4582 L 477.3781 97.8284 L 477.0093 96.5133 L 475.5474 97.807 L 475.1524 99.371 L 473.8028 98.2525 L 472.9343 98.3982 L 472.5599 99.6495 L 472.7639 100.6654 L 470.2856 101.1284 L 469.1269 101.9259 L 467.4516 104.2806 Z" fill="[object Object]" fill-opacity="1" stroke="rgba(30,144,255,1)" stroke-width="0.134013789353097" paint-order="fill" stroke-opacity="1" stroke-dasharray="" stroke-linecap="butt" stroke-miterlimit="10" style="filter: url(&quot;#zr2323-shadow-0&quot;);" transform="matrix(7.462,0,0,7.462,-3044.6975,-330.8395)">
</path>
<path d="M 555.0623 379.47 L 556.6159 377.6491 L 555.5471 379.5863 L 556.7563 378.2217 L 557.4938 376.4458 L 557.4938 375.0727 L 556.8424 374.6746 L 556.747 376.6381 L 555.6313 378.1188 L 555.0623 379.47 Z M 518.6134 138.1814 L 519.8338 137.473 L 520.1333 137.7365 L 519.2329 138.6913 L 520.5545 137.9093 L 520.2082 137.0367 L 518.3906 137.7624 L 518.6134 138.1814 Z M 644.8687 189.2632 L 645.2449 191.3398 L 647.2796 191.174 L 645.2112 190.6461 L 645.1214 188.9186 L 645.6829 187.9897 L 645.0091 188.1816 L 644.8687 189.2632 Z M 524.0998 161.9075 L 525.4344 161.6211 L 525.8706 160.8009 L 525.0713 159.8506 L 523.0983 160.3019 L 525.12 160.406 L 525.2978 161.1437 L 524.0998 161.9075 Z M 567.8172 393.4608 L 568.272 394.545 L 569.6422 395.3694 L 571.0929 395.3291 L 573.0865 394.6928 L 575.767 393.1875 L 577.3487 392.6097 L 578.0637 391.6063 L 578.3932 389.1834 L 579.2842 387.8579 L 580.8266 386.5908 L 581.1224 385.8028 L 580.8322 384.339 L 579.4545 383.7034 L 578.2828 384.1421 L 575.3233 386.3535 L 574.1815 388.6102 L 571.8229 390.3925 L 570.4883 391.7676 L 568.3132 392.6007 L 567.8172 393.4608 Z M 522.3814 160.3366 L 520.9326 161.6124 L 520.7398 162.8407 L 521.6046 163.0144 L 523.2163 161.5429 L 521.5147 162.437 L 521.3575 161.8815 L 523.0216 160.163 L 522.3814 160.3366 Z M 569.4363 359.3462 L 570.1738 360.3108 L 570.6137 361.74 L 571.1154 360.8646 L 569.7976 359.2346 L 569.4363 359.3462 Z M 569.0077 360.217 L 569.3989 361.4988 L 570.1401 361.3425 L 569.4476 360.1902 L 569.0077 360.217 Z M 528.9498 158.5015 L 529.3803 158.9526 L 530.612 158.7921 L 530.9826 157.8032 L 529.5263 157.7729 L 528.9498 158.5015 Z M 524.1915 154.8593 L 524.4554 154.946 L 525.1555 153.2082 L 524.3019 152.3546 L 524.7325 153.8755 L 524.1915 154.8593 Z M 573.8277 362.2626 L 574.1516 363.6698 L 574.9415 363.1784 L 574.3893 361.7177 L 573.8277 362.2626 Z M 534.1723 140.3723 L 533.9664 141.3363 L 535.3965 141.1417 L 534.1723 140.3723 Z M 607.0477 336.7861 L 607.5287 337.2004 L 607.6504 338.39 L 608.3318 337.8286 L 608.8297 334.8484 L 607.7215 334.9241 L 607.0477 336.7861 Z M 582.3821 329.8926 L 582.88 331.188 L 583.4903 330.9076 L 583.7654 329.5231 L 582.3821 329.8926 Z M 583.8441 319.6425 L 584.576 320.3584 L 584.9672 318.8689 L 584.123 318.8778 L 583.8441 319.6425 Z M 478.1998 400.5366 L 478.2672 401.4735 L 479.1956 401.1911 L 480.373 399.7567 L 482.0428 396.9019 L 483.1603 396.0549 L 484.8281 395.6875 L 487.8044 396.2252 L 487.999 395.7278 L 487.1099 394.9572 L 485.3241 394.3882 L 483.4223 394.303 L 482.0203 394.7421 L 479.6524 397.7309 L 478.1998 400.5366 Z M 565.2396 392.6589 L 565.3257 393.6042 L 566.5443 393.2144 L 566.4956 392.4484 L 565.2396 392.6589 Z M 615.8623 359.1586 L 616.2797 359.7392 L 617.0472 358.5826 L 616.5193 358.1451 L 615.8623 359.1586 Z M 539.1028 167.1922 L 540.9896 166.9272 L 541.8451 166.167 L 541.3565 165.32 L 538.8126 166.041 L 538.5356 167.0879 L 539.1028 167.1922 Z M 540.3345 360.0563 L 541.0065 360.8914 L 542.4029 360.8066 L 541.5624 359.7169 L 540.3345 360.0563 Z M 593.7575 372.716 L 594.0457 373.2928 L 595.429 373.6148 L 595.5226 372.9843 L 593.7575 372.716 Z M 579.389 306.4257 L 579.507 307.0073 L 580.2763 306.0839 L 581.3264 306.4124 L 581.8973 305.8709 L 581.7738 304.455 L 581.1149 304.6725 L 579.389 306.4257 Z M 537.7438 159.2693 L 537.2216 160.0632 L 539.0878 159.4428 L 540.3607 159.4385 L 540.1641 158.649 L 537.7438 159.2693 Z M 536.5215 142.6507 L 536.2201 141.2844 L 535.6099 141.3449 L 536.5215 142.6507 Z M 519.3584 155.0457 L 520.2905 155.5139 L 520.3841 155.0067 L 519.3584 155.0457 Z M 600.2266 331.7045 L 601.2056 332.4926 L 601.8682 331.1925 L 600.586 330.7473 L 600.2266 331.7045 Z M 620.2125 318.2865 L 619.6715 319.5491 L 619.7745 320.6341 L 621.7867 320.7541 L 623.3684 319.9315 L 623.2299 319.1223 L 620.7441 319.5447 L 621.2982 317.6375 L 620.2125 318.2865 Z M 567.7722 382.7366 L 567.9819 383.8511 L 569.3072 384.3614 L 568.6876 382.3786 L 567.7722 382.7366 Z M 580.1677 379.631 L 580.4298 380.0874 L 581.9441 379.6176 L 582.5263 378.8436 L 581.9497 378.6064 L 580.1677 379.631 Z M 583.4454 377.2018 L 583.874 377.8817 L 584.8923 377.7654 L 584.5909 377.1928 L 583.4454 377.2018 Z M 598.8508 346.0792 L 599.6201 346.2353 L 599.3393 344.6746 L 598.8508 346.0792 Z M 562.5853 356.5422 L 562.9166 356.9396 L 564.4572 355.8101 L 564.2251 355.3772 L 562.5853 356.5422 Z M 619.5779 351.2089 L 620.0758 352.2263 L 620.2499 350.9591 L 619.5779 351.2089 Z M 541.2667 464.5381 L 541.6635 465.3576 L 542.2213 465.155 L 542.4347 464.0968 L 541.5287 463.9888 L 541.2667 464.5381 Z M 568.6726 359.2837 L 568.1223 358.9041 L 567.7498 359.6186 L 568.5285 360.1858 L 568.6726 359.2837 Z M 529.6892 494.7385 L 530.5858 495 L 530.2152 493.9538 L 529.6892 494.7385 Z M 487.7482 386.9579 L 487.9841 387.84 L 488.7983 387.9206 L 490.0506 387.0072 L 490.7095 385.6551 L 490.6103 384.2316 L 489.7024 384.3659 L 488.0814 385.8745 L 487.7482 386.9579 Z M 583.9957 301.8859 L 584.2596 301.948 L 585.9387 299.9474 L 586.0641 299.1756 L 585.3977 299.0337 L 584.2652 300.9321 L 583.9957 301.8859 Z M 588.3103 305.6978 L 588.7203 306.2704 L 589.3118 304.6459 L 588.7839 304.6237 L 588.3103 305.6978 Z M 520.8353 154.5603 L 521.6682 155.3578 L 521.2283 154.0012 L 520.8353 154.5603 Z M 582.4308 290.3594 L 583.0934 290.2221 L 583.2806 287.9189 L 582.4308 288.1005 L 582.4308 290.3594 Z M 539.728 154.6686 L 541.3284 153.0609 L 541.0982 152.7489 L 539.5689 153.9232 L 539.728 154.6686 Z M 585.9068 378.5304 L 585.6111 379.7966 L 586.3149 379.895 L 585.9068 378.5304 Z M 625.0288 288.4813 L 625.8 290.4081 L 625.9441 289.9961 L 625.2572 288.127 L 625.0288 288.4813 Z M 523.2107 151.3886 L 523.9631 152.1467 L 523.746 151.211 L 523.2107 151.3886 Z M 566.7876 328.4549 L 567.1789 328.8732 L 567.323 325.6469 L 567.001 325.6692 L 566.7876 328.4549 Z M 524.6501 165.5632 L 524.9534 166.4276 L 525.9997 165.8977 L 526.0222 165.3157 L 524.6501 165.5632 Z M 541.8731 462.7056 L 542.7473 463.7952 L 542.8652 463.0523 L 541.8731 462.7056 Z M 609.8742 347.2298 L 608.8447 347.5242 L 609.1797 348.6437 L 610.3197 347.997 L 609.8742 347.2298 Z M 563.0327 349.6876 L 563.3715 350.4504 L 563.7796 349.8303 L 563.0327 349.6876 Z M 584.1173 162.6367 L 586.401 161.8771 L 586.1333 161.4388 L 584.1454 161.8554 L 584.1173 162.6367 Z M 595.8315 323.7918 L 595.9962 324.3434 L 596.8573 323.5605 L 595.8315 323.7918 Z M 583.3611 393.9223 L 583.8085 394.6077 L 584.5423 393.4653 L 583.6063 393.3712 L 583.3611 393.9223 Z M 595.3298 369.1305 L 595.5451 369.9888 L 596.1029 369.0948 L 595.3298 369.1305 Z M 498.3298 379.7339 L 498.562 380.9242 L 500.241 380.3469 L 501.1601 378.6422 L 500.5218 378.2172 L 498.3673 379.4118 L 498.3298 379.7339 Z M 554.1731 380.8749 L 555.4161 379.8816 L 554.9612 379.7295 L 554.1731 380.8749 Z M 574.803 322.4396 L 575.2185 322.4974 L 576.497 321.2878 L 576.2181 320.8519 L 575.2578 321.5368 L 574.803 322.4396 Z M 579.8682 309.6269 L 581.2777 307.984 L 580.8023 307.5711 L 579.8682 309.6269 Z M 583.8253 289.3583 L 584.6714 290.4436 L 584.4674 288.7471 L 583.8253 289.3583 Z M 623.2374 315.3708 L 624.6563 315.6775 L 624.4691 315.0109 L 623.2374 315.3708 Z M 646.1341 308.1083 L 646.6975 308.6544 L 647.4481 307.2958 L 647.3863 306.4124 L 646.7555 306.3325 L 646.1341 308.1083 Z M 538.8239 462.9307 L 539.7074 463.5971 L 539.5576 462.8092 L 538.8239 462.9307 Z M 533.9551 493.9087 L 534.8574 494.1252 L 534.3857 493.2053 L 533.9551 493.9087 Z M 534.498 492.1682 L 535.228 492.1006 L 534.7076 491.4017 L 534.498 492.1682 Z M 600.4175 369.6446 L 600.6684 370.4626 L 601.3235 370.4403 L 601.4152 368.7729 L 600.5111 368.8713 L 600.4175 369.6446 Z M 498.3467 388.2654 L 498.8951 388.7087 L 499.3781 388.1042 L 498.8409 387.5131 L 498.3467 388.2654 Z M 501.3473 382.5755 L 502.0268 383.1663 L 502.0099 382.034 L 501.3473 382.5755 Z M 520.1502 395.1543 L 521.0487 395.1812 L 521.6308 393.8595 L 520.6425 393.5818 L 520.1502 395.1543 Z M 527.9614 380.96 L 528.7645 381.5909 L 529.8464 381.1032 L 529.7341 380.3559 L 528.5492 380.0069 L 527.9614 380.96 Z M 536.4634 357.9084 L 537.4069 358.0825 L 537.2515 357.3414 L 536.4634 357.9084 Z M 635.7639 320.3184 L 636.6007 320.4962 L 636.1027 319.3046 L 635.7639 320.3184 Z M 574.2077 166.1322 L 576.1226 166.3103 L 576.0964 165.6761 L 574.2077 166.1322 Z M 571.2464 304.2198 L 572.1225 304.2065 L 571.9465 303.4388 L 571.2464 304.2198 Z M 522.5574 364.7376 L 522.7109 366.0825 L 523.7647 365.3542 L 523.351 364.5678 L 522.5574 364.7376 Z M 611.9669 307.2647 L 612.5903 307.6377 L 612.3039 306.59 L 611.9669 307.2647 Z M 587.1685 403.2399 L 586.4759 404.6254 L 587.4811 404.4685 L 587.1685 403.2399 Z M 561.8085 410.8464 L 561.3386 411.9096 L 561.9788 411.9769 L 561.8085 410.8464 Z M 540.1323 442.3233 L 540.8492 443.2721 L 540.8268 441.6128 L 540.1323 442.3233 Z M 587.4549 383.3095 L 587.7656 384.0883 L 588.5013 383.6049 L 588.3833 382.665 L 587.4549 383.3095 Z M 522.8063 392.2692 L 523.5532 392.3364 L 524.4068 390.8494 L 523.9388 390.1417 L 523.2256 390.6389 L 522.8063 392.2692 Z M 582.0059 360.0652 L 582.9512 360.1009 L 583.6924 359.1185 L 583.3518 358.6139 L 582.3784 359.1185 L 582.0059 360.0652 Z M 611.2538 326.3856 L 611.7535 327.2355 L 612.2758 326.4389 L 611.7573 325.4823 L 611.2538 326.3856 Z M 635.9436 310.3153 L 638.7327 310.8793 L 639.0116 310.0222 L 638.0158 308.9475 L 636.4734 309.1384 L 635.9436 310.3153 Z M 540.0443 446.0514 L 540.4861 447.1218 L 540.9072 446.7395 L 540.8211 445.4847 L 540.1548 445.2148 L 540.0443 446.0514 Z M 541.2573 448.5972 L 541.8881 451.1885 L 542.3935 450.7971 L 541.9255 448.4038 L 541.2573 448.5972 Z M 542.6294 460.8553 L 542.6687 462.1113 L 543.2677 462.422 L 544.0014 461.6927 L 543.1853 460.4682 L 542.6294 460.8553 Z M 522.1662 385.3731 L 523.5532 385.9372 L 523.6786 384.8269 L 522.4282 384.6882 L 522.1662 385.3731 Z M 547.5018 387.0699 L 548.2618 387.5131 L 548.3086 386.443 L 547.5018 387.0699 Z M 534.4063 359.2971 L 535.1588 359.8285 L 535.2992 358.9979 L 534.4063 359.2971 Z M 637.589 326.5235 L 638.3377 327.2444 L 638.1075 326.0874 L 637.589 326.5235 Z M 624.3811 157.916 L 624.7593 159.2303 L 625.4481 158.5579 L 625.45 157.5127 L 624.851 157.1614 L 624.3811 157.916 Z M 578.966 166.3103 L 580.4466 165.7065 L 579.3104 165.4112 L 578.966 166.3103 Z M 549.5459 73.6319 L 550.4687 73.4103 L 550.2722 72.1067 L 549.5553 72.1834 L 549.5459 73.6319 Z M 566.5069 82.0941 L 567.3529 82.282 L 568.1766 81.7227 L 568.2907 80.3398 L 567.3922 79.977 L 565.994 80.3483 L 565.848 80.997 L 566.5069 82.0941 Z M 540.7313 460.7833 L 540.9765 461.8007 L 541.817 461.265 L 541.6317 460.5087 L 540.7313 460.7833 Z M 547.8088 463.9303 L 548.5463 463.9618 L 548.726 462.44 L 547.8856 462.7056 L 547.8088 463.9303 Z M 597.4319 222.5164 L 598.1563 223.1612 L 598.9837 222.6612 L 598.6767 221.7488 L 597.4319 222.5164 Z M 534.0469 146.7603 L 534.7675 146.254 L 533.7305 145.7737 L 534.0469 146.7603 Z M 534.191 175.4226 L 534.5579 174.1565 L 533.5845 174.9309 L 534.191 175.4226 Z M 541.8376 453.8207 L 542.4104 454.3561 L 543.3182 453.7126 L 543.438 452.7722 L 542.5152 452.6957 L 541.8376 453.8207 Z M 589.089 396.1042 L 589.7404 396.9825 L 590.3619 396.7584 L 590.3974 395.6472 L 589.089 396.1042 Z M 520.4459 388.0504 L 521.0823 389.0311 L 521.7787 387.1684 L 521.4605 386.6042 L 520.4459 388.0504 Z M 588.6248 166.2408 L 588.0052 166.2538 L 588.3178 167.1748 L 588.6248 166.2408 Z M 625.4855 354.3907 L 624.471 354.596 L 625.3058 355.145 L 625.4855 354.3907 Z M 568.6595 171.6689 L 569.3596 172.469 L 569.3072 171.5602 L 568.6595 171.6689 Z M 542.5339 156.8319 L 543.2508 156.4243 L 542.8091 155.7263 L 542.5339 156.8319 Z M 605.4454 316.5308 L 605.8104 317.2419 L 606.3308 316.4641 L 605.4454 316.5308 Z M 539.8197 341.2287 L 539.7448 341.7457 L 540.9653 341.9819 L 540.9353 340.9835 L 539.8197 341.2287 Z M 582.2361 176.6802 L 581.6521 177.3243 L 582.253 177.5986 L 582.2361 176.6802 Z M 636.6025 299.9119 L 635.8931 300.3111 L 636.7055 301.2692 L 636.6025 299.9119 Z M 644.5149 300.6881 L 643.7587 300.7591 L 644.5055 301.5576 L 644.5149 300.6881 Z M 573.2736 345.5486 L 573.444 346.6902 L 573.8258 345.3613 L 573.2736 345.5486 Z" fill="[object Object]" fill-opacity="1" stroke="rgba(30,144,255,1)" stroke-width="0.134013789353097" paint-order="fill" stroke-opacity="1" stroke-dasharray="" stroke-linecap="butt" stroke-miterlimit="10" style="filter: url(&quot;#zr2323-shadow-0&quot;);" transform="matrix(7.462,0,0,7.462,-3044.6975,-330.8395)">
</path>
<path d="M 467.3767 72.2302 L 467.5976 72.9587 L 468.4699 73.4998 L 468.7656 74.7314 L 469.724 74.7613 L 469.8588 73.2144 L 471.1953 73.7597 L 471.4574 73.4359 L 472.4251 75.601 L 474.2315 76.2064 L 475.2666 75.6308 L 476.5825 76.782 L 477.3987 76.7991 L 478.0632 75.5967 L 478.6004 75.4177 L 479.0553 76.6711 L 478.2878 78.2449 L 479.7684 77.9548 L 480.6931 79.8064 L 481.1911 79.5546 L 481.6366 80.9031 L 482.4265 80.7666 L 482.7073 81.5391 L 483.1078 80.391 L 482.915 79.0511 L 483.2407 78.0103 L 482.9749 76.9441 L 481.9042 76.7266 L 481.8874 75.5157 L 483.7331 75.3793 L 484.0213 75.1236 L 483.5402 72.9928 L 484.1842 72.1067 L 484.3732 70.7694 L 483.1584 70.7949 L 482.1495 69.8923 L 482.2468 69.3899 L 480.6033 69.1771 L 480.0867 67.5641 L 480.9365 66.6663 L 480.3263 64.8544 L 480.2327 63.3195 L 478.8999 62.8222 L 477.1235 62.2314 L 475.8862 62.1379 L 475.0476 61.6237 L 474.1678 61.9679 L 473.9863 62.9879 L 473.2375 63.294 L 472.0358 65.05 L 472.2454 66.5046 L 471.8037 67.3598 L 470.7124 67.7683 L 469.8008 69.6496 L 468.6851 70.5479 L 467.3767 72.2302 Z" fill="[object Object]" fill-opacity="1" stroke="dodgerblue" stroke-width="0.134013789353097" paint-order="fill" stroke-opacity="1" stroke-dasharray="" stroke-linecap="butt" stroke-miterlimit="10" style="filter: url(&quot;#zr2323-shadow-1&quot;);" transform="matrix(7.462,0,0,7.462,-3044.6975,-330.8395)">
</path>
<path d="M 483.2819 90.8462 L 482.9525 89.345 L 483.587 88.6908 L 482.4957 88.3616 L 480.9795 88.7806 L 480.0099 87.8101 L 479.4128 85.5279 L 478.2878 85.4938 L 478.0445 86.4808 L 477.4061 86.6219 L 476.2531 88.0837 L 475.8637 87.8101 L 475.4164 88.3488 L 475.7552 89.6743 L 476.3916 90.2987 L 475.9629 91.4066 L 476.0285 94.1626 L 476.8671 95.2286 L 477.0673 96.3977 L 477.8816 95.6525 L 478.6959 95.8881 L 479.7329 95.5412 L 479.6075 94.6035 L 480.4779 94.0513 L 481.3502 95.036 L 481.7938 93.8287 L 483.0311 93.8629 L 482.5968 92.1297 L 482.7522 90.9446 L 483.2819 90.8462 Z" fill="[object Object]" fill-opacity="1" stroke="dodgerblue" stroke-width="0.134013789353097" paint-order="fill" stroke-opacity="1" stroke-dasharray="" stroke-linecap="butt" stroke-miterlimit="10" style="filter: url(&quot;#zr2323-shadow-1&quot;);" transform="matrix(7.462,0,0,7.462,-3044.6975,-330.8395)">
</path>
<path d="M 501.3791 84.0883 L 501.5551 82.2649 L 502.7156 78.6459 L 503.3184 77.733 L 503.7938 76.151 L 501.8433 75.8142 L 501.2574 76.9185 L 500.8437 76.4494 L 500.7895 75.0554 L 500.0782 73.7384 L 499.2414 73.7384 L 498.8352 74.416 L 498.1389 74.3009 L 497.6054 75.2173 L 496.4898 75.8014 L 495.6531 77.8653 L 496.2989 78.3131 L 495.9975 80.2075 L 495.1046 80.5446 L 493.5809 80.3867 L 492.484 81.2062 L 492.0853 80.7452 L 491.3646 82.773 L 491.5443 85.0836 L 492.2407 86.3783 L 493.6764 86.2971 L 494.0882 87.0022 L 498.4365 84.3574 L 498.6892 83.7509 L 499.584 83.5886 L 501.3791 84.0883 Z" fill="[object Object]" fill-opacity="1" stroke="dodgerblue" stroke-width="0.134013789353097" paint-order="fill" stroke-opacity="1" stroke-dasharray="" stroke-linecap="butt" stroke-miterlimit="10" style="filter: url(&quot;#zr2323-shadow-1&quot;);" transform="matrix(7.462,0,0,7.462,-3044.6975,-330.8395)">
</path>
<path d="M 503.7938 76.151 L 504.8252 75.6948 L 506.0981 74.2285 L 507.6499 71.4678 L 509.4319 70.0839 L 510.6935 69.4112 L 510.1413 65.7815 L 509.5273 63.4385 L 508.6363 59.1344 L 508.0579 58.6375 L 506.654 59.0961 L 505.3849 58.4464 L 504.7709 57.5676 L 504.0896 57.4148 L 503.5355 55.3988 L 502.9253 55 L 502.2907 55.785 L 500.402 56.4512 L 499.6813 57.3808 L 501.1245 59.8649 L 501.8658 60.3406 L 502.6875 61.8914 L 502.7044 63.1792 L 503.178 63.141 L 503.2809 64.6375 L 502.5865 64.4546 L 501.6299 66.5387 L 501.6393 68.462 L 502.637 68.9174 L 501.8957 70.3521 L 502.0006 71.5615 L 501.3978 72.1621 L 499.9565 71.9278 L 499.5334 71.1782 L 498.5339 72.0385 L 498.8558 72.8224 L 499.5597 72.6179 L 500.0782 73.7384 L 500.7895 75.0554 L 500.8437 76.4494 L 501.2574 76.9185 L 501.8433 75.8142 L 503.7938 76.151 Z" fill="[object Object]" fill-opacity="1" stroke="rgba(30,144,255,1)" stroke-width="0.134013789353097" paint-order="fill" stroke-opacity="1" stroke-dasharray="" stroke-linecap="butt" stroke-miterlimit="10" style="filter: url(&quot;#zr2323-shadow-0&quot;);" transform="matrix(7.462,0,0,7.462,-3044.6975,-330.8395)">
</path>
<path d="M 492.2407 86.3783 L 491.2242 87.8571 L 491.0109 88.7421 L 489.9514 89.469 L 490.9716 91.4451 L 490.1929 92.8743 L 489.3374 93.5633 L 489.4553 95.5583 L 491.3777 97.34 L 491.8157 96.9802 L 493.36 97.717 L 494.0133 96.886 L 495.6943 95.9994 L 496.4655 96.2778 L 499.0486 95.7981 L 499.1591 93.0283 L 500.7183 92.1682 L 500.9748 90.7008 L 500.8793 89.1184 L 501.3791 84.0883 L 499.584 83.5886 L 498.6892 83.7509 L 498.4365 84.3574 L 494.0882 87.0022 L 493.6764 86.2971 L 492.2407 86.3783 Z" fill="[object Object]" fill-opacity="1" stroke="dodgerblue" stroke-width="0.134013789353097" paint-order="fill" stroke-opacity="1" stroke-dasharray="" stroke-linecap="butt" stroke-miterlimit="10" style="filter: url(&quot;#zr2323-shadow-1&quot;);" transform="matrix(7.462,0,0,7.462,-3044.6975,-330.8395)">
</path>
<path d="M 471.3507 89.6401 L 470.6337 88.7934 L 471.1167 87.1732 L 470.8172 85.6006 L 468.9959 85.0153 L 469.2823 83.4776 L 468.6552 82.8498 L 467.9064 80.4635 L 467.124 80.4721 L 465.4468 79.3583 L 464.4472 79.7679 L 462.8374 79.2815 L 461.6376 76.9483 L 460.8476 79.2303 L 460.5519 82.5467 L 460.6979 84.8572 L 461.3474 86.28 L 461.4972 88.3958 L 460.6436 89.8111 L 460.5949 91.5007 L 461.9408 93.9956 L 463.998 93.5847 L 465.0069 93.91 L 465.6733 93.0797 L 467.3748 92.0184 L 468.556 92.1168 L 469.125 91.5136 L 470.2556 91.5521 L 470.7386 90.2174 L 471.3507 89.6401 Z" fill="[object Object]" fill-opacity="1" stroke="dodgerblue" stroke-width="0.134013789353097" paint-order="fill" stroke-opacity="1" stroke-dasharray="" stroke-linecap="butt" stroke-miterlimit="10" style="filter: url(&quot;#zr2323-shadow-1&quot;);" transform="matrix(7.462,0,0,7.462,-3044.6975,-330.8395)">
</path>
<path d="M 493.5809 80.3867 L 495.1046 80.5446 L 495.9975 80.2075 L 496.2989 78.3131 L 495.6531 77.8653 L 496.4898 75.8014 L 497.6054 75.2173 L 498.1389 74.3009 L 498.8352 74.416 L 499.2414 73.7384 L 500.0782 73.7384 L 499.5597 72.6179 L 498.8558 72.8224 L 498.5339 72.0385 L 499.5334 71.1782 L 498.8745 70.3691 L 498.2475 70.8758 L 497.145 70.0115 L 496.5684 68.7344 L 496.9877 67.547 L 495.9095 66.9386 L 495.3873 67.5641 L 494.3409 67.8364 L 493.5154 69.3856 L 492.806 69.1984 L 492.2856 68.262 L 491.6903 68.8961 L 491.8101 71.2591 L 492.9202 70.4798 L 493.0044 71.9321 L 493.9478 72.4091 L 493.6389 74.2157 L 492.9576 74.0751 L 492.3605 74.8763 L 492.3848 76.62 L 492.8415 78.1084 L 493.6464 78.2235 L 493.5809 80.3867 Z" fill="[object Object]" fill-opacity="1" stroke="dodgerblue" stroke-width="0.134013789353097" paint-order="fill" stroke-opacity="1" stroke-dasharray="" stroke-linecap="butt" stroke-miterlimit="10" style="filter: url(&quot;#zr2323-shadow-1&quot;);" transform="matrix(7.462,0,0,7.462,-3044.6975,-330.8395)">
</path>
<path d="M 491.3646 82.773 L 492.0853 80.7452 L 492.484 81.2062 L 493.5809 80.3867 L 493.6464 78.2235 L 492.8415 78.1084 L 492.3848 76.62 L 492.3605 74.8763 L 492.9576 74.0751 L 493.6389 74.2157 L 493.9478 72.4091 L 493.0044 71.9321 L 492.9202 70.4798 L 491.8101 71.2591 L 491.0932 71.5572 L 491.4507 72.7968 L 490.4923 73.0993 L 489.9607 74.0708 L 489.4497 73.2783 L 487.7875 73.2697 L 487.9635 73.747 L 487.3083 74.9317 L 487.2746 75.8056 L 486.5371 75.9335 L 485.5263 77.1146 L 485.4514 78.5563 L 487.4899 79.9045 L 488.1787 81.2788 L 489.5714 81.6288 L 490.1929 82.7346 L 491.3646 82.773 Z" fill="[object Object]" fill-opacity="1" stroke="rgba(30,144,255,1)" stroke-width="0.134013789353097" paint-order="fill" stroke-opacity="1" stroke-dasharray="" stroke-linecap="butt" stroke-miterlimit="10" style="filter: url(&quot;#zr2323-shadow-0&quot;);" transform="matrix(7.462,0,0,7.462,-3044.6975,-330.8395)">
</path>
<path d="M 491.8101 71.2591 L 491.6903 68.8961 L 492.2856 68.262 L 492.806 69.1984 L 493.5154 69.3856 L 494.3409 67.8364 L 493.5304 68.0407 L 493.2496 67.045 L 493.6502 66.0452 L 492.8003 63.0687 L 491.9449 62.3972 L 492.3081 60.0093 L 491.1887 58.6842 L 488.9874 59.9498 L 488.3322 59.5803 L 486.1047 59.8351 L 486.5989 62.4992 L 485.8464 62.8732 L 486.6925 63.362 L 486.494 64.8119 L 486.9545 65.3562 L 486.0579 68.7727 L 484.7177 69.9732 L 484.3732 70.7694 L 484.1842 72.1067 L 483.5402 72.9928 L 484.0213 75.1236 L 483.7331 75.3793 L 484.8599 76.1211 L 486.1496 75.2472 L 486.5371 75.9335 L 487.2746 75.8056 L 487.3083 74.9317 L 487.9635 73.747 L 487.7875 73.2697 L 489.4497 73.2783 L 489.9607 74.0708 L 490.4923 73.0993 L 491.4507 72.7968 L 491.0932 71.5572 L 491.8101 71.2591 Z" fill="[object Object]" fill-opacity="1" stroke="rgba(30,144,255,1)" stroke-width="0.134013789353097" paint-order="fill" stroke-opacity="1" stroke-dasharray="" stroke-linecap="butt" stroke-miterlimit="10" style="filter: url(&quot;#zr2323-shadow-0&quot;);" transform="matrix(7.462,0,0,7.462,-3044.6975,-330.8395)">
</path>
<path d="M 486.1047 59.8351 L 485.2811 59.5973 L 484.2179 59.9116 L 483.2183 58.939 L 480.652 59.7247 L 479.4652 60.9311 L 478.8999 62.8222 L 480.2327 63.3195 L 480.3263 64.8544 L 480.9365 66.6663 L 480.0867 67.5641 L 480.6033 69.1771 L 482.2468 69.3899 L 482.1495 69.8923 L 483.1584 70.7949 L 484.3732 70.7694 L 484.7177 69.9732 L 486.0579 68.7727 L 486.9545 65.3562 L 486.494 64.8119 L 486.6925 63.362 L 485.8464 62.8732 L 486.5989 62.4992 L 486.1047 59.8351 Z" fill="[object Object]" fill-opacity="1" stroke="rgba(30,144,255,1)" stroke-width="0.134013789353097" paint-order="fill" stroke-opacity="1" stroke-dasharray="" stroke-linecap="butt" stroke-miterlimit="10" style="filter: url(&quot;#zr2323-shadow-0&quot;);" transform="matrix(7.462,0,0,7.462,-3044.6975,-330.8395)">
</path>
<path d="M 474.8473 87.4168 L 475.8637 87.8101 L 476.2531 88.0837 L 477.4061 86.6219 L 478.0445 86.4808 L 478.2878 85.4938 L 479.4128 85.5279 L 480.1671 84.4044 L 480.9777 84.9213 L 481.2229 84.0328 L 482.7222 83.1616 L 482.7073 81.5391 L 482.4265 80.7666 L 481.6366 80.9031 L 481.1911 79.5546 L 480.6931 79.8064 L 479.7684 77.9548 L 478.2878 78.2449 L 479.0553 76.6711 L 478.6004 75.4177 L 478.0632 75.5967 L 477.3987 76.7991 L 476.5825 76.782 L 475.2666 75.6308 L 474.2315 76.2064 L 472.4251 75.601 L 471.4574 73.4359 L 471.1953 73.7597 L 469.8588 73.2144 L 469.724 74.7613 L 469.7016 77.1232 L 470.4896 77.4985 L 471.7063 79.2005 L 471.2496 80.8647 L 472.1275 82.5296 L 472.3989 84.114 L 474.3007 84.5454 L 474.8473 87.4168 Z" fill="[object Object]" fill-opacity="1" stroke="dodgerblue" stroke-width="0.134013789353097" paint-order="fill" stroke-opacity="1" stroke-dasharray="" stroke-linecap="butt" stroke-miterlimit="10" style="filter: url(&quot;#zr2323-shadow-1&quot;);" transform="matrix(7.462,0,0,7.462,-3044.6975,-330.8395)">
</path>
<path d="M 469.724 74.7613 L 468.7656 74.7314 L 468.4699 73.4998 L 467.5976 72.9587 L 467.3767 72.2302 L 466.5344 73.1632 L 464.904 74.2157 L 463.7172 75.8056 L 462.6353 75.9293 L 461.6376 76.9483 L 462.8374 79.2815 L 464.4472 79.7679 L 465.4468 79.3583 L 467.124 80.4721 L 467.9064 80.4635 L 468.6552 82.8498 L 469.2823 83.4776 L 468.9959 85.0153 L 470.8172 85.6006 L 471.1167 87.1732 L 470.6337 88.7934 L 471.3507 89.6401 L 471.6857 88.9388 L 472.9979 89.1996 L 474.1865 88.9003 L 474.8473 87.4168 L 474.3007 84.5454 L 472.3989 84.114 L 472.1275 82.5296 L 471.2496 80.8647 L 471.7063 79.2005 L 470.4896 77.4985 L 469.7016 77.1232 L 469.724 74.7613 Z" fill="[object Object]" fill-opacity="1" stroke="dodgerblue" stroke-width="0.134013789353097" paint-order="fill" stroke-opacity="1" stroke-dasharray="" stroke-linecap="butt" stroke-miterlimit="10" style="filter: url(&quot;#zr2323-shadow-1&quot;);" transform="matrix(7.462,0,0,7.462,-3044.6975,-330.8395)">
</path>
<path d="M 477.0093 96.5133 L 477.0673 96.3977 L 476.8671 95.2286 L 476.0285 94.1626 L 475.9629 91.4066 L 476.3916 90.2987 L 475.7552 89.6743 L 475.4164 88.3488 L 475.8637 87.8101 L 474.8473 87.4168 L 474.1865 88.9003 L 472.9979 89.1996 L 471.6857 88.9388 L 471.3507 89.6401 L 470.7386 90.2174 L 470.2556 91.5521 L 469.125 91.5136 L 468.556 92.1168 L 467.3748 92.0184 L 465.6733 93.0797 L 465.0069 93.91 L 463.998 93.5847 L 461.9408 93.9956 L 462.0288 95.1687 L 461.5627 98.0812 L 461.6413 100.1982 L 461.9109 100.8454 L 462.9554 101.3471 L 464.305 101.4028 L 466.4183 102.0889 L 467.4516 104.2806 L 469.1269 101.9259 L 470.2856 101.1284 L 472.7639 100.6654 L 472.5599 99.6495 L 472.9343 98.3982 L 473.8028 98.2525 L 475.1524 99.371 L 475.5474 97.807 L 477.0093 96.5133 Z" fill="[object Object]" fill-opacity="1" stroke="dodgerblue" stroke-width="0.134013789353097" paint-order="fill" stroke-opacity="1" stroke-dasharray="" stroke-linecap="butt" stroke-miterlimit="10" style="filter: url(&quot;#zr2323-shadow-1&quot;);" transform="matrix(7.462,0,0,7.462,-3044.6975,-330.8395)">
</path>
<path d="M 489.3374 93.5633 L 488.6392 92.6389 L 487.9054 92.5105 L 487.0612 93.3878 L 486.8329 92.9812 L 485.6124 93.6789 L 484.4556 91.5007 L 484.1055 92.0527 L 484.4256 93.8116 L 485.0359 93.7688 L 485.794 95.0274 L 485.0864 97.2972 L 485.9344 97.9226 L 485.5731 99.5381 L 484.6109 99.5424 L 485.1931 100.9355 L 484.6896 101.8187 L 485.1014 103.9503 L 487.4113 103.1953 L 489.0304 103.62 L 490.4661 103.1782 L 490.8649 102.5563 L 491.3927 99.6624 L 493.36 97.717 L 491.8157 96.9802 L 491.3777 97.34 L 489.4553 95.5583 L 489.3374 93.5633 Z" fill="[object Object]" fill-opacity="1" stroke="rgba(30,144,255,1)" stroke-width="0.134013789353097" paint-order="fill" stroke-opacity="1" stroke-dasharray="" stroke-linecap="butt" stroke-miterlimit="10" style="filter: url(&quot;#zr2323-shadow-0&quot;);" transform="matrix(7.462,0,0,7.462,-3044.6975,-330.8395)">
</path>
<path d="M 483.2819 90.8462 L 482.7522 90.9446 L 482.5968 92.1297 L 483.0311 93.8629 L 481.7938 93.8287 L 481.3502 95.036 L 480.4779 94.0513 L 479.6075 94.6035 L 479.7329 95.5412 L 478.6959 95.8881 L 477.8816 95.6525 L 477.0673 96.3977 L 477.0093 96.5133 L 477.3781 97.8284 L 479.0515 98.4582 L 479.6393 98.9938 L 479.6749 100.091 L 479.2424 101.7544 L 479.7329 102.6249 L 482.2805 102.7664 L 483.1902 101.823 L 483.4803 100.0267 L 484.6109 99.5424 L 485.5731 99.5381 L 485.9344 97.9226 L 485.0864 97.2972 L 485.794 95.0274 L 485.0359 93.7688 L 484.4256 93.8116 L 484.1055 92.0527 L 484.4556 91.5007 L 483.2819 90.8462 Z" fill="[object Object]" fill-opacity="1" stroke="rgba(30,144,255,1)" stroke-width="0.134013789353097" paint-order="fill" stroke-opacity="1" stroke-dasharray="" stroke-linecap="butt" stroke-miterlimit="10" style="filter: url(&quot;#zr2323-shadow-0&quot;);" transform="matrix(7.462,0,0,7.462,-3044.6975,-330.8395)">
</path>
<path d="M 486.5371 75.9335 L 486.1496 75.2472 L 484.8599 76.1211 L 483.7331 75.3793 L 481.8874 75.5157 L 481.9042 76.7266 L 482.9749 76.9441 L 483.2407 78.0103 L 482.915 79.0511 L 483.1078 80.391 L 482.7073 81.5391 L 482.7222 83.1616 L 481.2229 84.0328 L 480.9777 84.9213 L 480.1671 84.4044 L 479.4128 85.5279 L 480.0099 87.8101 L 480.9795 88.7806 L 482.4957 88.3616 L 483.587 88.6908 L 482.9525 89.345 L 483.2819 90.8462 L 484.4556 91.5007 L 485.6124 93.6789 L 486.8329 92.9812 L 487.0612 93.3878 L 487.9054 92.5105 L 488.6392 92.6389 L 489.3374 93.5633 L 490.1929 92.8743 L 490.9716 91.4451 L 489.9514 89.469 L 491.0109 88.7421 L 491.2242 87.8571 L 492.2407 86.3783 L 491.5443 85.0836 L 491.3646 82.773 L 490.1929 82.7346 L 489.5714 81.6288 L 488.1787 81.2788 L 487.4899 79.9045 L 485.4514 78.5563 L 485.5263 77.1146 L 486.5371 75.9335 Z" fill="[object Object]" fill-opacity="1" stroke="rgba(30,144,255,1)" stroke-width="0.134013789353097" paint-order="fill" stroke-opacity="1" stroke-dasharray="" stroke-linecap="butt" stroke-miterlimit="10" style="filter: url(&quot;#zr2323-shadow-0&quot;);" transform="matrix(7.462,0,0,7.462,-3044.6975,-330.8395)">
</path>
<text xml:space="preserve" fill="#bdbdd9" fill-opacity="1" stroke="none" transform="matrix(1,0,0,1,665.6281,148.6315)" dominant-baseline="central" text-anchor="middle" x="0" y="0" style="font: 13 13px sans-serif;">海口市</text>
<text xml:space="preserve" fill="rgba(189,189,217,1)" fill-opacity="1" stroke="none" transform="matrix(1,0,0,1,509.581,437.5971)" dominant-baseline="central" text-anchor="middle" x="0" y="0" style="font: 13 13px sans-serif;">三亚市</text>
<text xml:space="preserve" fill="rgba(189,189,217,1)" fill-opacity="1" stroke="none" transform="matrix(1,0,0,1,1155.0492,1785.0126)" dominant-baseline="central" text-anchor="middle" x="0" y="0" style="font: 13 13px sans-serif;">三沙市</text>
<text xml:space="preserve" fill="#bdbdd9" fill-opacity="1" stroke="none" transform="matrix(1,0,0,1,506.2428,203.2953)" dominant-baseline="central" text-anchor="middle" x="0" y="0" style="font: 13 13px sans-serif;">儋州市</text>
<text xml:space="preserve" fill="#bdbdd9" fill-opacity="1" stroke="none" transform="matrix(1,0,0,1,533.3052,347.7902)" dominant-baseline="central" text-anchor="middle" x="0" y="0" style="font: 13 13px sans-serif;">五指山市</text>
<text xml:space="preserve" fill="#bdbdd9" fill-opacity="1" stroke="none" transform="matrix(1,0,0,1,668.1982,268.8774)" dominant-baseline="central" text-anchor="middle" x="0" y="0" style="font: 13 13px sans-serif;">琼海市</text>
<text xml:space="preserve" fill="rgba(189,189,217,1)" fill-opacity="1" stroke="none" transform="matrix(1,0,0,1,720.6888,161.3429)" dominant-baseline="central" text-anchor="middle" x="0" y="0" style="font: 13 13px sans-serif;">文昌市</text>
<text xml:space="preserve" fill="#bdbdd9" fill-opacity="1" stroke="none" transform="matrix(1,0,0,1,651.6255,345.6045)" dominant-baseline="central" text-anchor="middle" x="0" y="0" style="font: 13 13px sans-serif;">万宁市</text>
<text xml:space="preserve" fill="#bdbdd9" fill-opacity="1" stroke="none" transform="matrix(1,0,0,1,432.193,306.9455)" dominant-baseline="central" text-anchor="middle" x="0" y="0" style="font: 13 13px sans-serif;">东方市</text>
<text xml:space="preserve" fill="#bdbdd9" fill-opacity="1" stroke="none" transform="matrix(1,0,0,1,655.5505,219.4144)" dominant-baseline="central" text-anchor="middle" x="0" y="0" style="font: 13 13px sans-serif;">定安县</text>
<text xml:space="preserve" fill="rgba(189,189,217,1)" fill-opacity="1" stroke="none" transform="matrix(1,0,0,1,609.4012,240.9406)" dominant-baseline="central" text-anchor="middle" x="0" y="0" style="font: 13 13px sans-serif;">屯昌县</text>
<text xml:space="preserve" fill="rgba(189,189,217,1)" fill-opacity="1" stroke="none" transform="matrix(1,0,0,1,603.7373,172.1137)" dominant-baseline="central" text-anchor="middle" x="0" y="0" style="font: 13 13px sans-serif;">澄迈县</text>
<text xml:space="preserve" fill="rgba(189,189,217,1)" fill-opacity="1" stroke="none" transform="matrix(1,0,0,1,558.8661,153.1926)" dominant-baseline="central" text-anchor="middle" x="0" y="0" style="font: 13 13px sans-serif;">临高县</text>
<text xml:space="preserve" fill="#bdbdd9" fill-opacity="1" stroke="none" transform="matrix(1,0,0,1,508.7569,270.957)" dominant-baseline="central" text-anchor="middle" x="0" y="0" style="font: 13 13px sans-serif;">白沙黎族自治县</text>
<text xml:space="preserve" fill="#bdbdd9" fill-opacity="1" stroke="none" transform="matrix(1,0,0,1,449.2895,273.092)" dominant-baseline="central" text-anchor="middle" x="0" y="0" style="font: 13 13px sans-serif;">昌江黎族自治县</text>
<text xml:space="preserve" fill="#bdbdd9" fill-opacity="1" stroke="none" transform="matrix(1,0,0,1,457.293,384.3759)" dominant-baseline="central" text-anchor="middle" x="0" y="0" style="font: 13 13px sans-serif;">乐东黎族自治县</text>
<text xml:space="preserve" fill="rgba(189,189,217,1)" fill-opacity="1" stroke="none" transform="matrix(1,0,0,1,602.1868,398.3803)" dominant-baseline="central" text-anchor="middle" x="0" y="0" style="font: 13 13px sans-serif;">陵水黎族自治县</text>
<text xml:space="preserve" fill="rgba(189,189,217,1)" fill-opacity="1" stroke="none" transform="matrix(1,0,0,1,548.0062,391.5214)" dominant-baseline="central" text-anchor="middle" x="0" y="0" style="font: 13 13px sans-serif;">保亭黎族苗族自治县</text>
<text xml:space="preserve" fill="rgba(189,189,217,1)" fill-opacity="1" stroke="none" transform="matrix(1,0,0,1,580.5021,299.4169)" dominant-baseline="central" text-anchor="middle" x="0" y="0" style="font: 13 13px sans-serif;">琼中黎族苗族自治县</text>
<defs>
<filter id="zr2323-shadow-0" x="-100%" y="-100%" width="300%" height="300%">
<feDropShadow dx="0" dy="0.134013789353097" flood-color="rgba(0,0,0,1)" stdDeviation="0 0">
</feDropShadow>
</filter>
<filter id="zr2323-shadow-1" x="-100%" y="-100%" width="300%" height="300%">
<feDropShadow dx="0" dy="0.134013789353097" flood-color="#000000" stdDeviation="0 0">
</feDropShadow>
</filter>
</defs>
</g>
</svg>