<svg xmlns="http://www.w3.org/2000/svg" xmlns:xlink="http://www.w3.org/1999/xlink" version="1.1" baseProfile="full" width="1108" height="550" style="user-select: none; position: absolute; left: 0px; top: 0px;">
<g>
<rect width="1108" height="550" x="0" y="0" id="0" style="fill: transparent;">
</rect>
</g>
<g>
<path d="M -5 -5 L 91 -5 L 91 67 L -5 67 L -5 -5" fill="rgba(0,0,0,0)" fill-opacity="1" stroke="#ccc" stroke-width="0" paint-order="fill" stroke-opacity="1" stroke-dasharray="" stroke-linecap="butt" stroke-miterlimit="10" transform="matrix(1,0,0,1,35,443)">
</path>
<path d="M 3.5 0 L 16.5 0 A 3.5 3.5 0 0 1 20 3.5 L 20 10.5 A 3.5 3.5 0 0 1 16.5 14 L 3.5 14 A 3.5 3.5 0 0 1 0 10.5 L 0 3.5 A 3.5 3.5 0 0 1 3.5 0" fill="red" fill-opacity="1" stroke="none" transform="matrix(1,0,0,1,35,443)">
</path>
<text xml:space="preserve" fill="#333" fill-opacity="1" stroke="none" transform="matrix(1,0,0,1,35,443)" dominant-baseline="central" text-anchor="start" x="30" y="7" style="font: 14px sans-serif;">超大城市</text>
<path d="M 3.5 0 L 16.5 0 A 3.5 3.5 0 0 1 20 3.5 L 20 10.5 A 3.5 3.5 0 0 1 16.5 14 L 3.5 14 A 3.5 3.5 0 0 1 0 10.5 L 0 3.5 A 3.5 3.5 0 0 1 3.5 0" fill="blue" fill-opacity="1" stroke="none" transform="matrix(1,0,0,1,35,467)">
</path>
<text xml:space="preserve" fill="#333" fill-opacity="1" stroke="none" transform="matrix(1,0,0,1,35,467)" dominant-baseline="central" text-anchor="start" x="30" y="7" style="font: 14px sans-serif;">大城市</text>
<path d="M 3.5 0 L 16.5 0 A 3.5 3.5 0 0 1 20 3.5 L 20 10.5 A 3.5 3.5 0 0 1 16.5 14 L 3.5 14 A 3.5 3.5 0 0 1 0 10.5 L 0 3.5 A 3.5 3.5 0 0 1 3.5 0" fill="green" fill-opacity="1" stroke="none" transform="matrix(1,0,0,1,35,491)">
</path>
<text xml:space="preserve" fill="#333" fill-opacity="1" stroke="none" transform="matrix(1,0,0,1,35,491)" dominant-baseline="central" text-anchor="start" x="30" y="7" style="font: 14px sans-serif;">中小城市</text>
<path d="M -21 -5 L 21 -5 L 21 21 L -21 21 L -21 -5" fill="rgba(0,0,0,0)" fill-opacity="1" stroke="#ccc" stroke-width="0" paint-order="fill" stroke-opacity="1" stroke-dasharray="" stroke-linecap="butt" stroke-miterlimit="10" transform="matrix(1,0,0,1,554,5)">
</path>
<text xml:space="preserve" fill="#34471f" fill-opacity="1" stroke="none" transform="matrix(1,0,0,1,554,5)" dominant-baseline="central" text-anchor="middle" x="0" y="8" style="font: 16px &quot;Microsoft YaHei&quot;;">澳门</text>
<path d="M 468.4267 104.7805 L 481.2063 100.75 L 490.5532 96.9154 L 490.6664 96.9277 L 493.8544 95.6141 L 493.8911 95.5407 L 498.0245 93.8396 L 498.82 93.8396 L 499.7501 94.272 L 511.2202 106.5713 L 511.2478 106.7059 L 513.7352 109.3861 L 514.8458 110.6629 L 515.0171 110.6833 L 520.46 116.7167 L 521.0719 116.99 L 522.5588 117.1736 L 523.6664 117.6835 L 524.9147 118.7441 L 525.8172 119.7109 L 526.5821 121.3263 L 526.8452 122.9663 L 526.9523 126.1645 L 526.9523 129.481 L 526.6861 130.5457 L 526.2945 131.2922 L 526.472 131.3085 L 529.7609 134.3232 L 529.7487 134.5149 L 532.2392 136.7708 L 532.3554 136.6688 L 595.0756 183.2062 L 575.7364 135.8081 L 575.0449 113.3063 L 569.6143 89.6215 L 551.0491 75.2826 L 550.1527 74.7156 L 518.866 59.2344 L 515.4944 61.5719 L 515.0538 61.1721 L 514.8794 60.5928 L 515.2619 55 L 512.6827 55.4079 L 511.6149 56.2279 L 510.2351 56.7052 L 508.8705 56.6929 L 507.5978 56.2156 L 505.7039 56.5134 L 505.4408 56.9173 L 503.6357 56.0076 L 498.8751 55.8689 L 497.9909 55.412 L 495.4515 55.2815 L 492.5113 57.88 L 489.6781 65.5329 L 489.5099 66.1407 L 488.3075 68.5476 L 488.127 68.6373 L 487.3988 70.42 L 486.845 70.0528 L 486.2209 71.0237 L 485.765 71.2807 L 484.9084 71.2359 L 476.4947 68.7271 L 470.9784 68.7311 L 469.0631 69.0412 L 468.2493 69.3798 L 466.7409 69.1676 L 461.0624 74.124 L 463.764 84.9833 L 465.8506 94.2802 L 468.0932 97.0297 L 468.4267 104.7805 Z M 608.7884 108.0929 L 577.1223 108.1786 L 576.798 112.1274 L 576.798 134.8698 L 577.7312 137.5296 L 579.7229 139.2062 L 601.0478 139.7895 L 607.8461 133.6583 L 608.7823 130.3091 L 608.7884 108.0929 Z" fill="[object Object]" fill-opacity="1" stroke="rgba(30,144,255,1)" stroke-width="1" paint-order="fill" stroke-opacity="1" stroke-dasharray="" stroke-linecap="butt" stroke-miterlimit="10" style="filter: url(&quot;#zr2323-shadow-0&quot;);">
</path>
<path d="M 465.1102 134.1804 L 467.8607 134.8943 L 474.3744 136.5464 L 475.1118 136.8606 L 479.1412 139.3204 L 481.8672 141.3805 L 484.4097 144.0688 L 484.7248 144.0198 L 487.4814 141.2867 L 488.3289 140.8094 L 488.4635 139.5162 L 491.7464 138.7942 L 492.753 139.8426 L 493.2303 139.0022 L 493.2823 137.7009 L 492.9671 133.1687 L 493.2027 131.8756 L 493.5178 131.4309 L 498.612 126.0176 L 498.7527 126.0258 L 501.7357 122.9418 L 501.7143 122.8153 L 506.7166 117.7773 L 510.8194 113.1799 L 513.7352 109.3861 L 511.2478 106.7059 L 511.2202 106.5713 L 499.7501 94.272 L 498.82 93.8396 L 498.0245 93.8396 L 493.8911 95.5407 L 493.8544 95.6141 L 490.6664 96.9277 L 490.5532 96.9154 L 481.2063 100.75 L 468.4267 104.7805 L 468.855 114.9299 L 465.1102 134.1804 Z" fill="[object Object]" fill-opacity="1" stroke="dodgerblue" stroke-width="1" paint-order="fill" stroke-opacity="1" stroke-dasharray="" stroke-linecap="butt" stroke-miterlimit="10" style="filter: url(&quot;#zr2323-shadow-1&quot;);">
</path>
<path d="M 526.2945 131.2922 L 526.6861 130.5457 L 526.9523 129.481 L 526.9523 126.1645 L 526.8452 122.9663 L 526.5821 121.3263 L 525.8172 119.7109 L 524.9147 118.7441 L 523.6664 117.6835 L 522.5588 117.1736 L 521.0719 116.99 L 520.46 116.7167 L 515.0171 110.6833 L 514.8458 110.6629 L 513.7352 109.3861 L 510.8194 113.1799 L 506.7166 117.7773 L 501.7143 122.8153 L 501.7357 122.9418 L 498.7527 126.0258 L 498.612 126.0176 L 493.5178 131.4309 L 493.2027 131.8756 L 492.9671 133.1687 L 493.2823 137.7009 L 493.2303 139.0022 L 492.753 139.8426 L 496.7518 142.127 L 497.1495 142.1841 L 499.5053 141.5437 L 500.9097 141.3846 L 502.9259 141.3927 L 506.2608 141.6171 L 507.7722 141.9271 L 510.2595 142.6614 L 514.2859 144.1463 L 516.4367 145.0519 L 518.4468 140.9195 L 519.1352 139.7324 L 524.3823 133.1932 L 526.2945 131.2922 Z" fill="[object Object]" fill-opacity="1" stroke="rgba(30,144,255,1)" stroke-width="1" paint-order="fill" stroke-opacity="1" stroke-dasharray="" stroke-linecap="butt" stroke-miterlimit="10" style="filter: url(&quot;#zr2323-shadow-0&quot;);">
</path>
<path d="M 469.5312 269.1788 L 480.5179 265.1483 L 480.8392 264.6588 L 481.136 264.9158 L 526.7718 248.1456 L 609.1861 217.8033 L 595.0756 183.2062 L 532.3554 136.6688 L 532.2392 136.7708 L 529.7487 134.5149 L 529.7609 134.3232 L 526.472 131.3085 L 526.2945 131.2922 L 524.3823 133.1932 L 519.1352 139.7324 L 518.4468 140.9195 L 516.4367 145.0519 L 514.2859 144.1463 L 510.2595 142.6614 L 507.7722 141.9271 L 506.2608 141.6171 L 502.9259 141.3927 L 500.9097 141.3846 L 499.5053 141.5437 L 497.1495 142.1841 L 496.7518 142.127 L 492.753 139.8426 L 491.7464 138.7942 L 488.4635 139.5162 L 488.3289 140.8094 L 487.4814 141.2867 L 484.7248 144.0198 L 484.4097 144.0688 L 481.8672 141.3805 L 479.1412 139.3204 L 475.1118 136.8606 L 474.3744 136.5464 L 467.8607 134.8943 L 478.1835 147.4873 L 481.5215 151.2974 L 484.3423 154.8628 L 484.4402 155.0953 L 483.244 156.2824 L 480.677 159.8437 L 480.3344 160.4393 L 479.6949 162.4586 L 479.0861 163.7028 L 477.3116 166.8724 L 476.6752 168.3084 L 475.6961 171.6167 L 475.0598 175.537 L 474.9007 177.3441 L 474.8486 181.7376 L 474.7569 182.2598 L 474.2918 182.4393 L 469.7392 183.5652 L 468.9162 183.9364 L 468.39 184.5157 L 468.1208 185.2989 L 467.5394 188.6113 L 467.1692 189.3212 L 466.4319 189.982 L 463.8344 191.7647 L 463.4611 192.7968 L 463.6202 195.4035 L 463.3051 197.488 L 462.6136 199.4257 L 461.9252 200.3599 L 460.6005 201.1309 L 459.4378 201.3838 L 458.1131 201.1717 L 452.9241 198.9974 L 451.4158 202.1018 L 446.0616 196.974 L 449.8738 218.0521 L 453.432 224.4118 L 457.6664 233.1539 L 458.1743 238.1389 L 469.5312 269.1788 Z" fill="[object Object]" fill-opacity="1" stroke="rgba(30,144,255,1)" stroke-width="1" paint-order="fill" stroke-opacity="1" stroke-dasharray="" stroke-linecap="butt" stroke-miterlimit="10" style="filter: url(&quot;#zr2323-shadow-0&quot;);">
</path>
<path d="M 446.0616 196.974 L 451.4158 202.1018 L 452.9241 198.9974 L 458.1131 201.1717 L 459.4378 201.3838 L 460.6005 201.1309 L 461.9252 200.3599 L 462.6136 199.4257 L 463.3051 197.488 L 463.6202 195.4035 L 463.4611 192.7968 L 463.8344 191.7647 L 466.4319 189.982 L 467.1692 189.3212 L 467.5394 188.6113 L 468.1208 185.2989 L 468.39 184.5157 L 468.9162 183.9364 L 469.7392 183.5652 L 474.2918 182.4393 L 474.7569 182.2598 L 474.8486 181.7376 L 474.9007 177.3441 L 475.0598 175.537 L 475.6961 171.6167 L 476.6752 168.3084 L 477.3116 166.8724 L 479.0861 163.7028 L 479.6949 162.4586 L 480.3344 160.4393 L 480.677 159.8437 L 483.244 156.2824 L 484.4402 155.0953 L 484.3423 154.8628 L 481.5215 151.2974 L 478.1835 147.4873 L 467.8607 134.8943 L 465.1102 134.1804 L 462.6687 146.7367 L 449.2802 171.0456 L 452.2449 173.5503 L 449.112 179.086 L 446.6552 187.461 L 446.0616 196.974 Z" fill="[object Object]" fill-opacity="1" stroke="dodgerblue" stroke-width="1" paint-order="fill" stroke-opacity="1" stroke-dasharray="" stroke-linecap="butt" stroke-miterlimit="10" style="filter: url(&quot;#zr2323-shadow-1&quot;);">
</path>
<path d="M 494.295 319.5058 L 501.8765 319.7751 L 509.4794 319.669 L 516.2929 320.13 L 517.7737 320.6195 L 526.117 324.9314 L 527.1298 325.3352 L 528.2128 325.0864 L 529.7242 323.422 L 530.5717 322.957 L 532.8235 323.2915 L 533.9617 323.2344 L 534.9958 323.0019 L 536.9845 322.2023 L 537.9115 321.5741 L 538.4163 320.9989 L 539.1047 319.7139 L 539.5025 318.5186 L 539.8482 316.3851 L 540.0562 314.5249 L 540.5611 313.1706 L 541.0383 312.779 L 544.621 310.7026 L 545.701 310.7067 L 547.3746 311.649 L 548.2466 312.6484 L 548.6718 314.3658 L 549.3113 315.2551 L 552.1444 316.5401 L 552.7808 317.1194 L 553.255 317.9924 L 554.0535 320.3625 L 554.2126 321.6761 L 554.13 322.3084 L 553.6558 323.8381 L 553.6803 325.2904 L 554.5614 326.3877 L 555.7913 326.3551 L 556.4369 326.0124 L 562.0817 321.9086 L 562.458 321.4884 L 562.5162 320.3788 L 561.687 318.2208 L 561.687 317.5559 L 562.0573 316.8869 L 562.9323 315.9527 L 564.3641 314.6432 L 569.2961 310.8372 L 570.4342 310.1763 L 571.1501 310.1355 L 572.0772 311.033 L 573.6681 313.7295 L 574.5493 314.7085 L 575.8159 315.4265 L 616.9787 339.7109 L 656.0427 364.8724 L 628.9506 266.2661 L 609.1861 217.8033 L 526.7718 248.1456 L 481.136 264.9158 L 480.8392 264.6588 L 480.5179 265.1483 L 469.5312 269.1788 L 480.7076 299.725 L 494.295 319.5058 Z" fill="[object Object]" fill-opacity="1" stroke="dodgerblue" stroke-width="1" paint-order="fill" stroke-opacity="1" stroke-dasharray="" stroke-linecap="butt" stroke-miterlimit="10" style="filter: url(&quot;#zr2323-shadow-1&quot;);">
</path>
<path d="M 509.0939 417.488 L 539.7901 409.0274 L 540.1603 408.3992 L 541.1424 404.9195 L 541.5646 404.3117 L 542.3876 404.1485 L 549.9385 404.5524 L 551.0552 404.1485 L 551.7436 403.2225 L 551.8476 402.5209 L 552.1934 389.8381 L 552.5115 388.8999 L 553.1755 388.3859 L 554.075 388.2349 L 562.611 388.5654 L 565.2086 388.4593 L 568.0447 387.8515 L 570.7494 386.5216 L 573.1358 384.535 L 576.131 381.4428 L 578.4655 379.395 L 580.5062 378.163 L 582.8406 377.5266 L 586.8455 377.0248 L 590.7709 376.5965 L 593.1022 376.0254 L 595.972 374.2223 L 598.2483 371.5626 L 601.3262 365.6475 L 616.9787 339.7109 L 575.8159 315.4265 L 574.5493 314.7085 L 573.6681 313.7295 L 572.0772 311.033 L 571.1501 310.1355 L 570.4342 310.1763 L 569.2961 310.8372 L 564.3641 314.6432 L 562.9323 315.9527 L 562.0573 316.8869 L 561.687 317.5559 L 561.687 318.2208 L 562.5162 320.3788 L 562.458 321.4884 L 562.0817 321.9086 L 556.4369 326.0124 L 555.7913 326.3551 L 554.5614 326.3877 L 553.6803 325.2904 L 553.6558 323.8381 L 554.13 322.3084 L 554.2126 321.6761 L 554.0535 320.3625 L 553.255 317.9924 L 552.7808 317.1194 L 552.1444 316.5401 L 549.3113 315.2551 L 548.6718 314.3658 L 548.2466 312.6484 L 547.3746 311.649 L 545.701 310.7067 L 544.621 310.7026 L 541.0383 312.779 L 540.5611 313.1706 L 540.0562 314.5249 L 539.8482 316.3851 L 539.5025 318.5186 L 539.1047 319.7139 L 538.4163 320.9989 L 537.9115 321.5741 L 536.9845 322.2023 L 534.9958 323.0019 L 533.9617 323.2344 L 532.8235 323.2915 L 530.5717 322.957 L 529.7242 323.422 L 528.2128 325.0864 L 527.1298 325.3352 L 526.117 324.9314 L 517.7737 320.6195 L 516.2929 320.13 L 509.4794 319.669 L 501.8765 319.7751 L 494.295 319.5058 L 498.1653 325.1517 L 511.3028 347.2659 L 509.0939 417.488 Z" fill="[object Object]" fill-opacity="1" stroke="dodgerblue" stroke-width="1" paint-order="fill" stroke-opacity="1" stroke-dasharray="" stroke-linecap="butt" stroke-miterlimit="10" style="filter: url(&quot;#zr2323-shadow-1&quot;);">
</path>
<path d="M 509.0939 417.488 L 507.4815 468.6881 L 510.7185 490.5209 L 526.6158 494.9918 L 530.9052 495 L 577.6639 487.1146 L 585.6951 483.9245 L 589.492 480.8038 L 642.6359 417.896 L 661.351 388.2961 L 661.9384 386.285 L 656.0427 364.8724 L 616.9787 339.7109 L 601.3262 365.6475 L 598.2483 371.5626 L 595.972 374.2223 L 593.1022 376.0254 L 590.7709 376.5965 L 586.8455 377.0248 L 582.8406 377.5266 L 580.5062 378.163 L 578.4655 379.395 L 576.131 381.4428 L 573.1358 384.535 L 570.7494 386.5216 L 568.0447 387.8515 L 565.2086 388.4593 L 562.611 388.5654 L 554.075 388.2349 L 553.1755 388.3859 L 552.5115 388.8999 L 552.1934 389.8381 L 551.8476 402.5209 L 551.7436 403.2225 L 551.0552 404.1485 L 549.9385 404.5524 L 542.3876 404.1485 L 541.5646 404.3117 L 541.1424 404.9195 L 540.1603 408.3992 L 539.7901 409.0274 L 509.0939 417.488 Z" fill="[object Object]" fill-opacity="1" stroke="rgba(30,144,255,1)" stroke-width="1" paint-order="fill" stroke-opacity="1" stroke-dasharray="" stroke-linecap="butt" stroke-miterlimit="10" style="filter: url(&quot;#zr2323-shadow-0&quot;);">
</path>
<text xml:space="preserve" fill="rgba(189,189,217,1)" fill-opacity="1" stroke="none" transform="matrix(1,0,0,1,534.9254,119.1031)" dominant-baseline="central" text-anchor="middle" x="0" y="0" style="font: 13 13px sans-serif;">花地玛堂区</text>
<text xml:space="preserve" fill="#bdbdd9" fill-opacity="1" stroke="none" transform="matrix(1,0,0,1,489.4227,118.9542)" dominant-baseline="central" text-anchor="middle" x="0" y="0" style="font: 13 13px sans-serif;">花王堂区</text>
<text xml:space="preserve" fill="rgba(189,189,217,1)" fill-opacity="1" stroke="none" transform="matrix(1,0,0,1,509.8526,127.219)" dominant-baseline="central" text-anchor="middle" x="0" y="0" style="font: 13 13px sans-serif;">望德堂区</text>
<text xml:space="preserve" fill="rgba(189,189,217,1)" fill-opacity="1" stroke="none" transform="matrix(1,0,0,1,527.6239,200.2355)" dominant-baseline="central" text-anchor="middle" x="0" y="0" style="font: 13 13px sans-serif;">大堂区</text>
<text xml:space="preserve" fill="#bdbdd9" fill-opacity="1" stroke="none" transform="matrix(1,0,0,1,465.2509,168.1411)" dominant-baseline="central" text-anchor="middle" x="0" y="0" style="font: 13 13px sans-serif;">风顺堂区</text>
<text xml:space="preserve" fill="#bdbdd9" fill-opacity="1" stroke="none" transform="matrix(1,0,0,1,562.7869,291.3378)" dominant-baseline="central" text-anchor="middle" x="0" y="0" style="font: 13 13px sans-serif;">嘉模堂区</text>
<text xml:space="preserve" fill="#bdbdd9" fill-opacity="1" stroke="none" transform="matrix(1,0,0,1,555.6368,363.8118)" dominant-baseline="central" text-anchor="middle" x="0" y="0" style="font: 13 13px sans-serif;">路凼填海区</text>
<text xml:space="preserve" fill="rgba(189,189,217,1)" fill-opacity="1" stroke="none" transform="matrix(1,0,0,1,584.7099,417.3555)" dominant-baseline="central" text-anchor="middle" x="0" y="0" style="font: 13 13px sans-serif;">圣方济各堂区</text>
<defs>
<filter id="zr2323-shadow-0" x="-100%" y="-100%" width="300%" height="300%">
<feDropShadow dx="0" dy="1" flood-color="rgba(0,0,0,1)" stdDeviation="0 0">
</feDropShadow>
</filter>
<filter id="zr2323-shadow-1" x="-100%" y="-100%" width="300%" height="300%">
<feDropShadow dx="0" dy="1" flood-color="#000000" stdDeviation="0 0">
</feDropShadow>
</filter>
</defs>
</g>
</svg>