<svg xmlns="http://www.w3.org/2000/svg" xmlns:xlink="http://www.w3.org/1999/xlink" version="1.1" baseProfile="full" width="1108" height="550" style="user-select: none; position: absolute; left: 0px; top: 0px;">
<g>
<rect width="1108" height="550" x="0" y="0" id="0" style="fill: transparent;">
</rect>
</g>
<g>
<path d="M 652.2991 306.0923 L 651.1232 306.2349 L 650.583 306.6225 L 649.6719 306.4086 L 648.5861 305.7403 L 648.2789 305.1345 L 647.1136 304.9964 L 645.6517 305.1033 L 644.2851 305.5354 L 644.0362 307.1261 L 644.497 307.2598 L 645.2862 306.7606 L 645.3021 308.1201 L 645.9377 308.936 L 646.4303 308.3965 L 647.2195 308.2628 L 648.3107 307.0949 L 648.7767 307.7278 L 649.5395 307.5406 L 650.1963 308.6997 L 650.244 309.4712 L 650.8372 309.159 L 651.5469 310.1894 L 650.7842 311.4342 L 649.3329 310.3857 L 649.3117 310.9255 L 648.6073 312.242 L 646.9335 312.4653 L 646.2502 311.287 L 646.3297 310.1849 L 645.2968 309.4534 L 645.2703 308.5793 L 644.158 308.9673 L 643.1199 308.6195 L 642.622 308.9316 L 642.0499 308.557 L 642.961 306.9389 L 642.3783 306.7428 L 641.4832 307.6699 L 640.694 307.496 L 640.5404 307.9908 L 639.7459 307.8526 L 639.8571 307.3044 L 638.1886 307.0459 L 636.4301 307.3222 L 636.2289 306.6983 L 634.1684 307.2509 L 633.2468 307.2108 L 632.5688 308.0309 L 631.4247 307.7457 L 630.2436 309.217 L 630.9004 310.1938 L 630.8686 310.7782 L 630.0741 311.1709 L 629.608 311.943 L 628.9617 311.6395 L 627.8918 311.8136 L 629.0518 313.2153 L 628.2891 313.8092 L 628.9459 314.6846 L 628.6281 315.2118 L 627.9925 315.1939 L 627.8018 314.7293 L 626.8536 315.2386 L 626.1598 317.1424 L 626.8484 318.2647 L 626.6683 319.0473 L 625.3123 319.0742 L 623.9564 318.5822 L 623.236 317.5716 L 623.8345 316.0072 L 624.8144 315.9356 L 625.3388 315.2118 L 624.9892 314.8812 L 624.0782 314.6533 L 622.272 316.4719 L 621.5199 316.2351 L 621.1279 317.4732 L 621.3769 318.8461 L 622.076 320.0181 L 623.2148 320.752 L 623.8186 321.3965 L 625.1057 321.6113 L 624.7985 322.2023 L 626.4087 323.2725 L 625.5401 323.4561 L 625.4341 323.8413 L 626.038 325.4095 L 626.8219 325.7994 L 626.8801 326.4359 L 627.3304 326.5524 L 627.1926 327.3101 L 626.4776 328.0142 L 627.1662 328.7947 L 627.3462 329.6741 L 627.8706 330.4999 L 628.4056 330.5717 L 627.9766 331.3393 L 628.5168 332.3361 L 628.5857 332.3361 L 629.0889 332.7403 L 628.8135 333.1804 L 628.734 333.2299 L 629.0253 333.7645 L 630.6832 333.7824 L 631.3029 334.5013 L 631.5572 335.2564 L 633.0985 335.8632 L 633.7553 336.6905 L 634.7881 336.9917 L 634.7193 338.0577 L 635.5879 338.3276 L 636.3189 339.169 L 637.3464 338.9665 L 637.5001 338.5346 L 638.0085 339.655 L 639.0626 339.8936 L 639.391 340.4968 L 640.1961 340.3167 L 640.5245 340.7489 L 641.4779 340.8344 L 642.3677 341.2126 L 642.4313 341.7709 L 643.0245 341.5413 L 643.676 341.8385 L 644.1474 341.5143 L 645.122 342.6943 L 645.853 342.924 L 646.8594 342.5321 L 647.3626 342.7889 L 647.3043 344.74 L 648.2047 345.1096 L 649.4124 343.316 L 649.6613 343.8521 L 650.0903 343.4196 L 650.906 343.7079 L 651.4569 343.5638 L 652.5057 344.1316 L 652.6275 345.3801 L 653.316 345.0961 L 654.137 346.9763 L 654.5131 347.3417 L 654.1582 348.3342 L 654.4972 348.8532 L 653.9781 349.8506 L 654.2112 350.9026 L 654.8521 351.0561 L 655.4083 351.7922 L 656.7536 351.2322 L 657.1456 351.9775 L 658.8511 352.8222 L 659.1424 352.5692 L 659.2537 354.6434 L 659.7727 354.4581 L 659.8787 354.9509 L 661.1128 354.9192 L 661.1181 356.0315 L 661.5101 356.5516 L 661.4889 357.8002 L 662.008 356.9451 L 663.1838 357.8002 L 663.7823 358.5604 L 664.8258 359.0175 L 665.2019 359.5109 L 665.758 359.4928 L 666.3089 360.3394 L 667.008 360.4481 L 667.6701 361.5079 L 668.0939 361.6347 L 668.56 362.5543 L 669.3651 362.8624 L 669.6564 363.7915 L 669.9583 363.7008 L 670.8694 364.5485 L 671.1819 363.8368 L 671.9764 363.2159 L 672.9351 364.7389 L 672.7815 365.3918 L 673.666 366.2717 L 675.504 366.5937 L 675.7582 365.7954 L 676.4097 365.2694 L 676.272 363.4787 L 677.1089 362.8216 L 676.6481 362.4184 L 676.6216 360.8058 L 677.0877 359.6377 L 677.9352 359.2619 L 678.343 358.1576 L 678.8197 358.126 L 679.3494 356.9813 L 679.2699 356.339 L 680.0062 353.8977 L 680.5782 353.9338 L 680.8961 353.4593 L 680.7 352.5556 L 680.1598 351.7109 L 680.6418 349.1826 L 682.0242 348.3658 L 682.0507 347.2019 L 682.5698 347.2244 L 682.787 346.4577 L 683.2848 346.2097 L 683.1736 345.4973 L 683.7775 344.4695 L 684.5296 344.118 L 684.7309 343.2439 L 684.4713 342.4826 L 684.7785 342.0862 L 685.0487 340.8434 L 683.5497 340.8479 L 682.9565 339.358 L 683.9416 337.8418 L 683.5762 336.8299 L 683.269 336.7894 L 683.1048 335.5755 L 682.628 334.4609 L 682.6069 332.9649 L 682.8876 331.9993 L 682.7817 329.6068 L 682.2202 329.0056 L 680.5888 330.4729 L 680.2551 331.4201 L 679.8155 331.2136 L 677.6703 331.896 L 676.6639 331.8152 L 676.5315 332.399 L 675.9595 332.8121 L 674.7519 332.4708 L 673.8832 332.5965 L 673.433 333.0142 L 673.5389 333.5353 L 672.3312 333.3467 L 671.7115 334.1733 L 671.6586 334.9238 L 670.9541 335.4227 L 670.5886 337.2706 L 670.0431 336.8613 L 670.4403 335.2249 L 670.0749 334.8564 L 669.9689 333.9711 L 670.5357 333.6027 L 669.4551 332.0621 L 667.9933 330.235 L 667.7496 328.3731 L 668.0515 328.0681 L 667.7019 327.3371 L 666.9127 326.7049 L 667.0875 325.638 L 667.4794 324.9882 L 667.2994 324.1863 L 667.6966 323.3486 L 665.5356 322.8829 L 664.8046 321.7053 L 665.1065 321.1011 L 664.5027 320.6804 L 663.9412 319.7899 L 663.115 319.1189 L 663.6394 318.1931 L 663.0514 317.7191 L 663.0567 317.2273 L 664.1319 317.0486 L 664.4603 315.8016 L 663.8724 315.6586 L 663.8035 315.0197 L 663.0461 314.8722 L 662.8607 314.1174 L 663.2527 313.4386 L 661.8384 313.4296 L 660.9539 313.0501 L 660.7368 313.6529 L 660.3925 312.5858 L 659.5821 312.309 L 659.1689 311.3673 L 658.5439 311.6797 L 658.671 312.376 L 659.7886 313.4251 L 659.9211 313.9476 L 657.9931 313.6172 L 657.6805 313.3671 L 657.0608 314.2826 L 655.922 313.9923 L 655.6837 313.0322 L 654.3489 312.6349 L 653.5809 311.5502 L 654.1847 310.6176 L 653.1889 310.0332 L 652.6328 308.2628 L 651.7429 307.1172 L 652.2991 306.0923 Z M 628.5857 332.3361 L 628.5168 332.3361 L 628.734 333.2299 L 628.8135 333.1804 L 628.5857 332.3361 Z" fill="[object Object]" fill-opacity="1" stroke="dodgerblue" stroke-width="1" paint-order="fill" stroke-opacity="1" stroke-dasharray="" stroke-linecap="butt" stroke-miterlimit="10" style="filter: url(&quot;#zr2323-shadow-1&quot;);">
</path>
<path d="M 467.8304 187.8558 L 467.6662 187.9931 L 467.6079 188.0532 L 470.3357 188.6839 L 471.2839 190.1089 L 473.5191 188.5637 L 477.3751 188.6367 L 477.6558 187.9373 L 478.3655 187.384 L 479.319 187.3197 L 480.2459 187.6885 L 480.1506 188.1604 L 481.3688 188.8942 L 482.6559 190.0016 L 483.1326 189.9028 L 484.2714 190.4738 L 484.6263 190.066 L 484.9335 188.9028 L 485.6644 188.0574 L 485.442 187.1652 L 483.9589 186.0803 L 483.7788 185.0516 L 487.0416 183.1792 L 488.1645 182.4341 L 487.9526 181.4108 L 489.0596 180.1825 L 489.102 179.4681 L 488.3657 179.1815 L 488.3552 177.7104 L 487.6401 176.8897 L 486.6443 177.471 L 485.8869 177.4881 L 484.9759 177.0393 L 484.3032 177.3983 L 482.9366 177.4667 L 481.872 177.1675 L 477.5181 176.7871 L 474.3136 175.5736 L 474.499 176.2871 L 474.4248 177.5437 L 473.0794 177.8686 L 472.4332 178.8863 L 473.4502 179.2414 L 471.983 180.2253 L 471.7553 180.619 L 473.286 182.9822 L 472.0254 183.8175 L 471.448 185.0259 L 467.8304 187.8558 Z" fill="[object Object]" fill-opacity="1" stroke="dodgerblue" stroke-width="1" paint-order="fill" stroke-opacity="1" stroke-dasharray="" stroke-linecap="butt" stroke-miterlimit="10" style="filter: url(&quot;#zr2323-shadow-1&quot;);">
</path>
<path d="M 604.0036 223.3144 L 604.1043 223.3752 L 601.9909 224.973 L 601.5619 225.4898 L 599.7821 226.9409 L 597.5999 230.1715 L 594.4166 233.3358 L 593.4049 232.539 L 592.9865 232.7262 L 591.2915 232.0253 L 590.3434 232.2342 L 589.1569 233.5448 L 588.4578 234.1241 L 587.5838 235.588 L 587.6738 236.996 L 586.0266 238.1777 L 586.7364 239.1767 L 587.033 240.32 L 586.588 240.6997 L 585.5817 240.822 L 585.6293 241.8262 L 586.4609 241.8786 L 586.1007 243.0098 L 585.0944 244.0364 L 583.7967 245.0723 L 583.0445 244.7969 L 581.3655 245.0723 L 581.3337 245.7718 L 580.8517 246.091 L 580.2532 245.8811 L 580.5551 248.1424 L 582.017 248.1862 L 582.3825 249.5648 L 582.8221 250.0244 L 584.4641 251.0141 L 585.2162 251.9778 L 584.7977 252.8847 L 584.2945 253.1389 L 582.8962 254.7521 L 582.3454 256.0941 L 582.3825 257.4148 L 581.821 258.7535 L 582.8856 259.2892 L 583.6007 260.0973 L 584.8931 259.4253 L 586.0213 259.1794 L 587.9811 259.3814 L 589.1411 259.2497 L 589.925 258.7448 L 590.3964 257.9458 L 591.6676 258.9555 L 592.1761 257.8712 L 593.2672 257.6869 L 594.1253 258.4023 L 595.603 259.0257 L 596.3393 258.5823 L 596.9961 257.5377 L 597.9813 257.3841 L 599.9093 258.3672 L 600.8733 258.1389 L 601.2441 257.6869 L 601.7949 257.7395 L 602.1869 258.2926 L 602.5205 259.9699 L 602.9867 260.5497 L 604.7346 260.3388 L 605.2113 259.9743 L 606.0747 259.8733 L 606.9327 259.1663 L 607.3247 259.6317 L 607.6901 259.1268 L 608.3734 259.4341 L 608.7389 257.9941 L 609.1891 257.1163 L 608.9031 256.9189 L 609.8883 256.4407 L 611.5461 256.0239 L 612.8121 255.4888 L 614.2581 255.6555 L 614.9202 256.1994 L 614.9361 256.8224 L 615.6405 257.0462 L 616.1437 256.8267 L 616.4986 256.0415 L 618.4954 254.4846 L 618.8821 253.8533 L 619.7031 253.9322 L 620.2857 254.3443 L 621.4881 254.3618 L 622.701 255.0064 L 623.628 255.0196 L 623.5167 253.6911 L 624.539 253.7701 L 624.9468 253.38 L 625.0899 251.5528 L 624.3483 249.8406 L 623.8981 249.3415 L 624.1841 247.3374 L 624.1047 246.83 L 624.4542 244.7226 L 624.3483 244.0802 L 621.8112 243.8093 L 620.201 243.8791 L 621.6099 241.5554 L 619.0198 240.2545 L 617.7433 238.2868 L 617.1554 236.5905 L 616.5251 236.1241 L 616.1384 234.5859 L 614.5441 233.1355 L 614.9043 230.463 L 614.9837 228.4667 L 615.9053 226.954 L 615.4286 223.9786 L 615.0155 223.64 L 615.7941 222.2208 L 613.8555 221.8824 L 612.5684 221.2837 L 610.8523 220.9367 L 610.3915 222.4074 L 606.366 221.288 L 604.7399 220.4119 L 604.5068 219.5144 L 600.4019 218.8339 L 604.0036 223.3144 Z" fill="[object Object]" fill-opacity="1" stroke="dodgerblue" stroke-width="1" paint-order="fill" stroke-opacity="1" stroke-dasharray="" stroke-linecap="butt" stroke-miterlimit="10" style="filter: url(&quot;#zr2323-shadow-1&quot;);">
</path>
<path d="M 714.4454 359.8957 L 714.0164 358.8501 L 713.4073 358.9813 L 713.5185 357.945 L 712.6922 357.2573 L 712.6551 356.1581 L 711.9454 355.7602 L 711.1456 357.0446 L 710.8542 356.5335 L 711.2197 355.9592 L 710.7271 354.8107 L 711.6117 354.3406 L 711.368 353.8525 L 710.0545 353.4457 L 709.546 352.9939 L 709.3765 352.0678 L 709.7314 352.0091 L 709.2388 350.6046 L 709.4559 350.1892 L 709.5036 348.068 L 709.7843 347.8379 L 709.8532 346.6336 L 710.5629 346.5975 L 710.3828 346.1871 L 711.3839 344.8662 L 711.9242 344.8256 L 712.6763 343.6043 L 714.6202 343.735 L 715.383 341.7394 L 714.9645 341.2936 L 714.223 338.9125 L 713.6721 338.5121 L 713.7939 337.2256 L 713.5979 336.686 L 714.0323 336.2093 L 714.1011 335.3687 L 713.4178 334.1733 L 712.4962 333.8543 L 711.7176 332.1385 L 712.295 331.8197 L 711.7335 331.4829 L 711.6487 329.5978 L 711.172 329.0953 L 710.6371 329.4542 L 710.7271 328.1802 L 710.4146 326.6063 L 709.0799 324.9748 L 708.5555 325.4632 L 707.8192 325.5529 L 707.1413 325.0779 L 706.8817 324.2355 L 707.6498 323.8055 L 707.1731 322.0993 L 706.8129 322.153 L 706.5374 321.1011 L 705.9018 320.922 L 706.0184 319.432 L 705.4728 318.7566 L 705.2239 317.8086 L 705.69 316.6999 L 706.4898 316.1144 L 707.5332 316.2038 L 707.6498 315.6452 L 709.0639 316.0518 L 709.7578 315.109 L 709.4877 313.3269 L 708.4336 312.5456 L 708.3224 311.6797 L 707.7398 311.3182 L 707.6074 310.5329 L 706.511 309.4132 L 706.0448 309.8593 L 705.4463 309.382 L 704.5141 309.6095 L 704.6783 309.1724 L 704.4717 308.0176 L 704.7312 307.4604 L 704.1804 306.373 L 704.0744 305.1835 L 702.9092 305.1211 L 701.1825 304.3952 L 700.6528 303.9766 L 700.0119 304.649 L 699.0797 304.2171 L 698.8678 303.4335 L 697.6019 303.5937 L 697.2523 303.2242 L 697.2311 301.6265 L 695.9652 300.7412 L 695.9917 299.9495 L 695.4567 299.4782 L 695.0859 298.0957 L 694.3921 297.5712 L 694.0795 295.8298 L 692.4693 294.8394 L 692.0509 295.0748 L 691.4524 294.3155 L 689.5774 295.9674 L 688.4756 296.2073 L 687.8453 295.9763 L 686.6271 296.0829 L 685.8061 294.4931 L 685.9014 293.6409 L 686.4258 292.4294 L 686.8337 292.07 L 687.2203 292.4027 L 687.8771 292.0389 L 687.9195 291.5554 L 689.4926 290.7128 L 689.5932 289.8482 L 689.1112 290.061 L 687.9936 289.6044 L 687.7712 288.7179 L 688.3697 287.3709 L 685.9544 286.5781 L 684.6461 286.3965 L 683.984 286.7065 L 683.2319 286.2061 L 682.5327 286.7951 L 680.9543 286.6888 L 680.5359 285.7323 L 679.4712 286.0555 L 678.2 286.928 L 677.5379 286.8261 L 676.0283 287.1052 L 675.6046 286.3921 L 674.0686 287.1937 L 672.3154 287.4152 L 669.0579 284.7185 L 664.2273 280.1981 L 662.2145 278.8326 L 661.5313 277.6531 L 659.6033 279.6721 L 658.6975 281.5863 L 658.5863 282.4531 L 658.9835 283.1033 L 659.0471 284.5237 L 658.7558 285.7102 L 658.8617 286.6091 L 658.189 286.7685 L 657.7282 287.9336 L 657.8341 288.647 L 658.9358 289.6487 L 658.7293 290.2029 L 659.1265 290.7394 L 658.7769 291.9325 L 658.2102 291.7018 L 658.5333 293.0018 L 658.0725 292.7311 L 657.4157 293.6897 L 658.1678 294.4887 L 657.4793 295.0659 L 656.4358 294.6841 L 655.8797 295.923 L 655.2335 298.5535 L 654.9368 299.2248 L 654.1529 299.5494 L 654.5449 300.0785 L 654.5661 301.3018 L 654.0364 302.2184 L 653.1306 301.9959 L 652.834 302.9082 L 652.1296 303.7852 L 652.8181 304.8539 L 652.7387 305.5666 L 652.2991 306.0923 L 651.7429 307.1172 L 652.6328 308.2628 L 653.1889 310.0332 L 654.1847 310.6176 L 653.5809 311.5502 L 654.3489 312.6349 L 655.6837 313.0322 L 655.922 313.9923 L 657.0608 314.2826 L 657.6805 313.3671 L 657.9931 313.6172 L 659.9211 313.9476 L 659.7886 313.4251 L 658.671 312.376 L 658.5439 311.6797 L 659.1689 311.3673 L 659.5821 312.309 L 660.3925 312.5858 L 660.7368 313.6529 L 660.9539 313.0501 L 661.8384 313.4296 L 663.2527 313.4386 L 662.8607 314.1174 L 663.0461 314.8722 L 663.8035 315.0197 L 663.8724 315.6586 L 664.4603 315.8016 L 664.1319 317.0486 L 663.0567 317.2273 L 663.0514 317.7191 L 663.6394 318.1931 L 663.115 319.1189 L 663.9412 319.7899 L 664.5027 320.6804 L 665.1065 321.1011 L 664.8046 321.7053 L 665.5356 322.8829 L 667.6966 323.3486 L 667.2994 324.1863 L 667.4794 324.9882 L 667.0875 325.638 L 666.9127 326.7049 L 667.7019 327.3371 L 668.0515 328.0681 L 667.7496 328.3731 L 667.9933 330.235 L 669.4551 332.0621 L 670.5357 333.6027 L 669.9689 333.9711 L 670.0749 334.8564 L 670.4403 335.2249 L 670.0431 336.8613 L 670.5886 337.2706 L 670.9541 335.4227 L 671.6586 334.9238 L 671.7115 334.1733 L 672.3312 333.3467 L 673.5389 333.5353 L 673.433 333.0142 L 673.8832 332.5965 L 674.7519 332.4708 L 675.9595 332.8121 L 676.5315 332.399 L 676.6639 331.8152 L 677.6703 331.896 L 679.8155 331.2136 L 680.2551 331.4201 L 680.5888 330.4729 L 682.2202 329.0056 L 682.7817 329.6068 L 682.8876 331.9993 L 682.6069 332.9649 L 682.628 334.4609 L 683.1048 335.5755 L 683.269 336.7894 L 683.5762 336.8299 L 683.9416 337.8418 L 682.9565 339.358 L 683.5497 340.8479 L 685.0487 340.8434 L 684.7785 342.0862 L 684.4713 342.4826 L 684.7309 343.2439 L 684.5296 344.118 L 683.7775 344.4695 L 683.1736 345.4973 L 683.2848 346.2097 L 682.787 346.4577 L 682.5698 347.2244 L 683.5974 347.4635 L 684.5508 346.8861 L 685.2976 346.823 L 686.3887 346.1601 L 686.8601 346.5614 L 687.8347 346.3044 L 688.3962 346.6381 L 688.2479 347.1026 L 687.3633 347.6304 L 687.2892 348.244 L 688.2743 348.6636 L 689.3231 350.2705 L 689.9216 350.1666 L 690.25 351.0381 L 691.2617 351.6568 L 691.2511 352.9487 L 692.623 353.3599 L 692.4905 353.8796 L 693.9895 354.3542 L 694.3815 355.3216 L 694.3497 356.5471 L 694.98 357.0039 L 695.2289 358.1395 L 696.6961 359.3842 L 698.0892 360.3168 L 698.2587 361.0187 L 698.2957 363.8368 L 697.6601 364.9837 L 697.2682 366.5484 L 697.1993 367.5827 L 696.6908 367.737 L 696.5637 369.1031 L 696.9928 370.0248 L 697.6496 370.0929 L 697.9303 370.6787 L 698.6188 370.8967 L 698.7354 371.5508 L 700.1655 371.8642 L 701.0129 371.6098 L 701.4314 373.1729 L 702.7185 373.1047 L 702.5384 372.2368 L 703.1052 371.8552 L 704.3922 372.1686 L 706.262 370.4062 L 707.5067 370.7332 L 708.5396 369.6479 L 709.0693 370.4017 L 709.9008 370.2927 L 710.2239 369.8477 L 711.1562 370.0884 L 712.1626 369.7705 L 711.8606 369.0396 L 712.1255 368.504 L 713.1954 368.0411 L 713.3331 367.4557 L 714.0482 367.3377 L 714.1276 365.3329 L 715.5683 365.0019 L 713.4973 361.5079 L 713.5185 360.3711 L 714.4454 359.8957 Z" fill="[object Object]" fill-opacity="1" stroke="dodgerblue" stroke-width="1" paint-order="fill" stroke-opacity="1" stroke-dasharray="" stroke-linecap="butt" stroke-miterlimit="10" style="filter: url(&quot;#zr2323-shadow-1&quot;);">
</path>
<path d="M 746.8825 390.3262 L 746.0297 389.4768 L 745.5265 389.769 L 744.2077 389.7005 L 743.4449 388.6687 L 743.9746 387.6417 L 743.0477 386.7017 L 742.9047 385.4975 L 741.7553 386.3687 L 741.268 386.0083 L 740.876 384.7313 L 739.9862 383.824 L 737.9257 384.6584 L 737.2637 384.2115 L 736.8134 384.6584 L 736.1778 385.99 L 735.8548 384.9958 L 734.8484 385.949 L 733.895 386.2911 L 733.1587 385.8806 L 731.6756 387.3633 L 731.2254 387.336 L 731.289 386.3641 L 730.8017 386.0174 L 729.8218 387.0211 L 728.969 387.0713 L 728.7783 388.6276 L 727.7984 388.4907 L 727.4383 388.9837 L 726.2094 388.6915 L 726.0293 388.1666 L 724.7052 388.0342 L 724.0907 388.5135 L 723.7888 390.1754 L 723.132 390.2029 L 722.6183 389.1663 L 722.1892 390.0476 L 721.6066 389.3261 L 721.5801 388.1301 L 719.6309 386.7245 L 719.2972 386.0357 L 719.3767 385.2147 L 718.4285 384.631 L 717.2421 383.4046 L 716.7813 383.3727 L 716.7919 384.2662 L 716.1775 384.6401 L 716.0503 385.242 L 716.8395 385.7209 L 716.2463 388.1027 L 715.6848 388.4952 L 715.081 387.5367 L 714.4136 387.2082 L 713.492 385.5841 L 712.3215 386.2957 L 712.0248 387.8014 L 711.5534 387.3679 L 711.3945 388.4267 L 711.0131 388.1209 L 710.1922 389.1435 L 709.6095 389.0978 L 709.1222 389.5726 L 708.3436 389.212 L 708.4019 390.381 L 708.1105 390.9337 L 707.655 389.7781 L 707.1942 390.0111 L 706.8023 390.8149 L 707.1307 392.0986 L 706.9612 392.7521 L 705.7694 394.1555 L 704.9643 393.9223 L 704.9855 393.1726 L 704.1645 392.5511 L 702.9463 392.7841 L 701.7174 392.5602 L 700.6051 392.0073 L 701.1083 393.1406 L 701.0129 393.6663 L 699.8689 394.4435 L 698.979 394.3018 L 698.9313 393.8309 L 697.7555 393.7943 L 697.7978 393.2458 L 696.5796 393.9726 L 696.1665 393.3829 L 695.4514 394.4801 L 695.8063 395.3719 L 695.3561 397.1606 L 694.7999 397.4352 L 693.8783 397.0142 L 692.0721 396.8632 L 690.8909 397.1744 L 690.3454 397.5725 L 689.9534 397.1744 L 688.9311 397.2842 L 687.6547 396.7351 L 686.4364 397.0691 L 685.7478 398.1767 L 685.7002 399.6646 L 685.2764 400.4019 L 685.2923 401.2676 L 685.9915 402.1932 L 685.5201 403.041 L 685.0487 403.2519 L 685.8379 403.7332 L 685.4406 404.1871 L 685.8379 405.0721 L 685.6419 406.15 L 687.2786 406.0675 L 689.0053 405.3015 L 688.5657 407.2512 L 688.7246 407.6964 L 688.0996 409.5235 L 688.8888 410.8645 L 689.5456 411.0069 L 690.2659 410.396 L 690.7638 411.6088 L 690.5837 413.9619 L 691.7119 413.3505 L 692.0297 413.5574 L 691.9821 415.7324 L 693.481 415.1391 L 695.0277 416.1188 L 696.0764 415.4381 L 697.6496 415.5025 L 698.3699 416.0038 L 699.1485 416.2246 L 699.9854 416.0958 L 700.9441 415.3001 L 701.442 414.4953 L 702.2418 414.4769 L 702.8774 412.4313 L 703.9262 411.6133 L 705.3986 411.9763 L 706.0925 411.3699 L 706.6169 411.5674 L 706.5056 412.2612 L 706.9506 412.8035 L 707.1466 414.8218 L 708.1265 415.4104 L 708.1582 415.8704 L 708.8203 415.7922 L 708.8044 415.2771 L 710.0757 415.7508 L 711.1773 416.7353 L 711.9295 416.2016 L 713.6139 417.4669 L 714.6361 419.1701 L 714.9486 420.1786 L 715.6372 421.2057 L 716.3999 420.5793 L 716.776 421.1274 L 716.4211 421.7816 L 715.7855 422.0857 L 715.8808 422.5742 L 716.6754 423.2287 L 716.1987 423.6343 L 716.6859 425.8523 L 716.4476 427.7717 L 716.9402 428.441 L 716.6012 429.4566 L 716.9561 430.6342 L 717.8671 430.7173 L 718.0366 429.7936 L 718.9106 430.2093 L 718.6351 430.8513 L 719.4561 430.8559 L 719.8057 429.2258 L 720.3248 428.1225 L 721.5218 427.3702 L 721.9562 427.5086 L 722.1257 426.8534 L 722.6765 426.7427 L 723.667 427.2687 L 723.72 428.464 L 724.0219 429.2026 L 725.0971 427.9979 L 726.5802 427.7486 L 726.7073 428.9626 L 727.9415 429.2258 L 729.2974 428.1409 L 730.1555 428.0578 L 731.6491 427.4994 L 732.4119 427.5133 L 733.3971 428.0348 L 733.7308 428.9764 L 734.3293 428.9487 L 734.8695 429.5536 L 735.5952 429.4612 L 735.8865 428.9995 L 737.2107 429.5951 L 738.5137 429.2673 L 739.0592 428.6579 L 738.9904 427.7763 L 739.7002 427.3979 L 740.0338 426.1106 L 739.8326 425.4372 L 740.198 424.6348 L 741.5434 424.418 L 741.7553 425.5848 L 742.2214 426.6273 L 741.6652 428.284 L 741.9618 429.6228 L 742.8199 430.0199 L 744.107 429.6228 L 745.7596 428.5148 L 746.3528 427.6794 L 746.4429 426.595 L 747.0626 425.6724 L 747.0626 423.9293 L 747.1367 423.3577 L 748.106 421.7678 L 749.7427 422.2424 L 750.0552 423.2563 L 750.5637 423.5375 L 751.5701 423.1503 L 752.55 423.874 L 753.2068 423.1457 L 753.7576 421.8461 L 753.8689 421.0445 L 753.4028 419.9529 L 754.0754 419.5062 L 754.282 418.4335 L 753.6305 418.3737 L 753.0744 417.8075 L 752.5341 417.9272 L 751.6919 417.4531 L 751.1887 416.2246 L 750.8656 414.831 L 750.2141 414.6654 L 750.4631 414.2608 L 749.4461 413.8792 L 748.9429 413.2586 L 747.7406 412.9138 L 747.6982 412.2383 L 745.7596 411.4434 L 744.2659 411.7971 L 744.0117 412.3578 L 743.3814 411.8752 L 742.9153 412.2612 L 741.893 412.0223 L 742.1949 411.2137 L 742.1049 409.8587 L 741.2309 409.3949 L 741.5275 408.9174 L 742.9841 408.036 L 743.3125 407.4531 L 744.4831 406.8336 L 744.8327 406.1362 L 745.5901 406.907 L 746.1886 406.7144 L 746.2946 406.1454 L 745.4895 405.4849 L 745.3518 404.9575 L 745.945 403.9258 L 746.8242 403.5132 L 747.4387 402.1428 L 748.5298 402.1977 L 748.8211 401.5059 L 749.6739 401.144 L 749.7851 400.3286 L 749.3772 399.9989 L 748.8953 398.5795 L 749.0594 397.211 L 747.9154 396.1769 L 747.5817 394.4573 L 747.0255 393.7669 L 746.7024 392.085 L 747.3168 391.4179 L 746.8825 390.3262 Z" fill="[object Object]" fill-opacity="1" stroke="dodgerblue" stroke-width="1" paint-order="fill" stroke-opacity="1" stroke-dasharray="" stroke-linecap="butt" stroke-miterlimit="10" style="filter: url(&quot;#zr2323-shadow-1&quot;);">
</path>
<path d="M 652.2991 306.0923 L 652.7387 305.5666 L 652.8181 304.8539 L 652.1296 303.7852 L 652.834 302.9082 L 653.1306 301.9959 L 654.0364 302.2184 L 654.5661 301.3018 L 654.5449 300.0785 L 654.1529 299.5494 L 654.9368 299.2248 L 655.2335 298.5535 L 655.8797 295.923 L 656.4358 294.6841 L 657.4793 295.0659 L 658.1678 294.4887 L 657.4157 293.6897 L 658.0725 292.7311 L 658.5333 293.0018 L 658.2102 291.7018 L 658.7769 291.9325 L 659.1265 290.7394 L 658.7293 290.2029 L 658.9358 289.6487 L 657.8341 288.647 L 657.7282 287.9336 L 658.189 286.7685 L 658.8617 286.6091 L 658.7558 285.7102 L 659.0471 284.5237 L 658.9835 283.1033 L 658.5863 282.4531 L 658.6975 281.5863 L 659.6033 279.6721 L 661.5313 277.6531 L 661.2293 277.0349 L 656.1286 271.4055 L 655.6996 271.0308 L 654.3489 270.5592 L 647.0236 267.7798 L 646.4939 264.1143 L 645.9377 262.448 L 646.049 261.4723 L 645.747 260.0446 L 645.9536 257.9941 L 649.5872 255.9757 L 650.4505 255.6949 L 651.3298 255.0678 L 650.4558 249.7136 L 649.0787 246.5982 L 647.495 244.3599 L 652.6063 240.6997 L 661.8384 234.0283 L 665.758 226.7106 L 666.7485 224.7732 L 667.8132 223.2233 L 669.8842 222.2859 L 671.8069 221.2663 L 672.7285 219.2023 L 672.5537 216.8754 L 673.0834 215.087 L 672.1194 212.1318 L 667.9138 205.8546 L 668.7454 203.5206 L 669.3174 200.6457 L 669.042 200.4733 L 665.2442 199.0606 L 661.6425 198.7937 L 660.6838 199.0391 L 657.6117 200.1459 L 653.2843 202.016 L 650.5723 202.6799 L 649.3435 203.2015 L 647.8975 203.4474 L 645.5723 204.1762 L 645.0214 204.5688 L 642.3677 207.3525 L 640.1061 209.4042 L 638.3316 210.3852 L 636.6844 211.8291 L 635.6833 213.0921 L 634.4598 214.3339 L 632.3146 214.0872 L 630.6779 213.6805 L 626.4458 212.4606 L 621.6258 211.2886 L 620.5506 210.8995 L 619.0781 209.6505 L 616.3503 207.685 L 613.1563 208.687 L 610.7569 210.4889 L 608.0715 211.28 L 604.0301 212.3567 L 601.9379 213.2695 L 598.3626 213.9055 L 596.2069 214.6412 L 599.2896 218.6692 L 600.2218 219.2977 L 601.779 221.0668 L 603.1561 222.8066 L 604.0036 223.3144 L 600.4019 218.8339 L 604.5068 219.5144 L 604.7399 220.4119 L 606.366 221.288 L 610.3915 222.4074 L 610.8523 220.9367 L 612.5684 221.2837 L 613.8555 221.8824 L 615.7941 222.2208 L 615.0155 223.64 L 615.4286 223.9786 L 615.9053 226.954 L 614.9837 228.4667 L 614.9043 230.463 L 614.5441 233.1355 L 616.1384 234.5859 L 616.5251 236.1241 L 617.1554 236.5905 L 617.7433 238.2868 L 619.0198 240.2545 L 621.6099 241.5554 L 620.201 243.8791 L 621.8112 243.8093 L 624.3483 244.0802 L 624.4542 244.7226 L 624.1047 246.83 L 624.1841 247.3374 L 623.8981 249.3415 L 624.3483 249.8406 L 625.0899 251.5528 L 624.9468 253.38 L 624.539 253.7701 L 623.5167 253.6911 L 623.628 255.0196 L 622.701 255.0064 L 621.4881 254.3618 L 620.2857 254.3443 L 619.7031 253.9322 L 618.8821 253.8533 L 618.4954 254.4846 L 616.4986 256.0415 L 616.1437 256.8267 L 615.6405 257.0462 L 614.9361 256.8224 L 614.9202 256.1994 L 614.2581 255.6555 L 612.8121 255.4888 L 611.5461 256.0239 L 609.8883 256.4407 L 608.9031 256.9189 L 609.1891 257.1163 L 608.7389 257.9941 L 608.3734 259.4341 L 607.6901 259.1268 L 607.3247 259.6317 L 606.9327 259.1663 L 606.0747 259.8733 L 605.2113 259.9743 L 604.7346 260.3388 L 604.8299 260.4355 L 605.1848 260.7034 L 605.2378 261.3142 L 605.9475 261.591 L 607.1499 261.6217 L 607.0651 262.0656 L 606.1276 262.571 L 604.6127 263.7317 L 602.6954 264.3474 L 602.8489 264.7037 L 604.1043 264.8884 L 604.5068 265.258 L 605.4602 265.3767 L 605.8575 265.9971 L 605.6244 266.6529 L 606.5778 268.2421 L 607.1234 268.5416 L 608.2251 268.1056 L 608.0715 268.6825 L 606.8427 269.6075 L 606.5726 270.9691 L 605.6297 271.714 L 604.777 273.5263 L 604.242 274.3425 L 604.2367 275.044 L 603.3892 275.5251 L 603.2833 277.3749 L 602.8172 277.8872 L 603.9454 279.0225 L 603.8235 279.5086 L 604.5757 279.9948 L 604.9623 279.8401 L 605.1371 280.6224 L 605.9105 281.374 L 605.4973 282.0329 L 605.6297 282.7096 L 605.0206 283.705 L 605.1213 284.2007 L 605.7251 284.0192 L 607.3882 285.17 L 608.0609 286.8216 L 609.7241 287.2114 L 610.4497 288.0178 L 611.382 288.0842 L 611.3449 289.0015 L 612.7114 289.9502 L 613.5907 290.8281 L 614.4064 290.9434 L 615.5293 291.6619 L 615.238 292.1942 L 616.3503 293.2636 L 616.6045 294.3289 L 617.2031 294.5642 L 617.5209 295.3146 L 618.9245 295.5899 L 620.4235 297.5224 L 621.1173 297.4424 L 621.9807 299.5227 L 622.2932 299.7005 L 622.4468 300.6612 L 620.5559 300.4165 L 620.3493 300.7145 L 618.8821 301.1905 L 617.7857 301.0615 L 617.4785 301.5731 L 617.8175 302.4409 L 617.6639 303.0729 L 618.0293 303.9455 L 616.7899 305.4552 L 616.7952 305.972 L 616.2443 306.3195 L 616.8111 306.93 L 617.8016 306.8498 L 617.844 307.398 L 618.6173 307.5584 L 618.7497 308.08 L 619.8196 308.4322 L 620.1374 309.7968 L 620.9425 310.5061 L 622.2985 311.2735 L 622.9659 312.559 L 624.4648 313.9253 L 624.9892 314.8812 L 625.3388 315.2118 L 624.8144 315.9356 L 623.8345 316.0072 L 623.236 317.5716 L 623.9564 318.5822 L 625.3123 319.0742 L 626.6683 319.0473 L 626.8484 318.2647 L 626.1598 317.1424 L 626.8536 315.2386 L 627.8018 314.7293 L 627.9925 315.1939 L 628.6281 315.2118 L 628.9459 314.6846 L 628.2891 313.8092 L 629.0518 313.2153 L 627.8918 311.8136 L 628.9617 311.6395 L 629.608 311.943 L 630.0741 311.1709 L 630.8686 310.7782 L 630.9004 310.1938 L 630.2436 309.217 L 631.4247 307.7457 L 632.5688 308.0309 L 633.2468 307.2108 L 634.1684 307.2509 L 636.2289 306.6983 L 636.4301 307.3222 L 638.1886 307.0459 L 639.8571 307.3044 L 639.7459 307.8526 L 640.5404 307.9908 L 640.694 307.496 L 641.4832 307.6699 L 642.3783 306.7428 L 642.961 306.9389 L 642.0499 308.557 L 642.622 308.9316 L 643.1199 308.6195 L 644.158 308.9673 L 645.2703 308.5793 L 645.2968 309.4534 L 646.3297 310.1849 L 646.2502 311.287 L 646.9335 312.4653 L 648.6073 312.242 L 649.3117 310.9255 L 649.3329 310.3857 L 650.7842 311.4342 L 651.5469 310.1894 L 650.8372 309.159 L 650.244 309.4712 L 650.1963 308.6997 L 649.5395 307.5406 L 648.7767 307.7278 L 648.3107 307.0949 L 647.2195 308.2628 L 646.4303 308.3965 L 645.9377 308.936 L 645.3021 308.1201 L 645.2862 306.7606 L 644.497 307.2598 L 644.0362 307.1261 L 644.2851 305.5354 L 645.6517 305.1033 L 647.1136 304.9964 L 648.2789 305.1345 L 648.5861 305.7403 L 649.6719 306.4086 L 650.583 306.6225 L 651.1232 306.2349 L 652.2991 306.0923 Z" fill="[object Object]" fill-opacity="1" stroke="dodgerblue" stroke-width="1" paint-order="fill" stroke-opacity="1" stroke-dasharray="" stroke-linecap="butt" stroke-miterlimit="10" style="filter: url(&quot;#zr2323-shadow-1&quot;);">
</path>
<path d="M 602.8172 277.8872 L 603.2833 277.3749 L 603.3892 275.5251 L 604.2367 275.044 L 604.242 274.3425 L 604.777 273.5263 L 605.6297 271.714 L 606.5726 270.9691 L 606.8427 269.6075 L 608.0715 268.6825 L 608.2251 268.1056 L 607.1234 268.5416 L 606.5778 268.2421 L 605.6244 266.6529 L 605.8575 265.9971 L 605.4602 265.3767 L 604.5068 265.258 L 604.1043 264.8884 L 602.8489 264.7037 L 602.6954 264.3474 L 604.6127 263.7317 L 606.1276 262.571 L 607.0651 262.0656 L 607.1499 261.6217 L 605.9475 261.591 L 605.2378 261.3142 L 605.1848 260.7034 L 604.8299 260.4355 L 604.7346 260.3388 L 602.9867 260.5497 L 602.5205 259.9699 L 602.1869 258.2926 L 601.7949 257.7395 L 601.2441 257.6869 L 600.8733 258.1389 L 599.9093 258.3672 L 597.9813 257.3841 L 596.9961 257.5377 L 596.3393 258.5823 L 595.603 259.0257 L 594.1253 258.4023 L 593.2672 257.6869 L 592.1761 257.8712 L 591.6676 258.9555 L 590.3964 257.9458 L 589.925 258.7448 L 589.1411 259.2497 L 587.9811 259.3814 L 586.0213 259.1794 L 584.8931 259.4253 L 583.6007 260.0973 L 582.8856 259.2892 L 581.821 258.7535 L 582.3825 257.4148 L 582.3454 256.0941 L 582.8962 254.7521 L 584.2945 253.1389 L 584.7977 252.8847 L 585.2162 251.9778 L 584.4641 251.0141 L 582.8221 250.0244 L 582.3825 249.5648 L 582.017 248.1862 L 580.5551 248.1424 L 580.2532 245.8811 L 580.8517 246.091 L 581.3337 245.7718 L 581.3655 245.0723 L 583.0445 244.7969 L 583.7967 245.0723 L 585.0944 244.0364 L 586.1007 243.0098 L 586.4609 241.8786 L 585.6293 241.8262 L 585.5817 240.822 L 586.588 240.6997 L 587.033 240.32 L 586.7364 239.1767 L 586.0266 238.1777 L 587.6738 236.996 L 587.5838 235.588 L 588.4578 234.1241 L 589.1569 233.5448 L 588.7915 233.571 L 587.5203 231.0765 L 585.0891 230.0628 L 582.6632 228.8667 L 580.0413 228.3015 L 579.5699 228.0232 L 579.2362 227.2408 L 580.0042 226.9888 L 580.3697 226.363 L 580.1313 225.2292 L 577.7266 224.9469 L 577.0857 224.4866 L 577.0169 222.6938 L 575.751 221.1449 L 576.7202 217.8025 L 573.1185 219.7659 L 568.3302 220.9844 L 568.3355 218.8382 L 568.0813 218.4351 L 566.148 217.3996 L 565.7349 218.3831 L 565.2952 218.5912 L 563.9923 217.5729 L 563.8122 217.1613 L 563.8069 215.4637 L 564.9404 214.0829 L 564.9827 213.3171 L 564.5802 212.1535 L 564.2412 210.0654 L 564.22 201.1972 L 559.8767 201.2446 L 558.2877 201.7876 L 557.0324 201.9772 L 555.401 201.6539 L 553.1234 201.4212 L 553.1711 197.9327 L 551.3172 197.7519 L 547.5301 196.7363 L 546.7144 194.0096 L 547.1381 192.5183 L 545.0671 189.1474 L 541.1158 188.4093 L 538.2926 186.0418 L 535.6389 185.5059 L 533.8857 184.803 L 531.2162 181.5992 L 527.6621 180.8415 L 526.3856 180.3922 L 520.4162 180.91 L 519.378 180.8501 L 516.2318 181.3081 L 514.9977 182.1301 L 512.6406 182.5497 L 512.0633 181.9631 L 511.3005 182.8966 L 510.8768 183.7961 L 509.1871 184.1259 L 508.3079 182.6781 L 507.3227 182.5797 L 506.8672 182.0273 L 505.4953 181.8603 L 504.2082 182.7767 L 503.3343 184.683 L 502.9953 188.4393 L 502.9953 190.0144 L 500.7918 189.993 L 498.9539 189.5208 L 498.3024 191.6505 L 498.6785 193.1586 L 500.4899 193.0726 L 502.6245 193.7689 L 502.8999 193.0339 L 503.9116 191.9727 L 505.4424 191.5389 L 506.364 191.8181 L 506.7189 192.3851 L 506.454 193.3477 L 506.9837 194.762 L 507.7835 195.8027 L 508.059 196.5211 L 509.0018 196.9729 L 510.559 198.1909 L 512.2592 198.9228 L 512.916 200.2579 L 514.5951 203.2749 L 514.4998 204.3272 L 514.1078 205.751 L 513.7105 206.2258 L 511.3323 206.4545 L 511.0622 206.7955 L 511.5389 208.9203 L 511.327 209.8233 L 510.3312 211.293 L 510.4213 210.865 L 509.2719 209.7153 L 509.1977 208.0823 L 508.525 207.4346 L 507.238 207.1453 L 506.5759 207.5727 L 506.131 206.3811 L 505.3894 205.7424 L 504.1553 205.1986 L 503.8428 204.4307 L 501.6022 204.3531 L 501.4592 205.0433 L 500.776 204.4609 L 500.3098 204.7111 L 499.4094 203.8484 L 498.1647 203.1498 L 496.6233 201.8824 L 495.8447 201.4773 L 495.2621 200.805 L 493.6413 199.8703 L 492.084 199.5214 L 490.7228 198.8281 L 491.03 197.9068 L 490.1772 198.4148 L 489.3086 198.531 L 488.9537 197.9757 L 489.441 197.7002 L 490.0607 196.7104 L 486.3212 193.7861 L 485.5426 194.934 L 485.2831 196.5082 L 485.1083 195.5963 L 484.0013 195.2909 L 482.9578 194.13 L 483.8265 191.5088 L 484.2714 190.4738 L 483.1326 189.9028 L 482.6559 190.0016 L 481.3688 188.8942 L 480.1506 188.1604 L 480.2459 187.6885 L 479.319 187.3197 L 478.3655 187.384 L 477.6558 187.9373 L 477.3751 188.6367 L 473.5191 188.5637 L 471.2839 190.1089 L 470.3357 188.6839 L 467.6079 188.0532 L 466.7446 189.1345 L 465.341 189.3362 L 462.5813 188.6281 L 461.8133 189.4049 L 461.1565 191.4358 L 459.9542 191.4959 L 458.8631 192.6816 L 458.3652 194.3621 L 457.9732 194.7964 L 456.7656 195.4586 L 455.4626 198.2942 L 455.4732 201.167 L 455.3672 202.5979 L 454.6098 203.5034 L 453.8153 203.7104 L 452.7718 204.9786 L 452.936 206.0574 L 452.7083 208.3285 L 453.7199 211.2022 L 453.9371 213.2608 L 454.7687 213.6026 L 456.2624 215.3944 L 457.5071 215.7971 L 458.7359 216.438 L 459.9913 217.3259 L 461.8981 218.2531 L 462.4119 219.1806 L 462.2635 219.7355 L 462.6237 220.2775 L 463.736 220.503 L 464.181 220.8716 L 465.5899 221.1579 L 466.7446 221.7132 L 468.2594 223.0844 L 469.3294 223.6791 L 470.8336 224.1436 L 471.3686 224.5908 L 472.6663 224.8166 L 473.1748 225.7895 L 473.9269 226.4934 L 474.2977 226.4717 L 475.3517 227.9145 L 476.0721 227.08 L 477.2056 226.4543 L 477.7035 225.5897 L 478.8582 224.8818 L 480.4048 223.3882 L 480.3571 222.4985 L 479.9175 222.108 L 481.0139 220.6548 L 481.5807 219.0333 L 481.3688 217.5295 L 481.7343 217.0574 L 482.5288 216.949 L 484.7004 217.4299 L 485.2513 218.6302 L 486.2683 218.8642 L 486.1306 219.7312 L 487.0787 220.7242 L 489.3086 220.6114 L 490.0872 220.8803 L 490.8128 221.6134 L 491.369 221.5787 L 491.6126 220.9541 L 492.1688 220.967 L 492.4654 220.4553 L 492.1582 219.5361 L 493.7366 218.9335 L 494.6583 217.7982 L 495.0979 216.8278 L 495.9083 216.2301 L 496.3373 214.9486 L 496.8564 214.8014 L 498.5831 214.9139 L 498.7314 215.8274 L 500.0079 216.6459 L 500.9772 217.0054 L 501.4857 218.1535 L 502.9953 219.1936 L 504.1129 219.3497 L 504.4095 219.6705 L 505.0769 219.3584 L 506.454 219.7485 L 506.7454 220.3079 L 508.149 221.0104 L 506.6341 222.5072 L 506.8513 223.1365 L 508.2072 224.3911 L 509.1977 225.0468 L 510.1035 226.1458 L 511.8143 227.8015 L 512.9637 228.1145 L 514.0389 228.7928 L 516.343 230.8502 L 516.6449 232.0427 L 517.9691 233.1224 L 518.414 233.9063 L 518.61 234.9387 L 519.2138 235.758 L 520.6757 235.3919 L 521.2636 236.05 L 521.2584 237.3099 L 521.7403 238.2737 L 522.376 238.784 L 522.6037 239.3817 L 523.5624 240.3244 L 525.3104 241.3589 L 525.9671 242.455 L 526.5974 242.9966 L 527.768 243.4903 L 528.4036 244.0321 L 529.1557 244.1239 L 531.5022 245.9292 L 534.0393 247.0181 L 534.9451 247.0968 L 535.676 247.998 L 537.032 248.2431 L 538.5998 249.613 L 539.2884 249.556 L 540.1835 250.1689 L 540.7344 250.8652 L 541.1158 251.8814 L 542.1592 252.4684 L 542.9007 252.2362 L 542.816 251.2418 L 542.4505 250.528 L 542.085 248.4356 L 542.3022 247.7049 L 541.3647 247.3724 L 540.7503 246.7207 L 540.5808 245.5532 L 539.9399 244.2113 L 538.5256 243.6476 L 538.515 243.2718 L 537.6888 243.1714 L 537.8159 242.3633 L 537.0161 241.6864 L 537.8106 239.9185 L 539.05 239.4603 L 539.8922 240.595 L 540.6072 240.3811 L 541.0575 240.9005 L 541.8732 241.1974 L 542.3075 241.9659 L 543.6105 242.1493 L 544.7811 242.8569 L 545.3743 246.0253 L 545.8404 245.4745 L 546.7091 245.0461 L 547.6943 247.2718 L 547.2705 247.6655 L 548.6159 248.5493 L 549.0661 248.4969 L 549.8076 249.1796 L 550.6975 248.58 L 551.0577 248.8338 L 551.1212 250.2697 L 551.8945 250.3616 L 552.3236 249.3765 L 553.0387 250.0244 L 553.8173 250.1383 L 554.6594 251.1805 L 555.5599 250.9834 L 556.2273 251.3776 L 557.0006 250.366 L 558.775 250.7776 L 559.1775 251.0623 L 560.1045 250.8915 L 561.2962 251.5309 L 562.2179 252.6174 L 562.5039 253.4808 L 563.1818 254.0111 L 563.5685 254.8441 L 564.273 255.3967 L 564.8132 255.4274 L 566.4711 254.0988 L 567.3239 254.9099 L 566.9001 255.4055 L 566.6141 256.8663 L 566.826 258.1389 L 565.9255 259.1004 L 565.6819 259.6888 L 565.9838 260.5453 L 565.9203 261.2438 L 566.6724 261.8415 L 568.1661 261.3537 L 568.6904 261.5339 L 569.2466 262.3293 L 570.004 262.8876 L 570.4436 262.8392 L 571.8208 264.3386 L 572.6577 264.1363 L 573.0231 265.2712 L 573.5581 265.5527 L 574.252 266.5252 L 574.2043 267.1018 L 574.9141 267.8282 L 575.8834 268.4051 L 577.0645 268.5945 L 577.6896 269.0393 L 578.3569 268.8719 L 579.6758 269.9688 L 581.0477 270.8325 L 581.5138 270.4094 L 581.7045 269.4974 L 582.3613 269.0877 L 583.6642 267.5157 L 584.9461 268.1453 L 585.5128 267.9559 L 586.8793 268.775 L 588.6802 269.2727 L 589.3529 270.0305 L 590.0521 271.498 L 591.0108 272.4282 L 590.6506 273.3323 L 594.941 274.9381 L 595.6454 275.5604 L 595.7249 276.739 L 596.9643 276.2931 L 597.5469 275.3839 L 598.7281 274.6116 L 599.941 273.5572 L 601.6466 273.6896 L 602.7589 275.2647 L 602.7854 276.1695 L 603.2091 276.739 L 602.8172 277.8872 Z" fill="[object Object]" fill-opacity="1" stroke="dodgerblue" stroke-width="1" paint-order="fill" stroke-opacity="1" stroke-dasharray="" stroke-linecap="butt" stroke-miterlimit="10" style="filter: url(&quot;#zr2323-shadow-1&quot;);">
</path>
<path d="M 733.7625 373.032 L 733.4341 373.0775 L 733.27 372.4185 L 733.4341 371.9233 L 733.4077 371.2328 L 732.8197 371.6143 L 732.1894 370.9875 L 731.6333 371.2237 L 731.2042 372.2913 L 729.9595 372.8684 L 728.8313 372.8593 L 727.666 373.3774 L 727.5071 372.2731 L 727.7614 371.7506 L 728.6671 371.7824 L 730.701 370.715 L 732.6449 370.1337 L 732.6184 369.7432 L 731.7392 369.9249 L 731.5962 368.7037 L 728.2698 367.9503 L 727.9309 367.619 L 726.8238 367.9367 L 726.612 369.0123 L 726.1247 370.0702 L 725.7857 369.884 L 725.7274 367.8913 L 725.1342 366.4213 L 724.5463 366.8251 L 723.8789 365.9179 L 724.1437 365.6957 L 723.381 365.2195 L 723.2803 363.864 L 722.7295 364.213 L 722.7931 363.6238 L 721.8449 363.3201 L 722.1098 362.1783 L 721.506 361.6437 L 721.061 361.7253 L 722.1363 359.9184 L 722.2899 361.0504 L 722.5865 361.1455 L 723.2751 359.9546 L 722.4964 359.9817 L 721.6225 359.3978 L 720.7167 359.4113 L 720.3619 358.8772 L 717.9942 360.3621 L 717.1679 360.3304 L 717.3268 360.9779 L 716.9825 361.5667 L 716.8819 359.9727 L 715.8755 359.8731 L 715.2029 360.2172 L 714.4454 359.8957 L 713.5185 360.3711 L 713.4973 361.5079 L 715.5683 365.0019 L 714.1276 365.3329 L 714.0482 367.3377 L 713.3331 367.4557 L 713.1954 368.0411 L 712.1255 368.504 L 711.8606 369.0396 L 712.1626 369.7705 L 711.1562 370.0884 L 710.2239 369.8477 L 709.9008 370.2927 L 711.1403 371.4327 L 711.4528 372.8957 L 711.8076 373.6547 L 712.5333 374.0456 L 712.5651 374.8321 L 712.9676 375.105 L 713.4867 376.342 L 714.1647 376.0373 L 714.1806 374.4729 L 714.562 374.5093 L 715.1234 375.7462 L 716.2092 376.4694 L 715.955 377.7753 L 716.8236 378.5763 L 716.5005 378.9906 L 716.384 380.1015 L 717.2792 382.2789 L 718.3756 381.5955 L 718.6086 381.8916 L 718.6881 383.3727 L 719.3873 383.7602 L 719.6945 384.9365 L 719.3767 385.2147 L 719.2972 386.0357 L 719.6309 386.7245 L 721.5801 388.1301 L 721.6066 389.3261 L 722.1892 390.0476 L 722.6183 389.1663 L 723.132 390.2029 L 723.7888 390.1754 L 724.0907 388.5135 L 724.7052 388.0342 L 726.0293 388.1666 L 726.2094 388.6915 L 727.4383 388.9837 L 727.7984 388.4907 L 728.7783 388.6276 L 728.969 387.0713 L 729.8218 387.0211 L 730.8017 386.0174 L 731.289 386.3641 L 731.2254 387.336 L 731.6756 387.3633 L 733.1587 385.8806 L 733.895 386.2911 L 734.8484 385.949 L 735.8548 384.9958 L 736.1778 385.99 L 736.8134 384.6584 L 737.2637 384.2115 L 737.9257 384.6584 L 739.9862 383.824 L 740.876 384.7313 L 741.268 386.0083 L 741.7553 386.3687 L 742.9047 385.4975 L 743.0477 386.7017 L 743.9746 387.6417 L 743.4449 388.6687 L 744.2077 389.7005 L 745.5265 389.769 L 746.0297 389.4768 L 746.8825 390.3262 L 747.3645 389.769 L 747.9419 390.0293 L 748.7364 388.1848 L 748.6569 387.5596 L 749.7004 387.3724 L 750.9822 388.162 L 751.782 388.1437 L 753.9271 387.6965 L 754.1867 386.6743 L 756.2365 387.1626 L 758.1963 387.7832 L 758.7948 387.2903 L 760.209 387.1489 L 760.548 387.7467 L 761.6762 387.8881 L 761.8086 388.34 L 763.1275 388.2715 L 763.8267 389.9608 L 764.4835 389.9288 L 765.0714 389.4677 L 764.9867 390.0065 L 766.295 390.3307 L 766.581 391.3037 L 766.3215 392.2312 L 767.2907 393.3738 L 768.6785 393.6389 L 769.2452 394.3201 L 769.5577 395.8293 L 769.9285 396.3325 L 770.6383 396.4835 L 770.9031 395.8613 L 771.5758 396.3554 L 771.9095 395.2164 L 772.5769 395.0334 L 772.6987 394.1647 L 773.8534 393.8949 L 774.7538 394.0686 L 775.4583 394.7636 L 776.1363 394.1418 L 777.2062 394.3018 L 778.1596 394.8185 L 778.7846 394.7042 L 780.3736 395.1158 L 780.7868 394.8779 L 780.8238 394.1372 L 781.2529 393.8035 L 781.6078 392.6699 L 781.9309 392.4597 L 783.0167 393.0081 L 783.4722 392.7521 L 783.9118 393.2138 L 783.6682 394.7225 L 784.1237 394.7316 L 784.0549 394.1052 L 784.5898 394.0915 L 785.2731 393.3463 L 787.413 393.232 L 788.61 392.7476 L 789.4575 393.0903 L 789.5264 392.3637 L 790.6651 392.1352 L 791.3537 391.2625 L 790.7181 391.1301 L 790.8664 390.1983 L 790.1937 390.2714 L 789.3145 389.7873 L 787.9903 388.1574 L 787.8155 387.1261 L 786.7986 386.2729 L 786.9628 386.0448 L 786.5814 383.9744 L 785.6544 381.8825 L 785.1089 381.9782 L 784.5157 380.8849 L 784.8599 380.2108 L 785.824 380.393 L 786.7191 379.6143 L 787.2753 379.6917 L 787.2594 378.4534 L 786.6714 378.1485 L 787.5507 377.7844 L 787.27 377.1337 L 787.503 376.6469 L 787.2594 375.9736 L 786.7774 375.9827 L 786.3165 375.2141 L 785.7657 373.6638 L 786.0888 372.9139 L 785.3737 372.4821 L 784.9394 372.782 L 783.9648 372.6003 L 784.0072 372.0641 L 783.4034 371.2918 L 782.6565 371.2827 L 782.773 370.2155 L 782.3493 370.4153 L 782.5982 371.0784 L 781.8832 371.2373 L 780.988 369.8658 L 780.5749 369.7478 L 779.7433 370.5197 L 779.6215 371.3873 L 778.9382 371.3146 L 779.0442 370.2654 L 778.0378 370.2927 L 777.1267 369.5707 L 776.5335 369.6388 L 775.8396 370.4743 L 774.8227 370.052 L 774.1818 370.1428 L 772.8258 368.8761 L 771.6764 368.7082 L 771.7294 369.6661 L 770.9932 369.0759 L 769.8544 369.2484 L 769.5472 368.8853 L 768.9592 370.765 L 767.5132 369.9567 L 766.5492 371.1011 L 765.5111 370.5697 L 765.2515 371.151 L 765.1138 370.0475 L 763.1064 368.2725 L 763.0799 367.973 L 761.03 366.249 L 760.2885 364.8658 L 759.4357 363.9592 L 757.7249 362.6903 L 755.4897 361.4128 L 754.9335 361.4897 L 752.9049 359.8233 L 752.5023 360.7062 L 751.5595 360.3938 L 751.1623 359.1443 L 750.9239 359.7508 L 750.4737 359.1488 L 750.4048 359.8278 L 749.4037 359.3615 L 748.2332 359.2303 L 747.4545 359.4159 L 747.3857 359.4747 L 747.1844 359.6331 L 747.0096 359.6195 L 746.1463 360.2579 L 745.5901 361.2859 L 745.1452 361.5305 L 745.2882 362.6812 L 745.9503 363.4561 L 745.7702 364.0907 L 746.6812 366.4032 L 745.9715 366.2353 L 745.6643 367.3513 L 745.7861 368.0365 L 745.3306 368.5131 L 746.0403 369.5435 L 746.1357 370.4789 L 746.9302 370.5061 L 746.713 371.7915 L 747.3645 373.3274 L 747.0838 373.9138 L 747.1209 375.0049 L 747.5499 375.7507 L 747.0467 376.0464 L 746.9408 377.0108 L 746.3528 377.8253 L 745.0022 378.59 L 744.589 379.3229 L 743.6038 379.5915 L 742.9841 379.4322 L 743.2278 380.5068 L 742.8358 380.9486 L 741.9407 380.3975 L 741.3845 379.7054 L 741.4481 379.2501 L 740.3146 378.2213 L 739.9809 377.029 L 739.5413 376.979 L 738.8845 375.7644 L 739.1493 375.4051 L 738.7574 373.5638 L 737.2849 373.4456 L 736.7234 372.3186 L 736.4744 373.0684 L 735.4257 374.0683 L 735.0814 375.1186 L 734.52 375.3914 L 734.3187 373.8865 L 733.9003 373.8729 L 733.7625 373.032 Z M 732.6184 369.7432 L 732.6449 370.1337 L 732.8197 371.6143 L 733.4077 371.2328 L 733.3017 370.1292 L 734.2922 369.6751 L 733.6142 369.2439 L 732.6184 369.7432 Z M 733.4341 371.9233 L 733.27 372.4185 L 733.4341 373.0775 L 733.7625 373.032 L 733.4341 371.9233 Z M 747.3857 359.4747 L 747.4545 359.4159 L 747.0096 359.6195 L 747.1844 359.6331 L 747.3857 359.4747 Z" fill="[object Object]" fill-opacity="1" stroke="dodgerblue" stroke-width="1" paint-order="fill" stroke-opacity="1" stroke-dasharray="" stroke-linecap="butt" stroke-miterlimit="10" style="filter: url(&quot;#zr2323-shadow-1&quot;);">
</path>
<path d="M 519.378 180.8501 L 518.8907 180.4821 L 519.4945 179.96 L 520.5221 180.5548 L 521.6026 180.3879 L 522.5296 179.6948 L 524.7224 178.6597 L 527.7256 176.7658 L 528.928 175.266 L 531.7035 175.0182 L 533.1389 174.2324 L 534.6378 172.8065 L 535.5489 169.0572 L 537.032 167.0673 L 542.4664 163.5891 L 542.4664 152.213 L 544.8234 148.8796 L 544.654 144.6453 L 544.2461 144.1846 L 540.4695 137.7973 L 538.8223 136.3977 L 536.5182 136.3261 L 531.428 135.7951 L 526.4068 135.3232 L 522.9374 139.0416 L 516.3589 138.8138 L 510.2783 138.5396 L 510.2253 143.331 L 508.6893 144.7171 L 507.9318 146.3873 L 505.9721 145.6388 L 504.1447 141.7977 L 497.8681 145.1399 L 497.8098 146.2816 L 498.3924 147.1233 L 498.0323 148.2447 L 498.2547 149.3452 L 496.8034 147.8638 L 495.4263 147.0218 L 494.5311 145.5077 L 493.9061 142.2243 L 490.7175 143.3479 L 492.5925 146.3239 L 483.4133 151.0478 L 483.0584 135.9173 L 481.782 135.3568 L 480.373 135.0535 L 478.2543 132.9479 L 476.8825 132.3502 L 471.3739 128.2075 L 469.3876 125.4897 L 460.2932 113.4277 L 460.4627 112.9387 L 459.8694 112.4037 L 459.7953 111.8479 L 461.4479 110.0978 L 467.3272 104.1079 L 461.4002 90.6323 L 456.13 78.7785 L 451.5536 68.7236 L 447.9465 60.4523 L 445.5153 55 L 442.3055 55.9004 L 439.3658 56.6292 L 435.298 56.7111 L 431.585 56.6415 L 426.9133 57.2189 L 423.4916 57.5261 L 420.0699 57.9071 L 419.0529 58.7388 L 416.6853 60.0587 L 413.7033 61.933 L 413.0147 62.0479 L 412.9247 62.4541 L 410.9278 63.238 L 409.9214 64.7408 L 408.3483 65.8993 L 408.147 68.5015 L 406.8917 70.4599 L 409.7201 71.4191 L 408.9415 74.076 L 408.9098 75.2138 L 413.3484 79.8975 L 410.075 82.8439 L 412.0719 86.961 L 412.0242 88.4522 L 411.3303 89.9565 L 408.8462 92.5196 L 407.8981 93.1254 L 404.9372 94.6448 L 403.8249 94.9978 L 402.9086 95.7828 L 401.1554 95.8493 L 399.7888 96.3687 L 397.0981 96.6221 L 396.2877 96.9005 L 394.9847 97.7028 L 393.7293 98.0894 L 393.4222 98.5551 L 392.5323 99.0167 L 391.7325 99.807 L 387.9824 102.5167 L 386.8595 103.6163 L 386.0809 104.6455 L 384.9368 108.0107 L 383.3266 106.1629 L 382.0872 103.233 L 381.5098 102.4542 L 381.6846 101.4009 L 380.5617 100.7141 L 379.6825 99.1124 L 378.8085 99.2871 L 375.5934 101.1012 L 374.2216 101.43 L 370.7628 103.5954 L 369.0784 105.7167 L 367.1452 109.2127 L 360.1588 110.6072 L 351.9807 117.9716 L 348.8344 120.8457 L 343.2305 127.4764 L 339.9094 133.1458 L 336.7314 137.6287 L 337.0916 141.3291 L 335.1424 146.8865 L 326.9113 147.593 L 308.2139 150.8614 L 307.9597 158.6621 L 307.5148 162.1641 L 303.9447 168.9293 L 303.0867 175.5181 L 302.2975 181.2439 L 300.4277 190.3407 L 298.8811 196.5126 L 295.1787 202.7963 L 293.0865 204.7844 L 290.4275 207.5468 L 289.1828 208.4279 L 289.3841 209.7758 L 289.2252 210.8434 L 289.3629 212.5903 L 290.025 214.5547 L 289.5377 215.0914 L 289.6224 215.6975 L 290.3057 216.2085 L 290.7718 216.1262 L 291.4657 217.0313 L 291.8683 216.6849 L 293.0282 216.8538 L 293.0759 215.8404 L 294.1617 214.2906 L 295.5283 214.3512 L 295.8355 213.8968 L 297.9277 213.9964 L 299.0559 213.5204 L 299.6438 213.9141 L 301.3176 213.2262 L 301.7254 213.4512 L 302.949 212.7806 L 305.0677 212.4908 L 306.2224 212.7157 L 306.9427 211.7989 L 308.5582 211.3794 L 309.2044 211.5697 L 309.5169 212.2573 L 310.322 212.1491 L 311.9269 212.3784 L 314.2627 210.9514 L 315.1367 211.7643 L 314.6282 213.3993 L 314.7977 214.0397 L 315.8888 214.784 L 316.2066 215.7018 L 316.9376 216.6935 L 316.535 220.967 L 316.3285 221.9778 L 317.2236 222.3249 L 318.2247 222.3119 L 319.39 223.1755 L 320.3169 223.2667 L 321.2756 222.8327 L 325.1899 222.3423 L 334.1148 221.9518 L 334.7292 222.4768 L 337.5206 224.4041 L 339.1467 224.4041 L 339.1308 226.1936 L 335.5344 226.4195 L 334.9994 226.9931 L 335.6032 228.6145 L 336.4189 229.4451 L 338.7336 230.6631 L 341.3078 230.9808 L 341.9805 230.5631 L 351.9807 229.045 L 353.7127 229.2363 L 354.8515 228.9276 L 356.7265 234.4639 L 359.412 242.6297 L 359.931 243.451 L 360.0211 246.2659 L 360.7361 246.7207 L 361.7425 245.9029 L 362.6535 245.8111 L 363.4851 245.4001 L 364.8358 245.1247 L 366.4725 245.0242 L 367.1557 245.2209 L 369.1526 245.1991 L 370.7469 244.845 L 371.4726 243.936 L 372.0658 243.6913 L 374.3699 243.2675 L 374.6453 243.499 L 375.7947 243.4466 L 376.2502 244.0277 L 376.6951 243.7656 L 377.5797 244.4691 L 379.1793 243.8442 L 379.7831 244.9062 L 380.6994 245.1116 L 381.4516 245.7805 L 381.3297 246.1085 L 381.8488 247.5255 L 382.6592 247.5736 L 383.6391 248.7901 L 385.4347 248.0899 L 386.0862 248.5406 L 386.9284 248.3131 L 387.8023 248.8382 L 388.4327 248.8732 L 388.9623 248.3918 L 389.492 248.4181 L 389.9475 249.2496 L 391.0121 248.2605 L 391.4359 248.3218 L 391.9285 249.1139 L 392.5694 248.3174 L 393.0037 248.2343 L 394.3173 246.9787 L 394.9105 247.1974 L 395.5355 246.7688 L 395.9381 246.0429 L 396.6584 246.0735 L 397.0451 244.9805 L 398.0038 244.5696 L 398.6447 245.5007 L 399.8735 246.0472 L 400.3344 246.4758 L 401.3778 246.7557 L 401.8598 246.5108 L 402.3259 247.0575 L 402.9245 249.5604 L 404.2274 249.3153 L 405.4351 250.7075 L 405.5887 251.5922 L 406.6216 252.0522 L 407.0612 252.7313 L 407.8027 252.8891 L 409.0051 254.0418 L 409.6725 254.375 L 409.9638 253.7131 L 410.8695 253.7174 L 411.3145 254.0374 L 412.5963 254.3049 L 414.3495 255.3485 L 414.7626 255.3967 L 414.9427 254.5109 L 415.7478 254.6074 L 416.1292 255.537 L 417.7076 254.8441 L 417.3421 253.9278 L 418.4385 251.2112 L 419.8157 249.8668 L 420.5095 249.6742 L 422.5753 249.8493 L 424.5562 250.528 L 429.0955 251.8989 L 429.0373 250.6287 L 428.7406 248.987 L 428.2374 248.5581 L 427.8084 247.1974 L 427.8614 246.4539 L 429.0426 245.0723 L 429.5669 244.0714 L 430.1602 243.6214 L 430.4833 242.0227 L 429.1326 240.966 L 429.5828 240.3156 L 430.2502 240.3898 L 430.6369 239.9752 L 432.8297 240.0756 L 433.2958 239.8181 L 433.4759 239.0632 L 432.4007 237.9989 L 432.9091 237.3753 L 433.6295 237.2183 L 433.2746 235.6055 L 434.9696 235.9759 L 435.9442 236.7823 L 436.6645 236.7823 L 437.5226 237.4843 L 438.6561 237.7677 L 441.7388 236.1851 L 441.458 233.6232 L 441.7865 232.8089 L 441.3468 232.2604 L 440.5735 232.2299 L 440.2239 231.5204 L 440.6265 230.302 L 440.6742 229.2407 L 439.9485 229.0015 L 439.53 227.6233 L 439.7207 225.7983 L 439.4029 224.2608 L 439.7048 223.666 L 438.8362 223.5792 L 438.0152 222.6677 L 438.2853 221.3184 L 437.9569 220.6158 L 438.2694 219.0289 L 438.815 217.9628 L 438.5608 216.8971 L 438.9315 215.2862 L 438.9527 214.4768 L 440.314 212.5773 L 439.8585 212.1448 L 439.3976 210.9947 L 438.7302 210.1388 L 440.4941 209.711 L 441.4687 209.7369 L 441.8818 210.1734 L 444.4931 210.0697 L 445.2187 210.2901 L 447.0726 210.3679 L 449.6521 211.5394 L 450.9922 211.4356 L 451.7443 212.5038 L 452.9095 212.3697 L 453.9371 213.2608 L 453.7199 211.2022 L 452.7083 208.3285 L 452.936 206.0574 L 452.7718 204.9786 L 453.8153 203.7104 L 454.6098 203.5034 L 455.3672 202.5979 L 455.4732 201.167 L 455.4626 198.2942 L 456.7656 195.4586 L 457.9732 194.7964 L 458.3652 194.3621 L 458.8631 192.6816 L 459.9542 191.4959 L 461.1565 191.4358 L 461.8133 189.4049 L 462.5813 188.6281 L 465.341 189.3362 L 466.7446 189.1345 L 467.6079 188.0532 L 467.6662 187.9931 L 467.6026 187.9416 L 467.7404 187.7743 L 467.8304 187.8558 L 471.448 185.0259 L 472.0254 183.8175 L 473.286 182.9822 L 471.7553 180.619 L 471.983 180.2253 L 473.4502 179.2414 L 472.4332 178.8863 L 473.0794 177.8686 L 474.4248 177.5437 L 474.499 176.2871 L 474.3136 175.5736 L 477.5181 176.7871 L 481.872 177.1675 L 482.9366 177.4667 L 484.3032 177.3983 L 484.9759 177.0393 L 485.8869 177.4881 L 486.6443 177.471 L 487.6401 176.8897 L 488.3552 177.7104 L 488.3657 179.1815 L 489.102 179.4681 L 489.0596 180.1825 L 487.9526 181.4108 L 488.1645 182.4341 L 487.0416 183.1792 L 483.7788 185.0516 L 483.9589 186.0803 L 485.442 187.1652 L 485.6644 188.0574 L 484.9335 188.9028 L 484.6263 190.066 L 484.2714 190.4738 L 483.8265 191.5088 L 482.9578 194.13 L 484.0013 195.2909 L 485.1083 195.5963 L 485.2831 196.5082 L 485.5426 194.934 L 486.3212 193.7861 L 490.0607 196.7104 L 489.441 197.7002 L 488.9537 197.9757 L 489.3086 198.531 L 490.1772 198.4148 L 491.03 197.9068 L 490.7228 198.8281 L 492.084 199.5214 L 493.6413 199.8703 L 495.2621 200.805 L 495.8447 201.4773 L 496.6233 201.8824 L 498.1647 203.1498 L 499.4094 203.8484 L 500.3098 204.7111 L 500.776 204.4609 L 501.4592 205.0433 L 501.6022 204.3531 L 503.8428 204.4307 L 504.1553 205.1986 L 505.3894 205.7424 L 506.131 206.3811 L 506.5759 207.5727 L 507.238 207.1453 L 508.525 207.4346 L 509.1977 208.0823 L 509.2719 209.7153 L 510.4213 210.865 L 510.3312 211.293 L 511.327 209.8233 L 511.5389 208.9203 L 511.0622 206.7955 L 511.3323 206.4545 L 513.7105 206.2258 L 514.1078 205.751 L 514.4998 204.3272 L 514.5951 203.2749 L 512.916 200.2579 L 512.2592 198.9228 L 510.559 198.1909 L 509.0018 196.9729 L 508.059 196.5211 L 507.7835 195.8027 L 506.9837 194.762 L 506.454 193.3477 L 506.7189 192.3851 L 506.364 191.8181 L 505.4424 191.5389 L 503.9116 191.9727 L 502.8999 193.0339 L 502.6245 193.7689 L 500.4899 193.0726 L 498.6785 193.1586 L 498.3024 191.6505 L 498.9539 189.5208 L 500.7918 189.993 L 502.9953 190.0144 L 502.9953 188.4393 L 503.3343 184.683 L 504.2082 182.7767 L 505.4953 181.8603 L 506.8672 182.0273 L 507.3227 182.5797 L 508.3079 182.6781 L 509.1871 184.1259 L 510.8768 183.7961 L 511.3005 182.8966 L 512.0633 181.9631 L 512.6406 182.5497 L 514.9977 182.1301 L 516.2318 181.3081 L 519.378 180.8501 Z M 467.8304 187.8558 L 467.7404 187.7743 L 467.6026 187.9416 L 467.6662 187.9931 L 467.8304 187.8558 Z" fill="[object Object]" fill-opacity="1" stroke="dodgerblue" stroke-width="1" paint-order="fill" stroke-opacity="1" stroke-dasharray="" stroke-linecap="butt" stroke-miterlimit="10" style="filter: url(&quot;#zr2323-shadow-1&quot;);">
</path>
<path d="M 755.4897 361.4128 L 757.7249 362.6903 L 759.4357 363.9592 L 760.2885 364.8658 L 761.03 366.249 L 763.0799 367.973 L 763.1064 368.2725 L 765.1138 370.0475 L 765.2515 371.151 L 765.5111 370.5697 L 766.5492 371.1011 L 767.5132 369.9567 L 768.9592 370.765 L 769.5472 368.8853 L 769.8544 369.2484 L 770.9932 369.0759 L 771.7294 369.6661 L 771.6764 368.7082 L 772.8258 368.8761 L 774.1818 370.1428 L 774.8227 370.052 L 775.8396 370.4743 L 776.5335 369.6388 L 777.1267 369.5707 L 778.0378 370.2927 L 779.0442 370.2654 L 778.9382 371.3146 L 779.6215 371.3873 L 779.7433 370.5197 L 780.5749 369.7478 L 780.988 369.8658 L 781.8832 371.2373 L 782.5982 371.0784 L 782.3493 370.4153 L 782.773 370.2155 L 782.6565 371.2827 L 783.4034 371.2918 L 784.0072 372.0641 L 783.9648 372.6003 L 784.9394 372.782 L 785.3737 372.4821 L 786.0888 372.9139 L 785.7657 373.6638 L 786.3165 375.2141 L 786.7774 375.9827 L 787.2594 375.9736 L 787.503 376.6469 L 787.27 377.1337 L 787.5507 377.7844 L 789.5634 378.8358 L 790.3103 379.464 L 790.7605 379.3365 L 791.5232 380.1698 L 792.6196 379.9376 L 793.7055 380.2746 L 793.7319 379.719 L 794.5 379.9467 L 794.1504 380.648 L 794.8072 380.8075 L 797.3496 380.2791 L 798.8433 379.1453 L 799.7808 379.0725 L 801.4228 378.0665 L 802.0425 378.0028 L 803.319 378.8722 L 803.1177 379.2819 L 803.515 380.1744 L 804.4631 379.6325 L 805.4165 379.6507 L 806.9472 378.2577 L 807.1856 378.8995 L 808.7163 379.0316 L 808.8117 379.2592 L 810.3001 379.4231 L 811.5607 379.373 L 812.7578 378.763 L 813.3563 378.1166 L 814.1561 378.681 L 815.1942 377.9073 L 815.6815 376.9198 L 815.5332 375.8508 L 816.19 373.1729 L 815.8139 372.1187 L 815.7186 370.6424 L 815.3743 369.5389 L 816.0152 368.0592 L 815.7822 367.2061 L 814.1349 365.9723 L 814.0131 365.4372 L 813.2345 365.1062 L 812.6995 362.7084 L 812.9325 361.8747 L 812.4982 360.344 L 813.0438 359.0401 L 812.5988 358.1531 L 812.7524 357.8047 L 812.8478 355.6788 L 812.7419 355.0096 L 811.9314 353.6039 L 811.9791 353.0526 L 812.5512 352.1717 L 813.9866 351.4896 L 814.1879 350.6994 L 814.9824 350.2163 L 816.2748 350.4782 L 817.011 350.1215 L 817.1805 348.3568 L 818.0492 347.1838 L 817.8532 345.7182 L 818.1233 344.2667 L 818.6583 343.361 L 818.3458 343.0456 L 818.8172 342.1087 L 818.51 341.1585 L 817.2864 338.8315 L 816.672 337.1311 L 816.9633 336.2768 L 816.5449 334.6721 L 816.529 332.6055 L 816.8415 331.5009 L 815.7981 329.3779 L 814.9771 329.4812 L 813.976 329.1761 L 813.0173 328.4852 L 812.2916 327.6286 L 812.4241 328.8755 L 811.8467 329.8626 L 811.4812 329.5709 L 810.6338 329.8087 L 809.3202 328.7409 L 808.7958 328.8486 L 808.9759 328.2699 L 808.4409 326.2924 L 807.5935 325.6784 L 807.4081 324.4909 L 806.7936 323.9891 L 805.8402 323.8951 L 805.0722 324.2266 L 804.516 323.6173 L 804.2618 324.4013 L 803.7163 323.4651 L 802.7787 323.4516 L 802.3974 322.359 L 802.9853 320.8818 L 802.1749 320.922 L 801.6717 322.6411 L 801.0679 323.7786 L 800.3475 323.8279 L 800.2734 323.2187 L 799.516 322.7933 L 798.7797 322.762 L 798.8433 322.0187 L 798.3983 321.5576 L 797.7839 322.5336 L 796.8093 321.9381 L 795.8612 320.6446 L 796.4968 320.1792 L 796.5286 319.2084 L 795.9301 318.6269 L 795.3263 318.9668 L 795.3104 319.9644 L 794.9661 319.356 L 793.7478 319.7049 L 793.8644 318.1216 L 793.5889 317.4196 L 793.001 316.9949 L 792.7785 315.7346 L 791.9522 315.8686 L 791.4596 315.0242 L 790.1672 314.2156 L 789.9607 314.5908 L 788.2763 313.894 L 787.5348 313.126 L 786.3801 313.3492 L 785.2042 312.184 L 784.1396 312.7778 L 782.9478 312.4742 L 782.4764 312.0144 L 780.898 312.3536 L 780.522 311.2691 L 780.6861 310.689 L 778.8853 308.9093 L 777.8895 309.3017 L 775.2464 309.0431 L 774.1924 308.1691 L 773.5091 308.7131 L 772.9794 308.0221 L 773.2707 307.0325 L 772.7199 305.2904 L 772.8364 304.7871 L 772.4815 303.153 L 772.6828 302.5655 L 772.116 300.6701 L 771.5016 300.3765 L 771.0408 300.8124 L 770.7866 300.3543 L 769.2611 298.7713 L 767.7621 299.1492 L 766.5227 299.9762 L 765.956 299.3893 L 765.421 299.6072 L 764.4146 298.8869 L 764.4411 299.9807 L 762.9315 300.3232 L 762.1582 300.0474 L 761.8881 299.4071 L 760.3732 298.4335 L 759.9071 298.8691 L 760.6222 299.2514 L 760.5745 300.2075 L 759.9071 300.7145 L 759.2503 299.9629 L 758.8584 300.0563 L 756.3318 298.1179 L 755.8922 299.2559 L 756.0882 299.6561 L 755.5479 300.5544 L 754.5892 300.2609 L 754.6422 299.7228 L 753.71 299.8784 L 753.3233 299.3582 L 752.7407 300.1675 L 752.4494 299.5227 L 751.782 299.8295 L 751.0298 299.1314 L 750.6538 299.456 L 751.157 300.8302 L 751.9568 302.156 L 752.1633 303.5002 L 752.6453 304.2394 L 751.8296 304.4442 L 751.9938 304.943 L 751.8826 306.5601 L 751.2258 306.7161 L 750.336 306.2972 L 750.3466 307.5317 L 749.8328 307.7724 L 749.854 307.2286 L 748.5563 305.6334 L 749.0277 306.9835 L 748.837 307.4381 L 750.5478 308.4946 L 750.8074 309.1011 L 750.5055 309.6452 L 750.7915 310.2161 L 751.3582 309.6006 L 751.7343 310.5462 L 751.3476 310.9166 L 751.8402 311.278 L 751.7979 312.1215 L 752.3752 312.742 L 751.8349 313.4698 L 751.7608 314.8186 L 751.3741 315.6452 L 751.5277 316.8966 L 750.855 316.5971 L 750.3201 315.7613 L 749.6898 315.8775 L 749.605 316.4362 L 748.9906 316.2708 L 747.7141 317.2273 L 748.2437 318.3362 L 746.9567 318.5151 L 747.0891 320.215 L 746.9673 320.9757 L 746.231 321.3338 L 745.4577 321.1413 L 745.4471 322.1799 L 746.3211 323.0575 L 745.6219 323.1784 L 745.9291 323.5636 L 745.4683 324.0608 L 743.9322 323.3217 L 743.7627 324.0922 L 742.857 323.1784 L 743.1006 324.4192 L 744.0647 324.5312 L 745.7543 326.6197 L 746.4535 326.7138 L 746.7236 327.3505 L 747.0785 326.7676 L 747.8359 327.3505 L 747.8889 328.4134 L 747.3592 329.0415 L 747.4016 330.2081 L 746.999 329.8671 L 746.8772 330.823 L 747.3751 330.7736 L 748.122 331.263 L 748.0637 332.0172 L 747.5817 331.7523 L 747.4545 333.9352 L 747.1632 334.5597 L 747.5658 335.0002 L 747.587 335.7553 L 746.6071 334.4609 L 746.3052 334.8833 L 747.4016 336.6185 L 747.7194 336.3622 L 748.5827 337.1446 L 749.0701 336.8523 L 749.1866 335.4946 L 749.9758 335.6744 L 750.2989 336.4342 L 750.675 335.3417 L 750.8392 336.3128 L 752.2746 336.9378 L 753.2439 336.3038 L 753.6782 337.6124 L 754.2555 338.0892 L 754.8753 337.8598 L 755.7757 338.8226 L 756.8033 338.4716 L 757.227 338.9935 L 757.852 338.8135 L 758.048 338.2062 L 758.2916 339.187 L 758.62 339.142 L 759.3828 340.4652 L 760.1296 340.7894 L 760.5904 341.4557 L 760.4156 342.2123 L 760.7864 342.5366 L 761.1677 342.1177 L 761.0194 343.0862 L 761.4855 342.6402 L 761.6127 343.7981 L 762.0523 344.1451 L 762.1106 344.8436 L 761.5014 345.2944 L 761.5597 346.6652 L 761.1783 346.8456 L 761.1148 347.6124 L 761.8457 347.9011 L 761.618 348.7719 L 760.7599 349.7694 L 759.923 349.5527 L 760.2726 350.5278 L 760.8023 350.6633 L 761.4326 350.117 L 761.6391 350.6723 L 761.0035 351.2774 L 760.6063 351.02 L 760.3627 351.86 L 759.7376 351.6522 L 758.5777 352.9442 L 759.3192 353.3463 L 759.4728 354.4446 L 760.1879 355.5432 L 760.5533 355.3758 L 761.0406 356.2169 L 760.9082 356.5742 L 760.1137 356.3526 L 760.654 357.0944 L 760.4792 358.1124 L 760.1137 358.4563 L 759.7111 357.9359 L 759.1709 357.9269 L 759.1232 359.3661 L 757.852 359.0809 L 757.5395 359.3299 L 757.4865 360.276 L 757.1581 360.6202 L 756.3848 360.0134 L 755.4367 359.8957 L 755.1613 361.0142 L 755.4897 361.4128 Z" fill="[object Object]" fill-opacity="1" stroke="dodgerblue" stroke-width="1" paint-order="fill" stroke-opacity="1" stroke-dasharray="" stroke-linecap="butt" stroke-miterlimit="10" style="filter: url(&quot;#zr2323-shadow-1&quot;);">
</path>
<path d="M 719.3767 385.2147 L 719.6945 384.9365 L 719.3873 383.7602 L 718.6881 383.3727 L 718.6086 381.8916 L 718.3756 381.5955 L 717.2792 382.2789 L 716.384 380.1015 L 716.5005 378.9906 L 716.8236 378.5763 L 715.955 377.7753 L 716.2092 376.4694 L 715.1234 375.7462 L 714.562 374.5093 L 714.1806 374.4729 L 714.1647 376.0373 L 713.4867 376.342 L 712.9676 375.105 L 712.5651 374.8321 L 712.5333 374.0456 L 711.8076 373.6547 L 711.4528 372.8957 L 711.1403 371.4327 L 709.9008 370.2927 L 709.0693 370.4017 L 708.5396 369.6479 L 707.5067 370.7332 L 706.262 370.4062 L 704.3922 372.1686 L 703.1052 371.8552 L 702.5384 372.2368 L 702.7185 373.1047 L 701.4314 373.1729 L 701.0129 371.6098 L 700.1655 371.8642 L 698.7354 371.5508 L 698.6188 370.8967 L 697.9303 370.6787 L 697.6496 370.0929 L 696.9928 370.0248 L 696.5637 369.1031 L 696.6908 367.737 L 697.1993 367.5827 L 697.2682 366.5484 L 697.6601 364.9837 L 698.2957 363.8368 L 698.2587 361.0187 L 698.0892 360.3168 L 696.6961 359.3842 L 695.2289 358.1395 L 694.98 357.0039 L 694.3497 356.5471 L 694.3815 355.3216 L 693.9895 354.3542 L 692.4905 353.8796 L 692.623 353.3599 L 691.2511 352.9487 L 691.2617 351.6568 L 690.25 351.0381 L 689.9216 350.1666 L 689.3231 350.2705 L 688.2743 348.6636 L 687.2892 348.244 L 687.3633 347.6304 L 688.2479 347.1026 L 688.3962 346.6381 L 687.8347 346.3044 L 686.8601 346.5614 L 686.3887 346.1601 L 685.2976 346.823 L 684.5508 346.8861 L 683.5974 347.4635 L 682.5698 347.2244 L 682.0507 347.2019 L 682.0242 348.3658 L 680.6418 349.1826 L 680.1598 351.7109 L 680.7 352.5556 L 680.8961 353.4593 L 680.5782 353.9338 L 680.0062 353.8977 L 679.2699 356.339 L 679.3494 356.9813 L 678.8197 358.126 L 678.343 358.1576 L 677.9352 359.2619 L 677.0877 359.6377 L 676.6216 360.8058 L 676.6481 362.4184 L 677.1089 362.8216 L 676.272 363.4787 L 676.4097 365.2694 L 675.7582 365.7954 L 675.504 366.5937 L 673.666 366.2717 L 672.7815 365.3918 L 672.9351 364.7389 L 671.9764 363.2159 L 671.1819 363.8368 L 670.8694 364.5485 L 669.9583 363.7008 L 669.6564 363.7915 L 669.3651 362.8624 L 668.56 362.5543 L 668.0939 361.6347 L 667.6701 361.5079 L 667.008 360.4481 L 666.3089 360.3394 L 665.758 359.4928 L 665.2019 359.5109 L 664.8258 359.0175 L 663.7823 358.5604 L 663.1838 357.8002 L 662.008 356.9451 L 661.4889 357.8002 L 661.5101 356.5516 L 661.1181 356.0315 L 661.1128 354.9192 L 659.8787 354.9509 L 659.7727 354.4581 L 659.2537 354.6434 L 659.1424 352.5692 L 658.8511 352.8222 L 657.1456 351.9775 L 656.7536 351.2322 L 655.4083 351.7922 L 654.8521 351.0561 L 654.2112 350.9026 L 653.3055 352 L 652.0978 351.9278 L 651.5628 350.5143 L 650.4982 350.6407 L 650.1645 351.2322 L 649.4442 351.6612 L 649.2641 353.1927 L 650.7154 354.4898 L 651.7482 356.5833 L 652.2832 356.4114 L 653.1624 357.5378 L 653.2949 358.574 L 654.1317 358.7233 L 654.7462 360.1719 L 656.4941 362.2009 L 657.3151 362.7945 L 659.4285 365.3918 L 659.6827 366.884 L 660.2706 368.1863 L 660.9062 368.7581 L 660.9698 369.3664 L 661.6637 369.7432 L 661.6584 370.6378 L 660.8109 371.4463 L 660.6467 372.0323 L 659.9211 372.4594 L 660.2865 372.9956 L 660.3607 374.132 L 659.2801 374.5139 L 659.1636 375.8326 L 657.9719 377.7389 L 657.6964 379.2455 L 656.6583 380.9395 L 656.3458 381.7459 L 656.3987 382.7893 L 657.3521 383.0218 L 657.2038 385.4792 L 658.2367 386.2638 L 657.813 386.8934 L 658.2526 387.4135 L 657.9083 388.4267 L 658.0778 389.2941 L 658.5492 390.0065 L 659.4602 390.5591 L 659.4073 391.1118 L 660.4454 391.5275 L 661.0334 392.1763 L 661.8649 391.7834 L 663.5016 392.5602 L 664.5292 393.9818 L 664.847 393.3921 L 665.7633 393.5246 L 665.8692 393.8995 L 666.9498 393.9543 L 667.1776 394.8048 L 666.7326 395.1021 L 667.257 395.8247 L 667.061 396.7305 L 665.2284 398.1034 L 666.2983 399.5226 L 666.346 400.3836 L 667.1511 400.9378 L 666.526 402.6469 L 666.0229 402.5186 L 665.1966 402.931 L 663.4328 402.239 L 662.5323 402.1244 L 661.6213 402.5002 L 660.9857 403.4398 L 661.9391 404.9208 L 661.5365 406.696 L 661.2505 406.9851 L 661.0281 408.2747 L 661.1817 409.5372 L 660.8215 410.8369 L 659.2272 411.2182 L 658.8882 411.7879 L 659.7357 413.1161 L 660.2389 413.5022 L 660.0588 414.0401 L 660.2706 416.0498 L 659.9952 416.7307 L 658.4168 418.3322 L 657.7494 420.045 L 656.6212 420.7727 L 656.4252 421.413 L 656.7377 422.2562 L 658.1308 421.9567 L 659.0365 422.5742 L 659.6721 422.6894 L 660.6096 422.2286 L 661.1075 422.5557 L 662.4794 422.8277 L 663.9254 425.1466 L 664.3332 426.0091 L 666.0811 427.384 L 667.3047 428.8703 L 668.3269 427.8132 L 668.5441 426.6827 L 669.7941 425.9861 L 671.3408 426.0322 L 671.738 425.285 L 671.6321 423.685 L 670.8058 422.7401 L 670.1278 420.4227 L 671.1872 419.7365 L 671.2083 419.2299 L 672.9351 418.1804 L 675.1014 419.322 L 675.6629 418.1297 L 677.0135 418.1159 L 677.8239 418.4197 L 678.2371 419.8378 L 679.5189 419.7411 L 679.8897 420.0819 L 680.5253 421.5005 L 680.7742 422.6664 L 680.4511 423.201 L 681.002 424.4734 L 681.6588 424.9484 L 682.9088 425.3865 L 683.4437 426.1014 L 683.7457 424.8884 L 684.2436 425.5525 L 684.8474 425.6632 L 686.5529 424.2244 L 687.9036 424.6071 L 688.6928 423.662 L 689.6674 423.4499 L 690.3507 424.2936 L 691.5848 424.0261 L 691.9026 423.4683 L 692.7183 423.3531 L 692.9514 422.4498 L 693.6823 422.2193 L 694.302 421.3439 L 693.9683 420.5378 L 694.0478 419.5569 L 693.6929 418.4934 L 694.0954 417.9962 L 695.3561 418.056 L 696.7279 417.697 L 697.6389 417.8581 L 698.4652 417.2737 L 698.1951 416.8595 L 698.3699 416.0038 L 697.6496 415.5025 L 696.0764 415.4381 L 695.0277 416.1188 L 693.481 415.1391 L 691.9821 415.7324 L 692.0297 413.5574 L 691.7119 413.3505 L 690.5837 413.9619 L 690.7638 411.6088 L 690.2659 410.396 L 689.5456 411.0069 L 688.8888 410.8645 L 688.0996 409.5235 L 688.7246 407.6964 L 688.5657 407.2512 L 689.0053 405.3015 L 687.2786 406.0675 L 685.6419 406.15 L 685.8379 405.0721 L 685.4406 404.1871 L 685.8379 403.7332 L 685.0487 403.2519 L 685.5201 403.041 L 685.9915 402.1932 L 685.2923 401.2676 L 685.2764 400.4019 L 685.7002 399.6646 L 685.7478 398.1767 L 686.4364 397.0691 L 687.6547 396.7351 L 688.9311 397.2842 L 689.9534 397.1744 L 690.3454 397.5725 L 690.8909 397.1744 L 692.0721 396.8632 L 693.8783 397.0142 L 694.7999 397.4352 L 695.3561 397.1606 L 695.8063 395.3719 L 695.4514 394.4801 L 696.1665 393.3829 L 696.5796 393.9726 L 697.7978 393.2458 L 697.7555 393.7943 L 698.9313 393.8309 L 698.979 394.3018 L 699.8689 394.4435 L 701.0129 393.6663 L 701.1083 393.1406 L 700.6051 392.0073 L 701.7174 392.5602 L 702.9463 392.7841 L 704.1645 392.5511 L 704.9855 393.1726 L 704.9643 393.9223 L 705.7694 394.1555 L 706.9612 392.7521 L 707.1307 392.0986 L 706.8023 390.8149 L 707.1942 390.0111 L 707.655 389.7781 L 708.1105 390.9337 L 708.4019 390.381 L 708.3436 389.212 L 709.1222 389.5726 L 709.6095 389.0978 L 710.1922 389.1435 L 711.0131 388.1209 L 711.3945 388.4267 L 711.5534 387.3679 L 712.0248 387.8014 L 712.3215 386.2957 L 713.492 385.5841 L 714.4136 387.2082 L 715.081 387.5367 L 715.6848 388.4952 L 716.2463 388.1027 L 716.8395 385.7209 L 716.0503 385.242 L 716.1775 384.6401 L 716.7919 384.2662 L 716.7813 383.3727 L 717.2421 383.4046 L 718.4285 384.631 L 719.3767 385.2147 Z" fill="[object Object]" fill-opacity="1" stroke="dodgerblue" stroke-width="1" paint-order="fill" stroke-opacity="1" stroke-dasharray="" stroke-linecap="butt" stroke-miterlimit="10" style="filter: url(&quot;#zr2323-shadow-1&quot;);">
</path>
<path d="M 747.0626 423.9293 L 747.0626 425.6724 L 746.4429 426.595 L 746.3528 427.6794 L 745.7596 428.5148 L 744.107 429.6228 L 742.8199 430.0199 L 741.9618 429.6228 L 741.6652 428.284 L 742.2214 426.6273 L 741.7553 425.5848 L 741.5434 424.418 L 740.198 424.6348 L 739.8326 425.4372 L 740.0338 426.1106 L 739.7002 427.3979 L 738.9904 427.7763 L 739.0592 428.6579 L 738.5137 429.2673 L 737.2107 429.5951 L 735.8865 428.9995 L 735.5952 429.4612 L 734.8695 429.5536 L 734.3293 428.9487 L 733.7308 428.9764 L 733.3971 428.0348 L 732.4119 427.5133 L 731.6491 427.4994 L 730.1555 428.0578 L 729.2974 428.1409 L 727.9415 429.2258 L 726.7073 428.9626 L 726.5802 427.7486 L 725.0971 427.9979 L 724.0219 429.2026 L 723.72 428.464 L 723.667 427.2687 L 722.6765 426.7427 L 722.1257 426.8534 L 721.9562 427.5086 L 721.5218 427.3702 L 720.3248 428.1225 L 719.8057 429.2258 L 719.4561 430.8559 L 718.6351 430.8513 L 718.9106 430.2093 L 718.0366 429.7936 L 717.8671 430.7173 L 716.9561 430.6342 L 716.6012 429.4566 L 716.9402 428.441 L 716.4476 427.7717 L 716.6859 425.8523 L 716.1987 423.6343 L 716.6754 423.2287 L 715.8808 422.5742 L 715.7855 422.0857 L 716.4211 421.7816 L 716.776 421.1274 L 716.3999 420.5793 L 715.6372 421.2057 L 714.9486 420.1786 L 714.6361 419.1701 L 713.6139 417.4669 L 711.9295 416.2016 L 711.1773 416.7353 L 710.0757 415.7508 L 708.8044 415.2771 L 708.8203 415.7922 L 708.1582 415.8704 L 708.1265 415.4104 L 707.1466 414.8218 L 706.9506 412.8035 L 706.5056 412.2612 L 706.6169 411.5674 L 706.0925 411.3699 L 705.3986 411.9763 L 703.9262 411.6133 L 702.8774 412.4313 L 702.2418 414.4769 L 701.442 414.4953 L 700.9441 415.3001 L 699.9854 416.0958 L 699.1485 416.2246 L 698.3699 416.0038 L 698.1951 416.8595 L 698.4652 417.2737 L 697.6389 417.8581 L 696.7279 417.697 L 695.3561 418.056 L 694.0954 417.9962 L 693.6929 418.4934 L 694.0478 419.5569 L 693.9683 420.5378 L 694.302 421.3439 L 693.6823 422.2193 L 692.9514 422.4498 L 692.7183 423.3531 L 691.9026 423.4683 L 691.5848 424.0261 L 690.3507 424.2936 L 689.6674 423.4499 L 688.6928 423.662 L 687.9036 424.6071 L 686.5529 424.2244 L 684.8474 425.6632 L 684.2436 425.5525 L 683.7457 424.8884 L 683.4437 426.1014 L 682.9088 425.3865 L 681.6588 424.9484 L 681.002 424.4734 L 680.4511 423.201 L 680.7742 422.6664 L 680.5253 421.5005 L 679.8897 420.0819 L 679.5189 419.7411 L 678.2371 419.8378 L 677.8239 418.4197 L 677.0135 418.1159 L 675.6629 418.1297 L 675.1014 419.322 L 672.9351 418.1804 L 671.2083 419.2299 L 671.1872 419.7365 L 670.1278 420.4227 L 670.8058 422.7401 L 671.6321 423.685 L 671.738 425.285 L 671.3408 426.0322 L 669.7941 425.9861 L 668.5441 426.6827 L 668.3269 427.8132 L 667.3047 428.8703 L 667.2358 430.6942 L 667.5483 431.9138 L 668.4593 432.4636 L 668.8937 433.3834 L 672.6755 436.5555 L 674.4076 437.6891 L 677.0771 440.0685 L 677.4373 440.6659 L 678.8356 440.9207 L 679.6672 441.3051 L 680.8113 442.6765 L 680.9384 443.608 L 681.5528 444.2338 L 683.555 444.5722 L 683.4861 445.5228 L 682.2308 447.0628 L 682.109 447.6984 L 682.8505 448.3434 L 683.02 449.0768 L 682.5963 449.0165 L 682.7287 449.801 L 684.1217 449.7546 L 683.2425 451.1012 L 683.9311 452.0116 L 684.3548 451.6725 L 684.8156 452.6249 L 685.1705 452.6574 L 685.2711 454.4235 L 684.8845 454.3538 L 685.2552 455.2185 L 685.9491 455.8044 L 687.6335 456.6694 L 689 457.7627 L 688.9576 458.5212 L 689.4873 459.5637 L 690.017 459.8803 L 689.4608 460.1922 L 689.5297 462.5628 L 689.9799 463.3082 L 690.9439 464.2076 L 689.9005 464.5665 L 688.2214 464.45 L 687.7712 464.7203 L 687.2839 465.8766 L 687.0667 467.1917 L 686.6801 467.7048 L 684.7361 467.9428 L 683.8145 467.7048 L 683.5921 466.6553 L 683.8463 465.6714 L 682.591 462.7957 L 682.1513 463.2803 L 681.4893 463.0985 L 680.52 463.5505 L 679.1058 464.0818 L 679.7202 465.3404 L 678.8568 464.6131 L 677.6703 464.5246 L 677.2519 463.9373 L 676.1714 464.4407 L 677.0189 466.5807 L 676.9977 467.8261 L 677.7286 470.631 L 678.5973 472.7838 L 678.0464 473.209 L 678.253 473.7509 L 677.2943 475.8448 L 678.0252 476.2656 L 679.0369 475.9664 L 679.9956 476.4479 L 680.1598 477.0278 L 678.7827 477.7387 L 678.6184 479.5119 L 677.6756 480.0594 L 676.272 479.5821 L 675.6311 480.1203 L 675.3345 482.302 L 675.7212 483.0841 L 675.8959 484.5786 L 677.0559 485.0566 L 678.0146 485.0847 L 680.0274 487.4662 L 680.8537 487.771 L 681.2244 488.3385 L 682.8823 488.0852 L 683.412 489.2063 L 684.3336 488.9718 L 685.2288 489.4737 L 685.5042 490.5577 L 686.4205 491.1491 L 687.1409 492.041 L 687.983 492.0504 L 688.9153 491.5762 L 690.25 493.1868 L 691.1558 492.7829 L 692.1198 492.8674 L 692.9249 492.0316 L 693.7353 492.4213 L 694.6357 493.7551 L 694.9005 494.6946 L 696.3889 494.361 L 697.819 493.3277 L 699.2068 493.013 L 699.7047 492.5716 L 701.2937 493.1398 L 701.8498 494.4832 L 702.3106 495 L 704.6995 493.9946 L 705.6794 493.1586 L 705.833 491.8814 L 706.5268 491.7734 L 707.2419 492.4871 L 708.3542 492.2852 L 708.7144 491.6796 L 709.7525 491.3134 L 710.5524 489.9852 L 711.4793 489.8163 L 712.4856 488.9671 L 713.1689 489.0421 L 713.5874 488.1743 L 713.3861 487.5131 L 712.4962 487.2317 L 712.0884 485.5862 L 711.4369 484.691 L 711.5058 483.3277 L 711.0396 482.7937 L 711.9189 482.419 L 712.0884 480.9909 L 712.4909 480.462 L 713.4867 480.3964 L 714.8691 481.2952 L 715.8014 480.9909 L 716.0026 481.3982 L 717.0196 481.5106 L 717.83 482.8078 L 719.3714 482.7 L 719.9646 482.0069 L 721.3523 481.6557 L 722.5176 481.5762 L 724.1384 480.6492 L 725.4785 479.6148 L 726.6014 480.125 L 728.4023 477.7574 L 728.7465 475.7045 L 728.2698 475.1997 L 728.3281 474.6342 L 728.9161 474.1715 L 728.4446 472.9473 L 729.0326 472.5923 L 728.4923 471.7936 L 728.5983 471.1212 L 727.7243 471.336 L 728.6353 470.2668 L 728.3864 469.8233 L 728.736 468.9319 L 729.3133 469.3799 L 729.3557 470.8691 L 730.0496 470.8457 L 729.8642 468.54 L 728.0527 467.1357 L 726.6279 467.3876 L 725.7539 466.66 L 724.3715 466.161 L 724.3291 465.4756 L 723.5505 465.3077 L 722.9149 464.6038 L 723.1532 463.3082 L 722.3057 462.2599 L 721.6596 461.0723 L 722.4329 460.6252 L 722.7666 460.872 L 724.6893 461.1561 L 725.5632 460.9791 L 725.8334 459.7732 L 725.6056 457.8046 L 725.9605 456.3531 L 727.1258 455.1627 L 727.327 454.3863 L 727.9256 453.5032 L 728.4711 453.5636 L 729.5887 452.1696 L 729.8483 451.3334 L 730.4203 451.078 L 731.04 451.4357 L 731.6915 451.1941 L 732.0305 451.7887 L 732.5549 451.1941 L 733.1428 451.4357 L 733.8791 450.8736 L 734.9384 451.51 L 734.5835 452.9177 L 735.6482 452.6946 L 735.7223 453.1268 L 737.1312 453.9215 L 738.7574 453.1639 L 740.0498 451.7469 L 740.8866 451.4263 L 741.9142 452.1743 L 742.4439 452.1649 L 743.5244 451.0919 L 745.0287 450.79 L 745.5318 451.0409 L 745.7225 451.9652 L 745.8285 454.2887 L 746.5223 455.0883 L 747.0626 454.6141 L 748.5775 455.3626 L 749.2872 454.0702 L 749.1813 452.8712 L 749.854 452.6528 L 749.8911 451.1895 L 749.695 450.2467 L 748.3762 447.5082 L 746.6865 446.9839 L 746.8666 444.7901 L 746.5965 443.8166 L 746.0139 443.4319 L 746.2363 442.1204 L 746.9673 441.4997 L 747.0361 440.9948 L 746.4164 439.6796 L 744.928 440.1195 L 744.3666 438.2769 L 745.4577 437.1246 L 746.4746 435.4917 L 746.5594 434.4513 L 746.3317 433.3232 L 747.4281 431.923 L 747.3115 429.8352 L 749.229 429.5766 L 749.9917 427.9148 L 749.6739 427.2964 L 749.1177 424.4503 L 748.2861 423.4038 L 747.6664 424.0354 L 747.0626 423.9293 Z" fill="[object Object]" fill-opacity="1" stroke="dodgerblue" stroke-width="1" paint-order="fill" stroke-opacity="1" stroke-dasharray="" stroke-linecap="butt" stroke-miterlimit="10" style="filter: url(&quot;#zr2323-shadow-1&quot;);">
</path>
<path d="M 625.6937 369.8658 L 625.8632 370.2064 L 628.2149 371.3464 L 629.2743 373.0866 L 629.8569 373.6047 L 630.4448 373.4911 L 631.0381 372.8593 L 631.6631 372.7594 L 632.3781 373.6592 L 632.7118 375.8326 L 632.4629 378.1075 L 632.5741 380.015 L 633.0879 380.3156 L 633.4904 379.9831 L 633.697 379.0179 L 634.6557 378.7812 L 635.9693 379.4322 L 636.6208 379.3365 L 637.2299 380.6116 L 637.7384 381.017 L 639.3751 381.4406 L 640.8582 381.0306 L 642.5055 381.0079 L 642.7544 381.19 L 643.6654 383.3408 L 645.8 385.0733 L 647.2248 385.0414 L 648.8139 385.689 L 649.8361 385.4701 L 649.905 384.6584 L 651.3615 385.1417 L 652.5639 386.2501 L 654.243 387.1717 L 655.1116 388.3355 L 655.922 388.97 L 656.0386 389.6411 L 656.939 389.5133 L 657.6276 390.7601 L 656.6953 390.9519 L 655.9538 391.5367 L 656.4093 391.7788 L 657.6329 391.0478 L 657.7388 392.1581 L 657.082 392.9441 L 656.2398 393.1909 L 655.6519 394.1189 L 656.2081 395.1981 L 656.7854 394.8505 L 658.5174 394.3704 L 660.0323 394.2835 L 660.9963 394.9008 L 661.473 393.2229 L 661.0334 392.1763 L 660.4454 391.5275 L 659.4073 391.1118 L 659.4602 390.5591 L 658.5492 390.0065 L 658.0778 389.2941 L 657.9083 388.4267 L 658.2526 387.4135 L 657.813 386.8934 L 658.2367 386.2638 L 657.2038 385.4792 L 657.3521 383.0218 L 656.3987 382.7893 L 656.3458 381.7459 L 656.6583 380.9395 L 657.6964 379.2455 L 657.9719 377.7389 L 659.1636 375.8326 L 659.2801 374.5139 L 660.3607 374.132 L 660.2865 372.9956 L 659.9211 372.4594 L 660.6467 372.0323 L 660.8109 371.4463 L 661.6584 370.6378 L 661.6637 369.7432 L 660.9698 369.3664 L 660.9062 368.7581 L 660.2706 368.1863 L 659.6827 366.884 L 659.4285 365.3918 L 657.3151 362.7945 L 656.4941 362.2009 L 654.7462 360.1719 L 654.1317 358.7233 L 653.2949 358.574 L 653.1624 357.5378 L 652.2832 356.4114 L 651.7482 356.5833 L 650.7154 354.4898 L 649.2641 353.1927 L 649.4442 351.6612 L 650.1645 351.2322 L 650.4982 350.6407 L 651.5628 350.5143 L 652.0978 351.9278 L 653.3055 352 L 654.2112 350.9026 L 653.9781 349.8506 L 654.4972 348.8532 L 654.1582 348.3342 L 654.5131 347.3417 L 654.137 346.9763 L 653.316 345.0961 L 652.6275 345.3801 L 652.5057 344.1316 L 651.4569 343.5638 L 650.906 343.7079 L 650.0903 343.4196 L 649.6613 343.8521 L 649.4124 343.316 L 648.2047 345.1096 L 647.3043 344.74 L 647.3626 342.7889 L 646.8594 342.5321 L 645.853 342.924 L 645.122 342.6943 L 644.1474 341.5143 L 643.676 341.8385 L 643.0245 341.5413 L 642.4313 341.7709 L 642.3677 341.2126 L 641.4779 340.8344 L 640.5245 340.7489 L 640.1961 340.3167 L 639.391 340.4968 L 639.0626 339.8936 L 638.0085 339.655 L 637.5001 338.5346 L 637.3464 338.9665 L 636.3189 339.169 L 635.6144 339.502 L 634.6345 339.259 L 633.6176 339.7361 L 632.9396 341.5278 L 632.3622 341.5998 L 632.1239 343.5683 L 631.1175 344.2893 L 630.27 344.2577 L 630.662 345.2629 L 631.1122 345.0555 L 631.8379 345.9978 L 633.0296 346.1917 L 632.5211 347.4139 L 633.1144 348.2981 L 632.4099 349.6836 L 632.1557 351.1916 L 632.3569 351.5258 L 632.447 353.6491 L 632.6059 354.0649 L 632.161 355.4301 L 631.2446 354.7746 L 630.3495 354.5937 L 629.2795 354.6977 L 629.1206 354.3587 L 628.2043 354.5485 L 627.039 354.0332 L 625.5242 355.8325 L 624.8091 356.0541 L 624.1523 356.8728 L 623.8663 357.9224 L 624.5814 360.8194 L 625.1958 361.4082 L 625.7413 362.8534 L 626.4087 363.0482 L 626.3664 364.8341 L 626.9172 365.8725 L 627.6111 366.4395 L 627.8389 367.0519 L 626.9649 367.5283 L 625.8155 367.7098 L 625.2752 368.6401 L 626.7001 368.1863 L 627.002 368.4495 L 625.6937 369.8658 Z" fill="[object Object]" fill-opacity="1" stroke="dodgerblue" stroke-width="1" paint-order="fill" stroke-opacity="1" stroke-dasharray="" stroke-linecap="butt" stroke-miterlimit="10" style="filter: url(&quot;#zr2323-shadow-1&quot;);">
</path>
<path d="M 667.3047 428.8703 L 666.0811 427.384 L 664.3332 426.0091 L 663.9254 425.1466 L 662.4794 422.8277 L 661.1075 422.5557 L 660.6096 422.2286 L 659.6721 422.6894 L 659.0365 422.5742 L 658.1308 421.9567 L 656.7377 422.2562 L 656.4252 421.413 L 656.6212 420.7727 L 657.7494 420.045 L 658.4168 418.3322 L 659.9952 416.7307 L 660.2706 416.0498 L 660.0588 414.0401 L 660.2389 413.5022 L 659.7357 413.1161 L 658.8882 411.7879 L 659.2272 411.2182 L 660.8215 410.8369 L 661.1817 409.5372 L 661.0281 408.2747 L 661.2505 406.9851 L 661.5365 406.696 L 661.9391 404.9208 L 660.9857 403.4398 L 661.6213 402.5002 L 662.5323 402.1244 L 663.4328 402.239 L 665.1966 402.931 L 666.0229 402.5186 L 666.526 402.6469 L 667.1511 400.9378 L 666.346 400.3836 L 666.2983 399.5226 L 665.2284 398.1034 L 667.061 396.7305 L 667.257 395.8247 L 666.7326 395.1021 L 667.1776 394.8048 L 666.9498 393.9543 L 665.8692 393.8995 L 665.7633 393.5246 L 664.847 393.3921 L 664.5292 393.9818 L 663.5016 392.5602 L 661.8649 391.7834 L 661.0334 392.1763 L 661.473 393.2229 L 660.9963 394.9008 L 660.0323 394.2835 L 658.5174 394.3704 L 656.7854 394.8505 L 656.2081 395.1981 L 655.6519 394.1189 L 656.2398 393.1909 L 657.082 392.9441 L 657.7388 392.1581 L 657.6329 391.0478 L 656.4093 391.7788 L 655.9538 391.5367 L 656.6953 390.9519 L 657.6276 390.7601 L 656.939 389.5133 L 656.0386 389.6411 L 655.922 388.97 L 655.1116 388.3355 L 654.243 387.1717 L 652.5639 386.2501 L 651.3615 385.1417 L 649.905 384.6584 L 649.8361 385.4701 L 648.8139 385.689 L 647.2248 385.0414 L 645.8 385.0733 L 643.6654 383.3408 L 642.7544 381.19 L 642.5055 381.0079 L 640.8582 381.0306 L 639.3751 381.4406 L 637.7384 381.017 L 637.2299 380.6116 L 636.6208 379.3365 L 635.9693 379.4322 L 634.6557 378.7812 L 633.697 379.0179 L 633.4904 379.9831 L 633.0879 380.3156 L 632.5741 380.015 L 632.4629 378.1075 L 632.7118 375.8326 L 632.3781 373.6592 L 631.6631 372.7594 L 631.0381 372.8593 L 630.4448 373.4911 L 629.8569 373.6047 L 629.2743 373.0866 L 628.2149 371.3464 L 625.8632 370.2064 L 625.6937 369.8658 L 624.1682 368.4314 L 622.2349 368.1772 L 620.1533 367.5873 L 618.8662 366.19 L 617.9552 366.0267 L 618.3101 366.6663 L 617.7804 366.5619 L 617.8069 367.7098 L 617.2878 369.1031 L 616.6681 369.3256 L 616.5833 370.5742 L 616.2655 370.5788 L 615.8471 371.5871 L 616.1543 372.364 L 614.8937 373.541 L 611.8587 372.4912 L 611.1436 373.0002 L 610.8046 374.6184 L 610.9476 375.4187 L 611.5938 375.7053 L 611.954 376.4376 L 611.758 377.6661 L 610.8788 377.7161 L 610.7622 378.153 L 611.7739 379.0452 L 612.5207 378.9997 L 613.6437 379.842 L 613.5059 381.0671 L 614.6183 382.7939 L 614.7295 383.5414 L 613.7655 384.2708 L 612.7856 384.2526 L 612.6584 385.1417 L 611.8057 385.5795 L 611.4402 386.6607 L 611.2231 388.1803 L 610.7304 388.7828 L 609.8406 389.1252 L 608.9243 388.6824 L 608.5959 389.6503 L 607.3247 389.8238 L 606.7685 390.7601 L 606.0005 390.5956 L 605.153 391.6874 L 604.7505 391.7971 L 603.6752 393.6983 L 603.225 395.0746 L 603.8871 396.0717 L 602.5894 395.7012 L 601.2229 395.5457 L 600.3754 396.0946 L 599.7239 396.0305 L 598.9876 396.671 L 599.5226 397.8745 L 599.1942 398.3048 L 599.3319 399.7241 L 599.0936 399.8615 L 599.0035 403.8983 L 599.4114 404.9483 L 599.03 405.5858 L 599.083 407.3935 L 599.5597 409.0184 L 600.2535 409.2158 L 600.8468 410.6854 L 601.6625 411.1034 L 602.9972 411.2964 L 604.6869 411.2229 L 605.1371 411.8523 L 605.6032 411.8017 L 606.1912 412.6335 L 606.7155 412.4681 L 607.2505 413.8194 L 607.1552 414.5964 L 607.8596 415.4381 L 608.8766 417.7661 L 609.2474 417.849 L 610.0631 419.0228 L 608.8236 419.7226 L 607.7113 419.1425 L 607.1552 420.3444 L 607.1711 420.9616 L 606.5566 421.7632 L 606.4719 422.6571 L 605.9899 422.588 L 604.4274 421.777 L 603.8712 421.6987 L 603.6276 422.3346 L 603.6117 424.561 L 602.9284 424.4411 L 602.1339 424.9345 L 602.6742 426.1429 L 602.2663 426.1522 L 601.779 427.3748 L 600.5555 427.1395 L 600.6243 427.6471 L 600.2218 429.6321 L 598.2991 428.5794 L 597.5522 428.6117 L 597.3404 427.8871 L 596.4399 428.9811 L 594.8297 428.681 L 594.0352 429.0688 L 593.8287 430.0615 L 593.1401 430.9067 L 592.8858 430.0615 L 592.3244 430.6157 L 592.3985 429.6551 L 592.0701 429.2165 L 591.0108 429.5304 L 590.1368 428.3763 L 590.4282 427.9425 L 589.6283 427.2225 L 589.5436 426.7288 L 588.7438 426.6273 L 587.9811 425.8615 L 587.4832 426.1198 L 586.8158 425.2297 L 585.2586 425.9261 L 584.9301 424.9253 L 582.8539 424.5241 L 581.3496 423.6758 L 579.7817 423.7173 L 579.9248 422.9337 L 578.8919 422.777 L 577.8325 422.035 L 577.9226 421.7263 L 576.7362 421.4867 L 576.9374 420.3351 L 575.5974 419.8378 L 574.7975 420.5931 L 574.3738 420.1279 L 573.8706 420.3536 L 571.6142 420.1739 L 571.0899 420.4273 L 570.9892 419.8147 L 570.1047 419.5661 L 568.9023 418.2033 L 568.5315 418.4059 L 567.737 417.8075 L 566.6141 418.2356 L 565.9997 418.1527 L 565.0728 420.0081 L 563.5897 420.6161 L 563.1289 422.5281 L 562.8376 423.0489 L 563.1713 423.7035 L 562.2867 425.8293 L 561.7041 426.6412 L 563.06 427.6563 L 564.1247 429.4243 L 564.4425 430.4956 L 565.1258 430.7404 L 565.4436 431.8583 L 565.4224 432.6762 L 565.9838 432.8102 L 566.397 434.0398 L 567.2179 434.798 L 566.9849 435.4316 L 568.2455 436.6943 L 568.5421 437.8372 L 569.2943 439.1193 L 570.0782 438.8416 L 570.8939 439.5869 L 571.0157 440.2121 L 574.2943 441.0689 L 574.1725 441.7545 L 574.8664 442.7923 L 575.4649 443.2836 L 575.2849 444.4888 L 575.4385 445.3744 L 574.5963 446.455 L 574.6545 447.6056 L 575.0942 448 L 574.7181 449.0257 L 576.3707 448.6033 L 576.9957 447.9212 L 577.7266 448.6126 L 579.1249 449.1093 L 580.6928 449.1325 L 581.9799 449.6617 L 583.0128 449.2718 L 583.1558 448.2321 L 584.5276 447.8933 L 585.2321 447.304 L 586.8635 447.5082 L 587.3772 448.608 L 588.1717 448.3759 L 588.3677 449.9681 L 588.9292 450.3628 L 589.2841 451.6632 L 589.1199 452.0395 L 589.2099 454.2608 L 589.4694 455.8276 L 589.8773 456.2881 L 590.354 455.8323 L 591.2332 456.0788 L 592.0437 455.8648 L 593.1295 456.0834 L 593.5691 455.6649 L 593.8816 454.3909 L 594.6337 453.4985 L 595.4018 453.8517 L 596.1857 453.5775 L 596.2016 452.5273 L 596.6412 451.5053 L 597.8594 452.5041 L 598.6698 454.112 L 598.3732 455.1627 L 598.6804 456.7811 L 599.3796 457.2369 L 599.2313 458.0837 L 599.941 458.3955 L 598.9559 459.1308 L 598.8976 459.9873 L 598.0289 460.9372 L 597.674 462.3484 L 597.6635 463.942 L 597.0808 464.0352 L 596.2492 464.9115 L 595.9791 465.7926 L 595.5183 465.0606 L 594.2312 465.8999 L 594.2471 466.7253 L 594.8191 467.7515 L 595.1263 467.4436 L 596.1698 468.2647 L 596.5406 469.338 L 596.5194 470.5749 L 596.0321 472.3401 L 597.3404 473.0501 L 597.976 471.6956 L 599.1465 470.8504 L 599.5915 469.4313 L 600.2959 469.4406 L 601.4771 468.8666 L 602.0174 469.226 L 603.4581 469.296 L 604.5757 468.6519 L 604.5704 467.6768 L 605.2113 466.105 L 605.3225 465.1213 L 606.3395 465.6574 L 606.6149 466.576 L 607.3353 467.4156 L 608.2569 467.8634 L 608.7124 466.7906 L 608.2198 464.5106 L 608.3257 463.6857 L 607.7219 463.1498 L 608.7866 462.3345 L 609.3798 460.7323 L 610.1213 460.3971 L 610.1955 459.5032 L 610.5768 459.8663 L 611.1224 459.6382 L 611.7262 460.3272 L 612.918 459.8198 L 613.649 460.4902 L 613.5536 459.8523 L 614.4911 460.0106 L 614.7295 459.182 L 615.7253 458.5398 L 615.9848 457.9488 L 616.6363 458.0977 L 616.3556 456.6322 L 616.5727 455.5207 L 616.096 454.6559 L 617.0706 454.5862 L 616.9912 453.8703 L 616.382 453.5496 L 615.9212 452.6993 L 614.8248 452.4112 L 614.1839 451.6679 L 612.8227 451.3195 L 612.4678 449.801 L 611.8746 448.8029 L 612.2983 447.0256 L 612.7273 446.3994 L 612.2029 445.7778 L 611.4243 446.8725 L 610.9635 446.5849 L 610.9953 445.8752 L 612.1182 445.3141 L 612.1288 444.818 L 611.3872 443.7471 L 609.5546 443.5477 L 609.2633 443.2187 L 610.1266 442.0648 L 609.8724 440.3325 L 609.2421 439.9574 L 608.294 438.4296 L 606.0852 435.8617 L 607.0757 435.0986 L 608.098 435.2928 L 608.2304 435.7784 L 609.3745 435.9311 L 609.491 435.1587 L 610.026 435.4084 L 610.6616 434.7888 L 610.9688 435.3298 L 611.9063 434.6177 L 611.8057 435.4639 L 613.0186 435.3344 L 614.3905 435.5148 L 614.6024 433.596 L 615.1903 432.5376 L 615.8312 430.5972 L 616.7899 431.1746 L 618.3948 430.588 L 619.7084 430.4125 L 620.6088 430.0015 L 621.6046 430.0569 L 622.6851 430.9067 L 623.04 430.6896 L 622.8917 429.4658 L 622.4203 428.8795 L 621.0326 427.984 L 621.9065 427.1348 L 622.7169 427.2179 L 622.6216 426.6688 L 623.1883 426.046 L 624.3589 425.8661 L 625.3494 424.1184 L 626.8431 424.1967 L 627.0337 423.2287 L 627.4999 422.5834 L 629.3908 422.6848 L 629.5338 421.3163 L 630.1164 420.8971 L 631.1705 420.8602 L 632.0815 421.4223 L 632.6165 422.7401 L 633.3845 423.9524 L 633.2839 425.8062 L 634.2691 426.3874 L 635.3125 426.3459 L 635.6568 425.963 L 636.3401 426.3874 L 637.2723 426.512 L 638.0403 427.3794 L 638.3158 428.7964 L 637.9662 429.4981 L 638.4058 430.0338 L 638.8719 429.923 L 639.7935 430.8928 L 639.534 431.5257 L 638.2575 431.4749 L 637.8814 432.6531 L 638.7872 432.7871 L 639.1103 434.4142 L 638.4482 435.4963 L 638.035 435.7322 L 637.9238 436.4908 L 638.374 437.3652 L 639.3539 437.4069 L 639.8889 438.6426 L 638.9884 442.1621 L 639.2427 442.6765 L 640.5933 443.1862 L 641.4037 443.2094 L 642.1135 442.3799 L 643.2364 442.8989 L 643.0298 444.0484 L 644.3805 445.0544 L 645.3339 445.4254 L 647.9929 445.1101 L 649.0522 442.8804 L 650.4081 442.5514 L 650.7948 442.6811 L 651.494 444.4192 L 651.2133 445.1842 L 651.8012 445.5599 L 651.6582 446.4829 L 650.8637 448.2228 L 651.8859 448.5291 L 652.3044 447.2715 L 653.3955 446.5293 L 654.8415 446.9143 L 655.1063 446.3762 L 655.6678 446.7658 L 655.0534 447.2947 L 655.5989 447.3272 L 655.6254 447.9118 L 656.3193 447.5824 L 659.2007 449.0768 L 659.9211 448.5848 L 661.902 448.0696 L 664.0048 448.1764 L 665.2919 448.5755 L 666.8015 448.0186 L 668.0674 447.935 L 669.7252 448.8726 L 671.8545 451.1477 L 672.1883 452.6621 L 671.8122 452.8619 L 671.4096 454.1446 L 671.844 455.3394 L 672.22 457.0881 L 673.2688 458.2187 L 673.5548 459.0005 L 673.5177 460.0386 L 674.4552 459.9361 L 675.1279 460.5274 L 675.9436 463.1358 L 676.9871 463.1265 L 678.2689 462.6093 L 680.52 463.5505 L 681.4893 463.0985 L 682.1513 463.2803 L 682.591 462.7957 L 683.8463 465.6714 L 683.5921 466.6553 L 683.8145 467.7048 L 684.7361 467.9428 L 686.6801 467.7048 L 687.0667 467.1917 L 687.2839 465.8766 L 687.7712 464.7203 L 688.2214 464.45 L 689.9005 464.5665 L 690.9439 464.2076 L 689.9799 463.3082 L 689.5297 462.5628 L 689.4608 460.1922 L 690.017 459.8803 L 689.4873 459.5637 L 688.9576 458.5212 L 689 457.7627 L 687.6335 456.6694 L 685.9491 455.8044 L 685.2552 455.2185 L 684.8845 454.3538 L 685.2711 454.4235 L 685.1705 452.6574 L 684.8156 452.6249 L 684.3548 451.6725 L 683.9311 452.0116 L 683.2425 451.1012 L 684.1217 449.7546 L 682.7287 449.801 L 682.5963 449.0165 L 683.02 449.0768 L 682.8505 448.3434 L 682.109 447.6984 L 682.2308 447.0628 L 683.4861 445.5228 L 683.555 444.5722 L 681.5528 444.2338 L 680.9384 443.608 L 680.8113 442.6765 L 679.6672 441.3051 L 678.8356 440.9207 L 677.4373 440.6659 L 677.0771 440.0685 L 674.4076 437.6891 L 672.6755 436.5555 L 668.8937 433.3834 L 668.4593 432.4636 L 667.5483 431.9138 L 667.2358 430.6942 L 667.3047 428.8703 Z" fill="[object Object]" fill-opacity="1" stroke="dodgerblue" stroke-width="1" paint-order="fill" stroke-opacity="1" stroke-dasharray="" stroke-linecap="butt" stroke-miterlimit="10" style="filter: url(&quot;#zr2323-shadow-1&quot;);">
</path>
<text xml:space="preserve" fill="#bdbdd9" fill-opacity="1" stroke="none" transform="matrix(1,0,0,1,653.0883,335.7951)" dominant-baseline="central" text-anchor="middle" x="0" y="0" style="font: 13 13px sans-serif;"></text>
<text xml:space="preserve" fill="#bdbdd9" fill-opacity="1" stroke="none" transform="matrix(1,0,0,1,478.355,183.0237)" dominant-baseline="central" text-anchor="middle" x="0" y="0" style="font: 13 13px sans-serif;"></text>
<text xml:space="preserve" fill="#bdbdd9" fill-opacity="1" stroke="none" transform="matrix(1,0,0,1,602.6715,239.6918)" dominant-baseline="central" text-anchor="middle" x="0" y="0" style="font: 13 13px sans-serif;"></text>
<text xml:space="preserve" fill="#bdbdd9" fill-opacity="1" stroke="none" transform="matrix(1,0,0,1,683.6556,325.413)" dominant-baseline="central" text-anchor="middle" x="0" y="0" style="font: 13 13px sans-serif;"></text>
<text xml:space="preserve" fill="#bdbdd9" fill-opacity="1" stroke="none" transform="matrix(1,0,0,1,719.6654,407.1143)" dominant-baseline="central" text-anchor="middle" x="0" y="0" style="font: 13 13px sans-serif;"></text>
<text xml:space="preserve" fill="#bdbdd9" fill-opacity="1" stroke="none" transform="matrix(1,0,0,1,634.6451,258.9339)" dominant-baseline="central" text-anchor="middle" x="0" y="0" style="font: 13 13px sans-serif;"></text>
<text xml:space="preserve" fill="#bdbdd9" fill-opacity="1" stroke="none" transform="matrix(1,0,0,1,530.4667,229.1397)" dominant-baseline="central" text-anchor="middle" x="0" y="0" style="font: 13 13px sans-serif;"></text>
<text xml:space="preserve" fill="#bdbdd9" fill-opacity="1" stroke="none" transform="matrix(1,0,0,1,750.6273,377.6804)" dominant-baseline="central" text-anchor="middle" x="0" y="0" style="font: 13 13px sans-serif;"></text>
<text xml:space="preserve" fill="#bdbdd9" fill-opacity="1" stroke="none" transform="matrix(1,0,0,1,417.0031,155.2685)" dominant-baseline="central" text-anchor="middle" x="0" y="0" style="font: 13 13px sans-serif;"></text>
<text xml:space="preserve" fill="#bdbdd9" fill-opacity="1" stroke="none" transform="matrix(1,0,0,1,780.8371,339.4627)" dominant-baseline="central" text-anchor="middle" x="0" y="0" style="font: 13 13px sans-serif;"></text>
<text xml:space="preserve" fill="#bdbdd9" fill-opacity="1" stroke="none" transform="matrix(1,0,0,1,684.4793,387.5152)" dominant-baseline="central" text-anchor="middle" x="0" y="0" style="font: 13 13px sans-serif;"></text>
<text xml:space="preserve" fill="#bdbdd9" fill-opacity="1" stroke="none" transform="matrix(1,0,0,1,708.6137,453.1849)" dominant-baseline="central" text-anchor="middle" x="0" y="0" style="font: 13 13px sans-serif;"></text>
<text xml:space="preserve" fill="#bdbdd9" fill-opacity="1" stroke="none" transform="matrix(1,0,0,1,642.765,366.8663)" dominant-baseline="central" text-anchor="middle" x="0" y="0" style="font: 13 13px sans-serif;"></text>
<text xml:space="preserve" fill="#bdbdd9" fill-opacity="1" stroke="none" transform="matrix(1,0,0,1,626.324,419.5384)" dominant-baseline="central" text-anchor="middle" x="0" y="0" style="font: 13 13px sans-serif;"></text>
<defs>
<filter id="zr2323-shadow-0" x="-100%" y="-100%" width="300%" height="300%">
<feDropShadow dx="0" dy="1" flood-color="#000000" stdDeviation="0 0">
</feDropShadow>
</filter>
<filter id="zr2323-shadow-1" x="-100%" y="-100%" width="300%" height="300%">
<feDropShadow dx="0" dy="1" flood-color="#000000" stdDeviation="0 0">
</feDropShadow>
</filter>
</defs>
</g>
</svg>