<svg xmlns="http://www.w3.org/2000/svg" xmlns:xlink="http://www.w3.org/1999/xlink" version="1.1" baseProfile="full" width="1108" height="550" style="user-select: none; position: absolute; left: 0px; top: 0px;">
<g>
<rect width="1108" height="550" x="0" y="0" id="0" style="fill: transparent;">
</rect>
</g>
<g>
<path d="M 611.9467 355.0461 L 611.3394 354.7681 L 610.9658 353.7008 L 609.2909 353.3287 L 608.3485 353.5753 L 607.9533 353.1673 L 606.6398 353.4946 L 604.466 352.2394 L 602.2801 352.6115 L 601.3016 351.8943 L 600.3569 350.4559 L 599.4507 350.2453 L 599.2218 348.655 L 599.5737 347.3071 L 599.6942 344.8899 L 599.0218 344.7109 L 598.8892 343.7757 L 598.0987 343.2522 L 598.13 342.2234 L 597.6601 341.1769 L 596.7419 340.7387 L 597.0913 338.9953 L 596.7419 337.3553 L 597.8601 336.9308 L 598.3228 336.225 L 599.1881 335.9883 L 598.6626 333.6438 L 598.0818 328.9586 L 598.3927 328.4859 L 597.9903 327.4336 L 598.3542 327.0457 L 597.5589 325.4099 L 595.6429 325.6238 L 595.373 326.8718 L 594.6234 327.8884 L 592.358 328.5037 L 592.0977 327.9597 L 590.9987 327.8839 L 590.5674 328.526 L 588.8731 327.9463 L 587.603 328.2673 L 587.4006 329.6856 L 586.8897 330.9035 L 586.1787 331.1935 L 586.1691 334.0233 L 584.9159 334.644 L 584.2459 334.0144 L 582.9204 333.7599 L 580.8525 334.1707 L 580.2862 334.7154 L 578.4811 335.3049 L 579.2715 336.6717 L 579.1487 338.8165 L 579.3703 341.9998 L 578.5076 342.0534 L 578.7245 343.1806 L 577.4183 344.3171 L 576.7338 344.2276 L 575.8734 345.0778 L 574.4901 345.1987 L 573.1573 346.4654 L 572.1186 346.8235 L 571.745 348.2385 L 571.8487 350.3304 L 569.9014 350.3617 L 569.67 351.4372 L 567.836 351.6165 L 567.4648 353.5529 L 566.5297 353.275 L 565.7079 352.0556 L 564.4234 352.477 L 563.3316 353.535 L 562.1049 354.0775 L 560.6661 353.934 L 558.0874 355.4094 L 557.6367 355.2165 L 556.3208 355.7099 L 556.0003 355.4229 L 554.1687 355.3018 L 553.2047 355.9073 L 552.2455 355.9567 L 550.7633 355.1717 L 549.5776 355.7593 L 548.4376 355.7503 L 546.9434 354.5169 L 545.0419 354.3286 L 544.5141 354.6918 L 542.121 353.9968 L 539.6579 354.1582 L 539.7447 355.248 L 538.9662 357.9039 L 538.6168 358.2001 L 538.5324 361.0912 L 537.5033 362.7036 L 537.3395 363.4269 L 536.1031 364.5323 L 536.0573 366.555 L 536.3899 367.7106 L 534.9559 367.6701 L 534.645 366.9326 L 533.3629 367.2339 L 532.0639 368.2817 L 530.5456 367.1709 L 529.4635 367.9759 L 528.7477 369.4332 L 526.504 370.9495 L 526.6654 371.8945 L 526.1111 374.8616 L 526.2871 375.447 L 525.8195 377.0599 L 525.0676 377.5961 L 525.3375 378.227 L 524.4964 380.2916 L 525.4218 381.1439 L 525.7544 382.321 L 526.7377 382.2037 L 527.4945 382.6413 L 528.5862 382.5375 L 531.3746 383.7602 L 532.3869 383.9722 L 534.4306 380.9093 L 535.6235 381.897 L 536.4646 381.0852 L 537.0695 381.7076 L 538.8361 382.0233 L 540.7593 383.0924 L 541.5787 382.3346 L 542.6078 382.33 L 543.2537 382.939 L 544.0249 382.4202 L 544.7382 382.9525 L 546.0324 382.9796 L 546.5168 382.2308 L 548.2497 382.1541 L 549.3438 380.5847 L 550.5585 379.8858 L 551.3417 380.1293 L 552.9733 378.4028 L 553.9566 378.4388 L 555.4388 380.1068 L 557.0656 379.0653 L 558.0175 378.0242 L 558.7695 377.8214 L 561.2879 378.7048 L 561.9531 380.0076 L 562.9508 380.0391 L 562.999 379.169 L 563.7172 378.538 L 564.351 376.6093 L 565.7055 375.7398 L 567.7058 376.4786 L 569.5133 375.7444 L 570.1376 375.8795 L 570.1424 377.3527 L 571.0823 378.1684 L 572.2246 377.1004 L 573.6586 377.168 L 574.2539 376.5778 L 575.1143 376.6904 L 576.7242 375.3435 L 577.0977 374.186 L 578.0232 374.3391 L 580.6911 373.4116 L 582.5131 371.1834 L 583.3108 372.1061 L 584.8652 372.0521 L 585.4051 373.7898 L 587.2319 374.0779 L 588.0995 373.9114 L 589.0394 374.3166 L 590.9024 373.5556 L 592.4761 374.1365 L 592.9099 374.9021 L 593.6257 375.0102 L 595.2597 374.2851 L 597.0648 375.5236 L 598.8844 375.6272 L 600.046 375.1678 L 601.6487 375.3795 L 602.8537 374.5958 L 602.9718 373.8438 L 604.478 372.6057 L 605.1842 372.6552 L 605.6301 370.189 L 603.9286 369.0868 L 602.6826 367.8949 L 603.1959 365.4851 L 603.8539 364.9862 L 603.502 364.3975 L 604.1021 363.2831 L 604.8179 362.8698 L 606.9146 362.6721 L 607.9413 361.0059 L 608.404 361.3157 L 609.4451 360.8038 L 611.3322 361.428 L 611.431 360.0898 L 611.9709 359.7936 L 613.0553 357.9577 L 613.4241 358.797 L 614.7809 358.2001 L 613.9109 357.9128 L 612.9348 356.6565 L 611.5684 356.4277 L 611.9467 355.0461 Z M 587.6488 377.5735 L 587.1548 377.3527 L 586.5233 378.0963 L 586.8053 378.556 L 587.6488 377.5735 Z" fill="[object Object]" fill-opacity="1" stroke="dodgerblue" stroke-width="1" paint-order="fill" stroke-opacity="1" stroke-dasharray="" stroke-linecap="butt" stroke-miterlimit="10" style="filter: url(&quot;#zr2323-shadow-1&quot;);">
</path>
<path d="M 574.8564 291.8292 L 575.054 292.8645 L 573.0223 293.4132 L 572.3114 294.2762 L 571.8896 293.962 L 569.9158 294.6923 L 569.4676 296.0824 L 568.6457 296.8352 L 567.6649 298.6336 L 566.5683 299.3204 L 566.8141 300.087 L 565.9802 300.2245 L 565.9007 301.1065 L 565.009 301.9089 L 565.9417 302.3124 L 566.2333 303.8912 L 565.4573 304.4102 L 564.2908 304.5122 L 563.2449 305.3951 L 564.7318 305.4927 L 563.9823 307.2945 L 562.9195 308.6397 L 563.5702 309.8432 L 564.4667 310.4117 L 564.9295 312.2421 L 565.4187 312.4599 L 566.3369 314.7758 L 566.414 315.7273 L 567.3371 317.7289 L 568.906 318.5031 L 570.5762 318.2139 L 571.169 319.2908 L 572.562 320.5238 L 572.9573 321.9619 L 574.3069 320.9957 L 576.2662 321.668 L 576.1096 320.92 L 576.9314 320.3057 L 578.563 320.5727 L 579.2571 321.0224 L 579.4282 320.2611 L 578.9896 317.7645 L 579.6571 317.2129 L 580.9393 317.1328 L 581.7804 316.5901 L 582.942 317.2751 L 582.9661 316.1854 L 584.3543 315.5761 L 584.429 314.8157 L 583.8964 313.531 L 584.7616 312.6509 L 585.7112 312.4599 L 586.3932 311.5312 L 587.2415 311.98 L 587.7645 310.9803 L 589.2563 310.8604 L 589.0081 310.0297 L 589.7238 308.4133 L 591.3121 308.2357 L 592.211 306.327 L 591.835 305.5104 L 592.5291 305.5193 L 592.7774 306.2604 L 594.568 305.9054 L 595.4091 305.4306 L 597.4552 305.9542 L 597.7468 307.0504 L 598.224 307.2058 L 598.9543 306.1095 L 598.8217 305.2309 L 598.9808 302.7692 L 598.5084 301.7227 L 596.3394 302.2946 L 595.52 301.8912 L 594.7681 300.4638 L 593.7245 299.8965 L 593.2979 298.9881 L 593.0666 297.3003 L 592.2279 297.0567 L 593.7004 295.7592 L 595.802 295.0995 L 596.3707 294.4179 L 596.3803 293.5371 L 597.0142 292.6831 L 597.5998 293.0548 L 598.9663 291.9 L 600.287 292.077 L 601.1088 291.1259 L 601.0221 288.9635 L 599.9135 287.5181 L 600.3448 286.5636 L 600.1858 285.7728 L 599.5544 285.6932 L 600.3858 284.6199 L 599.9617 284.0634 L 599.8966 282.6504 L 599.1302 282.5092 L 598.4144 283.1096 L 597.3564 282.5004 L 597.3516 281.9971 L 594.6837 281.8956 L 591.5145 282.0677 L 590.5626 281.8338 L 588.8804 278.6833 L 587.8898 278.648 L 585.2171 279.495 L 584.1928 280.7216 L 582.5154 280.4348 L 581.7322 281.4939 L 581.8575 282.1163 L 580.9658 282.6372 L 580.9803 283.2994 L 580.0452 284.664 L 579.486 286.0422 L 579.8186 286.705 L 577.9991 289.1094 L 577.1387 290.7986 L 576.0807 291.5063 L 574.8564 291.8292 Z" fill="[object Object]" fill-opacity="1" stroke="dodgerblue" stroke-width="1" paint-order="fill" stroke-opacity="1" stroke-dasharray="" stroke-linecap="butt" stroke-miterlimit="10" style="filter: url(&quot;#zr2323-shadow-1&quot;);">
</path>
<path d="M 539.6579 354.1582 L 538.0769 354.4945 L 538.2842 352.0646 L 537.3828 351.8854 L 537.1587 350.8994 L 536.4284 350.8278 L 536.5514 348.9282 L 537.9805 349.3941 L 538.3107 348.3102 L 538.8698 349.197 L 539.9905 349.2552 L 540.7111 348.7088 L 539.7206 346.1923 L 539.6483 345.4001 L 540.2339 345.1226 L 539.3181 342.8451 L 538.9855 341.329 L 539.2265 340.1486 L 538.3878 339.6971 L 538.6577 337.4222 L 538.5903 336.0731 L 537.6696 334.7467 L 538.3131 332.6975 L 539.8338 331.912 L 539.1422 328.0712 L 539.1301 326.3637 L 538.4529 325.0088 L 538.1541 323.1956 L 536.9442 322.3226 L 536.3875 321.0313 L 536.4694 318.6989 L 534.6378 319.8516 L 532.5411 319.7537 L 532.5218 318.7078 L 531.8422 317.1728 L 532.1964 317.1283 L 531.0685 313.6732 L 530.9529 312.5354 L 530.1142 312.9221 L 530.3142 313.4821 L 529.2177 313.0421 L 527.668 313.6643 L 524.8531 313.7932 L 524.0168 314.7802 L 523.3203 314.7935 L 523.4095 315.6028 L 522.8214 315.5939 L 523.1396 313.6421 L 522.566 313.0421 L 521.9755 313.3754 L 520.5753 312.6688 L 520.1511 312.9398 L 519.6956 314.4023 L 519.1389 314.838 L 519.0883 315.794 L 518.5605 316.1009 L 516.4975 315.5672 L 515.6926 315.7139 L 514.4562 315.0469 L 513.0705 314.8424 L 512.1932 315.6472 L 511.2822 314.7491 L 510.1158 314.5223 L 508.624 314.8736 L 508.4673 315.9941 L 507.6045 316.2343 L 507.1924 317.7023 L 506.2886 317.1061 L 505.956 317.8713 L 505.0354 317.6755 L 504.5558 317.0261 L 504.151 315.0736 L 503.4183 314.1889 L 502.2976 314.0911 L 500.9336 313.2999 L 500.372 312.371 L 500.6419 310.505 L 500.078 309.7277 L 498.6392 309.4878 L 498.7549 308.7951 L 497.9186 309.4435 L 497.1402 309.4301 L 496.234 307.2457 L 494.5325 307.3345 L 494.2915 306.5977 L 492.9587 306.6288 L 492.5033 305.7944 L 490.6307 305.9764 L 489.8546 306.6154 L 487.3169 305.8078 L 484.6659 305.1733 L 484.3284 306.5 L 482.6439 306.793 L 482.451 307.1792 L 480.5158 307.0992 L 478.8601 306.0829 L 477.5081 306.3225 L 477.6093 307.1303 L 476.5633 309.5278 L 475.8331 309.1859 L 475.2065 309.8831 L 475.7753 311.318 L 474.98 312.1799 L 475.3969 314.3578 L 476.1127 315.2515 L 476.4356 317.075 L 476.8573 317.9647 L 478.0262 318.8102 L 477.9587 321.4677 L 478.9661 322.8481 L 478.8263 323.9038 L 477.7178 324.3761 L 477.3442 325.2673 L 475.9295 325.2004 L 475.1366 326.9699 L 473.9942 327.5049 L 473.2303 328.8382 L 473.411 329.5206 L 474.4618 330.3994 L 474.3124 331.1132 L 473.5363 331.3676 L 472.4084 330.3324 L 472.3144 330.9749 L 470.1647 332.8225 L 468.28 333.9653 L 467.8993 334.5859 L 469.0272 335.1843 L 469.1453 336.9397 L 468.7524 337.9853 L 470.0804 338.2936 L 470.6202 337.8289 L 471.5553 338.3607 L 471.8252 337.6904 L 473.7532 337.2346 L 475.1728 337.677 L 476.1801 338.8433 L 477.1948 339.3708 L 477.5129 340.1799 L 477.8792 339.5853 L 478.5299 340.3855 L 479.8482 340.8818 L 479.5204 341.4095 L 480.4459 341.9819 L 481.4316 345.0107 L 482.4751 345.588 L 483.2247 345.4717 L 483.9453 346.2057 L 484.7864 346.2819 L 484.5189 347.6698 L 483.6536 348.2475 L 484.273 350.1735 L 483.3933 352.3829 L 482.5474 353.3198 L 481.2798 352.3873 L 479.9759 352.8894 L 479.4216 352.728 L 478.9131 351.2131 L 476.7923 350.5947 L 475.5391 352.6518 L 475.5198 353.5887 L 476.2259 353.5305 L 477.0285 352.7101 L 477.831 353.3512 L 478.1371 354.1986 L 478.7107 357.4058 L 479.2385 358.5501 L 478.2311 360.5748 L 475.7632 361.0373 L 475.9151 363.7414 L 474.4955 365.5525 L 474.8281 367.2069 L 474.6811 368.3581 L 473.3218 370.5444 L 471.9554 371.9621 L 472.6808 374.3481 L 474.6522 373.8303 L 475.4089 375.4831 L 475.3246 376.1317 L 474.375 376.9382 L 474.0858 378.6372 L 474.8402 379.1329 L 475.1872 380.3908 L 474.9583 383.2323 L 477.1441 383.9136 L 478.848 387.457 L 479.0963 389.7469 L 479.7349 390.3749 L 480.6218 389.6746 L 481.1207 388.1299 L 481.8533 387.2809 L 481.6413 385.931 L 483.5163 385.5653 L 484.2971 384.9289 L 483.0102 383.5616 L 484.6562 383.5661 L 487.7941 384.8973 L 488.1315 384.622 L 488.4062 382.321 L 488.4906 377.5104 L 488.9919 376.1363 L 489.8956 376.5508 L 490.5222 375.3435 L 490.5728 373.9068 L 491.9586 374.6544 L 492.0165 375.3615 L 492.8382 375.393 L 493.7179 376.5372 L 495.7086 378.0062 L 497.7981 378.3622 L 498.4295 377.7763 L 498.2319 375.0102 L 498.4994 373.9384 L 499.261 374.1275 L 499.4008 375.8975 L 499.9888 376.8256 L 501.0468 376.803 L 501.3119 377.3438 L 502.3531 377.2716 L 501.994 379.3088 L 502.7001 378.3803 L 503.4496 378.7273 L 504.2232 379.7641 L 504.4643 380.7515 L 505.5199 380.8913 L 506.2983 379.9129 L 508.0407 378.5785 L 508.207 377.9927 L 509.159 378.4614 L 510.1254 377.0058 L 510.94 377.2716 L 510.364 378.191 L 510.1061 379.4846 L 509.4121 379.9083 L 509.3614 381.7707 L 509.7735 382.0323 L 509.4144 383.0743 L 510.6942 384.252 L 512.3836 384.5995 L 513.3814 386.3598 L 514.355 386.4682 L 516.2011 385.8406 L 517.2398 384.7665 L 518.2689 384.8522 L 520.1728 383.4894 L 521.1898 383.7691 L 522.942 382.8352 L 523.8626 383.6067 L 524.829 383.6699 L 525.7544 382.321 L 525.4218 381.1439 L 524.4964 380.2916 L 525.3375 378.227 L 525.0676 377.5961 L 525.8195 377.0599 L 526.2871 375.447 L 526.1111 374.8616 L 526.6654 371.8945 L 526.504 370.9495 L 528.7477 369.4332 L 529.4635 367.9759 L 530.5456 367.1709 L 532.0639 368.2817 L 533.3629 367.2339 L 534.645 366.9326 L 534.9559 367.6701 L 536.3899 367.7106 L 536.0573 366.555 L 536.1031 364.5323 L 537.3395 363.4269 L 537.5033 362.7036 L 538.5324 361.0912 L 538.6168 358.2001 L 538.9662 357.9039 L 539.7447 355.248 L 539.6579 354.1582 Z" fill="[object Object]" fill-opacity="1" stroke="dodgerblue" stroke-width="1" paint-order="fill" stroke-opacity="1" stroke-dasharray="" stroke-linecap="butt" stroke-miterlimit="10" style="filter: url(&quot;#zr2323-shadow-1&quot;);">
</path>
<path d="M 530.9529 312.5354 L 531.0685 313.6732 L 532.1964 317.1283 L 531.8422 317.1728 L 532.5218 318.7078 L 532.5411 319.7537 L 534.6378 319.8516 L 536.4694 318.6989 L 536.3875 321.0313 L 536.9442 322.3226 L 538.1541 323.1956 L 538.4529 325.0088 L 539.1301 326.3637 L 539.1422 328.0712 L 539.8338 331.912 L 538.3131 332.6975 L 537.6696 334.7467 L 538.5903 336.0731 L 538.6577 337.4222 L 538.3878 339.6971 L 539.2265 340.1486 L 538.9855 341.329 L 539.3181 342.8451 L 540.2339 345.1226 L 539.6483 345.4001 L 539.7206 346.1923 L 540.7111 348.7088 L 539.9905 349.2552 L 538.8698 349.197 L 538.3107 348.3102 L 537.9805 349.3941 L 536.5514 348.9282 L 536.4284 350.8278 L 537.1587 350.8994 L 537.3828 351.8854 L 538.2842 352.0646 L 538.0769 354.4945 L 539.6579 354.1582 L 542.121 353.9968 L 544.5141 354.6918 L 545.0419 354.3286 L 546.9434 354.5169 L 548.4376 355.7503 L 549.5776 355.7593 L 550.7633 355.1717 L 552.2455 355.9567 L 553.2047 355.9073 L 554.1687 355.3018 L 556.0003 355.4229 L 556.3208 355.7099 L 557.6367 355.2165 L 558.0874 355.4094 L 560.6661 353.934 L 562.1049 354.0775 L 563.3316 353.535 L 564.4234 352.477 L 565.7079 352.0556 L 566.5297 353.275 L 567.4648 353.5529 L 567.836 351.6165 L 569.67 351.4372 L 569.9014 350.3617 L 571.8487 350.3304 L 571.745 348.2385 L 572.1186 346.8235 L 573.1573 346.4654 L 574.4901 345.1987 L 575.8734 345.0778 L 576.7338 344.2276 L 577.4183 344.3171 L 578.7245 343.1806 L 578.5076 342.0534 L 579.3703 341.9998 L 579.1487 338.8165 L 579.2715 336.6717 L 578.4811 335.3049 L 580.2862 334.7154 L 580.8525 334.1707 L 582.9204 333.7599 L 584.2459 334.0144 L 584.9159 334.644 L 586.1691 334.0233 L 586.1787 331.1935 L 586.8897 330.9035 L 587.4006 329.6856 L 587.603 328.2673 L 587.6078 327.5049 L 585.7232 327.8259 L 584.1398 327.768 L 583.2312 327.0813 L 582.3009 328.5394 L 581.5731 327.5361 L 581.6334 326.2567 L 582.2479 324.8974 L 581.7973 323.8282 L 581.026 323.249 L 580.2597 321.757 L 579.2571 321.0224 L 578.563 320.5727 L 576.9314 320.3057 L 576.1096 320.92 L 576.2662 321.668 L 574.3069 320.9957 L 572.9573 321.9619 L 572.562 320.5238 L 571.169 319.2908 L 570.5762 318.2139 L 568.906 318.5031 L 567.3371 317.7289 L 566.414 315.7273 L 566.3369 314.7758 L 565.4187 312.4599 L 564.9295 312.2421 L 564.4667 310.4117 L 563.5702 309.8432 L 562.9195 308.6397 L 563.9823 307.2945 L 564.7318 305.4927 L 563.2449 305.3951 L 564.2908 304.5122 L 565.4573 304.4102 L 566.2333 303.8912 L 565.9417 302.3124 L 565.009 301.9089 L 565.9007 301.1065 L 565.9802 300.2245 L 566.8141 300.087 L 566.5683 299.3204 L 567.6649 298.6336 L 568.6457 296.8352 L 569.4676 296.0824 L 569.9158 294.6923 L 571.8896 293.962 L 572.3114 294.2762 L 573.0223 293.4132 L 575.054 292.8645 L 574.8564 291.8292 L 573.9285 291.5417 L 573.4851 289.839 L 572.1331 289.9009 L 572.3282 289.1359 L 571.6318 287.5137 L 571.6462 286.6387 L 570.957 285.4281 L 570.6172 283.8956 L 569.5543 283.6262 L 568.9301 282.8315 L 567.9034 282.5268 L 567.3901 282.8535 L 566.0863 281.0482 L 564.568 280.8805 L 563.8594 282.9992 L 564.3029 284.4255 L 564.4234 286.3427 L 564.9126 287.6993 L 564.5367 289.8169 L 564.0594 291.1701 L 564.2522 292.5548 L 563.7341 293.6345 L 562.2809 294.8295 L 561.2421 294.1036 L 560.4709 294.9357 L 558.9671 295.7017 L 557.2897 295.7902 L 555.3351 295.5467 L 555.2411 295.2811 L 553.2601 295.1173 L 552.9468 294.2851 L 550.9682 296.0869 L 549.245 296.14 L 548.5099 296.7644 L 547.7604 294.4975 L 546.6012 293.9531 L 545.8011 294.0372 L 543.6778 295.3386 L 542.4608 295.436 L 540.5255 296.9017 L 537.6214 297.3668 L 536.3851 297.3756 L 536.8382 296.4721 L 535.8838 296.1445 L 535.8115 296.8929 L 534.498 296.4899 L 532.8857 296.7555 L 531.8663 295.6397 L 531.3626 295.8212 L 529.7551 294.5507 L 528.0946 294.0372 L 527.8415 293.6743 L 526.6245 294.1921 L 527.468 294.5374 L 527.4897 296.14 L 526.7715 296.0382 L 525.6074 297.0478 L 524.3614 296.8131 L 523.9156 297.6856 L 524.6844 299.0989 L 525.3953 298.9748 L 526.5883 301.6828 L 527.1233 303.9621 L 526.8703 304.6542 L 528.5236 306.3625 L 528.4175 307.0948 L 530.2009 309.2614 L 531.2662 309.8298 L 532.1386 309.7365 L 531.941 310.9403 L 532.7676 311.1136 L 532.5676 311.8022 L 530.9529 312.5354 Z" fill="[object Object]" fill-opacity="1" stroke="dodgerblue" stroke-width="1" paint-order="fill" stroke-opacity="1" stroke-dasharray="" stroke-linecap="butt" stroke-miterlimit="10" style="filter: url(&quot;#zr2323-shadow-1&quot;);">
</path>
<path d="M 640.2694 344.0352 L 639.3705 343.3596 L 638.6667 340.8774 L 637.5943 339.1964 L 637.3244 338.0166 L 637.8305 336.5064 L 639.1608 335.7649 L 637.5991 335.2558 L 638.1004 333.3715 L 636.9122 333.0278 L 634.5986 332.7823 L 633.49 331.7558 L 632.1331 329.4671 L 631.8391 328.2273 L 632.4079 326.3771 L 632.5621 322.8571 L 632.0102 320.1454 L 632.2247 319.3308 L 631.8946 317.7289 L 632.8754 315.5806 L 633.2032 314.1755 L 633.7262 314.0111 L 634.8492 311.7045 L 635.659 310.7804 L 635.647 308.9194 L 636.1723 308.5509 L 636.7315 306.3625 L 637.8714 303.5763 L 637.4955 303.2392 L 637.481 300.0161 L 638.0666 299.2983 L 637.9196 297.0036 L 639.1391 295.0774 L 641.0671 292.7716 L 642.2215 287.9645 L 642.5686 287.4651 L 643.7061 284.0987 L 644.487 282.518 L 645.986 280.9511 L 646.5475 279.6318 L 646.8898 277.4573 L 647.7381 275.7775 L 647.5139 274.2879 L 647.0271 274.0412 L 647.0247 272.9794 L 646.4101 271.909 L 646.2583 268.0967 L 645.8317 267.0979 L 645.9788 265.3297 L 645.2847 264.2832 L 645.2268 263.3908 L 643.5832 263.8436 L 642.5999 264.824 L 639.4379 265.8531 L 638.3799 267.2651 L 637.7292 268.7876 L 635.9988 269.0561 L 634.7504 270.249 L 634.0419 271.3365 L 631.9765 271.1472 L 631.521 270.8169 L 629.0411 271.4334 L 627.8023 273.3802 L 629.4556 274.354 L 630.3449 274.4289 L 631.0872 275.3808 L 631.8367 275.6365 L 632.0536 276.6504 L 632.9911 277.691 L 632.7477 278.3305 L 634.0756 279.4156 L 633.6876 280.9908 L 631.5403 280.5539 L 631.8728 282.571 L 631.1499 282.9948 L 630.8462 283.9618 L 629.9496 284.8716 L 628.0289 285.6093 L 627.1034 287.3413 L 626.5129 287.4386 L 625.8839 288.3667 L 624.4018 287.8054 L 622.816 288.2562 L 622.0833 286.8022 L 621.5435 288.1767 L 620.283 287.9115 L 618.1164 288.0794 L 617.3018 287.5579 L 617.0223 286.7624 L 616.0703 287.5004 L 615.5425 286.9392 L 614.752 287.085 L 614.429 286.3162 L 611.8744 286.811 L 610.5465 288.1148 L 609.5825 288.2341 L 606.1554 286.3515 L 603.2562 286.294 L 602.1765 287.3192 L 601.8439 289.5338 L 601.1088 291.1259 L 600.287 292.077 L 598.9663 291.9 L 597.5998 293.0548 L 597.0142 292.6831 L 596.3803 293.5371 L 596.3707 294.4179 L 595.802 295.0995 L 593.7004 295.7592 L 592.2279 297.0567 L 593.0666 297.3003 L 593.2979 298.9881 L 593.7245 299.8965 L 594.7681 300.4638 L 595.52 301.8912 L 596.3394 302.2946 L 598.5084 301.7227 L 598.9808 302.7692 L 598.8217 305.2309 L 598.9543 306.1095 L 598.224 307.2058 L 597.7468 307.0504 L 597.4552 305.9542 L 595.4091 305.4306 L 594.568 305.9054 L 592.7774 306.2604 L 592.5291 305.5193 L 591.835 305.5104 L 592.211 306.327 L 591.3121 308.2357 L 589.7238 308.4133 L 589.0081 310.0297 L 589.2563 310.8604 L 587.7645 310.9803 L 587.2415 311.98 L 586.3932 311.5312 L 585.7112 312.4599 L 584.7616 312.6509 L 583.8964 313.531 L 584.429 314.8157 L 584.3543 315.5761 L 582.9661 316.1854 L 582.942 317.2751 L 581.7804 316.5901 L 580.9393 317.1328 L 579.6571 317.2129 L 578.9896 317.7645 L 579.4282 320.2611 L 579.2571 321.0224 L 580.2597 321.757 L 581.026 323.249 L 581.7973 323.8282 L 582.2479 324.8974 L 581.6334 326.2567 L 581.5731 327.5361 L 582.3009 328.5394 L 583.2312 327.0813 L 584.1398 327.768 L 585.7232 327.8259 L 587.6078 327.5049 L 587.603 328.2673 L 588.8731 327.9463 L 590.5674 328.526 L 590.9987 327.8839 L 592.0977 327.9597 L 592.358 328.5037 L 594.6234 327.8884 L 595.373 326.8718 L 595.6429 325.6238 L 597.5589 325.4099 L 598.3542 327.0457 L 597.9903 327.4336 L 598.3927 328.4859 L 598.0818 328.9586 L 598.6626 333.6438 L 599.1881 335.9883 L 598.3228 336.225 L 597.8601 336.9308 L 596.7419 337.3553 L 597.0913 338.9953 L 596.7419 340.7387 L 597.6601 341.1769 L 598.13 342.2234 L 598.0987 343.2522 L 598.8892 343.7757 L 599.0218 344.7109 L 599.6942 344.8899 L 599.5737 347.3071 L 599.2218 348.655 L 599.4507 350.2453 L 600.3569 350.4559 L 601.3016 351.8943 L 602.2801 352.6115 L 604.466 352.2394 L 606.6398 353.4946 L 607.9533 353.1673 L 608.3485 353.5753 L 609.2909 353.3287 L 610.9658 353.7008 L 611.3394 354.7681 L 611.9467 355.0461 L 611.4888 353.4767 L 612.0648 352.7728 L 612.8457 352.8266 L 613.935 354.3869 L 613.5229 352.208 L 614.9231 350.8053 L 616.0847 352.0422 L 616.9355 351.7778 L 617.35 353.0821 L 618.8925 354.0371 L 620.3891 353.2929 L 620.1023 354.638 L 620.7337 355.1852 L 622.1267 354.5214 L 623.2329 353.4767 L 622.5292 349.9675 L 623.5173 350.0257 L 623.9222 348.7984 L 623.2401 347.9698 L 622.5267 346.3177 L 623.7896 345.8029 L 624.6741 344.7332 L 624.7368 343.8249 L 625.373 343.7891 L 626.5539 342.9525 L 627.7589 343.0644 L 629.0218 342.7691 L 630.3569 343.7399 L 632.7694 344.1873 L 634.1311 345.0465 L 638.0329 344.6572 L 638.5004 344.1112 L 640.2694 344.0352 Z" fill="[object Object]" fill-opacity="1" stroke="rgba(30,144,255,1)" stroke-width="1" paint-order="fill" stroke-opacity="1" stroke-dasharray="" stroke-linecap="butt" stroke-miterlimit="10" style="filter: url(&quot;#zr2323-shadow-0&quot;);">
</path>
<path d="M 645.2268 263.3908 L 645.3039 262.1997 L 643.6483 261.9581 L 643.8579 259.6165 L 643.294 258.4133 L 643.7905 257.5835 L 643.7567 256.6003 L 642.865 255.4725 L 643.147 254.7924 L 642.8337 253.3098 L 641.819 251.0781 L 641.9227 249.9605 L 641.0864 247.8618 L 640.9442 246.0707 L 641.4648 244.3809 L 641.2407 242.7575 L 642.0673 241.3927 L 642.1565 239.6392 L 641.8287 238.979 L 642.0528 237.9082 L 641.484 236.9425 L 641.8721 234.5924 L 642.6168 233.2564 L 642.8313 231.6239 L 642.036 229.9442 L 642.9831 228.8407 L 643.3012 227.9903 L 643.2506 225.6015 L 642.7373 224.4992 L 643.0867 222.9746 L 641.9661 221.986 L 640.9587 220.5712 L 639.9103 218.2996 L 638.7414 217.46 L 638.6884 216.5859 L 639.3319 216.3554 L 640.3658 217.2948 L 640.5104 215.5379 L 641.1418 214.6859 L 640.6454 214.0947 L 639.8621 214.9641 L 639.5802 214.5555 L 640.3128 213.4864 L 639.8163 212.7737 L 638.4908 212.5434 L 638.3076 211.9656 L 639.2283 212.0091 L 639.7922 210.68 L 639.932 209.512 L 639.2765 209.195 L 639.7898 208.6307 L 639.9995 207.485 L 639.5609 206.9165 L 638.257 206.6518 L 637.9702 205.9924 L 639.3391 205.4285 L 639.6283 203.0913 L 640.0501 201.8083 L 639.7561 200.894 L 638.4836 201.7303 L 637.9533 201.5396 L 637.3918 202.5538 L 636.9725 200.8074 L 635.8012 200.2614 L 634.5649 201.3403 L 633.8901 201.1756 L 633.5141 200.0362 L 632.3934 199.2175 L 630.2268 198.6719 L 629.3664 200.0578 L 627.0745 200.9157 L 625.8912 200.2398 L 624.9947 198.8061 L 623.5848 197.7669 L 623.5462 196.4509 L 622.6907 194.097 L 623.2763 192.0384 L 622.7967 191.2515 L 621.8351 192.1508 L 621.3073 190.9533 L 621.476 189.406 L 620.3216 187.9026 L 620.9241 187.5052 L 621.7387 188.274 L 622.775 187.9804 L 623.4908 185.7261 L 623.4113 184.6124 L 622.6955 184.1117 L 621.717 184.3664 L 619.16 183.0718 L 618.8394 181.8855 L 617.9622 182.9553 L 618.2731 183.9046 L 617.1741 184.2974 L 615.569 183.814 L 614.3519 185.0268 L 613.7591 184.5994 L 612.2625 184.306 L 613.1734 182.0753 L 614.3688 182.3902 L 614.0049 180.0312 L 613.2 180.2511 L 612.7396 179.113 L 612.7131 177.4667 L 611.1201 177.0617 L 611.284 175.7047 L 610.4092 175.1147 L 608.392 175.8426 L 606.9291 176.0062 L 604.4853 174.9683 L 603.9744 173.7326 L 602.82 172.7426 L 601.668 172.5317 L 600.9787 171.5936 L 599.9785 172.2133 L 599.3399 173.7283 L 598.5518 173.7585 L 597.8336 174.4688 L 596.5129 174.9597 L 595.5537 176.5921 L 595.0018 178.2165 L 594.1655 178.5828 L 594.7174 180.0269 L 593.2377 179.6216 L 592.9485 180.1907 L 592.1893 180.1002 L 590.7674 180.6047 L 590.5505 181.631 L 590.0492 181.0358 L 588.9502 181.5059 L 587.8392 181.1566 L 587.6392 182.4204 L 586.3329 181.6353 L 585.2918 181.4197 L 585.0122 182.2694 L 583.6433 182.002 L 582.7251 183.4861 L 582.4094 182.9251 L 580.9297 182.4549 L 580.9634 183.6198 L 580.4597 183.4645 L 579.715 184.5088 L 578.8402 184.7246 L 578.3003 186.391 L 577.0375 186.1147 L 575.9457 186.3047 L 575.7361 187.0086 L 575.1745 185.3117 L 574.5937 184.7073 L 574.8636 185.9031 L 574.4949 186.214 L 574.2226 187.9544 L 574.5889 189.3628 L 575.4541 189.5227 L 575.4589 190.9922 L 574.2105 190.789 L 573.4248 191.779 L 572.8006 191.619 L 571.88 193.1843 L 571.075 192.6135 L 570.863 193.1065 L 569.9279 193.033 L 570.2122 193.8591 L 569.523 194.8843 L 570.7521 195.5637 L 571.2558 196.5937 L 572.362 196.9963 L 572.6464 197.7495 L 572.1499 198.0916 L 572.1861 199.2522 L 570.6533 200.8247 L 570.2436 200.0275 L 569.3302 200.3914 L 567.3009 199.6073 L 566.6406 198.2865 L 565.7537 197.2084 L 564.5077 197.9531 L 564.0835 197.7539 L 563.5509 199.1526 L 561.8711 200.1705 L 560.9409 200.0362 L 560.1552 199.2349 L 559.4732 199.3475 L 558.9092 197.9184 L 559.8467 198.1219 L 561.1915 197.1954 L 560.9601 196.0397 L 561.6036 194.4907 L 560.9433 192.8816 L 561.4253 190.2876 L 561.1192 189.4363 L 559.9552 188.0192 L 560.0612 186.5076 L 558.8634 186.4083 L 557.4415 185.2512 L 558.3453 184.8152 L 558.8538 183.4861 L 556.8559 181.8683 L 556.439 179.4923 L 556.5643 177.7425 L 556.0244 176.6869 L 555.5111 176.717 L 555.5472 178.1432 L 553.6192 177.7338 L 553.6529 176.7902 L 552.8673 178.5483 L 551.8671 179.3888 L 549.5101 180.3416 L 548.3967 180.4236 L 547.5556 181.2687 L 548.9317 182.7828 L 548.7678 183.5853 L 549.4282 184.4311 L 550.3054 184.8152 L 550.0258 186.2874 L 549.0377 186.3133 L 549.3776 187.3065 L 548.9196 188.1574 L 548.146 188.5765 L 547.4206 189.8252 L 545.8035 190.2271 L 545.7625 188.4944 L 544.208 188.7493 L 543.6778 188.0235 L 543.326 191.0656 L 542.7668 192.1595 L 539.8411 192.3194 L 537.7564 193.2622 L 536.7755 194.8541 L 536.0814 194.8497 L 535.5922 194.1705 L 533.8232 194.7329 L 533.763 192.034 L 532.917 190.266 L 532.57 187.5657 L 532.2326 187.0604 L 530.9553 187.0992 L 531.0107 185.8384 L 530.0178 185.6786 L 529.4394 186.5508 L 528.9068 186.5508 L 527.9211 187.8248 L 527.9934 189.5659 L 526.9378 190.2833 L 527.8006 190.8279 L 527.3668 191.7746 L 526.0991 191.4547 L 524.9133 192.6264 L 525.6123 192.5054 L 525.9472 194.3132 L 526.7739 195.317 L 525.8002 196.624 L 524.6772 195.8104 L 524.2506 196.1522 L 524.8748 197.7495 L 525.3375 198.1393 L 525.7231 199.6073 L 526.0171 198.4077 L 526.986 198.5116 L 528.1356 199.3561 L 527.95 200.1835 L 526.9305 200.2051 L 525.6484 200.8593 L 526.1907 201.4833 L 526.9016 203.8803 L 527.0631 205.4025 L 526.8944 207.2853 L 525.7159 207.8061 L 524.7591 208.7479 L 526.798 210.4542 L 527.8078 209.9592 L 528.7839 210.9797 L 530.9505 211.8788 L 531.2325 211.3966 L 532.8881 212.4218 L 533.5437 213.5341 L 534.58 213.243 L 534.5318 213.8992 L 536.0163 216.4554 L 535.8693 218.4997 L 537.4166 218.0603 L 537.6841 218.7695 L 537.901 217.5688 L 538.6867 217.1077 L 539.4651 217.8602 L 539.4579 219.0654 L 538.5758 219.6615 L 540.4219 221.9599 L 541.0919 222.1646 L 541.8366 221.0195 L 542.4632 221.4984 L 542.3764 222.4563 L 543.3284 222.4955 L 544.3116 223.0486 L 544.4105 223.837 L 545.3384 223.776 L 546.1216 222.3039 L 546.7723 220.0793 L 547.8207 220.0227 L 547.0591 221.3939 L 547.558 223.3491 L 548.7654 223.3665 L 549.4764 224.5776 L 549.8017 223.5669 L 550.5223 224.3554 L 551.3176 223.9154 L 552.7492 224.0461 L 553.5445 224.6909 L 553.7879 226.2335 L 554.8845 227.0312 L 555.5713 229.5865 L 555.2942 230.2888 L 556.0292 230.2015 L 557.7717 231.6239 L 558.8176 231.2704 L 559.29 231.6458 L 560.0371 230.3717 L 559.8684 228.7578 L 560.8059 229.8656 L 562.0447 230.76 L 563.3413 231.157 L 564.4017 231.0217 L 565.7561 233.7672 L 565.3512 235.1951 L 565.3753 237.8732 L 565.9152 239.9495 L 565.5392 241.0559 L 566.3273 243.2519 L 567.9155 246.2677 L 568.3132 247.4983 L 567.6986 248.6941 L 568.1083 249.1148 L 567.4142 250.2892 L 567.0648 252.1741 L 567.3202 254.0686 L 566.1947 255.5866 L 565.9754 257.8689 L 565.0235 258.3298 L 563.1388 258.0138 L 562.3242 258.6153 L 562.0615 259.6385 L 560.2034 260.5214 L 559.4033 262.3755 L 560.2155 263.6678 L 560.589 265.0571 L 560.3962 268.6776 L 560.8421 269.4126 L 560.1359 271.0987 L 560.6926 273.0807 L 560.3962 274.1601 L 561.0855 277.2633 L 562.0953 277.6866 L 562.2543 278.3834 L 564.3824 279.9759 L 564.568 280.8805 L 566.0863 281.0482 L 567.3901 282.8535 L 567.9034 282.5268 L 568.9301 282.8315 L 569.5543 283.6262 L 570.6172 283.8956 L 570.957 285.4281 L 571.6462 286.6387 L 571.6318 287.5137 L 572.3282 289.1359 L 572.1331 289.9009 L 573.4851 289.839 L 573.9285 291.5417 L 574.8564 291.8292 L 576.0807 291.5063 L 577.1387 290.7986 L 577.9991 289.1094 L 579.8186 286.705 L 579.486 286.0422 L 580.0452 284.664 L 580.9803 283.2994 L 580.9658 282.6372 L 581.8575 282.1163 L 581.7322 281.4939 L 582.5154 280.4348 L 584.1928 280.7216 L 585.2171 279.495 L 587.8898 278.648 L 588.8804 278.6833 L 590.5626 281.8338 L 591.5145 282.0677 L 594.6837 281.8956 L 597.3516 281.9971 L 597.3564 282.5004 L 598.4144 283.1096 L 599.1302 282.5092 L 599.8966 282.6504 L 599.9617 284.0634 L 600.3858 284.6199 L 599.5544 285.6932 L 600.1858 285.7728 L 600.3448 286.5636 L 599.9135 287.5181 L 601.0221 288.9635 L 601.1088 291.1259 L 601.8439 289.5338 L 602.1765 287.3192 L 603.2562 286.294 L 606.1554 286.3515 L 609.5825 288.2341 L 610.5465 288.1148 L 611.8744 286.811 L 614.429 286.3162 L 614.752 287.085 L 615.5425 286.9392 L 616.0703 287.5004 L 617.0223 286.7624 L 617.3018 287.5579 L 618.1164 288.0794 L 620.283 287.9115 L 621.5435 288.1767 L 622.0833 286.8022 L 622.816 288.2562 L 624.4018 287.8054 L 625.8839 288.3667 L 626.5129 287.4386 L 627.1034 287.3413 L 628.0289 285.6093 L 629.9496 284.8716 L 630.8462 283.9618 L 631.1499 282.9948 L 631.8728 282.571 L 631.5403 280.5539 L 633.6876 280.9908 L 634.0756 279.4156 L 632.7477 278.3305 L 632.9911 277.691 L 632.0536 276.6504 L 631.8367 275.6365 L 631.0872 275.3808 L 630.3449 274.4289 L 629.4556 274.354 L 627.8023 273.3802 L 629.0411 271.4334 L 631.521 270.8169 L 631.9765 271.1472 L 634.0419 271.3365 L 634.7504 270.249 L 635.9988 269.0561 L 637.7292 268.7876 L 638.3799 267.2651 L 639.4379 265.8531 L 642.5999 264.824 L 643.5832 263.8436 L 645.2268 263.3908 Z" fill="[object Object]" fill-opacity="1" stroke="dodgerblue" stroke-width="1" paint-order="fill" stroke-opacity="1" stroke-dasharray="" stroke-linecap="butt" stroke-miterlimit="10" style="filter: url(&quot;#zr2323-shadow-1&quot;);">
</path>
<path d="M 540.7593 383.0924 L 538.8361 382.0233 L 537.0695 381.7076 L 536.4646 381.0852 L 535.6235 381.897 L 534.4306 380.9093 L 532.3869 383.9722 L 531.3746 383.7602 L 528.5862 382.5375 L 527.4945 382.6413 L 526.7377 382.2037 L 525.7544 382.321 L 524.829 383.6699 L 523.8626 383.6067 L 522.942 382.8352 L 521.1898 383.7691 L 520.1728 383.4894 L 518.2689 384.8522 L 517.2398 384.7665 L 516.2011 385.8406 L 514.355 386.4682 L 513.3814 386.3598 L 512.3836 384.5995 L 510.6942 384.252 L 509.4144 383.0743 L 509.7735 382.0323 L 509.3614 381.7707 L 509.4121 379.9083 L 510.1061 379.4846 L 510.364 378.191 L 510.94 377.2716 L 510.1254 377.0058 L 509.159 378.4614 L 508.207 377.9927 L 508.0407 378.5785 L 506.2983 379.9129 L 505.5199 380.8913 L 504.4643 380.7515 L 504.2232 379.7641 L 503.4496 378.7273 L 502.7001 378.3803 L 501.994 379.3088 L 502.3531 377.2716 L 501.3119 377.3438 L 501.0468 376.803 L 499.9888 376.8256 L 499.4008 375.8975 L 499.261 374.1275 L 498.4994 373.9384 L 498.2319 375.0102 L 498.4295 377.7763 L 497.7981 378.3622 L 495.7086 378.0062 L 493.7179 376.5372 L 492.8382 375.393 L 492.0165 375.3615 L 491.9586 374.6544 L 490.5728 373.9068 L 490.5222 375.3435 L 489.8956 376.5508 L 488.9919 376.1363 L 488.4906 377.5104 L 488.4062 382.321 L 488.1315 384.622 L 487.7941 384.8973 L 484.6562 383.5661 L 483.0102 383.5616 L 484.2971 384.9289 L 483.5163 385.5653 L 481.6413 385.931 L 481.8533 387.2809 L 481.1207 388.1299 L 480.6218 389.6746 L 479.7349 390.3749 L 479.0963 389.7469 L 479.0577 390.5692 L 478.1877 390.8494 L 478.3251 392.404 L 477.4068 394.0768 L 475.4451 393.1047 L 474.7413 393.7241 L 473.8448 392.6888 L 473.7051 389.6792 L 473.4616 388.4866 L 472.8109 388.1569 L 470.866 388.5499 L 469.4634 389.9367 L 468.7838 389.9457 L 467.4534 388.9789 L 466.3689 389.399 L 464.6915 391.229 L 462.5876 392.2097 L 460.768 391.1838 L 460.9271 390.2394 L 460.3318 390.7952 L 459.2931 390.9081 L 459.3919 389.6746 L 460.2498 389.381 L 458.3797 388.2699 L 457.4253 388.9925 L 456.6661 388.6808 L 455.9431 389.4894 L 455.5455 388.6808 L 454.7068 388.9925 L 453.9018 388.5318 L 453.1644 388.8615 L 452.8246 389.9411 L 451.3785 391.7486 L 450.6772 391.6718 L 449.2384 394.2893 L 448.1346 395.3612 L 447.6743 397.2386 L 447.9659 399.7867 L 447.6189 401.3488 L 446.4862 401.5752 L 444.0014 401.2084 L 443.5652 400.8914 L 442.5651 401.4665 L 443.6206 403.3735 L 444.5027 404.3612 L 444.1894 406.0336 L 445.0136 406.9448 L 446.021 407.1669 L 446.0765 408.0511 L 447.5827 408.5455 L 448.9974 409.6386 L 450.8387 409.312 L 451.4557 409.5297 L 453.3644 411.5442 L 453.4246 414.118 L 452.5233 414.1497 L 452.4703 412.2159 L 451.7255 411.6395 L 451.2725 412.7969 L 451.593 413.3643 L 450.4121 414.7536 L 451.5448 414.4721 L 451.405 415.344 L 452.104 416.3797 L 451.3472 416.8339 L 451.9569 418.4197 L 451.1954 419.0196 L 451.1207 419.7514 L 451.74 420.4015 L 451.2942 423.0663 L 448.9613 426.1285 L 447.5056 425.4686 L 445.7728 426.8067 L 443.6737 428.0041 L 442.165 428.1088 L 440.3719 428.5596 L 439.8682 429.2656 L 437.61 429.598 L 436.5617 427.9221 L 435.2458 427.7719 L 434.4023 427.2346 L 433.5443 427.995 L 433.6286 429.7984 L 434.8433 431.2198 L 435.3181 434.4512 L 436.1736 434.3281 L 436.1062 435.3358 L 436.6677 436.1886 L 436.2387 436.5124 L 436.4869 438.0771 L 437.3835 437.8444 L 437.851 439.5099 L 439.0657 439.3502 L 440.0658 438.4239 L 441.2709 437.9859 L 442.994 436.1338 L 443.6953 436.4576 L 444.3123 435.6732 L 445.0715 435.696 L 445.5222 436.6629 L 446.8549 435.4315 L 447.32 435.5501 L 447.0862 434.4238 L 447.6815 432.4273 L 448.5034 432.874 L 448.795 432.3544 L 450.0145 431.9215 L 452.2775 432.2223 L 453.4656 431.1469 L 454.5501 432.3225 L 455.2346 432.2268 L 455.6587 430.6731 L 456.7047 430.9646 L 457.6784 432.5412 L 458.6713 432.5549 L 458.7146 434.1093 L 457.4397 434.8752 L 457.794 435.9012 L 457.9627 435.9058 L 457.9531 436.1703 L 457.7507 436.2205 L 459.7751 438.3691 L 460.8379 438.3281 L 461.1849 439.1448 L 461.8405 438.9075 L 462.0502 439.6012 L 465.4868 439.8431 L 466.4243 441.1029 L 467.3474 440.5917 L 469.4538 441.0391 L 470.7985 442.4499 L 471.0395 443.5597 L 472.3578 444.1216 L 473.6327 442.8061 L 473.6616 441.692 L 474.0931 442.0846 L 475.6041 442.2946 L 476.4694 441.2171 L 478.4817 440.8154 L 479.3951 440.1033 L 481.0749 440.5141 L 482.5282 439.9846 L 483.4078 438.9486 L 485.4009 437.3152 L 487.3844 437.3745 L 487.5892 439.6195 L 487.9628 438.7615 L 489.2136 439.1677 L 490.1679 438.2915 L 491.2838 438.036 L 492.5756 438.2779 L 493.1444 439.2818 L 495.1447 438.5151 L 496.1352 438.8071 L 497.145 438.2641 L 497.8848 438.7752 L 499.4177 438.9714 L 499.1188 440.2402 L 499.4827 441.144 L 500.2901 441.2582 L 500.7673 442.2855 L 500.7046 443.5414 L 501.1312 445.0078 L 500.4708 447.6951 L 499.9743 448.2665 L 501.0011 449.7023 L 501.941 451.6096 L 504.5582 452.4149 L 505.4138 454.4286 L 506.2742 455.3167 L 507.6696 456.031 L 508.501 454.305 L 508.5975 453.1699 L 509.7615 451.1796 L 511.5618 450.274 L 512.4415 448.4585 L 513.8392 448.5088 L 514.8876 448.9706 L 514.5912 450.5712 L 514.9888 452.5385 L 515.7866 452.9365 L 515.9625 453.9068 L 515.4684 454.4927 L 515.7624 455.2251 L 517.1241 454.8039 L 517.6736 456.4568 L 518.6111 457.1941 L 520.5319 456.3423 L 521.667 455.5685 L 523.2625 455.8799 L 523.8529 455.4952 L 525.0676 456.3103 L 525.7303 457.6247 L 525.7086 458.6141 L 526.6293 460.1857 L 528.2127 459.6633 L 529.6418 462.9223 L 531.6132 466.0917 L 532.9412 467.2434 L 533.9051 466.5735 L 535.3367 467.5463 L 537.6238 470.3925 L 538.3083 470.3282 L 539.5085 468.6479 L 539.2675 466.7203 L 539.9399 466.2202 L 541.0316 466.2339 L 542.1812 465.5136 L 543.6417 466.3532 L 544.4201 466.3257 L 545.0467 465.2017 L 546.059 464.0825 L 545.4854 462.2576 L 544.2153 460.7861 L 543.7935 459.0311 L 543.0705 457.7758 L 543.3886 456.9377 L 544.1791 457.1804 L 543.326 454.3599 L 543.5597 453.9892 L 545.0226 454.0029 L 545.8734 454.6254 L 546.2806 454.0533 L 548.8329 452.1221 L 550.1753 450.7954 L 550.1247 449.5193 L 549.0233 448.1156 L 548.9341 446.6529 L 547.3507 445.017 L 546.3578 444.5921 L 546.7506 443.8931 L 549.3269 444.7337 L 549.6234 444.1946 L 549.0835 440.9386 L 549.1703 440.2585 L 548.0593 439.802 L 548.5606 438.5653 L 548.1581 437.8034 L 546.4132 435.7416 L 544.7913 435.6823 L 544.7648 434.8889 L 543.8875 435.167 L 543.5622 433.8859 L 543.9405 433.4483 L 543.2103 432.7919 L 542.7837 431.0739 L 541.7618 429.557 L 541.7715 428.1726 L 543.7405 425.8509 L 543.7983 423.3756 L 544.2635 422.2248 L 544.0249 421.429 L 542.4704 418.6969 L 542.2608 417.5018 L 542.8632 415.2305 L 542.5909 412.0797 L 542.9813 410.9452 L 541.4437 411.3445 L 541.733 410.8635 L 540.4388 410.065 L 540.5231 409.4345 L 539.4024 408.3232 L 539.8796 408.1509 L 540.1351 406.913 L 540.7039 406.1379 L 540.2773 404.6286 L 540.8509 403.224 L 542.4873 401.8696 L 542.8416 400.8642 L 542.3788 400.339 L 543.4079 399.4517 L 544.4996 400.0764 L 545.1287 398.5826 L 544.8371 396.8178 L 542.7451 394.7868 L 541.7257 394.5833 L 541.0196 393.6879 L 541.2678 392.5352 L 541.0172 390.4246 L 541.4341 389.1054 L 540.9328 388.175 L 541.2124 386.3418 L 540.6701 384.7574 L 540.7593 383.0924 Z M 457.9627 435.9058 L 457.794 435.9012 L 457.7507 436.2205 L 457.9531 436.1703 L 457.9627 435.9058 Z" fill="[object Object]" fill-opacity="1" stroke="dodgerblue" stroke-width="1" paint-order="fill" stroke-opacity="1" stroke-dasharray="" stroke-linecap="butt" stroke-miterlimit="10" style="filter: url(&quot;#zr2323-shadow-1&quot;);">
</path>
<path d="M 639.7561 200.894 L 639.3271 200.0319 L 638.016 198.8451 L 638.2691 198.1999 L 639.5102 198.3471 L 640.6984 199.0746 L 641.0792 198.4987 L 639.9802 198.0829 L 640.0597 197.1392 L 641.5057 196.9227 L 642.9831 194.5772 L 644.6484 192.994 L 644.8461 191.3467 L 646.6994 189.3326 L 649.4468 185.221 L 649.9384 183.6759 L 651.1169 183.3955 L 650.6422 181.6741 L 651.2808 181.2256 L 651.3266 179.9018 L 649.5143 179.488 L 648.772 178.9793 L 648.678 177.1565 L 649.3624 174.9597 L 653.4161 174.2579 L 653.9777 173.1171 L 654.0259 171.3139 L 654.5175 170.3804 L 654.5103 169.3654 L 655.508 167.8132 L 654.5585 166.3347 L 654.2018 163.7142 L 655.4406 163.0915 L 655.5586 162.4046 L 654.6886 161.4086 L 653.1703 160.9322 L 651.8086 160.0439 L 651.6809 159.3017 L 652.2304 158.7398 L 653.6571 158.3237 L 653.8644 157.2687 L 653.0305 156.4113 L 650.7121 155.3139 L 649.8902 154.3112 L 649.4637 152.5248 L 647.6513 149.3865 L 646.8416 147.6921 L 645.1545 146.9265 L 644.1013 146.1096 L 643.8555 145.2288 L 644.3472 144.1173 L 643.4989 142.878 L 643.2193 141.417 L 643.5277 140.1357 L 643.2386 138.1165 L 644.0459 136.6486 L 643.6025 135.3731 L 643.4892 133.271 L 644.1616 131.8432 L 645.598 131.8432 L 645.9763 131.4512 L 646.0053 129.8749 L 646.4029 127.0009 L 647.4007 126.3881 L 648.972 126.5838 L 650.218 126.0859 L 651.6014 123.8695 L 653.6402 122.9679 L 654.0017 121.242 L 654.785 118.9815 L 655.5876 118.2807 L 656.7685 118.5058 L 657.424 119.0325 L 658.829 118.2679 L 658.6579 115.1857 L 660.2293 114.5068 L 660.3016 112.1568 L 660.7402 111.101 L 659.7666 110.7576 L 659.1038 108.5962 L 659.7569 106.8722 L 660.586 105.9702 L 660.5522 104.2769 L 661.4849 103.4686 L 662.6297 101.4085 L 662.2633 100.2329 L 663.2201 99.6199 L 663.9479 97.5322 L 664.5167 96.6112 L 663.9287 95.1372 L 664.6107 94.563 L 664.7529 93.5625 L 664.5095 91.5328 L 663.866 89.9932 L 663.2563 89.3185 L 664.0275 87.8515 L 665.6952 86.6462 L 667.8184 86.2586 L 669.8863 84.1821 L 670.2622 82.1572 L 670.8985 81.7153 L 671.3853 80.2258 L 670.9226 79.2584 L 673.2627 74.0553 L 673.0337 73.4127 L 673.6049 71.8928 L 674.4557 70.8939 L 673.0458 70.9527 L 671.9637 70.2225 L 671.607 69.526 L 672.2264 68.7626 L 671.983 68.1796 L 670.8647 69.0394 L 670.5852 67.211 L 669.3512 67.3116 L 668.621 67.8651 L 667.7196 66.5486 L 668.1872 65.1864 L 667.7221 64.7297 L 666.7894 65.3876 L 666.3484 63.7703 L 666.5363 62.7776 L 667.7317 62.2751 L 667.7799 61.6219 L 668.6523 61.2996 L 668.2812 60.793 L 668.58 59.9015 L 670.3273 58.0356 L 670.5827 56.0242 L 669.8212 55 L 668.3222 56.5384 L 665.9242 56.8102 L 665.8085 56.0785 L 664.8155 56.9524 L 663.9528 57.1907 L 663.6828 57.7888 L 662.3838 58.7718 L 659.5231 59.3576 L 658.3543 60.8265 L 655.9972 64.8093 L 654.9947 66.1042 L 654.4042 66.3935 L 653.1366 68.3138 L 652.91 70.5498 L 651.652 72.4806 L 651.0471 72.8375 L 650.2614 72.3672 L 648.4466 72.8752 L 647.2031 71.9684 L 645.9619 69.9917 L 645.6365 68.1125 L 644.07 66.3767 L 643.1253 67.6345 L 642.4312 67.6386 L 641.8817 66.8253 L 640.4381 66.5067 L 639.6669 68.3054 L 640.1923 68.6745 L 638.3534 70.4365 L 637.7172 69.3792 L 636.5001 68.7038 L 634.6444 66.7792 L 633.9913 65.7648 L 633.0128 65.044 L 633.813 64.3065 L 632.4199 64.118 L 631.3162 63.0247 L 630.8582 63.3472 L 628.6097 62.4258 L 627.8096 62.7441 L 627.518 64.4992 L 627.9518 65.8989 L 628.8772 66.0205 L 629.9834 68.058 L 630.7161 70.1092 L 631.0535 72.0566 L 630.3208 72.0986 L 628.9182 73.081 L 626.8648 73.8285 L 625.508 74.887 L 622.6858 76.1265 L 620.6638 75.9415 L 619.7673 74.3745 L 618.1526 72.5898 L 616.7403 73.8285 L 617.2922 74.7568 L 617.9236 74.7022 L 620.5698 77.3453 L 617.7838 79.8851 L 618.9647 81.7952 L 617.6585 81.9636 L 617.2898 81.2524 L 616.3692 80.8232 L 614.4942 82.4013 L 613.5735 83.6347 L 612.2769 84.5611 L 610.7273 86.7432 L 609.8669 86.8232 L 609.2981 88.1803 L 608.4932 87.9358 L 608.2136 88.7915 L 609.0523 89.542 L 608.9848 91.3683 L 608.4498 91.8745 L 607.5412 94.2168 L 606.5001 95.8931 L 603.3743 98.6181 L 601.7595 97.0505 L 600.8413 98.1913 L 599.2338 99.5565 L 598.8868 100.5458 L 597.6287 101.861 L 597.2697 103.3671 L 594.5391 104.4335 L 594.0041 106.1904 L 594.127 106.724 L 595.7032 108.3632 L 594.2306 110.215 L 593.3485 109.9607 L 591.9435 108.8166 L 588.5984 112.742 L 587.8368 114.5195 L 586.5161 115.3385 L 585.7425 116.769 L 584.229 118.2764 L 582.6287 119.3681 L 582.8601 120.7788 L 582.5034 122.0879 L 580.6839 123.5463 L 579.9271 126.2391 L 579.3703 127.0179 L 578.7606 128.7975 L 579.3752 129.6662 L 578.4787 131.3958 L 577.7821 132.0136 L 578.1485 134.064 L 578.8691 134.9552 L 581.1851 136.9131 L 583.0192 138.0013 L 583.2385 138.5049 L 582.4817 140.5243 L 583.2674 142.3098 L 581.9491 142.3952 L 581.5683 143.7369 L 581.0044 144.5533 L 581.0887 145.2716 L 579.5005 145.8659 L 579.2764 147.397 L 577.6689 147.9702 L 576.8856 145.8402 L 575.912 144.8141 L 575.4565 142.8225 L 574.3069 141.4554 L 573.2658 140.8147 L 571.8848 140.9215 L 573.0995 143.8652 L 573.0248 144.532 L 571.9089 147.2986 L 571.6511 150.692 L 571.6993 153.8741 L 572.0415 155.1896 L 571.3426 156.7328 L 571.2871 158.2594 L 571.6486 160.3271 L 571.0485 161.2627 L 569.5399 161.1511 L 568.3589 161.4215 L 567.7757 162.0353 L 564.7969 163.0099 L 564.0811 162.8983 L 561.9169 161.3614 L 560.789 160.8679 L 558.461 161.7821 L 556.1738 163.1989 L 553.1951 163.6154 L 552.4286 164.0793 L 551.0959 163.6498 L 550.7464 162.7437 L 548.8088 162.2543 L 547.0952 162.8124 L 546.5964 163.7872 L 544.9359 164.5904 L 544.0948 164.6977 L 543.0199 163.813 L 541.7137 163.5252 L 541.0099 163.0185 L 539.5519 163.1431 L 539.0409 162.2672 L 539.5109 160.4172 L 539.0771 158.8985 L 538.2239 158.3838 L 537.6503 156.7285 L 537.7323 155.4725 L 535.8549 155.0353 L 534.0763 153.9984 L 533.669 154.294 L 531.9024 153.1416 L 530.7794 153.1373 L 527.6511 152.2292 L 525.2339 149.8617 L 524.9206 150.5294 L 523.8433 151.1544 L 524.2217 152.2978 L 523.6722 154.4697 L 522.6069 156.1026 L 521.708 155.2539 L 520.5392 156.0597 L 518.534 156.2698 L 517.5194 156.677 L 517.1699 157.8091 L 516.9289 159.9796 L 516.1071 160.8335 L 514.6466 161.2241 L 513.6633 160.7348 L 512.8174 160.8378 L 512.9307 161.9495 L 514.2899 162.2929 L 514.2008 163.1216 L 513.2295 162.997 L 511.7474 165.1832 L 510.229 165.5741 L 509.7061 165.3593 L 510.4556 166.816 L 512.0655 166.6183 L 512.2028 167.0395 L 511.6558 169.2622 L 511.0918 170.4536 L 508.5227 172.5145 L 508.4938 174.8133 L 507.9684 177.6304 L 507.5491 178.7164 L 507.4189 180.609 L 508.0552 183.1667 L 508.8987 183.9305 L 509.5711 186.0845 L 508.8191 185.9506 L 507.9371 186.6285 L 509.9205 188.2568 L 510.6026 189.7172 L 510.7641 190.8236 L 510.4821 192.1551 L 509.4747 193.8115 L 508.2697 192.2632 L 508.2408 193.7034 L 507.8696 193.8677 L 508.5613 196.2691 L 508.3227 197.0915 L 508.6529 199.8456 L 509.359 202.116 L 508.9638 203.3601 L 509.6699 204.2749 L 510.5544 203.5725 L 512.1378 204.7346 L 515.3431 205.0338 L 516.6301 204.5308 L 518.9654 206.834 L 518.7461 207.5847 L 519.2329 208.9867 L 521.3561 208.5613 L 521.8912 209.143 L 523.395 209.551 L 524.7591 208.7479 L 525.7159 207.8061 L 526.8944 207.2853 L 527.0631 205.4025 L 526.9016 203.8803 L 526.1907 201.4833 L 525.6484 200.8593 L 526.9305 200.2051 L 527.95 200.1835 L 528.1356 199.3561 L 526.986 198.5116 L 526.0171 198.4077 L 525.7231 199.6073 L 525.3375 198.1393 L 524.8748 197.7495 L 524.2506 196.1522 L 524.6772 195.8104 L 525.8002 196.624 L 526.7739 195.317 L 525.9472 194.3132 L 525.6123 192.5054 L 524.9133 192.6264 L 526.0991 191.4547 L 527.3668 191.7746 L 527.8006 190.8279 L 526.9378 190.2833 L 527.9934 189.5659 L 527.9211 187.8248 L 528.9068 186.5508 L 529.4394 186.5508 L 530.0178 185.6786 L 531.0107 185.8384 L 530.9553 187.0992 L 532.2326 187.0604 L 532.57 187.5657 L 532.917 190.266 L 533.763 192.034 L 533.8232 194.7329 L 535.5922 194.1705 L 536.0814 194.8497 L 536.7755 194.8541 L 537.7564 193.2622 L 539.8411 192.3194 L 542.7668 192.1595 L 543.326 191.0656 L 543.6778 188.0235 L 544.208 188.7493 L 545.7625 188.4944 L 545.8035 190.2271 L 547.4206 189.8252 L 548.146 188.5765 L 548.9196 188.1574 L 549.3776 187.3065 L 549.0377 186.3133 L 550.0258 186.2874 L 550.3054 184.8152 L 549.4282 184.4311 L 548.7678 183.5853 L 548.9317 182.7828 L 547.5556 181.2687 L 548.3967 180.4236 L 549.5101 180.3416 L 551.8671 179.3888 L 552.8673 178.5483 L 553.6529 176.7902 L 553.6192 177.7338 L 555.5472 178.1432 L 555.5111 176.717 L 556.0244 176.6869 L 556.5643 177.7425 L 556.439 179.4923 L 556.8559 181.8683 L 558.8538 183.4861 L 558.3453 184.8152 L 557.4415 185.2512 L 558.8634 186.4083 L 560.0612 186.5076 L 559.9552 188.0192 L 561.1192 189.4363 L 561.4253 190.2876 L 560.9433 192.8816 L 561.6036 194.4907 L 560.9601 196.0397 L 561.1915 197.1954 L 559.8467 198.1219 L 558.9092 197.9184 L 559.4732 199.3475 L 560.1552 199.2349 L 560.9409 200.0362 L 561.8711 200.1705 L 563.5509 199.1526 L 564.0835 197.7539 L 564.5077 197.9531 L 565.7537 197.2084 L 566.6406 198.2865 L 567.3009 199.6073 L 569.3302 200.3914 L 570.2436 200.0275 L 570.6533 200.8247 L 572.1861 199.2522 L 572.1499 198.0916 L 572.6464 197.7495 L 572.362 196.9963 L 571.2558 196.5937 L 570.7521 195.5637 L 569.523 194.8843 L 570.2122 193.8591 L 569.9279 193.033 L 570.863 193.1065 L 571.075 192.6135 L 571.88 193.1843 L 572.8006 191.619 L 573.4248 191.779 L 574.2105 190.789 L 575.4589 190.9922 L 575.4541 189.5227 L 574.5889 189.3628 L 574.2226 187.9544 L 574.4949 186.214 L 574.8636 185.9031 L 574.5937 184.7073 L 575.1745 185.3117 L 575.7361 187.0086 L 575.9457 186.3047 L 577.0375 186.1147 L 578.3003 186.391 L 578.8402 184.7246 L 579.715 184.5088 L 580.4597 183.4645 L 580.9634 183.6198 L 580.9297 182.4549 L 582.4094 182.9251 L 582.7251 183.4861 L 583.6433 182.002 L 585.0122 182.2694 L 585.2918 181.4197 L 586.3329 181.6353 L 587.6392 182.4204 L 587.8392 181.1566 L 588.9502 181.5059 L 590.0492 181.0358 L 590.5505 181.631 L 590.7674 180.6047 L 592.1893 180.1002 L 592.9485 180.1907 L 593.2377 179.6216 L 594.7174 180.0269 L 594.1655 178.5828 L 595.0018 178.2165 L 595.5537 176.5921 L 596.5129 174.9597 L 597.8336 174.4688 L 598.5518 173.7585 L 599.3399 173.7283 L 599.9785 172.2133 L 600.9787 171.5936 L 601.668 172.5317 L 602.82 172.7426 L 603.9744 173.7326 L 604.4853 174.9683 L 606.9291 176.0062 L 608.392 175.8426 L 610.4092 175.1147 L 611.284 175.7047 L 611.1201 177.0617 L 612.7131 177.4667 L 612.7396 179.113 L 613.2 180.2511 L 614.0049 180.0312 L 614.3688 182.3902 L 613.1734 182.0753 L 612.2625 184.306 L 613.7591 184.5994 L 614.3519 185.0268 L 615.569 183.814 L 617.1741 184.2974 L 618.2731 183.9046 L 617.9622 182.9553 L 618.8394 181.8855 L 619.16 183.0718 L 621.717 184.3664 L 622.6955 184.1117 L 623.4113 184.6124 L 623.4908 185.7261 L 622.775 187.9804 L 621.7387 188.274 L 620.9241 187.5052 L 620.3216 187.9026 L 621.476 189.406 L 621.3073 190.9533 L 621.8351 192.1508 L 622.7967 191.2515 L 623.2763 192.0384 L 622.6907 194.097 L 623.5462 196.4509 L 623.5848 197.7669 L 624.9947 198.8061 L 625.8912 200.2398 L 627.0745 200.9157 L 629.3664 200.0578 L 630.2268 198.6719 L 632.3934 199.2175 L 633.5141 200.0362 L 633.8901 201.1756 L 634.5649 201.3403 L 635.8012 200.2614 L 636.9725 200.8074 L 637.3918 202.5538 L 637.9533 201.5396 L 638.4836 201.7303 L 639.7561 200.894 Z" fill="[object Object]" fill-opacity="1" stroke="dodgerblue" stroke-width="1" paint-order="fill" stroke-opacity="1" stroke-dasharray="" stroke-linecap="butt" stroke-miterlimit="10" style="filter: url(&quot;#zr2323-shadow-1&quot;);">
</path>
<path d="M 598.7326 414.2269 L 596.0068 414.4994 L 594.5584 415.1352 L 593.4715 413.3643 L 592.7268 413.0102 L 591.1675 413.3552 L 590.0709 411.9799 L 589.507 411.9254 L 587.6657 413.7003 L 585.5569 413.7956 L 582.8529 410.7592 L 580.5706 413.2962 L 579.8885 412.8423 L 579.1245 413.7684 L 579.2354 415.0534 L 577.4713 415.7392 L 576.9772 414.2859 L 576.206 414.4721 L 574.6564 411.9572 L 572.6922 410.1149 L 572.2752 409.0444 L 569.5061 406.8768 L 568.236 407.6431 L 567.2624 407.3801 L 567.4214 406.428 L 566.2164 404.6558 L 565.291 404.7917 L 562.9171 406.0562 L 562.3483 404.9186 L 562.5291 401.8469 L 563.5027 399.9859 L 563.1147 397.0576 L 564.9945 394.7416 L 564.662 392.9556 L 565.8622 392.1283 L 567.5154 392.838 L 568.8385 393.0957 L 569.9182 392.7747 L 571.8728 390.1264 L 572.2174 388.9247 L 573.1766 388.2292 L 572.6127 387.3802 L 571.6583 386.8519 L 571.933 386.1747 L 573.0922 386.4682 L 575.3046 383.724 L 576.2639 384.8251 L 577.129 384.5047 L 578.0738 382.1586 L 577.9412 380.9725 L 577.1483 379.4711 L 576.3048 379.1149 L 573.9502 379.3043 L 573.473 378.4929 L 573.6586 377.168 L 572.2246 377.1004 L 571.0823 378.1684 L 570.1424 377.3527 L 570.1376 375.8795 L 569.5133 375.7444 L 567.7058 376.4786 L 565.7055 375.7398 L 564.351 376.6093 L 563.7172 378.538 L 562.999 379.169 L 562.9508 380.0391 L 561.9531 380.0076 L 561.2879 378.7048 L 558.7695 377.8214 L 558.0175 378.0242 L 557.0656 379.0653 L 555.4388 380.1068 L 553.9566 378.4388 L 552.9733 378.4028 L 551.3417 380.1293 L 550.5585 379.8858 L 549.3438 380.5847 L 548.2497 382.1541 L 546.5168 382.2308 L 546.0324 382.9796 L 544.7382 382.9525 L 544.0249 382.4202 L 543.2537 382.939 L 542.6078 382.33 L 541.5787 382.3346 L 540.7593 383.0924 L 540.6701 384.7574 L 541.2124 386.3418 L 540.9328 388.175 L 541.4341 389.1054 L 541.0172 390.4246 L 541.2678 392.5352 L 541.0196 393.6879 L 541.7257 394.5833 L 542.7451 394.7868 L 544.8371 396.8178 L 545.1287 398.5826 L 544.4996 400.0764 L 543.4079 399.4517 L 542.3788 400.339 L 542.8416 400.8642 L 542.4873 401.8696 L 540.8509 403.224 L 540.2773 404.6286 L 540.7039 406.1379 L 540.1351 406.913 L 539.8796 408.1509 L 539.4024 408.3232 L 540.5231 409.4345 L 540.4388 410.065 L 541.733 410.8635 L 541.4437 411.3445 L 542.9813 410.9452 L 542.5909 412.0797 L 542.8632 415.2305 L 542.2608 417.5018 L 542.4704 418.6969 L 544.0249 421.429 L 544.2635 422.2248 L 543.7983 423.3756 L 543.7405 425.8509 L 541.7715 428.1726 L 541.7618 429.557 L 542.7837 431.0739 L 543.2103 432.7919 L 543.9405 433.4483 L 543.5622 433.8859 L 543.8875 435.167 L 544.7648 434.8889 L 544.7913 435.6823 L 546.4132 435.7416 L 548.1581 437.8034 L 548.5606 438.5653 L 548.0593 439.802 L 549.1703 440.2585 L 549.0835 440.9386 L 549.6234 444.1946 L 549.3269 444.7337 L 546.7506 443.8931 L 546.3578 444.5921 L 547.3507 445.017 L 548.9341 446.6529 L 549.0233 448.1156 L 550.1247 449.5193 L 550.1753 450.7954 L 548.8329 452.1221 L 546.2806 454.0533 L 545.8734 454.6254 L 545.0226 454.0029 L 543.5597 453.9892 L 543.326 454.3599 L 544.1791 457.1804 L 543.3886 456.9377 L 543.0705 457.7758 L 543.7935 459.0311 L 544.2153 460.7861 L 545.4854 462.2576 L 546.059 464.0825 L 545.0467 465.2017 L 545.9963 466.1514 L 547.4182 464.688 L 547.3724 464.1972 L 548.8377 463.2021 L 549.5896 464.1972 L 550.5392 464.6237 L 551.5538 465.5824 L 552.2744 465.5595 L 553.0577 464.3669 L 554.7182 463.9037 L 555.8629 464.4494 L 556.5353 463.8853 L 557.362 464.0688 L 558.2392 463.4359 L 558.7381 464.509 L 559.7214 464.8302 L 560.0299 466.3624 L 559.866 467.3673 L 561.5602 468.7122 L 562.9388 468.9279 L 566.9491 472.7946 L 569.2217 472.6017 L 569.7953 472.9693 L 569.9616 474.4028 L 571.5088 475.846 L 573.5694 476.3747 L 574.8202 478.3152 L 576.2711 479.3868 L 577.7243 479.1615 L 578.4762 479.7088 L 579.8018 479.6628 L 581.8262 480.8867 L 584.0338 482.5987 L 585.5738 484.5645 L 587.35 485.5039 L 588.6586 487.153 L 588.5719 488.7288 L 589.2997 488.7334 L 591.811 489.6505 L 592.1315 490.9413 L 591.0204 491.5545 L 592.211 492.961 L 592.146 494.3495 L 593.8884 494.797 L 596.6961 495 L 597.7517 494.7324 L 597.8529 494.2388 L 599.4917 494.0865 L 599.5737 494.4094 L 601.3378 494.3356 L 603.3743 493.616 L 604.8805 493.8005 L 605.7289 492.8504 L 605.1842 492.3938 L 605.136 490.3281 L 605.6686 489.4985 L 607.0785 489.0928 L 605.7939 485.1493 L 604.8492 484.0994 L 605.2469 482.8242 L 606.341 482.5296 L 606.7869 480.652 L 605.5361 478.6739 L 604.9576 477.1333 L 605.0998 475.8782 L 606.2253 473.7917 L 606.3844 472.5833 L 605.1673 470.7737 L 604.9384 469.5293 L 605.659 467.4224 L 605.1746 466.2982 L 603.4032 465.9908 L 602.4922 463.4542 L 601.0992 461.7762 L 601.7379 460.4241 L 601.8439 459.4342 L 601.3089 457.3911 L 601.5523 456.4751 L 602.5308 455.8936 L 602.4175 454.3508 L 603.0344 453.742 L 603.4996 451.907 L 604.4732 451.0927 L 604.9553 449.7343 L 606.2374 449.2495 L 607.0182 448.3396 L 606.3169 446.8677 L 606.2856 445.4374 L 606.811 445.0444 L 610.7827 444.5875 L 612.101 445.6156 L 614.5664 446.3101 L 615.9233 446.1776 L 617.2536 445.4968 L 618.4803 445.4556 L 619.9143 446.3421 L 621.0181 446.301 L 622.0472 447.8002 L 623.4064 447.9282 L 624.3849 447.3568 L 625.9177 445.8623 L 625.7996 444.318 L 626.5178 443.9845 L 627.812 444.3683 L 628.6651 445.4328 L 629.1399 445.3916 L 630.8679 443.208 L 630.0918 442.4636 L 628.694 440.0211 L 629.0218 438.579 L 628.9085 435.7143 L 628.0698 435.842 L 627.5637 435.126 L 628.1783 433.7264 L 627.2287 433.1611 L 626.9902 432.4638 L 625.7466 431.484 L 624.3729 430.9874 L 623.5004 429.8576 L 622.4062 429.7939 L 621.7531 429.0697 L 619.3479 429.1198 L 618.7069 428.2454 L 617.3596 428.2044 L 616.2414 427.7263 L 615.851 428.6781 L 614.2025 429.475 L 613.4289 429.2792 L 612.3589 427.781 L 613.2072 423.503 L 613.6217 418.9832 L 612.5131 418.5605 L 610.3031 417.1656 L 609.1656 416.2116 L 606.8712 416.1298 L 605.5602 416.6794 L 605.1529 416.0435 L 604.4805 416.5659 L 603.8177 415.7028 L 601.8776 414.8899 L 599.9737 414.8899 L 598.7326 414.2269 Z" fill="[object Object]" fill-opacity="1" stroke="dodgerblue" stroke-width="1" paint-order="fill" stroke-opacity="1" stroke-dasharray="" stroke-linecap="butt" stroke-miterlimit="10" style="filter: url(&quot;#zr2323-shadow-1&quot;);">
</path>
<path d="M 588.1356 377.3708 L 587.791 377.551 L 587.6488 377.5735 L 586.8053 378.556 L 586.5233 378.0963 L 587.1548 377.3527 L 587.2319 374.0779 L 585.4051 373.7898 L 584.8652 372.0521 L 583.3108 372.1061 L 582.5131 371.1834 L 580.6911 373.4116 L 578.0232 374.3391 L 577.0977 374.186 L 576.7242 375.3435 L 575.1143 376.6904 L 574.2539 376.5778 L 573.6586 377.168 L 573.473 378.4929 L 573.9502 379.3043 L 576.3048 379.1149 L 577.1483 379.4711 L 577.9412 380.9725 L 578.0738 382.1586 L 577.129 384.5047 L 576.2639 384.8251 L 575.3046 383.724 L 573.0922 386.4682 L 571.933 386.1747 L 571.6583 386.8519 L 572.6127 387.3802 L 573.1766 388.2292 L 572.2174 388.9247 L 571.8728 390.1264 L 569.9182 392.7747 L 568.8385 393.0957 L 567.5154 392.838 L 565.8622 392.1283 L 564.662 392.9556 L 564.9945 394.7416 L 563.1147 397.0576 L 563.5027 399.9859 L 562.5291 401.8469 L 562.3483 404.9186 L 562.9171 406.0562 L 565.291 404.7917 L 566.2164 404.6558 L 567.4214 406.428 L 567.2624 407.3801 L 568.236 407.6431 L 569.5061 406.8768 L 572.2752 409.0444 L 572.6922 410.1149 L 574.6564 411.9572 L 576.206 414.4721 L 576.9772 414.2859 L 577.4713 415.7392 L 579.2354 415.0534 L 579.1245 413.7684 L 579.8885 412.8423 L 580.5706 413.2962 L 582.8529 410.7592 L 585.5569 413.7956 L 587.6657 413.7003 L 589.507 411.9254 L 590.0709 411.9799 L 591.1675 413.3552 L 592.7268 413.0102 L 593.4715 413.3643 L 594.5584 415.1352 L 596.0068 414.4994 L 598.7326 414.2269 L 599.817 413.0647 L 600.5353 411.5397 L 601.2197 411.1449 L 601.8873 409.4481 L 603.3743 409.194 L 604.9625 409.8926 L 605.765 409.5433 L 605.7867 407.965 L 606.1602 407.4163 L 607.4786 407.7519 L 607.5629 408.6679 L 609.3704 408.5228 L 609.7247 409.253 L 611.0237 409.8064 L 612.301 409.557 L 614.4025 409.5252 L 615.7449 408.931 L 618.7334 409.8972 L 621.1217 411.3355 L 622.1894 410.8499 L 623.9174 412.0434 L 625.4742 411.4398 L 627.6939 411.458 L 629.135 411.036 L 631.3643 413.6095 L 632.7067 413.7729 L 634.6733 413.1964 L 636.2085 413.8002 L 637.3677 412.5745 L 639.9079 413.2145 L 641.1418 412.7061 L 641.9468 413.151 L 641.9251 412.3883 L 643.5374 410.3554 L 644.3231 409.8563 L 644.875 408.4502 L 646.4126 408.7314 L 647.0922 411.1585 L 647.1018 413.3098 L 648.0321 414.5902 L 649.4854 413.9273 L 650.259 415.453 L 651.6375 417.2973 L 652.3678 417.161 L 652.281 416.1934 L 652.6979 415.2441 L 654.2934 414.2088 L 655.5152 414.3495 L 656.7347 413.7729 L 656.4479 412.8241 L 656.9998 411.4126 L 658.4555 410.7682 L 660.8125 411.3309 L 661.8319 409.9562 L 661.7066 409.5252 L 662.6778 408.4185 L 663.9696 408.5001 L 663.3768 407.6431 L 664.4275 405.7662 L 664.1094 404.6331 L 665.1843 404.2751 L 665.1891 401.7654 L 664.5553 400.4522 L 663.9576 398.3835 L 664.9674 397.5508 L 665.2156 396.6097 L 664.9722 396.4152 L 665.0011 396.1166 L 665.2036 396.0035 L 664.9095 393.6427 L 664.242 392.9601 L 664.5022 391.3148 L 664.2492 390.4156 L 662.6947 388.7124 L 661.6151 388.1027 L 659.0218 387.2899 L 658.1374 385.9987 L 657.4722 385.6962 L 656.6913 384.0399 L 657.0697 382.9255 L 656.4262 381.5542 L 656.3877 380.6793 L 654.9754 378.2811 L 653.2643 378.1279 L 652.6208 377.6276 L 652.0617 376.1858 L 650.9025 375.893 L 650.1891 375.1498 L 649.2227 375.5507 L 647.8803 375.2083 L 647.8899 374.2941 L 646.8151 373.2044 L 646.991 372.4662 L 648.4298 372.0431 L 648.437 371.1024 L 650.512 369.874 L 650.3168 368.7674 L 649.5842 368.6145 L 649.4227 367.3238 L 648.5093 365.8042 L 648.3575 365.0042 L 647.8538 365.539 L 646.7861 365.5525 L 646.8584 363.4538 L 647.1452 363.2786 L 647.003 361.2169 L 647.9333 360.5478 L 649.1046 357.9128 L 648.2587 356.9885 L 646.8319 356.9212 L 646.8898 356.2752 L 645.5522 356.1002 L 645.3136 355.0147 L 643.4892 354.7457 L 642.7301 353.925 L 640.7056 353.3601 L 640.7514 352.7146 L 640.0814 351.482 L 640.3393 350.6575 L 641.0382 350.6216 L 642.0986 348.8342 L 643.0819 349.0268 L 643.2723 347.625 L 642.718 347.0609 L 642.06 344.9436 L 642.1516 344.0531 L 641.4094 344.4289 L 640.2694 344.0352 L 638.5004 344.1112 L 638.0329 344.6572 L 634.1311 345.0465 L 632.7694 344.1873 L 630.3569 343.7399 L 629.0218 342.7691 L 627.7589 343.0644 L 626.5539 342.9525 L 625.373 343.7891 L 624.7368 343.8249 L 624.6741 344.7332 L 623.7896 345.8029 L 622.5267 346.3177 L 623.2401 347.9698 L 623.9222 348.7984 L 623.5173 350.0257 L 622.5292 349.9675 L 623.2329 353.4767 L 622.1267 354.5214 L 620.7337 355.1852 L 620.1023 354.638 L 620.3891 353.2929 L 618.8925 354.0371 L 617.35 353.0821 L 616.9355 351.7778 L 616.0847 352.0422 L 614.9231 350.8053 L 613.5229 352.208 L 613.935 354.3869 L 612.8457 352.8266 L 612.0648 352.7728 L 611.4888 353.4767 L 611.9467 355.0461 L 611.5684 356.4277 L 612.9348 356.6565 L 613.9109 357.9128 L 614.7809 358.2001 L 613.4241 358.797 L 613.0553 357.9577 L 611.9709 359.7936 L 611.431 360.0898 L 611.3322 361.428 L 609.4451 360.8038 L 608.404 361.3157 L 607.9413 361.0059 L 606.9146 362.6721 L 604.8179 362.8698 L 604.1021 363.2831 L 603.502 364.3975 L 603.8539 364.9862 L 603.1959 365.4851 L 602.6826 367.8949 L 603.9286 369.0868 L 605.6301 370.189 L 605.1842 372.6552 L 604.478 372.6057 L 602.9718 373.8438 L 602.8537 374.5958 L 601.6487 375.3795 L 600.046 375.1678 L 598.8844 375.6272 L 597.0648 375.5236 L 595.2597 374.2851 L 593.6257 375.0102 L 592.9099 374.9021 L 592.4761 374.1365 L 590.9024 373.5556 L 589.0394 374.3166 L 588.1356 377.3708 Z M 588.1356 377.3708 L 589.0394 374.3166 L 588.0995 373.9114 L 587.2319 374.0779 L 587.1548 377.3527 L 587.6488 377.5735 L 587.791 377.551 L 588.1356 377.3708 Z M 665.2036 396.0035 L 665.0011 396.1166 L 664.9722 396.4152 L 665.2156 396.6097 L 665.2036 396.0035 Z" fill="[object Object]" fill-opacity="1" stroke="dodgerblue" stroke-width="1" paint-order="fill" stroke-opacity="1" stroke-dasharray="" stroke-linecap="butt" stroke-miterlimit="10" style="filter: url(&quot;#zr2323-shadow-1&quot;);">
</path>
<text xml:space="preserve" fill="#bdbdd9" fill-opacity="1" stroke="none" transform="matrix(1,0,0,1,569.6387,354.6911)" dominant-baseline="central" text-anchor="middle" x="0" y="0" style="font: 13 13px sans-serif;"></text>
<text xml:space="preserve" fill="#bdbdd9" fill-opacity="1" stroke="none" transform="matrix(1,0,0,1,582.0142,300.305)" dominant-baseline="central" text-anchor="middle" x="0" y="0" style="font: 13 13px sans-serif;"></text>
<text xml:space="preserve" fill="#bdbdd9" fill-opacity="1" stroke="none" transform="matrix(1,0,0,1,504.3052,347.7741)" dominant-baseline="central" text-anchor="middle" x="0" y="0" style="font: 13 13px sans-serif;"></text>
<text xml:space="preserve" fill="#bdbdd9" fill-opacity="1" stroke="none" transform="matrix(1,0,0,1,555.7617,318.4186)" dominant-baseline="central" text-anchor="middle" x="0" y="0" style="font: 13 13px sans-serif;"></text>
<text xml:space="preserve" fill="rgba(189,189,217,1)" fill-opacity="1" stroke="none" transform="matrix(1,0,0,1,613.3638,309.288)" dominant-baseline="central" text-anchor="middle" x="0" y="0" style="font: 13 13px sans-serif;"></text>
<text xml:space="preserve" fill="#bdbdd9" fill-opacity="1" stroke="none" transform="matrix(1,0,0,1,584.7773,231.7114)" dominant-baseline="central" text-anchor="middle" x="0" y="0" style="font: 13 13px sans-serif;"></text>
<text xml:space="preserve" fill="#bdbdd9" fill-opacity="1" stroke="none" transform="matrix(1,0,0,1,491.8598,422.1497)" dominant-baseline="central" text-anchor="middle" x="0" y="0" style="font: 13 13px sans-serif;"></text>
<text xml:space="preserve" fill="#bdbdd9" fill-opacity="1" stroke="none" transform="matrix(1,0,0,1,590.9373,132.2755)" dominant-baseline="central" text-anchor="middle" x="0" y="0" style="font: 13 13px sans-serif;"></text>
<text xml:space="preserve" fill="#bdbdd9" fill-opacity="1" stroke="none" transform="matrix(1,0,0,1,585.1351,435.3699)" dominant-baseline="central" text-anchor="middle" x="0" y="0" style="font: 13 13px sans-serif;"></text>
<text xml:space="preserve" fill="#bdbdd9" fill-opacity="1" stroke="none" transform="matrix(1,0,0,1,613.782,380.0332)" dominant-baseline="central" text-anchor="middle" x="0" y="0" style="font: 13 13px sans-serif;"></text>
<defs>
<filter id="zr2323-shadow-0" x="-100%" y="-100%" width="300%" height="300%">
<feDropShadow dx="0" dy="1" flood-color="rgba(0,0,0,1)" stdDeviation="0 0">
</feDropShadow>
</filter>
<filter id="zr2323-shadow-1" x="-100%" y="-100%" width="300%" height="300%">
<feDropShadow dx="0" dy="1" flood-color="#000000" stdDeviation="0 0">
</feDropShadow>
</filter>
</defs>
</g>
</svg>