<svg xmlns="http://www.w3.org/2000/svg" xmlns:xlink="http://www.w3.org/1999/xlink" version="1.1" baseProfile="full" width="1108" height="550" style="user-select: none; position: absolute; left: 0px; top: 0px;">
<g>
<rect width="1108" height="550" x="0" y="0" id="0" style="fill: transparent;">
</rect>
</g>
<g>
<path d="M 756.9406 197.6519 L 756.905 198.3451 L 758.5171 200.5989 L 758.1497 201.0238 L 758.3275 202.1729 L 760.1056 204.3635 L 760.4967 206.0387 L 760.23 207.8708 L 761.1546 209.5342 L 760.9175 210.0729 L 761.8836 211.0332 L 763.1342 211.7242 L 763.7862 212.6152 L 764.0529 214.7283 L 765.339 215.2937 L 765.3568 216.2116 L 766.6548 218.2959 L 768.4684 218.9271 L 769.2211 220.8472 L 771.3252 222.5112 L 772.4572 222.8292 L 773.6782 221.9622 L 773.8619 221.004 L 775.4088 220.3769 L 776.043 218.5266 L 776.9261 217.7998 L 778.1886 218.7834 L 779.5399 218.9576 L 780.2985 220.0939 L 784.0029 221.7009 L 785.6446 221.4439 L 786.6819 221.8795 L 786.6819 224.2105 L 787.565 224.1713 L 788.5133 225.043 L 788.5725 225.7449 L 789.509 227.1576 L 791.1448 226.0544 L 791.5834 224.3892 L 792.5554 224.2715 L 792.6562 223.2039 L 793.9779 223.8357 L 796.153 223.5002 L 796.4613 221.6007 L 797.9726 218.444 L 797.3859 217.1862 L 797.4688 214.911 L 798.2986 214.1195 L 798.2156 213.2717 L 799.4425 211.798 L 799.2054 209.6863 L 800.0885 208.6699 L 800.0648 207.3801 L 798.6661 205.0275 L 795.9812 202.7237 L 795.43 203.0013 L 795.3233 201.6872 L 794.7899 202.2466 L 794.1616 201.3967 L 794.8254 199.6973 L 794.3572 198.2152 L 794.8136 197.3313 L 795.2403 194.6722 L 794.7899 193.8973 L 795.4063 193.036 L 795.4418 188.0876 L 795.8508 186.994 L 796.8465 186.5661 L 797.3147 184.6175 L 796.5739 183.758 L 796.9473 182.169 L 797.6348 180.7229 L 798.8854 179.9505 L 799.2528 177.7072 L 798.8854 175.6332 L 799.8811 175.2237 L 800.1834 174.129 L 799.1817 173.5473 L 798.2927 172.328 L 797.0184 171.9447 L 795.6848 170.9541 L 795.2166 170.0155 L 793.5808 169.9423 L 793.5393 169.275 L 792.7095 168.3668 L 791.6012 169.0985 L 788.3414 167.9451 L 787.6954 168.2248 L 787.0553 167.3858 L 785.3779 166.8694 L 785.2238 166.379 L 783.9555 166.6242 L 783.5999 165.4801 L 783.7362 164.0438 L 782.1063 163.1582 L 780.0911 163.0766 L 777.6848 162.4189 L 776.7839 162.6897 L 774.8162 162.3072 L 774.2235 161.3275 L 772.8959 160.5155 L 771.509 161.538 L 769.9798 161.2931 L 769.7901 160.8376 L 768.1187 161.0181 L 766.9808 160.4939 L 766.151 160.8806 L 765.4457 160.3436 L 764.5092 160.4639 L 764.0588 159.768 L 762.9979 159.6349 L 761.3739 158.7631 L 758.9498 156.6852 L 759.3706 155.8998 L 758.5349 155.5008 L 757.3792 156.5908 L 756.496 157.8657 L 755.7908 157.5609 L 755.3818 158.6686 L 755.4114 160.9107 L 754.8543 162.2642 L 756.0278 163.1711 L 756.9347 165.0887 L 756.9109 166.0306 L 757.5866 166.706 L 757.5748 167.5793 L 759.0032 168.6767 L 759.2284 168.1216 L 760.8464 168.2851 L 762.6541 169.9509 L 764.0173 169.4558 L 766.1155 170.5322 L 767.1526 172.5778 L 767.3719 174.1807 L 768.0891 175.4952 L 769.0967 176.2971 L 770.2821 176.4135 L 771.0763 178.3455 L 772.3209 179.3248 L 772.0246 179.8124 L 772.4454 181.5042 L 773.0796 182.7345 L 772.6528 184.8724 L 773.4352 187.0242 L 773.1626 188.36 L 772.4691 188.5242 L 770.5014 187.5948 L 769.4641 188.7794 L 768.3321 189.229 L 767.7631 190.6519 L 766.7911 191.1883 L 765.3568 192.6681 L 764.367 194.0401 L 761.5161 195.2048 L 759.1098 193.0143 L 756.4901 194.3432 L 756.9524 195.8543 L 756.9406 197.6519 Z" fill="[object Object]" fill-opacity="1" stroke="dodgerblue" stroke-width="1" paint-order="fill" stroke-opacity="1" stroke-dasharray="" stroke-linecap="butt" stroke-miterlimit="10" style="filter: url(&quot;#zr2323-shadow-1&quot;);">
</path>
<path d="M 823.4347 272.4179 L 822.8894 272.0127 L 823.3932 270.6697 L 823.731 270.9471 L 824.0807 269.3226 L 824.8216 268.6801 L 825.515 266.8145 L 825.4853 265.2752 L 826.1314 265.4555 L 825.7165 264.554 L 826.8841 264.7431 L 827.8265 266.0008 L 829.3556 267.0125 L 834.0438 267.7824 L 836.2308 269.7144 L 837.843 267.8088 L 837.4399 267.4524 L 835.5256 268.064 L 836.2546 266.8101 L 837.7955 266.5682 L 838.9632 265.9349 L 838.6609 265.108 L 837.7304 264.3518 L 836.9895 262.9626 L 837.0488 260.5634 L 836.1538 260.3042 L 835.4189 258.3631 L 834.595 257.5771 L 833.6408 253.6934 L 834.026 252.29 L 834.9032 251.1894 L 835.9997 250.8124 L 837.4577 248.7568 L 838.0208 248.4677 L 839.3366 249.1863 L 839.8818 248.8138 L 840.8953 249.3747 L 842.3297 249.2301 L 843.5328 249.4755 L 843.9122 250.1461 L 844.8664 250.3477 L 845.3583 248.4721 L 844.7597 244.7493 L 845.0975 242.6484 L 846.034 240.7889 L 845.1687 239.2714 L 845.8977 237.9553 L 844.3389 237.7149 L 843.7225 236.7315 L 842.7505 236.7228 L 842.14 235.6915 L 843.361 235.4163 L 844.7064 234.4508 L 845.0264 231.9093 L 845.8028 231.7172 L 846.7156 229.3125 L 848.0787 228.6755 L 849.3886 228.9984 L 850.3369 228.5534 L 850.0168 227.8468 L 848.1854 227.0181 L 848.3455 225.71 L 847.006 225.3002 L 845.9747 224.1059 L 843.9536 223.3041 L 843.6039 222.2977 L 842.7801 221.3307 L 840.5516 221.3089 L 839.9411 219.9937 L 840.03 219.1317 L 839.3899 217.8651 L 839.7218 216.9599 L 839.0106 216.9295 L 838.3053 215.82 L 838.0682 214.6414 L 837.1436 213.5977 L 838.0978 212.6543 L 838.2816 211.6372 L 837.683 211.4851 L 837.4222 210.3945 L 836.5509 210.1077 L 835.7449 208.0054 L 835.8871 207.4844 L 837.0488 207.2412 L 834.8914 205.8043 L 835.3003 205.0145 L 833.9312 204.8409 L 831.2404 202.8799 L 830.304 201.3057 L 830.0076 199.4892 L 830.4936 197.8035 L 831.5012 198.1241 L 833.9253 195.6854 L 834.9981 196.1575 L 834.4587 194.7371 L 833.2615 193.7934 L 832.8584 192.8369 L 831.9694 192.27 L 831.5367 191.1537 L 829.4208 190.2799 L 828.277 188.4464 L 828.2473 187.3786 L 826.9078 186.9119 L 826.6352 186.2334 L 825.6395 186.013 L 825.4913 185.205 L 824.1459 185.326 L 823.4228 184.5139 L 824.1637 184.0474 L 824.1518 183.3564 L 825.841 181.5818 L 825.3194 180.1662 L 825.5268 179.3162 L 825.0764 178.1514 L 820.7142 176.5213 L 817.0928 177.6942 L 815.6822 177.6295 L 812.3098 178.2204 L 810.9941 179.4801 L 809.0204 179.1393 L 806.6971 177.8365 L 805.8554 177.0991 L 804.0121 176.8878 L 802.6252 175.6763 L 800.1834 174.129 L 799.8811 175.2237 L 798.8854 175.6332 L 799.2528 177.7072 L 798.8854 179.9505 L 797.6348 180.7229 L 796.9473 182.169 L 796.5739 183.758 L 797.3147 184.6175 L 796.8465 186.5661 L 795.8508 186.994 L 795.4418 188.0876 L 795.4063 193.036 L 794.7899 193.8973 L 795.2403 194.6722 L 794.8136 197.3313 L 794.3572 198.2152 L 794.8254 199.6973 L 794.1616 201.3967 L 794.7899 202.2466 L 795.3233 201.6872 L 795.43 203.0013 L 795.9812 202.7237 L 798.6661 205.0275 L 800.0648 207.3801 L 800.0885 208.6699 L 799.2054 209.6863 L 799.4425 211.798 L 798.2156 213.2717 L 798.2986 214.1195 L 797.4688 214.911 L 797.3859 217.1862 L 797.9726 218.444 L 796.4613 221.6007 L 796.153 223.5002 L 793.9779 223.8357 L 792.6562 223.2039 L 792.5554 224.2715 L 791.5834 224.3892 L 791.1448 226.0544 L 789.509 227.1576 L 789.8587 228.3004 L 789.4615 228.8108 L 789.4438 231.2196 L 792.0516 230.8311 L 792.7569 231.9006 L 793.2014 230.7089 L 793.403 231.8831 L 793.9008 231.4684 L 794.5824 232.1319 L 795.2166 233.6952 L 796.8406 233.7039 L 797.4155 233.324 L 799.0157 234.1713 L 798.9802 234.9182 L 799.8574 235.3376 L 799.3951 236.1809 L 801.0724 236.8845 L 801.9792 236.9151 L 801.4636 237.9248 L 801.9851 239.0003 L 802.8208 238.9566 L 803.1586 240.2728 L 804.6701 240.9596 L 805.6836 243.156 L 807.509 243.598 L 805.6658 244.7974 L 806.211 245.8964 L 807.266 245.787 L 807.9832 245.1827 L 808.6707 245.9227 L 808.8841 247.9375 L 807.2838 248.5246 L 807.3549 249.4098 L 808.2618 250.3389 L 807.4497 251.2859 L 808.3447 252.6978 L 809.5064 253.9434 L 810.0457 254.9613 L 809.2753 255.8214 L 811.2845 256.212 L 810.5021 256.945 L 810.9348 258.2269 L 811.7112 258.1039 L 812.458 257.3049 L 813.1218 257.4015 L 813.6493 259.0612 L 813.7086 260.5195 L 815.5637 262.255 L 817.0632 262.2375 L 819.0665 263.1429 L 819.268 264.2023 L 820.732 265.8601 L 821.4788 266.2867 L 821.6032 267.2017 L 822.3974 267.1357 L 822.2256 269.9565 L 821.4373 270.6433 L 821.7988 271.5371 L 823.4347 272.4179 Z M 840.273 220.525 L 840.6642 219.9545 L 839.9767 219.3189 L 840.273 220.525 Z" fill="[object Object]" fill-opacity="1" stroke="dodgerblue" stroke-width="1" paint-order="fill" stroke-opacity="1" stroke-dasharray="" stroke-linecap="butt" stroke-miterlimit="10" style="filter: url(&quot;#zr2323-shadow-1&quot;);">
</path>
<path d="M 800.1834 174.129 L 802.6252 175.6763 L 804.0121 176.8878 L 805.8554 177.0991 L 806.6971 177.8365 L 809.0204 179.1393 L 810.9941 179.4801 L 812.3098 178.2204 L 815.6822 177.6295 L 817.0928 177.6942 L 820.7142 176.5213 L 825.0764 178.1514 L 825.4853 177.4657 L 826.9552 177.6425 L 830.4225 176.655 L 831.7383 176.9309 L 831.5308 175.6418 L 831.0982 175.3271 L 829.9483 172.6166 L 828.5437 172.285 L 827.0086 170.1231 L 825.1238 169.7529 L 824.7208 168.7886 L 823.7369 168.3023 L 823.5532 166.9942 L 822.0714 165.5789 L 822.4686 164.8694 L 820.9394 163.9019 L 819.8666 163.7472 L 818.6872 162.5694 L 816.8558 161.2974 L 816.9032 160.0687 L 815.6526 159.9785 L 814.6806 158.9005 L 812.4521 158.3766 L 811.403 156.02 L 809.3227 154.6212 L 808.5107 154.8615 L 808.3743 154.1965 L 809.1982 152.8455 L 809.0144 151.9536 L 809.5657 151.0448 L 808.5285 150.0633 L 808.321 149.0349 L 807.7757 149.2234 L 806.7682 148.5722 L 806.94 147.9339 L 805.4227 146.405 L 805.9443 144.8595 L 805.488 144.4315 L 805.3398 142.8825 L 804.6997 142.5145 L 803.8521 140.7695 L 801.5643 140.5942 L 798.4942 143.0322 L 797.8126 144.4828 L 797.5755 144.2603 L 795.8034 144.7825 L 795.8093 143.2804 L 794.7425 142.3819 L 789.1119 140.2905 L 789.5979 139.0807 L 788.3117 137.8327 L 787.3279 135.8333 L 786.4744 134.8467 L 784.0562 134.1806 L 782.2248 133.0834 L 780.6779 133.1517 L 779.7414 132.4986 L 777.9989 134.599 L 777.1158 135.1542 L 776.8728 136.3074 L 776.2386 136.9439 L 774.4013 135.7863 L 772.6291 134.3129 L 771.7342 134.5392 L 770.8985 133.9415 L 769.316 133.6853 L 767.5082 132.5285 L 767.123 131.163 L 766.1925 129.8618 L 765.4812 129.4822 L 764.9893 127.9642 L 763.8691 128.2328 L 762.0199 126.2251 L 761.4332 126.289 L 760.4197 125.539 L 759.6729 124.4781 L 758.9676 124.231 L 756.988 124.8956 L 755.9626 124.0862 L 756.0515 123.1663 L 755.6367 122.0038 L 755.9567 121.2333 L 757.1717 119.9224 L 756.8872 118.2164 L 757.2725 116.2602 L 757.8355 115.5969 L 756.7627 114.5386 L 754.5817 116.2389 L 753.7519 116.2474 L 752.8036 115.5034 L 752.2879 114.3898 L 751.3811 113.6802 L 750.9959 112.5246 L 749.7631 111.0636 L 748.1569 110.2059 L 746.9182 110.4394 L 746.3788 110.0573 L 744.0021 109.5054 L 742.9649 110.8598 L 742.0699 110.3333 L 740.8608 110.5923 L 739.7348 109.1956 L 738.6916 109.047 L 737.7789 108.1685 L 737.1091 109.5182 L 736.1134 109.3739 L 736.0364 107.4472 L 735.3133 107.1078 L 734.359 107.9139 L 733.3633 107.0017 L 732.7588 107.0654 L 730.957 105.8819 L 731.5319 105.1101 L 730.0442 102.4013 L 728.4143 103.6855 L 727.5668 99.3302 L 726.0554 98.4876 L 724.301 98.2463 L 723.7202 97.2092 L 722.6297 96.8114 L 722.0251 96.1216 L 720.9227 96.3543 L 719.9329 94.8862 L 718.2734 95.4996 L 717.2065 97.8695 L 718.4512 99.2328 L 718.1074 99.8341 L 719.6662 100.7956 L 721.1479 101.2658 L 721.9836 103.0243 L 722.5289 104.7666 L 723.0623 105.5087 L 724.2833 105.9031 L 724.0047 106.9126 L 724.3722 109.2805 L 725.1427 111.2674 L 725.0893 112.0319 L 724.1055 112.3207 L 722.7008 111.535 L 722.1911 110.1762 L 721.2902 109.6582 L 721.4561 109.221 L 720.253 108.4146 L 719.3284 108.491 L 717.0939 106.5732 L 715.4107 106.3273 L 714.4327 105.1186 L 713.034 104.9447 L 709.8156 103.5542 L 706.6744 101.1345 L 705.6609 101.0116 L 704.8074 100.2872 L 703.2368 99.6223 L 702.3952 98.8983 L 701.8025 97.7552 L 699.1768 96.0454 L 697.9381 94.8228 L 697.5825 93.9811 L 696.6639 93.2115 L 696.083 92.0024 L 696.0889 90.3119 L 695.3006 89.4289 L 693.3389 89.9189 L 692.5328 88.8206 L 692.272 87.4354 L 691.6734 86.3883 L 689.9012 84.9407 L 689.4923 83.3416 L 686.4103 80.5838 L 684.9641 79.6733 L 683.4231 79.2519 L 681.1294 77.0359 L 679.9144 75.562 L 678.5868 74.6822 L 676.7731 72.9987 L 676.6249 71.9217 L 678.5156 70.1469 L 676.6309 69.2052 L 676.1508 68.4023 L 674.3905 67.9316 L 673.4955 68.3519 L 673.0984 67.9274 L 671.6048 67.7131 L 669.5778 66.3224 L 668.8963 64.7767 L 665.9861 63.3702 L 665.6898 61.9768 L 663.3723 61.8257 L 662.6789 62.023 L 662.104 63.7397 L 661.0135 64.5416 L 660.4267 65.8435 L 659.1879 67.3643 L 657.072 68.1754 L 657.481 69.4027 L 657.0839 70.0923 L 656.343 70.0755 L 656.0111 70.9164 L 655.2703 70.9543 L 654.2982 69.9746 L 653.2492 69.6171 L 650.262 69.7685 L 648.9936 68.4359 L 649.1892 67.4189 L 647.8142 66.961 L 647.0733 65.3479 L 644.1632 64.7053 L 642.8712 64.9951 L 642.6104 65.4823 L 642.889 67.4988 L 642.1362 69.676 L 640.6308 71.7282 L 641.3301 72.3761 L 641.3183 73.3354 L 639.2439 75.3389 L 638.1 75.9494 L 637.0272 77.4445 L 636.2745 77.6972 L 634.4668 79.4037 L 635.2788 80.9632 L 635.9959 81.0981 L 636.5767 82.2324 L 636.3456 83.7804 L 637.2406 84.6242 L 638.337 86.2701 L 641.1108 86.4939 L 642.3022 87.6887 L 642.3496 86.5615 L 643.2446 86.5192 L 646.3858 89.2726 L 648.5551 90.2696 L 650.7539 90.8612 L 652.4846 90.9753 L 653.7945 91.3599 L 654.808 92.8859 L 656.8113 94.4041 L 658.0796 94.679 L 660.0414 94.2053 L 661.2802 94.7509 L 661.5291 95.8043 L 662.3233 96.8114 L 664.1784 97.2431 L 665.8261 96.9849 L 668.6651 97.4039 L 671.5396 99.1947 L 672.4642 100.4313 L 673.0747 101.9225 L 672.9147 102.3589 L 671.8479 102.2996 L 669.8505 103.8509 L 669.8742 104.6182 L 671.0299 105.1059 L 671.1307 106.0855 L 669.809 107.583 L 669.7912 108.177 L 671.51 109.1659 L 673.9163 108.7669 L 674.3549 109.4205 L 675.5225 110.0106 L 677.6622 109.6625 L 679.1202 109.0725 L 680.1515 108.0624 L 681.082 108.2152 L 681.2776 107.0484 L 683.0023 106.586 L 683.4883 105.8777 L 684.5196 105.865 L 685.053 106.6327 L 684.644 107.4175 L 686.1021 108.9961 L 687.726 109.5097 L 689.5752 110.571 L 691.2052 110.0148 L 692.8113 109.9257 L 694.133 110.5073 L 695.4073 110.3757 L 696.5216 112.754 L 697.5825 113.1831 L 698.0804 112.8942 L 699.1591 113.2935 L 699.5799 115.4737 L 698.9101 118.5312 L 700.789 119.3693 L 701.8618 120.4374 L 703.4739 120.7651 L 702.1048 121.9102 L 700.4867 121.7909 L 698.0566 123.1663 L 696.5097 122.8682 L 695.4488 122.9831 L 692.9299 123.8562 L 691.6437 123.4047 L 690.2984 124.4611 L 689.3856 126.0588 L 689.356 126.7578 L 690.8021 127.9216 L 690.0613 129.2605 L 691.8927 130.506 L 692.7995 130.8089 L 694.3464 132.2041 L 694.4946 133.775 L 695.3895 134.2147 L 696.0119 133.0962 L 697.8611 133.8219 L 699.8288 134.3086 L 700.0896 134.7484 L 702.4781 135.7393 L 701.9092 136.8371 L 701.9566 138.9311 L 702.3122 140.1452 L 703.6754 141.0688 L 704.031 143.2119 L 703.545 144.1105 L 701.3639 144.8766 L 699.408 147.3643 L 698.0566 147.3899 L 697.2743 148.1866 L 697.3395 150.1104 L 695.514 151.2334 L 693.896 154.7842 L 694.3168 156.0843 L 694.4353 158.8833 L 693.9493 159.6478 L 691.8749 161.2931 L 691.9282 163.5795 L 692.6335 164.5469 L 692.841 166.4865 L 692.1416 168.6896 L 692.7402 170.1834 L 692.4676 172.1213 L 693.4929 172.608 L 693.4929 173.6377 L 696.0356 174.3789 L 697.5943 175.9091 L 698.3589 175.9565 L 699.3428 176.8145 L 701.1683 177.7029 L 703.6339 180.2223 L 705.0504 180.7143 L 705.9158 180.5805 L 706.0343 181.7761 L 707.2671 181.6207 L 708.3754 183.175 L 709.4245 183.5637 L 710.2068 184.6262 L 713.0162 185.5161 L 723.3409 188.5329 L 729.2204 190.3664 L 740.4282 193.4168 L 747.3567 195.6335 L 748.6251 196.9198 L 750.2491 196.6339 L 751.8968 196.7249 L 754.5698 195.3953 L 756.9939 197.1667 L 756.9406 197.6519 L 756.9524 195.8543 L 756.4901 194.3432 L 759.1098 193.0143 L 761.5161 195.2048 L 764.367 194.0401 L 765.3568 192.6681 L 766.7911 191.1883 L 767.7631 190.6519 L 768.3321 189.229 L 769.4641 188.7794 L 770.5014 187.5948 L 772.4691 188.5242 L 773.1626 188.36 L 773.4352 187.0242 L 772.6528 184.8724 L 773.0796 182.7345 L 772.4454 181.5042 L 772.0246 179.8124 L 772.3209 179.3248 L 771.0763 178.3455 L 770.2821 176.4135 L 769.0967 176.2971 L 768.0891 175.4952 L 767.3719 174.1807 L 767.1526 172.5778 L 766.1155 170.5322 L 764.0173 169.4558 L 762.6541 169.9509 L 760.8464 168.2851 L 759.2284 168.1216 L 759.0032 168.6767 L 757.5748 167.5793 L 757.5866 166.706 L 756.9109 166.0306 L 756.9347 165.0887 L 756.0278 163.1711 L 754.8543 162.2642 L 755.4114 160.9107 L 755.3818 158.6686 L 755.7908 157.5609 L 756.496 157.8657 L 757.3792 156.5908 L 758.5349 155.5008 L 759.3706 155.8998 L 758.9498 156.6852 L 761.3739 158.7631 L 762.9979 159.6349 L 764.0588 159.768 L 764.5092 160.4639 L 765.4457 160.3436 L 766.151 160.8806 L 766.9808 160.4939 L 768.1187 161.0181 L 769.7901 160.8376 L 769.9798 161.2931 L 771.509 161.538 L 772.8959 160.5155 L 774.2235 161.3275 L 774.8162 162.3072 L 776.7839 162.6897 L 777.6848 162.4189 L 780.0911 163.0766 L 782.1063 163.1582 L 783.7362 164.0438 L 783.5999 165.4801 L 783.9555 166.6242 L 785.2238 166.379 L 785.3779 166.8694 L 787.0553 167.3858 L 787.6954 168.2248 L 788.3414 167.9451 L 791.6012 169.0985 L 792.7095 168.3668 L 793.5393 169.275 L 793.5808 169.9423 L 795.2166 170.0155 L 795.6848 170.9541 L 797.0184 171.9447 L 798.2927 172.328 L 799.1817 173.5473 L 800.1834 174.129 Z" fill="[object Object]" fill-opacity="1" stroke="dodgerblue" stroke-width="1" paint-order="fill" stroke-opacity="1" stroke-dasharray="" stroke-linecap="butt" stroke-miterlimit="10" style="filter: url(&quot;#zr2323-shadow-1&quot;);">
</path>
<path d="M 758.3808 333.9805 L 759.4595 334.7747 L 759.9574 334.5025 L 761.5636 336.328 L 762.7549 336.6628 L 762.8912 337.4887 L 763.5906 337.1494 L 766.6133 337.386 L 767.289 337.0869 L 767.858 337.7075 L 768.9307 336.694 L 770.7266 337.3637 L 770.4599 338.9088 L 772.0483 339.2259 L 772.7417 340.3561 L 774.1938 340.794 L 774.5435 341.7994 L 776.6416 341.8396 L 778.5501 342.957 L 781.4424 343.5202 L 781.8811 344.8571 L 782.8827 344.647 L 783.5228 343.9942 L 784.4889 344.3563 L 784.7438 345.1076 L 785.7809 344.8616 L 786.5574 345.7963 L 787.6301 345.9349 L 787.7428 346.5925 L 788.8096 347.5633 L 788.697 348.8342 L 789.7046 349.7473 L 790.7003 349.2191 L 791.453 349.8592 L 791.3582 351.1485 L 792.1109 350.4053 L 792.4487 351.5337 L 793.3734 350.3785 L 793.646 349.0759 L 794.7128 348.5523 L 796.8702 348.955 L 798.0793 347.4873 L 798.3638 348.4583 L 799.3655 348.418 L 801.9437 349.8233 L 802.483 347.1651 L 802.3941 346.4851 L 804.0299 346.8028 L 804.6878 345.1612 L 805.2272 345.1478 L 804.5515 343.1939 L 806.7089 342.6799 L 806.5192 340.0032 L 806.8393 339.1947 L 807.5802 339.2974 L 809.6723 340.3829 L 810.3243 340.4768 L 810.431 339.2751 L 811.243 338.3327 L 811.237 337.3771 L 811.9779 335.7655 L 813.4004 336.5154 L 815.137 335.6048 L 814.0879 334.0653 L 813.6434 333.9939 L 812.7781 332.4191 L 812.4639 331.2239 L 811.5097 330.2831 L 811.3615 328.6248 L 810.6503 326.8157 L 809.9687 327.0385 L 809.1567 325.9247 L 808.5285 325.996 L 807.9239 325.1497 L 805.6243 325.2433 L 804.0536 325.0384 L 802.7794 324.4239 L 801.9851 322.4605 L 801.0546 322.1934 L 800.4145 320.013 L 800.3434 317.6156 L 800.8472 316.7575 L 800.3078 315.3261 L 800.3315 310.826 L 800.7464 309.7337 L 800.3019 305.5626 L 801.2798 304.782 L 802.1451 304.8663 L 803.2831 304.1302 L 805.1146 304.3386 L 806.8571 304.8352 L 805.968 303.5005 L 806.5726 301.6566 L 807.2305 301.0583 L 808.0128 299.1046 L 809.2989 298.1479 L 809.6368 297.4881 L 808.5996 296.5406 L 808.2736 294.6153 L 806.2644 293.8011 L 806.3355 292.642 L 805.7013 290.254 L 804.8715 289.7854 L 804.5693 288.7776 L 806.1518 287.7081 L 805.5887 285.9454 L 804.9782 285.3271 L 804.5812 283.9449 L 803.8106 283.499 L 803.2298 282.1438 L 803.5202 280.9303 L 801.1376 278.7952 L 800.2663 280.6082 L 799.8633 280.2729 L 798.8794 280.7891 L 798.3816 282.0424 L 798.1978 283.7683 L 797.3207 284.36 L 795.0032 283.6756 L 794.1498 284.8325 L 793.1718 285.5081 L 792.2531 283.6094 L 784.3704 283.4019 L 783.4991 283.9802 L 782.4974 285.8085 L 780.4704 285.6583 L 779.9074 283.5211 L 778.9769 283.6005 L 777.744 284.5498 L 778.1352 285.0974 L 778.6924 287.5491 L 777.8211 288.3887 L 776.1023 288.3489 L 775.4977 287.8937 L 775.9423 286.4887 L 775.64 283.9538 L 774.8043 282.2542 L 775.3259 282.3204 L 778.1589 281.6319 L 777.5129 278.9187 L 776.4876 278.7776 L 773.1033 276.9962 L 771.0229 277.0182 L 769.8138 275.9029 L 768.5218 275.687 L 767.5557 275.0303 L 766.9511 275.3785 L 766.0443 274.7395 L 764.8708 274.8452 L 762.4052 274.572 L 758.9854 275.1537 L 757.6992 274.2284 L 756.7983 274.2151 L 753.6748 273.3384 L 752.5665 274.4267 L 750.4328 274.0565 L 748.0502 273.8847 L 747.2145 274.0786 L 746.9775 274.929 L 747.665 276.9432 L 748.7436 277.6928 L 748.9452 278.535 L 752.3887 279.029 L 752.4598 279.9024 L 754.0008 279.5406 L 756.6679 280.7847 L 756.8694 281.3054 L 755.0321 284.0111 L 751.0374 287.8717 L 749.8638 288.3135 L 748.8563 289.5467 L 747.665 289.7324 L 748.1154 290.6608 L 747.3805 291.554 L 747.4042 293.7303 L 748.1865 294.1816 L 749.1823 295.7704 L 751.6538 297.1826 L 752.3591 297.9221 L 755.0202 298.3383 L 757.0295 299.3659 L 758.286 301.4705 L 759.1395 302.2771 L 760.8168 303.1459 L 762.1622 303.1991 L 762.0614 303.8819 L 762.9268 304.7288 L 765.4872 304.7288 L 766.228 305.1191 L 766.56 307.1153 L 766.957 307.874 L 765.991 309.6805 L 764.3137 309.8359 L 764.0292 310.9813 L 764.9004 313.3132 L 764.7582 314.5307 L 763.3713 314.7928 L 763.075 316.9709 L 762.1266 318.4961 L 760.5382 319.101 L 758.7779 317.7935 L 756.5257 318.0559 L 755.7374 317.7935 L 755.8678 319.27 L 756.6324 319.9551 L 756.5494 321.1298 L 756.9109 323.195 L 758.2149 324.9538 L 759.2284 324.7979 L 759.2521 327.2567 L 759.5544 328.3931 L 759.4951 330.292 L 758.9024 331.7367 L 758.3808 333.9805 Z M 784.3704 283.4019 L 792.2531 283.6094 L 793.1718 285.5081 L 794.1498 284.8325 L 795.0032 283.6756 L 797.3207 284.36 L 798.1978 283.7683 L 798.3816 282.0424 L 798.8794 280.7891 L 799.8633 280.2729 L 800.2663 280.6082 L 801.1376 278.7952 L 803.5202 280.9303 L 803.2298 282.1438 L 803.8106 283.499 L 804.5812 283.9449 L 804.9782 285.3271 L 805.5887 285.9454 L 806.1518 287.7081 L 804.5693 288.7776 L 804.8715 289.7854 L 805.7013 290.254 L 806.3355 292.642 L 806.2644 293.8011 L 808.2736 294.6153 L 808.5996 296.5406 L 809.6368 297.4881 L 810.7155 297.7139 L 811.4623 296.4609 L 813.1692 296.2307 L 813.6078 294.925 L 814.8406 295.5225 L 816.026 295.0666 L 816.6898 294.2568 L 817.3477 290.9261 L 818.6101 290.1789 L 819.1673 288.7909 L 820.0978 289.0163 L 821.3899 288.0396 L 821.2121 286.9924 L 819.7481 284.5454 L 819.9733 283.1459 L 818.4323 281.9497 L 817.4307 282.007 L 816.0438 280.5553 L 817.3951 280.2288 L 817.6678 278.5174 L 817.1877 277.534 L 816.4646 277.2607 L 816.1267 276.0792 L 816.5831 273.9068 L 817.5433 273.2239 L 821.6151 274.6293 L 823.3043 273.0521 L 823.4347 272.4179 L 821.7988 271.5371 L 821.4373 270.6433 L 822.2256 269.9565 L 822.3974 267.1357 L 821.6032 267.2017 L 821.4788 266.2867 L 820.732 265.8601 L 819.268 264.2023 L 819.0665 263.1429 L 817.0632 262.2375 L 815.5637 262.255 L 813.7086 260.5195 L 813.6493 259.0612 L 813.1218 257.4015 L 812.458 257.3049 L 811.7112 258.1039 L 810.9348 258.2269 L 810.5021 256.945 L 811.2845 256.212 L 809.2753 255.8214 L 810.0457 254.9613 L 809.5064 253.9434 L 808.3447 252.6978 L 807.4497 251.2859 L 808.2618 250.3389 L 807.3549 249.4098 L 807.2838 248.5246 L 808.8841 247.9375 L 808.6707 245.9227 L 807.9832 245.1827 L 807.266 245.787 L 806.211 245.8964 L 805.6658 244.7974 L 807.509 243.598 L 805.6836 243.156 L 804.6701 240.9596 L 803.1586 240.2728 L 802.8208 238.9566 L 801.9851 239.0003 L 801.4636 237.9248 L 801.9792 236.9151 L 801.0724 236.8845 L 799.3951 236.1809 L 799.8574 235.3376 L 798.9802 234.9182 L 799.0157 234.1713 L 797.4155 233.324 L 796.8406 233.7039 L 795.2166 233.6952 L 794.5824 232.1319 L 793.9008 231.4684 L 793.403 231.8831 L 793.2014 230.7089 L 792.7569 231.9006 L 792.0516 230.8311 L 789.4438 231.2196 L 788.614 231.5775 L 788.211 233.7826 L 788.6851 235.3114 L 788.4184 235.875 L 788.9992 237.1773 L 788.5547 238.598 L 788.7978 239.8967 L 788.5192 240.5265 L 789.5031 241.4189 L 790.0898 242.5695 L 790.0128 244.6311 L 790.7536 245.3622 L 792.342 246.1548 L 789.3726 251.2069 L 789.7757 252.5531 L 789.2778 253.4478 L 790.238 254.5269 L 791.6901 254.8604 L 792.591 254.6936 L 793.6815 255.1324 L 793.4919 256.3699 L 794.0253 256.8879 L 793.9423 258.5825 L 793.4445 260.0055 L 792.0872 261.0906 L 790.8603 263.156 L 790.4276 263.4066 L 790.7181 264.6684 L 789.912 265.0333 L 789.0467 267.2193 L 789.3193 267.9056 L 786.2729 269.6572 L 785.6861 269.1554 L 784.317 269.9213 L 783.6414 271.2157 L 782.2663 270.1017 L 781.6144 269.9433 L 780.6838 270.9779 L 779.6525 270.0709 L 778.7457 269.9433 L 778.0463 269.0366 L 777.4299 269.5559 L 777.8152 270.7797 L 777.667 272.0303 L 778.3071 272.9993 L 780.2926 275.0788 L 781.3299 277.9706 L 779.4925 279.0069 L 777.5129 278.9187 L 778.1589 281.6319 L 778.7516 281.4996 L 780.4408 282.0732 L 782.124 280.4229 L 782.4678 279.4083 L 783.8488 279.7876 L 784.3466 280.2861 L 783.991 281.7864 L 784.3704 283.4019 Z" fill="[object Object]" fill-opacity="1" stroke="dodgerblue" stroke-width="1" paint-order="fill" stroke-opacity="1" stroke-dasharray="" stroke-linecap="butt" stroke-miterlimit="10" style="filter: url(&quot;#zr2323-shadow-1&quot;);">
</path>
<path d="M 756.9406 197.6519 L 756.9939 197.1667 L 754.5698 195.3953 L 751.8968 196.7249 L 750.2491 196.6339 L 748.6251 196.9198 L 747.3567 195.6335 L 740.4282 193.4168 L 729.2204 190.3664 L 723.3409 188.5329 L 713.0162 185.5161 L 710.2068 184.6262 L 709.4245 183.5637 L 708.3754 183.175 L 707.2671 181.6207 L 706.0343 181.7761 L 705.9158 180.5805 L 705.0504 180.7143 L 703.6339 180.2223 L 701.1683 177.7029 L 699.3428 176.8145 L 698.3589 175.9565 L 697.5943 175.9091 L 696.0356 174.3789 L 693.4929 173.6377 L 691.8275 173.2456 L 691.5193 172.845 L 690.3873 173.0345 L 689.7708 172.5563 L 689.3856 174.8831 L 688.9707 175.5383 L 687.7438 175.5426 L 686.7837 176.5084 L 686.2265 176.5342 L 685.5746 177.5433 L 684.5907 180.8524 L 683.8083 184.043 L 682.374 184.9415 L 680.5249 184.4232 L 680.7323 185.3217 L 685.2605 188.1741 L 685.8294 188.8442 L 686.6888 191.3873 L 690.5887 194.3561 L 692.4794 196.543 L 692.1238 197.6865 L 693.1669 200.794 L 692.3135 201.6872 L 690.9266 202.5025 L 690.0198 202.6457 L 689.2018 203.9253 L 688.295 204.6152 L 685.2012 205.5786 L 681.2183 207.8404 L 678.972 208.5222 L 677.4962 209.695 L 672.7961 211.7111 L 670.3721 212.3718 L 670.7455 214.6849 L 671.4804 214.837 L 671.8301 216.0332 L 673.3118 216.8207 L 675.3032 219.3668 L 676.6487 221.7837 L 676.6487 223.23 L 675.9433 223.8532 L 675.6885 227.0312 L 673.5015 229.4565 L 673.5192 230.5998 L 673.0806 231.0014 L 670.9884 231.4684 L 671.0596 232.2236 L 672.3872 233.0402 L 672.9325 235.4381 L 674.4735 235.5342 L 674.2305 237.1467 L 675.5344 237.8286 L 677.1525 239.5294 L 677.6681 240.5221 L 676.8739 242.3595 L 678.8535 245.6381 L 678.2311 247.2585 L 679.1972 248.2574 L 679.2802 250.2601 L 678.9542 251.0228 L 679.2861 251.9304 L 680.8923 252.5969 L 681.8466 254.2724 L 682.2081 255.6985 L 682.8186 256.2515 L 682.7059 258.8724 L 681.491 260.4272 L 680.5545 262.5011 L 681.6273 263.178 L 682.1429 262.7121 L 682.943 263.3802 L 686.5821 265.6358 L 687.4356 266.511 L 687.732 267.646 L 688.4373 268.5173 L 687.3704 268.6141 L 685.865 269.4459 L 685.3138 270.8898 L 683.0319 270.5772 L 682.54 271.6252 L 683.3816 272.2945 L 685.8531 272.5984 L 685.9598 273.2944 L 686.8252 273.5147 L 687.323 274.4927 L 687.2637 275.7928 L 686.4518 276.595 L 684.9049 276.9212 L 683.8972 278.341 L 682.8304 279.0731 L 681.568 280.9921 L 681.6688 282.6956 L 682.5045 283.8478 L 683.3164 284.1524 L 683.9506 285.5523 L 685.3375 286.047 L 686.517 288.3533 L 688.1765 290.5856 L 688.5558 290.5812 L 688.7395 292.3855 L 689.8597 292.6509 L 690.9621 295.1773 L 691.8393 295.9032 L 692.8943 298.0284 L 694.4946 300.3183 L 696.7113 300.9786 L 697.8018 300.6639 L 699.5028 301.8338 L 702.1403 302.0333 L 702.9345 303.5183 L 704.4874 304.0193 L 705.8031 306.1614 L 707.4094 306.4498 L 708.4465 307.0265 L 709.1519 308.1003 L 710.7758 308.087 L 711.6115 307.4613 L 712.951 307.8652 L 713.9823 308.7528 L 715.0254 308.7927 L 715.8315 309.4452 L 718.226 309.534 L 718.2852 308.8282 L 719.2454 308.9614 L 720.3715 308.1891 L 720.9938 307.3105 L 721.7584 304.9018 L 723.572 304.7865 L 725.2316 304.3918 L 728.0883 304.6579 L 730.0798 303.5316 L 730.0857 304.2942 L 730.9629 304.5381 L 731.1644 306.0949 L 730.9214 306.9911 L 732.6165 308.664 L 733.9679 308.5397 L 735.4555 309.1656 L 737.3462 309.241 L 738.2056 309.5384 L 739.5806 311.0391 L 741.2817 313.291 L 742.6508 313.6997 L 743.1012 315.5039 L 745.0393 313.9041 L 745.0927 314.8906 L 745.7505 315.0728 L 746.8174 316.144 L 747.3212 317.2377 L 748.8622 317.4734 L 749.4727 316.8464 L 750.4506 317.2821 L 751.5589 315.9795 L 754.1431 314.4418 L 755.2633 315.1439 L 755.7374 317.7935 L 756.5257 318.0559 L 758.7779 317.7935 L 760.5382 319.101 L 762.1266 318.4961 L 763.075 316.9709 L 763.3713 314.7928 L 764.7582 314.5307 L 764.9004 313.3132 L 764.0292 310.9813 L 764.3137 309.8359 L 765.991 309.6805 L 766.957 307.874 L 766.56 307.1153 L 766.228 305.1191 L 765.4872 304.7288 L 762.9268 304.7288 L 762.0614 303.8819 L 762.1622 303.1991 L 760.8168 303.1459 L 759.1395 302.2771 L 758.286 301.4705 L 757.0295 299.3659 L 755.0202 298.3383 L 752.3591 297.9221 L 751.6538 297.1826 L 749.1823 295.7704 L 748.1865 294.1816 L 747.4042 293.7303 L 747.3805 291.554 L 748.1154 290.6608 L 747.665 289.7324 L 748.8563 289.5467 L 749.8638 288.3135 L 751.0374 287.8717 L 755.0321 284.0111 L 756.8694 281.3054 L 756.6679 280.7847 L 754.0008 279.5406 L 752.4598 279.9024 L 752.3887 279.029 L 748.9452 278.535 L 748.7436 277.6928 L 747.665 276.9432 L 746.9775 274.929 L 747.2145 274.0786 L 748.0502 273.8847 L 750.4328 274.0565 L 752.5665 274.4267 L 753.6748 273.3384 L 756.7983 274.2151 L 757.6992 274.2284 L 758.9854 275.1537 L 762.4052 274.572 L 764.8708 274.8452 L 766.0443 274.7395 L 766.9511 275.3785 L 767.5557 275.0303 L 768.5218 275.687 L 769.8138 275.9029 L 771.0229 277.0182 L 773.1033 276.9962 L 776.4876 278.7776 L 777.5129 278.9187 L 779.4925 279.0069 L 781.3299 277.9706 L 780.2926 275.0788 L 778.3071 272.9993 L 777.667 272.0303 L 777.8152 270.7797 L 777.4299 269.5559 L 778.0463 269.0366 L 778.7457 269.9433 L 779.6525 270.0709 L 780.6838 270.9779 L 781.6144 269.9433 L 782.2663 270.1017 L 783.6414 271.2157 L 784.317 269.9213 L 785.6861 269.1554 L 786.2729 269.6572 L 789.3193 267.9056 L 789.0467 267.2193 L 789.912 265.0333 L 790.7181 264.6684 L 790.4276 263.4066 L 790.8603 263.156 L 792.0872 261.0906 L 793.4445 260.0055 L 793.9423 258.5825 L 794.0253 256.8879 L 793.4919 256.3699 L 793.6815 255.1324 L 792.591 254.6936 L 791.6901 254.8604 L 790.238 254.5269 L 789.2778 253.4478 L 789.7757 252.5531 L 789.3726 251.2069 L 792.342 246.1548 L 790.7536 245.3622 L 790.0128 244.6311 L 790.0898 242.5695 L 789.5031 241.4189 L 788.5192 240.5265 L 788.7978 239.8967 L 788.5547 238.598 L 788.9992 237.1773 L 788.4184 235.875 L 788.6851 235.3114 L 788.211 233.7826 L 788.614 231.5775 L 789.4438 231.2196 L 789.4615 228.8108 L 789.8587 228.3004 L 789.509 227.1576 L 788.5725 225.7449 L 788.5133 225.043 L 787.565 224.1713 L 786.6819 224.2105 L 786.6819 221.8795 L 785.6446 221.4439 L 784.0029 221.7009 L 780.2985 220.0939 L 779.5399 218.9576 L 778.1886 218.7834 L 776.9261 217.7998 L 776.043 218.5266 L 775.4088 220.3769 L 773.8619 221.004 L 773.6782 221.9622 L 772.4572 222.8292 L 771.3252 222.5112 L 769.2211 220.8472 L 768.4684 218.9271 L 766.6548 218.2959 L 765.3568 216.2116 L 765.339 215.2937 L 764.0529 214.7283 L 763.7862 212.6152 L 763.1342 211.7242 L 761.8836 211.0332 L 760.9175 210.0729 L 761.1546 209.5342 L 760.23 207.8708 L 760.4967 206.0387 L 760.1056 204.3635 L 758.3275 202.1729 L 758.1497 201.0238 L 758.5171 200.5989 L 756.905 198.3451 L 756.9406 197.6519 Z M 778.1589 281.6319 L 775.3259 282.3204 L 774.8043 282.2542 L 775.64 283.9538 L 775.9423 286.4887 L 775.4977 287.8937 L 776.1023 288.3489 L 777.8211 288.3887 L 778.6924 287.5491 L 778.1352 285.0974 L 777.744 284.5498 L 778.9769 283.6005 L 779.9074 283.5211 L 780.4704 285.6583 L 782.4974 285.8085 L 783.4991 283.9802 L 784.3704 283.4019 L 783.991 281.7864 L 784.3466 280.2861 L 783.8488 279.7876 L 782.4678 279.4083 L 782.124 280.4229 L 780.4408 282.0732 L 778.7516 281.4996 L 778.1589 281.6319 Z" fill="[object Object]" fill-opacity="1" stroke="rgba(30,144,255,1)" stroke-width="1" paint-order="fill" stroke-opacity="1" stroke-dasharray="" stroke-linecap="butt" stroke-miterlimit="10" style="filter: url(&quot;#zr2323-shadow-0&quot;);">
</path>
<path d="M 615.8503 349.2549 L 615.9452 348.8029 L 617.4032 348.427 L 619.1042 347.3083 L 621.2083 346.266 L 621.6054 344.6291 L 623.2827 344.1238 L 625.6238 344.3384 L 625.8787 344.0881 L 628.1902 345.0718 L 630.9699 347.7334 L 631.6634 349.058 L 632.6057 349.5324 L 634.6802 349.0535 L 636.6301 350.1367 L 637.2761 349.9755 L 638.9949 350.8396 L 639.4394 351.6187 L 640.3463 351.1754 L 641.5317 351.359 L 645.5679 350.7142 L 647.8261 351.0814 L 647.4527 351.9904 L 647.6305 353.1011 L 648.9877 354.4855 L 649.5271 356.6142 L 649.1655 358.291 L 648.4188 358.6766 L 648.152 359.8876 L 648.8158 361.0988 L 648.7506 362.3776 L 648.069 363.8409 L 649.4797 365.327 L 650.5228 364.9319 L 651.7971 367.9592 L 651.8208 369.5005 L 652.8758 369.2353 L 653.8241 370.8129 L 655.6496 371.6492 L 656.2719 372.5215 L 656.266 373.6009 L 656.9002 374.4961 L 658.7138 376.0889 L 658.8975 376.557 L 657.2024 377.1421 L 657.4276 378.7043 L 658.7197 379.5823 L 658.9509 380.6363 L 658.5242 382.2536 L 659.3302 382.4383 L 659.911 383.8309 L 661.8847 384.8902 L 661.7721 385.8776 L 662.6078 386.3646 L 662.6967 387.7176 L 662.2522 390.2668 L 663.1471 391.5938 L 664.214 392.4967 L 664.3977 394.0953 L 663.5679 395.4233 L 663.9887 396.5348 L 663.3664 397.9583 L 664.4925 397.981 L 665.4883 398.7675 L 665.7313 399.5406 L 665.3045 401.259 L 665.5594 402.0099 L 666.4544 402.607 L 666.401 403.5028 L 667.7464 405.3086 L 669.2637 406.1777 L 669.5719 406.7074 L 670.9944 407.3007 L 672.3161 407.278 L 672.482 408.2335 L 674.4201 409.2844 L 674.9061 408.4917 L 676.6664 409.4882 L 677.8103 409.4701 L 678.2134 410.4035 L 678.7112 410.272 L 679.1913 411.3278 L 680.187 411.0741 L 681.568 411.3958 L 682.8363 412.9097 L 683.1208 414.5555 L 683.9684 414.9501 L 683.9032 416.6238 L 684.5848 416.7917 L 684.4426 418.1302 L 685.0412 419.3102 L 685.4561 421.008 L 686.1139 420.6175 L 687.9809 420.84 L 688.6862 420.0455 L 689.1426 420.6084 L 690.1028 419.7823 L 692.6691 421.0898 L 693.4218 421.9434 L 695.0458 422.6065 L 696.8772 422.7746 L 697.95 423.2333 L 699.0168 424.7734 L 699.2243 425.9776 L 700.1311 426.6594 L 701.5476 426.0868 L 702.0336 427.164 L 704.4162 427.6277 L 704.9141 429.4738 L 705.8565 429.4557 L 705.7557 428.7144 L 706.7574 427.2913 L 707.1723 425.4187 L 707.0478 424.1919 L 708.1384 420.7492 L 707.3738 418.4705 L 706.9056 418.3072 L 707.4094 416.7463 L 707.9724 416.4968 L 708.6066 417.3452 L 709.8868 416.7917 L 710.841 417.1773 L 711.244 415.1315 L 711.8545 414.3515 L 712.0679 412.5335 L 711.8368 411.3551 L 712.9392 411.2644 L 713.111 412.4156 L 713.7333 413.5852 L 714.8773 414.746 L 715.2744 416.9913 L 715.8315 417.4813 L 717.2658 417.3633 L 718.8186 418.0848 L 718.4393 420.0092 L 720.0218 420.0047 L 720.7271 420.6267 L 720.9998 421.839 L 721.8947 421.9525 L 721.9125 422.8608 L 722.4992 423.3969 L 722.2325 425.4096 L 723.1927 429.9241 L 722.5882 430.479 L 720.9701 433.1226 L 721.7288 433.8372 L 721.9125 434.7977 L 722.8786 435.2393 L 725.3145 435.3349 L 726.2629 436.7784 L 727.1223 434.1968 L 727.1697 431.5527 L 727.4897 430.0879 L 728.527 429.6512 L 728.6218 428.8645 L 731.6623 430.2789 L 734.602 428.1506 L 734.1219 430.2061 L 733.547 431.166 L 734.199 431.4981 L 735.3844 429.4966 L 736.6705 431.6755 L 737.5477 431.6528 L 737.8144 432.9269 L 738.3182 433.1908 L 739.5569 435.3804 L 739.225 436.5553 L 739.9362 436.4733 L 740.0963 437.7213 L 740.5112 437.3523 L 740.7838 438.8466 L 741.6551 438.8739 L 741.9632 439.7396 L 743.8421 440.291 L 745.1519 441.3713 L 746.1299 441.3485 L 745.6972 440.1999 L 745.7209 437.1337 L 746.0469 435.7083 L 746.4914 435.5079 L 747.6887 436.4687 L 748.2754 436.1318 L 747.9139 434.2377 L 746.853 433.0088 L 747.1078 432.6038 L 749.769 434.1922 L 750.3676 433.4321 L 750.7055 434.7476 L 751.8375 433.9419 L 752.1516 434.4062 L 753.3252 434.2878 L 754.4809 435.0663 L 755.6485 435.2347 L 756.099 436.2092 L 756.828 436.1591 L 757.5807 437.0791 L 758.6534 435.9087 L 760.4019 435.5079 L 761.8481 433.6141 L 763.8514 432.3171 L 764.1655 432.9587 L 765.4161 432.9633 L 765.3923 434.998 L 766.1747 433.6141 L 767.3542 433.5595 L 768.7707 432.1123 L 770.1991 429.8422 L 770.2524 427.2004 L 770.8333 424.101 L 770.1754 423.3378 L 770.2287 422.3431 L 768.1721 420.1091 L 765.8961 419.1922 L 766.3229 416.9958 L 766.1214 414.5964 L 768.5099 414.9002 L 767.9943 413.4945 L 768.5277 411.5907 L 767.4371 410.6617 L 766.8978 410.7116 L 766.7318 409.2029 L 767.8342 408.3468 L 767.6149 407.0833 L 767.0815 406.3317 L 767.4075 405.6481 L 766.7911 405.2724 L 765.7421 403.1951 L 766.068 401.0464 L 767.1941 400.4494 L 768.4803 398.3697 L 769.3752 398.4647 L 769.9205 399.1925 L 770.1517 398.4285 L 771.1237 398.8037 L 772.3447 398.4692 L 773.3818 398.8173 L 773.9923 399.8526 L 774.7628 400.2143 L 774.7865 401.0645 L 776.7602 404.0775 L 777.1217 405.1501 L 777.6077 404.8605 L 777.7085 403.1635 L 777.2995 401.9963 L 778.0997 400.9424 L 779.0954 400.6711 L 781.1639 401.0781 L 781.5728 400.8655 L 782.9479 402.9508 L 784.7023 404.3219 L 785.1172 405.0461 L 787.9917 408.1249 L 789.1889 406.1415 L 788.8926 404.5753 L 790.3032 403.2675 L 790.0424 402.3084 L 791.3167 401.6751 L 792.6206 398.3381 L 791.1744 396.7246 L 789.9357 396.7878 L 788.6851 395.2201 L 789.266 391.9189 L 790.5758 389.5583 L 790.6944 388.895 L 792.3776 388.2499 L 793.4623 388.2724 L 793.8831 387.6183 L 794.1675 385.5394 L 794.2327 383.0242 L 793.4445 383.0151 L 793.0236 384.7234 L 792.4369 385.2869 L 790.9077 384.9803 L 789.8883 385.2824 L 788.7148 384.9488 L 787.9087 385.5259 L 787.5234 384.9398 L 787.1856 382.8439 L 787.0553 379.8661 L 787.2805 379.3617 L 786.6581 377.4212 L 786.0536 377.0926 L 785.7869 374.955 L 784.72 375.2655 L 784.0384 373.7899 L 781.8455 373.5155 L 780.9031 374.3071 L 779.0954 374.6581 L 779.1072 375.8594 L 777.2402 376.7055 L 775.6933 375.9899 L 773.6604 375.9404 L 771.7816 375.2745 L 770.8036 374.3432 L 769.9679 375.2564 L 767.7513 375.8235 L 768.255 374.4511 L 767.6683 373.9203 L 767.6446 372.2023 L 768.7173 370.9299 L 768.5099 369.896 L 768.8359 368.5432 L 767.0341 365.9647 L 767.1823 365.1564 L 765.4872 364.8017 L 765.256 364.209 L 764.3137 364.4559 L 762.8794 364.0519 L 762.4763 362.8489 L 761.9251 362.9566 L 761.3621 362.1129 L 760.4849 362.5482 L 759.4714 360.8251 L 759.0328 359.2417 L 757.3614 357.5377 L 757.6933 356.7531 L 756.5909 355.7357 L 756.0456 354.0912 L 755.2929 353.903 L 754.8958 351.3098 L 753.9771 350.9829 L 753.5504 349.5503 L 752.122 347.1786 L 751.3574 346.928 L 750.3321 345.8813 L 751.0196 344.8348 L 752.2702 341.8754 L 751.8256 340.9995 L 752.1161 339.5029 L 752.5547 339.1813 L 752.7976 337.8147 L 754.8188 336.9217 L 756.0693 334.4356 L 756.8872 334.5516 L 758.3808 333.9805 L 758.9024 331.7367 L 759.4951 330.292 L 759.5544 328.3931 L 759.2521 327.2567 L 759.2284 324.7979 L 758.2149 324.9538 L 756.9109 323.195 L 756.5494 321.1298 L 756.6324 319.9551 L 755.8678 319.27 L 755.7374 317.7935 L 755.2633 315.1439 L 754.1431 314.4418 L 751.5589 315.9795 L 750.4506 317.2821 L 749.4727 316.8464 L 748.8622 317.4734 L 747.3212 317.2377 L 746.8174 316.144 L 745.7505 315.0728 L 745.0927 314.8906 L 745.0393 313.9041 L 743.1012 315.5039 L 742.6508 313.6997 L 741.2817 313.291 L 739.5806 311.0391 L 738.2056 309.5384 L 737.3462 309.241 L 735.4555 309.1656 L 733.9679 308.5397 L 732.6165 308.664 L 730.9214 306.9911 L 731.1644 306.0949 L 730.9629 304.5381 L 730.0857 304.2942 L 730.0798 303.5316 L 728.0883 304.6579 L 725.2316 304.3918 L 723.572 304.7865 L 721.7584 304.9018 L 720.9938 307.3105 L 720.3715 308.1891 L 719.2454 308.9614 L 718.2852 308.8282 L 718.226 309.534 L 715.8315 309.4452 L 715.0254 308.7927 L 713.9823 308.7528 L 712.951 307.8652 L 711.6115 307.4613 L 710.7758 308.087 L 709.1519 308.1003 L 708.4465 307.0265 L 707.4094 306.4498 L 705.8031 306.1614 L 704.4874 304.0193 L 702.9345 303.5183 L 702.1403 302.0333 L 699.5028 301.8338 L 697.8018 300.6639 L 696.7113 300.9786 L 694.4946 300.3183 L 692.8943 298.0284 L 691.8393 295.9032 L 690.9621 295.1773 L 689.8597 292.6509 L 688.7395 292.3855 L 688.5558 290.5812 L 688.1765 290.5856 L 686.517 288.3533 L 685.3375 286.047 L 683.9506 285.5523 L 683.3164 284.1524 L 682.5045 283.8478 L 681.6688 282.6956 L 681.568 280.9921 L 682.8304 279.0731 L 683.8972 278.341 L 684.9049 276.9212 L 686.4518 276.595 L 687.2637 275.7928 L 687.323 274.4927 L 686.8252 273.5147 L 685.9598 273.2944 L 685.8531 272.5984 L 683.3816 272.2945 L 682.54 271.6252 L 683.0319 270.5772 L 685.3138 270.8898 L 685.865 269.4459 L 687.3704 268.6141 L 688.4373 268.5173 L 687.732 267.646 L 687.4356 266.511 L 686.5821 265.6358 L 682.943 263.3802 L 682.1429 262.7121 L 681.6273 263.178 L 680.5545 262.5011 L 679.2387 262.633 L 678.3971 264.0572 L 677.188 264.4441 L 675.6885 264.1012 L 675.0543 263.6 L 674.2423 264.6024 L 672.8376 264.4178 L 669.9334 263.644 L 669.483 264.0924 L 669.9927 264.7695 L 667.9361 265.4247 L 665.8558 263.6352 L 664.8126 263.4417 L 663.6272 264 L 663.8643 264.7167 L 663.4139 267.1753 L 661.4046 268.4733 L 659.8399 268.5569 L 658.0796 269.5075 L 657.2084 270.9206 L 656.2067 271.6692 L 651.9986 272.431 L 650.1849 271.1452 L 649.2722 270.9646 L 647.6305 271.6471 L 645.8998 271.7484 L 644.7915 270.9823 L 644.0091 271.656 L 643.2801 270.793 L 643.8254 269.2742 L 641.7391 268.6801 L 641.3954 269.7936 L 639.967 271.4446 L 640.1388 273.1226 L 639.2557 274.8144 L 638.26 278.8129 L 638.1889 279.8318 L 636.0255 279.1084 L 635.0358 279.7965 L 634.2475 279.6156 L 633.5896 281.3715 L 633.0206 281.2392 L 631.3492 281.8305 L 627.9413 281.7379 L 626.8448 280.6171 L 625.8372 281.2259 L 624.6577 280.1274 L 623.425 280.167 L 622.5478 279.5053 L 621.226 279.6818 L 620.3311 279.2318 L 619.608 278.1866 L 617.8595 278.4071 L 615.9985 278.1426 L 615.9926 276.5509 L 614.7361 275.9911 L 613.8115 276.5642 L 613.4736 279.4171 L 613.9122 282.5367 L 613.6337 283.3489 L 612.6854 283.4593 L 611.3755 282.6559 L 610.2257 282.9383 L 608.4654 282.3337 L 606.9363 281.4201 L 604.9567 280.8641 L 603.3209 281.2833 L 603.0956 280.745 L 602.1532 281.0627 L 601.9458 283.1503 L 603.1312 284.2716 L 603.1489 284.9031 L 601.7206 286.1751 L 599.0298 289.7412 L 597.5362 293.8719 L 596.8368 294.0312 L 595.9003 296.2174 L 596.4871 296.7398 L 596.6116 298.0372 L 592.3145 301.2001 L 590.5009 303.4518 L 589.1199 303.3233 L 587.3656 304.2011 L 588.0531 305.6823 L 587.8338 306.6317 L 586.9151 307.5235 L 586.8796 308.522 L 585.1489 309.2099 L 584.248 310.746 L 584.9474 312.8734 L 586.2276 314.0418 L 587.1996 314.304 L 587.0811 313.4021 L 587.5552 312.4381 L 590.3113 313.0333 L 591.9589 314.3351 L 593.0613 314.2329 L 592.1901 316.5708 L 590.2401 317.1532 L 589.8608 318.1804 L 590.2461 318.8564 L 591.627 319.7149 L 592.6524 319.5503 L 593.5118 320.311 L 595.604 321.0408 L 595.7285 323.5689 L 594.9283 325.7555 L 593.9445 326.1653 L 593.3992 327.0563 L 594.7683 328.1034 L 596.1433 327.3682 L 596.8131 327.4127 L 598.9883 328.3396 L 600.1559 328.4154 L 601.1219 329.2444 L 601.2523 330.2073 L 602.0999 331.38 L 600.8256 332.263 L 600.2211 333.2265 L 600.7663 334.4267 L 601.7265 334.4669 L 602.6748 335.2032 L 604.5773 337.5155 L 604.9685 339.1187 L 606.6873 339.5833 L 607.6475 340.7359 L 607.849 342.443 L 608.578 344.2669 L 609.9057 344.638 L 610.522 345.8545 L 611.6837 346.4359 L 612.3179 346.1004 L 612.5846 344.2848 L 613.3847 343.5784 L 614.2738 344.6202 L 614.7065 346.9996 L 615.8503 349.2549 Z" fill="[object Object]" fill-opacity="1" stroke="dodgerblue" stroke-width="1" paint-order="fill" stroke-opacity="1" stroke-dasharray="" stroke-linecap="butt" stroke-miterlimit="10" style="filter: url(&quot;#zr2323-shadow-1&quot;);">
</path>
<path d="M 394.5393 429.492 L 396.2403 428.8145 L 396.6434 429.7149 L 397.2953 429.4557 L 397.805 430.1515 L 399.1741 429.492 L 400.0513 427.5186 L 401.0826 428.2233 L 403.0148 428.8372 L 404.4491 430.1743 L 405.8952 429.6149 L 408.2482 431.5117 L 408.3431 430.711 L 409.8485 431.0705 L 410.9095 430.1743 L 412.0415 430.4881 L 412.8653 430.0651 L 413.6062 428.9736 L 414.4893 429.3419 L 414.6137 431.1568 L 415.645 431.6846 L 415.6925 433.0634 L 416.4985 435.5854 L 418.241 434.9616 L 418.6677 434.3743 L 420.5051 434.5291 L 421.1867 433.0452 L 422.7099 433.9191 L 423.9783 433.514 L 424.9799 435.6582 L 426.7225 436.0817 L 427.1729 436.947 L 426.9595 438.2497 L 428.2575 438.7828 L 430.3082 441.4442 L 430.6283 440.5326 L 431.5351 439.5574 L 432.9635 439.3159 L 433.6866 439.7305 L 434.1666 441.1388 L 434.2733 442.6706 L 435.3402 442.7025 L 435.9803 444.2895 L 436.7567 443.6875 L 437.6517 443.7103 L 438.4103 442.8302 L 440.4907 441.5126 L 441.8361 438.7554 L 443.0155 438.965 L 444.8944 438.3818 L 446.1805 439.2521 L 446.6724 438.9331 L 449.2566 440.1498 L 449.4818 441.6858 L 450.4657 442.2694 L 451.254 444.4081 L 452.5282 444.4811 L 453.1861 445.0923 L 453.8736 444.2484 L 455.2131 443.7696 L 456.031 445.22 L 456.7897 445.0238 L 457.4357 446.0138 L 458.3307 445.8404 L 459.2375 444.5996 L 460.9326 445.0193 L 461.389 445.9226 L 462.9181 446.7256 L 463.5878 445.5302 L 464.791 445.4481 L 465.0992 444.627 L 464.6547 443.8745 L 465.4845 441.9639 L 467.0314 442.3196 L 467.5648 441.9183 L 469.6215 442.739 L 469.7104 441.7542 L 472.2827 440.9975 L 473.0531 441.4624 L 473.5807 440.0359 L 473.2962 439.3022 L 474.0904 437.4525 L 475.7795 439.2475 L 477.0479 438.7099 L 476.9946 436.8149 L 477.7354 436.6964 L 478.014 437.4207 L 479.0216 436.9014 L 480.1714 437.2203 L 481.4812 435.5307 L 482.7022 435.4442 L 483.0222 433.4548 L 483.603 432.8632 L 484.6403 434.4881 L 486.9103 436.3868 L 487.4674 437.2157 L 488.0542 436.8787 L 488.9373 437.8443 L 489.2159 439.2976 L 490.4309 439.7032 L 489.8086 440.2364 L 489.9211 441.3303 L 491.0295 441.4853 L 491.9423 443.6921 L 493.4714 444.2941 L 493.9989 445.0193 L 495.5458 444.4993 L 496.1326 445.6078 L 496.5237 447.7753 L 497.8988 448.4325 L 499.4813 448.1267 L 500.068 447.4877 L 502.8003 448.9939 L 503.5827 450.0669 L 503.8613 449.5646 L 506.0305 449.4277 L 506.0009 448.7474 L 507.0203 448.5831 L 506.9551 449.4231 L 507.8086 449.0625 L 509.3259 449.3637 L 509.7882 448.857 L 510.2386 450.8157 L 510.855 450.7792 L 511.667 451.6835 L 510.1734 451.8662 L 508.7095 452.597 L 506.9966 452.5879 L 506.2439 453.0813 L 504.5192 453.1818 L 503.8316 454.5846 L 503.7664 455.5855 L 504.8926 456.8061 L 506.0839 456.5089 L 506.3565 455.9512 L 508.0398 455.4987 L 509.314 454.5983 L 509.6222 453.2229 L 510.772 453.2777 L 510.7009 455.2199 L 511.4418 457.1079 L 511.7618 459.5637 L 512.4968 460.1949 L 512.0226 460.5473 L 512.7101 461.8422 L 513.6762 462.3273 L 513.8837 463.2015 L 515.2883 462.8628 L 516.2367 463.0275 L 516.1596 461.5951 L 517.1909 461.0506 L 518.0088 461.412 L 518.7378 462.5836 L 519.4076 462.7026 L 519.1468 464.6207 L 519.6446 465.0099 L 520.0358 468.1979 L 518.6845 468.821 L 518.5897 469.8522 L 520.024 471.3557 L 519.0282 471.8554 L 517.4754 471.727 L 516.6456 472.3873 L 516.6812 473.0935 L 515.9759 474.1713 L 516.4263 474.9924 L 516.2959 475.91 L 518.0444 476.5157 L 517.914 477.6264 L 518.6252 478.6409 L 518.5008 479.201 L 519.4787 481.6395 L 520.3144 482.4572 L 520.0951 483.1602 L 521.1382 483.6243 L 522.045 484.8742 L 522.5607 486.3177 L 524.0187 486.8556 L 525.4115 486.3361 L 525.536 485.2006 L 526.591 485.173 L 526.9762 484.3365 L 528.6654 484.5939 L 531.3918 485.4764 L 532.2453 485.4534 L 534.13 486.3223 L 535.0961 488.9572 L 536.0977 490.1993 L 537.3246 488.3409 L 537.0164 487.0533 L 537.5202 486.6946 L 537.9884 484.9432 L 538.7767 483.8219 L 539.3161 482.3837 L 541.2364 482.2413 L 542.9611 482.4251 L 543.2041 484.1022 L 545.6994 487.3062 L 546.4995 487.9684 L 548.325 488.5663 L 548.3902 489.1918 L 549.5696 489.04 L 550.1208 489.937 L 550.3224 491.9156 L 550.1208 493.14 L 550.6424 494.8803 L 552.0767 494.6132 L 552.5746 495 L 553.4518 493.499 L 553.351 491.8742 L 554.4831 491.391 L 554.6431 489.3804 L 553.3273 487.0671 L 553.7007 486.2809 L 552.6516 485.3569 L 551.401 484.7869 L 551.6263 481.3042 L 552.4679 481.0194 L 552.9895 478.9531 L 551.8871 477.4291 L 553.1732 477.2822 L 554.6609 475.8733 L 556.4389 476.4791 L 558.946 476.6626 L 559.6691 476.1762 L 560.57 476.4424 L 561.3939 479.6923 L 561.3701 480.7301 L 562.4192 482.3791 L 562.4785 483.3945 L 563.8535 484.7272 L 566.2005 486.3131 L 566.5384 486.9292 L 568.1979 488.3961 L 568.6662 488.4099 L 570.4027 487.0303 L 571.108 488.111 L 572.3586 488.8284 L 572.6728 487.7109 L 573.6863 487.8718 L 575.0317 489.9095 L 576.383 490.6686 L 577.3017 490.6686 L 577.9714 489.2516 L 579.3287 489.1412 L 579.9925 488.2628 L 579.8443 486.8924 L 579.2161 486.5889 L 578.4871 484.9708 L 578.3093 483.7345 L 576.9105 482.2826 L 576.6616 479.8805 L 578.1374 479.3709 L 578.7952 477.6998 L 577.6099 476.658 L 577.2839 475.4466 L 576.4363 475.0842 L 575.8318 473.3228 L 575.9089 471.7683 L 574.9546 470.7735 L 575.4644 470.2647 L 576.0867 471.021 L 577.6514 471.1723 L 578.244 470.7551 L 580.1347 471.9425 L 580.4311 473.0385 L 581.3557 473.8411 L 581.1186 472.0617 L 582.2447 471.6445 L 582.4759 471.0164 L 584.574 472.5661 L 585.5875 471.2685 L 584.7399 470.5168 L 584.2718 469.0272 L 585.1963 468.1933 L 587.3419 467.8909 L 588.302 468.9906 L 590.3113 468.9814 L 591.3722 469.6551 L 592.7235 469.2747 L 594.4068 470.4113 L 595.2247 468.624 L 596.3034 469.3297 L 597.1094 469.2197 L 597.1568 468.0512 L 595.8055 466.4891 L 596.582 465.5045 L 598.1585 467.5977 L 600.4048 467.5381 L 599.7706 466.2189 L 600.6596 464.3552 L 598.8223 463.6455 L 599.0179 462.785 L 598.5082 461.2518 L 599.0535 459.7558 L 599.2668 457.7023 L 600.0492 454.7537 L 600.8967 454.3013 L 601.9873 454.6441 L 601.8984 455.6266 L 602.9711 455.9786 L 605.1759 454.411 L 604.9685 452.8758 L 605.1048 450.9802 L 603.8187 447.0587 L 601.8628 446.3834 L 602.1888 445.0375 L 602.9652 444.4354 L 603.9135 442.894 L 602.2658 441.9137 L 601.5606 442.0596 L 601.4124 440.7286 L 601.8747 439.5802 L 602.497 439.2202 L 603.2853 440.2227 L 604.9092 439.2293 L 604.9152 438.5595 L 606.5095 437.8853 L 607.203 438.7964 L 607.1733 439.7351 L 608.8329 441.1069 L 610.119 441.426 L 610.5102 440.7605 L 612.3831 441.5992 L 612.6972 441.1252 L 613.9833 441.7907 L 614.3745 441.4898 L 616.0934 441.9047 L 616.7335 441.1388 L 617.5573 441.5491 L 618.7605 441.3212 L 617.6521 440.9975 L 614.4338 438.5367 L 613.5329 437.3478 L 613.3492 436.2365 L 610.6347 435.8631 L 610.042 434.8386 L 608.8033 434.429 L 607.4697 433.4093 L 605.4308 431.0477 L 605.4782 429.7285 L 603.7831 426.6958 L 603.5401 424.0329 L 604.0202 423.9556 L 603.6527 422.3522 L 603.8424 421.7118 L 603.3564 420.5721 L 602.4199 420.495 L 602.2362 419.5417 L 602.7459 419.3647 L 603.0838 418.2346 L 602.7696 417.3996 L 603.3505 416.4923 L 604.8381 416.1883 L 606.4562 415.3582 L 607.2208 415.6032 L 609.7693 414.6463 L 608.744 413.3177 L 610.5576 411.8219 L 610.3561 410.6209 L 609.473 408.3513 L 608.2046 407.8169 L 608.6491 406.0148 L 608.1276 405.4534 L 608.2165 404.2631 L 609.5204 403.4304 L 610.0242 402.1863 L 610.765 402.2089 L 612.0571 401.0736 L 612.1045 400.4314 L 613.361 398.8037 L 613.3314 397.6013 L 614.013 394.6599 L 614.6709 394.0637 L 616.3719 394.267 L 616.3837 393.314 L 617.5099 393.1876 L 618.3693 391.5983 L 619.5784 391.0115 L 619.7325 390.2713 L 617.901 389.3282 L 616.3186 388.9492 L 615.8918 388.1011 L 615.0324 388.0243 L 614.1789 387.3026 L 613.2721 387.862 L 612.3061 386.8832 L 611.0199 387.0636 L 610.5635 385.4988 L 609.2596 383.9526 L 609.5441 383.2179 L 609.8286 380.6948 L 607.5586 380.0237 L 606.5807 380.3345 L 606.0116 379.2807 L 605.087 378.9744 L 604.6603 377.6463 L 605.9405 374.6491 L 605.1759 371.8605 L 605.4071 370.3365 L 604.8263 369.5993 L 604.6781 368.0086 L 603.0482 366.333 L 603.1786 365.3001 L 604.3166 364.9364 L 603.9135 362.7501 L 607.0311 362.6784 L 607.3689 361.8257 L 607.9912 362.1219 L 608.9455 361.2379 L 609.8227 361.7988 L 613.1536 360.2105 L 614.5464 360.8431 L 615.0028 359.439 L 615.6666 358.6901 L 615.7436 357.6049 L 615.3643 356.2556 L 615.7377 355.3727 L 616.8638 355.2024 L 617.5099 354.0419 L 617.1958 351.7351 L 616.6208 351.4262 L 615.8503 349.2549 L 614.7065 346.9996 L 614.2738 344.6202 L 613.3847 343.5784 L 612.5846 344.2848 L 612.3179 346.1004 L 611.6837 346.4359 L 610.522 345.8545 L 609.9057 344.638 L 608.578 344.2669 L 607.849 342.443 L 607.6475 340.7359 L 606.6873 339.5833 L 604.9685 339.1187 L 604.5773 337.5155 L 602.6748 335.2032 L 601.7265 334.4669 L 600.7663 334.4267 L 600.2211 333.2265 L 600.8256 332.263 L 602.0999 331.38 L 601.2523 330.2073 L 601.1219 329.2444 L 600.1559 328.4154 L 598.9883 328.3396 L 596.8131 327.4127 L 596.1433 327.3682 L 594.7683 328.1034 L 593.3992 327.0563 L 593.9445 326.1653 L 594.9283 325.7555 L 595.7285 323.5689 L 595.604 321.0408 L 593.5118 320.311 L 592.6524 319.5503 L 591.627 319.7149 L 590.2461 318.8564 L 589.8608 318.1804 L 590.2401 317.1532 L 592.1901 316.5708 L 593.0613 314.2329 L 591.9589 314.3351 L 590.3113 313.0333 L 587.5552 312.4381 L 587.0811 313.4021 L 587.1996 314.304 L 586.2276 314.0418 L 584.9474 312.8734 L 584.248 310.746 L 585.1489 309.2099 L 586.8796 308.522 L 586.9151 307.5235 L 587.8338 306.6317 L 588.0531 305.6823 L 587.3656 304.2011 L 589.1199 303.3233 L 590.5009 303.4518 L 592.3145 301.2001 L 596.6116 298.0372 L 596.4871 296.7398 L 595.9003 296.2174 L 596.8368 294.0312 L 597.5362 293.8719 L 599.0298 289.7412 L 601.7206 286.1751 L 603.1489 284.9031 L 603.1312 284.2716 L 601.9458 283.1503 L 602.1532 281.0627 L 600.9856 281.0627 L 600.553 279.1128 L 599.9188 278.7908 L 599.1127 279.9112 L 597.4828 279.7391 L 596.5049 279.0069 L 594.7446 279.0599 L 592.5931 278.5306 L 591.301 277.7765 L 590.3883 276.26 L 589.4933 275.7443 L 588.9362 274.7571 L 588.9955 273.312 L 587.822 272.1756 L 587.0692 271.0087 L 585.4749 270.2382 L 584.7163 271.3654 L 584.497 269.9785 L 584.0109 269.5163 L 582.4759 270.5244 L 580.5911 269.6043 L 580.2829 268.8517 L 579.4887 269.3755 L 577.841 269.0894 L 577.1654 267.8617 L 574.5872 265.6622 L 574.3738 264.5144 L 572.9573 264.1056 L 572.4357 264.6112 L 571.4459 264.2594 L 570.4561 264.664 L 568.8973 264.7255 L 568.2513 263.5209 L 567.2318 262.8044 L 566.5325 262.989 L 563.895 262.3561 L 562.84 261.5651 L 562.3125 261.6706 L 559.0527 260.6117 L 558.3711 261.653 L 556.4034 260.849 L 555.2061 261.1829 L 554.1867 260.8841 L 553.4044 261.9474 L 552.5153 261.5476 L 551.484 261.7629 L 549.5044 260.8885 L 548.7814 262.1979 L 546.8373 262.8703 L 545.9601 266.2691 L 543.3997 267.558 L 542.813 267.5184 L 542.3033 266.3527 L 541.4735 265.4291 L 541.3134 264.1759 L 540.4659 262.466 L 540.0866 262.6374 L 538.7056 261.5564 L 533.8515 261.2268 L 532.6483 261.6926 L 532.269 260.7303 L 530.1471 260.8358 L 529.1277 260.5283 L 528.4639 260.9632 L 527.7705 260.2207 L 525.0856 260.5634 L 521.0908 260.2998 L 520.6403 260.9324 L 520.2788 262.6462 L 519.129 263.5736 L 517.5347 263.7759 L 516.4382 263.4857 L 515.8277 262.1408 L 514.2393 261.3059 L 512.4197 261.4685 L 511.1514 260.9193 L 509.5096 261.3543 L 507.9153 260.8885 L 507.5478 259.4433 L 507.0677 260.3657 L 507.8916 261.5432 L 506.5284 261.9167 L 507.0914 263.8858 L 506.7477 264.9674 L 505.4674 264.8266 L 505.8231 267.3865 L 505.2363 268.7549 L 504.6259 268.4557 L 504.2347 266.8101 L 501.2416 266.4187 L 500.7437 266.7617 L 499.3035 265.2532 L 497.7802 265.5698 L 497.3535 264.8574 L 495.7473 264.2506 L 493.904 264.4397 L 493.3054 265.1608 L 492.8668 264.6244 L 492.3334 262.6946 L 491.071 264.1715 L 490.2709 263.1824 L 488.0897 263.222 L 487.8112 263.9868 L 486.7384 264.3474 L 485.0966 263.7934 L 484.8062 263.2835 L 482.6073 264.0616 L 482.0976 263.5473 L 478.9149 263.0857 L 478.1503 263.5209 L 476.959 263.2923 L 475.7736 262.2814 L 474.6178 262.8352 L 473.6162 262.6594 L 472.7153 261.9782 L 471.8618 262.0001 L 470.5579 261.4333 L 469.1118 261.7365 L 467.9442 260.5326 L 468.5546 260.1329 L 467.3159 260.1197 L 466.2313 260.8226 L 465.4548 260.0714 L 463.6827 259.6322 L 462.2602 261.3103 L 460.98 261.2092 L 459.6405 261.5388 L 458.3544 260.8314 L 457.3172 259.3906 L 455.3673 258.5211 L 454.087 257.4849 L 452.143 257.7395 L 450.4597 257.3049 L 449.8315 256.5806 L 447.4726 256.0979 L 446.625 254.6103 L 445.1077 254.9306 L 443.8335 254.8648 L 443.1341 254.1057 L 442.2332 254.7594 L 440.7989 254.6322 L 439.0445 253.7592 L 436.976 253.1671 L 436.6145 254.3207 L 435.9625 254.562 L 433.0346 253.6101 L 431.298 253.6934 L 430.3023 253.4083 L 425.0925 253.382 L 423.3619 252.6276 L 421.1334 252.5838 L 419.9598 252.0795 L 417.352 251.6673 L 416.4926 249.6815 L 414.2878 249.2389 L 413.3217 250.1549 L 409.9196 249.309 L 406.6361 248.1566 L 403.0089 248.0821 L 400.3773 247.6046 L 395.8847 247.5433 L 391.7714 246.6322 L 389.8274 246.4001 L 387.836 245.4235 L 386.2357 245.7081 L 385.4474 246.5008 L 383.8471 245.6425 L 381.4052 245.8483 L 376.7645 244.6617 L 376.3437 244.2677 L 371.6732 242.7358 L 369.101 241.1826 L 368.8165 240.1373 L 366.3094 239.6168 L 365.2485 239.0746 L 361.2478 240.1985 L 359.9616 240.0104 L 358.0532 239.3282 L 356.3166 238.3707 L 354.8645 238.0078 L 354.2837 238.3357 L 352.1263 237.0025 L 350.6505 235.01 L 351.6284 231.5513 L 349.7318 232.8262 L 349.554 233.5467 L 347.5448 235.2153 L 343.8464 236.7402 L 340.5688 236.2202 L 339.5079 235.8139 L 337.9076 234.2761 L 336.817 233.7083 L 333.2076 232.4332 L 332.1644 231.5601 L 331.3939 231.4553 L 332.2593 233.8394 L 331.7021 235.0231 L 330.3745 235.4075 L 328.5668 235.0886 L 328.2882 234.7348 L 325.9471 234.3416 L 325.3129 235.01 L 324.6787 237.0986 L 323.6949 238.7073 L 321.3063 238.9915 L 320.4469 239.525 L 318.8644 238.4494 L 317.6257 236.749 L 317.1456 235.5255 L 315.6758 234.9707 L 314.4548 233.8612 L 312.2322 232.7738 L 310.1756 233.2061 L 308.1486 232.8611 L 307.3722 232.1276 L 306.3349 231.9311 L 304.7643 232.3546 L 304.2842 232.8698 L 301.866 232.7694 L 299.6968 231.9879 L 298.4581 232.2324 L 297.7587 231.3898 L 293.7462 231.2327 L 292.0748 229.679 L 290.0655 229.1729 L 289.1231 228.501 L 289.2713 227.3757 L 289.7988 226.6998 L 289.052 226.2506 L 286.0115 225.7405 L 285.3655 224.5243 L 283.6348 224.411 L 284.6839 225.492 L 284.3461 228.1608 L 283.8719 229.8623 L 282.7162 231.4989 L 281.1633 232.3328 L 280.7603 232.9965 L 281.1515 234.0708 L 281.187 236.4737 L 279.6756 235.9362 L 277.3938 235.792 L 276.8959 236.1285 L 275.3371 235.9187 L 274.5548 236.4125 L 271.8107 235.6915 L 271.0046 235.1541 L 270.0089 235.2415 L 268.6871 236.4999 L 268.0293 236.5698 L 267.7744 237.6188 L 266.3579 238.3051 L 264.5087 238.4625 L 262.4106 239.0527 L 260.674 239.2101 L 259.21 238.6811 L 258.2202 237.9292 L 257.6631 239.2714 L 258.9729 240.9114 L 258.6292 242.4339 L 258.9552 243.5761 L 258.3921 244.4209 L 258.6766 245.2922 L 260.6147 246.2731 L 261.3615 246.0979 L 263.6019 247.3374 L 263.1751 247.7798 L 263.9871 248.7787 L 266.4468 248.5465 L 268.7464 249.2959 L 270.7972 249.2345 L 272.2552 248.6824 L 273.8851 248.5246 L 274.8926 249.3178 L 274.2288 250.1373 L 274.0095 251.6366 L 273.405 252.1408 L 274.0095 253.36 L 273.9384 254.1979 L 273.239 254.0619 L 272.5041 254.7024 L 272.7471 256.0276 L 272.2374 256.9669 L 272.5871 260.0187 L 271.5676 260.7655 L 272.3085 262.3869 L 273.3279 263.6615 L 273.2568 264.3781 L 272.4033 264.8178 L 271.3009 264.576 L 270.8683 264.9849 L 270.4712 267.2633 L 270.7023 269.0014 L 271.3424 269.3271 L 272.2492 269.0058 L 273.2983 270.4408 L 272.3855 270.5993 L 272.1603 271.242 L 269.8785 274.3606 L 268.6694 273.7349 L 266.8913 274.5853 L 266.103 275.6782 L 263.3589 276.9962 L 262.1142 276.8022 L 261.6756 277.4458 L 262.4995 279.0687 L 261.5867 281.3671 L 263.1751 282.3602 L 261.1777 283.4946 L 260.0042 284.5498 L 259.6486 285.3933 L 260.4547 285.9321 L 261.0414 287.3635 L 261.9898 288.7599 L 262.3632 290.285 L 263.5663 291.3462 L 265.3977 291.5982 L 265.8304 292.3147 L 265.7296 294.9914 L 265.3325 297.2136 L 264.7991 297.5013 L 265.1251 298.3649 L 264.4494 302.3259 L 265.457 303.6735 L 265.2258 304.4007 L 267.1876 304.5647 L 267.0513 305.19 L 267.9344 305.1501 L 270.4356 303.74 L 270.9809 302.9331 L 272.51 303.9173 L 274.2644 302.8666 L 275.7343 303.9572 L 276.1373 304.2144 L 277.7316 303.7311 L 277.6724 304.1124 L 279.3378 305.7577 L 280.3632 305.7134 L 281.1633 304.6446 L 282.1235 304.0947 L 284.3401 303.3499 L 287.3747 303.9572 L 288.0504 305.4295 L 288.7379 306.0727 L 290.7531 305.3142 L 291.5058 304.5603 L 291.4347 303.6735 L 292.2941 302.2727 L 293.0705 301.6788 L 294.4337 301.6256 L 295.2931 302.5519 L 296.7096 302.8001 L 298.2506 302.0156 L 299.7442 302.2993 L 301.8008 301.8338 L 302.7077 302.5607 L 306.7202 302.7159 L 308.2256 302.9021 L 309.82 302.6538 L 311.1595 303.0085 L 311.8351 304.3607 L 312.9612 303.9395 L 314.5792 304.1169 L 315.0772 304.8441 L 317.3649 304.6756 L 320.1861 306.3832 L 321.5078 306.8357 L 323.3274 307.914 L 323.5467 309.2277 L 324.6017 310.0134 L 324.335 311.4521 L 325.1588 312.4647 L 327.014 313.0777 L 327.903 311.8562 L 329.4499 312.0783 L 329.4144 310.1111 L 331.0324 310.1245 L 332.3304 311.0035 L 334.0729 309.9335 L 336.9415 309.7426 L 338.2869 310.5196 L 340.794 310.4885 L 342.0268 312.105 L 346.5135 314.2818 L 350.5142 315.1972 L 352.5115 315.9573 L 356.1388 317.9002 L 357.3834 317.3933 L 358.3555 317.5845 L 358.877 318.7897 L 359.8431 320.0174 L 361.8998 320.0219 L 362.7829 320.271 L 363.8675 321.8952 L 364.9936 322.3314 L 368.4194 322.8255 L 368.7572 324.0542 L 367.2043 326.2366 L 367.6252 327.992 L 370.4286 328.763 L 373.0898 330.5818 L 374.5241 331.0277 L 377.4579 332.8607 L 379.0997 333.1194 L 380.2791 334.3285 L 383.1655 334.0385 L 386.0579 334.2304 L 388.6124 333.628 L 389.2406 334.1455 L 391.5225 334.2928 L 392.4945 332.1158 L 393.911 332.9232 L 393.668 334.1946 L 394.2607 336.386 L 395.3098 339.3733 L 395.9262 340.1819 L 396.7915 342.3133 L 397.6154 345.3446 L 398.1725 346.1586 L 398.9074 348.1584 L 398.5162 349.1162 L 400.1758 350.7993 L 400.164 351.3366 L 401.1537 352.0979 L 402.1021 351.7217 L 402.9081 352.2322 L 405.0596 351.3903 L 406.0731 352.0531 L 406.3635 351.6143 L 407.9697 350.9605 L 409.7596 350.7725 L 409.3625 352.1919 L 408.2957 352.6622 L 407.8867 353.6118 L 407.1873 353.5491 L 406.1916 354.4003 L 404.1409 354.1001 L 403.0978 356.0181 L 402.3035 356.4752 L 400.8633 359.3493 L 401.5983 360.6277 L 402.428 361.036 L 402.3865 361.9962 L 402.8607 363.7152 L 402.3806 364.9858 L 402.5821 366.872 L 403.2578 368.2153 L 402.8607 369.7342 L 403.0325 370.8309 L 403.7734 372.1483 L 403.0207 373.2951 L 404.8106 374.4016 L 404.2298 377.1646 L 405.4685 378.3441 L 405.5634 379.6544 L 405.2374 380.9831 L 405.7352 381.8841 L 407.1636 383.1008 L 407.3355 384.3402 L 407.0332 385.1246 L 405.5811 386.3871 L 404.6447 386.8471 L 403.1867 386.5811 L 402.0606 387.4921 L 400.4899 386.6397 L 399.9031 388.1732 L 398.7178 390.33 L 398.6467 391.9008 L 397.1235 392.7361 L 396.1988 393.6256 L 396.6967 395.5408 L 396.1751 396.5484 L 397.1412 397.5923 L 397.6747 397.5154 L 399.6661 398.5505 L 400.9285 399.5361 L 401.4856 400.5671 L 401.0174 401.3857 L 401.0886 402.9237 L 399.2986 405.4715 L 399.4231 406.2955 L 401.3553 408.1113 L 401.9539 410.4533 L 401.865 411.7765 L 400.7152 412.6287 L 400.1225 414.1067 L 400.4425 414.9728 L 399.4705 416.7281 L 398.6882 417.4087 L 398.3622 419.6143 L 397.5265 420.5313 L 396.0743 421.5075 L 396.0032 424.3145 L 395.4283 428.1642 L 394.5393 429.492 Z" fill="[object Object]" fill-opacity="1" stroke="dodgerblue" stroke-width="1" paint-order="fill" stroke-opacity="1" stroke-dasharray="" stroke-linecap="butt" stroke-miterlimit="10" style="filter: url(&quot;#zr2323-shadow-1&quot;);">
</path>
<path d="M 634.4668 79.4037 L 633.3999 77.672 L 632.6294 77.4992 L 631.6278 76.5558 L 630.9403 75.2547 L 629.2037 74.9516 L 628.4806 74.3539 L 626.4655 73.7267 L 625.0371 72.9314 L 623.0041 71.0931 L 621.4572 70.3487 L 619.5665 69.9619 L 618.5115 69.2934 L 617.4743 69.1715 L 616.9942 68.4401 L 616.8401 66.7298 L 613.9478 65.2093 L 612.2705 64.0209 L 610.3383 63.0428 L 608.7618 62.5265 L 606.9541 60.2189 L 605.7212 59.8918 L 604.4588 58.5624 L 603.3445 58.9314 L 601.8865 57.3173 L 600.0907 57.4514 L 596.6294 55.884 L 594.146 55.7793 L 593.174 55.4859 L 589.6771 55.62 L 589.114 55.0335 L 587.8101 55 L 585.4512 55.5781 L 586.3462 56.7221 L 586.9329 58.2102 L 587.5552 58.9481 L 585.7476 61.3935 L 585.7179 62.4762 L 585.22 64.6382 L 585.5638 66.0661 L 584.8289 67.4903 L 584.4081 69.6214 L 584.8526 70.559 L 584.4851 72.3761 L 585.5875 73.592 L 586.7551 73.7436 L 586.3462 74.5096 L 586.7788 76.5263 L 586.518 79.0918 L 587.0811 80.862 L 588.0531 81.1824 L 587.9938 82.5698 L 587.4486 84.2402 L 587.816 85.0799 L 589.5467 85.9662 L 589.1022 87.0596 L 589.4815 90.4936 L 585.3504 92.6153 L 583.8331 92.2349 L 582.6833 91.2923 L 581.7113 91.2923 L 580.4074 90.2105 L 578.1374 89.7119 L 578.6115 91.8798 L 577.6454 92.0869 L 576.9638 92.924 L 578.3982 94.3533 L 578.167 95.3643 L 577.5388 95.7112 L 574.3382 95.6435 L 573.1884 96.0285 L 572.5839 96.9002 L 574.3975 98.3225 L 573.9589 100.461 L 573.1647 101.0667 L 572.4594 102.4098 L 570.865 104.2705 L 570.7346 104.9108 L 571.3985 107.095 L 572.0563 107.6508 L 572.5364 111.5605 L 566.4495 109.7177 L 563.7943 108.8093 L 561.0205 108.5759 L 560.0959 108.8348 L 558.2466 110.6347 L 556.7768 114.2751 L 557.2687 115.5034 L 555.1469 116.4345 L 554.6371 115.1889 L 553.5585 115.0614 L 553.3214 116.2517 L 552.7643 116.1836 L 550.4113 114.7851 L 548.7754 114.4918 L 548.0998 113.9947 L 546.8907 113.9819 L 546.4758 114.8786 L 545.5986 114.4323 L 543.9865 112.8899 L 543.0619 112.7285 L 541.0171 111.1485 L 540.8097 109.9597 L 539.0731 108.0794 L 537.5973 108.5038 L 537.2061 107.6381 L 536.649 105.0677 L 536.2044 104.4274 L 535.3391 104.6733 L 533.9759 104.2875 L 533.3595 103.7152 L 531.7118 102.9819 L 530.7576 101.7106 L 529.5604 102.2827 L 529.0447 103.7449 L 528.0786 103.7068 L 527.5452 104.6818 L 526.7036 105.2542 L 525.9449 104.9701 L 524.9848 106.0303 L 523.5979 106.726 L 522.7029 107.8248 L 522.2466 106.9848 L 521.4642 106.6921 L 520.0121 107.9988 L 519.4787 106.8914 L 518.726 106.8575 L 518.0147 107.5024 L 517.1968 107.4514 L 516.0055 106.7515 L 514.8735 107.0569 L 514.2512 106.3527 L 513.8185 106.8448 L 511.5959 107.392 L 511.1514 106.5054 L 510.1616 105.7377 L 509.1836 105.6741 L 508.4783 103.8975 L 508.6621 103.3592 L 507.6545 102.4607 L 506.315 102.0623 L 505.6156 100.7575 L 503.4997 101.6005 L 502.2847 100.66 L 501.6861 101.0074 L 501.0815 100.228 L 499.6828 100.3593 L 499.1849 99.9993 L 496.0733 100.5584 L 495.285 100.8803 L 494.313 102.1047 L 492.1675 102.5793 L 489.4944 102.609 L 488.5817 102.342 L 487.26 102.6048 L 485.6182 102.5497 L 483.4845 103.3803 L 482.2339 103.5202 L 480.8885 104.6182 L 479.9343 104.0035 L 479.8099 100.2364 L 479.1164 99.1311 L 475.5128 88.1828 L 472.9998 80.7651 L 471.4707 81.174 L 469.1533 80.9211 L 455.7762 82.9578 L 454.8397 83.5188 L 451.3962 83.0885 L 448.2905 81.4565 L 447.1288 80.2845 L 446.382 78.1691 L 446.9747 77.4024 L 451.9296 77.0949 L 451.9474 74.699 L 449.7663 74.699 L 446.0264 72.1152 L 445.2026 71.4127 L 435.678 71.7871 L 433.2361 71.9385 L 427.9908 72.5948 L 426.7047 73.1755 L 425.4659 73.0534 L 423.9012 71.8965 L 422.5558 71.9091 L 421.3586 71.4506 L 421.6372 70.0881 L 422.1765 64.3862 L 421.1986 63.0512 L 420.7718 61.8131 L 419.3316 60.8355 L 419.0767 59.9462 L 419.7583 57.7532 L 418.5848 56.6635 L 415.4554 58.5792 L 413.3039 58.2689 L 412.652 58.7468 L 411.8044 57.4975 L 410.9391 57.2377 L 408.7758 57.7994 L 407.8097 59.0278 L 406.2627 58.7259 L 405.8538 59.2501 L 404.0757 58.9691 L 401.7761 60.0134 L 401.2308 59.7156 L 398.9904 60.6341 L 398.2021 60.1098 L 396.6848 60.7474 L 393.8814 60.609 L 393.4784 61.2215 L 391.641 61.1418 L 390.1889 63.2191 L 390.1237 64.5752 L 388.565 64.3527 L 387.8241 65.1169 L 388.3635 66.2929 L 386.698 67.045 L 384.2442 66.8769 L 381.672 66.9231 L 379.2775 68.0493 L 378.8093 68.0031 L 377.7187 69.327 L 376.723 69.449 L 374.7968 69.2052 L 374.1566 69.7012 L 371.8037 69.9746 L 371.205 70.4917 L 369.8003 70.5968 L 365.0351 72.8725 L 364.9818 73.7436 L 364.069 74.1602 L 361.8168 74.4128 L 360.7973 75.04 L 359.6594 74.6148 L 357.4487 74.6695 L 356.3937 75.5578 L 354.6571 75.4231 L 353.448 76.3536 L 350.8224 77.0949 L 350.0756 77.0569 L 348.5938 77.7267 L 346.2053 77.832 L 343.9946 78.9865 L 342.1039 80.4489 L 340.5688 80.8957 L 340.1954 81.4438 L 338.5833 81.7643 L 337.6883 81.3427 L 336.3666 81.7812 L 335.1338 82.5529 L 332.4845 83.3079 L 331.7081 83.9618 L 330.6649 83.8183 L 326.5339 84.6833 L 325.3485 84.5735 L 322.7643 85.4977 L 319.6468 86.1815 L 318.331 86.9878 L 318.414 86.3377 L 314.9052 86.8147 L 313.9273 86.2701 L 311.681 85.9029 L 310.3949 86.5235 L 311.4795 88.1533 L 310.6379 88.5165 L 309.7251 89.7711 L 309.9622 90.4175 L 307.8996 90.5401 L 306.5779 91.2754 L 306.7083 92.0277 L 305.1614 92.7549 L 303.5849 92.6788 L 303.2885 93.2199 L 303.5908 94.7932 L 302.6188 95.3219 L 301.706 96.4813 L 299.0448 97.0399 L 297.1482 95.8508 L 295.3405 95.9862 L 294.7241 96.4093 L 293.4083 96.1893 L 292.0333 96.4644 L 289.1528 96.2951 L 288.3408 97.2473 L 288.2875 100.3211 L 289.0461 101.7276 L 289.4906 101.5115 L 291.2509 101.9141 L 290.4152 104.0416 L 289.7396 103.9272 L 289.947 104.6861 L 289.4551 105.1779 L 292.5904 108.3255 L 295.6606 111.1018 L 298.784 111.3694 L 299.1634 107.5151 L 300.9059 106.8744 L 306.495 106.4206 L 305.8726 113.0514 L 306.0149 140.4146 L 308.6049 141.0303 L 308.9191 142.0397 L 310.14 142.3948 L 312.0485 141.997 L 312.8367 143.2162 L 315.6698 144.2603 L 316.0432 145.0436 L 317.1397 145.0779 L 317.9576 146.2551 L 318.4733 146.1823 L 319.2556 147.3942 L 320.5417 147.7583 L 321.7508 149.4033 L 321.1818 150.2476 L 321.0337 152.0093 L 323.0192 152.6525 L 324.3587 154.0764 L 324.2816 154.9129 L 325.0225 155.0759 L 326.8658 154.0979 L 329.3195 154.7156 L 330.09 155.2176 L 330.9909 156.5478 L 331.5777 157.9645 L 331.6784 160.03 L 332.7749 162.1912 L 332.6919 163.9492 L 333.8358 164.6716 L 334.3396 166.3016 L 335.1694 166.6285 L 335.1279 170.7991 L 336.3251 171.1781 L 337.0601 172.3323 L 337.9609 172.4658 L 339.0041 173.2241 L 339.3182 176.711 L 340.0117 177.966 L 339.9939 179.1048 L 339.4723 180.2223 L 340.474 181.543 L 340.0176 181.9661 L 337.469 181.897 L 336.2303 182.1042 L 335.122 181.2667 L 332.6445 182.2467 L 332.36 183.9437 L 331.6488 184.4188 L 328.9698 184.6348 L 328.4542 186.7692 L 326.1427 187.6856 L 325.3722 187.4089 L 321.3656 187.2879 L 320.524 187.5775 L 318.7696 189.5231 L 317.7028 191.6166 L 316.2862 192.8022 L 315.2964 192.681 L 314.8104 194.3648 L 315.0119 196.8028 L 316.227 198.8131 L 314.7986 199.4589 L 314.68 200.5859 L 314.1881 200.9284 L 314.0992 202.4028 L 314.8401 202.2813 L 315.3794 203.8907 L 314.8104 204.6716 L 315.6165 206.6421 L 317.2701 206.8635 L 318.734 206.6551 L 319.3267 207.1847 L 318.9356 207.8013 L 319.6053 208.2486 L 322.8118 208.1618 L 327.3399 209.304 L 328.3771 209.9687 L 328.0571 211.3243 L 328.5727 213.063 L 328.0749 214.8849 L 329.1299 215.8593 L 328.2705 217.5866 L 328.6735 218.1958 L 328.1164 219.8805 L 328.4186 220.869 L 327.9919 221.8011 L 330.0604 223.3085 L 330.1493 223.8793 L 329.1121 225.1912 L 328.9224 226.3858 L 331.0502 227.8336 L 330.8961 229.8666 L 331.2754 230.4601 L 330.8131 231.189 L 331.3939 231.4553 L 332.1644 231.5601 L 333.2076 232.4332 L 336.817 233.7083 L 337.9076 234.2761 L 339.5079 235.8139 L 340.5688 236.2202 L 343.8464 236.7402 L 347.5448 235.2153 L 349.554 233.5467 L 349.7318 232.8262 L 351.6284 231.5513 L 350.6505 235.01 L 352.1263 237.0025 L 354.2837 238.3357 L 354.8645 238.0078 L 356.3166 238.3707 L 358.0532 239.3282 L 359.9616 240.0104 L 361.2478 240.1985 L 365.2485 239.0746 L 366.3094 239.6168 L 368.8165 240.1373 L 369.101 241.1826 L 371.6732 242.7358 L 376.3437 244.2677 L 376.7645 244.6617 L 381.4052 245.8483 L 383.8471 245.6425 L 385.4474 246.5008 L 386.2357 245.7081 L 387.836 245.4235 L 389.8274 246.4001 L 391.7714 246.6322 L 395.8847 247.5433 L 400.3773 247.6046 L 403.0089 248.0821 L 406.6361 248.1566 L 409.9196 249.309 L 413.3217 250.1549 L 414.2878 249.2389 L 416.4926 249.6815 L 417.352 251.6673 L 419.9598 252.0795 L 421.1334 252.5838 L 423.3619 252.6276 L 425.0925 253.382 L 430.3023 253.4083 L 431.298 253.6934 L 433.0346 253.6101 L 435.9625 254.562 L 436.6145 254.3207 L 436.976 253.1671 L 439.0445 253.7592 L 440.7989 254.6322 L 442.2332 254.7594 L 443.1341 254.1057 L 443.8335 254.8648 L 445.1077 254.9306 L 446.625 254.6103 L 447.4726 256.0979 L 449.8315 256.5806 L 450.4597 257.3049 L 452.143 257.7395 L 454.087 257.4849 L 455.3673 258.5211 L 457.3172 259.3906 L 458.3544 260.8314 L 459.6405 261.5388 L 460.98 261.2092 L 462.2602 261.3103 L 463.6827 259.6322 L 465.4548 260.0714 L 466.2313 260.8226 L 467.3159 260.1197 L 468.5546 260.1329 L 467.9442 260.5326 L 469.1118 261.7365 L 470.5579 261.4333 L 471.8618 262.0001 L 472.7153 261.9782 L 473.6162 262.6594 L 474.6178 262.8352 L 475.7736 262.2814 L 476.959 263.2923 L 478.1503 263.5209 L 478.9149 263.0857 L 482.0976 263.5473 L 482.6073 264.0616 L 484.8062 263.2835 L 485.0966 263.7934 L 486.7384 264.3474 L 487.8112 263.9868 L 488.0897 263.222 L 490.2709 263.1824 L 491.071 264.1715 L 492.3334 262.6946 L 492.8668 264.6244 L 493.3054 265.1608 L 493.904 264.4397 L 495.7473 264.2506 L 497.3535 264.8574 L 497.7802 265.5698 L 499.3035 265.2532 L 500.7437 266.7617 L 501.2416 266.4187 L 504.2347 266.8101 L 504.6259 268.4557 L 505.2363 268.7549 L 505.8231 267.3865 L 505.4674 264.8266 L 506.7477 264.9674 L 507.0914 263.8858 L 506.5284 261.9167 L 507.8916 261.5432 L 507.0677 260.3657 L 507.5478 259.4433 L 507.9153 260.8885 L 509.5096 261.3543 L 511.1514 260.9193 L 512.4197 261.4685 L 514.2393 261.3059 L 515.8277 262.1408 L 516.4382 263.4857 L 517.5347 263.7759 L 519.129 263.5736 L 520.2788 262.6462 L 520.6403 260.9324 L 521.0908 260.2998 L 525.0856 260.5634 L 527.7705 260.2207 L 528.4639 260.9632 L 529.1277 260.5283 L 530.1471 260.8358 L 532.269 260.7303 L 532.6483 261.6926 L 533.8515 261.2268 L 538.7056 261.5564 L 540.0866 262.6374 L 540.4659 262.466 L 541.3134 264.1759 L 541.4735 265.4291 L 542.3033 266.3527 L 542.813 267.5184 L 543.3997 267.558 L 545.9601 266.2691 L 546.8373 262.8703 L 548.7814 262.1979 L 549.5044 260.8885 L 551.484 261.7629 L 552.5153 261.5476 L 553.4044 261.9474 L 554.1867 260.8841 L 555.2061 261.1829 L 556.4034 260.849 L 558.3711 261.653 L 559.0527 260.6117 L 562.3125 261.6706 L 562.84 261.5651 L 563.895 262.3561 L 566.5325 262.989 L 567.2318 262.8044 L 568.2513 263.5209 L 568.8973 264.7255 L 570.4561 264.664 L 571.4459 264.2594 L 572.4357 264.6112 L 572.9573 264.1056 L 574.3738 264.5144 L 574.5872 265.6622 L 577.1654 267.8617 L 577.841 269.0894 L 579.4887 269.3755 L 580.2829 268.8517 L 580.5911 269.6043 L 582.4759 270.5244 L 584.0109 269.5163 L 584.497 269.9785 L 584.7163 271.3654 L 585.4749 270.2382 L 587.0692 271.0087 L 587.822 272.1756 L 588.9955 273.312 L 588.9362 274.7571 L 589.4933 275.7443 L 590.3883 276.26 L 591.301 277.7765 L 592.5931 278.5306 L 594.7446 279.0599 L 596.5049 279.0069 L 597.4828 279.7391 L 599.1127 279.9112 L 599.9188 278.7908 L 600.553 279.1128 L 600.9856 281.0627 L 602.1532 281.0627 L 603.0956 280.745 L 603.3209 281.2833 L 604.9567 280.8641 L 606.9363 281.4201 L 608.4654 282.3337 L 610.2257 282.9383 L 611.3755 282.6559 L 612.6854 283.4593 L 613.6337 283.3489 L 613.9122 282.5367 L 613.4736 279.4171 L 613.8115 276.5642 L 614.7361 275.9911 L 615.9926 276.5509 L 615.9985 278.1426 L 617.8595 278.4071 L 619.608 278.1866 L 620.3311 279.2318 L 621.226 279.6818 L 622.5478 279.5053 L 623.425 280.167 L 624.6577 280.1274 L 625.8372 281.2259 L 626.8448 280.6171 L 627.9413 281.7379 L 631.3492 281.8305 L 633.0206 281.2392 L 633.5896 281.3715 L 634.2475 279.6156 L 635.0358 279.7965 L 636.0255 279.1084 L 638.1889 279.8318 L 638.26 278.8129 L 639.2557 274.8144 L 640.1388 273.1226 L 639.967 271.4446 L 641.3954 269.7936 L 641.7391 268.6801 L 643.8254 269.2742 L 643.2801 270.793 L 644.0091 271.656 L 644.7915 270.9823 L 645.8998 271.7484 L 647.6305 271.6471 L 649.2722 270.9646 L 650.1849 271.1452 L 651.9986 272.431 L 656.2067 271.6692 L 657.2084 270.9206 L 658.0796 269.5075 L 659.8399 268.5569 L 661.4046 268.4733 L 663.4139 267.1753 L 663.8643 264.7167 L 663.6272 264 L 664.8126 263.4417 L 665.8558 263.6352 L 667.9361 265.4247 L 669.9927 264.7695 L 669.483 264.0924 L 669.9334 263.644 L 672.8376 264.4178 L 674.2423 264.6024 L 675.0543 263.6 L 675.6885 264.1012 L 677.188 264.4441 L 678.3971 264.0572 L 679.2387 262.633 L 680.5545 262.5011 L 681.491 260.4272 L 682.7059 258.8724 L 682.8186 256.2515 L 682.2081 255.6985 L 681.8466 254.2724 L 680.8923 252.5969 L 679.2861 251.9304 L 678.9542 251.0228 L 679.2802 250.2601 L 679.1972 248.2574 L 678.2311 247.2585 L 678.8535 245.6381 L 676.8739 242.3595 L 677.6681 240.5221 L 677.1525 239.5294 L 675.5344 237.8286 L 674.2305 237.1467 L 674.4735 235.5342 L 672.9325 235.4381 L 672.3872 233.0402 L 671.0596 232.2236 L 670.9884 231.4684 L 673.0806 231.0014 L 673.5192 230.5998 L 673.5015 229.4565 L 675.6885 227.0312 L 675.9433 223.8532 L 676.6487 223.23 L 676.6487 221.7837 L 675.3032 219.3668 L 673.3118 216.8207 L 671.8301 216.0332 L 671.4804 214.837 L 670.7455 214.6849 L 670.3721 212.3718 L 672.7961 211.7111 L 677.4962 209.695 L 678.972 208.5222 L 681.2183 207.8404 L 685.2012 205.5786 L 688.295 204.6152 L 689.2018 203.9253 L 690.0198 202.6457 L 690.9266 202.5025 L 692.3135 201.6872 L 693.1669 200.794 L 692.1238 197.6865 L 692.4794 196.543 L 690.5887 194.3561 L 686.6888 191.3873 L 685.8294 188.8442 L 685.2605 188.1741 L 680.7323 185.3217 L 680.5249 184.4232 L 682.374 184.9415 L 683.8083 184.043 L 684.5907 180.8524 L 685.5746 177.5433 L 686.2265 176.5342 L 686.7837 176.5084 L 687.7438 175.5426 L 688.9707 175.5383 L 689.3856 174.8831 L 689.7708 172.5563 L 690.3873 173.0345 L 691.5193 172.845 L 691.8275 173.2456 L 693.4929 173.6377 L 693.4929 172.608 L 692.4676 172.1213 L 692.7402 170.1834 L 692.1416 168.6896 L 692.841 166.4865 L 692.6335 164.5469 L 691.9282 163.5795 L 691.8749 161.2931 L 693.9493 159.6478 L 694.4353 158.8833 L 694.3168 156.0843 L 693.896 154.7842 L 695.514 151.2334 L 697.3395 150.1104 L 697.2743 148.1866 L 698.0566 147.3899 L 699.408 147.3643 L 701.3639 144.8766 L 703.545 144.1105 L 704.031 143.2119 L 703.6754 141.0688 L 702.3122 140.1452 L 701.9566 138.9311 L 701.9092 136.8371 L 702.4781 135.7393 L 700.0896 134.7484 L 699.8288 134.3086 L 697.8611 133.8219 L 696.0119 133.0962 L 695.3895 134.2147 L 694.4946 133.775 L 694.3464 132.2041 L 692.7995 130.8089 L 691.8927 130.506 L 690.0613 129.2605 L 690.8021 127.9216 L 689.356 126.7578 L 689.3856 126.0588 L 690.2984 124.4611 L 691.6437 123.4047 L 692.9299 123.8562 L 695.4488 122.9831 L 696.5097 122.8682 L 698.0566 123.1663 L 700.4867 121.7909 L 702.1048 121.9102 L 703.4739 120.7651 L 701.8618 120.4374 L 700.789 119.3693 L 698.9101 118.5312 L 699.5799 115.4737 L 699.1591 113.2935 L 698.0804 112.8942 L 697.5825 113.1831 L 696.5216 112.754 L 695.4073 110.3757 L 694.133 110.5073 L 692.8113 109.9257 L 691.2052 110.0148 L 689.5752 110.571 L 687.726 109.5097 L 686.1021 108.9961 L 684.644 107.4175 L 685.053 106.6327 L 684.5196 105.865 L 683.4883 105.8777 L 683.0023 106.586 L 681.2776 107.0484 L 681.082 108.2152 L 680.1515 108.0624 L 679.1202 109.0725 L 677.6622 109.6625 L 675.5225 110.0106 L 674.3549 109.4205 L 673.9163 108.7669 L 671.51 109.1659 L 669.7912 108.177 L 669.809 107.583 L 671.1307 106.0855 L 671.0299 105.1059 L 669.8742 104.6182 L 669.8505 103.8509 L 671.8479 102.2996 L 672.9147 102.3589 L 673.0747 101.9225 L 672.4642 100.4313 L 671.5396 99.1947 L 668.6651 97.4039 L 665.8261 96.9849 L 664.1784 97.2431 L 662.3233 96.8114 L 661.5291 95.8043 L 661.2802 94.7509 L 660.0414 94.2053 L 658.0796 94.679 L 656.8113 94.4041 L 654.808 92.8859 L 653.7945 91.3599 L 652.4846 90.9753 L 650.7539 90.8612 L 648.5551 90.2696 L 646.3858 89.2726 L 643.2446 86.5192 L 642.3496 86.5615 L 642.3022 87.6887 L 641.1108 86.4939 L 638.337 86.2701 L 637.2406 84.6242 L 636.3456 83.7804 L 636.5767 82.2324 L 635.9959 81.0981 L 635.2788 80.9632 L 634.4668 79.4037 Z M 394.5393 429.492 L 395.4283 428.1642 L 396.0032 424.3145 L 396.0743 421.5075 L 397.5265 420.5313 L 398.3622 419.6143 L 398.6882 417.4087 L 399.4705 416.7281 L 400.4425 414.9728 L 400.1225 414.1067 L 400.7152 412.6287 L 401.865 411.7765 L 401.9539 410.4533 L 401.3553 408.1113 L 399.4231 406.2955 L 399.2986 405.4715 L 401.0886 402.9237 L 401.0174 401.3857 L 401.4856 400.5671 L 400.9285 399.5361 L 399.6661 398.5505 L 397.6747 397.5154 L 397.1412 397.5923 L 396.1751 396.5484 L 396.6967 395.5408 L 396.1988 393.6256 L 397.1235 392.7361 L 398.6467 391.9008 L 398.7178 390.33 L 399.9031 388.1732 L 400.4899 386.6397 L 402.0606 387.4921 L 403.1867 386.5811 L 404.6447 386.8471 L 405.5811 386.3871 L 407.0332 385.1246 L 407.3355 384.3402 L 407.1636 383.1008 L 405.7352 381.8841 L 405.2374 380.9831 L 405.5634 379.6544 L 405.4685 378.3441 L 404.2298 377.1646 L 404.8106 374.4016 L 403.0207 373.2951 L 403.7734 372.1483 L 403.0325 370.8309 L 402.8607 369.7342 L 403.2578 368.2153 L 402.5821 366.872 L 402.3806 364.9858 L 402.8607 363.7152 L 402.3865 361.9962 L 402.428 361.036 L 401.5983 360.6277 L 400.8633 359.3493 L 402.3035 356.4752 L 403.0978 356.0181 L 404.1409 354.1001 L 406.1916 354.4003 L 407.1873 353.5491 L 407.8867 353.6118 L 408.2957 352.6622 L 409.3625 352.1919 L 409.7596 350.7725 L 407.9697 350.9605 L 406.3635 351.6143 L 406.0731 352.0531 L 405.0596 351.3903 L 402.9081 352.2322 L 402.1021 351.7217 L 401.1537 352.0979 L 400.164 351.3366 L 400.1758 350.7993 L 398.5162 349.1162 L 398.9074 348.1584 L 398.1725 346.1586 L 397.6154 345.3446 L 396.7915 342.3133 L 395.9262 340.1819 L 395.3098 339.3733 L 394.2607 336.386 L 393.668 334.1946 L 393.911 332.9232 L 392.4945 332.1158 L 391.5225 334.2928 L 389.2406 334.1455 L 388.6124 333.628 L 386.0579 334.2304 L 383.1655 334.0385 L 380.2791 334.3285 L 379.0997 333.1194 L 377.4579 332.8607 L 374.5241 331.0277 L 373.0898 330.5818 L 370.4286 328.763 L 367.6252 327.992 L 367.2043 326.2366 L 368.7572 324.0542 L 368.4194 322.8255 L 364.9936 322.3314 L 363.8675 321.8952 L 362.7829 320.271 L 361.8998 320.0219 L 359.8431 320.0174 L 358.877 318.7897 L 358.3555 317.5845 L 357.3834 317.3933 L 356.1388 317.9002 L 352.5115 315.9573 L 350.5142 315.1972 L 346.5135 314.2818 L 342.0268 312.105 L 340.794 310.4885 L 338.2869 310.5196 L 336.9415 309.7426 L 334.0729 309.9335 L 332.3304 311.0035 L 331.0324 310.1245 L 329.4144 310.1111 L 329.4499 312.0783 L 327.903 311.8562 L 327.014 313.0777 L 325.1588 312.4647 L 324.335 311.4521 L 324.6017 310.0134 L 323.5467 309.2277 L 323.3274 307.914 L 321.5078 306.8357 L 320.1861 306.3832 L 317.3649 304.6756 L 315.0772 304.8441 L 314.5792 304.1169 L 312.9612 303.9395 L 311.8351 304.3607 L 311.1595 303.0085 L 309.82 302.6538 L 308.2256 302.9021 L 306.7202 302.7159 L 302.7077 302.5607 L 301.8008 301.8338 L 299.7442 302.2993 L 298.2506 302.0156 L 296.7096 302.8001 L 295.2931 302.5519 L 294.4337 301.6256 L 293.0705 301.6788 L 292.2941 302.2727 L 291.4347 303.6735 L 291.5058 304.5603 L 290.7531 305.3142 L 288.7379 306.0727 L 288.0504 305.4295 L 287.3747 303.9572 L 284.3401 303.3499 L 282.1235 304.0947 L 281.1633 304.6446 L 280.3632 305.7134 L 279.3378 305.7577 L 277.6724 304.1124 L 277.7316 303.7311 L 276.1373 304.2144 L 275.7343 303.9572 L 275.8172 305.1457 L 275.3075 305.7977 L 276.8129 306.5917 L 277.0441 308.6684 L 277.7435 309.2943 L 275.9298 310.0889 L 276.0365 310.9103 L 275.1357 311.7097 L 275.1653 312.8601 L 273.5472 312.8245 L 273.2035 313.3754 L 271.8818 313.8241 L 272.0477 314.8817 L 271.4906 315.455 L 272.107 316.8553 L 271.5973 317.8157 L 272.35 318.8831 L 273.6954 319.3635 L 274.1933 319.0921 L 274.7504 319.8039 L 274.4955 321.4057 L 273.8436 321.824 L 273.8495 322.9502 L 275.4557 324.4328 L 275.3135 327.0072 L 275.6039 328.0678 L 275.1593 328.714 L 275.8172 329.8328 L 275.6216 331.8928 L 274.7859 333.2533 L 275.8469 333.9359 L 275.6987 334.8238 L 276.5877 335.5647 L 277.5005 335.5647 L 277.9094 336.4217 L 277.625 337.4932 L 275.9121 339.1813 L 276.4514 340.8833 L 275.7758 343.1269 L 275.9536 344.562 L 275.0349 345.188 L 275.5446 346.3643 L 274.1814 347.4917 L 273.0909 347.3486 L 272.9367 348.9192 L 270.9927 348.5388 L 270.1748 348.8745 L 269.6473 350.0472 L 268.5686 350.562 L 268.3493 351.3456 L 268.5805 352.819 L 267.6499 353.3117 L 268.3612 354.0464 L 269.5821 356.4304 L 270.1096 358.5959 L 271.2772 359.2417 L 271.8521 360.6905 L 273.3161 361.4084 L 273.245 362.0321 L 274.5904 363.9397 L 276.4218 363.7376 L 277.5123 364.6625 L 278.022 366.1354 L 278.9348 366.5081 L 279.1363 367.2853 L 280.2624 367.1999 L 280.6003 367.9008 L 279.243 370.1342 L 279.4623 371.1366 L 280.8551 371.1277 L 282.7754 372.0179 L 282.6687 373.3221 L 283.6645 373.8753 L 283.1666 375.3554 L 283.5222 375.8684 L 282.7873 378.5917 L 282.9651 380.2399 L 283.8364 381.794 L 284.5298 382.3753 L 286.9954 383.3081 L 287.4636 386.8245 L 288.1511 387.3252 L 291.6362 388.489 L 293.2661 388.7597 L 294.167 389.4681 L 297.9246 396.0197 L 299.4123 397.7143 L 300.3013 397.9629 L 301.137 398.9257 L 304.3375 398.6183 L 306.0267 399.9385 L 307.058 400.2007 L 307.953 401.2002 L 309.3221 402.0189 L 310.8986 403.8965 L 313.062 405.2497 L 314.0814 406.137 L 315.5809 405.7613 L 316.5766 406.1234 L 318.3606 407.3731 L 320.0794 407.5814 L 321.8279 407.0969 L 322.6102 409.1802 L 323.0074 407.6176 L 323.7067 407.0335 L 324.8032 407.2916 L 327.3636 406.961 L 328.4779 408.2834 L 329.9478 407.441 L 332.6445 409.7057 L 333.255 409.8054 L 333.8892 407.6629 L 335.0034 407.8305 L 335.2938 406.8478 L 336.1888 406.6486 L 336.6452 405.8111 L 338.1862 405.8156 L 340.3613 407.7444 L 343.064 408.2245 L 344.4035 409.3297 L 345.3637 409.4158 L 345.7548 410.1633 L 346.7446 409.7193 L 346.875 408.6819 L 348.5879 407.7671 L 349.0087 408.2834 L 350.0756 408.2063 L 351.1365 409.5834 L 350.8816 410.4261 L 352.0314 411.7085 L 355.6647 413.2316 L 355.6765 414.0023 L 356.4766 414.5601 L 358.314 414.9138 L 358.5155 415.576 L 359.4282 415.7438 L 360.7084 417.1047 L 361.5086 417.3452 L 362.0539 416.6102 L 363.2037 416.9142 L 364.1461 419.6415 L 365.7463 419.351 L 365.616 420.5858 L 366.8547 421.5347 L 367.6548 423.4604 L 368.3838 424.419 L 369.8952 424.1374 L 370.1145 423.5195 L 371.0687 423.8511 L 371.371 422.5929 L 371.94 421.9979 L 374.6426 422.0615 L 375.3598 421.1124 L 376.5333 420.5949 L 376.8712 421.2986 L 379.1175 421.7255 L 379.1056 422.2114 L 380.2199 423.2242 L 380.0776 424.3418 L 378.6196 425.4323 L 379.3012 425.9959 L 378.833 428.1642 L 379.7754 429.3692 L 380.368 429.11 L 381.2867 430.1334 L 382.8336 429.6422 L 383.2722 428.4825 L 384.5643 428.5916 L 384.8014 429.0964 L 385.7556 428.4643 L 385.6489 427.6005 L 388.0375 428.5689 L 389.8985 427.5959 L 391.3802 428.8008 L 392.1685 428.7462 L 392.9687 429.3602 L 394.5393 429.492 Z" fill="[object Object]" fill-opacity="1" stroke="rgba(30,144,255,1)" stroke-width="1" paint-order="fill" stroke-opacity="1" stroke-dasharray="" stroke-linecap="butt" stroke-miterlimit="10" style="filter: url(&quot;#zr2323-shadow-0&quot;);">
</path>
<text xml:space="preserve" fill="#bdbdd9" fill-opacity="1" stroke="none" transform="matrix(1,0,0,1,777.5188,191.3292)" dominant-baseline="central" text-anchor="middle" x="0" y="0" style="font: 13 13px sans-serif;"></text>
<text xml:space="preserve" fill="#bdbdd9" fill-opacity="1" stroke="none" transform="matrix(1,0,0,1,819.8903,223.2734)" dominant-baseline="central" text-anchor="middle" x="0" y="0" style="font: 13 13px sans-serif;"></text>
<text xml:space="preserve" fill="#bdbdd9" fill-opacity="1" stroke="none" transform="matrix(1,0,0,1,733.1025,129.7388)" dominant-baseline="central" text-anchor="middle" x="0" y="0" style="font: 13 13px sans-serif;"></text>
<text xml:space="preserve" fill="#bdbdd9" fill-opacity="1" stroke="none" transform="matrix(1,0,0,1,785.2061,291.1213)" dominant-baseline="central" text-anchor="middle" x="0" y="0" style="font: 13 13px sans-serif;"></text>
<text xml:space="preserve" fill="rgba(189,189,217,1)" fill-opacity="1" stroke="none" transform="matrix(1,0,0,1,732.1987,245.8287)" dominant-baseline="central" text-anchor="middle" x="0" y="0" style="font: 13 13px sans-serif;"></text>
<text xml:space="preserve" fill="#bdbdd9" fill-opacity="1" stroke="none" transform="matrix(1,0,0,1,689.2404,351.9362)" dominant-baseline="central" text-anchor="middle" x="0" y="0" style="font: 13 13px sans-serif;"></text>
<text xml:space="preserve" fill="#bdbdd9" fill-opacity="1" stroke="none" transform="matrix(1,0,0,1,438.6978,359.7055)" dominant-baseline="central" text-anchor="middle" x="0" y="0" style="font: 13 13px sans-serif;"></text>
<text xml:space="preserve" fill="rgba(189,189,217,1)" fill-opacity="1" stroke="none" transform="matrix(1,0,0,1,485.8405,242.5667)" dominant-baseline="central" text-anchor="middle" x="0" y="0" style="font: 13 13px sans-serif;"></text>
<defs>
<filter id="zr2323-shadow-0" x="-100%" y="-100%" width="300%" height="300%">
<feDropShadow dx="0" dy="1" flood-color="rgba(0,0,0,1)" stdDeviation="0 0">
</feDropShadow>
</filter>
<filter id="zr2323-shadow-1" x="-100%" y="-100%" width="300%" height="300%">
<feDropShadow dx="0" dy="1" flood-color="#000000" stdDeviation="0 0">
</feDropShadow>
</filter>
</defs>
</g>
</svg>