<svg xmlns="http://www.w3.org/2000/svg" pointer-events="none" class="leaflet-zoom-animated" width="1060" height="563" viewBox="-88 -47 1060 563" style="transform: translate3d(-88px, -47px, 0px) scale(1);"><g><path class="leaflet-interactive" stroke="black" stroke-opacity="1" stroke-width="2" stroke-linecap="round" stroke-linejoin="round" fill="#fff" fill-opacity="0.2" fill-rule="evenodd" d="M389 284L386 285L380 281L376 285L373 280L371 281L371 285L366 287L365 296L367 298L365 300L369 315L369 320L366 323L365 321L361 321L360 326L356 324L354 327L345 328L331 325L328 327L319 327L313 335L313 337L315 338L321 338L325 343L322 352L324 356L324 362L326 362L326 364L333 365L333 363L336 362L337 360L336 358L339 359L339 361L342 363L347 363L347 368L350 374L347 377L347 381L350 386L349 395L351 395L348 396L347 398L348 401L351 401L352 403L355 404L355 406L353 406L353 412L351 412L347 417L347 421L352 417L357 419L361 423L361 421L359 422L361 419L362 420L361 418L364 417L365 414L375 410L376 412L381 412L380 416L385 420L382 424L382 430L380 431L381 434L391 434L394 436L399 433L400 435L402 432L404 432L408 436L409 441L419 448L418 455L420 464L433 465L443 464L459 448L483 435L504 426L516 423L582 423L587 425L592 434L599 431L595 420L605 409L606 387L601 363L597 353L578 331L577 328L558 308L541 282L533 274L505 255L484 249L480 245L482 245L481 244L453 223L454 221L438 213L433 217L429 215L427 219L421 220L419 222L418 221L415 224L415 222L413 224L413 222L412 223L410 219L408 224L402 224L402 226L397 229L396 232L387 234L387 236L391 237L392 239L389 239L387 241L390 244L388 246L389 248L386 249L388 251L379 255L380 256L378 258L377 257L377 261L380 262L380 264L383 264L384 269L382 273L384 277L386 274L387 275L389 279L388 280L391 282L389 284zM600 182L534 164L515 157L512 158L505 154L502 155L478 140L465 138L459 134L455 127L457 127L448 116L431 104L422 105L401 116L380 139L386 140L424 182L445 201L451 191L456 189L461 190L471 194L490 207L508 216L525 220L560 236L570 238L586 237L602 228L605 224L606 219L604 208zM550 274L555 274L554 261L549 251L532 241L500 231L494 221L484 219L480 220L482 224L488 227L501 239L540 263L543 266L546 273L548 274zM669 241L670 241zM556 260L557 270L561 275L569 280L572 279L589 282L611 283L625 287L632 291L634 289L638 275L637 271L617 270L594 266L560 253L554 253L553 254L555 258zM511 233L513 233L513 231L510 228L503 223L498 223L500 228L508 233zM459 463L460 463zM592 303L593 314L596 320L606 319L610 311L610 302L599 298L593 300zM458 460L459 460zM577 295L577 300L581 307L583 309L587 308L588 298L578 294zM454 456L455 456z"/><path class="leaflet-interactive" stroke="#333" stroke-opacity="1" stroke-width="1" stroke-linecap="round" stroke-linejoin="round" stroke-dasharray="1,6" fill="#eee" fill-opacity="0.5" fill-rule="evenodd" d="M467 301L468 306L470 306L470 310L476 310L481 303L476 296L477 295L475 294L470 296L469 295L470 300L467 300z"/><path class="leaflet-interactive" stroke="#333" stroke-opacity="1" stroke-width="1" stroke-linecap="round" stroke-linejoin="round" stroke-dasharray="1,6" fill="#eee" fill-opacity="0.5" fill-rule="evenodd" d="M467 301L462 304L462 306L458 308L458 310L456 310L455 313L451 315L451 319L454 320L451 321L452 322L454 320L457 328L462 329L462 333L464 333L466 335L464 336L467 337L469 337L470 332L467 323L470 320L469 313L472 311L470 310L470 306L468 306L468 303z"/><path class="leaflet-interactive" stroke="#333" stroke-opacity="1" stroke-width="1" stroke-linecap="round" stroke-linejoin="round" stroke-dasharray="1,6" fill="#eee" fill-opacity="0.5" fill-rule="evenodd" d="M463 303L461 300L458 299L452 302L446 301L438 294L436 296L438 297L438 302L436 305L437 308L435 310L437 314L447 310L458 310L458 308L461 307L462 304z"/><path class="leaflet-interactive" stroke="#333" stroke-opacity="1" stroke-width="1" stroke-linecap="round" stroke-linejoin="round" stroke-dasharray="1,6" fill="#eee" fill-opacity="0.5" fill-rule="evenodd" d="M467 301L470 300L469 295L474 295L473 291L468 284L470 272L462 271L457 280L459 286L460 285L463 287L466 292L459 299L463 303L466 302z"/><path class="leaflet-interactive" stroke="#333" stroke-opacity="1" stroke-width="1" stroke-linecap="round" stroke-linejoin="round" stroke-dasharray="1,6" fill="#eee" fill-opacity="0.5" fill-rule="evenodd" d="M441 296L443 300L444 299L445 301L452 302L460 298L466 292L462 286L460 285L457 288L452 284L453 281L451 279L443 280L443 276L433 281L435 281L436 285L438 286L444 286L442 288L444 290L447 289L446 293L444 293L441 296z"/><path class="leaflet-interactive" stroke="#333" stroke-opacity="1" stroke-width="1" stroke-linecap="round" stroke-linejoin="round" stroke-dasharray="1,6" fill="#eee" fill-opacity="0.5" fill-rule="evenodd" d="M474 274L471 272L468 279L468 284L473 290L474 295L477 295L483 292L477 282L479 280L476 279L474 276z"/><path class="leaflet-interactive" stroke="#333" stroke-opacity="1" stroke-width="1" stroke-linecap="round" stroke-linejoin="round" stroke-dasharray="1,6" fill="#eee" fill-opacity="0.5" fill-rule="evenodd" d="M482 293L489 292L496 285L494 269L485 263L483 265L480 263L476 268L478 270L477 274L474 274L476 279L479 280L477 284L480 286L482 292z"/><path class="leaflet-interactive" stroke="#333" stroke-opacity="1" stroke-width="1" stroke-linecap="round" stroke-linejoin="round" stroke-dasharray="1,6" fill="#eee" fill-opacity="0.5" fill-rule="evenodd" d="M442 374L459 369L462 366L472 363L476 364L477 368L482 365L484 367L483 368L488 370L489 369L491 371L496 368L497 359L492 362L494 354L492 352L489 354L489 352L491 350L490 349L493 347L492 346L496 345L497 343L492 343L491 341L494 339L495 340L492 333L490 335L487 332L482 333L481 331L478 333L478 331L476 332L476 330L474 330L472 332L473 334L471 333L469 337L464 336L465 333L462 333L462 329L457 328L454 320L452 322L451 321L453 320L451 319L450 315L452 313L455 313L456 310L447 310L437 314L435 310L437 308L436 305L438 298L436 296L435 298L431 299L427 298L424 296L422 293L423 292L419 292L415 289L411 295L413 295L416 298L415 299L419 308L427 308L437 325L436 326L440 332L440 338L442 337L445 343L443 347L441 347L442 348L438 350L437 349L435 355L435 363L437 363L433 369L433 372L440 375z"/><path class="leaflet-interactive" stroke="#333" stroke-opacity="1" stroke-width="1" stroke-linecap="round" stroke-linejoin="round" stroke-dasharray="1,6" fill="#eee" fill-opacity="0.5" fill-rule="evenodd" d="M459 286L458 278L461 275L461 271L469 271L474 274L477 274L476 268L480 263L483 265L485 263L482 262L479 258L481 251L484 249L480 245L482 245L481 244L453 223L454 221L438 213L433 217L429 215L427 217L431 224L431 229L436 237L435 244L434 243L430 245L430 248L433 249L433 253L435 254L437 259L435 263L439 266L437 267L439 271L435 277L437 279L442 276L443 280L451 279L453 281L452 284L454 284L457 288z"/><path class="leaflet-interactive" stroke="#333" stroke-opacity="1" stroke-width="1" stroke-linecap="round" stroke-linejoin="round" stroke-dasharray="1,6" fill="#eee" fill-opacity="0.5" fill-rule="evenodd" d="M389 284L388 287L390 286L393 288L393 290L397 292L402 291L402 289L404 289L405 291L408 288L410 288L422 292L422 294L426 298L431 299L435 298L438 294L442 296L444 293L446 293L447 290L444 290L442 288L444 286L436 285L435 281L433 281L436 279L435 278L439 271L437 268L438 266L435 262L437 260L436 256L433 253L433 249L430 248L430 245L434 243L435 244L436 238L433 233L433 230L431 230L432 226L430 225L431 224L428 218L425 220L421 220L419 222L418 221L415 224L415 222L413 224L413 222L412 223L410 219L408 224L402 224L402 226L397 229L396 232L387 234L387 236L391 237L392 239L389 239L387 241L390 244L388 246L389 248L386 249L388 251L379 255L380 256L378 258L377 257L377 261L380 262L380 264L383 264L384 269L382 273L384 277L386 274L387 275L389 279L388 280L391 282L389 284z"/><path class="leaflet-interactive" stroke="#333" stroke-opacity="1" stroke-width="1" stroke-linecap="round" stroke-linejoin="round" stroke-dasharray="1,6" fill="#eee" fill-opacity="0.5" fill-rule="evenodd" d="M496 368L508 367L509 370L527 370L533 373L542 382L545 383L545 386L550 388L550 398L547 412L554 422L582 423L587 425L592 434L599 431L595 420L605 409L606 387L601 363L597 353L578 331L577 328L558 308L541 282L533 274L505 255L484 249L481 251L479 258L482 262L491 266L494 269L496 285L489 292L480 293L476 296L481 302L478 309L469 313L470 319L467 325L470 329L469 334L473 334L472 332L474 330L476 330L476 332L478 331L478 333L480 331L486 332L490 335L492 333L494 334L495 339L491 340L491 343L494 342L496 343L496 345L494 345L490 349L491 350L489 351L489 353L492 352L494 354L492 361L493 362L494 360L495 361L497 359L495 364L496 367zM592 303L593 314L596 320L606 319L610 311L610 302L599 298L593 300zM577 295L577 300L581 307L583 309L587 308L588 298L578 294z"/><path class="leaflet-interactive" stroke="#333" stroke-opacity="1" stroke-width="1" stroke-linecap="round" stroke-linejoin="round" stroke-dasharray="1,6" fill="#eee" fill-opacity="0.5" fill-rule="evenodd" d="M349 382L349 395L351 395L348 396L347 398L348 401L354 403L355 406L353 406L353 412L351 412L347 417L347 421L352 417L357 419L361 423L361 421L359 422L361 419L362 420L361 418L364 417L365 414L375 410L376 412L381 412L380 416L385 420L382 424L382 430L380 431L381 434L391 434L394 436L399 433L400 435L402 432L404 432L408 436L409 441L419 448L418 455L420 464L443 464L459 448L473 441L462 422L457 423L456 421L454 421L453 417L452 419L448 417L448 405L442 400L440 394L427 395L425 392L424 399L420 399L420 397L418 397L417 395L413 395L411 390L407 388L403 392L394 393L390 391L390 394L385 392L386 396L383 398L378 397L381 391L375 390L372 394L374 395L374 397L364 396L360 398L360 396L359 397L356 395L358 386L350 382zM459 463L460 463zM458 460L459 460zM454 456L455 456z"/><path class="leaflet-interactive" stroke="#333" stroke-opacity="1" stroke-width="1" stroke-linecap="round" stroke-linejoin="round" stroke-dasharray="1,6" fill="#eee" fill-opacity="0.5" fill-rule="evenodd" d="M433 318L431 320L421 322L422 327L418 326L416 328L417 329L413 327L411 328L413 329L407 333L406 331L408 327L403 327L401 325L399 326L396 324L397 332L395 332L394 335L392 335L392 337L389 338L389 340L379 334L377 335L374 339L375 343L380 345L382 349L375 351L373 350L373 348L370 350L375 356L374 360L371 360L376 364L375 376L374 375L374 377L368 381L366 381L361 376L361 380L359 380L357 384L358 386L356 394L359 397L360 396L360 398L363 396L374 397L375 395L372 394L375 390L381 391L378 397L379 398L386 397L386 392L388 394L390 394L390 392L392 391L393 393L403 392L407 388L413 392L413 395L417 395L420 399L424 399L424 392L426 395L437 395L441 393L440 388L443 387L442 374L440 375L433 372L433 369L438 363L435 363L436 349L438 350L442 348L441 347L443 347L445 343L443 337L440 338L439 335L441 334L434 320z"/><path class="leaflet-interactive" stroke="#333" stroke-opacity="1" stroke-width="1" stroke-linecap="round" stroke-linejoin="round" stroke-dasharray="1,6" fill="#eee" fill-opacity="0.5" fill-rule="evenodd" d="M389 284L386 285L380 281L376 285L373 280L371 281L371 285L366 287L365 296L367 298L365 300L369 315L369 320L366 323L365 321L361 321L360 326L356 324L354 327L345 328L331 325L328 327L319 327L313 335L313 337L315 338L321 338L325 343L322 352L324 356L324 362L326 362L326 364L333 365L333 363L336 362L337 360L336 358L339 359L339 361L342 363L347 363L347 368L350 374L347 377L347 381L351 383L352 382L354 386L358 383L359 380L361 380L361 376L366 381L372 379L374 375L375 376L376 365L371 360L373 360L375 357L370 350L373 348L374 351L382 350L382 347L375 343L374 339L378 334L388 340L390 338L389 337L392 337L392 335L394 335L394 333L397 332L396 324L399 326L401 325L403 327L408 326L406 333L410 332L410 330L413 329L411 328L416 329L418 326L422 327L423 325L421 324L421 322L431 319L432 320L433 318L425 306L422 309L419 308L417 305L415 299L416 298L413 295L411 295L415 290L408 288L405 291L404 289L402 289L402 291L397 292L394 290L393 291L391 286L389 286z"/><path class="leaflet-interactive" stroke="#333" stroke-opacity="1" stroke-width="1" stroke-linecap="round" stroke-linejoin="round" stroke-dasharray="1,6" fill="#eee" fill-opacity="0.5" fill-rule="evenodd" d="M496 368L492 369L492 371L489 369L485 369L482 365L478 368L475 363L472 363L469 365L465 365L459 369L442 374L443 386L440 389L440 394L442 400L448 404L448 417L450 419L452 419L452 417L454 421L456 421L456 423L462 422L473 441L492 431L516 423L554 422L547 412L548 403L550 399L550 389L547 386L545 386L546 385L541 380L539 380L533 373L527 370L509 370L508 367L498 368z"/><path class="leaflet-interactive" stroke="#333" stroke-opacity="1" stroke-width="1" stroke-linecap="round" stroke-linejoin="round" stroke-dasharray="1,6" fill="#fff" fill-opacity="0" fill-rule="evenodd" d="M600 182L534 164L515 157L512 158L505 154L502 155L478 140L465 138L459 134L455 127L457 127L448 116L431 104L422 105L401 116L380 139L386 140L424 182L445 201L451 191L456 189L461 190L471 194L490 207L508 216L525 220L560 236L570 238L586 237L602 228L605 224L606 219L604 208zM550 274L555 274L554 261L549 251L532 241L500 231L494 221L484 219L480 220L482 224L488 227L501 239L540 263L543 266L546 273L548 274zM669 241L670 241zM556 260L557 270L561 275L569 280L572 279L589 282L611 283L625 287L632 291L634 289L638 275L637 271L617 270L594 266L560 253L554 253L553 254L555 258zM511 233L513 233L513 231L510 228L503 223L498 223L500 228L508 233z"/></g></svg>