<svg xmlns="http://www.w3.org/2000/svg" pointer-events="none" class="leaflet-zoom-animated" width="1060" height="624" viewBox="-88 -52 1060 624" style="transform: translate3d(-88px, -52px, 0px);"><g><path class="leaflet-interactive" stroke="#201920" stroke-opacity="1" stroke-width="2" stroke-linecap="round" stroke-linejoin="round" fill="none" d="M270 230L268 226L271 223L270 222L274 218L276 218L276 216L277 217L280 215L281 218L285 218L288 212L293 213L293 211L294 212L300 207L307 204L307 197L310 196L307 184L304 183L309 180L310 181L314 179L320 179L318 175L323 163L328 166L337 165L337 155L344 151L344 147L350 147L349 150L351 150L351 152L353 154L354 153L355 156L362 158L365 161L368 168L366 178L369 181L370 180L375 182L383 182L390 188L393 187L392 188L398 200L424 200L440 207L444 206L445 208L460 202L472 202L477 200L487 191L484 188L485 183L487 181L496 184L503 178L506 179L509 177L513 171L517 171L523 167L527 167L526 168L527 167L529 169L532 168L531 163L525 157L522 156L518 160L516 158L512 158L510 160L507 156L509 155L514 141L520 144L524 140L529 139L529 133L533 125L537 121L537 117L533 115L538 109L539 110L546 107L554 107L560 111L563 110L567 114L569 118L568 119L570 121L569 122L572 127L571 128L575 134L574 137L576 137L575 140L577 143L582 143L590 149L592 149L594 153L593 156L596 160L600 160L612 154L618 153L616 155L616 161L613 162L614 164L612 172L609 175L607 181L606 182L600 179L596 183L596 198L594 198L592 200L593 201L589 197L588 202L586 202L583 205L579 205L580 208L578 210L573 209L574 208L571 207L570 210L565 215L563 215L564 216L563 215L558 219M298 277L296 273L297 272L299 274L301 272L301 270L298 267L298 263L300 261L295 259L295 253L289 253L286 250L284 250L282 248L282 244L274 242L274 240L276 241M458 341L456 339L457 336L452 335L449 332L441 338L439 336L436 338L434 336L432 336L432 338L428 338L428 346L426 346L425 342L421 344L419 340L415 340L414 339L416 335L413 334L411 330L411 328L413 328L405 328L406 321L410 317L412 317L412 307L410 305L409 306L408 301L405 300L402 305L398 301L394 301L382 310L374 310L373 306L371 306L370 303L367 304L368 303L359 302L357 308L355 306L356 303L345 304L343 302L340 303L341 302L339 304L338 301L334 301L335 299L330 298L328 294L325 295L315 287L313 287L312 290L303 283L299 283L298 277M464 343L458 341M466 435L466 429M472 376L475 382M478 399L476 405M486 450L492 448M507 428L511 423M524 407L527 400M527 377L527 384M533 359L530 365M544 343L539 348M547 332L549 324"/><path class="leaflet-interactive" stroke="#201920" stroke-opacity="1" stroke-width="2" stroke-linecap="butt" stroke-linejoin="round" stroke-dasharray="4,4" stroke-dashoffset="4" fill="none" d="M276 241L278 239L276 237L276 231L270 230"/><path class="leaflet-interactive" stroke="gray" stroke-opacity="1" stroke-width="1" stroke-linecap="round" stroke-linejoin="round" stroke-dasharray="8,4,4,4" fill="none" d="M496 339L496 339M500 337L498 339L500 340L500 337"/><path class="leaflet-interactive" stroke="#4190da" stroke-opacity="1" stroke-width="1" stroke-linecap="round" stroke-linejoin="round" fill="none" d="M499 338L497 336L497 338L494 341L493 340L493 342L487 342L485 344L477 346L479 350L477 352L475 352L474 343L464 343M478 346L478 346M478 346L479 347L477 347L478 346M496 339L496 339M499 338L499 338M499 338L499 338M499 338L499 338M532 311L530 315L530 319L532 319L528 319L529 320L527 320L527 322L524 325L522 325L522 327L518 331L516 331L511 336L508 335L508 337L503 336L501 337L502 338L500 338L501 339L499 338M532 311L532 311M543 296L542 295L542 301L540 303L539 302L539 304L536 306L537 307L532 311M541 244L538 245L536 249L533 248L534 249L528 257L535 262L538 269L538 273L540 273L541 276L543 276L544 279L538 278L540 280M540 280L543 281L545 286L539 286L544 291L544 295M541 244L541 244M541 244L541 244M546 225L539 230L539 228L542 227L540 223L545 218L543 214L539 214L536 217L536 219L530 221L529 224L526 227L527 226L524 227L525 228L521 226L519 230L519 232L521 232L524 235L527 234L529 236L527 238L528 241L532 241L532 239L536 236L538 236L541 239L544 238L548 240L547 243L544 242L541 244M541 244L542 243L541 244M543 296L543 296M543 296L543 296M543 296L543 296M544 295L543 296M544 295L544 295M545 290L545 290M545 290L545 290M545 290L545 290M546 290L545 290M545 290L544 289L546 290M546 290L546 290M546 288L546 288M546 288L546 288M546 225L546 225M558 219L555 222L551 222L546 225M547 285L547 285M547 285L547 285M548 285L548 285M469 343L469 343M471 347L471 347M473 353L473 353M473 427L476 426L473 427M473 364L468 361L468 357L472 353L473 354L479 352L482 354L479 360L473 364M475 424L475 424M478 349L478 349M478 346L478 346M478 424L479 425L478 424M478 423L479 422L478 423M479 346L479 346M479 351L479 351M479 423L479 423M479 347L479 347M483 378L483 378M484 370L484 370M484 420L484 420M484 374L484 374M484 416L484 416M485 426L485 426M485 424L485 424M485 374L485 374M485 374L485 374M485 424L485 424M485 375L485 375M485 419L486 420L485 419M485 373L485 373M485 425L485 425M485 373L485 373M486 376L485 375L486 376M486 374L486 374M486 376L486 376M487 423L487 423M487 375L487 375M487 447L487 447M488 419L489 418L488 419M488 418L488 418M488 447L488 447M488 372L488 372M488 379L489 378L488 379M488 371L488 371M489 418L489 418M489 447L489 447M489 418L489 418M489 437L489 437M489 371L489 371M489 372L489 372M489 375L489 375M490 343L490 343M490 436L490 436M490 377L491 376L490 377M490 374L490 374M490 414L490 414M490 437L490 437M490 436L490 436M490 418L491 419L490 418M490 435L490 435M490 440L490 440M490 343L490 343M490 437L491 438L490 437M491 438L491 438M491 374L491 374M491 440L491 440M491 342L490 343L491 342M491 375L491 375M491 373L491 373M492 343L491 342L492 343M492 418L492 418M492 343L492 343M492 372L492 372M492 424L492 424M492 414L492 414M492 414L492 414M492 441L493 440L492 441M493 421L493 421M493 356L493 356M493 414L493 414M493 342L493 342M494 341L494 341M494 342L494 342M494 341L494 341M494 433L494 433M494 423L494 423M494 423L495 422L494 423M496 340L496 340M496 410L496 410M496 429L496 429M496 418L497 417L496 418M497 416L497 416M497 341L497 341M497 379L497 379M497 341L497 341M497 341L497 341M497 341L497 341M497 425L498 426L497 425M497 427L497 427M498 338L498 338M498 340L498 340M498 358L498 358M498 339L498 339M498 412L498 412M498 380L498 380M498 379L498 379M498 423L498 423M498 426L502 424L498 426M498 418L498 418M498 378L498 378M498 418L499 419L498 418M498 418L499 419L498 418M498 380L498 380M499 412L499 412M499 407L499 407M499 423L499 423M499 377L499 377M499 339L499 339M499 341L499 341M499 415L500 416L499 415M500 339L500 339M500 341L500 341M500 419L500 419M500 377L500 377M500 341L500 341M500 380L500 380M500 410L500 410M500 413L500 413M500 340L500 340M500 379L500 379M500 413L500 413M500 404L500 404M500 337L500 337M500 406L500 406M500 339L500 339M501 411L501 411M501 408L501 408M501 403L501 403M501 377L502 376L501 377M501 412L501 412M501 379L501 379M501 413L501 413M501 407L501 407M501 408L502 407L501 408M501 412L501 412M501 423L502 422L501 423M502 412L502 412M502 412L502 412M502 404L502 404M502 412L502 412M502 418L502 418M502 379L502 379M502 412L502 412M502 404L502 404M502 338L502 338M502 426L502 426M502 422L502 422M502 410L502 410M502 403L503 404L502 403M503 406L503 406M503 376L503 376M503 413L502 414L503 413M503 422L503 422M503 405L503 405M503 377L503 377M503 407L503 407M503 428L503 428M503 423L504 424L503 423M504 407L504 407M504 377L504 377M504 426L504 426M504 406L504 406M505 421L506 422L505 421M506 420L506 420M506 411L506 411M506 389L506 389M507 415L507 415M507 412L507 412M507 421L507 421M508 409L508 409M508 409L508 409M508 409L508 409M509 409L509 409M509 409L509 409M509 413L509 413M509 407L509 407M509 347L509 347M510 346L510 346M510 416L510 416M510 411L510 411M511 414L511 414M511 418L511 418M512 413L512 413M513 417L513 417M513 413L513 413M513 410L513 410M513 413L513 413M514 409L514 409M514 375L514 375M514 403L514 403M514 349L514 349M514 417L514 417M514 348L515 349L514 348M515 409L515 409M516 332L516 332M517 408L517 408M517 408L517 408M517 410L517 410M517 408L517 408M517 406L517 406M518 411L518 411M518 406L518 406M519 408L519 408M520 406L520 406M520 382L520 382M520 407L520 407M522 326L522 326M522 326L522 326M523 326L523 326M524 325L523 326L524 325M525 227L525 227M526 227L526 227M526 227L526 227M529 333L529 333M530 321L530 321M530 332L530 332M530 331L530 331M530 330L530 330M530 318L530 318M531 315L531 315M531 331L531 331M531 318L531 318M531 318L531 318M531 312L531 312M531 320L531 320M531 320L531 320M531 312L531 312M532 318L532 318M532 315L532 315M532 316L532 316M533 332L533 332M533 314L533 314M533 313L533 313M533 312L533 312M533 312L533 312M533 311L533 311M534 251L534 251M534 310L534 310M535 339L535 339M535 310L535 310M535 237L535 237M535 313L535 313M536 235L536 235M537 341L534 337L533 330L538 324L538 322L542 320L544 322L540 336L537 341M537 235L537 235M537 235L537 235M537 234L537 234M537 217L537 217M537 233L537 233M538 232L538 232M538 232L538 232M538 246L538 246M539 303L539 303M539 307L539 307M539 303L539 303M539 303L539 303M541 278L544 280L542 280L541 278M541 273L541 273M541 336L541 336M541 340L542 341L541 340M542 341L542 341M542 280L542 280M542 296L542 296M543 298L543 298M543 281L542 280L543 281M543 281L545 281L543 281M543 290L543 290M543 298L543 298M543 298L543 298M543 300L543 300M543 289L544 290L543 289M543 282L543 282M543 300L543 300M544 319L544 319M544 323L544 323M544 289L544 289M544 282L544 282M544 288L544 288M544 295L544 295M544 292L544 292M544 290L544 290M544 289L544 289M544 286L544 286M545 290L545 290M545 290L545 290M545 290L545 290M545 290L545 290M545 289L545 289M545 288L545 288M545 288L545 288M545 294L545 294M545 292L544 291L545 292M545 292L545 292M545 290L545 290M546 291L546 291M546 291L546 291M546 292L545 291L546 292M546 290L547 291L546 290M546 226L546 226M546 290L546 290M546 287L546 287M547 287L547 287M547 226L547 226M547 226L547 226M547 286L547 286M548 226L548 226M548 289L548 289M548 228L548 228M548 285L548 285M549 285L549 285M550 224L550 224M550 225L550 225M551 228L551 228M552 317L553 318L551 318L552 317M553 317L553 317M553 316L554 317L553 316M553 318L553 318M553 317L553 317M553 318L553 318M554 222L554 222M558 316L559 317L558 316"/><path class="leaflet-interactive" stroke="#747569" stroke-opacity="0.6" stroke-width="1" stroke-linecap="round" stroke-linejoin="round" fill="none" d="M360 249L358 247L347 246L341 248L337 252L334 251L329 254L322 253L322 251L314 255L308 253L305 256L305 258L303 260L299 260L300 261M406 273L404 273L404 275L401 276L402 277L400 277L400 279L398 277L398 279L395 279L393 275L392 276L392 274L388 272L384 274L373 271L371 269L365 269L361 265L362 264L360 264L360 249M376 227L363 231L363 233L365 233L365 237L369 240L369 242L366 243L366 245L368 245L368 249L362 247L362 249L360 249M429 266L428 267L428 265L427 266L423 262L431 262L432 261L430 257L432 253L435 252L434 253L436 249L433 242L434 241L430 237L425 236L420 231L420 233L417 232L412 227L408 229L403 226L401 228L402 231L400 231L400 233L397 234L395 232L389 232L387 229L385 230L379 226L376 227M398 200L396 202L397 206L395 206L392 209L392 207L390 207L383 215L379 216L375 226L376 227M443 239L438 236L438 232L443 228L441 224L436 227L431 226L431 228L427 230L424 227L424 225L416 221L420 218L419 214L417 213L412 216L409 216L409 213L405 210L407 208L403 199M414 295L413 285L411 282L412 281L410 279L409 274L406 273M429 266L428 269L425 268L426 271L424 273L420 273L419 270L417 272L414 269L412 269L410 263L407 262L404 265L406 267L404 271L406 273M408 302L412 301L411 298L413 298L414 295M449 305L448 302L444 304L443 299L441 299L441 301L438 302L439 305L435 307L436 314L433 313L429 315L423 303L421 305L419 303L420 302L418 298L416 298L415 301L414 300L414 295M450 271L448 273L445 272L443 270L443 266L439 264L438 265L436 261L434 261L434 263L431 264L433 266L430 269L429 266M462 236L456 232L459 227L457 225L452 229L451 237L443 239M443 239L445 239L445 241L446 240L449 243L449 251L450 250L455 255L455 251L458 250L458 248L455 245L457 243L456 242L460 241M449 305L449 307L444 306L439 309L440 312L445 313L443 317L446 320L445 324M445 324L445 326L446 325L449 328L450 327L454 329L454 331L450 333M473 316L470 317L470 319L469 318L464 321L462 321L459 318L459 320L453 324L450 322L445 324M455 300L453 298L451 300L455 303L453 305L449 305M460 241L460 243L468 247L468 253L464 255L463 254L462 257L457 256L455 260L457 260L455 264L456 265L453 266L453 270L450 271M467 275L464 276L461 273L460 274L458 272L455 273L453 271L450 271M472 300L470 302L466 298L466 296L463 297L463 295L461 295L461 297L459 297L456 300L456 298L455 300M455 300L455 298L449 294L449 292L452 291L450 289L452 287L454 289L457 288L457 290L459 289L462 286L461 285L465 283L467 275M460 241L462 236M482 225L482 223L479 226L477 224L477 226L475 226L474 229L470 232L471 235L469 235L469 237L466 238L462 236M467 275L473 279M473 279L476 280L477 283L472 287L469 286L466 291L468 291L470 293L469 294L471 294L471 296M471 296L472 300M498 296L496 292L493 294L492 291L490 293L486 290L485 291L481 289L478 292L475 291L471 296M473 316L472 308L469 309L473 305L472 300M487 324L485 324L484 321L482 323L481 322L484 317L483 314L481 314L482 313L477 316L473 316M481 268L473 268L475 270L474 271L477 272L473 274L473 279M475 344L474 344M475 344L474 343L484 335L484 331L487 328L487 324M475 352L476 352M476 352L478 352M478 259L478 243L480 239L479 234L481 232L481 228L483 226L482 225M478 259L479 263L482 266L481 268M478 259L487 256L487 254L492 255L496 253L497 247M478 351L479 351M506 281L499 278L497 274L487 274L481 268M482 269L482 269M499 215L496 218L490 218L487 221L487 223L482 225M487 324L488 321L492 323L494 319L498 319M507 248L504 249L497 247M497 247L496 244L499 237L496 230L499 227L501 227L502 224L501 221L498 220L501 218L499 215M511 291L507 291L503 293L504 294L500 294L498 296M498 319L500 315L498 315L498 307L496 307L496 305L500 301L498 296M498 319L503 320L499 324L500 325L504 325L506 323L508 325L509 322M528 210L527 211L522 208L523 205L520 200L516 202L514 206L508 206L505 209L502 204L498 210L499 215M511 259L511 261L513 261L514 264L511 265L507 263L508 266L506 266L504 270L505 273L509 273L510 276L506 281M511 291L509 287L510 284L506 281M521 233L518 236L514 236L511 240L510 239L510 241L506 245L507 248M511 259L507 259L507 257L503 255L510 249L506 251L507 248M509 322L511 316L514 313L513 310L517 308L516 305L524 301M517 331L515 329L515 325L509 322M522 294L517 291L515 293L513 289L513 291L511 291M512 259L511 259M529 256L528 255L522 261L521 258L517 260L515 256L512 257L512 259M531 282L527 282L523 276L526 273L527 274L528 271L527 270L523 272L522 268L521 269L522 266L512 259M518 219L518 215L516 215L513 212L513 214L512 213L513 214L511 214L511 216L508 217L509 218L507 222L509 224L515 223M519 230L516 231L514 229L515 223M515 223L515 223M515 223L517 223L517 220M517 220L514 221L515 223M517 331L517 332M518 219L517 220M518 332L518 333M518 219L520 221L518 221L520 224L521 223L521 226M522 294L526 292L526 288L528 288L529 285L530 286L531 282M522 294L521 295L524 298L524 301M535 309L535 307L531 307L531 305L529 307L526 306L526 302L524 301M528 210L528 204L530 202L533 207L541 201L542 202L544 200L551 199L554 195M532 220L530 216L526 214L528 210M538 283L536 285L531 282M537 309L537 309M537 232L539 232M544 279L539 278L540 279L538 283M540 285L538 285L538 283M540 285L541 285M552 166L550 168L546 162L549 159L551 159L551 157L553 157L557 152L557 154L559 154L558 153L560 147L563 146L562 141L566 135L567 130L563 125L561 125L562 126L559 128L551 128L548 124L549 119L545 117L543 119L540 116L543 111L541 109M542 285L542 285M543 285L544 285M544 285L545 284M546 284L547 284M548 284L548 284M597 194L592 193L592 189L584 193L581 190L581 186L579 186L578 189L575 186L576 185L572 183L573 182L571 180L568 181L565 178L557 178L555 175L555 171L551 172M551 172L550 169L553 168L552 166M551 172L548 175L549 176L547 174L542 175L545 178L545 186L547 188L551 186L550 187L554 195M552 166L551 165L552 166M552 166L552 166M552 166L552 166M554 195L555 194L558 197L558 199L560 197L564 205L563 208L565 210L565 214M452 253L452 253M473 311L473 311M492 291L492 291"/><path class="leaflet-interactive" stroke="#3388ff" stroke-opacity="0" stroke-width="3" stroke-linecap="round" stroke-linejoin="round" fill="#3388ff" fill-opacity="0" fill-rule="evenodd" d="M518 216L519 215L515 215L514 212L512 214L513 215L508 217L509 218L507 222L509 224L513 224L515 222L514 221L518 219L518 216z"/><path class="leaflet-interactive" stroke="#3388ff" stroke-opacity="0" stroke-width="3" stroke-linecap="round" stroke-linejoin="round" fill="#3388ff" fill-opacity="0" fill-rule="evenodd" d="M520 225L521 224L518 221L520 221L518 219L516 221L517 222L514 224L514 230L519 231L519 229L521 228L520 225zM520 225L520 225z"/><path class="leaflet-interactive" stroke="#3388ff" stroke-opacity="0" stroke-width="3" stroke-linecap="round" stroke-linejoin="round" fill="#3388ff" fill-opacity="0" fill-rule="evenodd" d="M518 215L517 218L520 221L518 221L523 228L525 228L524 227L526 227L532 220L530 216L526 214L528 210L527 211L522 208L523 205L520 200L516 202L514 206L508 206L505 209L502 204L500 206L498 212L500 218L502 218L499 220L498 219L501 222L501 224L502 223L501 226L497 228L498 229L496 233L499 236L499 238L497 244L495 244L498 247L506 249L506 245L510 240L521 233L519 231L514 230L515 223L507 223L507 221L510 218L509 217L513 215L512 214L514 212L515 215L518 215zM517 220L514 221L516 223L517 220zM520 225L520 225zM526 227L526 227z"/><path class="leaflet-interactive" stroke="#3388ff" stroke-opacity="0" stroke-width="3" stroke-linecap="round" stroke-linejoin="round" fill="#3388ff" fill-opacity="0" fill-rule="evenodd" d="M478 259L487 256L487 254L491 255L496 252L496 244L499 239L496 231L498 229L497 228L500 227L502 223L501 224L501 222L498 219L499 220L501 218L500 215L498 217L497 216L496 218L490 218L487 221L487 223L485 223L481 228L482 229L479 234L479 252L477 259z"/><path class="leaflet-interactive" stroke="#3388ff" stroke-opacity="0" stroke-width="3" stroke-linecap="round" stroke-linejoin="round" fill="#3388ff" fill-opacity="0" fill-rule="evenodd" d="M403 199L407 208L405 209L409 216L412 216L413 214L414 215L417 213L419 214L420 218L417 221L424 225L426 229L430 230L431 228L429 227L435 227L441 224L442 225L443 227L438 232L438 236L440 236L442 239L452 236L452 230L457 225L459 227L456 233L461 234L465 238L467 238L470 235L471 231L477 225L480 226L482 223L482 225L484 225L484 223L486 223L489 218L491 219L497 217L499 215L498 210L502 204L505 209L508 206L513 206L515 202L520 201L522 203L521 204L523 206L523 210L528 211L530 203L533 206L533 208L537 203L547 199L551 199L554 196L551 193L553 193L552 188L550 186L547 188L545 186L545 179L544 176L542 176L543 173L545 175L549 175L551 171L550 168L551 169L553 167L551 165L552 166L550 168L546 162L549 159L551 159L551 157L553 157L557 152L557 154L559 154L558 153L560 147L563 146L562 141L566 135L567 130L563 125L561 125L562 126L559 128L551 128L548 124L549 119L545 117L543 119L540 116L543 111L539 109L533 114L533 116L537 116L537 122L533 124L532 129L528 135L529 138L520 144L514 141L510 149L509 155L507 156L510 160L512 158L516 158L518 160L520 157L524 157L531 163L532 167L530 169L526 167L518 169L518 171L515 170L510 177L506 179L503 178L496 184L490 181L486 182L484 186L487 191L485 194L483 194L473 202L460 202L445 208L445 206L442 207L431 204L429 201L413 201L403 199z"/><path class="leaflet-interactive" stroke="#3388ff" stroke-opacity="0" stroke-width="3" stroke-linecap="round" stroke-linejoin="round" fill="#3388ff" fill-opacity="0" fill-rule="evenodd" d="M553 222L557 221L561 216L565 214L565 210L563 208L563 204L560 197L558 199L558 197L555 194L553 198L552 197L549 200L546 199L543 202L542 201L537 203L533 207L530 202L528 204L529 209L526 214L530 216L532 220L534 220L537 217L537 215L539 215L538 214L545 215L544 220L541 221L540 224L542 226L539 229L544 228L543 227L544 228L547 224L553 222zM548 226L547 225L548 226zM546 226L546 226zM548 226L548 226zM548 227L548 227zM550 224L550 224zM547 226L547 226zM537 217L537 217zM550 225L550 224zM551 228L551 227zM554 222L554 222z"/><path class="leaflet-interactive" stroke="#3388ff" stroke-opacity="0" stroke-width="3" stroke-linecap="round" stroke-linejoin="round" fill="#3388ff" fill-opacity="0" fill-rule="evenodd" d="M587 202L589 198L591 198L593 202L592 199L594 199L597 195L594 194L591 189L583 193L580 186L579 189L577 189L575 186L576 185L574 185L571 180L568 181L561 177L558 178L555 175L556 173L554 171L551 172L548 175L549 176L547 174L543 174L542 176L544 176L546 188L550 186L553 191L553 193L551 193L558 197L558 199L560 197L563 204L563 208L565 210L565 214L567 214L571 207L573 207L573 209L579 210L580 209L578 205L584 205L585 202L587 202z"/><path class="leaflet-interactive" stroke="#3388ff" stroke-opacity="0" stroke-width="3" stroke-linecap="round" stroke-linejoin="round" fill="#3388ff" fill-opacity="0" fill-rule="evenodd" d="M553 172L554 171L556 173L556 177L561 177L567 181L570 180L573 182L572 183L576 185L575 186L578 189L578 187L581 186L583 193L591 189L592 192L596 194L597 189L595 183L601 179L606 182L607 181L609 175L612 172L614 164L613 163L617 159L615 157L619 153L615 153L603 159L596 160L593 156L594 153L592 149L590 149L586 144L585 145L583 143L580 144L576 142L576 138L574 136L575 135L572 130L572 126L570 124L570 120L567 114L563 110L560 111L555 107L546 107L542 109L543 112L539 116L542 117L542 119L546 117L548 119L550 128L559 128L562 125L565 127L567 131L562 140L563 145L559 149L559 155L558 156L557 153L546 162L550 168L552 166L551 165L553 167L551 169L550 168L550 170L553 172z"/><path class="leaflet-interactive" stroke="#3388ff" stroke-opacity="0" stroke-width="3" stroke-linecap="round" stroke-linejoin="round" fill="#3388ff" fill-opacity="0" fill-rule="evenodd" d="M538 283L539 285L544 285L544 283L541 280L539 280L538 283zM544 279L539 278L541 280L544 280zM543 281L542 280L543 281zM543 281L545 282L543 281zM542 280L542 280zM544 282L544 282zM543 282L544 282z"/><path class="leaflet-interactive" stroke="#3388ff" stroke-opacity="0" stroke-width="3" stroke-linecap="round" stroke-linejoin="round" fill="#3388ff" fill-opacity="0" fill-rule="evenodd" d="M517 259L514 256L512 258L522 266L521 269L522 268L524 272L526 272L526 270L528 272L527 274L526 273L524 275L527 282L528 281L536 285L539 282L539 278L544 279L543 276L541 276L541 274L538 273L538 269L535 262L531 260L528 257L528 255L522 261L521 258L519 260L517 259z"/><path class="leaflet-interactive" stroke="#3388ff" stroke-opacity="0" stroke-width="3" stroke-linecap="round" stroke-linejoin="round" fill="#3388ff" fill-opacity="0" fill-rule="evenodd" d="M524 301L526 301L526 306L529 307L531 305L531 307L535 307L535 309L537 304L539 304L538 303L542 301L542 295L544 295L544 291L538 283L536 285L531 282L530 286L529 285L529 287L526 288L526 292L522 295L524 301zM545 290L546 289L544 289L545 290zM545 289L545 289zM545 292L545 292zM546 285L547 285zM545 288L545 288zM546 288L546 288zM544 295L544 295zM546 291L547 290L546 291zM546 287L546 287zM543 298L543 298zM546 291L546 291zM543 296L543 296zM540 305L540 305zM544 285L545 286L544 285zM543 300L543 300zM545 292L545 292zM547 290L547 290zM547 286L547 286zM543 300L543 300zM544 289L544 289zM546 290L546 290zM543 290L543 290zM539 306L539 306zM544 295L544 295zM544 292L544 292zM544 289L544 289zM544 288L544 288zM545 290L545 290zM546 292L545 292zM539 304L539 304zM548 289L548 289zM546 288L546 288zM546 291L546 291zM548 285L548 285zM539 303L539 303zM539 303L539 303zM547 290L547 290zM549 285L549 285zM545 290L545 290zM544 290L544 290zM539 303L539 303zM547 290L547 290zM545 290L545 290z"/><path class="leaflet-interactive" stroke="#3388ff" stroke-opacity="0" stroke-width="3" stroke-linecap="round" stroke-linejoin="round" fill="#3388ff" fill-opacity="0" fill-rule="evenodd" d="M513 263L514 264L511 265L509 263L507 264L508 265L506 269L504 269L504 271L507 274L508 273L510 276L506 280L510 284L509 287L511 291L513 291L513 289L515 293L517 290L523 294L526 291L526 289L529 288L531 283L529 281L526 282L526 280L523 277L525 273L528 272L526 270L526 272L524 272L523 269L521 269L522 266L513 259L511 259L513 263zM526 280L526 280zM514 292L514 292zM507 274L507 274z"/><path class="leaflet-interactive" stroke="#3388ff" stroke-opacity="0" stroke-width="3" stroke-linecap="round" stroke-linejoin="round" fill="#3388ff" fill-opacity="0" fill-rule="evenodd" d="M527 322L526 321L528 321L528 319L532 319L530 319L532 314L531 312L533 312L532 313L535 308L530 305L528 307L526 305L526 301L524 301L516 305L517 308L513 311L513 315L510 318L509 323L513 325L514 324L515 329L517 331L522 327L522 325L525 325L525 323L527 322zM524 325L523 326L524 325zM530 321L530 321zM530 318L530 318zM533 315L532 314zM523 326L523 326zM532 311L532 311zM522 325L522 325zM532 315L532 315zM531 315L530 315zM533 313L533 312zM531 318L531 318zM531 312L532 312zM533 312L533 312zM535 310L534 310zM534 311L534 311zM531 312L531 312z"/><path class="leaflet-interactive" stroke="#3388ff" stroke-opacity="0" stroke-width="3" stroke-linecap="round" stroke-linejoin="round" fill="#3388ff" fill-opacity="0" fill-rule="evenodd" d="M522 294L517 291L515 293L513 289L513 291L507 291L503 293L504 294L500 294L498 296L500 300L496 306L498 308L498 314L500 314L498 319L503 320L499 324L500 325L504 325L506 323L508 325L509 324L511 316L513 315L512 314L516 306L524 301L521 295L522 294z"/><path class="leaflet-interactive" stroke="#3388ff" stroke-opacity="0" stroke-width="3" stroke-linecap="round" stroke-linejoin="round" fill="#3388ff" fill-opacity="0" fill-rule="evenodd" d="M512 259L512 257L515 256L517 260L521 258L522 261L528 255L529 256L534 249L533 248L536 249L538 245L546 243L548 239L542 239L537 236L534 237L531 241L529 241L527 239L529 236L526 234L524 235L522 233L520 233L518 236L514 236L506 245L506 251L510 249L503 255L508 259L512 259zM537 235L537 236zM537 235L537 235zM538 246L538 246zM537 234L537 234zM538 232L538 232zM534 251L534 251zM536 235L536 235zM537 233L537 233zM541 238L541 238zM541 238L541 238zM541 238L541 238zM507 250L507 250z"/><path class="leaflet-interactive" stroke="#3388ff" stroke-opacity="0" stroke-width="3" stroke-linecap="round" stroke-linejoin="round" fill="#3388ff" fill-opacity="0" fill-rule="evenodd" d="M491 274L497 274L499 278L506 281L507 280L510 276L509 273L505 273L504 270L509 263L511 265L514 264L513 261L511 261L511 259L507 259L505 256L503 256L510 249L506 251L507 248L504 249L498 247L494 254L488 254L488 256L478 260L482 267L481 268L485 273L489 275L491 274zM497 275L497 275z"/><path class="leaflet-interactive" stroke="#3388ff" stroke-opacity="0" stroke-width="3" stroke-linecap="round" stroke-linejoin="round" fill="#3388ff" fill-opacity="0" fill-rule="evenodd" d="M482 269L473 268L475 270L474 271L477 272L473 274L473 278L477 282L477 284L475 284L472 287L469 286L467 288L467 292L468 291L470 293L469 294L471 294L471 296L473 292L479 292L480 289L489 293L493 291L492 292L494 294L496 291L497 296L500 294L504 294L503 293L507 291L511 291L509 287L510 284L507 281L499 278L497 274L487 274L482 269zM471 286L471 286zM482 269L482 269zM491 274L491 274zM492 291L492 291z"/><path class="leaflet-interactive" stroke="#3388ff" stroke-opacity="0" stroke-width="3" stroke-linecap="round" stroke-linejoin="round" fill="#3388ff" fill-opacity="0" fill-rule="evenodd" d="M487 324L488 321L492 323L494 319L498 319L500 315L498 315L499 312L498 307L496 307L496 305L500 301L496 295L496 291L493 294L492 291L490 293L486 290L485 291L479 289L478 292L476 291L472 293L471 298L473 306L471 306L469 309L473 309L472 314L475 317L476 314L476 316L478 316L481 313L483 317L484 316L481 322L482 323L484 321L485 324L487 323zM473 311L473 311z"/><path class="leaflet-interactive" stroke="#3388ff" stroke-opacity="0" stroke-width="3" stroke-linecap="round" stroke-linejoin="round" fill="#3388ff" fill-opacity="0" fill-rule="evenodd" d="M496 339L497 336L499 338L508 335L511 336L516 331L516 327L514 325L515 324L509 322L508 325L506 323L504 325L500 325L499 324L503 320L502 319L494 319L492 323L488 321L486 327L487 328L484 331L484 335L474 343L475 352L479 350L477 346L480 344L481 345L493 340L494 341L496 339zM516 332L516 332zM492 342L491 343L492 342zM490 343L491 342L490 343zM500 341L500 340zM478 346L479 345L478 346zM490 343L490 343zM479 346L477 347L479 346zM497 341L497 341zM497 341L497 341zM494 342L494 341zM498 338L497 338zM500 341L500 341zM499 341L499 341zM514 348L515 348zM493 342L493 341zM478 349L478 349zM479 347L479 347zM479 351L479 351zM510 346L510 346zM509 347L510 347zM509 336L509 336zM509 336L509 336z"/><path class="leaflet-interactive" stroke="#3388ff" stroke-opacity="0" stroke-width="3" stroke-linecap="round" stroke-linejoin="round" fill="#3388ff" fill-opacity="0" fill-rule="evenodd" d="M473 316L470 317L470 319L469 318L464 321L461 321L460 318L459 321L458 320L454 322L454 324L450 322L444 324L448 326L448 328L454 328L454 330L451 333L453 335L458 336L456 338L457 341L464 344L474 344L476 341L478 341L478 339L480 339L480 337L484 335L484 331L487 328L487 324L485 324L484 321L482 323L481 322L484 317L482 313L477 316L473 316zM448 322L448 323zM471 347L471 347z"/><path class="leaflet-interactive" stroke="#3388ff" stroke-opacity="0" stroke-width="3" stroke-linecap="round" stroke-linejoin="round" fill="#3388ff" fill-opacity="0" fill-rule="evenodd" d="M476 353L472 353L468 357L468 361L470 363L473 364L479 361L479 358L482 355L480 352L477 352zM488 447L488 447zM494 423L495 422zM487 447L487 447zM484 370L484 370zM520 382L520 381zM489 447L489 446zM486 376L486 375zM485 375L485 375zM498 426L502 424L498 425zM498 418L499 419L498 418zM498 419L498 419zM487 375L487 375zM486 374L486 374zM488 418L488 418zM497 427L498 427zM500 419L500 419zM488 371L489 371zM502 410L503 410zM509 413L509 413zM502 412L502 412zM497 425L498 425zM473 427L474 426L473 427zM511 418L512 418zM490 377L491 376L490 377zM490 418L491 418zM501 407L502 407zM489 375L490 375zM513 410L513 409zM489 371L489 371zM484 374L485 374zM507 412L507 412zM502 422L503 422zM501 423L502 422zM505 421L506 422L505 421zM498 423L498 423zM507 415L507 415zM513 417L513 417zM496 418L497 418zM502 406L503 406zM502 404L502 403zM504 407L504 407zM485 374L485 374zM498 418L498 419zM475 424L476 424zM514 403L514 403zM485 373L486 373zM490 374L490 374zM486 376L486 376zM498 412L498 411zM503 422L503 423zM513 413L513 413zM506 411L506 411zM515 409L515 409zM503 376L503 376zM510 416L510 416zM497 416L497 416zM502 426L503 426zM501 408L502 407zM520 407L520 407zM500 410L500 410zM502 403L503 403zM514 409L514 409zM478 423L479 422L478 423zM484 420L484 420zM506 420L506 420zM494 423L494 423zM499 406L499 406zM517 410L517 410zM500 377L500 376zM479 423L479 423zM507 421L507 420zM485 426L485 426zM485 419L486 420L485 419zM478 424L479 424zM489 418L489 418zM513 413L513 413zM487 423L487 423zM501 379L501 379zM504 406L504 406zM499 377L499 377zM510 411L510 411zM517 408L517 408zM503 428L503 428zM492 418L492 418zM485 425L485 425zM488 419L489 418zM490 436L490 436zM502 418L502 418zM503 423L504 423zM493 421L493 421zM496 429L496 429zM514 375L514 375zM518 411L518 411zM493 356L493 356zM501 377L501 376zM498 358L497 358zM491 440L491 440zM485 424L485 424zM489 418L489 418zM492 424L492 424zM490 437L491 437zM490 437L490 437zM506 389L506 389zM496 410L496 410zM498 380L498 380zM492 441L492 440zM490 440L491 440zM489 437L489 437zM488 372L488 372zM488 379L488 378zM491 438L491 438zM490 436L490 436zM494 433L494 433zM511 414L511 414zM504 426L504 426zM485 424L485 424zM498 378L498 378zM504 377L504 377zM514 417L514 417zM491 374L491 374zM483 353L483 353zM509 409L509 409zM517 408L517 408zM491 375L491 375zM509 409L509 409zM490 414L490 414zM502 379L502 379zM517 406L517 406zM520 406L520 406zM499 415L500 415zM503 413L503 414zM490 435L490 435z"/><path class="leaflet-interactive" stroke="#3388ff" stroke-opacity="0" stroke-width="3" stroke-linecap="round" stroke-linejoin="round" fill="#3388ff" fill-opacity="0" fill-rule="evenodd" d="M455 300L457 298L457 300L460 297L461 298L462 295L464 297L465 296L467 298L466 299L468 299L468 301L469 300L469 302L471 302L472 297L471 294L469 294L470 293L468 291L467 292L467 288L469 286L472 287L475 284L476 285L477 282L467 275L465 283L463 285L462 284L462 286L458 290L453 287L451 289L452 290L449 293L453 297L455 297L455 299zM471 286L471 286zM451 289L451 289zM471 286L471 286zM459 290L459 290z"/><path class="leaflet-interactive" stroke="#3388ff" stroke-opacity="0" stroke-width="3" stroke-linecap="round" stroke-linejoin="round" fill="#3388ff" fill-opacity="0" fill-rule="evenodd" d="M426 308L425 309L427 313L431 315L436 313L435 308L442 299L444 299L443 300L445 304L447 304L448 302L449 305L453 305L455 303L452 302L451 299L455 299L455 297L453 297L449 293L453 287L458 290L462 286L461 285L465 283L467 275L464 276L461 273L455 273L453 271L450 271L448 273L445 272L443 270L443 266L439 264L438 265L436 261L432 263L433 266L430 269L429 266L428 269L425 268L426 271L424 273L420 273L419 270L417 272L414 269L412 269L410 263L407 262L404 265L406 267L404 271L410 276L410 278L413 281L411 281L414 290L414 300L415 301L417 297L420 301L419 302L421 304L423 303L423 305L426 308zM455 289L455 289zM459 289L459 289zM451 289L451 289z"/><path class="leaflet-interactive" stroke="#3388ff" stroke-opacity="0" stroke-width="3" stroke-linecap="round" stroke-linejoin="round" fill="#3388ff" fill-opacity="0" fill-rule="evenodd" d="M472 300L470 302L466 298L466 296L463 297L463 295L461 295L460 298L459 297L456 300L456 298L456 300L453 298L451 300L455 303L453 305L450 304L449 307L441 307L439 309L440 312L445 313L443 318L446 321L445 324L449 322L454 324L454 322L458 320L459 321L460 318L461 321L465 321L465 319L468 320L468 318L471 319L470 318L472 318L473 309L469 309L473 305L472 300zM473 310L473 310zM473 311L473 311z"/><path class="leaflet-interactive" stroke="#3388ff" stroke-opacity="0" stroke-width="3" stroke-linecap="round" stroke-linejoin="round" fill="#3388ff" fill-opacity="0" fill-rule="evenodd" d="M449 305L448 302L446 304L444 303L444 299L440 300L441 301L439 301L439 304L435 308L436 313L430 315L427 312L424 305L421 304L417 298L415 300L416 301L414 301L414 295L413 298L411 298L412 301L411 302L409 300L408 303L409 306L410 305L412 307L412 317L410 317L406 322L405 328L413 328L411 328L411 330L413 334L414 333L413 334L416 335L414 339L419 340L421 344L425 342L425 344L429 346L429 338L433 336L436 338L438 336L446 336L447 333L451 333L454 330L454 328L448 328L449 327L444 324L446 322L444 318L446 313L444 311L440 311L442 307L449 307L449 305z"/><path class="leaflet-interactive" stroke="#3388ff" stroke-opacity="0" stroke-width="3" stroke-linecap="round" stroke-linejoin="round" fill="#3388ff" fill-opacity="0" fill-rule="evenodd" d="M360 249L358 247L348 246L340 248L339 251L333 251L328 254L324 254L321 251L319 251L315 255L311 253L307 254L303 260L299 260L300 261L297 263L301 271L300 274L298 274L298 272L296 274L296 276L299 279L299 283L305 284L305 286L312 290L313 287L315 287L325 295L328 294L330 298L335 299L334 300L340 304L340 302L342 304L342 302L346 304L356 303L355 306L357 308L358 304L361 301L371 304L371 306L373 306L375 310L382 310L394 301L398 301L402 305L405 300L409 302L409 300L411 302L411 298L413 298L414 295L414 290L409 274L405 273L403 275L404 276L400 278L401 279L397 277L398 279L395 279L393 275L392 276L392 274L388 272L384 274L363 267L361 265L362 264L360 264L360 249z"/><path class="leaflet-interactive" stroke="#3388ff" stroke-opacity="0" stroke-width="3" stroke-linecap="round" stroke-linejoin="round" fill="#3388ff" fill-opacity="0" fill-rule="evenodd" d="M478 259L478 243L480 239L479 234L483 226L482 223L479 226L477 224L477 226L474 227L474 229L470 232L469 237L466 238L462 236L460 238L460 242L468 246L468 254L463 254L462 257L457 256L455 260L457 260L455 264L456 265L452 267L452 271L450 270L451 272L459 272L464 276L467 275L472 279L474 277L473 274L477 272L474 271L475 270L473 268L480 269L482 267L479 264L480 263L478 259zM482 267L482 267zM453 272L453 272z"/><path class="leaflet-interactive" stroke="#3388ff" stroke-opacity="0" stroke-width="3" stroke-linecap="round" stroke-linejoin="round" fill="#3388ff" fill-opacity="0" fill-rule="evenodd" d="M456 251L455 254L452 253L452 251L449 250L449 243L446 240L445 241L445 239L438 236L438 232L443 228L441 224L436 227L429 227L430 230L424 228L424 226L421 223L416 221L420 218L420 214L417 213L412 216L409 216L409 213L405 210L407 208L403 199L398 200L396 202L397 204L395 207L391 207L383 215L379 216L375 226L379 226L385 230L386 229L388 232L394 232L397 234L400 233L400 231L402 231L401 228L403 226L408 229L412 227L417 232L419 233L419 231L426 236L431 237L430 238L433 241L436 250L434 250L435 253L434 252L430 258L432 261L431 262L427 262L424 260L423 261L427 266L428 265L428 267L430 267L430 269L433 266L431 263L435 261L437 265L438 264L443 266L443 270L445 272L450 272L450 270L451 271L453 269L451 267L456 266L456 256L463 257L464 254L468 254L468 246L457 241L455 245L458 248L458 250L456 251zM453 253L453 253zM435 247L435 247zM453 253L453 253zM456 251L456 251z"/><path class="leaflet-interactive" stroke="#3388ff" stroke-opacity="0" stroke-width="3" stroke-linecap="round" stroke-linejoin="round" fill="#3388ff" fill-opacity="0" fill-rule="evenodd" d="M435 247L433 242L434 241L430 237L425 236L423 233L419 231L420 233L418 232L413 227L410 227L408 229L402 226L402 230L398 234L395 232L389 232L387 229L385 230L380 228L380 226L363 231L363 233L365 233L365 237L369 241L366 244L368 246L367 249L362 247L362 249L359 250L361 250L359 254L359 257L361 257L360 264L362 264L361 265L366 269L370 269L384 274L388 272L392 274L391 275L393 275L395 279L397 279L397 277L401 279L400 278L404 276L403 275L405 273L404 270L406 268L404 264L407 262L411 265L412 269L414 269L417 272L419 270L420 273L424 273L426 271L425 268L427 269L429 268L429 266L428 267L428 265L427 266L423 262L432 261L430 257L432 253L435 252L435 247z"/><path class="leaflet-interactive" stroke="#3388ff" stroke-opacity="0" stroke-width="3" stroke-linecap="round" stroke-linejoin="round" fill="#3388ff" fill-opacity="0" fill-rule="evenodd" d="M460 241L462 235L456 233L459 228L458 225L456 225L453 228L451 237L443 239L445 239L445 241L446 240L449 243L449 249L455 255L455 251L458 250L458 248L455 245L457 243L456 242L460 241zM453 253L453 253zM453 253L453 253z"/><path class="leaflet-interactive" stroke="#3388ff" stroke-opacity="0" stroke-width="3" stroke-linecap="round" stroke-linejoin="round" fill="#3388ff" fill-opacity="0" fill-rule="evenodd" d="M398 200L392 187L391 188L379 181L369 181L366 178L368 173L368 167L363 159L357 157L351 152L351 150L349 150L350 147L344 147L344 151L342 153L338 153L337 155L337 165L328 166L323 163L318 175L320 179L314 179L305 182L307 184L307 188L310 195L307 198L309 198L306 200L307 203L303 207L302 206L292 213L289 212L285 216L285 218L281 218L280 216L276 217L273 220L272 219L268 226L271 231L274 230L276 232L275 233L277 239L274 240L274 242L278 242L282 245L283 250L290 253L294 253L295 258L300 261L299 260L303 260L308 253L314 255L320 251L322 253L329 254L333 251L339 251L340 248L348 246L367 249L368 246L366 244L369 241L365 237L365 233L363 233L363 231L375 228L379 216L384 214L390 207L392 207L392 209L397 205L397 200z"/><path class="leaflet-interactive" stroke="#3388ff" stroke-opacity="0" stroke-width="3" stroke-linecap="round" stroke-linejoin="round" fill="#3388ff" fill-opacity="0" fill-rule="evenodd" d="M535 338L536 341L538 341L538 337L541 334L544 322L542 320L536 325L533 330L534 337zM559 316L559 316zM552 317L552 317zM531 331L530 331zM554 316L554 316zM530 331L530 331zM530 332L530 332zM530 330L530 330zM544 318L545 318zM541 336L541 336zM541 340L542 340zM545 319L545 319zM529 333L530 333zM535 339L535 338z"/><path class="leaflet-interactive" stroke="#3388ff" stroke-opacity="0" stroke-width="3" stroke-linecap="round" stroke-linejoin="round" fill="#3388ff" fill-opacity="0" fill-rule="evenodd" d="M499 338L498 339L501 338L499 338zM499 339L499 339zM500 338L500 338zM500 338L500 338zM500 338L500 338zM500 339L500 339zM500 338L500 338zM501 339L501 339zM500 339L500 339z"/><path class="leaflet-interactive" stroke="#3388ff" stroke-opacity="0" stroke-width="3" stroke-linecap="round" stroke-linejoin="round" fill="#3388ff" fill-opacity="0" fill-rule="evenodd" d="M496 340L496 340zM496 339L496 339z"/><path class="leaflet-interactive" stroke="#3388ff" stroke-opacity="0" stroke-width="3" stroke-linecap="round" stroke-linejoin="round" fill="#3388ff" fill-opacity="0" fill-rule="evenodd" d="M547 332L549 325L547 332zM539 348L544 343L543 342L539 348zM530 365L533 359L530 365zM527 382L527 377L527 382zM525 405L524 407L527 400L526 402zM507 428L511 423L507 428zM489 449L486 450L492 448L490 449zM466 434L466 429L466 434zM477 404L476 405L478 399L477 403zM475 381L472 376L474 380z"/></g></svg>