<svg xmlns="http://www.w3.org/2000/svg" pointer-events="none" class="leaflet-zoom-animated" width="1060" height="563" viewBox="-88 -47 1060 563" style="transform: translate3d(-88px, -47px, 0px);"><g><path class="leaflet-interactive" stroke="black" stroke-opacity="1" stroke-width="2" stroke-linecap="round" stroke-linejoin="round" fill="#fff" fill-opacity="0.2" fill-rule="evenodd" d="M548 221L548 219L550 219L549 218L557 210L559 206L561 206L561 208L563 210L564 209L566 212L569 211L568 209L572 205L577 207L578 210L586 209L589 211L595 206L599 208L600 207L603 198L601 193L603 192L601 192L600 189L602 188L601 186L598 185L598 183L593 183L588 189L584 189L581 191L573 187L571 184L575 181L575 179L573 178L575 176L573 175L573 173L569 173L568 167L571 166L573 163L574 164L574 162L556 162L554 165L556 174L551 178L549 176L547 177L542 183L545 187L546 186L544 189L544 193L537 199L537 201L535 201L532 207L525 209L524 211L526 217L524 221L529 232L528 233L530 239L528 241L528 245L525 245L518 250L514 245L505 250L500 255L494 254L492 256L488 250L484 250L483 248L484 246L485 247L485 245L482 241L477 238L477 236L479 236L480 231L479 229L479 231L477 232L475 230L477 227L468 221L469 215L465 214L465 209L461 205L459 197L457 197L457 195L454 192L454 188L452 188L450 192L448 192L447 190L442 196L441 195L441 190L437 189L438 188L432 180L434 178L437 178L438 176L434 172L431 165L423 159L423 154L419 157L419 159L417 159L417 163L412 166L414 171L412 174L413 180L405 171L406 167L403 157L403 141L399 141L398 143L400 146L397 150L399 154L396 156L394 155L393 149L388 150L389 159L386 161L388 165L387 167L392 173L390 177L382 180L381 182L380 176L377 172L376 171L374 173L376 177L372 180L372 187L374 189L373 190L375 195L374 196L377 199L378 203L381 202L382 198L390 201L390 219L392 220L391 232L393 235L389 247L391 253L387 253L387 259L389 259L390 263L388 265L384 263L380 272L378 273L374 271L371 281L369 283L368 282L365 286L363 284L359 290L358 293L361 299L358 299L353 303L354 305L352 313L357 313L357 317L360 320L359 325L357 325L352 331L357 334L364 328L367 328L371 325L388 325L396 323L396 325L389 330L389 336L393 336L396 343L393 345L397 349L397 351L395 352L398 353L396 358L400 358L403 361L407 361L410 359L416 361L418 366L414 366L414 369L410 372L412 381L408 385L407 390L405 392L407 395L415 394L420 395L422 397L431 397L432 399L430 405L431 408L437 410L435 413L436 416L438 415L439 417L445 414L447 417L450 418L467 406L471 416L470 422L472 423L471 424L473 427L481 424L483 425L483 427L486 426L487 428L489 428L491 424L487 422L489 415L488 414L491 412L488 407L489 405L486 402L487 401L483 400L484 398L482 395L482 389L484 389L486 386L486 382L489 381L492 385L493 383L498 383L501 385L504 384L506 379L508 379L507 378L510 376L508 375L512 371L514 374L516 373L517 375L518 374L524 377L524 379L529 383L531 383L531 381L534 379L534 377L538 374L539 371L542 372L545 378L549 371L559 381L561 381L562 373L564 370L565 371L569 369L569 372L573 375L574 373L577 372L577 370L584 370L585 367L588 366L586 360L594 355L601 354L603 350L610 357L610 355L615 351L614 350L620 345L625 347L629 344L629 336L631 333L625 324L623 324L620 328L618 328L618 326L614 327L613 324L610 324L607 328L603 325L600 326L598 324L600 321L598 319L599 317L597 315L596 316L596 314L590 314L585 312L583 314L584 317L582 317L579 314L576 306L578 300L583 294L583 292L580 291L582 291L584 286L586 288L587 284L581 283L578 275L574 276L574 272L572 273L570 270L571 266L572 267L575 262L575 255L577 255L578 248L582 246L582 242L578 236L575 236L576 234L574 232L571 236L564 235L562 239L556 239L552 235L552 221L549 221z"/><path class="leaflet-interactive" stroke="#333" stroke-opacity="1" stroke-width="1" stroke-linecap="round" stroke-linejoin="round" stroke-dasharray="1,6" fill="#fff" fill-opacity="0" fill-rule="evenodd" d="M532 311L536 311L538 305L544 310L543 311L546 310L549 307L550 303L549 298L547 297L547 299L545 299L543 297L543 293L541 292L544 289L542 287L539 288L537 286L539 282L537 281L538 279L542 275L542 273L544 274L546 272L544 272L546 265L538 262L538 256L536 253L537 252L533 250L530 239L528 241L528 245L525 245L518 250L514 245L504 251L507 255L506 262L508 264L508 272L511 273L512 277L507 281L508 284L509 283L507 290L505 292L503 290L502 293L504 295L503 296L505 296L506 298L506 308L503 311L507 315L511 310L520 312L524 304L523 302L526 301L525 298L526 299L528 297L529 302L531 302L529 306L530 309L532 309z"/><path class="leaflet-interactive" stroke="#333" stroke-opacity="1" stroke-width="1" stroke-linecap="round" stroke-linejoin="round" stroke-dasharray="1,6" fill="#eee" fill-opacity="0.5" fill-rule="evenodd" d="M541 231L536 232L534 236L532 235L530 238L532 245L531 246L537 252L536 253L538 255L538 263L542 264L543 262L543 264L546 264L544 270L544 272L546 272L544 274L543 273L542 276L540 276L538 279L537 286L539 288L542 287L544 289L543 291L541 291L543 292L542 293L544 299L547 299L547 297L550 301L549 303L552 302L551 303L553 304L554 303L558 306L559 305L562 314L567 313L567 316L572 316L579 312L576 306L578 300L583 294L583 292L580 291L582 291L584 286L586 288L587 287L587 284L581 283L578 275L574 276L574 272L572 273L570 270L571 266L572 267L575 262L575 255L577 255L578 248L582 246L582 242L578 236L575 236L576 234L574 232L571 236L564 235L562 239L556 239L553 237L553 232L551 230L553 224L551 220L548 222L542 221L541 230zM541 231L541 231z"/><path class="leaflet-interactive" stroke="#333" stroke-opacity="1" stroke-width="1" stroke-linecap="round" stroke-linejoin="round" stroke-dasharray="1,6" fill="#eee" fill-opacity="0.5" fill-rule="evenodd" d="M503 296L500 295L500 297L496 298L494 302L493 310L497 312L496 318L494 320L490 320L491 318L489 319L485 315L483 319L480 321L477 314L476 317L473 318L475 324L481 332L477 335L477 337L478 338L480 336L484 342L486 340L487 341L487 346L489 346L488 349L490 351L495 351L498 353L502 349L508 347L506 342L503 339L501 339L502 337L500 335L505 331L503 328L507 327L506 326L512 326L513 328L516 327L517 332L520 328L523 327L524 329L527 326L529 327L533 323L533 318L530 313L532 312L532 309L530 309L529 306L531 302L529 302L528 296L520 312L512 310L508 312L508 315L506 315L502 311L506 308L505 296z"/><path class="leaflet-interactive" stroke="#333" stroke-opacity="1" stroke-width="1" stroke-linecap="round" stroke-linejoin="round" stroke-dasharray="1,6" fill="#fff" fill-opacity="0" fill-rule="evenodd" d="M396 271L395 274L393 274L390 264L388 265L384 263L380 272L378 273L374 271L371 281L376 291L374 295L378 295L378 297L382 298L385 297L385 299L381 302L381 306L383 310L386 308L389 309L390 311L389 313L391 316L391 321L389 324L394 324L401 321L409 313L411 316L411 320L413 321L422 312L420 308L422 308L422 306L426 303L424 301L427 299L427 295L433 291L429 287L427 287L423 291L414 288L409 281L409 278L411 278L410 276L408 274L402 277L400 271L397 271z"/><path class="leaflet-interactive" stroke="#333" stroke-opacity="1" stroke-width="1" stroke-linecap="round" stroke-linejoin="round" stroke-dasharray="1,6" fill="#eee" fill-opacity="0.5" fill-rule="evenodd" d="M530 238L532 235L534 236L537 231L541 232L542 221L547 222L559 206L561 206L561 208L563 210L564 209L566 212L569 211L568 209L572 205L577 207L578 210L586 209L589 211L595 206L599 208L603 198L601 193L603 192L601 192L600 189L602 188L601 186L599 186L599 184L596 182L593 183L588 189L579 191L571 184L575 181L575 179L573 178L575 176L573 175L573 173L569 173L568 167L571 166L573 163L574 164L574 162L556 162L554 165L556 174L551 178L549 176L547 177L542 183L545 187L546 186L544 189L544 193L537 199L537 201L535 201L532 207L527 208L524 211L526 217L524 221L529 232L529 238z"/><path class="leaflet-interactive" stroke="#333" stroke-opacity="1" stroke-width="1" stroke-linecap="round" stroke-linejoin="round" stroke-dasharray="1,6" fill="#eee" fill-opacity="0.5" fill-rule="evenodd" d="M461 252L468 245L479 243L477 236L479 236L480 231L479 229L479 231L477 232L475 230L477 227L468 221L469 215L465 214L465 209L461 205L459 197L457 197L457 195L454 192L454 188L452 188L450 192L448 192L447 190L442 196L441 195L439 200L440 201L437 205L439 207L439 211L434 216L434 223L431 226L426 216L420 210L421 209L417 202L413 204L413 219L415 223L418 225L417 226L420 233L423 235L425 234L432 236L435 236L438 233L440 233L440 235L441 234L447 240L445 241L448 243L446 243L444 247L446 253L448 254L448 257L452 258L454 253L457 251L461 252z"/><path class="leaflet-interactive" stroke="#333" stroke-opacity="1" stroke-width="1" stroke-linecap="round" stroke-linejoin="round" stroke-dasharray="1,6" fill="#eee" fill-opacity="0.5" fill-rule="evenodd" d="M473 318L465 311L461 302L458 303L452 300L450 304L445 304L449 311L448 326L444 327L445 332L443 334L444 340L446 341L439 342L434 351L435 354L433 356L428 355L425 357L421 355L419 357L420 358L416 360L418 366L414 366L414 369L410 372L412 381L408 385L407 390L405 392L407 395L415 394L428 398L428 396L431 397L435 390L443 390L444 385L446 383L452 383L451 382L458 378L461 380L464 378L468 380L474 380L478 378L480 385L483 387L485 387L486 382L489 381L492 385L493 383L498 383L501 385L504 384L506 379L505 377L499 376L496 371L490 369L492 366L491 365L493 363L497 364L498 360L496 358L491 358L490 355L492 354L492 352L488 349L489 346L487 346L485 342L486 341L484 342L481 339L481 336L478 339L477 338L477 335L481 332L475 324L474 320z"/><path class="leaflet-interactive" stroke="#333" stroke-opacity="1" stroke-width="1" stroke-linecap="round" stroke-linejoin="round" stroke-dasharray="1,6" fill="#fff" fill-opacity="0" fill-rule="evenodd" d="M445 304L443 302L439 302L435 305L439 294L433 295L432 293L430 293L427 295L427 299L424 301L426 303L422 308L420 308L422 311L419 314L419 316L413 321L411 320L411 316L409 313L406 315L407 316L404 319L396 323L396 325L389 330L389 336L393 336L396 343L393 345L397 349L397 351L395 352L398 353L396 358L400 358L403 361L407 361L410 359L416 361L421 356L433 356L435 354L434 352L438 342L446 341L444 340L443 335L445 333L444 327L447 326L449 323L449 312L445 305z"/><path class="leaflet-interactive" stroke="#333" stroke-opacity="1" stroke-width="1" stroke-linecap="round" stroke-linejoin="round" stroke-dasharray="1,6" fill="#fff" fill-opacity="0" fill-rule="evenodd" d="M503 296L504 295L502 290L504 292L508 289L508 279L509 280L512 277L511 274L508 272L508 265L506 262L507 255L504 253L504 251L500 255L494 254L492 256L488 250L484 250L483 248L484 246L485 247L485 245L480 240L478 241L478 243L469 245L463 249L461 252L461 258L463 260L461 262L462 263L460 264L463 267L462 270L464 270L462 278L465 279L465 281L463 282L464 284L461 285L458 283L456 288L456 301L458 303L462 303L465 311L472 318L476 317L477 314L480 321L485 316L493 320L496 318L497 315L497 313L493 310L495 305L494 303L496 299L500 296L503 297z"/><path class="leaflet-interactive" stroke="#333" stroke-opacity="1" stroke-width="1" stroke-linecap="round" stroke-linejoin="round" stroke-dasharray="1,6" fill="#eee" fill-opacity="0.5" fill-rule="evenodd" d="M532 311L530 314L533 323L529 327L527 326L524 329L521 328L517 332L516 327L509 327L510 326L506 325L506 327L504 328L505 331L500 335L502 337L501 338L506 342L508 347L506 349L501 350L501 352L499 353L495 351L492 352L493 354L491 355L491 358L495 358L498 360L498 362L497 364L493 363L490 368L492 371L494 370L497 372L499 376L505 377L506 379L508 379L507 378L510 376L508 375L512 371L514 374L516 373L517 375L518 374L524 377L526 381L531 383L531 381L534 379L534 377L538 374L539 371L542 372L545 378L549 371L559 381L561 381L562 373L564 370L565 371L569 369L565 367L560 374L557 373L559 364L558 353L554 350L555 349L551 345L552 344L549 346L547 344L550 341L549 335L551 333L547 325L551 321L552 322L556 316L562 311L559 305L558 306L554 303L551 303L553 302L551 302L544 311L544 309L538 305L536 308L537 309L533 310zM530 327L529 328z"/><path class="leaflet-interactive" stroke="#333" stroke-opacity="1" stroke-width="1" stroke-linecap="round" stroke-linejoin="round" stroke-dasharray="1,6" fill="#eee" fill-opacity="0.5" fill-rule="evenodd" d="M579 312L570 316L568 316L567 313L559 313L554 320L547 325L551 333L549 335L550 341L547 344L549 346L551 346L552 344L551 345L554 347L554 350L558 353L558 375L561 373L561 370L563 370L565 367L566 369L569 368L569 372L573 375L574 373L577 372L577 370L584 370L585 367L588 366L586 360L594 355L601 354L603 350L610 357L610 355L615 351L614 350L620 345L625 347L629 344L629 336L631 333L625 324L623 324L620 328L618 328L618 326L614 327L613 324L610 324L607 328L603 325L600 326L598 324L600 321L598 319L599 317L597 315L596 316L596 314L590 314L585 312L583 314L584 317L582 317L579 314z"/><path class="leaflet-interactive" stroke="#333" stroke-opacity="1" stroke-width="1" stroke-linecap="round" stroke-linejoin="round" stroke-dasharray="1,6" fill="#eee" fill-opacity="0.5" fill-rule="evenodd" d="M485 387L481 385L478 378L474 380L468 380L465 378L461 380L459 378L451 383L445 383L443 390L438 388L438 390L435 390L430 397L432 399L430 402L431 408L437 410L435 413L436 416L438 415L439 417L445 414L447 417L450 418L467 406L471 416L470 422L472 423L471 424L473 427L481 424L483 425L483 427L486 426L487 428L489 428L491 424L487 422L489 415L488 414L491 412L488 407L489 405L486 402L487 401L483 400L484 398L482 395L482 389L484 388z"/><path class="leaflet-interactive" stroke="#333" stroke-opacity="1" stroke-width="1" stroke-linecap="round" stroke-linejoin="round" stroke-dasharray="1,6" fill="#fff" fill-opacity="0" fill-rule="evenodd" d="M396 271L400 271L402 277L407 274L409 275L411 277L411 279L409 278L409 280L416 289L423 291L426 290L429 286L433 290L433 295L438 294L435 305L439 302L449 304L452 302L452 300L456 301L456 288L458 284L464 284L463 283L465 280L462 276L464 270L462 270L463 267L460 264L462 263L461 262L463 260L461 258L461 252L454 252L453 258L447 256L445 252L445 247L446 243L448 243L445 241L446 238L443 237L443 235L441 235L440 233L432 237L425 234L422 235L421 233L416 237L415 243L409 248L410 249L408 249L405 252L406 253L400 253L400 259L402 259L404 265L402 266L402 264L400 264L400 267L395 266L395 268z"/><path class="leaflet-interactive" stroke="#333" stroke-opacity="1" stroke-width="1" stroke-linecap="round" stroke-linejoin="round" stroke-dasharray="1,6" fill="#eee" fill-opacity="0.5" fill-rule="evenodd" d="M370 281L365 286L363 284L362 285L358 293L361 299L358 299L353 303L354 305L352 313L357 313L357 317L360 320L359 325L357 325L352 331L357 334L364 328L367 328L371 325L388 325L390 324L391 321L389 313L391 311L389 310L390 309L387 308L383 310L381 306L381 302L385 300L385 298L379 297L378 295L374 295L376 291L371 282z"/><path class="leaflet-interactive" stroke="#333" stroke-opacity="1" stroke-width="1" stroke-linecap="round" stroke-linejoin="round" stroke-dasharray="1,6" fill="#eee" fill-opacity="0.5" fill-rule="evenodd" d="M420 233L417 226L418 225L416 225L415 223L413 223L412 225L409 219L407 222L399 221L400 220L398 216L400 212L398 209L397 210L396 207L397 199L394 196L395 191L393 191L393 184L389 178L384 179L381 182L380 176L376 171L374 173L376 177L372 180L372 187L374 189L373 190L375 195L374 196L377 199L378 203L381 202L382 198L390 201L390 219L392 220L391 232L393 235L389 247L391 253L387 253L387 259L389 259L390 261L393 274L395 274L396 272L395 266L397 265L400 267L400 265L403 265L402 259L400 259L399 255L400 252L406 254L405 253L410 248L410 246L416 242L415 237L420 234z"/><path class="leaflet-interactive" stroke="#333" stroke-opacity="1" stroke-width="1" stroke-linecap="round" stroke-linejoin="round" stroke-dasharray="1,6" fill="#eee" fill-opacity="0.5" fill-rule="evenodd" d="M441 195L441 190L437 189L438 188L432 180L434 178L437 178L438 176L434 172L431 165L423 159L423 154L419 157L419 159L417 159L417 163L412 166L414 171L412 174L413 180L405 171L406 167L403 157L403 141L399 141L398 143L400 146L397 152L399 154L396 156L394 155L393 149L388 150L389 159L386 161L388 165L387 167L392 173L389 178L392 182L391 183L393 184L393 191L395 191L394 196L397 199L397 210L398 209L400 211L398 216L400 222L406 222L408 221L408 219L412 225L412 223L415 222L413 219L414 216L412 214L412 211L414 209L413 204L415 204L417 201L419 208L421 209L420 210L427 217L431 223L431 226L433 225L434 216L439 210L438 203L440 201L439 200L441 196z"/></g></svg>