<svg xmlns="http://www.w3.org/2000/svg" pointer-events="none" class="leaflet-zoom-animated" width="1060" height="563" viewBox="-88 -47 1060 563" style="transform: translate3d(-88px, -47px, 0px);"><g><path class="leaflet-interactive" stroke="black" stroke-opacity="1" stroke-width="2" stroke-linecap="round" stroke-linejoin="round" fill="#fff" fill-opacity="0.2" fill-rule="evenodd" d="M502 410L497 419L497 422L494 424L492 422L489 422L486 427L483 428L483 424L475 430L468 426L467 427L469 430L464 430L463 431L465 432L460 436L458 440L456 440L456 442L454 443L455 444L452 445L449 449L448 452L450 455L448 458L446 455L446 462L436 464L433 463L433 461L426 459L420 453L417 454L411 452L409 450L411 448L412 442L417 435L415 434L414 429L411 428L409 430L405 430L406 432L403 433L400 438L397 460L394 463L391 462L382 466L375 466L374 468L372 468L364 461L359 459L359 455L361 453L359 448L366 443L372 436L369 430L370 427L366 426L360 428L353 434L344 431L335 434L337 438L333 443L330 443L324 439L324 435L320 437L319 435L318 436L318 427L312 428L312 426L302 418L295 417L302 415L307 409L308 400L306 396L299 395L297 397L291 397L290 400L288 398L285 400L285 402L281 399L282 401L278 403L278 396L272 392L266 384L270 380L259 355L296 360L314 357L333 361L338 367L348 369L359 375L367 377L377 375L377 380L385 381L397 373L425 362L432 364L437 362L447 364L450 362L454 363L471 356L482 343L490 340L497 335L497 332L492 327L488 319L491 315L490 314L494 306L498 304L504 304L511 309L524 312L526 309L531 307L539 297L552 297L560 293L562 290L566 288L566 284L571 276L584 274L586 269L588 269L589 271L598 266L607 267L608 265L615 269L621 269L625 267L625 263L622 256L615 249L616 248L613 247L612 244L606 241L603 236L592 235L584 244L576 238L566 239L561 243L555 237L554 232L559 229L559 223L573 190L582 196L591 198L600 191L602 191L603 188L612 187L616 182L615 177L614 178L612 176L618 168L618 164L622 160L622 156L626 151L627 145L637 137L637 134L639 132L636 127L638 121L634 119L627 120L627 115L641 101L644 102L650 100L653 102L655 108L652 114L645 120L647 120L656 128L658 128L661 122L666 128L671 128L671 131L668 134L670 136L670 142L674 153L679 155L684 154L686 151L689 153L693 152L695 154L697 154L698 152L701 153L706 150L705 149L708 147L708 144L711 145L717 151L721 158L723 158L723 164L719 168L719 174L715 177L714 181L711 184L712 185L710 188L711 190L709 196L711 204L709 208L704 207L699 222L700 228L698 233L695 225L696 223L694 223L683 235L679 237L677 241L668 246L667 250L665 251L668 256L672 258L671 261L673 260L673 264L675 266L681 262L679 259L683 261L683 264L684 262L685 263L685 266L680 267L678 269L675 268L677 278L671 281L672 285L669 290L669 288L666 286L664 285L663 288L656 282L653 289L658 290L658 294L661 296L662 301L660 303L659 308L661 312L660 315L663 319L663 323L669 322L675 317L681 325L680 328L683 337L681 337L682 338L680 338L680 340L686 342L685 349L680 350L677 352L675 356L674 355L672 357L667 354L664 355L666 356L664 358L662 356L657 357L656 361L653 363L648 362L643 367L641 366L634 370L634 372L632 372L628 379L624 369L620 367L618 364L614 368L616 372L615 379L617 384L613 388L600 386L596 378L599 375L599 371L598 370L597 372L595 370L596 369L594 367L594 363L590 359L586 359L584 361L585 362L579 362L576 364L577 367L575 369L575 373L570 374L567 372L563 377L560 374L557 375L551 379L552 381L550 380L549 382L547 380L543 381L545 376L543 369L539 369L537 371L538 373L535 373L533 377L533 383L531 382L528 384L528 387L530 389L527 392L531 395L531 403L528 405L526 404L523 408L520 408L518 406L512 408L511 411L508 411L506 409L503 410zM696 182L696 177L698 177L698 173L693 172L690 174L691 176L690 177L688 175L687 178L690 182L695 182z"/><path class="leaflet-interactive" stroke="#333" stroke-opacity="1" stroke-width="1" stroke-linecap="round" stroke-linejoin="round" stroke-dasharray="1,6" fill="#eee" fill-opacity="0.5" fill-rule="evenodd" d="M482 409L488 415L487 421L491 423L492 422L494 424L499 417L502 408L498 403L498 401L500 400L500 396L493 387L488 387L485 389L481 386L477 386L474 388L476 390L478 402L483 407L482 408z"/><path class="leaflet-interactive" stroke="#333" stroke-opacity="1" stroke-width="1" stroke-linecap="round" stroke-linejoin="round" stroke-dasharray="1,6" fill="#eee" fill-opacity="0.5" fill-rule="evenodd" d="M488 387L489 384L487 380L483 377L478 369L477 363L471 356L455 363L458 369L454 375L456 382L460 384L460 392L464 396L461 399L456 400L456 404L458 403L460 405L468 403L472 407L480 410L483 407L478 402L478 398L475 394L476 390L474 388L477 386L481 386L485 389L487 387z"/><path class="leaflet-interactive" stroke="#333" stroke-opacity="1" stroke-width="1" stroke-linecap="round" stroke-linejoin="round" stroke-dasharray="1,6" fill="#eee" fill-opacity="0.5" fill-rule="evenodd" d="M413 418L414 421L411 424L416 435L418 435L419 430L416 430L416 418L413 418z"/><path class="leaflet-interactive" stroke="#333" stroke-opacity="1" stroke-width="1" stroke-linecap="round" stroke-linejoin="round" stroke-dasharray="1,6" fill="#eee" fill-opacity="0.5" fill-rule="evenodd" d="M640 366L635 361L632 349L639 341L633 342L642 336L639 332L637 324L632 321L631 317L625 309L622 308L621 303L616 300L616 304L614 302L613 303L614 308L612 307L611 309L613 311L610 312L610 316L604 318L601 321L598 321L598 323L595 326L593 325L589 328L589 326L586 323L581 323L577 328L579 334L568 345L568 347L573 353L571 359L575 360L576 363L585 362L584 361L586 359L590 359L594 363L594 367L596 369L595 370L597 372L598 371L599 373L599 377L596 377L597 381L599 382L598 384L601 387L615 387L617 383L617 381L615 380L615 368L618 364L624 368L628 379L632 372L634 372L634 370L640 367z"/><path class="leaflet-interactive" stroke="#333" stroke-opacity="1" stroke-width="1" stroke-linecap="round" stroke-linejoin="round" stroke-dasharray="1,6" fill="#eee" fill-opacity="0.5" fill-rule="evenodd" d="M640 366L643 367L648 362L652 361L654 363L657 357L662 356L664 358L666 356L664 355L665 354L670 355L672 357L674 355L675 356L678 354L677 353L680 350L685 349L686 342L681 341L679 338L682 338L681 337L683 337L683 335L680 329L681 325L676 319L676 317L667 323L661 323L657 321L649 310L643 306L641 303L642 302L637 299L633 294L627 292L626 295L619 291L615 295L614 299L621 303L622 308L624 308L629 314L633 322L637 323L637 327L642 336L633 342L638 341L632 348L635 361L639 364z"/><path class="leaflet-interactive" stroke="#333" stroke-opacity="1" stroke-width="1" stroke-linecap="round" stroke-linejoin="round" stroke-dasharray="1,6" fill="#eee" fill-opacity="0.5" fill-rule="evenodd" d="M416 435L409 450L411 452L416 454L419 453L426 459L433 461L433 463L435 464L446 463L446 456L448 458L450 456L448 453L449 449L456 442L456 440L463 433L464 434L465 432L463 431L467 431L468 426L471 429L474 428L475 430L477 430L478 427L482 424L484 424L482 427L483 428L486 427L488 425L488 416L484 410L474 408L471 405L470 406L468 403L461 405L459 403L453 405L450 403L445 403L446 402L440 398L431 396L428 399L422 401L419 405L420 407L418 407L413 414L413 419L416 417L416 429L418 431L419 430L417 435z"/><path class="leaflet-interactive" stroke="#333" stroke-opacity="1" stroke-width="1" stroke-linecap="round" stroke-linejoin="round" stroke-dasharray="1,6" fill="#fff" fill-opacity="0" fill-rule="evenodd" d="M665 251L660 255L653 253L653 255L642 257L636 254L638 250L635 247L636 246L635 247L630 244L625 246L620 251L618 251L615 249L616 248L613 247L612 244L606 241L603 236L600 235L592 235L584 244L576 238L566 239L561 243L555 237L554 232L559 229L559 223L573 190L582 196L591 198L600 191L602 191L603 188L612 187L616 182L615 177L614 178L612 176L618 168L618 164L622 160L622 156L626 151L627 145L637 137L637 134L639 132L636 127L638 121L634 119L627 120L627 115L641 101L644 102L650 100L653 102L655 106L652 114L645 120L647 120L656 128L658 128L661 122L666 128L671 128L671 131L668 134L670 136L670 142L674 153L679 155L684 154L686 151L689 153L693 152L695 154L697 154L698 152L701 153L706 150L705 149L708 147L708 144L711 145L717 151L721 158L723 158L723 164L719 168L719 174L715 177L714 181L711 184L712 185L710 188L711 190L709 196L711 204L709 208L704 207L699 222L700 228L698 233L695 225L696 223L694 223L683 235L679 237L677 241L668 246L667 250zM696 182L696 177L698 177L698 173L693 172L690 174L691 176L690 177L688 175L687 178L690 182L695 182z"/><path class="leaflet-interactive" stroke="#333" stroke-opacity="1" stroke-width="1" stroke-linecap="round" stroke-linejoin="round" stroke-dasharray="1,6" fill="#eee" fill-opacity="0.5" fill-rule="evenodd" d="M415 411L420 407L419 405L422 401L428 399L431 396L439 398L446 402L445 403L455 405L456 400L461 399L464 396L460 392L460 383L456 383L454 376L457 371L456 363L450 362L447 364L437 362L432 364L425 362L397 373L388 379L388 385L391 393L396 398L409 403L409 405L404 404L406 408L414 407L413 411L415 411z"/><path class="leaflet-interactive" stroke="#333" stroke-opacity="1" stroke-width="1" stroke-linecap="round" stroke-linejoin="round" stroke-dasharray="1,6" fill="#eee" fill-opacity="0.5" fill-rule="evenodd" d="M502 410L506 409L510 411L514 407L518 406L519 408L523 408L524 406L531 404L530 402L532 399L530 397L531 395L529 395L528 392L528 390L530 390L528 384L530 382L533 383L533 377L535 374L538 373L537 371L539 369L543 369L539 366L536 368L536 370L534 368L531 371L531 373L523 369L520 369L515 374L507 365L498 360L493 351L484 342L471 356L477 363L482 377L488 382L488 387L494 388L500 396L499 403L502 408z"/><path class="leaflet-interactive" stroke="#333" stroke-opacity="1" stroke-width="1" stroke-linecap="round" stroke-linejoin="round" stroke-dasharray="1,6" fill="#eee" fill-opacity="0.5" fill-rule="evenodd" d="M663 323L663 319L660 315L661 312L659 308L662 299L658 294L658 290L653 289L656 282L663 288L664 285L666 285L667 288L669 288L669 290L672 285L671 281L677 278L675 269L684 267L685 264L683 264L683 261L679 259L681 261L680 263L678 263L676 266L674 265L673 260L671 260L672 258L668 256L665 252L663 252L660 255L653 253L653 255L642 257L636 254L638 250L635 247L636 246L635 247L630 244L625 246L620 251L618 251L619 254L622 255L625 262L626 274L624 274L623 287L619 291L625 293L626 295L627 292L631 293L635 296L635 298L642 302L641 303L643 306L649 309L657 321L661 323L662 322z"/><path class="leaflet-interactive" stroke="#333" stroke-opacity="1" stroke-width="1" stroke-linecap="round" stroke-linejoin="round" stroke-dasharray="1,6" fill="#eee" fill-opacity="0.5" fill-rule="evenodd" d="M543 369L545 376L543 381L551 381L554 377L559 374L563 377L568 372L569 374L575 372L575 369L577 367L576 361L571 359L573 353L569 349L568 345L572 341L572 339L575 340L576 336L579 334L577 329L581 323L585 323L589 326L589 328L591 328L593 325L595 326L598 323L598 321L602 321L604 318L610 316L609 312L612 311L611 307L614 308L614 302L616 304L616 300L614 299L615 295L623 287L624 275L625 273L626 274L625 267L621 269L616 269L608 265L605 267L599 266L589 271L586 269L584 274L575 274L571 276L566 284L566 288L562 290L560 293L552 297L539 297L532 307L528 308L524 312L511 309L507 307L505 304L499 304L494 306L488 321L497 332L497 334L490 340L484 342L485 344L493 351L496 357L507 365L509 369L515 374L520 369L523 369L530 373L531 370L534 368L537 370L536 368L538 368L539 366L542 368z"/><path class="leaflet-interactive" stroke="#333" stroke-opacity="1" stroke-width="1" stroke-linecap="round" stroke-linejoin="round" stroke-dasharray="1,6" fill="#fff" fill-opacity="0" fill-rule="evenodd" d="M389 378L385 381L377 380L377 375L367 377L359 375L348 369L338 367L333 361L314 357L296 360L259 355L270 380L266 384L272 392L278 396L278 403L282 401L281 399L283 399L285 402L285 400L288 398L290 401L291 397L297 397L299 395L306 396L308 400L307 409L304 411L302 415L295 417L302 418L308 422L312 426L312 428L318 427L318 436L324 435L324 439L326 439L325 440L330 443L333 443L338 438L334 434L342 431L352 434L360 428L366 426L370 427L369 430L372 433L372 435L366 443L359 448L361 451L359 459L372 468L382 466L390 462L394 463L398 459L397 453L399 450L399 440L402 434L406 432L405 430L413 428L411 425L414 421L413 414L415 411L413 411L412 409L414 407L406 408L404 404L409 405L409 403L404 400L396 398L391 394L388 385L388 379z"/></g></svg>