<svg xmlns="http://www.w3.org/2000/svg" pointer-events="none" class="leaflet-zoom-animated" width="1060" height="563" viewBox="-88 -47 1060 563" style="transform: translate3d(-88px, -47px, 0px) scale(1);"><g><path class="leaflet-interactive" stroke="black" stroke-opacity="1" stroke-width="2" stroke-linecap="round" stroke-linejoin="round" fill="#fff" fill-opacity="0.2" fill-rule="evenodd" d="M589 264L591 262L590 257L594 253L590 250L591 249L587 243L589 241L594 240L592 235L599 232L600 230L603 231L605 229L610 233L612 231L614 232L616 230L614 228L614 223L618 222L618 218L620 217L623 221L627 216L623 213L621 214L611 212L604 214L604 216L602 217L596 216L595 213L591 213L587 210L583 211L575 209L566 209L564 211L557 209L550 201L550 198L545 192L545 190L542 188L542 186L537 184L535 186L532 179L530 179L524 174L525 171L520 167L519 163L519 158L522 155L521 152L515 148L511 150L512 155L511 161L509 163L505 160L501 160L498 163L494 161L490 162L489 166L493 172L493 175L485 175L481 172L479 168L475 170L477 178L480 180L485 188L488 189L492 197L472 197L471 201L467 199L463 194L460 202L454 208L453 216L450 215L446 218L447 221L444 221L441 223L441 225L435 227L435 225L431 230L429 230L427 225L418 225L417 227L409 229L409 233L404 234L398 241L399 244L404 245L402 248L402 253L405 255L412 265L414 265L414 267L421 268L422 274L428 283L418 288L417 293L412 297L412 303L407 302L404 298L402 298L402 300L400 300L399 302L399 305L391 305L386 306L386 308L380 308L379 312L374 312L373 315L369 316L364 322L361 323L361 329L358 330L357 335L365 338L366 341L370 344L368 347L371 349L369 355L371 355L376 360L368 364L365 361L364 363L358 365L359 369L366 372L367 379L364 386L368 386L370 388L369 396L373 392L378 397L379 395L386 395L389 393L392 395L393 400L396 402L396 404L398 404L400 409L402 410L409 410L410 409L408 408L408 406L413 402L415 404L418 401L417 400L420 400L420 395L422 395L426 401L429 399L429 396L433 399L433 397L435 397L435 399L445 398L445 400L451 399L454 396L460 398L463 402L463 409L466 412L471 413L473 418L487 421L490 420L489 415L485 413L486 412L483 407L486 407L486 409L489 410L488 407L493 406L492 402L497 403L499 395L501 396L502 394L505 393L504 392L510 391L512 395L517 394L521 396L522 395L522 397L525 396L522 393L522 391L528 391L532 396L534 394L533 393L539 391L538 389L541 386L541 383L549 381L546 380L547 379L545 375L550 373L548 367L549 368L552 364L554 364L552 362L553 361L551 359L550 353L548 353L548 356L538 348L536 348L536 346L534 348L533 347L532 336L529 334L532 323L537 323L537 321L541 319L543 321L549 319L550 320L551 318L553 320L555 319L557 322L558 321L560 323L563 323L565 319L574 315L577 317L581 315L583 316L585 314L586 316L588 313L587 312L589 312L592 308L596 310L597 307L599 308L601 304L605 305L607 301L605 299L609 299L613 296L609 295L611 293L609 292L611 290L606 289L604 287L603 280L599 281L595 274L596 272L593 270L591 265L589 266z"/><path class="leaflet-interactive" stroke="#333" stroke-opacity="1" stroke-width="1" stroke-linecap="round" stroke-linejoin="round" stroke-dasharray="1,6" fill="#eee" fill-opacity="0.5" fill-rule="evenodd" d="M489 349L489 344L487 340L489 340L489 338L484 333L481 335L483 340L483 349L481 349L482 351L484 351L485 349L489 349z"/><path class="leaflet-interactive" stroke="#333" stroke-opacity="1" stroke-width="1" stroke-linecap="round" stroke-linejoin="round" stroke-dasharray="1,6" fill="#eee" fill-opacity="0.5" fill-rule="evenodd" d="M473 345L473 348L475 349L483 349L483 338L481 332L479 333L479 336L474 337L475 345z"/><path class="leaflet-interactive" stroke="#333" stroke-opacity="1" stroke-width="1" stroke-linecap="round" stroke-linejoin="round" stroke-dasharray="1,6" fill="#eee" fill-opacity="0.5" fill-rule="evenodd" d="M508 325L502 320L502 317L501 318L500 316L493 313L491 315L491 318L487 317L484 319L484 321L477 323L482 332L481 334L484 334L484 332L489 337L489 340L487 340L490 346L489 350L491 352L487 356L489 358L490 357L493 360L495 358L496 359L498 356L501 357L500 356L502 355L508 357L509 354L511 353L511 341L513 341L513 336L515 337L513 330L514 327L513 328L509 325zM509 319L509 310L508 313L506 313L506 310L505 312L508 318L507 319L509 321L509 319z"/><path class="leaflet-interactive" stroke="#333" stroke-opacity="1" stroke-width="1" stroke-linecap="round" stroke-linejoin="round" stroke-dasharray="1,6" fill="#eee" fill-opacity="0.5" fill-rule="evenodd" d="M465 345L459 349L453 346L445 350L441 350L441 352L439 353L443 357L443 363L447 363L449 365L447 365L447 368L453 366L453 364L457 365L458 359L461 357L463 357L465 362L469 361L471 366L473 362L476 360L479 361L479 364L482 365L482 367L483 364L487 362L484 358L486 359L485 357L492 352L486 349L485 351L477 350L474 348L473 349L473 345L470 347L470 345L466 345z"/><path class="leaflet-interactive" stroke="#333" stroke-opacity="1" stroke-width="1" stroke-linecap="round" stroke-linejoin="round" stroke-dasharray="1,6" fill="#eee" fill-opacity="0.5" fill-rule="evenodd" d="M453 346L459 349L464 345L464 342L458 342L459 337L455 331L456 330L454 331L451 329L446 331L446 337L452 345z"/><path class="leaflet-interactive" stroke="#333" stroke-opacity="1" stroke-width="1" stroke-linecap="round" stroke-linejoin="round" stroke-dasharray="1,6" fill="#eee" fill-opacity="0.5" fill-rule="evenodd" d="M473 345L475 345L474 338L479 336L479 333L481 333L477 323L482 322L479 319L481 317L478 316L475 318L474 317L474 319L473 317L471 318L469 314L465 311L466 310L463 309L463 305L459 304L457 301L455 301L453 307L442 307L438 313L441 317L441 321L447 323L448 322L453 325L454 327L451 329L454 332L455 330L455 333L459 336L458 342L464 341L464 345L470 345L470 347L472 345z"/><path class="leaflet-interactive" stroke="#333" stroke-opacity="1" stroke-width="1" stroke-linecap="round" stroke-linejoin="round" stroke-dasharray="1,6" fill="#eee" fill-opacity="0.5" fill-rule="evenodd" d="M451 329L454 328L453 325L448 322L442 323L440 319L441 317L438 314L428 315L426 312L427 311L426 312L420 304L419 305L407 302L404 298L402 298L402 300L400 300L399 302L399 305L391 305L386 306L386 308L380 308L379 312L376 311L374 312L373 315L369 316L364 322L361 323L361 329L358 330L357 335L365 338L366 341L370 344L368 347L371 349L369 355L377 359L379 358L384 349L402 340L407 341L410 345L414 344L415 342L424 342L425 343L421 347L422 349L428 350L430 348L430 355L433 353L439 354L441 352L440 350L445 350L452 346L453 347L446 337L446 331L450 330z"/><path class="leaflet-interactive" stroke="#333" stroke-opacity="1" stroke-width="1" stroke-linecap="round" stroke-linejoin="round" stroke-dasharray="1,6" fill="#eee" fill-opacity="0.5" fill-rule="evenodd" d="M439 354L433 353L430 355L430 348L428 350L422 349L421 347L425 343L424 342L415 342L415 344L410 345L407 341L402 340L384 349L380 358L376 359L376 361L368 364L365 361L364 363L358 365L359 369L366 372L367 379L364 386L368 386L370 388L369 396L373 392L378 397L379 395L386 395L389 393L392 395L393 400L396 402L396 404L398 404L400 409L409 410L410 409L408 408L408 406L413 402L415 404L418 401L417 400L420 400L420 395L422 395L426 401L429 399L429 396L433 399L433 397L435 397L435 399L445 398L445 400L451 399L454 396L460 398L461 397L459 386L464 373L463 358L459 357L457 365L453 364L452 367L448 368L448 365L443 363L443 357L439 354z"/><path class="leaflet-interactive" stroke="#333" stroke-opacity="1" stroke-width="1" stroke-linecap="round" stroke-linejoin="round" stroke-dasharray="1,6" fill="#eee" fill-opacity="0.5" fill-rule="evenodd" d="M525 391L530 392L532 396L534 394L533 393L538 392L541 383L549 381L546 380L547 379L545 375L550 373L548 367L549 368L552 364L554 364L552 362L553 361L551 359L550 353L548 353L548 356L538 348L536 348L536 346L534 348L533 347L532 336L529 334L531 325L523 323L520 326L511 324L511 322L509 323L509 325L513 328L514 327L513 330L515 337L513 336L513 341L511 341L511 345L513 348L511 350L511 353L509 353L508 357L503 355L500 357L500 365L502 367L501 368L499 366L499 370L501 371L501 376L508 376L512 373L516 377L515 380L521 382L522 388L524 388L524 390z"/><path class="leaflet-interactive" stroke="#333" stroke-opacity="1" stroke-width="1" stroke-linecap="round" stroke-linejoin="round" stroke-dasharray="1,6" fill="#eee" fill-opacity="0.5" fill-rule="evenodd" d="M531 325L533 322L537 323L537 321L541 319L543 321L549 319L550 320L551 318L553 320L555 319L555 317L559 315L556 311L557 302L551 293L553 290L552 289L550 291L547 288L541 275L538 276L538 279L533 279L531 282L527 280L519 288L517 284L510 285L504 281L494 286L494 290L492 293L494 295L493 300L495 303L493 303L495 311L492 312L503 318L506 315L505 310L506 313L508 313L509 310L509 319L512 324L515 323L516 325L520 325L523 323L528 323L530 325zM506 315L502 319L508 325L510 322L509 319L509 321L507 319L507 315L506 316z"/><path class="leaflet-interactive" stroke="#333" stroke-opacity="1" stroke-width="1" stroke-linecap="round" stroke-linejoin="round" stroke-dasharray="1,6" fill="#eee" fill-opacity="0.5" fill-rule="evenodd" d="M482 321L484 321L484 319L487 317L490 318L492 311L495 311L493 303L495 303L495 301L493 301L495 297L492 293L493 288L496 284L494 283L494 281L489 279L490 274L488 272L479 272L479 268L477 268L477 266L473 262L469 262L468 264L464 263L463 265L461 265L461 263L455 266L454 265L450 269L452 270L449 270L449 275L447 275L446 272L441 270L438 273L438 275L436 275L434 271L429 273L429 282L426 285L418 288L417 293L412 297L413 302L415 304L421 305L426 312L427 311L426 312L428 315L434 315L444 307L453 307L455 301L457 301L458 304L462 305L463 310L465 310L471 317L473 317L474 319L474 317L475 318L480 316L481 317L479 319L481 321z"/><path class="leaflet-interactive" stroke="#333" stroke-opacity="1" stroke-width="1" stroke-linecap="round" stroke-linejoin="round" stroke-dasharray="1,6" fill="#eee" fill-opacity="0.5" fill-rule="evenodd" d="M525 391L525 388L523 388L522 386L522 382L518 382L512 373L509 376L499 375L501 374L500 371L501 372L499 371L499 366L500 368L502 366L500 365L501 359L498 356L493 360L490 357L489 358L485 356L486 359L484 358L487 361L483 363L483 367L476 360L472 366L470 365L469 362L465 362L464 364L463 375L461 377L459 386L461 396L460 398L463 402L463 409L466 412L471 413L473 418L475 419L487 421L490 420L489 415L485 413L486 412L483 407L486 407L486 409L489 410L488 407L493 406L492 402L497 403L499 395L501 396L502 394L505 393L504 392L510 391L512 395L517 394L521 396L522 395L522 397L525 396L522 393L522 391L524 391z"/><path class="leaflet-interactive" stroke="#333" stroke-opacity="1" stroke-width="1" stroke-linecap="round" stroke-linejoin="round" stroke-dasharray="1,6" fill="#fff" fill-opacity="0" fill-rule="evenodd" d="M469 262L478 266L476 268L479 268L479 272L484 271L489 273L489 279L491 279L495 284L501 284L501 281L504 281L512 286L512 284L517 284L518 288L520 288L531 274L529 271L527 272L523 266L523 261L527 258L524 253L525 250L524 251L521 249L521 245L524 239L519 234L517 235L520 232L522 233L524 231L521 223L524 213L530 208L533 209L532 201L538 201L540 199L539 198L546 192L542 188L542 186L537 184L535 186L532 179L530 179L524 174L525 171L520 167L519 163L519 158L522 155L521 152L515 148L511 150L512 155L511 161L509 163L505 160L501 160L498 163L494 161L490 162L489 166L493 172L493 175L485 175L481 172L479 168L475 170L477 178L480 180L485 188L488 189L488 191L496 200L496 202L498 202L496 206L497 208L494 211L494 213L502 217L505 221L501 223L501 227L491 239L493 241L495 240L498 244L497 246L495 247L491 245L490 247L485 246L482 248L479 243L474 243L471 246L469 246L471 249L469 251L470 257L468 261z"/><path class="leaflet-interactive" stroke="#333" stroke-opacity="1" stroke-width="1" stroke-linecap="round" stroke-linejoin="round" stroke-dasharray="1,6" fill="#eee" fill-opacity="0.5" fill-rule="evenodd" d="M555 319L557 322L558 321L560 323L563 323L565 319L574 315L577 317L581 315L583 316L585 314L586 316L588 313L587 312L589 312L592 308L596 310L597 307L599 308L601 304L605 305L607 301L605 299L609 299L613 296L609 295L611 293L609 292L611 290L606 289L604 287L603 280L598 280L595 274L596 272L593 270L591 265L579 265L579 267L573 267L568 271L563 271L560 279L558 279L555 282L554 284L557 286L555 289L552 289L553 290L551 293L557 301L556 311L559 315L555 317z"/><path class="leaflet-interactive" stroke="#333" stroke-opacity="1" stroke-width="1" stroke-linecap="round" stroke-linejoin="round" stroke-dasharray="1,6" fill="#eee" fill-opacity="0.5" fill-rule="evenodd" d="M589 264L591 262L590 257L594 253L590 250L591 249L587 243L589 241L594 240L592 235L599 232L600 230L603 231L605 229L610 233L612 231L614 232L616 230L614 228L614 223L618 222L618 218L620 217L623 221L627 216L623 213L621 214L615 212L604 214L604 216L602 217L596 216L595 213L591 213L587 210L583 211L575 209L566 209L564 211L557 209L550 201L551 200L546 193L544 193L539 198L539 201L535 202L532 200L533 209L530 208L524 213L522 221L522 226L524 230L522 233L520 232L517 235L519 234L524 239L521 245L521 249L524 251L525 250L525 256L527 258L523 261L523 265L525 267L525 271L529 271L529 273L531 274L527 280L531 283L534 279L538 280L539 275L541 275L542 279L544 279L544 282L550 291L553 288L555 289L557 287L554 284L558 279L561 278L563 271L567 271L572 267L579 267L579 265L588 264z"/><path class="leaflet-interactive" stroke="#333" stroke-opacity="1" stroke-width="1" stroke-linecap="round" stroke-linejoin="round" stroke-dasharray="1,6" fill="#eee" fill-opacity="0.5" fill-rule="evenodd" d="M427 283L429 282L430 277L428 276L428 274L431 272L434 271L436 275L438 275L441 270L447 273L447 275L449 275L449 270L452 270L452 266L455 266L459 263L461 263L461 265L465 263L468 264L470 257L469 251L471 249L469 246L471 246L473 243L480 244L482 248L484 246L490 247L491 245L495 247L498 245L496 240L494 241L491 239L501 227L501 222L505 222L505 220L499 217L498 214L494 214L498 202L496 202L496 200L493 197L472 197L471 201L467 199L463 194L460 202L454 208L453 216L450 215L446 218L447 221L444 221L441 223L441 225L435 227L435 225L431 230L429 230L427 225L418 225L417 227L409 229L409 233L404 234L399 239L398 243L404 245L402 248L402 253L405 255L412 265L414 265L414 267L421 268L422 274L427 282z"/></g></svg>