<svg xmlns="http://www.w3.org/2000/svg" pointer-events="none" class="leaflet-zoom-animated" width="1060" height="563" viewBox="-88 -47 1060 563" style="transform: translate3d(-88px, -47px, 0px);"><g><path class="leaflet-interactive" stroke="black" stroke-opacity="1" stroke-width="2" stroke-linecap="round" stroke-linejoin="round" fill="#fff" fill-opacity="0" fill-rule="evenodd" d="M391 388L399 394L404 402L405 417L408 424L413 424L418 427L418 420L421 417L422 398L429 374L438 369L448 353L451 344L455 340L455 330L458 327L467 285L470 279L468 275L471 270L471 267L479 255L480 249L484 242L485 236L481 226L481 220L492 208L488 206L486 199L475 197L472 192L465 187L456 189L451 197L448 199L441 200L429 206L421 219L420 225L416 231L407 237L404 245L398 253L392 266L383 280L379 291L374 293L369 300L369 308L371 314L370 326L364 344L365 346L371 349L372 357L380 380L382 382zM655 144L658 143L655 142zM584 157L589 157L589 155L587 154L584 155zM340 311L343 311L342 307L338 307L337 309L335 308L335 314L338 314zM599 143L601 143L599 142zM331 306L331 309L329 310L332 310L332 306zM330 322L330 325L332 325zM334 303L337 306L338 303L336 302zM457 372L460 375L460 372zM460 413L461 418L465 419L466 418L464 417L464 413zM498 173L497 175L499 175zM325 334L325 336L328 334zM386 396L388 395L387 394z"/></g></svg>