<svg xmlns="http://www.w3.org/2000/svg" pointer-events="none" class="leaflet-zoom-animated" width="1060" height="563" viewBox="-88 -47 1060 563" style="transform: translate3d(-88px, -47px, 0px);"><g><path class="leaflet-interactive" stroke="black" stroke-opacity="1" stroke-width="2" stroke-linecap="round" stroke-linejoin="round" fill="#fff" fill-opacity="0.2" fill-rule="evenodd" d="M563 386L574 385L588 387L588 385L591 386L594 384L602 386L604 385L605 381L607 381L610 377L611 378L616 374L614 372L617 368L615 368L618 367L616 365L618 363L619 364L620 361L622 361L622 359L624 361L624 359L627 360L631 365L634 360L633 359L638 361L640 358L640 351L642 349L640 349L640 347L642 347L641 341L643 339L645 328L648 327L646 326L647 325L653 327L656 326L658 327L656 330L657 331L664 332L662 342L669 350L672 350L671 353L673 352L673 348L675 348L678 360L681 361L677 356L677 353L680 352L680 348L676 344L673 345L670 342L676 339L677 337L681 335L687 335L688 333L699 334L698 331L702 331L704 329L704 327L702 327L702 321L704 321L704 319L707 316L706 311L709 308L711 295L710 294L710 296L706 298L705 297L703 299L698 293L692 298L685 290L680 289L679 286L678 287L673 284L670 284L669 281L671 279L668 273L669 268L667 265L667 259L655 273L652 271L652 264L650 261L647 261L646 263L645 262L642 265L642 269L636 271L627 270L623 275L619 274L616 276L617 286L614 290L609 291L607 293L604 291L600 292L596 280L594 278L595 276L593 274L593 269L589 269L590 266L587 264L587 260L582 253L582 238L580 232L577 230L570 235L568 241L564 239L563 240L565 244L563 246L565 248L565 251L563 252L565 254L563 256L554 259L553 257L548 257L548 250L546 252L544 250L543 251L543 244L537 237L538 234L536 230L539 229L541 227L540 226L533 222L527 222L527 224L525 223L525 221L521 224L520 223L517 227L517 217L514 210L516 205L519 204L519 202L511 189L505 190L504 187L500 186L496 182L489 184L486 187L483 186L480 190L469 188L469 186L465 186L461 183L460 180L458 180L456 177L456 167L452 165L451 167L444 167L441 173L439 173L438 171L438 173L431 172L427 174L428 172L425 167L421 166L421 164L419 166L419 170L415 170L413 168L412 170L410 169L407 171L405 169L404 172L401 171L400 169L396 170L394 163L390 163L391 161L388 158L385 158L385 154L383 154L383 152L378 149L381 147L380 144L382 144L382 142L377 138L377 136L379 135L378 133L380 133L380 131L378 127L379 124L376 120L376 115L374 117L374 115L372 114L367 117L360 117L359 119L357 117L350 119L344 116L339 119L338 125L335 127L323 129L325 142L322 144L323 149L321 153L318 153L318 151L313 146L311 148L308 139L304 139L304 143L300 147L296 143L291 141L288 135L287 136L284 135L284 133L281 134L279 132L277 134L279 136L279 141L277 146L271 150L273 153L276 154L285 152L288 158L286 162L288 165L287 166L295 170L296 172L294 175L294 180L298 181L298 185L294 187L292 190L293 194L291 198L291 204L289 205L292 212L295 213L292 214L292 216L295 216L292 220L294 225L293 226L295 226L298 229L297 231L300 232L301 236L301 243L299 246L302 248L309 248L317 245L322 239L334 231L338 230L339 239L344 244L346 249L350 252L348 261L351 264L350 265L354 271L354 275L356 277L355 279L357 281L357 286L354 289L352 287L354 290L353 291L347 291L347 295L349 295L352 299L355 297L357 300L358 299L359 302L365 302L368 295L372 296L372 300L380 308L383 307L384 310L390 310L391 315L396 320L398 320L394 325L395 327L399 328L395 333L399 334L399 336L402 333L403 334L411 321L419 317L419 321L417 323L417 336L419 338L423 338L424 340L422 345L424 345L424 348L428 350L427 356L431 359L430 360L432 360L432 368L437 369L436 373L438 374L438 378L440 378L440 376L446 378L446 380L443 381L443 383L440 386L441 387L437 389L439 391L437 394L437 398L438 401L440 402L438 407L443 406L445 408L444 412L447 415L446 416L447 419L449 420L448 421L449 424L451 425L450 426L453 427L453 432L455 431L455 433L458 434L457 436L460 437L456 442L458 442L455 448L450 454L459 454L461 456L464 453L466 453L466 455L471 454L468 453L473 450L472 448L476 444L475 443L483 437L489 426L494 426L492 424L496 414L495 411L497 407L499 408L502 405L501 402L506 406L506 402L507 403L512 398L512 400L518 405L518 408L521 411L523 411L520 414L526 416L528 418L527 419L539 419L541 422L544 423L555 423L555 421L556 422L558 420L560 422L561 421L561 423L562 422L562 424L566 426L572 420L571 417L574 415L575 411L573 407L567 403L565 399L565 390L562 387z"/><path class="leaflet-interactive" stroke="#333" stroke-opacity="1" stroke-width="1" stroke-linecap="round" stroke-linejoin="round" stroke-dasharray="1,6" fill="#eee" fill-opacity="0.5" fill-rule="evenodd" d="M456 309L460 306L462 307L470 304L467 298L463 295L465 286L460 276L460 273L462 271L469 272L469 270L471 270L471 266L469 263L474 255L477 254L477 252L479 253L480 251L483 250L489 252L492 249L492 247L490 246L492 244L490 240L492 238L489 236L490 231L488 229L490 229L490 227L493 228L498 226L501 229L502 228L504 230L507 228L510 230L515 229L515 227L517 227L517 217L514 210L516 205L519 204L518 199L511 189L505 190L504 187L500 186L496 182L489 184L486 187L483 186L480 190L477 189L478 199L476 201L478 205L476 205L476 203L474 204L474 206L472 206L471 213L467 214L464 211L464 209L461 209L456 203L454 203L451 206L446 207L444 205L442 207L439 206L438 208L434 208L435 210L438 210L436 212L435 211L429 214L425 212L422 215L415 218L415 220L414 219L413 221L407 222L403 230L408 234L403 236L407 240L406 248L408 250L413 249L411 251L412 252L410 254L401 256L397 261L396 260L392 263L386 263L382 261L379 262L382 270L382 274L380 276L383 281L387 281L389 278L395 277L402 278L409 284L409 293L414 305L414 313L417 315L416 312L418 307L421 305L418 302L420 294L422 294L426 288L434 285L437 285L438 287L436 289L437 292L435 297L436 298L440 295L441 296L441 289L444 288L444 292L447 298L446 299L449 300L449 303L455 309zM502 229L502 229zM502 229L502 229z"/><path class="leaflet-interactive" stroke="#333" stroke-opacity="1" stroke-width="1" stroke-linecap="round" stroke-linejoin="round" stroke-dasharray="1,6" fill="#fff" fill-opacity="0" fill-rule="evenodd" d="M504 346L506 341L511 337L519 338L523 337L524 335L524 340L526 343L524 350L529 348L531 351L535 352L538 349L537 348L539 348L545 342L544 341L548 338L548 336L552 338L553 337L552 333L549 331L548 332L536 323L538 321L537 317L545 309L543 304L547 301L547 296L550 293L550 291L557 284L557 280L554 279L552 274L554 270L550 267L550 264L554 259L553 257L548 257L548 250L546 252L544 250L543 251L543 244L537 237L538 234L536 230L541 227L533 222L527 222L527 224L525 223L525 221L521 224L520 223L517 227L515 227L515 229L510 230L508 228L503 230L497 226L498 227L496 226L494 228L490 227L490 229L488 229L490 231L489 236L491 236L491 251L490 252L483 250L480 251L479 253L477 252L477 254L475 254L476 255L474 255L470 260L469 263L471 265L471 270L469 270L469 272L462 271L460 273L465 286L463 295L467 300L469 300L470 303L463 307L461 306L457 308L453 312L455 316L460 319L456 322L454 321L455 323L461 325L463 328L462 330L470 338L481 339L486 337L488 342L487 343L489 345L494 346L499 342L503 344zM502 229L502 229zM501 229L502 229z"/><path class="leaflet-interactive" stroke="#333" stroke-opacity="1" stroke-width="1" stroke-linecap="round" stroke-linejoin="round" stroke-dasharray="1,6" fill="#eee" fill-opacity="0.5" fill-rule="evenodd" d="M379 262L370 263L364 256L362 258L356 257L348 259L354 271L357 286L354 289L352 287L354 290L353 291L347 291L347 295L349 295L352 299L355 297L357 300L358 299L359 302L365 302L368 295L372 296L372 300L380 308L383 307L384 310L390 310L391 315L396 320L398 320L394 325L395 327L399 328L395 333L399 334L399 336L402 333L403 334L411 321L413 321L415 318L419 317L426 311L433 311L438 317L442 319L440 315L441 312L444 311L446 314L446 319L454 322L460 319L455 316L453 312L456 309L449 304L450 300L447 299L444 292L444 288L441 289L441 296L440 295L436 298L435 297L438 288L437 285L426 288L423 293L419 295L420 297L418 302L421 305L416 311L417 314L415 313L415 310L413 308L414 305L409 294L409 284L402 278L392 277L388 278L386 281L382 280L380 276L382 274L382 270L379 263z"/><path class="leaflet-interactive" stroke="#333" stroke-opacity="1" stroke-width="1" stroke-linecap="round" stroke-linejoin="round" stroke-dasharray="1,6" fill="#eee" fill-opacity="0.5" fill-rule="evenodd" d="M419 317L419 321L417 323L417 336L419 338L423 338L424 340L422 345L424 345L424 348L428 350L427 356L431 359L430 360L432 360L432 368L434 369L450 359L450 357L456 352L454 348L455 344L453 342L460 341L461 338L458 336L457 333L457 324L453 321L450 321L449 319L446 319L446 313L444 311L441 311L440 314L442 319L436 316L433 311L426 311L421 316L419 316z"/><path class="leaflet-interactive" stroke="#333" stroke-opacity="1" stroke-width="1" stroke-linecap="round" stroke-linejoin="round" stroke-dasharray="1,6" fill="#eee" fill-opacity="0.5" fill-rule="evenodd" d="M436 368L438 378L440 378L440 376L446 378L446 380L443 381L443 383L440 386L441 387L437 389L439 391L437 394L437 398L438 401L440 402L438 407L443 406L445 408L444 412L447 415L446 416L447 419L449 420L448 421L449 424L451 425L450 426L453 427L453 432L455 431L455 433L458 434L457 436L460 437L456 442L458 442L455 448L450 454L459 454L461 456L464 453L466 453L466 455L471 454L468 453L473 450L472 448L476 444L475 443L483 437L489 426L494 426L492 424L495 415L493 415L492 417L488 417L488 408L484 408L482 406L484 402L483 397L479 396L480 395L475 390L488 382L487 381L490 379L492 375L494 376L496 374L493 371L493 362L498 357L499 350L500 351L504 346L499 342L494 346L489 345L487 343L488 342L486 337L481 339L472 339L466 335L465 331L459 324L457 326L457 332L458 336L462 340L453 342L455 344L455 350L457 350L456 352L454 354L453 353L449 360L444 364L442 363L437 368z"/><path class="leaflet-interactive" stroke="#333" stroke-opacity="1" stroke-width="1" stroke-linecap="round" stroke-linejoin="round" stroke-dasharray="1,6" fill="#eee" fill-opacity="0.5" fill-rule="evenodd" d="M495 415L497 407L499 408L502 405L501 402L506 406L506 402L507 403L512 398L512 400L518 405L518 408L521 411L523 411L520 414L526 416L528 418L527 419L539 419L541 422L544 423L555 423L555 421L556 422L558 420L560 422L561 421L561 423L562 422L562 424L566 426L572 420L571 417L574 415L575 411L573 407L567 403L565 399L565 390L562 387L563 386L559 376L552 369L552 367L558 364L562 358L562 352L558 348L559 347L555 345L553 342L555 342L552 337L549 336L544 341L545 342L542 344L542 346L538 348L538 350L536 350L536 352L533 352L529 348L524 350L526 345L524 336L521 338L511 337L506 340L505 346L503 346L501 350L498 351L498 358L496 358L493 361L493 370L496 374L492 375L484 385L475 390L480 394L479 396L481 396L484 399L482 406L484 408L489 408L487 413L488 417L492 417L493 415z"/><path class="leaflet-interactive" stroke="#333" stroke-opacity="1" stroke-width="1" stroke-linecap="round" stroke-linejoin="round" stroke-dasharray="1,6" fill="#eee" fill-opacity="0.5" fill-rule="evenodd" d="M339 230L339 239L344 244L346 249L350 252L348 257L349 258L362 258L364 256L370 263L382 261L386 263L392 263L402 255L407 255L412 252L411 251L413 249L406 249L407 240L404 236L408 234L405 233L404 226L409 221L416 220L415 218L424 214L425 212L429 214L434 211L436 212L438 210L434 209L435 208L440 206L443 207L444 205L446 207L451 206L454 203L456 203L460 207L459 208L461 208L461 210L463 209L467 214L470 213L472 212L472 206L474 206L474 204L476 203L476 205L478 205L476 201L478 199L478 192L473 188L469 188L469 186L465 186L461 183L460 180L458 180L456 177L456 167L452 165L451 167L444 167L441 173L439 173L438 171L438 173L431 172L429 174L427 174L428 172L425 167L421 166L421 164L419 166L419 170L415 170L413 168L412 170L410 169L407 171L405 169L404 172L401 171L400 169L395 169L382 178L382 184L378 184L373 187L367 195L360 201L355 201L356 203L352 208L357 218L350 220L339 229z"/><path class="leaflet-interactive" stroke="#333" stroke-opacity="1" stroke-width="1" stroke-linecap="round" stroke-linejoin="round" stroke-dasharray="1,6" fill="#eee" fill-opacity="0.5" fill-rule="evenodd" d="M395 169L394 163L390 163L391 161L388 158L385 158L385 154L383 154L383 152L378 149L381 147L380 144L382 144L382 142L377 138L377 136L379 135L378 133L380 133L378 127L379 124L376 120L377 116L376 115L374 117L374 115L372 114L367 117L360 117L359 119L357 117L350 119L344 116L339 119L338 125L335 127L323 129L325 142L322 144L323 149L321 153L318 153L318 151L313 146L311 148L308 139L304 139L304 143L300 147L296 143L291 141L288 135L287 136L284 135L284 133L281 134L279 132L277 134L279 136L277 146L271 150L273 153L276 154L285 152L288 158L286 162L288 165L287 166L295 170L296 172L294 175L294 180L298 181L298 185L294 187L292 190L293 194L291 198L291 204L289 205L292 212L295 213L292 214L292 216L295 216L292 220L294 225L293 226L295 226L298 229L297 231L300 232L301 243L299 246L302 248L309 248L317 245L322 239L334 231L338 230L346 222L356 218L357 216L352 208L356 203L355 202L359 201L366 196L375 185L382 184L382 178L394 170z"/><path class="leaflet-interactive" stroke="#333" stroke-opacity="1" stroke-width="1" stroke-linecap="round" stroke-linejoin="round" stroke-dasharray="1,6" fill="#eee" fill-opacity="0.5" fill-rule="evenodd" d="M563 386L574 385L588 387L588 385L591 386L594 384L602 386L604 385L605 381L607 381L610 377L611 378L616 374L614 372L617 368L615 368L618 367L616 365L618 363L619 364L620 361L622 361L622 359L624 361L624 359L627 360L631 365L634 360L633 359L638 361L640 358L640 351L642 349L640 349L640 347L642 347L641 341L643 339L645 328L648 327L646 326L647 325L653 327L656 326L658 327L656 330L657 331L664 332L662 342L669 350L672 350L671 353L673 352L673 348L675 348L678 360L681 361L677 356L677 353L680 352L680 348L676 344L673 345L670 342L676 339L677 337L681 335L687 335L688 333L699 334L698 331L702 331L704 329L704 327L702 327L702 321L704 321L704 319L707 316L706 311L709 308L711 295L710 294L710 296L706 298L705 297L703 299L698 293L692 298L685 290L680 289L679 286L678 287L673 284L670 284L669 281L671 279L668 273L669 268L667 265L667 259L655 273L652 271L652 264L650 261L647 261L646 263L645 262L642 265L642 269L636 271L627 270L623 275L619 274L616 276L617 286L614 290L609 291L607 293L604 291L600 292L596 280L594 278L595 276L593 274L593 269L589 269L590 266L587 264L587 260L582 253L582 238L580 232L577 230L575 231L570 235L568 241L564 239L563 240L565 244L563 246L565 248L565 251L563 252L565 254L561 257L555 258L551 262L550 266L554 270L552 274L557 281L556 286L554 286L549 294L548 293L547 302L544 304L543 307L545 308L538 317L538 321L536 323L544 330L552 334L554 337L553 340L555 342L553 342L559 347L558 348L562 352L561 361L558 364L556 364L555 367L552 368L559 377L562 385z"/></g></svg>