<svg xmlns="http://www.w3.org/2000/svg" pointer-events="none" class="leaflet-zoom-animated" width="1060" height="563" viewBox="-88 -47 1060 563" style="transform: translate3d(-88px, -47px, 0px);"><g><path class="leaflet-interactive" stroke="black" stroke-opacity="1" stroke-width="2" stroke-linecap="round" stroke-linejoin="round" fill="#fff" fill-opacity="0.2" fill-rule="evenodd" d="M456 438L465 438L467 435L479 428L482 430L480 432L484 433L486 430L488 430L489 428L491 429L493 427L493 424L495 422L493 416L494 415L489 404L491 400L489 394L491 390L497 390L500 384L502 384L502 382L509 376L511 370L509 369L509 367L507 367L512 360L518 360L521 357L518 349L521 344L522 346L529 346L534 344L536 346L539 345L539 347L538 346L535 349L533 349L534 356L538 356L540 360L538 361L540 363L535 367L542 373L543 372L543 374L554 372L557 366L560 365L564 367L564 369L566 368L566 374L568 375L566 376L567 379L570 377L574 377L580 380L601 375L598 365L595 362L587 364L586 359L583 356L581 358L579 357L577 352L580 349L580 347L586 347L589 341L598 349L602 351L602 349L598 337L596 335L591 335L591 333L587 335L584 334L582 332L582 327L580 325L581 321L574 322L571 320L571 316L568 315L568 310L571 307L573 307L573 305L576 305L576 301L577 302L581 300L580 298L582 294L576 290L577 289L575 289L578 288L579 285L581 285L582 280L584 278L594 284L595 283L596 286L599 288L600 286L608 283L610 285L610 288L612 289L612 292L615 294L625 292L628 289L635 275L636 276L636 274L639 271L636 268L636 266L639 263L642 264L644 262L646 262L648 265L651 264L654 261L652 260L652 258L656 256L654 253L657 250L655 249L660 245L660 239L665 239L665 237L671 232L670 228L665 225L663 221L666 220L665 217L669 217L666 213L671 212L671 210L669 209L665 211L662 209L660 211L656 211L654 214L650 212L643 204L638 205L635 199L631 202L631 204L629 204L625 200L625 195L622 192L613 192L603 196L601 194L595 193L592 190L593 189L589 187L585 188L583 191L582 190L578 193L576 192L575 187L572 184L570 186L572 191L567 195L565 194L562 197L560 195L555 197L552 194L546 194L534 186L539 181L536 180L538 177L535 170L539 169L536 169L531 163L531 159L529 156L519 156L514 154L511 155L510 150L507 153L498 150L499 147L497 145L497 141L499 140L495 135L492 135L493 134L491 131L482 135L482 137L480 137L482 138L482 140L476 140L474 144L466 144L470 150L469 151L472 152L470 154L472 153L471 156L476 160L476 164L474 166L470 166L467 169L467 173L465 171L463 174L459 174L457 178L455 177L456 173L454 173L454 171L457 170L459 164L456 158L456 160L454 160L454 163L450 167L452 173L449 178L445 173L441 174L441 176L438 171L433 173L435 180L433 184L437 188L435 194L432 194L427 197L419 194L420 195L418 199L416 199L410 192L409 193L410 192L405 191L403 197L400 195L401 188L393 180L392 184L391 183L389 185L390 186L388 191L384 190L377 185L374 186L370 180L361 177L358 173L359 172L357 170L358 168L356 166L356 162L352 158L354 157L345 148L346 142L343 139L339 140L331 135L326 135L325 137L322 138L323 141L321 145L313 147L312 150L314 152L313 157L317 159L318 163L324 166L320 169L319 173L316 176L318 180L311 185L314 192L318 196L320 196L320 198L324 200L325 199L339 206L339 211L346 219L345 224L347 228L350 231L350 233L361 243L357 248L353 245L352 250L358 258L357 261L363 266L362 274L364 280L364 289L367 297L364 306L367 314L366 315L369 332L368 340L371 350L370 353L378 363L377 357L379 354L377 350L381 346L382 342L384 342L384 340L388 337L389 343L396 348L396 351L399 353L398 355L400 355L402 357L401 358L403 359L397 363L403 371L402 372L407 374L407 378L411 373L415 375L417 371L419 371L419 376L422 378L422 380L424 380L423 382L426 388L428 389L430 396L434 398L433 404L442 410L440 413L442 415L444 412L445 413L442 421L449 426L449 432L451 432L455 437zM598 287L598 287zM621 292L621 292zM576 288L576 288z"/><path class="leaflet-interactive" stroke="#333" stroke-opacity="1" stroke-width="1" stroke-linecap="round" stroke-linejoin="round" stroke-dasharray="1,6" fill="#eee" fill-opacity="0.5" fill-rule="evenodd" d="M524 283L528 286L530 286L532 283L533 286L540 291L541 288L548 285L549 283L553 283L552 281L554 281L554 274L548 264L542 262L542 260L540 259L537 261L530 261L531 259L526 254L522 246L522 242L519 241L512 245L510 258L503 265L500 263L493 266L497 270L497 273L499 274L495 284L496 287L500 287L502 285L504 286L506 291L508 291L514 286L516 286L515 285L518 282L522 283L524 281L523 282zM529 256L529 256zM508 290L508 290zM533 284L533 284z"/><path class="leaflet-interactive" stroke="#333" stroke-opacity="1" stroke-width="1" stroke-linecap="round" stroke-linejoin="round" stroke-dasharray="1,6" fill="#eee" fill-opacity="0.5" fill-rule="evenodd" d="M531 325L534 324L533 322L540 323L539 324L542 326L548 324L547 326L549 328L549 332L553 332L555 330L560 334L566 334L566 331L564 331L566 325L559 318L559 314L559 316L551 315L549 316L549 318L547 318L545 315L543 315L541 310L539 309L536 311L534 308L531 308L531 312L527 316L531 318L528 319L530 320L530 325zM530 314L530 314zM531 313L531 313z"/><path class="leaflet-interactive" stroke="#333" stroke-opacity="1" stroke-width="1" stroke-linecap="round" stroke-linejoin="round" stroke-dasharray="1,6" fill="#eee" fill-opacity="0.5" fill-rule="evenodd" d="M456 438L459 431L459 426L461 424L462 425L463 423L460 415L461 414L459 418L454 411L452 411L451 408L454 405L455 401L451 399L450 394L448 392L445 396L442 397L442 399L435 398L433 404L442 410L440 413L442 415L444 412L445 413L442 421L449 426L449 432L451 432L455 437zM467 411L466 410L468 410L469 405L468 400L466 398L463 402L461 400L459 401L457 395L457 399L453 406L451 407L452 411L454 411L457 415L460 414L461 416L463 414L465 418L467 412zM468 410L466 410L468 410z"/><path class="leaflet-interactive" stroke="#333" stroke-opacity="1" stroke-width="1" stroke-linecap="round" stroke-linejoin="round" stroke-dasharray="1,6" fill="#eee" fill-opacity="0.5" fill-rule="evenodd" d="M571 320L568 322L564 329L566 333L563 334L565 338L565 342L563 345L565 349L564 352L568 353L569 358L569 363L567 363L563 368L566 368L567 370L567 379L570 377L574 377L580 380L601 375L598 365L595 362L587 364L586 359L583 356L581 358L579 357L577 352L580 349L580 347L586 347L589 341L602 351L598 337L596 335L591 335L591 333L587 335L584 334L582 332L582 327L580 325L581 321L574 322L573 320zM565 365L565 365zM570 321L570 321zM565 352L565 352z"/><path class="leaflet-interactive" stroke="#333" stroke-opacity="1" stroke-width="1" stroke-linecap="round" stroke-linejoin="round" stroke-dasharray="1,6" fill="#eee" fill-opacity="0.5" fill-rule="evenodd" d="M563 268L558 266L556 262L557 261L552 258L552 255L550 254L551 253L548 249L550 247L548 247L542 241L537 243L532 238L530 238L531 236L528 231L523 234L523 237L521 237L519 240L523 244L523 249L526 251L526 254L531 258L530 260L542 260L542 262L548 264L553 271L552 272L553 273L555 271L557 275L560 275L563 269zM554 260L554 260zM554 260L554 260zM555 260L555 260zM550 252L550 252z"/><path class="leaflet-interactive" stroke="#333" stroke-opacity="1" stroke-width="1" stroke-linecap="round" stroke-linejoin="round" stroke-dasharray="1,6" fill="#eee" fill-opacity="0.5" fill-rule="evenodd" d="M572 238L570 234L568 234L569 232L566 231L568 229L564 226L565 224L563 220L565 220L567 216L565 212L566 209L561 208L557 210L556 207L550 204L550 200L545 196L546 194L544 192L540 191L526 180L524 186L526 189L528 187L531 194L531 199L530 202L530 199L527 195L523 195L520 197L523 203L522 206L526 210L530 211L531 208L534 212L531 212L530 215L521 214L519 216L520 217L518 222L523 222L525 225L530 226L530 237L537 243L541 243L542 241L544 242L544 244L547 245L547 247L549 247L549 251L551 253L550 254L554 260L555 259L558 265L561 267L565 267L566 264L563 259L565 253L569 253L569 251L571 255L573 255L576 258L581 256L581 252L577 246L578 242L575 243L573 241L574 240L572 240L573 239z"/><path class="leaflet-interactive" stroke="#333" stroke-opacity="1" stroke-width="1" stroke-linecap="round" stroke-linejoin="round" stroke-dasharray="1,6" fill="#fff" fill-opacity="0" fill-rule="evenodd" d="M572 238L575 236L578 237L581 230L586 234L588 233L587 232L591 232L594 229L594 226L596 226L596 228L598 228L601 225L602 227L603 226L605 222L604 221L607 218L606 217L608 217L608 211L615 208L612 206L611 196L609 193L603 196L601 194L595 193L591 187L585 188L583 191L582 190L578 193L576 192L575 187L572 184L570 186L572 191L567 195L565 194L562 197L560 195L555 197L552 194L546 194L545 196L550 200L550 204L552 206L557 207L558 210L560 208L566 209L565 212L567 216L566 220L564 220L564 226L568 229L566 231L568 230L568 234L570 234L571 236zM603 223L604 223z"/><path class="leaflet-interactive" stroke="#333" stroke-opacity="1" stroke-width="1" stroke-linecap="round" stroke-linejoin="round" stroke-dasharray="1,6" fill="#eee" fill-opacity="0.5" fill-rule="evenodd" d="M560 275L560 279L563 283L571 284L577 288L579 287L579 285L581 285L582 280L584 278L590 281L588 276L586 278L586 276L585 277L586 274L584 272L583 264L569 251L569 253L563 256L566 267L563 268L560 275zM561 280L561 280zM560 278L560 278zM564 283L564 283z"/><path class="leaflet-interactive" stroke="#333" stroke-opacity="1" stroke-width="1" stroke-linecap="round" stroke-linejoin="round" stroke-dasharray="1,6" fill="#eee" fill-opacity="0.5" fill-rule="evenodd" d="M541 293L541 302L534 308L536 310L541 309L543 315L545 315L547 318L549 318L550 315L552 316L554 314L555 316L559 316L559 314L559 318L566 325L572 318L570 315L568 315L567 312L571 307L571 303L569 301L562 301L560 299L561 298L557 295L552 300L548 296L548 298L541 294zM570 321L570 321zM569 321L569 321zM570 321L570 321zM555 298L555 298z"/><path class="leaflet-interactive" stroke="#333" stroke-opacity="1" stroke-width="1" stroke-linecap="round" stroke-linejoin="round" stroke-dasharray="1,6" fill="#eee" fill-opacity="0.5" fill-rule="evenodd" d="M531 325L529 322L530 321L528 320L531 318L527 316L531 312L531 308L534 309L527 303L528 302L526 300L524 300L518 306L515 304L517 300L514 297L511 300L510 299L509 302L508 301L507 303L503 303L503 307L505 306L502 313L499 316L495 315L492 317L494 321L494 323L492 323L492 329L490 331L492 335L492 343L495 344L498 338L501 339L504 342L501 349L503 349L505 353L511 346L513 347L517 343L516 341L520 337L523 340L525 339L528 335L527 333L529 334L532 326L531 325zM530 317L530 317z"/><path class="leaflet-interactive" stroke="#333" stroke-opacity="1" stroke-width="1" stroke-linecap="round" stroke-linejoin="round" stroke-dasharray="1,6" fill="#eee" fill-opacity="0.5" fill-rule="evenodd" d="M621 248L617 238L614 237L615 236L611 236L610 238L608 238L602 231L603 228L601 226L598 228L594 226L594 229L591 232L587 232L587 234L585 234L585 232L582 230L578 237L575 236L572 238L572 240L573 239L575 243L578 242L577 247L581 252L581 256L577 258L583 264L586 278L588 276L591 277L591 275L592 276L595 272L596 273L595 271L597 270L597 268L602 269L606 265L607 267L609 267L612 263L611 261L613 261L613 259L616 258L621 249zM587 276L588 276zM574 237L574 237z"/><path class="leaflet-interactive" stroke="#333" stroke-opacity="1" stroke-width="1" stroke-linecap="round" stroke-linejoin="round" stroke-dasharray="1,6" fill="#eee" fill-opacity="0.5" fill-rule="evenodd" d="M492 317L494 315L498 316L499 314L502 314L502 310L505 307L503 307L503 303L507 303L507 301L509 302L510 299L511 300L514 297L517 300L515 304L516 305L520 305L523 303L524 300L526 300L528 302L527 303L534 308L535 306L537 306L536 305L539 305L542 302L542 299L540 297L541 293L536 287L533 286L532 283L529 286L525 285L523 282L524 281L522 283L519 282L515 285L516 286L510 288L511 289L509 291L508 290L501 293L501 296L499 296L500 297L496 299L499 305L497 307L495 307L494 305L491 306L491 311L489 312L488 315L491 317zM510 300L510 301zM524 283L524 283zM541 300L541 300z"/><path class="leaflet-interactive" stroke="#333" stroke-opacity="1" stroke-width="1" stroke-linecap="round" stroke-linejoin="round" stroke-dasharray="1,6" fill="#eee" fill-opacity="0.5" fill-rule="evenodd" d="M518 349L521 344L522 346L529 346L534 344L536 346L539 345L539 347L538 346L535 349L533 349L534 356L538 356L540 360L538 361L540 363L535 367L542 373L543 372L543 374L554 372L557 366L564 366L567 363L569 363L568 353L565 352L563 346L565 341L563 335L555 330L553 332L549 332L547 326L548 325L546 324L542 326L539 323L533 322L534 323L532 323L529 334L528 333L528 335L526 336L527 337L524 340L520 337L516 341L517 342L513 347L514 346L517 351L518 349z"/><path class="leaflet-interactive" stroke="#333" stroke-opacity="1" stroke-width="1" stroke-linecap="round" stroke-linejoin="round" stroke-dasharray="1,6" fill="#eee" fill-opacity="0.5" fill-rule="evenodd" d="M621 292L625 292L631 283L628 278L629 275L625 276L626 277L622 275L621 276L623 272L620 271L618 269L620 269L612 263L609 267L606 266L602 269L598 268L593 276L591 275L591 277L588 278L594 284L595 283L596 286L599 288L600 286L608 283L613 293L619 294L621 292zM629 281L629 281zM630 283L631 282L630 283zM630 282L630 282zM598 287L598 287zM621 292L621 292zM630 283L630 283zM623 276L623 276z"/><path class="leaflet-interactive" stroke="#333" stroke-opacity="1" stroke-width="1" stroke-linecap="round" stroke-linejoin="round" stroke-dasharray="1,6" fill="#eee" fill-opacity="0.5" fill-rule="evenodd" d="M632 282L635 275L636 276L636 274L639 271L636 268L636 266L639 263L642 264L644 262L646 262L648 265L651 264L654 261L652 260L652 258L656 256L654 253L657 250L655 249L660 245L660 239L665 239L665 237L671 232L670 228L665 225L663 221L666 220L665 217L669 217L666 213L671 212L671 210L669 209L665 211L662 209L660 211L656 211L654 214L650 212L646 207L642 214L644 214L647 217L645 219L642 219L640 224L638 225L640 226L638 234L630 241L628 241L626 245L624 243L620 252L615 258L613 258L613 261L611 261L612 264L620 268L620 271L623 272L623 274L621 275L625 277L627 277L625 276L626 275L629 275L627 278L630 283L631 281zM629 279L629 279zM630 283L630 283zM631 281L631 281zM631 282L631 282zM630 282L630 282z"/><path class="leaflet-interactive" stroke="#333" stroke-opacity="1" stroke-width="1" stroke-linecap="round" stroke-linejoin="round" stroke-dasharray="1,6" fill="#eee" fill-opacity="0.5" fill-rule="evenodd" d="M506 291L505 286L503 285L500 287L496 287L495 284L499 276L498 270L495 268L494 269L492 266L489 265L489 260L480 263L476 266L477 269L475 272L475 282L470 292L470 300L472 301L470 309L471 311L468 315L466 312L461 314L459 313L461 316L459 319L465 323L463 325L465 325L469 335L475 337L477 335L476 333L478 328L481 324L485 326L486 323L489 324L491 321L493 321L492 317L488 315L489 312L491 311L492 305L498 307L499 303L496 299L500 297L499 296L501 296L501 293L505 291z"/><path class="leaflet-interactive" stroke="#333" stroke-opacity="1" stroke-width="1" stroke-linecap="round" stroke-linejoin="round" stroke-dasharray="1,6" fill="#fff" fill-opacity="0" fill-rule="evenodd" d="M621 248L624 245L624 243L625 245L627 244L628 241L636 235L638 235L638 231L640 228L640 226L638 225L639 222L641 221L640 220L647 217L644 214L642 214L642 212L645 209L643 204L638 205L635 199L631 202L631 204L629 204L625 200L625 195L622 192L613 192L610 194L612 206L614 208L609 211L607 216L608 217L606 217L607 218L603 223L602 231L609 238L611 237L611 235L615 236L614 237L617 238L620 247L621 246L620 248zM620 247L620 247z"/><path class="leaflet-interactive" stroke="#333" stroke-opacity="1" stroke-width="1" stroke-linecap="round" stroke-linejoin="round" stroke-dasharray="1,6" fill="#eee" fill-opacity="0.5" fill-rule="evenodd" d="M554 298L556 295L562 301L569 301L572 307L573 305L576 305L576 301L577 302L581 300L580 298L582 294L576 290L577 289L575 289L576 288L571 284L563 283L560 279L560 275L556 274L557 273L555 271L553 273L554 281L552 281L552 284L546 284L545 287L540 289L540 293L544 297L548 297L552 300L551 299L552 300L554 298zM561 280L561 280zM541 289L541 289zM561 280L561 280zM576 288L575 288zM560 279L560 279z"/><path class="leaflet-interactive" stroke="#333" stroke-opacity="1" stroke-width="1" stroke-linecap="round" stroke-linejoin="round" stroke-dasharray="1,6" fill="#fff" fill-opacity="0" fill-rule="evenodd" d="M418 200L414 207L424 221L429 220L429 225L427 225L424 228L425 230L427 229L428 232L431 234L431 239L432 240L436 237L437 242L439 244L442 241L444 242L443 246L443 244L449 243L452 246L454 246L453 247L457 247L458 252L459 251L462 254L466 252L467 253L466 258L468 261L464 262L462 266L462 268L467 273L467 271L469 272L472 268L475 269L478 264L483 263L484 261L487 260L490 261L490 266L496 264L497 265L499 263L502 263L503 265L510 258L513 244L519 241L520 238L523 237L523 233L527 231L528 232L531 228L525 225L523 222L518 222L520 217L519 216L521 214L529 215L533 212L531 208L531 210L528 211L522 207L523 203L520 197L522 195L527 195L530 199L529 202L531 200L529 187L526 189L524 185L525 180L531 183L533 186L537 184L539 181L536 180L538 177L535 170L539 169L536 169L531 163L531 159L527 155L511 155L510 150L507 153L498 150L499 147L497 145L497 141L499 140L495 135L492 135L493 134L491 131L489 131L482 135L482 137L480 137L482 138L482 140L476 140L474 144L466 144L470 150L469 151L472 152L470 154L472 153L471 156L476 160L476 164L474 166L470 166L467 169L467 173L465 171L463 174L459 174L457 178L455 177L456 173L454 173L454 171L457 170L459 164L456 158L456 160L454 160L454 163L450 167L452 173L449 178L445 173L441 174L441 176L438 171L433 173L435 180L433 184L437 188L435 194L432 194L427 197L419 194L420 195L418 199z"/><path class="leaflet-interactive" stroke="#333" stroke-opacity="1" stroke-width="1" stroke-linecap="round" stroke-linejoin="round" stroke-dasharray="1,6" fill="#eee" fill-opacity="0.5" fill-rule="evenodd" d="M399 365L405 370L406 368L410 368L409 357L414 347L412 342L416 341L414 334L418 331L423 332L424 331L422 330L425 326L427 329L431 326L433 328L435 335L434 340L436 343L435 345L445 345L449 349L448 351L442 349L441 351L443 350L444 357L448 355L450 356L453 350L462 342L460 338L461 335L463 335L463 333L467 329L464 325L464 322L459 319L461 316L459 313L466 313L467 315L471 312L470 310L472 301L470 301L470 292L474 286L475 273L477 267L476 266L476 269L472 268L467 273L462 268L463 262L467 261L466 252L462 255L462 252L457 251L457 247L452 247L449 243L447 245L446 243L443 246L443 241L439 244L437 242L436 237L432 240L431 239L431 235L428 232L428 230L424 229L429 225L429 220L423 220L419 215L420 214L418 211L415 210L416 209L414 205L418 200L410 192L409 193L410 192L405 191L403 197L401 196L401 188L393 180L392 184L391 183L389 185L390 186L388 191L384 190L377 185L374 186L370 180L359 175L356 162L352 158L354 157L345 148L346 142L343 139L339 140L331 135L326 135L325 137L322 138L323 141L321 145L313 147L312 150L314 152L313 157L317 159L318 163L324 166L320 169L319 173L316 176L318 180L311 185L314 192L318 196L320 196L320 198L324 200L325 199L339 206L339 211L346 219L345 224L347 228L350 231L350 233L361 243L357 248L353 245L352 250L358 258L357 261L363 266L362 274L364 280L364 289L367 297L364 306L367 314L366 315L369 332L368 340L371 350L370 353L378 363L377 357L379 354L377 350L381 346L382 342L384 342L384 340L388 337L389 343L396 348L396 351L399 353L398 355L400 355L402 357L401 358L403 359L398 362L398 364z"/><path class="leaflet-interactive" stroke="#333" stroke-opacity="1" stroke-width="1" stroke-linecap="round" stroke-linejoin="round" stroke-dasharray="1,6" fill="#eee" fill-opacity="0.5" fill-rule="evenodd" d="M513 347L510 346L510 348L507 349L506 353L503 351L503 349L501 349L504 342L502 339L499 338L494 344L492 343L492 335L490 331L492 329L492 323L494 323L494 321L492 321L490 322L490 324L487 323L485 326L481 324L476 332L477 334L475 337L471 336L466 330L463 333L463 335L461 335L460 338L462 342L453 349L453 352L450 356L449 355L445 357L443 351L441 352L442 349L447 351L449 350L448 348L445 345L435 345L435 334L432 326L429 327L427 330L425 326L422 329L424 330L423 332L419 331L415 334L414 333L416 341L412 343L414 344L414 347L409 357L410 368L406 368L405 370L399 365L403 371L402 372L407 374L407 378L411 373L415 375L417 371L419 371L419 376L422 378L422 380L424 380L423 382L432 398L433 397L442 399L442 397L449 392L452 400L455 401L457 399L457 395L459 401L460 400L462 402L466 398L469 401L467 415L465 418L463 414L461 416L463 423L459 425L458 434L456 435L457 439L458 437L465 438L467 435L479 428L482 430L480 432L484 433L486 430L488 430L489 428L491 429L493 427L493 424L495 422L493 416L494 415L489 404L491 400L489 394L491 390L497 390L500 384L502 384L502 382L509 376L511 370L509 369L509 367L507 367L510 362L514 359L518 360L521 357L519 350L515 350L516 349L514 346zM458 415L459 418L459 415z"/></g></svg>