<svg xmlns="http://www.w3.org/2000/svg" pointer-events="none" class="leaflet-zoom-animated" width="1060" height="563" viewBox="-88 -47 1060 563" style="transform: translate3d(-88px, -47px, 0px) scale(1);"><g><path class="leaflet-interactive" stroke="black" stroke-opacity="1" stroke-width="2" stroke-linecap="round" stroke-linejoin="round" fill="#fff" fill-opacity="0.2" fill-rule="evenodd" d="M545 291L546 294L551 293L551 291L552 292L550 297L551 298L556 297L556 299L558 300L566 300L567 303L569 303L569 305L573 304L575 309L578 310L578 313L575 314L574 316L567 318L565 324L553 332L549 340L551 359L557 361L552 371L552 374L550 376L541 374L538 378L524 381L524 387L526 389L535 391L537 393L536 404L526 409L524 411L524 414L509 418L507 416L503 416L497 418L492 423L489 424L489 422L487 422L482 426L479 423L479 425L475 426L472 422L475 421L472 422L475 417L472 415L472 413L470 414L470 411L467 415L461 416L459 419L454 421L454 419L450 417L450 413L448 411L450 405L448 405L446 403L447 402L443 402L443 404L440 403L425 405L424 395L415 394L413 396L414 395L412 395L409 392L409 377L406 377L406 370L404 370L404 364L410 350L409 346L410 344L412 345L414 343L413 344L425 343L425 341L427 338L428 339L431 333L430 328L424 326L423 318L425 314L427 314L424 303L426 302L427 297L425 293L422 296L419 296L420 292L418 292L421 289L420 284L422 284L424 281L425 282L425 280L420 280L418 277L416 279L415 278L414 275L418 272L417 269L419 267L419 265L416 265L414 261L414 259L417 257L415 254L417 251L416 252L418 252L417 250L420 249L419 247L422 244L422 241L429 240L429 238L433 235L435 235L434 241L436 242L438 247L443 244L449 245L458 250L457 249L459 250L462 247L464 247L462 243L463 233L461 231L462 228L468 225L463 219L462 220L461 216L466 215L467 213L474 214L473 209L470 210L464 207L463 208L464 207L462 207L462 204L460 203L462 201L460 201L460 195L467 187L465 175L470 174L468 170L470 170L473 166L477 168L478 165L480 166L482 162L487 162L486 161L488 159L486 157L490 157L494 154L491 154L490 150L492 148L491 147L493 147L495 144L498 143L506 147L514 147L515 156L519 157L525 164L524 170L527 169L528 172L530 172L530 170L536 173L539 172L538 173L541 176L540 178L538 178L537 183L539 184L539 182L542 182L544 184L542 191L539 192L533 188L521 191L521 189L517 186L510 186L512 189L510 194L508 194L507 196L509 198L506 199L506 202L507 204L508 203L510 211L512 211L512 213L510 213L514 219L512 222L513 224L511 226L518 228L516 232L521 236L525 236L524 238L527 242L527 246L525 246L524 251L523 250L521 254L523 252L526 255L526 257L529 254L532 257L532 259L530 258L534 264L537 261L536 257L538 257L540 253L545 252L551 255L553 253L562 257L558 263L559 266L557 268L557 273L556 275L554 275L554 284L550 285L552 286L553 290L547 290zM540 286L536 284L531 285L532 288L528 288L527 284L523 286L520 285L520 283L515 285L513 289L510 290L509 295L523 295L523 297L527 300L528 293L537 294L542 290L542 287z"/><path class="leaflet-interactive" stroke="#333" stroke-opacity="1" stroke-width="1" stroke-linecap="round" stroke-linejoin="round" stroke-dasharray="1,6" fill="#eee" fill-opacity="0.5" fill-rule="evenodd" d="M470 333L468 330L464 332L464 336L469 334z"/><path class="leaflet-interactive" stroke="#333" stroke-opacity="1" stroke-width="1" stroke-linecap="round" stroke-linejoin="round" stroke-dasharray="1,6" fill="#eee" fill-opacity="0.5" fill-rule="evenodd" d="M475 326L473 326L473 328L470 329L469 327L467 329L475 339L480 338L481 336L477 335L477 328L479 328L479 326L477 326z"/><path class="leaflet-interactive" stroke="#333" stroke-opacity="1" stroke-width="1" stroke-linecap="round" stroke-linejoin="round" stroke-dasharray="1,6" fill="#eee" fill-opacity="0.5" fill-rule="evenodd" d="M476 346L479 340L473 338L470 333L467 336L464 336L465 340L468 341L469 343L469 347L474 346z"/><path class="leaflet-interactive" stroke="#333" stroke-opacity="1" stroke-width="1" stroke-linecap="round" stroke-linejoin="round" stroke-dasharray="1,6" fill="#eee" fill-opacity="0.5" fill-rule="evenodd" d="M466 341L464 338L464 332L466 328L460 329L458 327L456 330L459 336L457 339L463 342z"/><path class="leaflet-interactive" stroke="#333" stroke-opacity="1" stroke-width="1" stroke-linecap="round" stroke-linejoin="round" stroke-dasharray="1,6" fill="#eee" fill-opacity="0.5" fill-rule="evenodd" d="M471 321L463 322L467 331L469 327L470 329L473 328L473 326L475 326L475 324L472 324L473 323z"/><path class="leaflet-interactive" stroke="#333" stroke-opacity="1" stroke-width="1" stroke-linecap="round" stroke-linejoin="round" stroke-dasharray="1,6" fill="#eee" fill-opacity="0.5" fill-rule="evenodd" d="M466 328L464 326L464 322L460 321L458 323L460 329L466 328zM458 321L459 320L457 320z"/><path class="leaflet-interactive" stroke="#333" stroke-opacity="1" stroke-width="1" stroke-linecap="round" stroke-linejoin="round" stroke-dasharray="1,6" fill="#eee" fill-opacity="0.5" fill-rule="evenodd" d="M476 339L484 341L486 344L491 344L491 346L494 349L498 349L501 347L502 350L506 351L507 353L509 352L508 346L510 343L513 343L514 340L512 339L513 336L506 335L507 328L508 327L511 329L515 323L510 322L507 319L506 320L506 318L503 318L504 316L502 314L483 314L479 311L478 312L480 316L476 317L471 321L473 323L472 324L479 326L479 328L477 328L478 331L476 331L477 335L481 336L481 338L476 338z"/><path class="leaflet-interactive" stroke="#333" stroke-opacity="1" stroke-width="1" stroke-linecap="round" stroke-linejoin="round" stroke-dasharray="1,6" fill="#eee" fill-opacity="0.5" fill-rule="evenodd" d="M458 327L458 324L455 323L452 324L451 326L450 325L445 327L445 324L443 328L442 324L438 325L436 323L436 325L435 324L434 326L432 326L432 333L428 339L427 338L426 341L428 341L427 343L434 343L437 346L446 349L446 353L449 353L457 357L466 370L473 377L482 380L483 382L485 381L485 374L476 366L476 362L473 360L476 359L476 356L478 357L479 352L478 353L477 350L474 349L476 346L469 347L468 341L463 342L458 339L459 337L455 330L458 328z"/><path class="leaflet-interactive" stroke="#333" stroke-opacity="1" stroke-width="1" stroke-linecap="round" stroke-linejoin="round" stroke-dasharray="1,6" fill="#eee" fill-opacity="0.5" fill-rule="evenodd" d="M476 346L475 349L477 350L478 353L479 352L479 354L478 358L476 356L477 357L475 360L473 360L476 362L475 364L481 371L484 372L486 377L485 378L494 371L498 376L499 372L506 368L505 362L508 360L511 362L513 354L511 352L507 353L505 350L502 349L502 347L499 349L495 349L491 346L491 344L487 344L482 340L479 340L476 346z"/><path class="leaflet-interactive" stroke="#333" stroke-opacity="1" stroke-width="1" stroke-linecap="round" stroke-linejoin="round" stroke-dasharray="1,6" fill="#eee" fill-opacity="0.5" fill-rule="evenodd" d="M435 325L433 323L434 321L436 321L438 317L437 314L439 314L445 309L443 305L448 304L448 306L450 306L453 303L452 301L459 302L462 300L461 299L463 299L463 297L464 298L466 295L470 293L479 295L479 297L484 299L484 301L487 302L488 305L489 304L494 307L492 311L493 312L491 314L483 314L479 311L478 312L480 316L476 317L470 322L460 321L457 324L455 323L452 324L451 326L450 325L445 327L445 324L443 328L442 324L435 324zM458 321L459 320L457 320z"/><path class="leaflet-interactive" stroke="#333" stroke-opacity="1" stroke-width="1" stroke-linecap="round" stroke-linejoin="round" stroke-dasharray="1,6" fill="#eee" fill-opacity="0.5" fill-rule="evenodd" d="M483 298L484 294L480 291L482 288L481 286L485 286L483 279L480 276L480 272L475 269L476 268L474 265L477 265L474 262L473 263L471 259L459 249L457 249L458 250L449 245L443 244L438 247L438 245L434 241L435 236L433 235L431 235L429 240L423 241L419 247L420 249L417 250L418 252L417 253L417 251L417 253L415 254L417 257L414 259L414 261L416 265L419 265L419 267L417 268L418 272L414 275L416 279L418 277L419 280L423 279L425 282L424 281L421 284L421 289L418 292L420 292L419 296L425 293L427 297L426 302L424 302L426 310L425 313L427 314L425 317L423 317L425 327L430 328L432 333L431 328L433 328L433 323L434 321L436 321L438 317L437 314L439 314L445 309L443 305L448 304L448 306L450 306L453 303L452 301L459 302L462 300L461 299L463 299L463 297L464 298L466 295L470 293L479 295L479 297L481 297L480 298L482 299z"/><path class="leaflet-interactive" stroke="#333" stroke-opacity="1" stroke-width="1" stroke-linecap="round" stroke-linejoin="round" stroke-dasharray="1,6" fill="#eee" fill-opacity="0.5" fill-rule="evenodd" d="M474 214L467 213L462 216L462 220L463 219L468 225L462 228L463 230L461 230L461 232L463 232L462 244L464 246L460 249L471 259L473 263L474 262L477 264L475 265L475 269L480 272L480 276L483 279L485 285L484 287L482 287L482 285L482 288L480 290L483 294L491 293L497 295L498 292L501 293L507 289L505 287L503 278L513 274L513 270L518 272L520 267L523 266L523 264L530 264L530 262L533 261L530 259L532 259L532 257L529 254L526 257L526 255L523 253L522 254L521 252L523 250L524 251L525 246L527 246L527 242L525 240L525 236L523 237L522 235L521 236L516 232L518 228L504 223L502 223L501 225L501 223L498 225L498 227L494 226L494 224L490 221L484 221L476 215z"/><path class="leaflet-interactive" stroke="#333" stroke-opacity="1" stroke-width="1" stroke-linecap="round" stroke-linejoin="round" stroke-dasharray="1,6" fill="#eee" fill-opacity="0.5" fill-rule="evenodd" d="M509 352L511 352L513 356L512 362L509 360L505 362L506 368L499 372L498 376L494 371L485 378L483 382L482 380L475 378L470 384L468 382L468 385L466 386L469 388L462 393L461 392L461 394L459 395L459 397L460 396L461 398L464 397L462 397L462 402L460 405L462 407L461 415L465 416L470 411L470 414L472 413L471 415L475 417L472 421L475 421L472 422L474 426L479 425L479 423L481 426L489 422L489 424L492 423L497 418L503 416L511 418L512 416L524 414L524 411L526 409L536 404L537 393L535 391L526 389L524 387L524 381L538 378L541 374L547 376L552 374L554 366L557 362L551 360L549 340L553 332L565 324L567 318L574 316L575 314L578 314L578 310L575 309L573 304L569 305L569 303L567 303L566 301L558 300L554 297L552 297L551 300L549 300L549 302L551 303L548 309L545 308L546 306L543 305L542 302L539 304L534 304L533 310L537 313L533 320L534 324L529 324L529 321L527 321L524 317L521 319L520 325L515 323L511 329L508 327L507 328L506 335L513 336L512 339L514 340L508 346L509 350z"/><path class="leaflet-interactive" stroke="#333" stroke-opacity="1" stroke-width="1" stroke-linecap="round" stroke-linejoin="round" stroke-dasharray="1,6" fill="#eee" fill-opacity="0.5" fill-rule="evenodd" d="M545 291L546 294L551 293L551 291L552 292L550 297L551 299L549 301L551 303L548 309L545 308L546 306L543 305L542 302L539 304L534 304L533 310L537 313L533 320L534 324L529 324L529 321L527 321L524 317L521 319L520 325L510 322L507 319L506 320L506 318L503 318L504 316L502 314L501 315L499 313L495 315L492 311L494 307L492 305L488 305L488 303L483 298L483 295L485 293L497 295L498 292L501 293L507 289L505 287L503 278L513 274L513 270L518 272L520 267L523 266L523 264L530 264L531 261L533 261L532 262L534 264L536 263L536 257L538 257L540 253L545 252L551 255L553 253L557 254L562 257L558 263L559 266L557 268L557 273L556 275L554 275L554 284L550 285L552 286L553 290L547 290zM540 286L536 284L531 285L532 288L528 288L527 284L523 286L520 285L520 283L515 285L513 289L510 290L509 295L523 295L523 297L527 300L528 293L537 294L542 290L542 287z"/><path class="leaflet-interactive" stroke="#333" stroke-opacity="1" stroke-width="1" stroke-linecap="round" stroke-linejoin="round" stroke-dasharray="1,6" fill="#eee" fill-opacity="0.5" fill-rule="evenodd" d="M475 378L466 370L457 357L449 352L446 353L446 349L437 346L434 343L427 343L428 342L426 341L425 343L418 345L414 344L414 342L410 344L410 352L406 357L404 363L406 377L409 377L409 386L407 388L409 392L412 395L414 395L413 396L415 394L423 395L425 397L425 405L441 403L442 404L443 402L447 401L446 403L450 405L448 410L450 416L455 421L459 419L462 414L462 407L460 405L462 402L462 397L464 397L461 398L459 395L461 394L461 392L462 393L469 388L466 386L468 385L468 382L470 384L474 379z"/><path class="leaflet-interactive" stroke="#333" stroke-opacity="1" stroke-width="1" stroke-linecap="round" stroke-linejoin="round" stroke-dasharray="1,6" fill="#eee" fill-opacity="0.5" fill-rule="evenodd" d="M511 226L513 224L512 223L514 219L512 215L511 216L510 213L511 214L512 211L511 212L509 209L506 199L509 198L507 197L512 190L510 186L517 187L521 191L532 188L539 192L540 190L543 190L544 184L542 182L537 183L538 178L541 177L538 174L538 172L536 173L532 170L528 172L527 169L524 170L526 167L525 164L519 157L516 156L514 147L504 147L499 143L491 147L492 148L490 149L490 152L494 154L492 156L486 157L488 159L486 163L483 162L476 168L473 166L470 169L468 169L468 172L470 174L465 175L467 187L459 199L460 201L462 201L460 203L462 204L461 206L464 207L463 208L464 207L470 210L473 209L475 212L474 213L480 218L482 218L484 221L490 221L497 227L501 223L501 225L504 223L510 226z"/></g></svg>