<svg xmlns="http://www.w3.org/2000/svg" pointer-events="none" class="leaflet-zoom-animated" width="1060" height="563" viewBox="-88 -47 1060 563" style="transform: translate3d(-88px, -47px, 0px);"><g><path class="leaflet-interactive" stroke="black" stroke-opacity="1" stroke-width="2" stroke-linecap="round" stroke-linejoin="round" fill="#fff" fill-opacity="0.2" fill-rule="evenodd" d="M522 342L526 340L525 338L527 336L528 337L528 333L532 332L534 334L536 327L534 321L532 320L533 319L529 316L528 313L531 316L534 315L537 310L533 301L537 303L538 301L541 302L540 303L542 305L544 299L550 302L551 304L553 302L551 300L552 299L557 303L560 303L560 301L564 302L570 300L573 304L576 304L576 302L578 304L580 299L578 295L575 293L578 291L575 286L575 282L576 274L580 270L582 265L580 265L578 262L579 263L584 259L584 256L588 256L590 250L596 248L595 247L597 249L600 246L599 241L594 239L590 235L585 235L586 231L579 223L574 222L570 218L567 217L566 220L554 220L542 216L541 214L529 209L525 205L535 193L536 181L539 172L555 153L556 144L550 141L547 135L547 132L545 130L546 122L544 117L540 117L537 119L532 117L526 126L522 124L513 125L512 136L503 136L500 141L498 151L496 151L492 155L493 159L487 167L487 174L484 178L486 182L484 184L485 186L482 200L485 205L484 211L479 215L479 221L483 230L481 235L481 242L478 247L474 249L470 248L468 255L450 255L436 260L431 265L425 265L411 269L393 270L390 274L383 277L387 278L393 276L395 278L404 277L409 279L408 282L410 284L411 283L411 285L404 289L404 294L411 295L414 292L418 293L427 309L440 312L441 320L445 320L451 329L450 332L445 332L442 336L445 344L447 344L446 348L448 350L450 349L453 352L453 356L456 362L455 363L459 366L459 373L462 379L461 384L457 383L456 386L455 385L452 388L453 389L451 389L451 401L455 403L453 407L454 408L456 406L460 413L466 414L466 417L466 414L472 412L477 414L478 413L477 416L476 413L474 416L475 420L477 420L480 424L479 425L482 425L483 432L485 428L492 429L495 432L500 431L498 434L500 441L501 442L505 437L507 439L508 438L510 442L509 443L517 452L517 449L519 450L525 445L526 442L525 433L522 430L524 423L522 416L527 412L534 412L535 415L537 413L541 416L542 413L546 415L546 413L549 412L550 410L551 411L553 408L553 406L550 403L551 402L548 401L551 398L552 399L552 397L554 397L554 395L551 396L551 394L553 396L555 391L553 391L555 382L554 383L554 381L552 381L552 379L547 373L547 375L543 375L539 373L538 370L536 371L535 369L535 371L532 368L532 370L530 368L529 371L524 368L525 367L527 369L526 362L528 361L525 360L527 353L523 352L522 350L521 351L520 348L518 348L517 346L523 347L524 345L522 343zM497 435L496 432L488 435L487 438L492 437L495 434L496 435zM498 438L498 437zM498 435L498 435z"/><path class="leaflet-interactive" stroke="#333" stroke-opacity="1" stroke-width="1" stroke-linecap="round" stroke-linejoin="round" stroke-dasharray="1,6" fill="#eee" fill-opacity="0.5" fill-rule="evenodd" d="M547 217L542 216L541 214L529 209L525 205L535 193L535 178L531 177L532 176L524 172L522 174L522 172L519 171L518 167L514 167L508 164L507 165L497 159L494 159L487 167L487 174L484 178L486 182L484 184L485 186L482 200L485 205L484 209L487 209L488 211L492 212L490 217L491 219L492 216L496 216L499 213L502 219L506 218L505 219L508 222L507 225L509 228L511 227L511 232L512 231L514 233L513 235L517 237L516 241L512 241L512 245L516 246L521 252L524 253L529 258L528 259L543 260L544 258L543 253L547 250L551 242L547 242L547 235L543 234L544 227L549 227L546 221L547 218z"/><path class="leaflet-interactive" stroke="#333" stroke-opacity="1" stroke-width="1" stroke-linecap="round" stroke-linejoin="round" stroke-dasharray="1,6" fill="#eee" fill-opacity="0.5" fill-rule="evenodd" d="M536 181L539 172L555 153L556 147L556 144L550 141L547 135L547 132L545 130L546 122L544 117L540 117L537 119L532 117L526 126L522 124L513 125L512 136L503 136L500 141L498 151L496 151L492 155L493 159L496 159L507 165L508 164L518 167L519 171L521 171L522 174L524 172L532 175L531 177L535 178L535 180z"/><path class="leaflet-interactive" stroke="#333" stroke-opacity="1" stroke-width="1" stroke-linecap="round" stroke-linejoin="round" stroke-dasharray="1,6" fill="#fff" fill-opacity="0" fill-rule="evenodd" d="M484 209L484 211L479 215L479 221L483 228L481 242L478 247L474 249L470 248L469 253L471 254L475 252L486 252L486 262L488 262L489 257L495 260L494 263L499 269L491 273L493 275L486 277L486 279L484 280L490 285L489 287L480 286L478 288L480 296L475 297L473 294L473 289L468 294L466 294L467 296L473 297L472 299L474 302L479 305L484 313L479 319L477 319L477 327L481 325L483 327L483 325L488 320L486 318L489 317L493 323L492 324L494 324L496 327L503 342L503 345L507 345L507 343L510 342L514 344L521 341L524 342L526 340L525 338L527 336L528 337L528 333L532 332L534 334L536 327L534 321L532 320L533 319L529 316L528 313L531 316L534 315L537 310L533 301L537 303L538 301L541 302L540 303L542 305L544 299L550 302L551 304L553 302L551 300L552 299L557 303L560 303L560 301L564 302L570 300L573 304L576 304L576 302L578 304L580 299L578 295L575 293L578 291L575 286L575 282L576 274L580 270L582 265L580 265L578 262L579 263L584 259L584 256L588 256L590 250L596 248L595 247L597 249L600 246L600 243L590 235L585 235L586 231L579 223L574 222L570 218L567 217L566 220L554 220L547 217L546 221L549 226L547 228L544 227L543 234L547 235L547 241L551 242L549 247L546 251L543 252L543 260L528 259L529 258L524 253L512 244L512 242L517 240L517 237L513 235L514 233L512 231L511 232L510 229L511 227L509 227L510 228L507 225L508 220L505 219L506 218L502 219L502 217L500 215L499 216L499 214L496 216L492 216L491 219L490 217L492 213L487 209z"/><path class="leaflet-interactive" stroke="#333" stroke-opacity="1" stroke-width="1" stroke-linecap="round" stroke-linejoin="round" stroke-dasharray="1,6" fill="#eee" fill-opacity="0.5" fill-rule="evenodd" d="M498 435L501 442L505 437L507 439L508 438L510 442L509 443L517 452L517 449L519 450L525 445L526 442L525 433L522 430L524 423L522 416L527 412L534 412L535 415L537 413L541 416L542 413L546 415L546 413L549 412L550 410L551 411L553 408L553 406L550 403L551 402L548 401L551 398L552 399L552 397L554 397L554 395L551 396L551 394L553 396L555 391L553 391L555 382L554 383L554 381L552 381L552 379L547 373L547 375L543 375L539 373L538 370L536 371L535 369L535 371L532 368L532 370L530 368L529 371L525 369L525 367L527 369L526 362L528 361L525 360L527 353L523 352L522 350L516 352L514 359L512 359L503 366L493 366L492 367L494 376L487 374L482 382L479 381L478 377L474 379L471 378L468 373L464 374L461 376L461 384L457 383L456 386L455 385L452 388L453 389L451 389L451 401L455 403L453 407L454 408L456 406L460 413L466 414L466 417L466 414L472 412L477 414L478 413L477 416L476 413L474 416L475 420L477 420L480 424L479 425L482 425L483 432L485 428L487 428L492 429L495 432L500 431L498 435zM497 435L496 432L488 435L487 438L492 437L495 434L496 435zM498 438L498 437zM498 435L498 435z"/><path class="leaflet-interactive" stroke="#333" stroke-opacity="1" stroke-width="1" stroke-linecap="round" stroke-linejoin="round" stroke-dasharray="1,6" fill="#eee" fill-opacity="0.5" fill-rule="evenodd" d="M520 350L520 348L518 348L517 346L523 347L524 345L522 341L514 344L510 342L507 343L507 345L503 345L502 340L489 317L486 318L488 320L483 327L481 325L477 327L477 319L479 319L484 313L480 305L477 305L473 301L473 297L467 296L465 294L467 294L473 289L473 294L475 296L479 296L480 294L477 288L480 286L489 287L489 284L484 281L486 280L486 278L493 275L491 273L499 269L494 264L494 259L489 257L488 261L486 262L487 252L475 252L468 255L454 254L436 260L431 265L425 265L411 269L393 270L390 274L383 277L387 278L393 276L395 278L404 277L409 279L408 282L410 284L411 283L411 285L404 289L404 294L411 295L414 292L418 293L427 309L440 312L441 320L445 320L451 329L450 332L445 332L442 336L445 344L447 344L446 348L448 350L450 349L453 352L453 356L456 362L455 363L459 366L459 373L461 376L467 373L474 380L475 378L478 377L478 381L481 380L482 382L487 374L494 376L492 368L493 366L502 366L506 364L512 359L514 359L515 352L520 351z"/></g></svg>