<svg xmlns="http://www.w3.org/2000/svg" pointer-events="none" class="leaflet-zoom-animated" width="1060" height="563" viewBox="-88 -47 1060 563" style="transform: translate3d(-88px, -47px, 0px);"><g><path class="leaflet-interactive" stroke="black" stroke-opacity="1" stroke-width="2" stroke-linecap="round" stroke-linejoin="round" fill="#fff" fill-opacity="0.2" fill-rule="evenodd" d="M412 262L409 258L407 258L407 256L403 258L403 256L398 255L398 241L390 239L390 237L386 237L383 234L386 232L384 226L387 225L388 228L390 229L396 229L400 227L404 222L403 221L405 217L403 213L403 209L405 209L404 206L407 206L410 203L418 202L414 191L417 190L418 186L414 186L414 184L418 176L426 175L428 179L429 177L432 178L434 180L434 184L437 187L436 188L441 193L441 195L453 190L454 187L460 184L464 185L464 181L458 172L460 170L459 166L461 164L452 164L451 161L444 158L444 156L442 155L442 152L444 151L443 147L446 149L448 145L449 146L452 143L454 143L461 151L460 152L469 153L472 157L476 156L479 159L478 163L481 166L482 165L481 169L488 175L495 174L498 177L505 177L504 178L506 180L508 178L510 179L511 184L514 185L514 195L517 193L522 194L524 192L534 193L532 194L533 197L531 200L530 208L528 207L526 209L527 212L525 215L524 214L525 217L523 221L527 226L531 225L533 222L535 223L536 234L539 236L536 238L536 240L537 242L539 242L542 249L546 247L547 249L552 249L554 247L558 249L560 247L559 241L562 241L562 239L565 236L571 236L576 243L579 243L581 256L580 257L579 255L578 260L575 263L573 260L569 260L566 257L567 256L551 256L553 259L552 261L557 262L558 269L555 271L556 274L554 277L548 278L548 280L545 283L543 283L544 286L542 290L548 296L547 298L551 302L555 300L555 302L557 303L555 307L559 307L559 305L561 304L561 306L565 309L566 313L564 320L560 320L557 325L558 326L560 326L562 329L570 329L575 328L578 325L580 325L580 327L586 327L588 325L587 330L589 330L589 332L595 332L598 335L600 335L600 340L596 346L597 349L595 353L593 353L592 358L590 360L589 357L582 362L582 366L586 367L586 370L589 374L585 374L581 378L572 377L568 375L565 378L565 381L568 383L564 386L566 386L566 397L565 396L564 399L561 402L559 402L559 407L555 412L551 413L546 420L540 420L540 424L537 423L535 425L531 423L532 420L527 416L511 417L510 414L504 415L503 411L500 410L501 408L498 404L499 402L492 403L490 397L486 399L486 401L483 403L486 404L484 410L480 410L473 416L467 416L464 410L469 404L471 404L475 396L472 395L472 393L471 394L465 390L461 391L459 399L456 399L447 405L445 403L440 403L437 384L434 378L432 378L429 374L432 371L429 369L431 366L423 357L424 354L428 354L427 350L429 347L431 347L435 343L438 343L437 340L433 338L432 339L429 333L424 335L421 330L415 333L412 327L410 327L409 322L406 322L406 314L411 308L410 307L412 304L414 304L420 299L428 300L430 298L429 296L431 292L430 291L432 283L430 267L428 262L430 257L429 256L428 259L424 262L424 260L423 262L421 261L420 264L417 266L414 266L415 265L412 262zM466 409L466 409zM466 410L467 410z"/><path class="leaflet-interactive" stroke="#333" stroke-opacity="1" stroke-width="1" stroke-linecap="round" stroke-linejoin="round" stroke-dasharray="1,6" fill="#eee" fill-opacity="0.5" fill-rule="evenodd" d="M481 327L485 332L486 337L488 336L492 342L496 341L497 343L500 343L501 341L503 341L502 339L505 333L504 330L506 326L509 324L512 316L524 314L521 311L522 308L524 308L524 306L521 303L521 296L523 292L521 292L517 287L520 284L519 277L517 275L516 276L514 274L512 275L509 273L505 276L502 276L498 273L500 269L496 267L498 263L490 263L489 260L487 259L483 260L480 266L482 269L481 272L483 272L483 275L480 275L481 278L479 281L481 282L481 287L476 287L477 288L469 292L467 294L468 295L466 296L466 298L469 301L469 309L472 313L480 311L490 312L491 314L485 317L482 327z"/><path class="leaflet-interactive" stroke="#333" stroke-opacity="1" stroke-width="1" stroke-linecap="round" stroke-linejoin="round" stroke-dasharray="1,6" fill="#eee" fill-opacity="0.5" fill-rule="evenodd" d="M555 325L551 325L551 322L548 319L545 319L542 312L540 317L540 315L537 314L537 312L531 313L531 318L533 318L533 320L525 317L524 318L524 314L516 315L513 316L509 324L505 328L505 333L502 339L505 343L508 342L510 344L518 333L521 337L524 336L527 340L533 343L533 346L524 349L524 351L531 356L530 359L532 359L533 357L540 356L538 355L540 350L544 349L546 353L548 351L548 344L552 342L551 340L553 338L553 340L556 338L558 333L558 331L555 328L555 325z"/><path class="leaflet-interactive" stroke="#333" stroke-opacity="1" stroke-width="1" stroke-linecap="round" stroke-linejoin="round" stroke-dasharray="1,6" fill="#eee" fill-opacity="0.5" fill-rule="evenodd" d="M468 237L478 245L480 245L483 249L486 247L489 248L493 243L501 242L503 240L504 235L510 238L515 231L520 231L521 234L526 233L527 232L525 231L529 229L529 227L527 227L528 226L524 223L525 222L523 220L525 215L513 219L509 215L504 216L496 208L492 206L489 209L487 209L486 212L482 213L484 214L484 218L471 218L472 221L471 225L469 225L468 230L471 232L471 234L470 233L468 236z"/><path class="leaflet-interactive" stroke="#333" stroke-opacity="1" stroke-width="1" stroke-linecap="round" stroke-linejoin="round" stroke-dasharray="1,6" fill="#eee" fill-opacity="0.5" fill-rule="evenodd" d="M469 292L471 292L477 286L482 286L479 279L481 278L480 275L482 275L483 273L482 267L480 267L484 259L489 259L490 257L487 251L489 248L484 247L483 249L480 245L478 245L470 238L452 233L451 236L452 240L455 242L455 250L463 258L460 258L456 264L456 268L458 271L457 278L459 286L465 289L466 293L468 292z"/><path class="leaflet-interactive" stroke="#333" stroke-opacity="1" stroke-width="1" stroke-linecap="round" stroke-linejoin="round" stroke-dasharray="1,6" fill="#eee" fill-opacity="0.5" fill-rule="evenodd" d="M566 314L564 320L560 320L556 325L551 325L551 322L548 319L545 319L542 312L540 317L540 315L537 314L537 312L531 313L531 318L533 318L533 320L525 317L524 318L524 314L521 311L522 308L524 308L524 306L521 303L521 296L523 292L527 295L529 295L531 292L533 293L539 289L540 286L543 284L542 290L548 296L547 298L551 302L555 300L555 302L557 303L555 307L559 307L559 305L561 304L561 306L565 309L566 313z"/><path class="leaflet-interactive" stroke="#333" stroke-opacity="1" stroke-width="1" stroke-linecap="round" stroke-linejoin="round" stroke-dasharray="1,6" fill="#eee" fill-opacity="0.5" fill-rule="evenodd" d="M452 191L459 200L459 208L466 207L467 209L471 210L470 216L473 218L476 217L476 215L479 212L478 209L475 208L477 203L473 199L477 195L478 185L480 182L478 178L479 177L477 177L478 175L476 173L474 175L473 174L471 179L462 178L464 181L464 185L458 185L453 190zM481 170L482 166L480 166L479 168L479 171L481 170z"/><path class="leaflet-interactive" stroke="#333" stroke-opacity="1" stroke-width="1" stroke-linecap="round" stroke-linejoin="round" stroke-dasharray="1,6" fill="#eee" fill-opacity="0.5" fill-rule="evenodd" d="M487 337L483 343L485 350L484 353L488 357L491 357L489 358L489 360L495 357L501 358L503 355L512 351L514 351L514 353L517 354L521 350L533 346L532 342L531 343L524 336L521 337L519 333L515 335L510 343L505 343L503 341L497 343L496 341L493 342L488 336zM493 368L491 370L493 372L494 368zM478 360L477 360z"/><path class="leaflet-interactive" stroke="#333" stroke-opacity="1" stroke-width="1" stroke-linecap="round" stroke-linejoin="round" stroke-dasharray="1,6" fill="#eee" fill-opacity="0.5" fill-rule="evenodd" d="M475 375L477 378L473 386L468 391L462 390L459 399L456 399L447 405L445 403L440 403L438 396L438 387L434 378L432 378L429 374L432 371L429 369L431 366L423 357L424 354L428 354L428 348L435 343L438 343L437 338L439 336L443 336L444 338L450 332L455 334L459 331L460 334L458 339L459 340L462 337L467 339L468 337L469 338L473 334L475 334L480 327L482 327L487 338L483 343L485 350L484 353L488 357L491 357L489 358L491 367L489 369L481 368L476 371L475 374zM478 359L476 359L479 360L478 359z"/><path class="leaflet-interactive" stroke="#333" stroke-opacity="1" stroke-width="1" stroke-linecap="round" stroke-linejoin="round" stroke-dasharray="1,6" fill="#eee" fill-opacity="0.5" fill-rule="evenodd" d="M565 388L561 390L560 389L550 397L548 394L548 390L546 388L541 388L542 387L537 380L540 378L539 375L535 372L536 370L535 369L530 371L531 368L529 366L523 368L523 376L517 381L519 383L518 384L510 388L504 388L505 389L503 392L489 395L489 397L491 398L491 401L493 403L495 401L496 403L499 401L498 404L501 407L500 410L504 412L504 415L509 414L512 417L526 416L530 418L532 420L531 423L535 425L537 423L540 424L540 420L541 421L544 419L548 419L548 417L553 412L556 411L559 407L559 403L564 399L563 397L566 396L565 389z"/><path class="leaflet-interactive" stroke="#333" stroke-opacity="1" stroke-width="1" stroke-linecap="round" stroke-linejoin="round" stroke-dasharray="1,6" fill="#eee" fill-opacity="0.5" fill-rule="evenodd" d="M523 292L527 295L529 295L531 292L533 293L539 289L540 286L547 281L549 277L553 277L556 275L555 271L558 269L556 266L557 262L552 261L552 255L562 255L564 257L567 256L566 257L568 257L574 263L577 261L579 255L581 255L580 245L576 243L571 236L565 236L561 242L559 241L560 247L558 249L554 247L552 249L543 249L542 246L540 246L536 240L536 238L539 236L536 232L534 222L532 223L533 224L527 227L529 226L529 229L525 231L527 233L521 234L520 231L516 231L512 233L510 238L508 238L505 235L501 242L491 244L487 250L490 257L489 262L493 264L497 262L498 263L496 267L500 268L498 272L502 276L505 276L509 273L514 274L516 276L517 275L520 280L520 284L517 287L522 292z"/><path class="leaflet-interactive" stroke="#333" stroke-opacity="1" stroke-width="1" stroke-linecap="round" stroke-linejoin="round" stroke-dasharray="1,6" fill="#eee" fill-opacity="0.5" fill-rule="evenodd" d="M412 262L409 258L407 258L407 256L403 258L403 256L398 255L398 241L390 239L390 237L386 237L383 234L386 232L384 226L387 225L388 228L390 229L396 229L402 225L405 217L403 213L405 205L407 206L410 203L418 202L420 206L424 207L430 212L431 221L430 222L427 219L426 225L435 230L437 234L442 235L444 240L445 239L447 241L451 239L455 242L455 250L463 258L460 258L456 264L453 264L447 259L445 263L444 262L442 265L439 259L436 258L434 255L431 257L430 256L424 262L424 260L423 262L421 261L420 264L417 266L414 266L415 265L412 262z"/><path class="leaflet-interactive" stroke="#333" stroke-opacity="1" stroke-width="1" stroke-linecap="round" stroke-linejoin="round" stroke-dasharray="1,6" fill="#eee" fill-opacity="0.5" fill-rule="evenodd" d="M462 178L471 179L472 174L472 176L476 173L478 175L478 181L480 182L480 184L478 185L477 197L474 197L474 201L477 202L475 208L477 208L479 212L476 215L476 217L478 218L484 218L484 211L486 213L486 209L489 210L492 206L498 209L502 215L508 215L513 219L521 215L523 216L527 213L526 209L528 207L530 208L530 200L533 197L533 193L524 192L522 194L517 193L514 195L514 186L512 186L508 177L507 180L504 176L498 177L496 174L488 175L484 171L480 171L479 168L481 166L478 163L478 157L472 157L469 153L460 152L461 151L452 143L449 146L448 145L446 149L444 147L443 148L444 150L442 154L444 158L451 161L452 164L461 164L459 166L459 172L461 177z"/><path class="leaflet-interactive" stroke="#333" stroke-opacity="1" stroke-width="1" stroke-linecap="round" stroke-linejoin="round" stroke-dasharray="1,6" fill="#eee" fill-opacity="0.5" fill-rule="evenodd" d="M469 292L466 293L465 290L461 286L459 286L457 278L458 271L456 268L456 264L453 264L447 259L445 263L444 262L442 265L439 259L436 258L434 255L428 260L432 279L430 290L431 292L429 296L430 299L420 299L414 304L412 304L406 316L406 321L413 328L413 331L415 333L418 330L420 330L424 335L428 333L435 340L439 336L443 336L444 338L450 332L455 334L459 331L460 334L458 339L459 340L462 337L467 339L468 337L469 338L473 334L475 334L480 327L482 327L485 317L487 315L491 315L489 311L479 311L475 313L471 312L469 310L469 300L466 298L466 296L468 296L467 295L469 293z"/><path class="leaflet-interactive" stroke="#333" stroke-opacity="1" stroke-width="1" stroke-linecap="round" stroke-linejoin="round" stroke-dasharray="1,6" fill="#eee" fill-opacity="0.5" fill-rule="evenodd" d="M452 191L442 195L436 188L437 187L434 184L434 180L429 177L429 179L427 178L425 175L420 175L416 178L414 183L414 185L417 186L418 188L417 191L414 191L416 194L418 204L430 212L431 221L430 222L427 219L426 225L435 230L437 234L442 235L444 240L445 239L447 241L452 238L452 233L463 237L468 237L468 235L470 233L471 234L471 232L468 230L469 225L471 225L472 222L470 216L471 210L464 207L459 208L459 200L457 200L457 197L453 191z"/><path class="leaflet-interactive" stroke="#333" stroke-opacity="1" stroke-width="1" stroke-linecap="round" stroke-linejoin="round" stroke-dasharray="1,6" fill="#eee" fill-opacity="0.5" fill-rule="evenodd" d="M465 409L469 404L471 404L475 398L475 396L468 391L473 386L477 378L475 375L475 372L477 370L479 370L480 368L489 369L491 367L490 361L492 359L495 357L501 358L503 355L512 351L514 351L514 353L517 354L524 349L524 351L531 356L529 361L525 364L523 368L523 376L517 381L519 383L518 384L510 388L504 388L505 389L503 392L489 395L489 397L483 403L486 404L485 409L480 410L473 416L467 416L464 412L465 409zM466 409L466 409zM466 410L467 410zM493 368L491 370L493 372L494 368z"/><path class="leaflet-interactive" stroke="#333" stroke-opacity="1" stroke-width="1" stroke-linecap="round" stroke-linejoin="round" stroke-dasharray="1,6" fill="#eee" fill-opacity="0.5" fill-rule="evenodd" d="M565 388L566 387L564 385L568 383L565 377L568 375L574 378L581 378L585 374L589 374L586 370L586 366L584 367L582 365L582 362L589 357L590 360L592 358L593 354L597 349L596 346L600 340L600 335L598 335L595 332L590 332L587 328L587 325L587 327L581 327L579 325L576 328L570 329L563 329L560 326L558 326L558 324L556 325L555 328L559 333L556 335L557 336L555 339L554 340L552 338L552 341L548 344L548 351L546 353L546 351L545 352L545 350L542 349L539 351L539 356L533 357L524 366L531 367L530 371L534 369L536 370L536 373L539 374L539 378L537 380L543 389L546 388L548 390L550 397L555 392L564 388z"/></g></svg>