<svg xmlns="http://www.w3.org/2000/svg" pointer-events="none" class="leaflet-zoom-animated" width="1060" height="563" viewBox="-88 -47 1060 563" style="transform: translate3d(-88px, -47px, 0px);"><g><path class="leaflet-interactive" stroke="black" stroke-opacity="1" stroke-width="2" stroke-linecap="round" stroke-linejoin="round" fill="#fff" fill-opacity="0.2" fill-rule="evenodd" d="M340 408L342 405L353 403L353 401L364 403L365 399L366 402L369 402L370 404L373 405L373 407L376 407L373 408L376 411L374 412L377 416L382 418L382 424L384 424L387 430L388 440L390 441L393 439L394 440L394 436L395 433L397 433L397 430L398 431L402 429L409 439L416 439L422 434L422 432L429 434L429 424L436 425L436 423L439 422L442 424L449 424L449 429L447 430L450 432L454 432L453 436L451 436L454 442L453 445L454 444L455 446L456 443L457 444L461 442L466 443L470 437L469 429L470 426L471 427L473 425L472 422L473 423L476 419L481 419L481 421L486 422L492 419L488 415L490 415L489 413L492 412L491 409L494 409L499 394L514 392L515 389L522 387L526 389L526 391L531 391L532 388L534 388L532 384L535 374L539 371L541 373L541 369L544 369L544 365L549 350L555 348L555 350L558 351L557 348L559 346L562 349L566 346L565 345L568 340L566 337L568 337L571 340L574 335L573 332L575 328L584 322L582 327L584 326L584 324L588 320L590 320L591 318L589 316L589 318L587 319L586 316L584 318L586 313L583 313L578 310L582 301L586 303L591 303L591 299L594 302L595 304L593 305L589 313L590 314L596 314L602 310L609 310L614 307L616 308L617 307L615 303L615 295L613 296L613 292L618 292L618 290L615 287L620 282L619 281L624 280L627 288L630 284L629 282L633 280L633 273L631 273L625 268L629 268L632 272L636 272L646 265L648 266L653 262L661 261L660 259L664 258L671 251L672 252L666 255L670 259L672 259L672 256L677 260L676 254L678 252L683 251L684 248L699 241L701 242L702 248L702 246L705 245L706 242L708 242L709 243L707 246L710 246L712 248L711 249L715 251L724 250L724 248L725 249L729 247L727 245L731 245L731 247L733 246L735 244L735 237L737 233L732 235L729 234L730 228L734 225L737 226L736 223L740 222L736 215L741 206L746 206L743 203L738 203L735 205L731 203L717 203L718 201L716 200L711 202L708 197L711 194L707 192L704 192L704 194L692 200L683 200L677 198L672 200L672 202L664 197L665 195L662 193L660 189L662 190L662 188L658 186L658 188L655 190L647 190L644 184L645 179L640 180L636 178L631 174L631 171L619 170L608 176L602 176L593 182L585 181L585 183L588 184L588 186L584 188L584 190L587 193L580 199L568 204L567 206L560 208L564 216L562 216L562 219L560 219L554 227L550 225L538 227L537 225L538 226L534 228L527 228L525 225L525 221L521 220L519 222L520 216L515 219L515 216L517 214L515 214L515 216L512 218L510 217L510 215L505 209L507 208L505 207L502 195L506 187L523 184L526 176L525 167L523 166L520 170L515 171L514 165L507 157L505 149L498 144L482 145L478 152L473 146L471 146L470 148L467 146L466 147L456 145L453 141L449 139L444 140L435 134L435 132L430 138L428 142L429 143L427 143L423 150L413 152L414 153L411 157L411 161L409 162L405 169L364 169L362 175L357 179L354 185L342 197L342 199L337 194L338 193L334 191L332 193L331 199L328 199L328 203L331 203L331 205L328 208L319 207L317 209L313 209L314 210L312 210L311 214L312 217L310 220L307 221L308 223L306 225L306 229L299 238L300 241L294 248L293 253L286 256L285 255L283 257L282 256L271 269L272 270L269 276L268 275L268 277L266 278L269 281L268 285L270 285L271 289L273 290L272 292L276 292L280 300L280 307L277 313L278 317L272 320L273 324L270 334L272 335L275 333L282 325L281 326L290 324L294 320L298 320L302 317L313 314L317 309L320 309L316 320L308 321L307 324L305 324L306 327L303 330L299 329L298 331L296 331L294 333L294 336L282 339L274 350L274 352L271 353L271 358L264 363L260 363L257 365L255 364L255 366L251 368L250 372L244 377L245 381L239 383L241 389L237 393L240 394L238 396L240 397L241 395L241 397L244 399L250 399L257 396L257 398L262 401L263 400L262 403L265 405L265 409L269 408L276 411L278 417L278 424L285 431L290 430L293 432L294 428L304 431L310 430L313 427L316 429L319 427L323 432L326 430L328 432L332 427L333 428L337 426L339 420L337 416L339 416L339 411zM711 197L713 197L711 197zM716 257L717 257zM668 193L669 192L668 193zM618 161L617 162L619 165L620 162L618 160zM615 158L618 160L615 157zM613 158L613 159zM666 259L667 259zM600 175L601 174L599 175zM608 310L609 310zM634 285L633 283L632 284L634 284zM635 279L634 279zM627 326L628 326zM615 162L614 162zM554 350L554 349zM619 144L621 144L621 142L619 141L618 143zM630 128L630 126L628 127L629 128zM581 336L581 338L583 338L582 335zM625 129L625 127zM629 125L631 125L629 125zM611 161L611 158L609 158L610 160zM622 133L625 131L624 130L622 133zM675 261L675 259zM631 155L631 154zM621 299L621 300zM559 213L559 212zM660 296L661 297L660 296zM730 202L731 201zM612 146L612 145zM627 154L627 155zM612 152L613 151L612 152zM281 326L280 327L281 326z"/><path class="leaflet-interactive" stroke="#333" stroke-opacity="1" stroke-width="1" stroke-linecap="round" stroke-linejoin="round" stroke-dasharray="1,6" fill="#fff" fill-opacity="0" fill-rule="evenodd" d="M348 285L344 291L339 292L333 296L328 303L332 315L338 310L341 313L341 315L348 312L350 308L347 307L346 302L344 302L347 297L351 297L353 294L357 296L364 293L367 294L369 297L373 296L376 298L383 293L383 290L389 290L391 285L393 285L396 280L399 281L400 288L403 291L403 301L405 300L409 305L406 308L407 311L412 309L413 311L426 316L426 318L434 316L437 316L439 318L439 311L436 307L436 304L438 301L440 301L440 296L438 296L438 291L435 291L431 282L426 282L426 277L422 272L424 272L422 269L424 269L422 264L426 258L422 257L415 250L414 244L412 243L414 241L412 239L411 241L408 240L403 242L401 238L398 236L399 233L407 229L407 226L404 220L406 216L404 209L401 206L401 202L396 199L398 198L395 195L384 200L384 202L380 202L378 204L379 205L377 212L378 215L380 216L380 222L382 223L381 227L372 231L374 235L370 238L371 241L373 241L373 243L375 244L375 250L369 253L370 259L365 261L361 268L356 272L356 274L352 276L353 277L351 279L353 280L353 284L351 285z"/><path class="leaflet-interactive" stroke="#333" stroke-opacity="1" stroke-width="1" stroke-linecap="round" stroke-linejoin="round" stroke-dasharray="1,6" fill="#eee" fill-opacity="0.5" fill-rule="evenodd" d="M625 269L621 271L620 269L617 268L612 272L613 266L606 257L606 255L609 254L610 251L608 247L611 246L607 242L610 234L605 233L605 226L596 230L595 229L593 231L589 227L586 227L584 235L574 236L573 238L569 236L566 238L556 237L553 239L553 237L550 238L547 236L544 242L545 249L541 254L542 260L547 267L553 271L553 273L554 272L565 276L566 278L568 276L571 277L572 280L568 282L564 292L560 295L558 299L560 303L555 305L550 303L548 307L549 309L547 310L547 312L553 314L550 317L550 319L554 328L546 332L544 337L547 340L540 340L541 349L544 351L544 349L549 350L555 348L555 350L558 351L557 348L559 346L562 349L566 346L565 345L568 340L566 337L568 337L571 340L574 335L573 332L575 328L584 322L582 327L584 326L584 324L588 320L590 320L591 318L589 316L589 318L587 319L586 316L584 318L586 313L583 313L578 310L582 301L586 303L591 303L591 299L594 302L595 304L593 305L589 313L590 314L596 314L602 310L609 310L614 307L616 308L617 307L615 303L615 295L613 296L613 292L618 292L618 290L615 287L620 282L619 281L624 280L627 288L630 284L629 282L633 280L633 273L626 269zM608 310L609 310zM634 285L633 283L632 284L634 284zM635 279L634 279zM627 326L628 326zM554 350L554 349zM581 336L581 338L583 338L582 335zM621 299L621 300z"/><path class="leaflet-interactive" stroke="#333" stroke-opacity="1" stroke-width="1" stroke-linecap="round" stroke-linejoin="round" stroke-dasharray="1,6" fill="#eee" fill-opacity="0.5" fill-rule="evenodd" d="M441 322L443 322L449 315L455 317L454 320L459 324L469 318L472 321L475 320L473 319L474 318L472 316L476 314L471 306L469 308L468 307L466 302L467 299L465 297L462 298L462 292L459 291L457 288L458 286L456 276L453 271L456 268L455 267L457 265L457 262L458 263L457 260L459 260L459 258L462 256L469 254L471 249L473 249L474 242L468 242L467 240L464 241L461 240L461 238L459 237L456 241L452 239L452 232L450 230L445 230L447 228L447 222L445 220L441 221L441 216L430 215L428 218L419 216L416 221L416 224L413 226L415 230L421 232L432 232L432 235L434 237L433 238L436 239L438 244L440 244L434 249L431 249L430 254L433 258L430 257L428 262L424 262L422 264L424 268L424 272L422 272L427 277L425 277L427 282L431 282L435 291L438 291L437 296L440 296L440 300L437 302L436 306L439 311L438 319L442 320L441 321z"/><path class="leaflet-interactive" stroke="#333" stroke-opacity="1" stroke-width="1" stroke-linecap="round" stroke-linejoin="round" stroke-dasharray="1,6" fill="#eee" fill-opacity="0.5" fill-rule="evenodd" d="M403 430L409 439L416 439L422 434L422 432L429 434L429 424L430 425L431 416L428 414L429 410L423 404L424 396L426 395L423 394L420 391L420 389L415 384L413 384L409 379L406 379L407 377L401 372L398 372L398 374L396 373L395 376L392 376L387 379L379 379L375 383L372 383L371 381L368 384L367 382L365 383L368 389L370 389L370 392L375 396L374 399L377 402L379 401L381 403L385 403L386 407L390 411L388 414L390 414L394 419L398 419L399 422L404 426L403 429z"/><path class="leaflet-interactive" stroke="#333" stroke-opacity="1" stroke-width="1" stroke-linecap="round" stroke-linejoin="round" stroke-dasharray="1,6" fill="#fff" fill-opacity="0" fill-rule="evenodd" d="M458 145L457 152L468 152L469 154L456 156L458 165L457 166L459 169L461 167L465 171L465 177L464 179L462 179L463 180L459 185L453 184L452 189L450 191L453 192L449 202L453 204L451 206L452 207L459 207L460 209L462 209L462 212L466 216L464 219L467 223L466 226L464 226L464 232L461 237L461 240L467 240L467 242L473 241L477 243L478 238L480 238L480 236L477 236L478 234L485 230L484 222L486 219L495 214L509 213L505 209L507 208L505 207L502 195L506 187L523 184L526 176L526 169L523 166L520 170L515 171L514 165L507 157L505 149L498 144L482 145L478 152L473 146L471 146L470 148L467 146L466 147L460 145zM468 152L457 153L456 156L468 154z"/><path class="leaflet-interactive" stroke="#333" stroke-opacity="1" stroke-width="1" stroke-linecap="round" stroke-linejoin="round" stroke-dasharray="1,6" fill="#fff" fill-opacity="0" fill-rule="evenodd" d="M543 227L542 232L546 235L546 237L553 237L553 239L558 237L581 237L582 235L584 235L586 227L589 227L593 231L595 229L596 230L605 226L605 233L610 234L610 238L607 239L608 244L611 245L608 249L610 251L606 255L606 257L609 261L608 262L613 265L612 272L616 270L616 268L621 270L629 268L632 272L636 272L646 265L648 266L653 262L661 261L660 259L666 256L662 254L661 255L661 253L658 250L658 244L655 245L651 243L651 241L647 238L647 232L655 226L658 227L660 230L663 230L664 228L672 229L673 226L678 229L679 226L682 228L685 224L683 218L685 218L686 214L691 210L691 208L694 205L695 199L683 200L677 198L672 200L672 202L664 197L665 195L662 193L660 189L662 190L662 188L658 186L658 188L655 190L647 190L644 184L645 179L640 180L636 178L631 174L631 171L619 170L608 176L602 176L593 182L585 181L585 183L588 184L588 186L584 188L584 190L587 193L580 199L568 204L567 206L561 207L560 210L564 214L564 216L562 216L562 219L560 219L554 227L550 225L547 226zM668 193L669 192L668 193zM618 161L617 162L619 165L620 162L618 160zM615 158L618 160L615 157zM613 158L613 159zM600 175L601 174L599 175zM615 162L614 162zM619 144L621 144L621 142L619 141L618 143zM630 128L630 126L628 127L629 128zM625 129L625 127zM629 125L631 125L629 125zM611 161L611 158L609 158L610 160zM622 133L625 131L624 130L622 133zM631 155L631 154zM559 213L559 212zM660 296L661 297L660 296zM612 146L612 145zM627 154L627 155zM612 152L613 151L612 152z"/><path class="leaflet-interactive" stroke="#333" stroke-opacity="1" stroke-width="1" stroke-linecap="round" stroke-linejoin="round" stroke-dasharray="1,6" fill="#fff" fill-opacity="0" fill-rule="evenodd" d="M475 312L476 309L474 309L479 305L484 304L489 306L491 301L496 302L498 307L497 309L499 311L503 308L511 311L509 313L510 315L507 317L508 320L510 319L511 321L518 320L518 324L515 326L529 326L530 336L536 333L540 339L547 341L544 337L547 331L554 328L550 319L550 317L553 314L547 312L547 310L549 310L549 305L557 305L560 303L558 299L560 295L564 292L567 286L567 282L571 282L572 280L571 277L568 276L566 278L566 276L554 272L553 273L553 271L548 268L542 260L541 255L542 253L543 254L545 249L544 242L546 237L546 235L542 232L543 227L538 227L537 225L538 226L534 228L527 228L525 225L525 221L521 220L519 222L520 216L515 219L515 216L517 214L515 214L515 216L512 218L510 217L509 214L495 214L485 220L483 224L485 226L485 230L477 235L480 237L478 238L478 242L472 242L474 242L472 249L473 250L472 249L470 253L465 256L462 255L460 260L457 260L458 263L456 263L456 268L453 271L454 274L456 275L456 285L458 285L458 289L462 292L462 298L465 297L467 299L466 302L468 307L469 308L471 306L474 308L474 312z"/><path class="leaflet-interactive" stroke="#333" stroke-opacity="1" stroke-width="1" stroke-linecap="round" stroke-linejoin="round" stroke-dasharray="1,6" fill="#eee" fill-opacity="0.5" fill-rule="evenodd" d="M340 408L342 405L353 403L353 401L364 403L365 399L366 402L369 402L370 404L373 405L373 407L376 407L373 408L376 411L374 412L377 416L382 418L382 424L384 424L387 430L388 440L394 440L394 436L395 433L397 433L397 430L403 430L404 427L402 426L398 419L394 419L390 414L388 414L390 411L387 409L384 402L380 403L379 401L376 401L375 395L368 389L366 383L367 382L368 384L371 381L374 383L381 379L386 379L391 376L395 376L396 373L397 374L400 372L405 375L407 374L408 372L406 369L408 365L405 361L408 356L409 357L411 355L411 353L412 354L416 352L415 345L411 342L412 341L409 341L404 336L398 334L394 336L386 336L387 335L383 333L378 333L372 342L371 341L369 343L366 341L363 343L363 341L354 341L354 336L356 337L358 334L353 329L353 327L355 327L357 324L356 322L352 324L348 330L347 329L340 334L338 333L333 336L329 332L327 326L324 325L323 327L316 322L317 319L308 321L307 324L305 324L305 331L306 333L310 334L318 340L321 344L321 358L323 362L327 360L326 361L328 368L326 370L326 373L328 376L330 375L332 378L331 382L328 380L327 381L327 385L322 390L321 395L324 399L323 401L335 408L337 407z"/><path class="leaflet-interactive" stroke="#333" stroke-opacity="1" stroke-width="1" stroke-linecap="round" stroke-linejoin="round" stroke-dasharray="1,6" fill="#eee" fill-opacity="0.5" fill-rule="evenodd" d="M438 318L435 316L426 318L425 315L420 314L414 311L413 309L408 311L406 310L408 305L406 303L406 300L403 300L404 296L400 288L400 281L397 280L393 285L391 285L391 287L388 290L383 290L382 294L377 298L369 297L368 294L364 293L357 296L353 294L351 297L347 297L344 301L346 302L346 306L350 308L348 312L342 313L341 315L341 313L338 310L332 315L328 304L324 304L324 306L321 307L318 316L317 315L316 322L318 322L323 327L328 326L328 329L333 334L333 336L336 334L340 334L347 329L348 330L349 326L356 322L357 324L355 327L353 327L353 329L358 334L356 337L353 337L353 341L358 340L363 341L363 343L365 343L366 341L369 343L375 339L374 338L378 333L383 333L387 336L394 336L400 334L401 336L411 341L416 347L418 341L423 339L425 341L431 338L431 332L434 327L438 328L441 326L442 320L439 321L438 319z"/><path class="leaflet-interactive" stroke="#333" stroke-opacity="1" stroke-width="1" stroke-linecap="round" stroke-linejoin="round" stroke-dasharray="1,6" fill="#fff" fill-opacity="0" fill-rule="evenodd" d="M695 199L691 210L688 213L686 213L686 216L683 220L685 224L682 228L679 226L678 229L673 226L672 229L665 228L663 230L660 230L658 227L655 226L647 232L647 238L651 241L651 243L659 245L660 248L658 249L661 255L662 254L666 256L671 251L672 252L666 255L670 259L672 259L672 256L677 260L676 254L678 252L683 251L684 248L699 241L701 242L702 248L702 246L705 245L706 242L708 242L709 243L707 246L710 246L712 248L711 249L715 251L724 250L724 248L725 249L729 247L727 245L731 245L731 247L735 244L735 237L737 233L732 235L729 234L730 228L734 225L737 226L736 223L740 222L736 215L741 206L746 206L743 203L738 203L735 205L731 203L717 203L718 201L716 200L711 202L708 197L711 194L707 192L704 192L704 194L697 198zM711 197L713 197L711 197zM716 257L717 257zM666 259L667 259zM675 261L675 259zM730 202L731 201z"/><path class="leaflet-interactive" stroke="#333" stroke-opacity="1" stroke-width="1" stroke-linecap="round" stroke-linejoin="round" stroke-dasharray="1,6" fill="#eee" fill-opacity="0.5" fill-rule="evenodd" d="M549 350L544 349L544 351L540 348L540 340L538 334L534 333L531 336L529 326L515 326L518 321L512 321L510 319L508 320L507 315L504 317L500 317L499 321L494 322L494 324L492 324L491 329L488 331L489 332L487 334L487 338L494 340L490 346L490 351L487 355L489 360L482 361L483 363L481 364L481 366L482 368L496 368L498 366L498 368L501 369L502 371L506 369L506 366L508 366L513 371L515 370L515 372L517 373L516 374L518 374L518 378L515 381L517 386L519 386L519 388L522 387L526 389L526 391L531 391L532 388L534 388L532 384L535 374L539 371L541 373L541 369L544 369L544 365L549 352z"/><path class="leaflet-interactive" stroke="#333" stroke-opacity="1" stroke-width="1" stroke-linecap="round" stroke-linejoin="round" stroke-dasharray="1,6" fill="#eee" fill-opacity="0.5" fill-rule="evenodd" d="M519 388L519 386L517 386L518 384L515 381L517 381L518 379L518 374L516 374L516 370L513 371L508 366L506 366L505 370L502 371L498 368L498 366L496 368L483 368L481 364L483 364L482 361L489 360L487 356L494 340L487 338L487 334L489 332L488 331L491 329L492 324L494 324L494 322L499 321L500 317L510 315L509 314L511 311L509 311L508 309L501 309L499 311L497 309L496 302L491 301L489 306L483 304L475 309L476 313L475 316L473 316L474 320L472 321L469 318L461 323L457 323L454 320L455 317L449 315L441 322L442 323L439 328L433 328L433 330L431 331L432 338L426 341L423 339L418 341L415 350L416 352L412 354L411 353L411 355L409 357L408 356L405 361L408 364L406 368L406 371L408 372L405 376L407 377L406 379L412 381L413 384L415 384L420 389L420 391L426 395L423 404L429 410L428 413L431 416L430 425L436 425L436 423L439 422L442 424L449 424L449 429L447 430L450 432L454 432L451 438L454 442L453 445L454 444L455 446L456 443L466 443L468 441L470 437L470 426L471 427L473 425L472 422L473 423L476 419L481 419L481 421L486 422L492 419L488 415L490 415L489 413L492 412L491 409L494 409L499 394L514 392L517 388z"/><path class="leaflet-interactive" stroke="#333" stroke-opacity="1" stroke-width="1" stroke-linecap="round" stroke-linejoin="round" stroke-dasharray="1,6" fill="#eee" fill-opacity="0.5" fill-rule="evenodd" d="M395 195L400 180L401 185L404 183L408 185L410 182L413 181L413 177L411 176L417 169L412 164L412 162L414 161L413 156L411 157L411 161L409 162L405 169L364 169L362 175L357 179L354 185L342 197L342 199L337 194L338 193L334 191L332 193L331 199L328 199L328 203L331 203L331 205L328 208L319 207L317 209L312 210L312 217L310 220L307 221L308 223L306 225L306 229L299 238L300 241L298 244L303 244L305 246L305 244L310 247L320 247L324 244L325 241L327 241L328 236L335 240L341 240L344 242L342 243L342 245L340 245L340 253L337 254L339 254L338 260L340 264L339 275L344 282L345 281L347 284L349 284L348 285L353 284L352 279L354 277L352 276L356 274L356 272L358 269L362 267L364 262L370 258L370 251L372 252L374 251L373 250L375 250L375 244L373 244L370 238L374 235L372 231L377 228L381 228L382 224L379 220L380 216L377 212L379 205L378 204L379 202L383 202L385 199L388 199L394 195z"/><path class="leaflet-interactive" stroke="#333" stroke-opacity="1" stroke-width="1" stroke-linecap="round" stroke-linejoin="round" stroke-dasharray="1,6" fill="#eee" fill-opacity="0.5" fill-rule="evenodd" d="M348 285L349 284L347 284L345 281L344 282L339 275L340 264L338 260L339 254L337 254L340 253L340 245L342 246L343 242L341 240L334 240L328 235L327 240L320 247L310 247L306 244L305 246L303 244L298 244L294 248L293 253L286 256L285 255L283 257L282 256L279 259L271 269L272 270L269 276L268 275L268 277L266 278L269 281L268 285L270 285L271 289L273 290L272 292L276 292L280 300L280 307L277 313L278 317L272 320L273 324L270 334L272 335L275 333L282 325L281 326L290 324L294 320L298 320L302 317L313 314L317 309L320 309L324 306L324 304L327 304L334 295L344 291L347 287zM281 326L280 327L281 326z"/><path class="leaflet-interactive" stroke="#333" stroke-opacity="1" stroke-width="1" stroke-linecap="round" stroke-linejoin="round" stroke-dasharray="1,6" fill="#eee" fill-opacity="0.5" fill-rule="evenodd" d="M395 195L398 198L396 199L401 202L401 206L404 208L406 217L404 220L407 226L406 230L399 232L398 235L403 242L409 240L411 241L412 239L414 241L412 243L414 244L417 252L422 257L426 258L424 261L428 262L430 257L433 258L430 255L431 249L437 248L437 246L439 246L440 244L436 241L436 239L433 238L434 237L432 235L432 232L421 232L418 230L416 231L414 229L415 228L413 226L416 224L416 221L419 216L425 218L427 218L430 215L441 216L441 221L447 221L447 228L445 230L450 230L452 232L451 237L456 241L458 237L461 238L464 233L464 226L466 226L467 223L464 219L466 215L463 214L462 209L458 207L452 208L452 202L449 202L453 193L451 193L453 185L459 185L465 176L465 171L463 168L461 167L459 169L457 166L458 165L456 156L458 145L456 145L453 141L449 139L442 139L435 134L435 132L430 138L428 142L429 143L427 143L423 150L413 152L414 153L412 156L414 157L414 160L412 164L417 169L412 176L413 181L410 182L408 185L407 183L404 183L402 185L400 180L396 194zM468 154L468 152z"/><path class="leaflet-interactive" stroke="#333" stroke-opacity="1" stroke-width="1" stroke-linecap="round" stroke-linejoin="round" stroke-dasharray="1,6" fill="#eee" fill-opacity="0.5" fill-rule="evenodd" d="M305 328L303 330L299 329L294 333L294 336L290 338L282 339L274 350L274 352L271 353L271 358L264 363L260 363L257 365L255 364L255 366L251 368L250 372L244 377L245 381L239 383L241 389L237 393L240 394L238 396L240 397L241 395L241 397L244 399L250 399L257 396L257 398L262 401L263 400L262 403L265 405L265 409L269 408L276 411L278 417L278 424L285 431L290 430L293 432L294 428L304 431L310 430L313 427L316 429L319 427L323 432L326 430L328 432L332 427L333 428L337 426L339 420L337 416L339 416L340 408L335 408L326 403L321 395L323 388L325 388L328 383L327 381L328 380L331 382L332 379L331 376L329 376L326 373L326 370L328 368L326 361L327 360L323 362L324 360L321 358L321 344L314 337L305 331z"/></g></svg>