<svg xmlns="http://www.w3.org/2000/svg" pointer-events="none" class="leaflet-zoom-animated" width="1060" height="563" viewBox="-88 -47 1060 563" style="transform: translate3d(-88px, -47px, 0px);"><g><path class="leaflet-interactive" stroke="black" stroke-opacity="1" stroke-width="2" stroke-linecap="round" stroke-linejoin="round" fill="#fff" fill-opacity="0.2" fill-rule="evenodd" d="M408 398L410 403L409 407L406 410L403 420L399 425L397 438L393 445L394 459L401 461L404 460L406 462L410 460L414 461L416 458L420 460L424 454L426 455L433 452L434 449L438 450L443 448L446 449L454 447L456 443L459 441L458 439L465 437L465 435L467 434L472 434L475 436L475 428L477 426L476 423L484 426L486 425L486 427L491 425L499 427L502 424L506 428L511 424L515 425L517 422L518 423L519 418L525 420L527 414L529 413L533 415L532 414L535 413L537 410L541 410L544 402L547 403L545 394L549 392L548 383L550 384L549 376L551 375L548 373L551 373L550 370L552 361L551 359L545 357L544 353L546 351L543 349L543 347L540 346L542 344L540 343L541 341L549 338L551 333L553 335L554 333L555 334L553 329L555 326L553 322L554 318L557 317L560 308L570 292L571 287L567 285L564 286L564 284L566 283L563 280L563 276L560 270L558 269L559 267L556 263L556 260L553 259L551 256L550 257L548 255L545 255L543 248L543 245L545 243L544 236L546 235L547 231L551 231L551 228L553 228L555 224L557 225L558 222L554 217L554 211L557 210L562 205L564 205L565 203L567 203L569 208L580 206L582 200L583 201L586 198L583 196L584 192L586 191L587 183L590 179L590 177L584 175L582 160L575 160L573 159L574 158L567 156L566 157L565 152L561 151L563 149L563 145L566 148L568 147L569 145L567 141L575 140L575 138L583 137L588 134L588 132L585 129L583 131L580 130L577 126L577 116L574 114L571 107L568 109L566 115L568 117L567 120L563 120L559 124L557 124L555 121L542 132L533 133L530 127L518 130L514 132L512 139L507 142L494 134L487 136L487 139L484 142L472 164L470 175L466 174L464 176L451 172L447 175L447 180L444 183L444 186L437 186L433 188L435 189L435 191L436 190L437 193L439 193L434 207L432 209L429 209L427 212L428 220L422 232L424 239L422 239L422 242L418 243L413 251L409 252L408 257L405 258L406 271L409 273L412 280L417 283L414 285L418 287L417 299L412 301L411 304L411 306L414 306L414 310L412 310L407 320L402 325L399 326L402 328L401 332L399 333L401 334L400 340L402 340L401 341L403 342L400 345L405 350L403 374L408 396z"/><path class="leaflet-interactive" stroke="#333" stroke-opacity="1" stroke-width="1" stroke-linecap="round" stroke-linejoin="round" stroke-dasharray="1,6" fill="#fff" fill-opacity="0" fill-rule="evenodd" d="M522 266L515 260L522 251L526 250L524 244L519 249L517 248L509 254L502 255L503 256L501 257L499 257L497 253L496 255L487 251L484 254L484 261L479 261L478 259L474 258L467 258L466 255L459 261L454 263L451 266L451 268L454 273L454 276L462 276L465 279L465 281L469 281L472 285L479 286L481 290L484 292L484 294L487 295L486 296L488 298L486 298L489 300L490 298L491 300L493 300L496 299L496 297L502 296L500 290L504 284L503 282L505 277L509 276L508 272L511 269L518 269L520 267L519 266L521 266z"/><path class="leaflet-interactive" stroke="#333" stroke-opacity="1" stroke-width="1" stroke-linecap="round" stroke-linejoin="round" stroke-dasharray="1,6" fill="#eee" fill-opacity="0.5" fill-rule="evenodd" d="M545 185L560 189L563 194L562 203L563 205L567 203L569 208L580 206L582 200L583 201L586 198L583 196L584 192L586 191L587 183L590 177L584 175L582 160L575 160L573 159L574 158L567 156L566 157L565 152L561 151L563 149L563 145L566 148L568 147L569 145L567 141L575 140L575 138L583 137L588 134L588 132L585 129L583 131L580 130L577 126L577 116L574 114L571 107L568 109L566 115L568 117L567 120L563 120L559 124L557 124L555 121L542 132L533 133L530 127L514 132L512 139L507 142L502 138L501 139L502 141L500 142L500 146L502 146L502 150L500 161L502 166L503 167L505 165L511 165L510 164L517 160L516 158L526 157L529 154L532 155L539 160L534 163L534 165L537 167L536 170L538 175L541 178L542 182L545 184z"/><path class="leaflet-interactive" stroke="#333" stroke-opacity="1" stroke-width="1" stroke-linecap="round" stroke-linejoin="round" stroke-dasharray="1,6" fill="#eee" fill-opacity="0.5" fill-rule="evenodd" d="M544 239L538 239L525 245L526 249L522 251L515 260L522 266L525 264L526 266L529 263L531 265L532 270L534 270L534 274L541 286L548 288L554 288L559 286L563 287L566 283L563 280L563 276L560 270L558 269L559 267L556 263L556 260L553 259L551 256L546 256L544 253L544 240z"/><path class="leaflet-interactive" stroke="#333" stroke-opacity="1" stroke-width="1" stroke-linecap="round" stroke-linejoin="round" stroke-dasharray="1,6" fill="#eee" fill-opacity="0.5" fill-rule="evenodd" d="M473 344L475 349L481 354L483 360L489 363L493 363L496 368L499 367L499 376L496 378L496 381L502 379L507 383L513 384L513 387L525 390L535 389L536 392L538 392L539 390L545 393L549 392L548 383L550 384L549 376L551 375L548 373L551 373L550 370L552 361L551 359L545 357L544 353L546 351L543 349L543 347L540 346L542 344L540 343L541 341L543 341L541 337L536 333L533 327L532 329L529 330L526 329L526 331L519 330L516 333L514 333L513 328L509 326L506 321L503 319L500 322L497 319L495 319L495 323L498 327L496 329L495 328L494 330L488 330L486 327L481 325L476 328L477 332L473 337L473 341z"/><path class="leaflet-interactive" stroke="#333" stroke-opacity="1" stroke-width="1" stroke-linecap="round" stroke-linejoin="round" stroke-dasharray="1,6" fill="#eee" fill-opacity="0.5" fill-rule="evenodd" d="M476 423L484 426L486 425L486 427L491 425L499 427L502 424L506 428L511 424L515 425L517 422L518 423L519 418L525 420L527 414L529 413L533 415L532 414L535 413L537 410L541 410L544 402L547 403L545 397L546 395L543 391L539 390L538 392L536 392L535 389L525 390L513 387L513 384L507 383L502 379L497 381L497 384L491 389L484 389L482 387L480 390L483 391L482 393L479 393L475 390L476 396L474 397L475 398L471 403L471 410L472 415L475 417L474 419L476 421z"/><path class="leaflet-interactive" stroke="#333" stroke-opacity="1" stroke-width="1" stroke-linecap="round" stroke-linejoin="round" stroke-dasharray="1,6" fill="#eee" fill-opacity="0.5" fill-rule="evenodd" d="M502 138L494 134L487 136L487 139L475 158L470 171L470 175L473 179L469 180L469 183L473 184L477 196L479 194L482 195L483 199L488 205L488 203L493 205L496 202L502 206L509 199L510 200L513 198L515 194L523 189L526 193L536 193L542 190L545 185L542 182L541 178L538 176L536 172L537 167L534 165L534 163L539 160L532 155L529 154L526 157L516 157L517 159L515 162L510 164L511 165L505 165L504 167L502 166L500 161L502 150L500 142L502 142L502 138z"/><path class="leaflet-interactive" stroke="#333" stroke-opacity="1" stroke-width="1" stroke-linecap="round" stroke-linejoin="round" stroke-dasharray="1,6" fill="#eee" fill-opacity="0.5" fill-rule="evenodd" d="M543 341L549 338L551 333L553 335L554 333L555 334L553 329L555 326L553 322L554 318L557 317L560 308L570 292L571 287L567 285L555 288L543 287L539 284L536 276L534 275L534 271L532 270L532 267L529 263L526 266L525 264L520 266L518 269L511 269L508 272L509 276L507 276L504 280L504 284L500 290L502 296L496 297L496 299L493 300L491 300L491 298L488 301L486 301L480 311L476 308L474 311L471 312L470 320L468 323L457 328L454 328L452 326L450 327L454 330L447 336L449 339L450 337L451 339L452 338L453 341L458 346L458 343L462 342L470 343L472 345L473 337L475 333L477 333L476 328L483 325L488 329L494 330L495 328L498 328L494 320L497 319L500 322L503 319L508 323L509 326L513 328L514 333L516 333L519 330L526 331L526 329L532 329L532 327L536 331L535 333L540 336L543 340z"/><path class="leaflet-interactive" stroke="#333" stroke-opacity="1" stroke-width="1" stroke-linecap="round" stroke-linejoin="round" stroke-dasharray="1,6" fill="#eee" fill-opacity="0.5" fill-rule="evenodd" d="M408 398L410 403L409 407L406 410L403 420L399 425L397 438L393 445L394 459L401 461L404 460L406 462L410 460L414 461L416 458L420 460L424 454L426 455L433 452L434 449L438 450L443 448L446 449L454 447L456 443L459 441L458 439L465 437L465 435L467 434L472 434L475 436L475 428L477 426L476 421L474 419L475 417L472 415L471 417L466 416L466 414L465 415L467 410L469 409L466 408L467 405L463 405L461 403L456 402L454 408L447 407L441 409L441 402L444 401L443 399L441 399L440 401L436 398L434 393L432 393L431 396L428 398L427 394L425 397L426 399L424 400L416 397L413 398L414 396L412 395L410 396z"/><path class="leaflet-interactive" stroke="#333" stroke-opacity="1" stroke-width="1" stroke-linecap="round" stroke-linejoin="round" stroke-dasharray="1,6" fill="#fff" fill-opacity="0" fill-rule="evenodd" d="M470 175L466 174L464 176L451 172L447 175L447 180L444 183L444 186L437 186L433 188L435 189L435 191L436 190L437 193L439 193L434 207L432 209L429 209L427 212L428 220L425 226L425 229L429 231L437 226L440 234L444 234L451 241L452 238L453 239L459 236L460 234L462 235L463 238L461 239L464 243L463 244L466 250L463 252L463 254L465 256L466 255L467 258L469 257L471 259L474 258L478 259L479 261L483 261L485 260L485 256L483 254L486 253L486 251L494 253L496 255L497 254L499 255L499 257L503 256L502 255L507 255L524 244L528 245L538 239L544 239L544 236L546 235L547 231L551 231L551 228L553 228L555 224L557 225L558 222L554 217L554 211L557 210L562 205L563 194L560 190L548 185L545 185L542 190L536 193L526 193L524 189L515 194L513 198L510 200L507 200L502 206L496 202L493 205L488 203L488 205L486 204L487 203L485 200L483 200L482 196L479 194L477 196L473 184L469 183L469 181L473 180L471 176z"/><path class="leaflet-interactive" stroke="#333" stroke-opacity="1" stroke-width="1" stroke-linecap="round" stroke-linejoin="round" stroke-dasharray="1,6" fill="#fff" fill-opacity="0" fill-rule="evenodd" d="M401 332L399 333L401 334L400 340L402 340L401 341L403 342L400 345L405 350L403 374L408 398L411 395L413 396L413 398L416 397L423 400L426 399L425 397L427 394L428 398L431 396L432 393L434 393L439 401L441 399L443 399L444 401L441 402L441 409L446 407L454 408L455 403L458 402L463 405L467 405L466 408L469 409L467 410L465 415L466 414L466 416L471 417L471 404L475 398L474 397L476 396L475 391L482 393L483 392L482 390L480 390L480 388L482 387L484 389L491 389L497 385L496 379L499 376L499 368L496 368L493 363L489 363L483 360L481 354L475 349L474 344L472 345L470 343L462 342L458 343L458 346L450 337L450 339L447 337L442 340L443 341L438 341L437 337L431 334L431 330L428 332L427 330L426 332L425 331L420 334L412 330L412 332L408 334L402 333z"/><path class="leaflet-interactive" stroke="#333" stroke-opacity="1" stroke-width="1" stroke-linecap="round" stroke-linejoin="round" stroke-dasharray="1,6" fill="#eee" fill-opacity="0.5" fill-rule="evenodd" d="M488 300L486 298L488 298L486 294L484 294L484 292L478 285L470 284L469 281L465 281L465 279L462 277L454 277L453 275L454 274L451 266L465 256L463 254L463 252L466 251L463 244L464 243L461 240L463 238L462 235L460 234L459 236L453 239L452 238L451 241L448 238L448 236L440 234L437 226L429 231L425 229L425 226L422 232L424 239L422 239L422 242L418 243L413 251L409 252L408 257L405 258L406 271L409 273L412 280L417 283L414 285L418 287L418 294L417 299L412 301L411 304L411 306L414 306L414 310L412 310L407 320L402 325L399 326L402 328L401 332L407 334L412 332L412 330L415 330L420 334L425 331L428 332L430 330L432 331L431 334L433 336L436 335L438 341L443 341L442 340L444 340L447 337L447 335L454 331L450 327L452 326L457 329L462 325L468 323L470 320L471 312L478 308L480 311L485 302L488 301z"/></g></svg>