<svg xmlns="http://www.w3.org/2000/svg" pointer-events="none" class="leaflet-zoom-animated" width="1060" height="563" viewBox="-88 -47 1060 563" style="transform: translate3d(-88px, -47px, 0px);"><g><path class="leaflet-interactive" stroke="black" stroke-opacity="1" stroke-width="2" stroke-linecap="round" stroke-linejoin="round" fill="#fff" fill-opacity="0.2" fill-rule="evenodd" d="M476 322L476 325L484 335L488 329L498 325L496 318L498 317L502 308L500 306L498 309L503 303L505 303L503 293L504 292L506 292L506 295L510 300L512 306L515 305L515 303L520 304L525 301L528 302L531 301L532 299L536 299L539 302L540 307L546 303L545 301L543 301L545 297L541 295L545 294L544 293L550 289L552 291L550 296L551 300L556 299L558 300L557 302L567 289L571 290L571 288L575 288L573 289L578 290L578 293L580 295L583 294L589 296L591 291L587 291L589 287L594 286L599 288L599 292L601 292L602 290L608 287L613 288L622 281L626 283L631 282L635 278L633 273L634 272L638 271L641 268L646 268L644 266L644 263L650 253L654 254L656 252L663 251L663 248L656 244L655 237L652 234L653 229L650 224L654 220L652 218L651 219L650 212L643 202L645 195L643 197L640 196L635 197L633 199L631 194L629 194L625 189L627 187L626 186L620 189L617 186L611 187L609 184L604 183L603 186L601 184L598 188L597 192L599 196L597 196L601 200L597 202L595 202L591 198L590 199L588 195L582 190L579 191L579 193L577 191L570 195L565 194L563 196L559 196L557 201L554 199L550 199L551 200L549 203L548 200L536 205L536 203L533 200L532 201L529 197L525 197L525 195L530 194L533 191L532 190L536 185L535 182L541 179L543 175L546 176L551 173L551 171L548 170L551 167L551 165L549 163L548 164L542 158L539 161L538 160L536 163L532 162L531 165L526 163L519 167L517 157L513 157L509 163L505 161L498 164L497 161L491 161L486 156L486 153L483 153L480 156L479 155L477 157L478 158L476 158L473 162L468 164L467 162L465 162L466 167L470 167L473 169L470 172L473 175L471 178L472 183L463 185L462 182L460 181L459 175L455 172L452 173L447 172L446 170L445 172L443 170L435 170L432 180L434 183L434 187L432 187L423 196L423 200L425 200L427 203L426 206L429 210L427 215L425 217L424 216L424 218L422 218L420 221L424 230L418 234L417 239L413 237L410 238L409 242L411 243L409 247L403 249L403 253L398 259L399 260L397 262L397 272L399 276L401 275L400 278L398 279L399 280L397 280L398 283L390 292L383 292L385 294L383 296L376 298L376 300L371 299L369 301L370 302L369 305L367 305L367 308L371 314L365 316L366 319L364 321L362 319L358 321L355 318L353 320L350 320L352 323L352 334L348 332L347 334L336 334L332 337L333 341L331 345L326 346L325 344L324 346L324 350L326 353L325 355L330 356L330 358L324 361L325 364L323 368L320 370L320 383L324 396L326 396L327 401L331 404L329 406L329 408L331 409L331 415L336 413L339 413L341 415L347 413L350 414L353 411L354 412L360 405L358 396L356 393L354 393L353 386L344 384L343 380L345 374L346 376L350 372L352 372L354 368L364 367L370 359L378 359L384 355L389 355L393 353L393 357L401 352L410 352L414 347L417 347L419 349L417 350L420 350L427 346L424 344L424 342L432 338L434 338L435 341L437 341L437 343L441 343L445 342L446 338L450 340L455 340L462 332L464 332L468 336L474 330L473 324L475 322zM660 256L657 255L651 258L659 260L660 257zM462 350L464 345L463 344L466 341L466 339L458 343L462 345L460 345L461 349zM450 349L452 347L457 346L455 345L457 344L456 342L453 343L450 348zM547 300L546 300zM520 324L519 324zM528 327L532 325L527 327zM504 328L505 327L503 327L504 328zM360 373L362 372L364 367L355 368L360 373zM446 345L448 345L447 344zM359 373L349 373L344 379L345 380L357 378L359 381L361 375L359 373zM509 328L510 328zM518 335L519 334L518 335zM434 350L436 350L434 350zM509 320L508 320zM517 326L518 326zM546 306L547 305L545 305zM507 330L507 328L506 330zM519 334L519 333zM505 332L505 330L505 332zM514 326L514 326zM478 336L481 335L478 334L478 336zM389 359L389 358zM512 322L512 323zM509 309L508 307L508 309zM509 322L509 322zM526 329L527 328L525 329zM479 330L480 330zM524 329L525 328L524 329zM478 332L477 333L479 331L478 332zM457 343L457 343zM545 295L545 295zM502 326L503 327L502 326zM643 388L643 390L648 390L649 393L646 396L642 396L648 397L651 393L649 388L646 388zM503 331L504 330L503 331zM555 303L556 303zM433 348L433 347zM466 348L467 347L465 347L466 348zM473 336L473 334L473 336zM432 346L432 346zM456 348L457 347L456 348zM547 295L547 296zM513 323L512 323zM550 300L550 300zM504 321L505 321zM546 307L547 306zM453 348L453 348zM354 393L355 392L353 392zM568 290L568 290zM518 327L518 326zM642 392L641 392zM504 323L504 324zM457 347L457 347zM365 380L363 379L360 382L361 384L363 384L365 381zM571 292L572 292zM361 410L362 408L361 409zM523 330L524 330zM354 369L355 369zM510 303L510 303zM463 350L462 349zM498 318L499 318zM353 372L355 373L354 372zM606 372L606 374L611 376L609 371L606 372zM605 378L607 381L608 380L605 377zM510 304L510 303z"/><path class="leaflet-interactive" stroke="#333" stroke-opacity="1" stroke-width="1" stroke-linecap="round" stroke-linejoin="round" stroke-dasharray="1,6" fill="#eee" fill-opacity="0.5" fill-rule="evenodd" d="M488 290L493 292L501 301L501 303L505 303L503 293L498 287L496 276L504 272L510 273L511 271L513 271L512 263L515 262L516 264L517 259L515 257L516 256L511 252L509 247L516 241L518 240L518 242L520 240L518 233L510 233L505 237L504 236L503 239L501 238L499 246L497 244L494 245L490 243L479 254L472 256L470 258L471 257L471 260L475 267L475 265L477 265L478 263L479 264L481 269L480 275L484 278L483 280L485 282L485 286L489 288L488 289z"/><path class="leaflet-interactive" stroke="#333" stroke-opacity="1" stroke-width="1" stroke-linecap="round" stroke-linejoin="round" stroke-dasharray="1,6" fill="#eee" fill-opacity="0.5" fill-rule="evenodd" d="M508 234L519 234L525 231L529 231L530 232L528 234L533 235L535 233L535 229L542 222L543 223L543 221L545 221L543 217L538 222L538 224L536 222L532 223L529 217L530 212L528 208L531 206L531 199L529 197L525 197L525 195L530 194L533 191L532 190L536 185L535 182L541 179L543 175L546 176L551 173L551 171L548 170L551 167L551 165L549 163L548 164L542 158L539 161L538 160L536 163L532 162L531 165L526 163L519 167L517 157L513 157L509 163L505 161L498 164L497 161L491 161L486 156L486 153L483 153L480 156L479 155L477 157L478 158L476 158L473 162L468 164L467 162L465 162L466 167L470 167L473 169L470 172L473 175L471 178L473 186L470 189L469 193L467 194L467 199L470 200L474 206L476 206L477 204L481 206L483 204L485 206L491 205L492 207L494 205L495 206L499 204L504 209L506 207L514 220L504 230L507 231L508 233z"/><path class="leaflet-interactive" stroke="#333" stroke-opacity="1" stroke-width="1" stroke-linecap="round" stroke-linejoin="round" stroke-dasharray="1,6" fill="#eee" fill-opacity="0.5" fill-rule="evenodd" d="M528 288L526 290L527 293L525 296L524 293L522 293L522 291L518 291L514 287L512 287L513 286L511 287L506 292L506 295L510 300L511 305L515 305L515 303L520 304L525 301L528 302L531 301L532 299L536 299L539 302L540 307L546 303L545 301L543 301L545 297L544 296L537 296L538 294L535 290L533 291L532 288L530 288L529 290L528 289zM509 309L508 307L508 309zM510 303L510 303zM510 304L510 303z"/><path class="leaflet-interactive" stroke="#333" stroke-opacity="1" stroke-width="1" stroke-linecap="round" stroke-linejoin="round" stroke-dasharray="1,6" fill="#fff" fill-opacity="0" fill-rule="evenodd" d="M484 309L479 309L481 311L476 319L476 325L484 335L488 329L498 325L496 318L498 317L502 308L500 306L498 309L494 308L493 313L495 315L491 318L488 316L484 309zM520 324L519 324zM528 327L532 325L527 327zM504 328L505 327L503 327L504 328zM509 328L510 328zM518 335L519 334L518 335zM509 320L508 320zM517 326L518 326zM507 330L507 328L506 330zM519 334L519 333zM514 326L514 326zM478 336L481 335L478 334L478 336zM505 332L505 330L505 332zM512 322L512 323zM509 322L509 322zM526 329L527 328L525 329zM479 330L480 330zM524 329L525 328L524 329zM478 332L477 333L479 331L478 332zM502 326L503 327L502 326zM503 331L504 330L503 331zM513 323L512 323zM504 321L505 321zM518 327L518 326zM504 323L504 324zM523 330L524 330zM498 318L499 318z"/><path class="leaflet-interactive" stroke="#333" stroke-opacity="1" stroke-width="1" stroke-linecap="round" stroke-linejoin="round" stroke-dasharray="1,6" fill="#eee" fill-opacity="0.5" fill-rule="evenodd" d="M633 274L634 272L638 271L641 268L646 268L644 266L644 263L649 256L649 248L646 247L646 249L641 250L640 258L635 256L634 259L630 257L630 254L628 256L625 254L623 257L624 261L619 272L626 277L629 274L632 274zM660 256L657 255L651 258L659 260L660 257z"/><path class="leaflet-interactive" stroke="#333" stroke-opacity="1" stroke-width="1" stroke-linecap="round" stroke-linejoin="round" stroke-dasharray="1,6" fill="#eee" fill-opacity="0.5" fill-rule="evenodd" d="M471 256L470 257L468 255L467 251L464 252L465 255L462 258L462 261L465 261L466 264L464 267L465 268L461 268L464 278L461 280L460 279L459 283L458 281L456 285L452 285L452 287L446 289L444 292L446 295L449 292L452 294L451 297L456 292L457 293L457 291L458 294L460 294L463 292L463 289L467 286L470 287L471 289L474 288L476 293L479 295L481 295L483 292L487 292L488 289L490 288L485 286L485 281L480 275L482 274L480 272L480 266L478 263L475 266L471 260L471 257zM462 279L462 279z"/><path class="leaflet-interactive" stroke="#333" stroke-opacity="1" stroke-width="1" stroke-linecap="round" stroke-linejoin="round" stroke-dasharray="1,6" fill="#fff" fill-opacity="0" fill-rule="evenodd" d="M434 309L433 312L430 311L429 314L426 316L429 319L428 322L437 325L436 326L439 329L441 329L443 335L440 343L442 343L445 342L446 338L450 340L455 340L462 332L464 332L468 336L470 335L474 330L473 324L480 315L481 311L479 309L483 309L483 305L480 302L479 296L475 290L466 286L461 294L459 294L458 291L455 294L454 293L453 296L451 297L452 294L450 292L448 294L450 298L447 299L446 296L444 297L445 298L443 301L440 300L438 306L436 309L435 308L435 310L434 309zM462 350L464 345L463 344L466 341L466 339L458 343L462 345L460 345L461 349zM450 349L452 347L457 346L455 345L457 344L456 342L453 343L450 348zM446 345L448 345L447 344zM457 343L457 343zM466 348L467 347L465 347L466 348zM473 336L473 334L473 336zM456 348L457 347L456 348zM453 348L453 348zM457 347L457 347zM463 350L462 349z"/><path class="leaflet-interactive" stroke="#333" stroke-opacity="1" stroke-width="1" stroke-linecap="round" stroke-linejoin="round" stroke-dasharray="1,6" fill="#eee" fill-opacity="0.5" fill-rule="evenodd" d="M365 366L364 363L362 364L359 362L361 360L357 355L358 352L354 350L354 344L352 344L351 342L353 338L351 338L351 336L353 334L348 332L347 334L336 334L332 337L333 341L331 345L326 346L325 344L325 355L330 356L330 358L324 361L325 364L323 368L320 370L320 383L324 396L326 396L327 401L331 404L329 406L329 408L331 409L331 415L336 413L339 413L341 415L347 413L350 414L353 411L354 412L360 405L358 396L356 393L354 393L353 386L344 384L343 378L345 377L345 374L346 376L350 372L352 372L354 368L364 367zM358 353L359 354L357 355L361 360L359 362L365 365L370 359L378 359L380 357L373 353L374 352L371 349L372 347L370 345L368 349L369 351L367 353L368 352L363 354L362 352L360 354L359 353zM353 333L355 331L354 330L353 332zM353 339L352 340L353 339zM360 373L362 372L364 367L355 368L360 373zM359 373L349 373L344 379L345 380L357 378L359 381L361 375L359 373zM368 351L368 352zM354 393L355 392L353 392zM365 380L363 379L360 382L361 384L363 384L365 381zM361 410L362 408L361 409zM354 369L355 369zM353 372L355 373L354 372z"/><path class="leaflet-interactive" stroke="#333" stroke-opacity="1" stroke-width="1" stroke-linecap="round" stroke-linejoin="round" stroke-dasharray="1,6" fill="#fff" fill-opacity="0" fill-rule="evenodd" d="M367 352L370 345L374 353L375 352L375 354L380 357L393 353L393 357L402 351L400 348L401 343L398 342L400 337L394 332L394 326L396 323L396 318L402 314L402 312L412 306L411 303L410 304L408 301L405 305L403 303L403 306L400 307L400 303L396 302L393 304L395 301L393 299L388 298L386 294L379 298L376 298L376 300L371 299L369 301L370 302L369 305L367 305L367 308L371 314L365 316L366 319L364 321L362 319L358 321L355 318L353 320L350 320L352 323L351 329L355 331L353 335L351 335L351 338L353 338L351 342L353 344L354 343L354 350L356 350L360 354L361 352L363 354L367 352zM358 353L359 354zM352 340L353 339L352 340zM368 352L368 353zM389 359L389 358zM357 355L357 355z"/><path class="leaflet-interactive" stroke="#333" stroke-opacity="1" stroke-width="1" stroke-linecap="round" stroke-linejoin="round" stroke-dasharray="1,6" fill="#eee" fill-opacity="0.5" fill-rule="evenodd" d="M464 252L460 248L462 247L461 245L459 245L460 242L458 242L456 238L458 235L457 233L449 229L449 225L446 222L447 215L441 210L439 210L440 212L438 217L436 217L434 220L429 216L427 220L425 218L421 218L420 221L424 230L418 234L417 239L413 237L410 238L409 242L411 243L409 247L403 249L403 253L399 257L399 260L397 262L402 265L405 264L407 266L405 267L408 270L418 273L424 272L426 275L434 275L437 273L441 274L438 283L440 283L440 288L445 290L450 287L452 288L453 285L457 284L458 281L459 283L460 280L464 278L461 269L463 269L466 264L466 262L464 260L463 261L462 259L465 255L464 252z"/><path class="leaflet-interactive" stroke="#333" stroke-opacity="1" stroke-width="1" stroke-linecap="round" stroke-linejoin="round" stroke-dasharray="1,6" fill="#eee" fill-opacity="0.5" fill-rule="evenodd" d="M541 296L550 289L552 291L550 296L551 300L556 299L558 300L557 302L559 301L560 297L564 293L563 290L560 288L560 283L568 278L569 279L576 273L576 271L578 271L578 269L582 267L579 263L577 264L575 260L571 260L566 263L563 262L562 264L560 262L556 268L556 271L553 268L553 264L551 262L550 263L548 258L547 259L549 253L546 251L546 253L542 249L543 248L540 244L537 245L535 242L534 243L532 239L532 234L528 234L530 232L525 231L519 234L520 237L518 242L518 240L509 246L509 248L511 249L511 251L517 259L516 264L512 262L513 270L510 272L514 274L516 273L518 275L520 274L524 278L523 279L525 279L529 284L528 289L529 290L533 288L533 290L536 290L537 296L540 295zM547 300L546 300zM546 306L547 305L545 305zM545 295L545 295zM555 303L556 303zM547 295L547 296zM550 300L550 300zM546 307L547 306z"/><path class="leaflet-interactive" stroke="#333" stroke-opacity="1" stroke-width="1" stroke-linecap="round" stroke-linejoin="round" stroke-dasharray="1,6" fill="#eee" fill-opacity="0.5" fill-rule="evenodd" d="M625 243L628 240L630 242L632 239L631 236L636 234L636 232L640 230L640 227L642 227L643 223L647 220L648 221L649 218L651 218L649 210L643 202L645 195L643 197L640 196L635 197L633 199L631 194L629 194L625 189L627 187L626 186L620 189L617 186L611 187L609 184L606 183L604 183L603 186L601 184L597 192L599 194L599 196L597 196L601 200L595 202L593 199L590 199L588 197L585 202L585 204L590 207L588 211L590 217L587 220L588 221L586 220L586 224L584 222L583 223L583 231L577 241L579 242L580 240L580 242L584 244L582 249L583 259L586 260L586 258L590 256L594 251L598 253L600 251L599 249L601 246L605 248L608 245L610 247L615 248L623 240L624 242z"/><path class="leaflet-interactive" stroke="#333" stroke-opacity="1" stroke-width="1" stroke-linecap="round" stroke-linejoin="round" stroke-dasharray="1,6" fill="#eee" fill-opacity="0.5" fill-rule="evenodd" d="M590 256L584 260L585 263L578 269L578 271L576 271L576 273L572 277L569 279L568 278L559 284L564 293L567 289L571 290L571 288L575 288L573 289L578 290L578 293L580 295L583 294L589 296L591 291L587 291L589 287L594 286L599 288L599 292L601 292L602 290L608 287L613 288L619 283L617 282L615 285L608 282L606 280L605 277L607 277L605 274L596 270L597 267L601 266L599 264L599 261L593 260L594 259L591 256zM643 388L643 390L648 390L649 393L646 396L642 396L648 397L651 393L649 388L646 388zM568 290L568 290zM642 392L641 392zM571 292L572 292zM606 372L606 374L611 376L609 371L606 372zM605 378L607 381L608 380L605 377z"/><path class="leaflet-interactive" stroke="#333" stroke-opacity="1" stroke-width="1" stroke-linecap="round" stroke-linejoin="round" stroke-dasharray="1,6" fill="#eee" fill-opacity="0.5" fill-rule="evenodd" d="M582 267L582 265L584 265L584 259L582 256L582 247L584 244L582 244L580 240L577 241L579 240L580 235L583 231L583 224L585 222L587 224L586 221L588 221L587 220L590 217L588 213L590 207L585 204L588 195L582 190L579 191L579 193L577 191L570 195L565 194L563 196L559 196L557 201L554 199L550 199L551 200L549 203L548 200L536 205L536 203L533 200L530 203L531 205L528 209L531 212L529 215L531 219L530 220L533 223L535 222L539 224L538 222L543 217L545 221L543 221L543 223L542 222L535 229L535 233L532 237L533 242L535 242L537 245L541 245L543 251L545 251L546 253L546 251L548 253L549 256L546 259L548 259L550 263L551 262L553 264L553 268L556 271L560 262L562 264L570 260L576 261L577 264L578 263L581 267z"/><path class="leaflet-interactive" stroke="#333" stroke-opacity="1" stroke-width="1" stroke-linecap="round" stroke-linejoin="round" stroke-dasharray="1,6" fill="#eee" fill-opacity="0.5" fill-rule="evenodd" d="M440 343L441 338L443 336L441 330L436 326L437 325L430 321L428 323L427 322L429 321L429 319L426 316L429 314L430 311L433 312L434 309L431 308L426 303L425 297L421 300L419 299L419 295L416 298L416 300L414 300L412 306L405 310L401 315L396 318L397 319L394 325L394 333L400 336L398 341L401 343L401 352L410 352L414 347L417 347L419 349L417 350L420 350L424 347L425 348L427 346L424 344L424 342L432 338L434 338L435 341L437 341L437 343L440 343zM434 350L436 350L434 350zM433 348L433 347zM432 346L432 346z"/><path class="leaflet-interactive" stroke="#333" stroke-opacity="1" stroke-width="1" stroke-linecap="round" stroke-linejoin="round" stroke-dasharray="1,6" fill="#eee" fill-opacity="0.5" fill-rule="evenodd" d="M472 183L463 185L462 182L460 181L459 175L455 172L452 173L447 172L446 170L445 172L443 170L435 170L432 180L434 183L434 187L432 187L423 196L423 200L425 200L427 203L426 206L429 210L429 212L425 217L424 216L424 218L427 220L429 216L433 220L438 216L438 213L440 213L439 210L441 210L447 217L446 222L449 225L449 229L458 234L456 238L458 242L460 242L459 245L462 246L460 248L464 252L467 252L467 255L470 257L476 254L480 254L481 250L483 250L484 248L485 249L485 247L487 247L489 243L492 243L494 245L497 244L499 246L501 244L500 240L505 238L504 237L508 234L505 230L506 228L510 226L511 221L514 219L510 216L508 210L499 204L495 206L494 205L492 207L489 205L484 206L483 204L481 206L477 204L475 206L473 205L467 199L467 194L469 193L470 188L473 186L472 184z"/><path class="leaflet-interactive" stroke="#333" stroke-opacity="1" stroke-width="1" stroke-linecap="round" stroke-linejoin="round" stroke-dasharray="1,6" fill="#eee" fill-opacity="0.5" fill-rule="evenodd" d="M528 288L529 285L527 280L524 280L524 278L520 274L519 275L516 273L514 274L505 272L501 273L496 277L497 284L501 291L503 292L506 293L512 286L518 291L522 291L522 293L524 293L525 295L527 293L527 288z"/><path class="leaflet-interactive" stroke="#333" stroke-opacity="1" stroke-width="1" stroke-linecap="round" stroke-linejoin="round" stroke-dasharray="1,6" fill="#eee" fill-opacity="0.5" fill-rule="evenodd" d="M498 308L503 303L501 303L501 301L492 292L488 290L483 292L479 296L487 316L493 318L495 316L493 313L495 312L494 309L496 308z"/><path class="leaflet-interactive" stroke="#333" stroke-opacity="1" stroke-width="1" stroke-linecap="round" stroke-linejoin="round" stroke-dasharray="1,6" fill="#eee" fill-opacity="0.5" fill-rule="evenodd" d="M650 253L654 254L656 252L663 251L663 248L656 244L655 237L652 234L653 229L650 224L654 220L652 218L650 218L648 221L644 221L643 225L640 227L641 228L637 230L637 232L632 236L631 242L628 240L625 243L629 246L632 246L632 250L634 252L633 253L638 258L640 258L641 249L643 251L646 248L648 248L650 251z"/><path class="leaflet-interactive" stroke="#333" stroke-opacity="1" stroke-width="1" stroke-linecap="round" stroke-linejoin="round" stroke-dasharray="1,6" fill="#eee" fill-opacity="0.5" fill-rule="evenodd" d="M633 274L629 274L626 277L619 272L622 267L624 261L623 258L625 254L627 254L628 256L630 254L631 255L629 257L632 257L634 260L635 257L637 258L633 253L634 252L632 246L627 245L623 240L616 246L616 248L609 247L609 245L605 248L601 246L599 248L599 253L594 252L590 256L594 259L594 261L598 260L600 262L599 265L601 266L596 269L602 274L605 273L605 276L607 276L605 278L608 283L609 282L615 285L622 281L626 283L631 282L635 278L634 274z"/><path class="leaflet-interactive" stroke="#333" stroke-opacity="1" stroke-width="1" stroke-linecap="round" stroke-linejoin="round" stroke-dasharray="1,6" fill="#eee" fill-opacity="0.5" fill-rule="evenodd" d="M448 294L447 293L446 295L444 290L440 288L440 284L438 284L440 278L439 277L441 275L440 273L435 275L426 275L424 272L418 273L410 271L405 268L407 267L405 263L403 265L398 263L397 265L398 275L401 275L400 278L398 279L399 280L397 280L398 283L390 292L383 292L387 294L388 298L396 301L394 301L393 303L400 303L400 307L403 306L403 303L405 305L406 302L408 301L409 304L412 304L419 295L420 298L418 299L422 300L424 297L426 299L426 303L435 310L440 300L443 301L442 300L444 300L446 295L447 299L450 298L449 294z"/></g></svg>