<svg xmlns="http://www.w3.org/2000/svg" pointer-events="none" class="leaflet-zoom-animated" width="1060" height="563" viewBox="-88 -47 1060 563" style="transform: translate3d(-88px, -47px, 0px);"><g><path class="leaflet-interactive" stroke="black" stroke-opacity="1" stroke-width="2" stroke-linecap="round" stroke-linejoin="round" fill="#fff" fill-opacity="0.2" fill-rule="evenodd" d="M561 174L557 173L559 169L558 167L557 168L555 166L550 168L548 166L544 170L545 173L543 174L543 176L541 176L541 180L539 182L537 182L534 178L533 181L532 178L526 178L526 180L521 183L522 184L526 181L529 182L527 187L530 191L527 193L525 191L524 192L524 190L519 190L517 192L517 189L515 186L513 186L510 189L510 191L512 192L510 192L508 194L509 195L507 195L509 203L502 195L500 196L496 191L491 195L492 196L487 196L489 198L487 198L487 205L484 209L481 208L473 212L469 212L471 211L468 206L467 208L465 206L465 202L463 203L462 206L461 205L458 208L456 208L457 204L454 203L453 198L449 198L450 194L445 190L445 188L439 190L438 193L436 193L435 196L433 196L435 200L434 207L431 206L430 209L425 210L421 209L408 218L403 220L396 220L399 226L398 229L394 233L392 233L390 237L387 234L387 232L381 233L371 228L366 228L364 222L356 222L356 220L353 219L345 225L345 229L339 231L336 235L333 235L331 237L322 232L319 237L321 237L323 245L327 248L326 249L329 252L331 252L330 248L333 245L341 248L345 246L348 247L348 249L353 252L351 254L353 258L355 258L352 261L355 265L359 263L363 267L367 267L367 263L371 261L373 263L373 267L375 265L380 265L380 267L382 267L383 265L385 265L386 262L389 262L392 265L393 269L398 275L398 277L396 278L396 290L389 296L389 294L382 292L376 298L372 298L376 302L373 301L368 306L370 313L369 314L376 315L384 322L389 321L390 318L399 319L402 325L410 324L413 321L416 321L419 325L421 323L421 325L427 328L424 331L425 332L422 336L423 338L418 338L416 340L415 345L415 351L419 351L421 354L421 368L425 367L433 371L437 371L435 375L436 377L439 377L446 382L448 380L451 384L451 387L455 384L457 384L458 387L464 387L473 384L479 390L481 389L488 391L489 390L487 389L491 387L491 392L495 390L501 390L507 383L509 383L510 385L511 384L511 387L513 386L512 385L514 385L514 387L520 386L531 388L533 390L527 394L532 397L537 395L550 395L550 393L554 389L558 394L560 394L562 392L560 389L560 385L567 384L569 380L568 377L571 373L576 374L577 372L589 372L587 368L588 361L586 360L586 358L589 359L591 357L594 360L597 358L599 358L599 360L601 359L601 355L607 353L605 349L604 350L604 346L602 344L605 344L605 340L607 338L608 340L609 338L612 339L612 337L617 336L621 333L619 331L625 331L632 325L634 322L633 319L635 319L634 318L637 314L635 315L633 311L635 310L633 306L633 302L635 299L634 298L639 292L639 288L647 283L645 282L645 279L649 276L653 278L654 273L660 269L657 264L657 257L661 255L662 256L662 254L665 252L662 245L663 243L659 238L659 234L660 232L663 231L662 230L657 231L655 229L648 229L646 234L644 234L641 237L636 234L639 228L637 226L638 223L636 220L638 218L635 212L631 213L629 211L621 217L621 221L616 223L617 222L615 220L615 214L618 209L622 207L621 204L630 196L632 192L631 183L632 181L635 181L637 179L636 176L639 175L633 173L628 175L627 173L626 170L629 163L628 160L630 154L627 155L626 152L617 151L615 148L613 152L614 155L607 155L605 154L605 152L604 153L600 151L597 153L596 157L588 163L588 166L585 170L583 170L583 168L580 165L576 167L574 165L576 159L573 160L571 158L567 161L565 166L561 168L563 171L561 175zM348 222L347 223zM530 415L532 415L532 413L530 414zM535 421L535 420zM519 386L518 387L520 387z"/><path class="leaflet-interactive" stroke="#333" stroke-opacity="1" stroke-width="1" stroke-linecap="round" stroke-linejoin="round" stroke-dasharray="1,6" fill="#fff" fill-opacity="0" fill-rule="evenodd" d="M536 303L534 304L535 305L529 301L528 302L528 300L526 301L522 299L522 297L518 294L516 287L517 283L514 278L504 285L502 283L502 279L499 278L501 276L499 272L501 269L503 269L502 267L500 267L496 269L497 272L494 274L493 278L491 278L489 275L489 277L487 276L484 279L481 279L482 282L479 287L476 286L468 290L468 296L474 296L472 300L473 301L461 304L460 308L454 305L450 309L452 313L450 315L455 315L457 317L456 322L458 326L461 325L461 323L465 325L466 324L464 322L467 320L471 324L478 326L481 329L480 334L482 335L484 333L485 335L484 337L481 337L480 342L485 348L485 350L489 354L490 353L493 357L498 354L502 355L505 352L505 348L507 346L508 347L509 345L513 345L514 342L534 342L534 340L534 342L538 343L542 336L549 336L554 334L552 330L549 329L549 327L546 325L548 324L543 321L540 317L542 315L537 312L536 304z"/><path class="leaflet-interactive" stroke="#333" stroke-opacity="1" stroke-width="1" stroke-linecap="round" stroke-linejoin="round" stroke-dasharray="1,6" fill="#fff" fill-opacity="0" fill-rule="evenodd" d="M577 245L579 241L578 236L574 234L571 235L571 233L568 232L568 229L567 230L564 227L554 227L554 220L556 216L555 211L558 208L561 197L561 192L559 189L563 185L561 183L561 179L559 178L561 174L557 173L559 169L558 167L557 168L555 166L550 168L548 166L544 170L545 173L543 174L543 176L541 176L541 180L539 182L537 182L534 178L533 181L532 178L526 178L526 180L521 183L522 184L526 181L529 182L527 187L530 191L527 193L525 191L524 192L524 190L519 190L517 192L515 186L513 186L510 189L510 191L512 192L510 192L508 194L509 195L507 195L507 198L509 199L508 200L510 208L513 209L511 213L517 213L519 210L523 212L528 208L530 210L530 215L525 221L526 223L530 221L532 221L533 223L532 229L530 227L527 227L523 232L524 236L519 241L519 243L520 242L523 245L528 245L528 247L526 247L526 250L525 249L522 251L524 262L531 264L530 265L532 265L532 267L536 267L536 265L538 266L542 273L544 273L549 269L549 266L553 264L554 261L558 261L558 259L563 255L564 256L567 253L568 257L570 255L571 256L573 254L575 246L574 245L576 245z"/><path class="leaflet-interactive" stroke="#333" stroke-opacity="1" stroke-width="1" stroke-linecap="round" stroke-linejoin="round" stroke-dasharray="1,6" fill="#eee" fill-opacity="0.5" fill-rule="evenodd" d="M621 221L616 223L617 222L615 220L615 214L618 209L622 207L621 204L630 196L632 192L631 183L632 181L635 181L637 179L636 176L639 175L633 173L628 175L627 173L626 170L629 163L628 160L630 154L627 155L626 152L617 151L615 148L613 152L614 155L607 155L605 154L605 152L604 153L600 151L597 153L596 157L588 163L588 166L585 170L583 170L583 168L580 165L578 167L574 165L576 159L573 160L571 158L568 160L565 166L561 168L563 173L559 175L558 178L562 181L561 183L563 185L559 189L561 191L561 197L559 206L555 210L556 216L554 220L554 226L564 227L567 230L569 230L568 232L571 233L571 235L574 234L578 236L579 241L577 245L578 247L581 246L580 251L582 250L584 252L583 253L586 254L591 251L592 253L593 250L594 251L596 248L596 250L600 249L607 253L608 249L610 249L611 255L615 252L616 254L618 252L615 250L619 245L619 243L616 240L616 237L622 232L624 228L624 224L622 224L621 222z"/><path class="leaflet-interactive" stroke="#333" stroke-opacity="1" stroke-width="1" stroke-linecap="round" stroke-linejoin="round" stroke-dasharray="1,6" fill="#eee" fill-opacity="0.5" fill-rule="evenodd" d="M589 266L589 270L587 273L594 276L594 278L597 277L598 279L596 281L596 285L598 287L600 294L597 299L598 302L601 303L601 305L596 308L596 312L600 312L602 313L602 315L606 317L604 324L608 326L606 329L608 332L610 332L612 336L611 337L617 336L621 333L619 331L625 331L632 325L634 322L633 319L635 319L634 318L637 314L635 315L633 311L635 310L633 306L633 302L635 299L634 298L639 292L639 288L647 283L645 282L645 279L647 277L646 271L641 267L643 262L641 260L638 264L635 264L636 270L631 275L624 271L621 276L617 278L618 279L615 282L615 286L612 283L612 277L610 278L609 276L611 276L610 274L604 270L605 267L602 265L602 262L604 260L599 256L599 253L596 250L596 248L593 251L593 253L589 252L586 254L589 258L590 257L591 261L590 260L592 262L590 262L587 265L589 266z"/><path class="leaflet-interactive" stroke="#333" stroke-opacity="1" stroke-width="1" stroke-linecap="round" stroke-linejoin="round" stroke-dasharray="1,6" fill="#eee" fill-opacity="0.5" fill-rule="evenodd" d="M553 372L539 372L533 375L530 373L524 376L525 375L523 379L519 380L519 384L521 387L531 388L533 390L527 394L532 397L537 395L550 395L550 393L554 389L558 394L560 394L562 392L560 389L561 384L557 382L558 373L554 372zM530 415L532 415L532 413L530 414zM535 421L535 420z"/><path class="leaflet-interactive" stroke="#333" stroke-opacity="1" stroke-width="1" stroke-linecap="round" stroke-linejoin="round" stroke-dasharray="1,6" fill="#eee" fill-opacity="0.5" fill-rule="evenodd" d="M485 349L479 352L480 353L478 353L478 355L475 357L463 358L465 363L459 373L461 374L461 378L460 381L457 383L457 387L464 387L473 384L479 390L481 389L488 391L489 390L487 389L491 387L491 392L495 390L501 390L505 386L507 383L503 381L504 378L501 374L502 373L500 371L493 372L490 369L489 360L493 356L491 355L491 353L489 354L485 350z"/><path class="leaflet-interactive" stroke="#333" stroke-opacity="1" stroke-width="1" stroke-linecap="round" stroke-linejoin="round" stroke-dasharray="1,6" fill="#eee" fill-opacity="0.5" fill-rule="evenodd" d="M553 372L553 367L551 363L553 353L556 353L556 351L560 349L562 352L564 352L565 349L563 346L565 343L564 339L560 338L560 340L558 340L559 339L555 334L549 336L548 335L546 337L541 337L539 339L540 342L538 343L535 342L534 340L534 342L514 342L513 345L512 344L507 347L506 346L503 355L496 355L489 360L489 366L493 372L501 372L501 374L504 377L503 381L505 380L510 385L511 384L511 387L513 386L512 385L514 385L514 387L520 386L519 380L524 378L525 375L524 376L546 371L547 373L550 373L553 371zM519 386L518 387L520 387z"/><path class="leaflet-interactive" stroke="#333" stroke-opacity="1" stroke-width="1" stroke-linecap="round" stroke-linejoin="round" stroke-dasharray="1,6" fill="#fff" fill-opacity="0" fill-rule="evenodd" d="M556 335L557 333L559 333L559 331L562 330L560 327L561 325L562 326L565 323L562 319L570 317L574 321L575 320L577 324L582 324L585 319L584 318L587 315L594 315L596 308L601 305L601 303L598 302L597 299L600 294L599 289L596 286L596 282L598 279L596 277L593 277L594 276L587 274L589 271L588 266L585 268L586 273L584 276L581 273L579 275L578 274L573 279L571 279L566 290L567 292L564 296L564 294L559 295L558 298L555 297L550 303L548 300L542 299L543 298L540 297L538 301L536 301L535 303L538 308L537 313L541 313L542 315L540 317L544 322L548 323L546 325L548 327L549 326L554 335L555 334z"/><path class="leaflet-interactive" stroke="#333" stroke-opacity="1" stroke-width="1" stroke-linecap="round" stroke-linejoin="round" stroke-dasharray="1,6" fill="#eee" fill-opacity="0.5" fill-rule="evenodd" d="M556 335L559 339L558 340L561 338L565 340L563 345L565 348L564 351L563 352L559 349L556 352L554 352L552 355L553 357L551 359L551 363L553 366L552 370L558 373L557 383L561 383L561 385L567 384L569 380L568 377L571 373L576 374L577 372L589 372L587 368L588 361L586 360L586 358L589 359L591 357L594 360L597 358L599 358L599 360L601 359L601 355L607 353L605 349L604 350L604 346L602 344L605 344L605 340L607 338L608 340L609 338L612 339L610 333L607 332L606 330L608 326L604 324L606 317L602 315L600 312L596 312L590 316L587 315L584 318L585 319L583 321L583 324L577 324L575 320L574 321L570 317L566 317L562 320L565 323L562 326L560 326L560 329L562 330L556 334z"/><path class="leaflet-interactive" stroke="#333" stroke-opacity="1" stroke-width="1" stroke-linecap="round" stroke-linejoin="round" stroke-dasharray="1,6" fill="#fff" fill-opacity="0" fill-rule="evenodd" d="M415 214L403 220L396 220L399 226L398 229L394 233L392 233L390 237L387 234L387 232L381 233L371 228L366 228L364 222L356 222L356 220L353 219L345 225L345 229L339 231L336 235L333 235L331 237L322 232L319 237L321 237L323 245L327 248L326 249L329 252L331 252L330 248L333 245L341 248L345 246L348 247L348 249L353 252L351 254L353 258L355 258L352 261L355 265L359 263L363 267L367 267L367 263L371 261L373 263L373 267L375 265L380 265L380 267L382 267L383 265L385 265L386 262L389 262L392 265L393 269L398 275L398 277L396 278L396 290L389 296L389 294L382 292L376 298L372 298L376 302L373 301L368 306L370 313L369 314L376 315L384 322L389 321L390 318L393 318L399 319L402 325L410 324L413 321L416 321L419 325L426 315L424 311L433 303L440 304L444 301L449 301L453 306L454 305L459 308L463 303L467 304L469 303L469 301L473 301L472 300L475 296L472 297L468 295L467 288L472 283L472 281L468 279L469 278L462 279L458 274L454 277L452 272L451 273L447 269L441 269L440 266L437 265L436 267L432 263L430 263L428 259L431 257L429 253L430 249L428 249L424 242L425 239L422 237L421 238L422 236L425 235L425 233L419 229L422 227L424 229L428 225L422 218L424 216L423 213L417 216L416 215zM348 222L347 223z"/><path class="leaflet-interactive" stroke="#333" stroke-opacity="1" stroke-width="1" stroke-linecap="round" stroke-linejoin="round" stroke-dasharray="1,6" fill="#eee" fill-opacity="0.5" fill-rule="evenodd" d="M647 277L649 276L653 278L654 273L660 269L657 264L657 257L661 255L662 256L662 254L665 252L662 245L663 243L659 238L660 232L663 231L648 229L646 234L644 234L643 236L641 237L637 235L636 234L639 228L637 226L638 223L636 220L638 218L636 216L637 214L635 212L631 213L629 211L621 217L621 221L623 224L624 223L624 230L616 237L616 241L619 243L616 250L618 251L612 255L609 249L607 250L607 253L600 249L598 249L597 252L599 252L600 257L604 260L602 262L605 268L604 270L611 275L610 278L612 278L612 283L615 286L615 282L618 279L617 278L619 278L624 271L626 271L627 274L633 275L636 271L635 264L639 264L641 260L643 262L641 267L646 271L646 275z"/><path class="leaflet-interactive" stroke="#333" stroke-opacity="1" stroke-width="1" stroke-linecap="round" stroke-linejoin="round" stroke-dasharray="1,6" fill="#eee" fill-opacity="0.5" fill-rule="evenodd" d="M415 214L417 216L422 213L424 214L422 218L428 225L425 227L425 229L419 229L426 235L420 238L424 237L426 246L428 247L428 249L430 249L429 253L431 256L428 259L430 262L433 263L432 264L436 267L437 265L440 266L441 269L446 270L447 268L448 271L450 273L451 272L455 277L457 274L459 274L459 276L462 279L468 278L469 280L471 280L472 285L467 287L468 290L478 285L479 287L482 283L481 280L483 278L484 279L489 275L492 278L497 272L497 268L505 268L505 266L507 267L507 261L511 261L511 254L514 252L513 251L515 249L519 252L519 255L522 256L522 251L524 249L526 250L528 245L524 245L520 242L519 243L518 241L522 239L521 238L524 236L523 233L527 228L533 228L533 224L531 221L527 223L525 222L525 220L530 216L529 209L528 208L524 212L519 211L517 213L511 213L513 209L510 208L510 204L502 195L500 196L496 191L491 195L492 196L487 196L489 198L487 198L487 205L484 209L481 208L473 212L469 212L471 211L468 206L467 208L465 206L465 202L463 203L462 206L461 205L458 208L456 208L457 204L454 203L453 198L449 198L450 194L445 190L445 188L439 190L438 193L436 193L435 196L433 196L435 200L434 207L431 206L430 209L425 210L421 209L416 214z"/><path class="leaflet-interactive" stroke="#333" stroke-opacity="1" stroke-width="1" stroke-linecap="round" stroke-linejoin="round" stroke-dasharray="1,6" fill="#fff" fill-opacity="0" fill-rule="evenodd" d="M522 256L519 255L517 250L515 250L513 252L514 253L511 255L511 261L507 261L507 267L502 267L503 269L500 270L499 272L502 274L499 278L502 279L502 283L504 285L513 278L516 280L518 294L523 300L527 300L529 302L530 301L531 304L532 303L535 305L535 301L542 297L542 299L548 299L550 303L556 297L559 297L559 295L564 294L564 296L567 293L566 291L570 281L578 274L579 275L581 273L584 275L586 273L584 270L585 268L589 266L587 264L589 262L592 263L592 261L590 261L592 259L587 254L586 255L583 252L583 250L580 251L581 246L578 247L576 245L574 245L575 246L572 252L573 255L570 255L568 257L567 253L558 259L558 261L554 261L552 265L548 267L549 269L545 273L541 271L539 266L536 265L536 267L532 267L532 265L530 265L531 264L525 262L522 256z"/><path class="leaflet-interactive" stroke="#333" stroke-opacity="1" stroke-width="1" stroke-linecap="round" stroke-linejoin="round" stroke-dasharray="1,6" fill="#eee" fill-opacity="0.5" fill-rule="evenodd" d="M420 323L422 324L421 325L427 328L424 331L425 332L422 336L423 338L418 338L416 340L415 345L415 351L419 351L421 354L420 358L422 363L420 367L425 367L433 371L437 371L435 375L436 377L439 377L446 382L448 380L451 384L451 387L457 384L460 380L461 368L466 363L463 358L475 356L476 357L480 353L479 352L485 348L484 345L480 343L480 337L483 337L485 335L482 335L480 333L482 329L474 324L471 324L467 320L464 321L467 324L466 325L464 323L461 323L461 325L458 326L455 315L450 316L452 314L450 312L452 307L450 301L440 304L434 303L430 307L426 308L424 312L424 314L426 314L420 323z"/></g></svg>