<svg xmlns="http://www.w3.org/2000/svg" pointer-events="none" class="leaflet-zoom-animated" width="1060" height="624" viewBox="-88 -52 1060 624" style="transform: translate3d(-88px, -52px, 0px);"><g><path class="leaflet-interactive" stroke="black" stroke-opacity="1" stroke-width="2" stroke-linecap="round" stroke-linejoin="round" fill="#fff" fill-opacity="0.2" fill-rule="evenodd" d="M551 173L550 169L540 164L542 161L536 155L539 154L537 150L522 150L520 154L521 160L518 162L518 164L503 169L503 172L501 174L503 196L501 200L495 200L491 205L488 201L474 202L466 197L460 196L460 200L454 218L451 225L449 226L448 231L448 235L453 238L453 243L452 244L448 242L442 242L440 239L426 245L423 244L418 247L414 246L410 250L412 252L414 251L415 254L417 254L419 271L424 282L423 284L425 289L419 291L419 294L421 294L416 296L414 300L416 308L414 311L415 313L410 313L408 317L403 318L391 324L390 326L389 325L385 328L383 327L382 330L377 333L377 335L366 336L363 334L359 337L358 343L353 350L348 349L343 351L341 343L335 348L329 346L328 347L330 350L326 350L321 355L315 355L314 360L312 362L314 363L313 368L309 368L307 370L308 373L313 378L312 380L310 380L311 383L315 388L317 384L323 385L328 388L328 396L331 403L329 405L334 410L330 414L325 413L322 416L324 418L329 418L329 420L334 418L338 420L337 421L339 424L340 423L345 425L348 431L348 434L346 436L347 438L349 438L350 442L354 442L356 440L356 442L363 447L374 450L376 448L382 449L380 451L380 456L382 457L381 458L384 466L391 468L394 471L398 469L408 469L411 462L410 461L412 461L413 457L416 454L416 451L419 450L423 452L427 452L429 450L431 452L434 451L439 454L443 453L445 451L444 450L448 448L451 444L453 444L456 446L458 445L462 451L479 451L487 446L496 443L501 446L509 442L513 435L526 432L527 433L531 430L533 432L550 429L550 431L553 433L555 431L568 437L572 437L571 436L575 434L577 436L583 436L586 438L590 437L591 436L589 434L589 428L584 427L584 422L592 418L593 415L589 409L582 404L581 392L579 392L578 394L574 390L575 388L578 389L583 385L611 378L610 373L615 367L620 345L633 343L637 333L645 325L649 324L652 320L655 319L658 324L659 321L671 315L670 311L672 310L669 304L675 298L675 295L667 286L667 283L661 270L659 270L660 264L653 265L648 263L647 260L629 248L628 249L624 247L622 248L598 246L596 244L592 245L591 243L587 243L583 235L586 227L589 224L587 218L590 212L588 204L583 199L580 194L581 192L578 186L574 183L574 181L572 180L571 182L569 182L563 176L559 178L552 173z"/><path class="leaflet-interactive" stroke="#333" stroke-opacity="1" stroke-width="1" stroke-linecap="round" stroke-linejoin="round" stroke-dasharray="1,6" fill="#eee" fill-opacity="0.5" fill-rule="evenodd" d="M532 269L530 269L528 272L529 275L524 281L521 289L522 291L526 291L538 296L536 293L530 290L530 286L534 287L543 285L545 288L547 288L549 285L554 284L556 280L549 273L548 275L545 274L543 276L540 270L537 268L540 249L530 248L534 260L536 262L532 270z"/><path class="leaflet-interactive" stroke="#333" stroke-opacity="1" stroke-width="1" stroke-linecap="round" stroke-linejoin="round" stroke-dasharray="1,6" fill="#eee" fill-opacity="0.5" fill-rule="evenodd" d="M492 253L492 250L496 247L496 239L500 236L502 230L507 225L507 221L499 221L496 224L497 225L494 231L488 233L489 234L485 241L487 245L486 246L489 247L491 252zM494 263L488 262L488 267L494 263z"/><path class="leaflet-interactive" stroke="#333" stroke-opacity="1" stroke-width="1" stroke-linecap="round" stroke-linejoin="round" stroke-dasharray="1,6" fill="#fff" fill-opacity="0" fill-rule="evenodd" d="M603 330L601 324L602 318L599 311L596 309L595 293L591 282L575 280L572 282L563 283L556 279L555 282L549 285L549 287L547 288L545 288L544 285L534 287L530 286L530 290L532 290L539 296L533 295L532 297L538 298L544 303L539 309L540 313L543 314L543 316L546 319L545 325L560 328L572 328L578 331L590 330L596 332L602 330z"/><path class="leaflet-interactive" stroke="#333" stroke-opacity="1" stroke-width="1" stroke-linecap="round" stroke-linejoin="round" stroke-dasharray="1,6" fill="#eee" fill-opacity="0.5" fill-rule="evenodd" d="M597 246L598 250L595 253L593 261L593 270L598 275L594 277L597 279L591 282L595 293L596 308L599 311L602 318L601 325L603 327L603 330L613 333L619 333L624 336L634 338L637 333L645 325L649 324L652 320L655 319L658 324L659 321L671 315L670 311L672 310L669 304L675 298L675 295L667 286L667 283L661 270L659 270L660 264L653 265L648 263L647 260L629 248L628 249L624 247L622 248L598 246z"/><path class="leaflet-interactive" stroke="#333" stroke-opacity="1" stroke-width="1" stroke-linecap="round" stroke-linejoin="round" stroke-dasharray="1,6" fill="#eee" fill-opacity="0.5" fill-rule="evenodd" d="M583 237L580 238L576 248L540 248L537 268L540 270L541 274L543 276L545 274L548 275L549 273L550 276L560 281L561 280L563 283L573 282L575 280L590 282L595 280L597 278L594 277L598 276L596 272L593 270L593 262L595 254L598 250L596 244L592 245L591 243L587 243L587 241L585 241L585 238zM534 258L530 248L530 240L503 240L503 250L505 250L507 253L507 256L510 260L510 266L507 271L508 272L506 272L504 275L505 276L501 281L508 284L510 283L514 288L518 290L522 289L523 284L529 275L528 272L533 267L531 262L531 258L533 257z"/><path class="leaflet-interactive" stroke="#333" stroke-opacity="1" stroke-width="1" stroke-linecap="round" stroke-linejoin="round" stroke-dasharray="1,6" fill="#fff" fill-opacity="0" fill-rule="evenodd" d="M447 254L447 252L443 255L445 259L443 259L444 260L442 261L441 260L440 263L448 265L450 264L452 267L458 269L462 268L467 270L466 267L468 261L473 259L473 254L471 251L467 248L461 247L456 244L453 247L456 252L452 255L445 256L446 255zM446 250L444 248L447 248L448 245L445 242L442 242L440 239L426 245L423 244L418 247L414 246L410 250L412 252L416 251L419 254L423 255L423 257L438 262L439 261L440 263L441 260L442 261L444 260L443 259L445 259L443 255L446 252L448 254L445 251L446 250zM448 254L452 255L449 252L447 252L448 253zM446 249L448 251L454 249L452 246L451 248L448 247L447 250zM453 243L446 243L453 247L455 244z"/><path class="leaflet-interactive" stroke="#333" stroke-opacity="1" stroke-width="1" stroke-linecap="round" stroke-linejoin="round" stroke-dasharray="1,6" fill="#eee" fill-opacity="0.5" fill-rule="evenodd" d="M506 318L504 320L505 322L498 320L498 318L500 317L496 315L496 308L488 308L484 305L475 303L476 308L474 309L476 315L474 323L476 325L477 333L476 355L466 371L466 390L473 397L476 406L476 410L473 414L473 422L480 426L481 430L483 433L487 435L492 444L496 443L501 446L509 442L513 435L526 432L527 433L531 430L533 432L550 429L550 431L553 433L555 431L568 437L572 437L571 436L575 434L577 436L583 436L586 438L590 437L591 436L589 434L589 428L584 427L584 422L592 418L593 415L589 409L582 404L581 392L579 392L578 394L574 390L575 388L578 389L583 385L611 378L610 373L615 367L620 345L633 343L634 338L606 330L596 332L590 330L579 331L574 330L572 328L547 326L545 325L546 319L543 316L543 314L540 313L539 310L544 303L538 298L534 297L524 298L523 302L525 304L519 306L518 308L520 311L517 314L517 318L506 319zM454 301L457 300L457 302L465 302L467 304L477 303L480 305L496 308L496 314L499 316L500 310L514 318L517 318L516 316L520 311L518 309L519 306L523 304L525 305L523 302L524 298L530 298L533 296L530 292L525 292L516 289L510 284L502 281L497 282L493 280L489 283L486 283L487 284L484 286L486 289L472 289L470 291L469 290L454 294L451 297L454 301zM505 318L513 318L512 316L510 317L504 314L500 310L499 316L504 318z"/><path class="leaflet-interactive" stroke="#333" stroke-opacity="1" stroke-width="1" stroke-linecap="round" stroke-linejoin="round" stroke-dasharray="1,6" fill="#eee" fill-opacity="0.5" fill-rule="evenodd" d="M385 357L394 352L409 354L409 348L411 348L413 342L412 339L417 339L421 343L430 342L442 337L454 326L460 327L460 330L467 334L469 332L477 341L476 326L474 323L476 316L474 310L475 303L468 304L460 301L457 302L457 300L442 306L430 307L430 309L427 306L420 306L418 308L417 307L414 311L414 314L410 313L408 317L403 318L387 327L391 332L393 338L389 341L389 344L382 349L380 355L384 356zM421 344L417 339L412 339L413 344L412 343L412 346L409 347L410 349L408 365L414 368L467 368L476 356L477 341L469 332L467 334L454 325L452 329L445 333L441 338L440 341L443 347L423 349L421 348L425 347L422 345z"/><path class="leaflet-interactive" stroke="#333" stroke-opacity="1" stroke-width="1" stroke-linecap="round" stroke-linejoin="round" stroke-dasharray="1,6" fill="#eee" fill-opacity="0.5" fill-rule="evenodd" d="M385 357L382 355L381 356L380 353L383 348L389 344L393 336L386 327L383 327L382 330L377 333L377 335L366 336L363 334L359 337L358 343L353 350L348 349L343 351L341 343L335 348L329 346L328 347L330 350L326 350L321 355L315 355L314 360L312 362L314 363L313 368L309 368L307 370L308 373L313 378L312 380L310 380L315 388L317 384L323 385L328 388L329 393L336 394L339 400L345 400L345 405L351 402L351 404L353 401L355 401L357 390L353 388L354 387L352 385L351 386L344 379L346 377L348 378L348 375L350 374L345 372L345 374L342 375L344 376L342 379L340 378L343 372L337 375L337 364L342 364L345 366L356 366L361 361L364 360L372 360L373 358L384 357z"/><path class="leaflet-interactive" stroke="#333" stroke-opacity="1" stroke-width="1" stroke-linecap="round" stroke-linejoin="round" stroke-dasharray="1,6" fill="#eee" fill-opacity="0.5" fill-rule="evenodd" d="M328 393L331 403L329 405L334 410L330 414L325 413L322 416L324 418L329 418L329 420L334 418L338 420L337 421L339 424L340 423L345 425L348 431L348 434L346 436L347 438L349 438L350 442L354 442L356 440L356 442L359 445L374 450L377 446L377 440L378 441L375 437L377 435L376 433L373 432L373 430L370 428L374 425L371 423L374 419L374 407L379 399L388 390L399 382L405 382L407 368L399 363L393 365L390 362L392 361L392 363L394 363L393 362L396 361L394 361L395 358L399 356L398 352L392 352L385 357L381 358L376 357L364 360L361 361L356 366L345 366L338 364L336 368L337 375L343 372L340 378L342 379L344 376L342 375L345 374L345 372L350 373L348 374L348 378L343 379L346 380L347 383L351 386L352 385L354 387L353 388L357 390L357 394L352 404L351 402L345 405L345 400L338 400L338 396L336 394L329 393zM399 363L407 368L409 354L399 352L399 356L403 355L405 357L405 359L400 360L401 361L399 361L399 363z"/><path class="leaflet-interactive" stroke="#333" stroke-opacity="1" stroke-width="1" stroke-linecap="round" stroke-linejoin="round" stroke-dasharray="1,6" fill="#eee" fill-opacity="0.5" fill-rule="evenodd" d="M418 433L428 433L432 436L433 431L434 432L434 443L435 446L437 446L436 454L443 453L445 451L444 450L448 448L451 444L456 446L458 445L462 451L464 450L470 452L476 450L479 451L492 444L489 437L482 432L481 426L473 422L473 414L476 410L476 406L473 397L466 390L467 368L414 368L408 365L405 381L399 382L388 390L379 399L377 402L385 405L388 403L388 407L399 414L399 410L402 410L401 411L406 409L406 407L410 409L421 397L419 401L419 406L410 413L413 413L410 420L417 429L415 433zM410 409L408 413L405 412L406 410L401 412L401 415L387 406L377 402L375 405L373 413L374 418L371 422L373 425L370 428L373 430L373 432L378 435L375 437L378 440L376 447L378 449L382 449L380 451L380 456L382 457L381 458L384 466L391 468L394 471L398 469L408 469L411 462L410 461L412 461L413 457L416 454L416 451L421 450L423 452L427 452L429 450L431 452L434 451L436 453L437 447L434 444L436 438L433 430L432 436L425 433L415 433L416 429L413 424L414 423L410 421L413 414L410 413L419 406L419 399L421 397L410 408zM407 411L409 411L410 409L408 407L407 410L405 411L407 411zM408 413L409 411L405 411L408 413zM428 433L428 433z"/><path class="leaflet-interactive" stroke="#333" stroke-opacity="1" stroke-width="1" stroke-linecap="round" stroke-linejoin="round" stroke-dasharray="1,6" fill="#eee" fill-opacity="0.5" fill-rule="evenodd" d="M491 282L489 278L487 279L485 276L481 276L474 271L473 272L462 268L455 269L450 265L433 260L434 264L429 270L429 272L425 272L430 273L422 274L424 277L423 284L425 289L422 289L418 292L419 294L421 294L416 296L414 300L415 307L418 308L420 306L426 306L430 309L430 307L442 306L454 301L451 296L452 295L460 292L462 293L465 291L470 291L472 289L483 290L486 289L486 287L484 286L487 284L487 282L491 283zM429 271L434 264L434 261L422 256L422 254L419 254L416 251L415 254L417 254L418 257L417 259L419 268L421 270L421 266L423 267L423 273L427 271zM494 263L496 258L495 256L490 258L488 262L492 262zM422 276L421 275z"/><path class="leaflet-interactive" stroke="#333" stroke-opacity="1" stroke-width="1" stroke-linecap="round" stroke-linejoin="round" stroke-dasharray="1,6" fill="#fff" fill-opacity="0" fill-rule="evenodd" d="M487 245L485 242L489 234L488 233L494 231L498 221L493 220L490 213L487 211L490 203L488 201L474 202L466 197L460 196L460 200L454 218L451 225L449 226L448 235L453 238L453 243L460 247L471 250L473 253L473 259L468 260L466 267L468 270L473 272L474 271L475 273L476 272L481 276L485 276L487 279L489 278L491 282L493 280L497 282L502 281L510 267L508 267L507 263L509 258L505 250L503 250L503 241L497 240L495 242L496 246L492 250L492 256L495 256L496 260L495 263L493 263L489 267L488 263L490 256L486 252L486 244zM496 240L530 240L530 226L525 213L527 208L525 199L514 199L509 201L495 200L491 205L488 206L487 210L490 213L490 217L493 220L499 222L501 220L505 220L508 222L502 230L500 236L496 239z"/><path class="leaflet-interactive" stroke="#333" stroke-opacity="1" stroke-width="1" stroke-linecap="round" stroke-linejoin="round" stroke-dasharray="1,6" fill="#eee" fill-opacity="0.5" fill-rule="evenodd" d="M547 195L545 194L545 191L550 183L549 180L546 179L551 173L550 169L540 164L542 161L536 155L539 154L537 150L522 150L520 154L521 160L518 162L518 164L503 169L503 172L501 174L503 196L501 200L509 201L514 199L525 199L524 195L531 191L533 191L533 193L537 193L536 192L546 196zM551 173L548 175L548 178L546 179L549 180L550 182L545 191L545 194L547 195L545 198L538 198L533 193L533 191L524 194L525 202L527 205L525 213L530 225L530 248L576 248L578 242L583 237L586 227L589 224L587 218L590 212L589 207L580 194L581 192L578 186L574 183L574 181L572 180L571 182L569 182L563 176L559 178L552 173z"/><path class="leaflet-interactive" stroke="#333" stroke-opacity="1" stroke-width="1" stroke-linecap="round" stroke-linejoin="round" stroke-dasharray="1,6" fill="#eee" fill-opacity="0.5" fill-rule="evenodd" d="M510 260L507 263L508 267L510 267L510 262z"/><path class="leaflet-interactive" stroke="#333" stroke-opacity="1" stroke-width="1" stroke-linecap="round" stroke-linejoin="round" stroke-dasharray="1,6" fill="#eee" fill-opacity="0.5" fill-rule="evenodd" d="M442 337L430 342L424 342L421 344L424 347L422 346L423 347L421 348L440 348L442 347L440 341L441 338z"/><path class="leaflet-interactive" stroke="#333" stroke-opacity="1" stroke-width="1" stroke-linecap="round" stroke-linejoin="round" stroke-dasharray="1,6" fill="#eee" fill-opacity="0.5" fill-rule="evenodd" d="M399 363L399 361L401 361L400 360L405 359L403 355L396 356L394 361L396 361L393 362L394 363L392 364L392 362L390 362L393 365L397 363z"/><path class="leaflet-interactive" stroke="#333" stroke-opacity="1" stroke-width="1" stroke-linecap="round" stroke-linejoin="round" stroke-dasharray="1,6" fill="#eee" fill-opacity="0.5" fill-rule="evenodd" d="M532 269L533 266L535 266L536 264L533 257L530 258L533 265L532 268z"/><path class="leaflet-interactive" stroke="#333" stroke-opacity="1" stroke-width="1" stroke-linecap="round" stroke-linejoin="round" stroke-dasharray="1,6" fill="#eee" fill-opacity="0.5" fill-rule="evenodd" d="M533 193L538 198L539 197L543 199L547 196L537 193zM533 191L532 192L533 191z"/><path class="leaflet-interactive" stroke="#333" stroke-opacity="1" stroke-width="1" stroke-linecap="round" stroke-linejoin="round" stroke-dasharray="1,6" fill="#eee" fill-opacity="0.5" fill-rule="evenodd" d="M500 316L498 320L503 320L504 322L504 318zM510 319L506 318L510 319zM499 316L499 316z"/><path class="leaflet-interactive" stroke="#333" stroke-opacity="1" stroke-width="1" stroke-linecap="round" stroke-linejoin="round" stroke-dasharray="1,6" fill="#eee" fill-opacity="0.5" fill-rule="evenodd" d="M447 252L452 254L456 251L454 249L448 251L445 250L446 252zM447 248L443 248L447 249zM448 255L447 253L445 256L447 255zM450 255L450 255zM451 246L448 245L448 247L451 248z"/><path class="leaflet-interactive" stroke="#333" stroke-opacity="1" stroke-width="1" stroke-linecap="round" stroke-linejoin="round" stroke-dasharray="1,6" fill="#eee" fill-opacity="0.5" fill-rule="evenodd" d="M419 268L421 276L423 273L423 267L422 266L420 268L421 270L420 269zM423 273L430 273L424 272zM427 272L429 272L427 271zM422 276L422 278L424 277L424 275L422 274L422 276zM429 272L429 271z"/><path class="leaflet-interactive" stroke="#333" stroke-opacity="1" stroke-width="1" stroke-linecap="round" stroke-linejoin="round" stroke-dasharray="1,6" fill="#eee" fill-opacity="0.5" fill-rule="evenodd" d="M405 411L405 411zM407 408L406 407L407 410zM388 407L388 403L385 404L385 406L388 407zM401 412L402 410L399 410L401 415zM428 434L428 432L428 434zM408 407L409 407z"/><path class="leaflet-interactive" stroke="#333" stroke-opacity="1" stroke-width="1" stroke-linecap="round" stroke-linejoin="round" stroke-dasharray="1,6" fill="#eee" fill-opacity="0.5" fill-rule="evenodd" d="M490 258L493 256L493 254L486 244L485 248L487 254L490 256z"/></g></svg>