<svg xmlns="http://www.w3.org/2000/svg" pointer-events="none" class="leaflet-zoom-animated" width="1060" height="563" viewBox="-88 -47 1060 563" style="transform: translate3d(-88px, -47px, 0px);"><g><path class="leaflet-interactive" stroke="black" stroke-opacity="1" stroke-width="2" stroke-linecap="round" stroke-linejoin="round" fill="#fff" fill-opacity="0.2" fill-rule="evenodd" d="M556 253L560 251L563 254L562 255L567 259L568 258L569 260L574 253L583 250L585 252L588 247L597 245L599 241L596 238L603 233L601 229L603 225L600 221L601 215L599 213L599 209L595 207L594 202L590 203L592 201L587 199L587 197L586 198L584 195L585 194L583 193L583 187L585 187L585 183L591 180L591 178L587 175L588 172L583 168L567 169L566 166L560 166L560 164L556 162L557 160L554 156L555 154L548 155L546 149L542 151L542 153L539 155L542 156L541 161L536 162L529 168L524 168L520 164L520 162L525 156L527 156L531 148L528 147L528 145L527 146L521 142L517 143L515 151L512 151L503 157L501 155L496 155L490 160L483 159L475 153L468 154L466 156L466 160L458 166L456 163L453 164L450 162L451 167L453 167L452 170L450 171L449 169L445 168L442 170L442 172L440 172L440 170L439 173L440 175L440 173L442 173L442 175L439 178L437 177L433 179L433 177L431 177L423 181L416 181L413 179L411 180L411 186L402 187L402 189L397 195L397 199L398 201L400 200L399 202L401 204L402 203L403 207L406 207L405 219L403 221L409 225L407 227L411 229L411 233L402 241L399 242L401 247L400 248L395 250L393 249L393 251L388 253L387 255L389 260L381 269L380 273L382 275L381 282L386 284L393 281L393 289L389 294L389 296L391 296L391 299L396 303L392 311L393 319L404 324L403 331L400 337L401 338L398 340L397 343L398 344L408 341L410 343L408 346L401 349L401 357L395 366L399 374L399 376L397 376L397 380L399 380L398 382L400 382L402 385L402 387L400 388L401 389L408 386L413 388L414 385L417 386L419 383L421 384L424 381L428 386L432 386L433 390L430 393L433 395L432 397L428 399L425 398L422 402L420 402L417 405L418 408L415 411L415 415L407 418L407 420L411 420L413 424L414 423L418 426L418 428L424 424L425 425L430 423L431 426L433 422L438 422L438 424L440 423L441 419L446 419L448 417L450 419L454 418L453 417L459 414L461 416L461 414L464 413L467 414L471 421L476 423L476 425L483 424L480 419L482 417L480 417L479 415L481 410L480 409L482 409L482 407L485 409L486 408L484 404L486 404L485 401L487 399L485 397L484 392L487 391L491 386L490 383L491 377L493 375L493 367L495 367L499 363L496 361L496 359L507 354L508 350L513 346L512 343L508 343L508 339L514 331L518 333L519 329L515 323L516 320L514 317L516 313L515 310L522 301L529 301L538 295L538 293L544 286L542 286L541 284L542 278L540 273L538 273L536 270L538 267L540 269L541 266L548 264L548 262L550 261L550 258L548 258L549 256L550 255L552 257L555 254zM522 162L522 161zM522 162L523 162z"/><path class="leaflet-interactive" stroke="#333" stroke-opacity="1" stroke-width="1" stroke-linecap="round" stroke-linejoin="round" stroke-dasharray="1,6" fill="#eee" fill-opacity="0.5" fill-rule="evenodd" d="M466 198L469 204L465 212L470 212L469 220L472 220L470 221L471 224L469 227L470 229L473 228L475 230L473 232L475 232L475 230L480 231L482 229L485 235L486 233L489 235L492 234L501 242L503 238L511 237L516 228L516 224L511 219L511 214L508 211L505 212L505 210L501 207L501 205L505 205L507 203L509 200L509 196L504 192L502 194L503 198L501 198L501 196L497 194L498 192L490 192L486 194L487 195L483 200L482 199L482 203L475 202L476 201L467 197z"/><path class="leaflet-interactive" stroke="#333" stroke-opacity="1" stroke-width="1" stroke-linecap="round" stroke-linejoin="round" stroke-dasharray="1,6" fill="#eee" fill-opacity="0.5" fill-rule="evenodd" d="M568 169L565 166L560 166L560 164L556 162L557 160L554 156L555 154L548 155L546 149L542 151L542 153L539 155L542 156L542 158L537 166L539 181L536 184L536 186L539 193L534 202L535 205L547 212L549 212L556 206L560 208L561 207L561 203L557 199L559 195L558 190L555 191L553 187L556 184L559 175L561 175L567 170z"/><path class="leaflet-interactive" stroke="#333" stroke-opacity="1" stroke-width="1" stroke-linecap="round" stroke-linejoin="round" stroke-dasharray="1,6" fill="#eee" fill-opacity="0.5" fill-rule="evenodd" d="M396 303L401 293L403 293L403 291L406 289L406 285L400 281L402 279L406 279L412 271L408 268L409 267L405 262L402 263L397 260L394 256L396 254L397 255L399 251L393 249L393 251L388 253L387 255L389 260L381 269L380 273L382 275L382 283L386 284L393 281L393 289L389 296L391 296L391 299L394 303z"/><path class="leaflet-interactive" stroke="#333" stroke-opacity="1" stroke-width="1" stroke-linecap="round" stroke-linejoin="round" stroke-dasharray="1,6" fill="#eee" fill-opacity="0.5" fill-rule="evenodd" d="M522 166L520 162L525 156L527 156L531 148L528 147L528 145L527 146L521 142L517 143L515 151L512 151L503 157L501 155L496 155L490 160L483 159L475 153L468 154L466 156L466 160L458 166L456 163L453 164L450 162L451 167L453 167L452 170L450 171L449 169L445 168L442 170L442 172L440 172L440 170L439 173L440 175L440 173L442 173L442 175L439 178L437 177L433 179L433 177L431 177L423 181L416 181L413 179L411 180L411 186L402 187L402 189L397 195L397 199L398 201L400 200L399 202L401 204L402 203L403 207L405 206L407 210L409 207L415 213L420 214L420 212L424 210L426 210L428 214L432 214L436 212L436 210L439 211L445 197L454 193L460 193L474 201L476 200L475 201L480 204L482 200L484 200L487 193L498 192L498 195L501 196L501 198L503 198L502 194L504 192L507 195L509 195L512 190L515 190L520 186L515 181L515 170L513 168L519 168L520 166L521 167zM522 162L522 161zM522 162L523 162z"/><path class="leaflet-interactive" stroke="#333" stroke-opacity="1" stroke-width="1" stroke-linecap="round" stroke-linejoin="round" stroke-dasharray="1,6" fill="#eee" fill-opacity="0.5" fill-rule="evenodd" d="M423 270L428 274L435 269L439 271L447 264L449 265L451 263L451 265L455 262L458 262L463 256L457 257L455 255L452 255L450 253L452 248L451 245L444 245L439 249L439 247L436 248L434 244L431 244L425 247L427 251L423 252L423 254L421 255L423 259L426 258L426 264L423 269L424 270z"/><path class="leaflet-interactive" stroke="#333" stroke-opacity="1" stroke-width="1" stroke-linecap="round" stroke-linejoin="round" stroke-dasharray="1,6" fill="#eee" fill-opacity="0.5" fill-rule="evenodd" d="M556 253L556 245L548 242L550 237L548 235L551 230L550 222L546 217L546 219L543 221L539 218L536 223L535 222L531 224L530 230L526 232L527 237L524 236L522 237L522 239L524 239L523 240L525 241L526 240L527 244L531 246L532 245L533 248L534 247L538 251L536 255L538 258L540 255L541 256L541 254L548 257L550 255L552 257L555 254z"/><path class="leaflet-interactive" stroke="#333" stroke-opacity="1" stroke-width="1" stroke-linecap="round" stroke-linejoin="round" stroke-dasharray="1,6" fill="#eee" fill-opacity="0.5" fill-rule="evenodd" d="M400 353L401 357L395 366L399 374L399 376L397 376L397 380L399 380L398 382L400 382L402 385L402 387L400 388L401 389L408 386L413 388L414 385L417 386L419 383L421 384L424 381L428 386L432 386L433 390L430 393L433 395L432 397L428 399L425 398L422 402L420 402L417 405L418 408L415 411L415 415L407 418L407 420L411 420L413 424L414 423L418 426L418 428L424 424L425 425L430 423L431 426L433 422L438 422L438 424L440 423L441 419L446 419L448 417L450 419L454 418L453 417L459 414L461 416L461 414L464 413L467 414L468 417L469 416L472 422L473 421L476 423L476 425L479 425L483 424L480 419L482 417L480 417L479 415L481 410L480 409L482 409L482 407L485 409L486 408L484 404L486 404L485 401L487 399L485 397L484 392L487 391L491 386L490 383L491 377L493 375L493 367L495 367L499 363L496 361L496 359L507 354L508 350L513 346L512 343L508 343L508 339L514 331L518 333L519 329L517 327L518 326L511 321L504 327L501 324L503 322L501 320L503 319L496 316L498 308L497 303L499 299L497 299L496 294L493 294L491 295L491 298L481 310L476 310L478 316L475 319L470 319L469 317L465 317L463 319L460 318L458 319L459 320L455 324L455 326L452 325L449 327L446 331L449 338L447 341L449 343L448 345L442 341L439 343L430 343L427 342L427 340L425 340L420 345L419 348L419 346L417 346L411 351L408 350L401 353z"/><path class="leaflet-interactive" stroke="#333" stroke-opacity="1" stroke-width="1" stroke-linecap="round" stroke-linejoin="round" stroke-dasharray="1,6" fill="#eee" fill-opacity="0.5" fill-rule="evenodd" d="M412 271L406 279L402 279L400 281L406 286L406 288L399 296L397 300L398 301L396 302L392 311L393 319L404 324L403 331L400 337L401 338L398 340L397 343L398 344L408 341L410 343L408 346L401 349L401 353L408 350L411 351L416 346L419 347L425 340L432 344L433 342L439 343L441 341L448 345L449 344L447 341L449 338L446 332L449 327L452 325L455 326L459 318L462 319L465 317L469 317L469 319L476 319L478 314L476 313L477 309L481 311L482 308L487 303L482 297L482 295L477 296L473 290L473 288L476 288L476 280L478 279L473 277L472 272L478 265L478 262L468 255L469 252L465 254L465 252L458 261L452 263L451 265L451 263L449 265L447 263L445 266L446 267L445 268L444 266L439 271L435 269L428 274L423 271L418 273L413 272z"/><path class="leaflet-interactive" stroke="#333" stroke-opacity="1" stroke-width="1" stroke-linecap="round" stroke-linejoin="round" stroke-dasharray="1,6" fill="#fff" fill-opacity="0" fill-rule="evenodd" d="M423 270L426 264L426 258L423 259L421 255L427 250L425 247L430 244L434 244L435 247L439 247L439 249L444 245L451 245L452 246L450 252L451 255L453 256L456 255L460 257L463 256L462 255L464 252L466 254L467 252L469 252L468 255L475 259L478 264L482 264L484 262L484 258L492 254L496 249L497 243L494 242L496 237L494 235L489 235L487 233L485 235L482 229L478 232L476 230L474 232L472 228L470 230L469 229L471 224L471 220L469 220L470 213L465 212L467 206L468 207L469 205L464 194L455 193L445 197L442 202L443 203L441 208L438 211L435 211L436 212L433 214L427 213L426 210L421 211L420 214L415 213L409 207L406 210L405 219L403 221L409 225L407 227L411 229L411 233L402 241L399 242L401 247L395 250L399 252L397 255L396 254L394 256L399 262L406 262L409 267L408 268L413 272L418 273L423 270z"/><path class="leaflet-interactive" stroke="#333" stroke-opacity="1" stroke-width="1" stroke-linecap="round" stroke-linejoin="round" stroke-dasharray="1,6" fill="#fff" fill-opacity="0" fill-rule="evenodd" d="M487 303L491 298L491 295L493 294L495 294L497 299L499 299L497 303L498 308L496 316L503 319L503 322L501 324L504 327L511 322L514 324L516 322L514 315L516 313L515 310L519 304L522 301L529 301L536 297L544 286L542 286L541 284L542 278L540 273L538 273L536 270L538 267L540 269L541 266L548 264L550 258L548 258L546 255L545 256L541 254L541 256L540 255L538 258L536 256L538 251L535 249L535 247L533 248L532 245L531 246L526 243L526 240L525 241L522 239L523 236L526 237L527 233L524 229L516 230L516 224L516 228L513 232L512 237L505 237L501 239L501 241L496 237L494 242L497 243L497 246L493 253L484 257L483 264L479 263L472 272L474 278L478 278L476 287L473 290L477 296L482 295L484 301L487 302z"/><path class="leaflet-interactive" stroke="#333" stroke-opacity="1" stroke-width="1" stroke-linecap="round" stroke-linejoin="round" stroke-dasharray="1,6" fill="#eee" fill-opacity="0.5" fill-rule="evenodd" d="M556 253L560 251L563 254L562 255L567 259L568 258L569 260L574 253L583 250L585 252L588 247L592 247L598 244L599 241L596 238L603 233L601 229L603 225L600 221L601 215L599 213L599 209L595 207L594 202L590 203L592 201L587 199L587 197L586 198L584 195L585 194L583 193L583 187L585 187L585 183L589 182L591 178L587 175L588 172L583 168L569 169L561 175L559 175L558 180L555 182L556 183L553 186L553 188L555 191L558 189L559 195L557 199L561 203L561 207L560 208L557 206L547 213L547 211L545 211L542 208L538 208L534 204L539 192L536 184L539 181L537 167L540 162L536 162L529 168L524 168L522 166L517 168L514 166L514 175L516 178L515 181L520 186L510 192L509 200L505 205L501 205L501 207L505 210L505 212L508 211L511 214L510 217L517 225L517 230L530 230L530 224L534 222L536 224L539 218L543 221L547 217L551 227L551 230L548 234L550 237L548 241L556 244L556 253z"/></g></svg>