<svg xmlns="http://www.w3.org/2000/svg" pointer-events="none" class="leaflet-zoom-animated" width="1060" height="563" viewBox="-88 -47 1060 563" style="transform: translate3d(-88px, -47px, 0px);"><g><path class="leaflet-interactive" stroke="black" stroke-opacity="1" stroke-width="2" stroke-linecap="round" stroke-linejoin="round" fill="#fff" fill-opacity="0.2" fill-rule="evenodd" d="M442 171L440 173L430 173L429 176L425 168L428 162L424 162L421 160L423 159L423 154L416 154L414 152L410 153L410 155L403 154L403 163L401 164L397 162L394 166L388 169L383 168L376 159L372 161L371 160L369 162L371 162L369 164L369 168L368 167L368 169L362 171L361 161L358 154L356 154L356 148L351 146L348 142L350 142L349 139L347 139L350 137L347 137L347 135L343 132L340 132L339 129L338 133L327 131L327 133L317 135L314 138L313 146L311 146L313 150L311 154L315 154L315 156L318 157L320 161L326 166L324 166L336 169L341 175L346 173L350 175L350 182L353 186L355 186L353 192L360 195L360 197L362 197L361 198L364 200L372 200L372 198L375 198L378 203L385 200L388 206L391 204L391 202L395 205L394 207L397 214L399 213L401 215L398 224L400 227L405 225L410 227L409 226L412 226L414 223L417 225L420 223L428 225L426 225L427 231L423 235L423 245L420 244L418 247L418 252L416 255L414 255L416 256L412 264L416 266L415 267L418 270L418 272L426 269L427 266L430 267L430 275L432 282L433 284L436 284L431 288L431 291L432 294L435 294L435 298L437 300L440 300L440 304L443 304L445 302L453 304L456 302L465 302L463 299L464 293L468 293L468 288L470 289L471 285L473 285L473 287L482 285L481 289L483 289L488 296L492 295L495 314L494 315L492 313L492 315L490 316L490 320L486 324L482 319L480 320L476 316L473 316L474 314L469 315L469 313L466 314L465 312L461 312L461 314L454 313L452 315L455 319L455 323L461 323L460 330L461 329L462 333L460 333L461 334L458 336L459 339L457 342L451 344L450 343L448 345L449 348L442 352L441 354L442 357L439 364L446 368L447 374L451 376L450 377L452 379L457 377L461 380L457 385L462 386L466 382L467 387L470 386L472 388L472 402L468 406L465 405L462 412L461 411L465 413L467 417L486 416L492 411L494 414L498 415L503 414L503 411L505 414L505 420L506 419L506 421L508 420L510 422L515 422L518 426L524 421L526 422L531 420L532 423L534 421L540 421L541 426L545 432L548 433L554 439L569 438L568 443L572 441L572 439L576 452L582 445L586 445L588 443L590 444L590 436L592 437L596 433L600 435L602 433L603 427L601 427L601 425L605 423L610 424L614 421L613 415L615 412L619 412L616 407L619 405L619 401L624 397L628 397L633 392L618 377L622 371L629 368L633 370L638 377L644 378L645 380L648 381L672 387L672 380L670 375L664 362L658 354L644 349L644 347L639 345L641 342L641 338L638 337L636 326L634 323L626 322L619 318L617 315L608 312L607 306L604 305L607 301L608 293L606 290L605 282L601 278L599 264L597 264L598 260L592 256L589 242L582 231L578 218L568 198L568 193L564 180L540 168L535 168L528 163L522 161L521 159L510 152L512 149L514 149L513 148L505 146L511 147L512 146L510 144L502 145L496 143L493 135L495 123L498 121L499 125L500 124L500 119L497 117L489 119L488 122L472 124L468 138L465 139L466 142L463 143L464 144L462 147L466 149L460 152L455 151L455 149L451 149L447 153L446 152L447 155L445 157L444 156L443 159L443 168zM472 395L471 396zM635 318L637 318z"/><path class="leaflet-interactive" stroke="#333" stroke-opacity="1" stroke-width="1" stroke-linecap="round" stroke-linejoin="round" stroke-dasharray="1,6" fill="#eee" fill-opacity="0.5" fill-rule="evenodd" d="M485 323L482 319L480 320L476 316L473 316L474 314L469 315L469 313L466 314L465 312L461 312L461 314L454 313L452 315L455 319L454 322L461 323L460 330L461 329L462 333L460 333L461 334L458 336L459 339L456 343L450 343L448 345L449 348L442 352L442 357L439 364L446 368L447 374L451 376L450 377L452 379L457 377L461 380L458 383L458 386L462 386L466 382L467 387L470 386L472 388L472 402L468 406L465 405L462 412L461 411L465 413L467 417L486 416L494 408L489 400L495 389L494 385L492 385L493 382L484 374L480 376L479 375L481 375L478 371L485 368L486 369L488 366L487 364L482 362L488 360L488 358L486 358L487 351L486 352L486 350L484 351L481 349L483 346L488 344L494 344L496 342L492 340L483 339L483 329L481 328L483 323zM472 395L471 396z"/><path class="leaflet-interactive" stroke="#333" stroke-opacity="1" stroke-width="1" stroke-linecap="round" stroke-linejoin="round" stroke-dasharray="1,6" fill="#eee" fill-opacity="0.5" fill-rule="evenodd" d="M515 422L518 426L524 421L526 422L531 420L532 423L534 421L540 421L552 414L558 408L566 403L580 398L580 396L583 394L583 390L580 389L583 387L581 383L583 380L583 376L578 373L579 372L575 367L569 365L569 359L558 364L546 361L545 362L545 371L548 372L551 369L555 368L557 369L556 373L558 376L555 377L553 385L548 390L553 396L547 405L548 407L551 407L551 409L547 408L546 406L548 398L547 396L541 393L535 394L528 391L527 392L524 388L519 393L517 397L518 400L514 407L514 416L516 417L515 421z"/><path class="leaflet-interactive" stroke="#333" stroke-opacity="1" stroke-width="1" stroke-linecap="round" stroke-linejoin="round" stroke-dasharray="1,6" fill="#eee" fill-opacity="0.5" fill-rule="evenodd" d="M442 171L440 173L430 173L429 176L425 168L428 162L424 162L421 160L423 159L423 154L416 154L414 152L410 153L410 155L403 154L403 163L401 164L397 162L394 166L388 169L383 168L376 159L372 161L371 160L369 162L371 162L369 164L369 168L368 167L368 169L362 171L361 161L358 154L356 154L356 148L351 146L348 142L350 142L349 139L347 139L350 137L347 137L347 135L343 132L340 132L339 129L338 133L327 131L327 133L317 135L314 138L313 146L311 146L313 150L311 154L315 154L315 156L318 157L320 161L326 166L324 166L336 169L341 175L346 173L350 175L350 182L353 186L355 186L353 192L360 195L360 197L362 197L361 198L364 200L372 200L372 198L375 198L378 203L385 200L388 206L391 204L391 202L395 205L394 207L397 214L399 213L401 215L398 224L400 227L405 225L410 227L409 226L412 226L414 223L417 225L420 223L426 225L427 224L428 217L424 208L423 210L418 206L420 201L419 198L416 197L416 195L421 192L423 194L428 192L430 194L430 197L449 196L449 193L452 192L452 184L454 181L457 180L456 178L459 172L455 170L453 172L443 172z"/><path class="leaflet-interactive" stroke="#333" stroke-opacity="1" stroke-width="1" stroke-linecap="round" stroke-linejoin="round" stroke-dasharray="1,6" fill="#eee" fill-opacity="0.5" fill-rule="evenodd" d="M546 361L540 358L538 355L532 354L530 357L531 364L529 364L531 365L529 369L533 370L527 379L521 373L520 374L517 369L513 370L510 367L507 370L509 371L508 372L502 369L500 375L500 379L502 379L502 381L500 385L496 387L489 400L494 407L493 413L498 415L503 414L503 411L505 414L504 418L505 420L506 419L506 421L508 420L510 422L515 422L516 418L514 407L516 401L518 400L517 397L523 388L526 392L528 391L534 394L541 392L544 396L548 397L546 405L547 408L550 409L551 407L547 406L548 401L551 400L553 396L548 391L553 385L556 376L558 376L555 371L557 369L556 368L548 371L544 369L546 368L545 362z"/><path class="leaflet-interactive" stroke="#333" stroke-opacity="1" stroke-width="1" stroke-linecap="round" stroke-linejoin="round" stroke-dasharray="1,6" fill="#eee" fill-opacity="0.5" fill-rule="evenodd" d="M540 421L541 426L545 432L548 433L554 439L569 438L568 443L572 441L572 439L576 452L582 445L586 445L588 443L590 444L590 436L592 437L596 433L600 435L602 433L603 427L601 427L601 425L605 423L610 424L614 421L613 415L615 412L619 412L616 407L619 405L619 401L624 397L628 397L633 392L618 377L614 375L604 374L595 357L583 358L575 355L571 357L568 361L570 364L569 365L574 367L579 371L578 373L583 376L583 380L581 383L583 387L581 389L580 388L580 390L582 390L584 394L581 395L579 399L572 400L561 406L552 414z"/><path class="leaflet-interactive" stroke="#333" stroke-opacity="1" stroke-width="1" stroke-linecap="round" stroke-linejoin="round" stroke-dasharray="1,6" fill="#eee" fill-opacity="0.5" fill-rule="evenodd" d="M558 313L561 313L562 315L561 320L563 329L565 331L568 331L567 339L569 342L567 347L569 349L578 351L578 353L581 356L580 357L594 357L605 375L613 375L617 377L622 371L629 368L633 370L638 377L644 378L645 380L648 381L672 387L672 380L670 375L664 362L658 354L644 349L644 347L639 345L641 342L641 338L638 337L636 326L634 323L626 322L619 318L617 315L608 312L608 308L600 310L600 312L597 314L592 314L590 312L587 315L587 313L585 311L585 313L583 309L577 311L573 310L573 307L571 307L570 304L563 307L559 307L558 312zM635 318L637 318z"/><path class="leaflet-interactive" stroke="#333" stroke-opacity="1" stroke-width="1" stroke-linecap="round" stroke-linejoin="round" stroke-dasharray="1,6" fill="#eee" fill-opacity="0.5" fill-rule="evenodd" d="M533 167L510 152L512 149L514 149L505 146L511 147L512 146L510 144L502 145L496 143L493 135L495 123L498 121L499 125L500 124L500 119L497 117L489 119L488 122L472 124L468 138L465 139L466 142L463 143L464 144L462 147L466 149L460 152L455 151L455 149L451 149L447 153L446 152L447 155L445 157L444 156L443 159L444 167L442 171L446 173L450 171L453 172L455 170L459 174L457 177L465 181L467 181L470 176L477 175L477 178L480 175L480 173L483 174L483 172L486 172L484 175L484 179L485 178L485 184L487 189L489 189L489 194L492 196L491 197L494 201L501 203L506 202L508 206L515 202L515 204L517 204L516 200L518 199L513 191L526 183L532 175L531 174L533 169z"/><path class="leaflet-interactive" stroke="#333" stroke-opacity="1" stroke-width="1" stroke-linecap="round" stroke-linejoin="round" stroke-dasharray="1,6" fill="#eee" fill-opacity="0.5" fill-rule="evenodd" d="M492 295L498 297L502 296L503 290L501 282L504 279L502 277L501 272L496 270L494 266L491 266L490 260L496 259L496 255L520 249L518 246L516 246L515 243L514 244L512 242L510 232L512 232L511 229L516 218L522 213L522 209L520 209L519 205L516 203L515 204L515 202L509 206L504 202L496 202L492 198L489 203L483 208L484 210L481 213L479 211L473 214L472 213L469 216L467 222L468 227L465 233L468 238L464 252L466 255L449 262L443 268L430 268L432 282L433 284L436 284L431 288L431 291L432 294L435 294L435 298L437 300L440 300L440 304L443 304L445 302L453 304L456 302L465 302L463 299L464 293L468 293L468 288L470 289L471 285L473 285L473 287L482 285L481 289L483 289L488 296z"/><path class="leaflet-interactive" stroke="#333" stroke-opacity="1" stroke-width="1" stroke-linecap="round" stroke-linejoin="round" stroke-dasharray="1,6" fill="#eee" fill-opacity="0.5" fill-rule="evenodd" d="M608 308L607 306L604 305L607 301L608 293L606 290L605 282L601 278L599 264L597 264L598 260L592 256L589 242L582 231L578 218L568 198L568 193L564 180L540 168L533 167L531 173L532 175L529 178L529 180L513 191L515 196L518 198L517 204L522 211L522 213L516 217L511 228L512 232L510 233L512 241L514 244L515 243L516 246L520 248L517 251L517 253L519 253L521 258L526 261L525 265L529 269L529 272L535 270L543 271L550 268L559 272L564 272L564 287L556 287L556 291L558 292L555 296L555 299L559 299L553 306L552 312L556 311L558 313L559 308L569 304L571 307L573 307L573 309L577 311L583 309L585 311L584 312L585 313L585 311L587 313L587 315L590 312L592 314L597 314L603 310z"/><path class="leaflet-interactive" stroke="#333" stroke-opacity="1" stroke-width="1" stroke-linecap="round" stroke-linejoin="round" stroke-dasharray="1,6" fill="#eee" fill-opacity="0.5" fill-rule="evenodd" d="M495 341L506 341L510 338L513 339L516 337L518 338L517 341L519 341L519 339L520 342L521 339L527 335L535 334L536 325L535 323L533 323L533 312L534 310L538 311L538 307L536 307L536 300L533 298L534 297L531 296L531 289L528 290L526 288L526 283L524 276L522 274L522 270L526 267L526 261L525 259L523 260L521 258L521 256L519 253L517 253L516 250L497 255L495 256L497 259L490 260L490 266L493 266L495 270L500 272L504 278L501 282L503 290L502 296L498 297L493 295L495 314L494 315L492 313L492 315L490 316L490 320L486 324L483 323L481 327L483 331L483 338L486 340L492 340z"/><path class="leaflet-interactive" stroke="#333" stroke-opacity="1" stroke-width="1" stroke-linecap="round" stroke-linejoin="round" stroke-dasharray="1,6" fill="#eee" fill-opacity="0.5" fill-rule="evenodd" d="M495 387L499 385L502 381L502 379L500 379L502 369L508 371L507 370L509 367L513 370L516 369L520 374L521 373L527 379L528 378L528 376L533 370L529 369L531 365L529 364L531 364L530 360L532 355L535 354L542 358L537 340L533 335L528 335L521 339L520 342L520 340L519 339L519 341L517 341L517 338L515 337L513 339L510 338L506 341L495 341L496 342L494 344L488 344L482 347L482 350L486 350L486 352L487 351L486 356L488 359L488 361L486 360L482 362L487 363L488 366L487 369L479 370L478 371L481 374L479 375L480 376L484 374L492 382L492 385L494 385L494 387L495 386z"/><path class="leaflet-interactive" stroke="#333" stroke-opacity="1" stroke-width="1" stroke-linecap="round" stroke-linejoin="round" stroke-dasharray="1,6" fill="#eee" fill-opacity="0.5" fill-rule="evenodd" d="M580 357L581 356L578 353L578 351L567 347L569 342L567 339L568 331L565 331L563 329L561 313L558 313L556 310L553 312L552 310L555 303L556 304L556 302L558 302L559 300L559 298L555 299L558 293L556 291L556 287L564 287L564 272L559 272L551 268L543 271L536 270L530 272L528 271L528 266L526 265L522 274L526 282L526 288L528 290L531 289L531 296L534 297L534 299L536 299L536 307L538 307L539 311L533 311L533 323L535 323L536 325L535 333L533 335L537 340L541 355L546 361L558 364L575 355L578 356z"/><path class="leaflet-interactive" stroke="#333" stroke-opacity="1" stroke-width="1" stroke-linecap="round" stroke-linejoin="round" stroke-dasharray="1,6" fill="#eee" fill-opacity="0.5" fill-rule="evenodd" d="M492 198L489 192L490 191L489 189L487 189L486 186L486 181L484 177L486 172L481 173L477 178L476 175L470 176L467 181L457 177L457 181L454 181L452 184L452 192L449 192L448 197L431 197L428 192L426 192L426 194L421 192L416 194L416 197L419 198L420 201L418 205L423 210L424 208L428 219L426 221L428 225L426 225L427 231L423 235L423 245L420 244L418 247L418 252L416 255L414 255L416 256L414 261L412 262L412 264L416 266L415 267L418 270L418 272L426 269L427 266L443 268L449 262L466 255L464 252L468 238L465 233L467 232L468 228L467 219L472 213L473 214L479 211L481 213L484 208L483 207L490 201L491 198z"/></g></svg>