<svg xmlns="http://www.w3.org/2000/svg" pointer-events="none" class="leaflet-zoom-animated" width="1060" height="563" viewBox="-88 -47 1060 563" style="transform: translate3d(-88px, -47px, 0px);"><g><path class="leaflet-interactive" stroke="black" stroke-opacity="1" stroke-width="2" stroke-linecap="round" stroke-linejoin="round" fill="#fff" fill-opacity="0.2" fill-rule="evenodd" d="M378 304L379 316L377 320L380 324L379 326L381 325L386 329L387 331L384 332L388 332L390 334L389 341L390 340L392 343L395 344L397 348L399 348L398 349L403 356L407 354L407 356L411 356L415 360L420 361L424 364L425 363L430 368L430 366L438 371L441 368L444 370L445 368L448 367L457 370L462 367L468 368L469 366L476 368L476 366L478 365L484 370L483 371L488 374L490 372L494 372L494 370L496 370L498 366L502 366L504 372L504 374L502 375L504 377L502 383L505 387L503 389L506 390L505 391L508 397L510 397L510 395L512 396L513 402L517 401L522 396L528 402L537 403L537 401L541 401L541 405L539 408L540 412L543 411L546 414L550 414L549 415L552 417L557 417L558 415L560 417L560 415L563 415L566 411L565 410L567 410L571 412L569 416L569 418L572 420L571 421L577 420L577 415L583 405L585 405L591 400L599 401L601 399L600 397L602 393L601 392L603 384L599 361L601 358L600 357L599 360L595 363L595 361L592 362L590 366L585 367L586 366L580 359L578 359L578 357L574 359L574 357L570 357L570 353L568 353L569 342L561 340L561 338L557 338L554 335L557 333L555 327L557 326L561 330L567 330L571 328L575 323L574 322L576 318L574 314L574 310L576 310L575 307L578 307L581 304L589 303L585 292L588 291L589 287L585 287L585 285L589 277L597 276L599 280L600 278L603 279L605 281L605 285L608 288L607 289L612 296L624 291L625 288L631 285L635 286L635 282L629 273L631 271L630 267L632 265L623 265L622 262L615 259L615 257L613 256L613 253L615 252L614 248L612 249L609 246L605 246L604 248L598 249L593 247L592 249L585 249L580 243L579 235L574 232L571 233L569 229L570 228L567 227L566 224L557 226L554 224L555 223L553 225L552 222L554 219L553 215L556 214L561 204L563 204L564 201L571 201L576 196L576 194L583 184L592 182L591 181L595 177L600 177L599 174L601 172L608 170L610 162L601 168L597 168L581 176L577 181L575 180L575 176L576 171L581 165L581 159L579 161L578 160L575 164L573 163L571 158L565 157L565 159L562 160L560 165L557 166L555 161L550 162L548 160L541 162L535 157L530 156L530 154L525 155L524 153L524 155L522 155L516 152L517 151L515 149L511 151L509 149L506 150L502 148L502 152L499 157L501 157L501 159L499 159L501 161L499 161L499 177L498 179L497 178L495 180L497 189L494 188L491 195L492 196L488 196L484 199L483 198L483 201L479 199L474 206L469 204L468 209L467 208L465 211L461 210L458 213L452 210L452 212L447 213L443 211L436 213L437 211L434 212L432 210L426 209L426 222L417 220L415 221L415 223L410 224L404 233L389 236L385 235L383 238L377 241L374 240L370 246L366 244L364 247L349 247L349 249L351 249L349 250L349 253L351 257L354 257L355 261L352 264L352 266L361 270L359 278L361 278L363 283L359 286L368 291L370 298L378 303zM379 325L378 325zM583 174L582 175zM504 373L503 373zM457 369L456 369z"/><path class="leaflet-interactive" stroke="#333" stroke-opacity="1" stroke-width="1" stroke-linecap="round" stroke-linejoin="round" stroke-dasharray="1,6" fill="#fff" fill-opacity="0" fill-rule="evenodd" d="M524 229L516 227L513 230L506 231L503 229L497 229L493 226L488 227L487 225L475 231L475 233L463 233L462 235L460 235L460 237L464 237L466 240L464 242L461 242L461 246L464 250L468 250L465 252L465 254L460 254L458 252L456 259L457 261L458 260L463 264L469 263L472 265L476 265L479 262L483 261L484 258L486 258L485 259L487 259L488 261L492 261L494 263L495 262L499 265L501 265L502 262L509 262L510 255L515 256L516 252L519 253L520 246L521 247L522 243L522 237L520 236L520 234L522 234L524 230z"/><path class="leaflet-interactive" stroke="#333" stroke-opacity="1" stroke-width="1" stroke-linecap="round" stroke-linejoin="round" stroke-dasharray="1,6" fill="#fff" fill-opacity="0" fill-rule="evenodd" d="M509 262L520 269L527 265L532 266L535 264L534 261L539 265L543 265L548 268L553 264L554 265L555 264L553 261L553 256L556 253L555 243L557 243L556 241L554 242L552 238L554 237L556 239L566 236L567 237L569 235L571 236L572 234L569 229L570 228L567 227L566 224L557 226L554 224L555 223L548 227L550 230L549 231L533 228L530 230L524 229L523 234L520 234L520 236L522 237L522 243L519 252L516 252L514 256L509 256L509 261z"/><path class="leaflet-interactive" stroke="#333" stroke-opacity="1" stroke-width="1" stroke-linecap="round" stroke-linejoin="round" stroke-dasharray="1,6" fill="#eee" fill-opacity="0.5" fill-rule="evenodd" d="M390 291L392 293L395 292L400 295L407 295L409 298L410 297L415 299L416 302L423 303L427 301L426 299L430 297L430 295L433 296L438 289L442 291L445 288L447 288L448 286L446 284L448 282L448 278L451 275L449 263L452 261L459 261L456 260L457 254L464 254L466 251L468 251L463 249L461 246L461 242L464 242L466 240L464 238L465 237L461 237L460 234L456 234L453 232L452 233L452 229L447 228L446 229L448 229L448 231L436 227L435 228L429 223L425 223L424 221L422 221L420 223L422 224L422 226L418 230L425 236L420 247L417 244L415 244L412 247L408 248L409 250L404 249L395 254L391 253L384 259L386 262L385 268L392 272L394 275L394 281L387 286L390 290zM425 237L424 237z"/><path class="leaflet-interactive" stroke="#333" stroke-opacity="1" stroke-width="1" stroke-linecap="round" stroke-linejoin="round" stroke-dasharray="1,6" fill="#eee" fill-opacity="0.5" fill-rule="evenodd" d="M495 296L496 295L494 293L489 294L486 292L487 291L485 287L488 281L487 278L483 277L484 276L481 274L480 275L475 273L473 270L473 265L469 263L462 264L462 262L460 261L453 261L449 263L448 265L451 272L451 276L448 279L448 283L446 284L448 286L442 291L438 289L435 292L435 296L437 296L438 298L442 298L447 302L450 301L458 304L465 301L468 304L469 303L471 306L471 310L477 311L481 315L487 316L486 327L498 326L496 322L500 312L490 312L491 308L497 300L495 296z"/><path class="leaflet-interactive" stroke="#333" stroke-opacity="1" stroke-width="1" stroke-linecap="round" stroke-linejoin="round" stroke-dasharray="1,6" fill="#eee" fill-opacity="0.5" fill-rule="evenodd" d="M533 198L534 206L532 208L532 211L534 213L536 213L542 208L546 208L546 206L548 205L549 206L553 203L559 202L557 198L558 193L554 190L556 188L555 183L559 174L559 168L556 166L556 162L550 162L548 160L541 162L535 157L530 156L530 154L525 155L524 153L524 155L522 155L516 152L517 151L515 149L511 151L509 149L506 150L502 148L502 152L499 157L501 157L501 159L499 159L501 161L499 161L500 170L498 169L498 176L505 183L505 187L513 186L518 181L515 180L515 178L518 175L516 170L517 171L521 166L523 170L524 169L527 172L528 171L525 177L526 182L530 179L541 178L549 183L547 186L537 191L532 196L533 198z"/><path class="leaflet-interactive" stroke="#333" stroke-opacity="1" stroke-width="1" stroke-linecap="round" stroke-linejoin="round" stroke-dasharray="1,6" fill="#eee" fill-opacity="0.5" fill-rule="evenodd" d="M514 185L517 188L517 192L525 196L529 200L533 198L532 196L534 194L548 185L548 183L547 181L542 180L540 178L530 179L526 182L525 177L528 172L527 170L524 170L522 166L519 168L519 170L516 170L518 174L515 180L518 181L514 184z"/><path class="leaflet-interactive" stroke="#333" stroke-opacity="1" stroke-width="1" stroke-linecap="round" stroke-linejoin="round" stroke-dasharray="1,6" fill="#eee" fill-opacity="0.5" fill-rule="evenodd" d="M558 203L553 203L550 206L549 205L546 208L542 208L538 212L534 213L532 211L532 208L534 206L534 199L533 198L529 200L525 196L518 193L517 188L514 185L511 185L511 187L504 186L506 183L503 181L503 179L499 178L495 180L497 189L494 188L491 195L492 196L486 197L491 204L490 205L493 210L493 216L496 217L498 223L496 228L500 230L503 229L505 231L512 230L515 227L519 227L525 230L530 230L532 228L546 231L550 230L548 228L553 223L553 215L556 214L561 206L558 204z"/><path class="leaflet-interactive" stroke="#333" stroke-opacity="1" stroke-width="1" stroke-linecap="round" stroke-linejoin="round" stroke-dasharray="1,6" fill="#eee" fill-opacity="0.5" fill-rule="evenodd" d="M461 235L469 232L471 234L474 233L481 227L483 228L487 225L489 227L493 226L496 228L498 224L496 217L493 217L493 210L490 205L491 204L486 197L482 199L483 201L479 199L474 206L469 204L468 209L467 208L465 211L461 210L458 213L458 219L456 223L449 227L452 230L452 233L453 232L455 234L460 234z"/><path class="leaflet-interactive" stroke="#333" stroke-opacity="1" stroke-width="1" stroke-linecap="round" stroke-linejoin="round" stroke-dasharray="1,6" fill="#eee" fill-opacity="0.5" fill-rule="evenodd" d="M561 206L561 204L563 204L564 201L571 201L576 196L576 194L583 184L592 182L591 181L595 177L600 177L599 174L601 172L605 170L607 171L610 162L601 168L597 168L581 176L577 181L575 180L576 171L581 165L582 160L578 160L575 164L573 163L571 158L565 157L565 159L562 160L560 165L557 166L559 168L559 174L555 182L556 188L554 190L558 192L557 198L559 200L559 205zM583 174L582 175z"/><path class="leaflet-interactive" stroke="#333" stroke-opacity="1" stroke-width="1" stroke-linecap="round" stroke-linejoin="round" stroke-dasharray="1,6" fill="#eee" fill-opacity="0.5" fill-rule="evenodd" d="M526 266L519 269L518 266L516 267L511 263L510 264L509 262L505 261L504 263L502 262L501 265L499 265L495 262L490 262L487 260L488 259L483 258L483 261L479 261L476 265L472 265L472 268L476 274L484 276L483 277L486 278L488 281L488 283L485 286L487 291L486 292L489 294L494 293L496 297L502 297L502 287L508 287L508 283L512 281L516 281L523 291L529 291L528 280L526 275L527 267zM506 286L506 286z"/><path class="leaflet-interactive" stroke="#333" stroke-opacity="1" stroke-width="1" stroke-linecap="round" stroke-linejoin="round" stroke-dasharray="1,6" fill="#fff" fill-opacity="0" fill-rule="evenodd" d="M500 312L508 308L511 309L515 306L519 307L523 311L527 308L528 304L526 302L526 296L520 299L518 295L521 292L521 290L519 284L516 281L508 283L508 287L502 287L502 297L495 296L495 299L497 300L490 309L490 311L500 312z"/><path class="leaflet-interactive" stroke="#333" stroke-opacity="1" stroke-width="1" stroke-linecap="round" stroke-linejoin="round" stroke-dasharray="1,6" fill="#eee" fill-opacity="0.5" fill-rule="evenodd" d="M422 221L417 220L415 221L415 223L410 224L404 233L389 236L385 235L383 238L377 241L374 240L370 246L366 244L364 247L349 247L349 249L351 249L349 250L349 253L351 257L354 257L355 261L352 264L352 266L361 270L359 278L361 278L363 283L359 286L368 291L370 298L379 304L381 304L384 301L384 298L387 295L388 291L390 291L387 286L394 281L394 275L385 267L385 258L391 253L395 254L404 249L409 251L408 248L415 244L417 244L420 247L421 246L423 238L425 236L420 231L418 231L418 229L422 227L421 226L423 224L421 223L421 221zM425 237L425 237z"/><path class="leaflet-interactive" stroke="#333" stroke-opacity="1" stroke-width="1" stroke-linecap="round" stroke-linejoin="round" stroke-dasharray="1,6" fill="#eee" fill-opacity="0.5" fill-rule="evenodd" d="M378 304L379 316L377 320L380 324L379 326L381 325L386 329L387 331L384 332L388 332L390 334L389 341L390 340L392 343L395 344L397 348L399 348L398 349L403 356L407 354L407 356L411 356L415 360L420 361L424 364L425 363L430 368L430 366L438 371L441 368L444 370L445 368L448 367L457 370L462 367L468 368L469 366L476 368L476 366L478 365L484 370L483 371L488 374L490 372L494 372L494 370L496 370L498 366L502 365L502 363L504 362L503 359L506 356L498 350L492 358L487 355L485 358L480 356L479 358L478 357L477 354L481 352L477 350L478 349L476 343L478 339L473 337L477 331L484 330L486 328L487 316L480 315L477 311L474 310L471 311L471 306L469 303L468 304L465 301L459 304L451 301L447 302L444 299L438 298L435 295L430 295L426 302L425 301L423 303L420 303L415 301L415 299L411 297L409 298L407 295L400 295L395 292L392 293L388 291L387 296L384 297L384 301L381 304L379 304zM379 325L378 325zM457 369L456 369z"/><path class="leaflet-interactive" stroke="#333" stroke-opacity="1" stroke-width="1" stroke-linecap="round" stroke-linejoin="round" stroke-dasharray="1,6" fill="#fff" fill-opacity="0" fill-rule="evenodd" d="M590 277L597 276L599 280L600 278L603 279L605 281L605 285L608 288L607 289L612 296L624 291L625 288L631 285L635 286L635 282L629 273L631 271L630 267L632 265L623 265L622 262L615 259L615 257L613 256L613 253L615 252L614 248L612 249L609 246L605 246L604 248L598 249L593 247L592 249L585 249L580 243L579 235L574 232L567 237L566 236L557 239L554 237L552 238L554 242L557 242L555 244L556 252L553 256L553 258L555 259L553 260L555 264L562 266L562 268L566 268L566 277L562 282L564 284L566 282L567 283L571 281L571 279L576 279L580 281L584 279L586 275L589 275z"/><path class="leaflet-interactive" stroke="#333" stroke-opacity="1" stroke-width="1" stroke-linecap="round" stroke-linejoin="round" stroke-dasharray="1,6" fill="#eee" fill-opacity="0.5" fill-rule="evenodd" d="M503 374L502 375L504 377L504 380L502 383L505 387L503 389L506 390L505 391L508 397L510 397L510 395L512 396L513 402L517 401L522 396L528 402L537 403L537 401L541 401L541 405L539 408L540 412L543 411L546 414L550 414L549 415L552 417L557 417L558 415L560 417L560 415L563 415L566 411L565 410L567 410L571 412L569 416L569 418L572 420L571 421L575 421L577 420L577 415L583 405L585 405L591 400L599 401L601 399L600 397L602 393L601 392L603 379L601 376L602 374L599 361L601 358L600 357L598 361L595 363L595 361L592 362L590 366L585 367L586 366L580 359L578 359L578 357L574 359L574 357L571 356L567 357L562 354L555 353L555 355L550 355L550 361L540 361L540 365L544 368L539 373L531 373L530 369L528 369L526 364L522 362L522 364L518 364L517 360L513 361L511 359L511 356L506 355L503 359L504 362L501 366L504 369L503 374zM504 373L503 373z"/><path class="leaflet-interactive" stroke="#333" stroke-opacity="1" stroke-width="1" stroke-linecap="round" stroke-linejoin="round" stroke-dasharray="1,6" fill="#eee" fill-opacity="0.5" fill-rule="evenodd" d="M555 330L555 327L557 326L561 330L567 330L571 328L575 323L574 322L576 318L574 314L574 310L576 310L575 307L578 307L581 304L589 303L585 292L588 291L589 287L585 287L589 275L586 275L585 278L580 281L572 279L564 284L562 282L564 280L563 279L565 279L566 277L566 268L562 268L562 266L556 264L553 264L548 268L546 266L542 266L534 262L535 264L533 266L526 266L526 275L528 280L529 291L526 292L521 290L521 292L518 295L521 299L526 296L526 302L528 304L527 308L531 310L535 309L535 311L536 310L538 312L539 311L541 313L540 314L548 320L545 325L549 329L549 331L553 332L553 330L555 330z"/><path class="leaflet-interactive" stroke="#333" stroke-opacity="1" stroke-width="1" stroke-linecap="round" stroke-linejoin="round" stroke-dasharray="1,6" fill="#eee" fill-opacity="0.5" fill-rule="evenodd" d="M506 356L511 356L511 359L513 361L517 360L519 364L523 362L523 364L527 366L527 369L529 368L532 373L539 373L544 368L540 365L540 361L545 361L547 359L548 361L550 361L550 355L551 356L556 353L563 355L564 354L566 357L569 355L569 342L561 340L561 338L557 338L554 335L557 333L556 330L553 330L553 332L547 328L545 325L548 320L544 316L542 316L539 311L535 311L535 309L530 310L528 308L523 310L520 309L520 307L516 306L512 309L508 308L498 315L496 322L498 326L488 326L484 330L477 331L473 337L478 340L476 343L478 348L477 350L481 352L477 354L479 358L482 356L484 358L487 355L491 358L495 355L497 350L505 354L506 356z"/><path class="leaflet-interactive" stroke="#333" stroke-opacity="1" stroke-width="1" stroke-linecap="round" stroke-linejoin="round" stroke-dasharray="1,6" fill="#eee" fill-opacity="0.5" fill-rule="evenodd" d="M458 213L452 210L452 212L447 213L443 211L436 213L437 211L434 212L432 210L426 209L427 211L425 214L425 223L428 223L435 228L436 227L447 231L447 228L457 222L458 214z"/></g></svg>