<svg xmlns="http://www.w3.org/2000/svg" pointer-events="none" class="leaflet-zoom-animated" width="1060" height="563" viewBox="-88 -47 1060 563" style="transform: translate3d(-88px, -47px, 0px);"><g><path class="leaflet-interactive" stroke="black" stroke-opacity="1" stroke-width="2" stroke-linecap="round" stroke-linejoin="round" fill="#fff" fill-opacity="0.2" fill-rule="evenodd" d="M481 220L482 222L484 222L484 218L489 219L490 215L492 217L491 219L498 225L498 227L501 230L511 232L518 231L518 233L517 232L515 234L516 236L510 236L509 244L513 250L519 250L525 257L527 257L527 261L519 260L519 269L523 272L522 277L524 277L525 280L526 277L532 278L530 285L528 287L535 290L535 292L538 294L541 300L546 301L546 303L551 306L553 303L551 298L555 295L560 296L565 294L563 296L564 297L572 287L576 285L576 276L581 268L583 268L584 265L587 263L593 261L594 262L590 256L590 251L589 252L588 250L586 250L586 241L584 239L585 237L574 237L574 235L571 235L571 231L568 232L561 226L563 219L567 218L564 216L565 214L568 214L574 207L574 204L573 206L553 202L546 204L545 203L546 201L543 197L544 194L541 193L538 186L541 183L543 185L545 180L543 178L544 173L543 171L539 173L537 168L533 165L536 162L534 159L535 158L527 149L528 148L517 148L514 152L514 155L505 154L499 157L499 165L495 166L498 171L498 174L496 174L495 176L494 175L493 177L488 178L486 176L482 177L483 175L480 174L477 177L476 181L475 180L473 182L473 184L469 182L467 177L464 177L462 180L461 179L457 183L449 187L448 188L450 192L446 191L446 193L442 191L434 192L433 183L436 181L435 175L431 168L430 170L422 170L420 173L422 176L417 177L412 184L412 188L414 191L412 193L413 196L406 195L401 200L403 200L403 204L406 207L401 213L399 213L407 221L407 225L408 227L409 226L411 232L414 235L415 244L420 244L422 246L418 250L417 249L413 250L413 252L407 252L408 257L407 258L405 255L403 259L406 260L408 264L412 263L413 266L418 266L418 275L424 278L419 288L419 292L421 293L419 295L418 294L416 299L415 298L409 300L407 296L403 298L398 303L399 308L401 309L400 312L399 311L396 316L393 316L391 320L391 333L394 333L400 337L399 338L404 346L404 350L407 352L405 354L410 356L401 375L398 377L397 380L399 382L399 388L395 389L394 392L388 394L388 397L392 401L391 404L399 410L402 411L404 409L405 411L405 409L408 413L416 413L424 418L434 417L436 421L439 419L439 417L441 417L441 415L444 415L448 420L451 417L453 417L453 414L450 410L449 411L448 405L446 404L453 393L460 390L469 370L471 368L476 369L479 367L477 363L479 364L480 360L484 364L496 349L516 349L520 341L528 336L528 333L533 327L527 327L523 322L524 321L522 317L517 317L512 320L510 320L509 317L505 319L503 314L498 315L498 313L493 310L494 309L492 304L494 300L497 300L499 297L497 293L498 287L497 288L496 286L498 284L496 284L495 282L496 276L489 276L483 281L483 283L481 283L476 277L467 277L464 280L462 280L459 276L454 277L454 273L451 269L456 268L454 267L451 261L455 256L463 253L465 254L465 252L468 249L468 247L462 241L463 239L461 239L464 235L469 235L473 233L478 226L478 228L484 228L485 227L480 221zM509 256L503 257L503 259L494 259L495 264L500 268L498 272L500 272L501 275L507 275L507 268L510 267L506 263L509 257zM527 286L523 286L521 284L519 286L519 288L521 287L523 289L523 287L526 287zM554 299L555 300L555 298L554 299zM562 296L560 298L562 297zM561 295L561 296z"/><path class="leaflet-interactive" stroke="#333" stroke-opacity="1" stroke-width="1" stroke-linecap="round" stroke-linejoin="round" stroke-dasharray="1,6" fill="#eee" fill-opacity="0.5" fill-rule="evenodd" d="M400 312L399 311L396 316L393 316L390 328L391 333L394 333L400 337L399 338L404 346L404 350L407 352L405 354L410 356L406 363L406 366L408 363L409 364L411 362L416 363L421 360L426 361L429 358L431 358L434 354L440 353L441 350L443 352L442 353L445 354L447 358L448 355L450 355L449 348L452 344L453 339L449 337L449 334L446 333L446 331L444 333L440 331L435 332L434 331L436 329L434 325L432 325L430 322L427 323L424 319L422 319L423 316L420 314L408 316L401 312z"/><path class="leaflet-interactive" stroke="#333" stroke-opacity="1" stroke-width="1" stroke-linecap="round" stroke-linejoin="round" stroke-dasharray="1,6" fill="#eee" fill-opacity="0.5" fill-rule="evenodd" d="M576 284L574 284L573 282L566 282L566 280L562 278L559 270L561 268L560 267L562 263L562 257L564 254L560 251L559 252L552 249L552 242L548 243L542 241L534 248L524 250L521 252L525 257L527 257L527 261L519 260L519 269L523 272L522 277L524 277L525 280L526 277L532 278L530 285L528 287L535 290L535 292L538 294L541 300L546 301L546 303L551 306L553 303L551 298L555 295L560 296L565 294L563 296L564 297L572 287L576 285zM527 286L523 286L521 284L519 286L519 288L521 287L523 289L523 287L526 287zM554 299L555 300L555 298L554 299zM562 296L560 298L562 297zM561 295L561 296z"/><path class="leaflet-interactive" stroke="#333" stroke-opacity="1" stroke-width="1" stroke-linecap="round" stroke-linejoin="round" stroke-dasharray="1,6" fill="#eee" fill-opacity="0.5" fill-rule="evenodd" d="M576 284L576 276L581 268L583 268L584 265L587 263L593 261L594 262L590 256L590 251L589 252L588 250L586 250L586 241L584 239L585 237L577 238L574 237L574 235L572 234L568 234L564 238L560 237L555 241L555 244L552 248L564 254L564 256L562 257L560 267L561 268L559 270L562 278L566 279L565 280L568 283L573 282L575 284z"/><path class="leaflet-interactive" stroke="#333" stroke-opacity="1" stroke-width="1" stroke-linecap="round" stroke-linejoin="round" stroke-dasharray="1,6" fill="#eee" fill-opacity="0.5" fill-rule="evenodd" d="M453 393L449 393L447 390L448 389L444 389L439 385L432 385L431 387L428 386L423 390L409 390L402 383L400 383L398 385L399 388L395 389L394 392L388 394L388 397L392 401L391 404L399 410L402 411L404 409L405 411L405 409L408 413L416 413L424 418L434 417L436 421L439 419L439 417L441 417L441 415L444 415L448 420L451 417L453 417L453 414L450 410L449 411L448 405L446 404L452 395z"/><path class="leaflet-interactive" stroke="#333" stroke-opacity="1" stroke-width="1" stroke-linecap="round" stroke-linejoin="round" stroke-dasharray="1,6" fill="#eee" fill-opacity="0.5" fill-rule="evenodd" d="M446 357L446 355L441 350L439 354L434 354L426 361L422 360L416 363L408 363L404 367L401 375L398 377L398 383L402 383L409 390L423 390L423 388L429 386L431 387L432 385L441 385L443 389L447 389L450 393L454 393L460 390L460 388L463 385L462 384L465 381L462 375L458 371L456 371L457 370L456 371L454 370L454 368L451 368L449 365L451 364L450 363L452 363L450 361L444 361L443 359L445 357z"/><path class="leaflet-interactive" stroke="#333" stroke-opacity="1" stroke-width="1" stroke-linecap="round" stroke-linejoin="round" stroke-dasharray="1,6" fill="#eee" fill-opacity="0.5" fill-rule="evenodd" d="M448 333L450 329L458 329L461 327L460 325L464 321L468 321L468 312L471 309L472 305L480 303L480 298L476 295L476 288L473 286L478 278L467 277L464 280L462 280L459 276L454 277L454 273L451 269L456 268L454 267L452 262L449 265L447 271L443 273L439 272L438 274L437 273L432 277L428 276L426 279L424 277L423 278L419 288L419 292L421 293L419 295L418 294L416 299L415 298L409 300L407 296L398 303L399 308L401 309L400 312L408 316L419 314L423 317L422 319L424 318L427 323L430 322L435 327L434 332L440 331L444 333L446 331L447 333z"/><path class="leaflet-interactive" stroke="#333" stroke-opacity="1" stroke-width="1" stroke-linecap="round" stroke-linejoin="round" stroke-dasharray="1,6" fill="#eee" fill-opacity="0.5" fill-rule="evenodd" d="M481 220L478 216L479 215L477 212L478 211L475 202L470 199L467 193L467 190L472 184L470 184L467 177L464 177L462 180L461 179L457 183L449 187L448 188L450 192L434 192L433 183L436 181L433 170L431 168L430 170L424 169L420 173L422 176L417 177L412 184L412 188L414 191L412 193L413 196L406 195L401 200L403 200L403 204L406 207L401 213L399 213L407 221L407 225L408 227L409 226L411 232L414 235L415 244L420 244L422 246L418 250L417 249L413 250L413 252L407 252L408 257L407 258L405 255L403 259L406 260L408 264L412 263L413 266L418 266L418 275L421 276L422 278L423 277L426 279L426 277L432 276L437 273L438 274L438 272L441 272L443 274L443 272L448 269L453 258L457 255L463 253L465 254L465 252L468 249L468 247L462 241L462 237L464 235L469 235L473 233L478 226L478 228L485 227L480 221z"/><path class="leaflet-interactive" stroke="#333" stroke-opacity="1" stroke-width="1" stroke-linecap="round" stroke-linejoin="round" stroke-dasharray="1,6" fill="#fff" fill-opacity="0" fill-rule="evenodd" d="M571 234L571 231L568 232L561 226L563 219L567 218L564 216L565 214L568 214L574 207L574 204L573 206L553 202L546 204L545 203L546 201L543 197L544 194L541 193L538 186L541 183L543 185L545 180L543 178L544 173L543 171L539 173L537 168L533 165L536 162L534 159L535 158L527 149L528 148L517 148L514 152L514 155L505 154L499 157L499 165L495 166L498 171L498 174L490 178L486 176L482 177L483 175L480 174L477 177L476 181L475 180L473 182L474 183L467 190L469 197L476 204L478 211L477 212L479 214L478 216L482 220L482 222L485 221L484 218L489 219L490 215L492 217L491 219L498 225L498 227L501 230L511 232L518 231L518 233L517 232L515 234L516 236L510 236L509 239L509 244L513 250L516 249L521 252L534 248L542 240L543 242L552 242L552 248L555 245L554 242L557 239L559 240L560 238L564 238L568 234L570 234z"/><path class="leaflet-interactive" stroke="#333" stroke-opacity="1" stroke-width="1" stroke-linecap="round" stroke-linejoin="round" stroke-dasharray="1,6" fill="#eee" fill-opacity="0.5" fill-rule="evenodd" d="M480 360L484 364L496 349L516 349L520 341L528 336L528 333L533 327L527 327L523 322L524 321L522 317L517 317L510 320L509 317L505 319L503 314L498 315L497 312L494 313L495 316L493 318L492 317L490 320L491 321L489 323L486 323L484 322L481 315L484 313L483 311L478 309L479 308L476 307L475 304L472 305L471 309L468 312L468 320L464 321L460 325L460 328L465 329L465 334L466 336L471 337L473 345L475 346L475 344L480 344L480 342L488 342L485 352L480 359z"/><path class="leaflet-interactive" stroke="#333" stroke-opacity="1" stroke-width="1" stroke-linecap="round" stroke-linejoin="round" stroke-dasharray="1,6" fill="#eee" fill-opacity="0.5" fill-rule="evenodd" d="M478 280L475 281L473 286L476 287L476 295L480 298L480 302L476 306L483 311L484 313L481 315L485 323L489 323L491 321L490 320L495 316L492 304L494 300L497 300L499 297L497 293L498 287L497 288L496 286L498 284L496 284L495 282L496 276L489 276L483 281L483 283L478 281zM509 256L503 257L503 259L494 259L495 264L500 268L498 272L500 272L501 275L507 275L507 268L510 267L506 263L509 257z"/><path class="leaflet-interactive" stroke="#333" stroke-opacity="1" stroke-width="1" stroke-linecap="round" stroke-linejoin="round" stroke-dasharray="1,6" fill="#eee" fill-opacity="0.5" fill-rule="evenodd" d="M465 381L469 370L471 368L476 369L479 367L477 363L479 364L482 358L481 357L485 352L485 348L488 342L481 342L480 344L476 344L473 346L474 345L471 342L471 338L466 336L464 332L465 330L461 328L455 330L454 328L451 329L448 334L450 339L452 339L452 344L449 347L450 354L448 354L448 356L443 359L449 362L450 361L452 363L450 363L451 368L453 368L456 371L457 370L456 371L458 371L462 375L462 378L464 379z"/></g></svg>