<svg xmlns="http://www.w3.org/2000/svg" pointer-events="none" class="leaflet-zoom-animated" width="1060" height="563" viewBox="-88 -47 1060 563" style="transform: translate3d(-88px, -47px, 0px);"><g><path class="leaflet-interactive" stroke="black" stroke-opacity="1" stroke-width="2" stroke-linecap="round" stroke-linejoin="round" fill="#fff" fill-opacity="0.2" fill-rule="evenodd" d="M357 262L355 262L354 267L351 266L348 268L346 276L340 276L340 282L338 281L337 290L340 292L339 294L342 298L343 296L344 299L346 298L350 302L347 304L348 305L352 303L355 311L359 311L360 313L360 319L363 321L361 329L363 331L362 334L366 336L363 341L366 346L363 352L367 353L368 350L372 350L375 352L378 351L380 348L385 353L387 353L387 356L384 359L385 358L387 362L381 366L382 373L388 377L388 382L390 384L389 387L393 392L391 393L393 396L393 402L390 405L393 409L396 410L399 409L398 407L401 407L404 410L407 408L407 412L416 413L418 410L422 408L421 407L423 405L427 404L427 406L430 404L430 401L432 399L431 398L433 395L434 396L434 394L438 394L441 396L440 401L443 402L442 403L445 406L444 412L448 416L447 417L450 420L449 421L460 421L460 419L463 416L466 419L473 414L472 413L480 412L481 415L486 414L488 421L490 422L491 425L489 426L490 429L493 433L497 433L499 432L501 426L499 425L501 420L507 417L507 413L509 410L505 403L509 395L513 391L514 387L518 388L524 378L530 383L537 384L537 386L538 384L541 383L538 377L532 378L528 374L534 361L536 362L538 369L543 369L547 366L549 361L552 361L554 356L560 349L564 350L565 352L568 352L570 350L571 346L569 345L573 340L568 329L566 329L563 323L572 320L573 308L571 307L578 308L578 306L576 301L574 300L574 295L570 292L571 290L567 285L574 288L578 285L579 290L585 290L587 291L586 292L588 292L588 294L590 294L592 287L589 284L591 283L590 280L592 278L589 277L590 273L588 269L592 265L590 260L592 258L592 254L590 251L584 251L582 249L586 244L593 241L595 237L601 233L601 231L600 230L598 232L593 232L593 229L591 227L586 229L579 224L573 223L570 218L568 218L560 204L552 196L543 193L534 185L532 182L538 179L540 176L544 175L546 171L542 165L537 166L537 162L535 160L531 162L527 161L530 158L528 156L527 148L525 147L519 150L515 148L512 152L508 152L510 157L505 160L501 160L496 167L493 163L491 154L491 156L488 158L488 153L473 154L467 148L464 147L459 137L453 136L451 138L450 135L443 137L442 136L440 139L440 147L435 157L436 162L433 166L430 167L431 168L428 175L427 176L425 172L420 177L415 177L415 184L417 186L420 184L421 185L422 193L425 195L422 198L420 196L416 198L414 202L405 199L403 201L395 197L392 201L392 205L395 208L389 212L393 213L391 215L393 220L393 228L389 228L389 232L383 236L383 243L377 250L372 250L367 255L367 259L360 260L358 262zM609 219L612 218L611 216L603 215L600 212L596 213L590 210L588 211L594 224L599 223L600 225L603 224L612 228L615 222L610 219zM633 163L632 162zM602 209L602 213L605 210L606 211L605 209L603 209zM606 246L610 247L606 245zM620 168L621 172L625 172L627 170L626 169L624 171L620 168zM603 199L596 201L601 205L606 206L608 201L607 199L604 198zM613 205L610 205L611 207L617 205L619 207L619 203L613 204zM594 284L593 286L597 285L595 284L595 282L595 284zM636 160L637 161L636 159zM583 317L584 318L586 315L583 317zM643 165L643 165zM576 320L580 320L577 320zM614 228L614 230L617 232L616 234L619 236L618 234L620 232L620 228L615 227zM620 193L620 191L618 189L617 190L617 188L611 188L610 190L613 193L619 193zM607 308L608 308zM604 267L607 266L604 266zM553 362L554 361zM587 319L589 318L587 318zM582 314L584 314L584 312L583 313zM614 185L615 186L615 184L614 185zM621 192L623 193L623 191L622 192zM572 343L573 343zM623 206L625 208L624 206zM609 235L607 236L612 241L613 236L611 235zM612 186L613 187zM606 250L607 251zM526 396L527 395L526 396zM638 209L638 208zM620 221L620 221zM605 238L604 237zM579 291L581 294L582 291L579 291zM541 398L542 399L542 397zM604 264L605 263zM594 252L595 251zM609 306L610 306zM626 207L626 206zM589 166L592 174L598 179L600 179L600 177L593 174L591 165zM633 208L634 208zM610 207L610 206zM585 336L587 336L586 333L584 336zM572 350L572 350zM535 377L536 376zM604 249L606 246L600 239L597 240L597 246L599 245L602 249L604 249zM607 247L608 248zM622 168L623 167L622 168zM616 179L617 180zM597 179L597 181L599 179zM616 235L617 237L617 235zM607 249L608 249zM591 281L592 281zM555 365L555 363L554 365zM622 228L622 229zM629 176L630 175L628 173L628 175zM604 207L605 208L604 206zM620 177L620 178zM591 263L592 262zM537 388L537 388zM537 387L537 387zM584 340L587 339L584 339zM606 207L608 207L606 207zM591 261L593 261L592 260zM572 290L573 291L572 289zM602 252L603 252zM573 291L574 291zM597 210L594 209L595 212L596 210zM618 226L619 221L616 223L617 226zM585 217L583 216L582 220L583 226L588 224L588 221L585 217zM535 411L532 409L531 410L534 411zM613 207L614 207zM582 219L581 217zM589 284L591 285L591 283zM613 236L613 235zM595 241L594 245L595 242zM522 393L522 393zM542 399L543 399zM626 175L626 176zM602 178L601 178zM639 210L639 210zM626 174L627 175L627 173zM589 215L587 217L589 219L589 215zM533 386L534 386zM590 202L593 201L591 198L588 201zM636 209L637 210L636 208zM571 293L572 293zM572 344L572 344zM607 238L608 238zM588 295L590 294L588 294zM619 173L620 173zM583 340L583 339zM593 280L593 280zM568 178L568 178zM604 225L602 225L604 227L605 226zM601 207L602 207zM584 215L584 216zM607 243L608 243zM593 267L594 267zM537 388L538 388zM605 244L606 244zM517 394L517 394zM611 244L613 243L606 240L610 244zM543 384L542 384zM602 180L603 180zM609 185L610 184zM569 354L570 354zM591 273L591 272zM641 213L642 213zM605 239L605 239zM517 397L517 396zM602 226L602 228L603 226zM622 226L621 226zM560 365L562 363L561 365zM623 193L623 193zM550 364L552 363L550 364zM614 179L613 180L615 179zM609 203L609 205L613 205L612 203zM611 234L612 235L615 233L611 233zM634 163L635 162L634 163zM643 172L643 170L641 170L642 171zM591 216L591 216zM541 399L542 399zM534 375L538 374L537 372L531 373L531 375L533 375zM581 326L580 327L581 326zM597 224L597 226L597 224zM602 226L602 226zM591 219L591 218zM521 392L522 392zM618 168L617 167zM604 268L604 268zM572 289L573 289zM611 176L610 176zM540 373L544 371L539 372zM603 238L604 239L603 238zM622 227L621 228L622 227zM537 370L538 369zM646 171L646 169L644 170L646 171zM593 231L593 230zM601 225L602 225zM599 228L598 227L599 228zM607 245L608 245zM606 227L610 229L605 225zM599 226L600 227L600 225zM590 219L591 219zM594 227L595 229L595 226zM531 372L534 370L531 371zM609 234L609 233zM605 241L605 241zM589 339L589 338zM593 231L594 231zM611 229L613 229L611 228zM606 246L607 247zM595 225L595 224zM533 412L534 413L533 412zM535 409L536 410zM612 231L613 232L612 231zM534 408L534 408z"/><path class="leaflet-interactive" stroke="#333" stroke-opacity="1" stroke-width="1" stroke-linecap="round" stroke-linejoin="round" stroke-dasharray="1,6" fill="#eee" fill-opacity="0.5" fill-rule="evenodd" d="M510 202L508 195L493 195L490 200L488 198L490 195L487 196L483 194L486 191L484 185L477 185L473 189L468 187L467 192L464 190L458 190L450 186L449 182L447 183L445 181L445 191L442 194L440 194L441 191L436 191L432 194L429 193L422 198L420 196L416 198L414 202L405 199L403 201L395 197L392 201L392 205L395 208L389 212L393 213L391 215L393 220L393 228L389 228L389 232L383 236L383 243L377 250L372 250L367 255L367 259L360 260L357 263L362 267L364 271L366 270L375 275L375 283L381 284L384 281L384 279L392 273L397 276L396 277L399 280L399 282L407 280L411 282L413 279L412 276L416 279L420 277L422 274L421 267L424 266L427 268L427 266L429 272L432 273L434 270L438 270L441 266L445 266L447 260L446 257L449 256L450 249L453 247L457 249L462 248L462 246L459 246L457 242L459 243L462 241L466 241L466 237L470 237L474 230L476 231L478 228L484 229L487 226L485 221L486 218L485 216L483 216L484 213L485 214L488 212L490 214L490 212L491 213L495 211L502 213L508 204z"/><path class="leaflet-interactive" stroke="#333" stroke-opacity="1" stroke-width="1" stroke-linecap="round" stroke-linejoin="round" stroke-dasharray="1,6" fill="#fff" fill-opacity="0" fill-rule="evenodd" d="M520 203L524 215L528 220L527 221L529 223L533 223L534 225L531 227L529 231L535 236L535 238L532 241L530 241L528 248L532 247L536 253L535 256L538 258L542 258L543 260L543 271L541 272L539 277L540 278L538 279L539 281L541 283L543 282L547 291L547 289L548 290L551 288L550 287L553 283L554 286L558 287L563 287L564 285L567 285L574 288L578 285L579 290L585 290L587 291L586 292L588 292L588 294L590 294L592 287L589 284L591 283L590 280L592 278L589 277L590 273L588 269L592 265L590 260L592 258L592 254L590 251L584 251L582 249L586 244L593 241L595 237L601 233L601 231L600 230L598 232L593 232L593 229L591 227L586 229L579 224L573 223L570 218L568 218L560 204L552 196L543 193L536 187L534 194L528 200L523 202zM594 284L593 286L597 285L595 284L595 282L595 284zM607 308L608 308zM604 267L607 266L604 266zM579 291L581 294L582 291L579 291zM604 264L605 263zM594 252L595 251zM609 306L610 306zM591 281L592 281zM591 263L592 262zM591 261L593 261L592 260zM589 284L591 285L591 283zM588 295L590 294L588 294zM593 280L593 280zM593 267L594 267zM591 273L591 272zM604 268L604 268zM593 231L593 230zM593 231L594 231z"/><path class="leaflet-interactive" stroke="#333" stroke-opacity="1" stroke-width="1" stroke-linecap="round" stroke-linejoin="round" stroke-dasharray="1,6" fill="#eee" fill-opacity="0.5" fill-rule="evenodd" d="M535 361L542 345L541 344L544 341L537 332L536 333L535 331L533 335L527 336L525 334L520 335L517 332L518 331L512 326L506 328L504 332L500 332L492 328L490 333L491 335L488 338L488 340L485 340L485 344L487 345L486 346L490 348L492 353L490 355L491 359L489 360L489 364L487 364L488 366L486 368L486 372L483 372L482 374L480 373L479 376L476 375L475 372L471 372L465 375L462 375L461 372L458 374L453 374L454 376L450 377L450 385L441 393L440 401L443 402L442 403L445 406L444 412L448 416L447 417L450 420L449 421L460 421L460 419L463 416L466 419L473 414L472 413L480 412L481 415L486 414L488 421L490 422L491 425L489 426L492 432L499 432L501 426L499 425L501 420L507 417L507 413L509 410L505 403L509 395L513 391L514 387L518 388L524 378L530 383L537 384L537 386L538 384L541 383L538 377L532 378L528 374L534 361zM526 396L527 395L526 396zM541 398L542 399L542 397zM535 377L536 376zM537 388L537 388zM537 387L537 387zM535 411L532 409L531 410L534 411zM522 393L522 393zM542 399L543 399zM533 386L534 386zM537 388L538 388zM517 394L517 394zM543 384L542 384zM517 397L517 396zM541 399L542 399zM534 375L538 374L537 372L531 373L531 375L533 375zM521 392L522 392zM540 373L544 371L539 372zM531 372L534 370L531 371zM533 412L534 413L533 412zM535 409L536 410zM534 408L534 408z"/><path class="leaflet-interactive" stroke="#333" stroke-opacity="1" stroke-width="1" stroke-linecap="round" stroke-linejoin="round" stroke-dasharray="1,6" fill="#eee" fill-opacity="0.5" fill-rule="evenodd" d="M510 202L517 204L528 200L534 194L536 187L532 182L538 179L540 176L544 175L546 171L542 165L537 166L537 162L535 160L531 162L527 161L530 158L528 156L527 148L525 147L519 150L515 148L512 152L508 152L510 157L505 160L501 160L497 166L494 167L494 171L487 175L486 174L485 178L483 178L483 184L485 186L485 189L486 188L486 191L483 194L484 195L489 195L488 198L490 200L493 195L508 195L509 201z"/><path class="leaflet-interactive" stroke="#333" stroke-opacity="1" stroke-width="1" stroke-linecap="round" stroke-linejoin="round" stroke-dasharray="1,6" fill="#eee" fill-opacity="0.5" fill-rule="evenodd" d="M495 167L491 154L491 156L488 158L488 153L473 154L467 148L464 147L459 137L453 136L451 138L450 135L443 137L442 136L440 139L440 147L435 157L436 162L433 166L430 167L431 168L427 176L425 172L420 177L415 177L415 184L417 186L420 184L421 185L422 193L426 196L428 193L432 194L435 191L440 191L441 194L444 192L445 181L447 183L449 182L449 185L453 187L454 186L457 190L459 189L461 191L463 190L467 192L468 187L475 188L477 185L482 186L484 180L483 179L486 176L486 174L487 175L493 172L492 171L494 171L495 169L494 167z"/><path class="leaflet-interactive" stroke="#333" stroke-opacity="1" stroke-width="1" stroke-linecap="round" stroke-linejoin="round" stroke-dasharray="1,6" fill="#fff" fill-opacity="0" fill-rule="evenodd" d="M462 248L465 250L466 249L464 254L468 258L470 258L470 261L477 257L480 261L482 261L482 271L484 271L486 267L488 267L488 264L494 261L497 264L498 269L504 273L507 274L508 272L510 275L512 274L514 280L517 281L519 279L521 280L523 275L525 277L526 275L529 274L541 274L543 269L543 258L535 257L536 253L532 248L528 247L530 245L530 242L535 238L535 236L529 231L531 227L534 226L532 223L531 224L527 221L528 220L524 215L520 203L515 204L510 202L505 207L502 213L495 211L493 211L491 214L491 212L490 214L488 212L486 212L485 214L484 213L482 216L486 218L485 221L487 225L484 229L482 228L481 230L480 228L478 228L476 231L475 230L470 236L466 237L466 241L462 241L459 243L457 241L459 246L460 245L462 247z"/><path class="leaflet-interactive" stroke="#333" stroke-opacity="1" stroke-width="1" stroke-linecap="round" stroke-linejoin="round" stroke-dasharray="1,6" fill="#fff" fill-opacity="0" fill-rule="evenodd" d="M420 312L421 315L423 315L423 313L426 315L430 315L429 323L432 326L431 330L434 330L434 332L445 332L447 328L449 328L448 325L451 324L454 318L456 317L455 316L463 312L465 315L469 313L470 315L476 313L481 307L481 302L484 303L483 305L489 310L490 308L491 310L495 310L497 306L500 308L506 304L507 300L511 297L508 295L508 291L512 288L510 288L511 285L514 283L514 277L512 276L512 274L509 274L509 272L507 274L502 273L497 268L497 263L494 261L488 264L488 266L482 271L482 261L480 261L476 257L472 261L466 255L464 255L465 252L467 251L465 250L466 249L457 249L453 247L449 251L450 253L447 257L445 266L444 265L443 267L440 267L438 269L439 270L435 270L432 273L430 273L428 266L425 268L424 266L421 267L422 273L414 283L421 292L419 300L422 305L419 308L422 310L421 312z"/><path class="leaflet-interactive" stroke="#333" stroke-opacity="1" stroke-width="1" stroke-linecap="round" stroke-linejoin="round" stroke-dasharray="1,6" fill="#eee" fill-opacity="0.5" fill-rule="evenodd" d="M420 312L422 310L419 309L422 305L419 300L421 292L414 283L416 279L412 276L412 282L407 280L399 282L396 277L397 276L393 273L390 274L381 284L376 283L376 281L374 280L374 278L376 278L374 274L362 269L356 261L354 267L351 266L348 268L346 276L340 276L340 282L338 281L337 284L337 290L340 292L339 294L342 298L343 296L344 299L346 298L350 302L347 304L348 305L352 303L355 311L359 311L361 318L360 319L363 321L361 329L363 331L362 334L366 336L363 341L366 346L365 349L363 350L363 352L365 353L367 353L368 350L372 350L375 352L378 351L384 341L382 341L383 332L385 333L390 331L392 333L395 324L403 317L410 316L411 314L415 315L419 311z"/><path class="leaflet-interactive" stroke="#333" stroke-opacity="1" stroke-width="1" stroke-linecap="round" stroke-linejoin="round" stroke-dasharray="1,6" fill="#eee" fill-opacity="0.5" fill-rule="evenodd" d="M609 219L612 218L611 216L603 215L600 212L596 213L590 210L588 211L594 224L599 223L600 225L603 224L612 228L615 222L610 219zM633 163L632 162zM602 209L602 213L605 210L606 211L605 209L603 209zM606 246L610 247L606 245zM620 168L621 172L625 172L627 170L626 169L624 171L620 168zM603 199L596 201L601 205L606 206L608 201L607 199L604 198zM613 205L610 205L611 207L617 205L619 207L619 203L613 204zM636 160L637 161L636 159zM643 165L643 165zM614 228L614 230L617 232L616 234L619 236L618 234L620 232L620 228L615 227zM620 193L620 191L618 189L617 190L617 188L611 188L610 190L613 193L619 193zM614 185L615 186L615 184L614 185zM621 192L623 193L623 191L622 192zM623 206L625 208L624 206zM609 235L607 236L612 241L613 236L611 235zM612 186L613 187zM606 250L607 251zM638 209L638 208zM620 221L620 221zM605 238L604 237zM626 207L626 206zM589 166L592 174L598 179L600 179L600 177L593 174L591 165zM633 208L634 208zM610 207L610 206zM604 249L606 246L600 239L597 240L597 246L599 245L602 249L604 249zM607 247L608 248zM622 168L623 167L622 168zM616 179L617 180zM597 179L597 181L599 179zM616 235L617 237L617 235zM607 249L608 249zM622 228L622 229zM629 176L630 175L628 173L628 175zM604 207L605 208L604 206zM620 177L620 178zM606 207L608 207L606 207zM602 252L603 252zM597 210L594 209L595 212L596 210zM618 226L619 221L616 223L617 226zM585 217L583 216L582 220L583 226L588 224L588 221L585 217zM613 207L614 207zM582 219L581 217zM613 236L613 235zM595 241L594 245L595 242zM626 175L626 176zM602 178L601 178zM639 210L639 210zM626 174L627 175L627 173zM589 215L587 217L589 219L589 215zM590 202L593 201L591 198L588 201zM636 209L637 210L636 208zM607 238L608 238zM619 173L620 173zM568 178L568 178zM601 207L602 207zM584 215L584 216zM607 243L608 243zM604 225L602 225L604 227L605 226zM605 244L606 244zM611 244L613 243L606 240L610 244zM602 180L603 180zM609 185L610 184zM641 213L642 213zM605 239L605 239zM602 226L602 228L603 226zM622 226L621 226zM623 193L623 193zM614 179L613 180L615 179zM609 203L609 205L613 205L612 203zM611 234L612 235L615 233L611 233zM634 163L635 162L634 163zM643 172L643 170L641 170L642 171zM591 216L591 216zM597 224L597 226L597 224zM602 226L602 226zM591 219L591 218zM618 168L617 167zM611 176L610 176zM603 238L604 239L603 238zM622 227L621 228L622 227zM646 171L646 169L644 170L646 171zM601 225L602 225zM599 228L598 227L599 228zM607 245L608 245zM606 227L610 229L605 225zM599 226L600 227L600 225zM590 219L591 219zM594 227L595 229L595 226zM609 234L609 233zM605 241L605 241zM611 229L613 229L611 228zM606 246L607 247zM595 225L595 224zM612 231L613 232L612 231z"/><path class="leaflet-interactive" stroke="#333" stroke-opacity="1" stroke-width="1" stroke-linecap="round" stroke-linejoin="round" stroke-dasharray="1,6" fill="#fff" fill-opacity="0" fill-rule="evenodd" d="M567 285L559 287L554 286L553 283L550 287L551 288L548 290L547 289L547 291L543 283L539 282L538 279L541 275L538 272L534 275L526 275L525 277L523 275L521 278L522 280L520 279L514 281L514 283L510 287L511 288L508 291L508 294L509 296L510 295L511 298L509 300L507 299L507 303L500 308L498 306L495 309L492 309L490 313L487 315L488 317L486 317L487 319L485 319L484 322L487 323L486 324L488 329L485 328L485 330L482 331L483 333L488 334L489 336L491 335L490 334L492 328L499 332L504 332L506 328L512 326L515 329L517 329L517 332L520 335L525 334L527 336L533 336L535 331L545 341L542 344L535 361L538 369L545 368L549 361L552 361L554 356L560 349L564 350L565 352L568 352L571 346L569 345L573 340L568 329L566 329L563 323L572 320L573 308L571 307L578 308L576 301L574 300L574 295L570 292L571 290L568 287zM583 317L584 318L586 315L583 317zM576 320L580 320L577 320zM553 362L554 361zM587 319L589 318L587 318zM582 314L584 314L584 312L583 313zM572 343L573 343zM585 336L587 336L586 333L584 336zM572 350L572 350zM555 365L555 363L554 365zM584 340L587 339L584 339zM572 290L573 291L572 289zM573 291L574 291zM571 293L572 293zM572 344L572 344zM583 340L583 339zM569 354L570 354zM560 365L562 363L561 365zM550 364L552 363L550 364zM581 326L580 327L581 326zM572 289L573 289zM537 370L538 369zM589 339L589 338z"/><path class="leaflet-interactive" stroke="#333" stroke-opacity="1" stroke-width="1" stroke-linecap="round" stroke-linejoin="round" stroke-dasharray="1,6" fill="#eee" fill-opacity="0.5" fill-rule="evenodd" d="M491 310L491 308L489 310L487 309L483 305L484 303L482 303L481 301L481 307L479 308L477 313L473 313L472 315L470 315L469 313L467 315L465 315L463 312L460 313L457 316L455 316L456 317L451 324L448 324L449 328L448 327L443 332L434 332L434 330L431 331L432 327L429 323L430 316L426 316L424 313L422 315L420 314L421 312L419 311L415 315L411 314L408 317L403 317L397 324L394 325L394 330L391 333L389 331L383 332L382 341L384 341L382 346L380 347L385 353L387 353L387 356L384 359L385 358L387 362L381 366L382 373L388 377L388 382L390 384L389 387L393 392L391 393L393 396L393 402L390 405L394 410L399 409L398 407L401 407L404 410L407 408L407 412L409 413L416 413L418 410L422 408L421 407L423 405L427 404L427 406L430 404L430 401L432 399L431 398L433 395L434 396L434 394L440 395L442 393L441 391L449 385L450 386L450 378L451 376L454 376L453 374L461 372L462 375L466 375L470 372L475 372L475 374L479 376L480 373L481 374L485 372L486 367L488 367L487 365L490 362L489 360L491 359L490 356L492 354L491 350L486 346L487 345L485 343L486 339L488 341L489 336L488 334L483 334L482 331L485 328L488 329L486 325L487 324L484 322L485 319L487 319L487 315L490 311z"/></g></svg>