<svg xmlns="http://www.w3.org/2000/svg" pointer-events="none" class="leaflet-zoom-animated" width="1060" height="563" viewBox="-88 -47 1060 563" style="transform: translate3d(-88px, -47px, 0px);"><g><path class="leaflet-interactive" stroke="black" stroke-opacity="1" stroke-width="2" stroke-linecap="round" stroke-linejoin="round" fill="#fff" fill-opacity="0.2" fill-rule="evenodd" d="M414 133L412 133L414 130L411 126L409 126L406 130L400 131L400 134L396 134L392 139L389 134L388 135L385 133L383 126L377 132L361 134L358 130L348 131L338 127L328 128L322 125L322 128L316 128L311 134L316 135L320 138L326 137L334 141L332 152L334 155L341 153L343 155L349 156L353 158L356 161L355 163L358 165L357 170L360 174L358 177L355 175L353 176L353 178L349 181L341 177L323 177L323 182L318 187L317 192L315 192L315 200L318 205L322 207L321 212L323 214L321 219L323 227L320 230L324 236L321 238L322 242L320 243L330 245L330 250L332 252L329 256L330 257L336 256L340 259L346 259L343 262L347 263L348 265L356 269L360 286L359 289L355 291L356 299L358 298L358 300L356 303L357 305L355 310L352 313L349 311L347 306L344 307L341 305L332 310L328 315L327 314L319 324L317 325L317 323L314 325L305 336L306 332L303 328L304 327L302 326L292 334L288 328L291 326L286 324L281 326L271 336L269 334L266 336L264 334L263 329L261 329L255 338L254 336L251 335L245 337L246 343L244 344L256 354L254 365L252 367L252 383L246 381L242 384L242 386L246 386L245 388L247 392L251 394L252 392L254 392L252 390L256 383L260 383L262 386L262 395L264 395L267 399L267 395L269 395L269 399L271 400L272 397L273 400L275 400L274 402L277 403L274 412L279 416L277 422L282 422L282 420L285 420L286 417L288 418L290 420L289 425L292 427L290 429L292 434L293 433L298 438L301 437L301 432L299 430L305 426L305 419L307 419L308 417L306 416L310 413L310 407L312 408L312 406L315 405L316 400L319 402L322 400L328 402L329 397L332 396L331 392L334 390L349 390L354 388L357 391L363 392L366 395L366 397L370 398L371 400L376 397L377 394L381 395L386 392L388 388L387 385L382 383L380 379L380 375L382 374L379 371L379 369L386 369L389 367L393 370L396 368L395 364L400 363L407 364L407 368L423 370L425 369L431 372L433 377L436 376L437 379L445 378L446 380L450 381L460 379L474 385L473 388L479 391L480 390L481 396L488 399L489 401L491 398L495 405L494 409L497 406L500 407L504 400L508 400L510 402L513 400L515 402L516 401L520 403L522 399L527 395L527 392L534 387L536 388L536 396L542 389L541 394L535 401L535 404L537 412L541 408L544 408L545 415L550 413L564 395L577 384L578 385L576 388L575 397L582 396L586 402L587 401L588 404L581 408L584 409L589 414L587 417L583 418L583 421L579 427L585 430L583 434L585 441L587 439L587 442L593 439L595 442L597 442L597 444L601 442L609 431L616 431L621 429L621 421L624 420L627 423L633 421L635 423L638 423L648 417L651 417L653 420L658 417L661 418L663 415L664 416L665 411L662 414L660 411L663 407L663 409L664 408L664 410L666 410L666 406L669 404L671 406L674 405L674 408L679 409L679 403L677 403L678 398L676 398L676 396L679 398L685 398L687 400L691 398L692 399L699 392L699 388L702 384L712 384L727 393L731 393L742 386L742 382L738 375L739 363L737 361L737 357L732 351L727 349L728 348L726 344L729 341L726 338L728 334L718 321L719 316L722 317L725 314L724 311L726 307L735 301L738 301L737 298L734 297L734 295L729 294L730 293L726 290L725 287L719 289L713 282L711 282L707 287L705 286L703 279L698 277L699 274L697 272L693 272L693 267L686 269L686 267L683 266L682 264L684 257L679 252L677 253L675 259L670 258L668 262L667 261L658 263L655 262L655 259L649 258L650 257L648 257L646 254L642 256L641 255L640 249L643 245L642 240L640 240L640 242L638 240L634 243L623 241L620 235L616 233L614 235L613 234L613 236L608 240L604 241L601 236L602 234L600 232L598 234L594 233L594 229L592 226L593 225L589 223L591 220L587 216L587 213L588 214L590 212L589 210L591 208L588 205L590 195L585 190L578 196L577 195L578 196L575 199L576 197L574 197L568 202L564 200L554 190L550 191L550 193L548 194L547 192L542 190L539 192L540 194L533 194L531 192L523 196L512 192L504 196L501 194L495 197L489 192L487 193L486 191L486 193L482 191L479 186L475 188L473 183L467 184L467 182L465 182L457 176L453 176L453 174L447 177L441 167L439 167L441 167L442 164L441 163L439 165L435 159L430 157L429 153L428 155L427 151L429 148L427 143L421 143L422 141L424 141L424 139L417 132L414 134zM590 201L589 200L589 202L590 201zM414 130L414 132L415 131zM522 195L523 195zM534 388L533 389L536 389z"/><path class="leaflet-interactive" stroke="#333" stroke-opacity="1" stroke-width="1" stroke-linecap="round" stroke-linejoin="round" stroke-dasharray="1,6" fill="#eee" fill-opacity="0.5" fill-rule="evenodd" d="M586 344L588 345L591 353L589 355L590 357L594 359L596 358L599 352L602 350L605 352L607 358L608 357L613 360L615 366L617 366L618 372L622 373L628 370L639 375L639 371L641 371L637 361L641 352L643 351L642 340L646 337L645 331L653 327L659 326L659 323L657 323L655 319L661 316L661 313L665 313L666 315L666 313L670 309L673 309L672 308L674 307L668 302L669 300L664 297L661 297L660 302L657 301L657 298L654 301L653 298L650 299L649 302L645 303L638 297L637 295L639 289L630 279L633 275L628 275L623 271L620 272L616 279L621 284L616 289L617 294L615 294L616 315L599 315L598 320L599 319L602 322L600 324L601 329L597 331L597 333L595 333L594 336L592 336L591 339L585 343zM665 296L664 296zM667 298L667 297z"/><path class="leaflet-interactive" stroke="#333" stroke-opacity="1" stroke-width="1" stroke-linecap="round" stroke-linejoin="round" stroke-dasharray="1,6" fill="#eee" fill-opacity="0.5" fill-rule="evenodd" d="M640 368L641 371L639 371L639 377L643 377L650 380L650 384L652 387L651 390L653 392L657 392L660 395L662 401L666 406L669 404L671 406L674 405L674 408L677 409L679 409L679 403L677 403L678 398L676 398L676 396L679 398L685 398L687 400L691 398L692 399L699 392L699 388L702 384L700 384L695 378L686 361L680 356L675 356L674 353L667 357L661 355L661 352L659 352L658 349L654 351L651 349L647 354L652 365L650 370L642 370L641 368zM678 355L678 354z"/><path class="leaflet-interactive" stroke="#333" stroke-opacity="1" stroke-width="1" stroke-linecap="round" stroke-linejoin="round" stroke-dasharray="1,6" fill="#eee" fill-opacity="0.5" fill-rule="evenodd" d="M414 130L411 126L409 126L406 130L400 131L400 134L396 134L392 139L389 134L388 135L385 133L383 126L377 132L361 134L358 130L348 131L338 127L328 128L322 125L322 128L316 128L311 134L316 135L320 138L326 137L334 141L332 152L334 155L341 153L343 155L353 158L356 161L355 163L358 165L357 170L360 174L358 177L355 175L353 176L353 178L349 181L341 177L323 177L323 182L318 187L317 192L315 192L315 200L318 205L322 207L321 212L323 214L321 219L323 227L320 230L324 236L321 238L322 242L320 243L330 245L330 250L332 252L329 256L330 257L336 256L344 260L348 258L349 259L352 256L351 255L353 255L355 252L358 252L361 255L362 253L360 251L362 249L361 247L363 242L366 240L370 240L371 237L378 236L377 235L379 235L378 234L380 233L381 235L390 233L396 235L398 233L403 234L403 232L408 232L410 234L411 233L412 236L413 235L412 229L410 227L411 223L413 221L418 227L417 223L415 223L417 221L417 218L415 218L417 215L426 211L428 207L425 201L427 200L426 199L437 190L442 190L442 187L445 184L446 185L449 179L449 177L447 177L441 167L439 167L441 167L442 164L441 163L439 165L435 159L430 157L429 153L428 155L427 151L429 148L427 143L421 143L422 141L424 141L424 139L417 132L414 134L414 132L412 133L414 132zM421 219L417 221L418 222L421 220zM411 223L412 228L412 224zM414 130L414 132L415 131z"/><path class="leaflet-interactive" stroke="#333" stroke-opacity="1" stroke-width="1" stroke-linecap="round" stroke-linejoin="round" stroke-dasharray="1,6" fill="#fff" fill-opacity="0" fill-rule="evenodd" d="M481 323L481 320L479 319L479 311L477 308L477 300L474 294L470 293L473 289L472 285L470 285L470 283L468 285L468 281L465 281L462 277L461 278L459 276L459 271L455 272L452 270L445 275L442 275L439 273L439 270L435 272L429 269L429 265L427 263L425 263L424 265L420 265L418 267L415 265L414 266L414 255L408 255L406 256L406 258L402 260L398 256L395 257L393 262L387 261L384 268L384 272L382 274L380 270L375 275L376 278L380 279L378 280L378 284L382 288L377 292L378 295L376 296L374 305L376 307L373 307L368 314L368 316L374 314L377 318L377 324L375 327L377 331L378 330L378 332L374 337L371 337L370 354L364 355L369 363L367 376L374 376L381 368L386 369L389 367L393 370L396 368L395 364L400 363L407 364L407 368L423 370L431 369L433 366L436 365L436 363L445 365L449 362L449 358L451 355L448 354L451 352L452 349L459 345L461 345L465 351L469 352L471 346L475 352L479 352L479 350L474 346L475 342L473 339L471 339L471 335L475 334L476 330L474 330L477 327L477 324L480 324zM415 265L417 266L416 265zM450 361L449 360zM481 322L481 320L480 321z"/><path class="leaflet-interactive" stroke="#333" stroke-opacity="1" stroke-width="1" stroke-linecap="round" stroke-linejoin="round" stroke-dasharray="1,6" fill="#fff" fill-opacity="0" fill-rule="evenodd" d="M449 177L446 185L445 184L442 187L442 190L437 190L426 199L427 200L425 201L428 206L426 210L420 214L421 219L415 222L416 224L417 223L418 226L413 221L411 223L413 225L412 236L412 233L410 234L408 232L403 232L403 234L398 233L396 235L402 240L404 247L410 249L408 255L414 255L414 264L417 265L418 267L419 265L427 263L429 265L429 268L434 272L438 270L439 274L442 275L452 270L454 272L459 270L459 275L467 281L472 277L472 266L474 264L479 265L486 262L488 263L489 258L494 257L503 260L511 255L521 262L521 257L524 255L524 242L529 241L531 237L533 238L536 234L539 234L538 231L542 225L540 221L543 214L542 202L545 201L546 199L544 195L547 195L547 192L542 190L539 192L540 194L533 194L531 192L525 196L512 192L504 196L501 194L495 197L489 192L487 193L486 191L486 193L482 191L479 186L475 188L473 183L467 184L467 182L465 182L457 176L453 176L453 174L450 176zM421 219L420 214L415 218L417 218L417 221L420 219zM411 228L410 227L411 228zM415 265L414 266zM522 195L523 195z"/><path class="leaflet-interactive" stroke="#333" stroke-opacity="1" stroke-width="1" stroke-linecap="round" stroke-linejoin="round" stroke-dasharray="1,6" fill="#eee" fill-opacity="0.5" fill-rule="evenodd" d="M674 353L675 351L673 345L670 342L668 343L660 341L658 337L659 331L657 327L653 327L645 331L646 337L644 339L643 338L642 340L643 351L641 352L637 363L642 370L645 369L649 371L649 369L650 370L652 366L650 361L651 359L647 356L647 354L651 348L654 351L657 349L659 352L661 352L660 355L666 357L669 357L669 355L673 353z"/><path class="leaflet-interactive" stroke="#333" stroke-opacity="1" stroke-width="1" stroke-linecap="round" stroke-linejoin="round" stroke-dasharray="1,6" fill="#fff" fill-opacity="0" fill-rule="evenodd" d="M481 323L485 331L484 332L488 334L488 338L490 338L490 335L492 335L496 338L495 339L498 343L500 341L505 340L509 343L510 340L513 339L513 333L515 335L516 334L516 327L518 325L522 325L515 324L515 320L517 320L527 311L532 320L539 316L540 314L542 315L545 314L545 312L549 313L553 311L558 305L561 306L561 303L564 303L563 302L565 298L566 299L570 294L572 282L566 276L564 277L564 275L561 272L559 273L554 268L545 264L539 265L537 262L535 263L534 258L529 253L525 252L524 255L521 256L522 262L511 255L503 260L492 257L488 259L488 263L485 262L480 265L474 264L472 266L472 278L467 281L468 284L470 283L470 285L472 285L471 287L473 290L470 293L473 294L474 297L477 299L477 308L479 311L479 319L481 320L481 323zM480 321L480 321zM515 320L516 320z"/><path class="leaflet-interactive" stroke="#333" stroke-opacity="1" stroke-width="1" stroke-linecap="round" stroke-linejoin="round" stroke-dasharray="1,6" fill="#eee" fill-opacity="0.5" fill-rule="evenodd" d="M570 343L572 344L575 341L575 339L578 336L580 336L580 340L586 344L585 343L589 341L592 336L594 336L594 334L597 333L598 330L601 329L600 324L602 322L599 320L599 316L604 314L610 314L615 316L616 315L615 295L617 294L616 289L621 284L618 283L616 278L620 272L623 271L626 274L633 275L632 271L636 263L638 263L637 258L641 255L640 249L643 245L642 240L640 240L640 242L638 240L634 243L623 241L620 235L616 233L614 235L613 234L611 239L611 244L613 247L610 256L612 258L609 261L609 265L603 265L603 268L601 269L599 265L598 267L595 264L592 265L587 263L581 269L578 266L575 269L570 265L562 267L561 274L564 277L567 277L570 281L572 281L572 289L570 290L570 293L567 298L565 298L563 302L564 303L562 303L561 305L562 308L564 308L568 313L567 318L569 322L568 323L570 325L568 330L570 342zM569 336L569 334L568 336zM565 322L565 322z"/><path class="leaflet-interactive" stroke="#333" stroke-opacity="1" stroke-width="1" stroke-linecap="round" stroke-linejoin="round" stroke-dasharray="1,6" fill="#eee" fill-opacity="0.5" fill-rule="evenodd" d="M449 360L450 361L446 365L437 363L432 367L432 369L427 370L431 372L433 377L436 376L437 379L445 378L446 380L450 381L460 379L474 385L473 388L479 391L480 390L481 396L488 399L489 401L491 398L495 405L494 409L497 406L500 407L504 400L508 400L510 402L513 400L515 402L516 401L520 403L522 399L527 395L527 392L534 387L536 388L536 396L542 389L541 394L535 401L535 404L537 412L541 408L544 408L545 415L550 413L564 395L581 380L585 378L592 378L598 371L610 366L610 364L601 357L599 359L594 359L591 363L588 363L586 366L580 366L575 368L568 360L564 358L562 358L562 360L560 361L550 362L546 362L543 358L540 363L533 360L532 358L528 360L528 366L524 367L513 363L513 355L509 351L508 345L510 343L506 340L500 341L498 343L493 335L489 336L490 337L488 338L488 334L484 332L485 331L481 323L477 324L474 330L476 330L475 334L471 335L470 337L470 339L474 340L474 346L479 351L475 352L471 346L469 352L465 351L462 348L462 346L459 345L452 349L451 352L448 354L451 355L449 360zM600 370L598 372L600 371zM448 362L450 361L449 360zM534 388L533 389L536 389z"/><path class="leaflet-interactive" stroke="#333" stroke-opacity="1" stroke-width="1" stroke-linecap="round" stroke-linejoin="round" stroke-dasharray="1,6" fill="#fff" fill-opacity="0" fill-rule="evenodd" d="M678 355L678 357L680 356L686 361L695 378L700 384L712 384L727 393L731 393L742 386L742 382L738 375L739 363L737 361L737 357L732 351L727 349L728 348L726 344L729 341L726 338L728 334L718 321L719 316L722 317L725 314L724 311L726 307L735 301L738 301L737 298L734 297L734 295L730 295L730 293L726 290L725 287L719 289L713 282L711 282L707 287L705 286L703 279L698 277L699 274L697 272L693 272L693 267L686 269L686 267L683 266L682 264L684 257L679 252L677 253L675 259L670 258L668 262L667 261L658 263L655 262L655 259L649 258L650 257L648 257L646 254L642 256L641 255L639 257L638 256L638 262L636 263L636 267L634 267L632 271L633 275L630 279L635 284L634 285L639 289L637 294L638 297L645 303L650 302L650 300L653 298L654 301L656 298L659 302L661 300L661 297L665 295L666 299L667 296L668 297L668 301L674 307L671 309L670 308L666 315L665 313L662 313L658 318L655 319L657 321L656 322L659 323L659 325L656 326L659 331L658 336L660 341L668 343L670 342L673 344L675 351L674 355L676 357L679 355zM665 296L665 298zM677 357L678 356L676 357z"/><path class="leaflet-interactive" stroke="#333" stroke-opacity="1" stroke-width="1" stroke-linecap="round" stroke-linejoin="round" stroke-dasharray="1,6" fill="#eee" fill-opacity="0.5" fill-rule="evenodd" d="M639 375L629 370L622 373L618 372L617 367L615 366L612 358L608 358L608 356L602 350L599 352L596 359L601 357L610 363L610 365L600 370L598 373L597 372L595 376L592 378L585 378L581 380L577 384L578 385L576 388L575 397L582 396L588 404L581 408L584 409L589 414L587 417L583 418L583 421L579 427L585 430L583 434L585 441L587 439L587 442L593 439L595 442L597 442L597 444L599 444L608 434L609 431L616 431L621 429L621 421L624 420L627 423L633 421L635 423L638 423L648 417L651 417L653 420L658 417L661 418L663 415L664 416L665 411L662 414L660 411L663 407L664 410L666 410L667 408L663 403L658 392L653 392L651 390L651 380L643 378L644 377L639 377L639 375zM600 370L597 372L599 371z"/><path class="leaflet-interactive" stroke="#333" stroke-opacity="1" stroke-width="1" stroke-linecap="round" stroke-linejoin="round" stroke-dasharray="1,6" fill="#fff" fill-opacity="0" fill-rule="evenodd" d="M612 237L604 241L602 239L602 234L600 232L598 234L594 233L594 229L592 226L593 225L589 223L591 220L587 216L587 213L588 214L590 212L589 210L591 208L588 205L588 201L590 199L590 195L588 192L585 190L578 196L577 195L578 196L575 199L576 197L574 197L568 202L564 200L558 193L552 190L547 195L544 195L546 198L545 201L542 202L543 213L540 218L540 224L542 225L538 231L539 234L536 234L529 241L524 241L523 251L532 256L534 258L535 263L536 262L539 265L550 265L550 267L554 268L559 273L562 271L563 266L565 267L571 265L575 269L578 266L581 269L587 263L594 266L595 264L597 267L598 265L601 268L600 269L603 266L608 265L609 261L612 258L610 257L613 248L611 245L611 239zM590 201L589 200L589 202L590 201z"/><path class="leaflet-interactive" stroke="#333" stroke-opacity="1" stroke-width="1" stroke-linecap="round" stroke-linejoin="round" stroke-dasharray="1,6" fill="#fff" fill-opacity="0" fill-rule="evenodd" d="M376 273L370 268L368 268L361 275L358 275L357 277L360 286L359 289L355 291L356 299L358 298L358 300L356 303L357 305L355 310L352 313L349 311L347 306L344 307L341 305L332 310L328 315L327 314L319 324L317 325L317 323L314 325L305 336L306 332L303 328L304 327L302 326L292 334L288 328L291 326L286 324L281 326L271 336L269 334L266 336L264 334L263 329L261 329L255 338L254 336L251 335L245 337L246 343L244 344L256 354L254 365L252 367L252 383L246 381L242 384L242 386L246 386L245 388L247 392L251 394L252 392L254 392L252 390L256 383L260 383L262 386L262 395L264 395L267 399L267 395L269 395L269 399L271 400L272 397L273 400L275 400L274 402L277 403L274 412L279 416L277 422L282 422L282 420L285 420L286 417L288 418L290 420L289 425L292 427L290 431L298 438L301 437L301 432L299 430L305 426L305 419L307 419L308 417L306 416L310 413L310 407L312 408L312 406L315 405L316 400L319 402L322 400L328 402L329 397L332 396L331 392L334 390L349 390L354 388L357 391L363 392L366 395L366 397L370 398L371 400L376 397L377 394L381 395L388 390L387 385L382 383L380 379L380 375L382 374L381 372L377 372L374 376L367 376L369 366L368 365L370 363L365 359L366 358L364 355L370 354L371 337L374 337L378 332L378 330L377 331L375 327L377 323L377 318L374 314L368 316L369 311L373 307L376 307L374 305L377 292L382 289L379 286L378 282L378 280L380 279L375 277L376 274z"/><path class="leaflet-interactive" stroke="#333" stroke-opacity="1" stroke-width="1" stroke-linecap="round" stroke-linejoin="round" stroke-dasharray="1,6" fill="#eee" fill-opacity="0.5" fill-rule="evenodd" d="M570 343L569 344L564 341L553 341L552 339L550 341L547 336L545 336L545 334L544 335L542 333L537 333L537 337L540 338L537 344L539 350L541 351L540 355L546 362L560 361L562 358L564 358L569 361L575 368L579 366L586 366L587 363L589 364L593 361L592 357L590 357L589 355L591 353L591 351L589 351L589 345L580 341L580 336L578 336L575 339L575 341L571 343zM589 350L589 351z"/><path class="leaflet-interactive" stroke="#333" stroke-opacity="1" stroke-width="1" stroke-linecap="round" stroke-linejoin="round" stroke-dasharray="1,6" fill="#eee" fill-opacity="0.5" fill-rule="evenodd" d="M510 343L508 345L509 351L513 355L514 364L528 367L528 361L530 361L532 358L538 363L541 362L541 351L537 344L540 341L540 338L537 337L536 331L534 330L532 332L532 336L526 330L520 330L519 329L522 326L520 324L518 327L516 327L516 333L515 335L513 333L513 339L510 340L510 342zM519 326L517 326L519 326zM539 341L539 342zM542 358L542 358zM539 337L539 337z"/><path class="leaflet-interactive" stroke="#333" stroke-opacity="1" stroke-width="1" stroke-linecap="round" stroke-linejoin="round" stroke-dasharray="1,6" fill="#eee" fill-opacity="0.5" fill-rule="evenodd" d="M569 336L568 330L570 325L565 322L566 319L568 319L568 314L559 305L555 309L554 308L552 312L549 313L545 311L543 315L541 314L532 321L529 318L529 314L527 311L514 322L517 325L522 325L519 328L521 331L527 330L528 333L532 336L532 332L534 330L538 334L545 334L545 336L547 336L550 341L552 339L554 341L564 341L569 344L569 337zM568 319L566 319L565 322L568 323L568 320zM569 335L570 335zM529 318L530 318zM515 320L515 320zM551 340L550 341z"/><path class="leaflet-interactive" stroke="#333" stroke-opacity="1" stroke-width="1" stroke-linecap="round" stroke-linejoin="round" stroke-dasharray="1,6" fill="#eee" fill-opacity="0.5" fill-rule="evenodd" d="M346 259L343 262L347 263L351 267L354 267L359 276L368 268L376 273L380 270L382 274L384 273L386 261L393 262L395 257L398 256L402 260L408 255L410 250L404 247L402 240L399 239L396 235L391 233L381 235L380 233L378 234L379 235L377 235L377 237L373 236L371 240L366 240L362 243L362 248L360 251L362 253L361 254L355 252L351 255L352 256L349 259L347 259z"/></g></svg>