<svg xmlns="http://www.w3.org/2000/svg" pointer-events="none" class="leaflet-zoom-animated" width="1060" height="563" viewBox="-88 -47 1060 563" style="transform: translate3d(-88px, -47px, 0px);"><g><path class="leaflet-interactive" stroke="black" stroke-opacity="1" stroke-width="2" stroke-linecap="round" stroke-linejoin="round" fill="#fff" fill-opacity="0.2" fill-rule="evenodd" d="M468 339L470 341L476 341L479 344L481 344L479 349L480 354L477 356L476 359L479 363L480 364L485 362L490 364L487 365L488 368L486 370L482 371L483 381L481 386L475 390L473 395L467 400L466 409L468 411L467 412L472 410L472 406L477 404L480 400L482 402L488 402L487 406L489 406L489 408L487 409L489 411L488 414L490 417L487 423L492 426L495 423L497 423L499 418L514 420L519 415L521 415L521 411L519 409L522 398L530 398L532 400L533 399L544 402L547 410L549 410L550 413L558 411L558 406L560 403L557 400L560 397L559 395L553 395L552 390L554 390L554 392L559 390L564 386L565 387L564 385L570 381L572 381L573 385L575 385L579 389L584 389L585 392L591 389L596 391L599 388L599 386L602 385L604 380L600 372L606 362L606 353L608 354L615 349L613 347L603 349L602 348L603 345L606 343L606 337L608 335L609 329L602 325L601 326L598 323L597 317L601 309L598 307L596 302L594 302L594 300L598 294L599 286L589 289L586 287L587 280L585 279L586 274L594 264L592 261L594 257L603 254L602 253L606 253L604 247L607 246L616 238L616 234L614 234L612 232L614 230L608 226L610 224L611 213L607 211L605 205L604 206L602 204L603 203L599 201L596 197L593 200L592 197L590 199L590 191L586 189L589 183L592 183L593 181L592 178L588 176L592 172L588 167L583 167L585 159L582 160L567 178L563 180L562 176L557 178L556 177L555 171L560 164L559 163L557 167L555 167L556 164L554 162L550 164L544 172L539 170L538 172L533 170L533 172L526 177L527 173L524 170L524 168L522 170L519 169L516 166L517 165L513 161L511 161L512 159L502 155L499 157L493 156L491 154L486 155L484 153L483 154L477 148L466 148L461 144L457 144L457 148L455 149L452 147L445 148L445 150L448 151L445 154L447 159L451 161L451 163L446 167L443 166L443 168L439 170L434 165L428 162L416 162L411 165L412 166L409 169L409 171L407 172L404 170L400 170L398 176L397 175L395 178L395 184L392 184L393 187L389 191L389 197L387 197L391 199L387 210L388 215L390 217L388 221L385 223L391 223L388 233L390 235L389 239L391 241L395 241L392 244L390 253L394 253L390 257L393 268L398 270L398 277L394 279L391 282L391 284L382 284L382 288L379 289L379 291L373 295L374 297L367 302L371 305L375 305L374 304L380 300L382 300L381 302L383 303L388 298L395 298L396 300L398 299L399 302L397 302L401 304L402 309L397 312L398 313L398 311L400 313L399 315L402 320L404 318L402 320L400 318L397 318L393 322L390 321L392 324L393 323L395 330L393 333L394 334L391 336L389 340L390 342L392 342L391 343L395 343L398 341L397 345L400 351L397 353L399 354L400 357L406 354L406 356L410 357L408 360L409 363L414 363L412 357L413 355L416 356L418 349L421 347L427 349L425 354L427 356L429 356L431 353L434 357L433 358L436 359L440 351L447 346L447 342L449 342L450 340L455 342L456 341L457 344L465 344L464 341L465 338L467 338zM398 315L399 314zM556 162L554 161zM401 319L401 319z"/><path class="leaflet-interactive" stroke="#333" stroke-opacity="1" stroke-width="1" stroke-linecap="round" stroke-linejoin="round" stroke-dasharray="1,6" fill="#fff" fill-opacity="0" fill-rule="evenodd" d="M509 254L509 256L510 255L514 260L520 260L520 258L523 256L532 257L532 253L535 252L543 261L543 259L547 258L549 251L554 256L556 255L559 257L561 254L565 259L567 255L566 254L569 253L571 255L571 262L572 261L575 263L578 262L578 260L580 260L583 257L585 257L586 260L592 261L595 256L603 254L602 253L606 253L604 247L607 246L616 238L616 234L614 234L612 232L614 230L608 226L604 226L602 228L598 227L595 231L591 233L585 227L584 228L580 224L578 224L578 222L576 221L574 223L570 221L567 225L568 226L566 230L563 228L558 231L557 228L549 228L550 226L548 226L548 228L544 228L542 230L539 238L533 238L524 244L519 241L514 242L510 246L509 253z"/><path class="leaflet-interactive" stroke="#333" stroke-opacity="1" stroke-width="1" stroke-linecap="round" stroke-linejoin="round" stroke-dasharray="1,6" fill="#eee" fill-opacity="0.5" fill-rule="evenodd" d="M592 261L588 261L586 259L585 260L584 257L575 263L572 261L571 262L571 255L569 253L566 254L567 255L565 259L563 257L559 264L561 268L559 273L560 272L561 274L559 274L557 277L557 282L559 284L558 285L561 288L560 289L564 295L566 293L572 297L566 300L568 302L570 309L572 309L569 312L572 318L573 316L578 317L578 320L576 322L578 324L578 329L581 327L584 328L587 335L585 337L586 341L592 346L592 350L590 352L592 355L606 343L606 337L609 332L608 333L609 329L607 327L602 325L601 326L598 323L597 317L601 309L598 307L596 302L594 302L594 300L598 294L599 286L591 289L586 287L586 274L594 264L592 261z"/><path class="leaflet-interactive" stroke="#333" stroke-opacity="1" stroke-width="1" stroke-linecap="round" stroke-linejoin="round" stroke-dasharray="1,6" fill="#fff" fill-opacity="0" fill-rule="evenodd" d="M513 259L514 263L516 265L517 264L519 268L515 270L517 273L523 273L524 270L528 271L528 273L526 273L528 275L527 281L531 281L533 279L538 285L539 283L540 284L542 282L545 283L544 284L551 289L554 288L556 284L558 284L557 277L561 274L559 272L561 269L559 264L563 257L562 254L559 257L556 254L554 256L549 251L550 253L548 253L549 254L547 259L543 258L542 261L534 252L532 252L532 257L523 256L519 260L514 260z"/><path class="leaflet-interactive" stroke="#333" stroke-opacity="1" stroke-width="1" stroke-linecap="round" stroke-linejoin="round" stroke-dasharray="1,6" fill="#eee" fill-opacity="0.5" fill-rule="evenodd" d="M559 284L555 285L555 287L551 289L547 285L546 286L544 284L545 283L542 282L540 284L539 283L535 288L527 287L523 293L521 289L521 293L515 298L515 302L517 303L517 305L513 309L510 308L509 310L507 305L506 306L503 303L498 304L498 307L494 309L492 314L495 317L497 316L497 314L502 314L503 317L507 316L514 327L513 324L519 324L521 328L520 331L523 329L524 330L522 332L521 331L520 334L520 339L522 339L522 347L524 351L531 346L536 350L539 349L540 346L543 350L542 352L548 350L549 347L551 349L559 349L560 344L562 344L566 340L566 336L569 332L566 330L567 322L563 318L566 317L565 314L570 316L571 315L569 313L572 309L569 308L569 304L566 300L570 299L571 297L572 298L569 294L566 293L564 296L563 292L560 289L561 288L558 285L559 284z"/><path class="leaflet-interactive" stroke="#333" stroke-opacity="1" stroke-width="1" stroke-linecap="round" stroke-linejoin="round" stroke-dasharray="1,6" fill="#eee" fill-opacity="0.5" fill-rule="evenodd" d="M468 339L471 327L473 327L474 325L473 329L475 330L475 332L477 334L478 332L481 332L481 322L483 318L482 315L484 313L493 314L495 311L494 308L498 307L497 306L501 302L506 306L507 305L509 307L509 310L517 305L515 299L517 296L516 291L509 286L507 282L506 283L501 279L497 280L497 276L496 277L493 274L490 276L488 275L484 279L481 277L479 279L475 276L471 276L471 274L469 273L468 274L464 272L459 277L455 274L453 275L451 278L454 283L450 291L449 292L447 290L442 296L440 295L438 296L438 298L436 297L431 300L432 301L429 307L426 309L427 311L424 313L424 319L426 321L424 321L423 323L420 322L414 326L416 327L417 330L416 333L422 335L421 336L423 340L421 346L422 348L427 349L425 354L429 356L431 353L434 359L437 358L440 351L447 346L447 342L449 342L450 340L455 342L456 341L457 344L465 344L464 341L465 338L467 338z"/><path class="leaflet-interactive" stroke="#333" stroke-opacity="1" stroke-width="1" stroke-linecap="round" stroke-linejoin="round" stroke-dasharray="1,6" fill="#eee" fill-opacity="0.5" fill-rule="evenodd" d="M528 176L532 184L534 184L537 187L542 185L545 188L544 193L550 193L550 195L553 194L556 199L556 201L551 207L544 209L544 213L536 221L540 222L539 225L541 227L544 224L546 224L547 225L544 228L548 228L548 226L550 226L549 227L553 229L558 228L558 231L563 228L565 230L567 229L569 221L573 223L575 223L576 221L578 225L579 224L584 228L585 227L591 233L595 231L598 227L607 227L610 224L611 213L607 211L605 205L604 206L602 204L603 203L599 201L596 197L593 200L592 197L590 199L590 191L586 189L589 183L592 183L593 181L592 178L588 176L592 172L590 169L588 167L583 167L585 159L582 160L567 178L563 180L562 176L557 178L556 177L555 171L560 164L559 163L557 167L555 167L556 164L554 162L550 164L544 172L539 170L538 172L533 170L533 172L530 175L528 175zM556 162L554 161z"/><path class="leaflet-interactive" stroke="#333" stroke-opacity="1" stroke-width="1" stroke-linecap="round" stroke-linejoin="round" stroke-dasharray="1,6" fill="#eee" fill-opacity="0.5" fill-rule="evenodd" d="M526 177L527 173L524 170L524 168L522 170L519 169L516 166L517 165L513 161L511 161L512 159L507 158L505 156L502 155L499 157L493 156L491 154L486 155L484 153L483 154L477 148L466 148L461 144L457 144L457 148L455 149L452 147L445 148L445 150L448 151L445 154L447 159L451 161L453 166L468 168L470 169L470 171L478 171L483 176L483 180L478 186L478 191L471 193L469 197L466 196L461 198L461 200L462 199L467 204L465 206L473 216L471 221L465 223L465 225L468 225L470 223L471 227L463 231L461 233L462 234L469 231L473 231L478 227L483 228L485 226L489 226L494 222L497 222L499 224L501 223L501 221L504 221L506 223L509 222L509 220L513 220L512 221L514 222L514 220L516 220L518 222L526 217L527 212L525 210L525 200L522 195L524 192L523 187L525 187L527 178z"/><path class="leaflet-interactive" stroke="#333" stroke-opacity="1" stroke-width="1" stroke-linecap="round" stroke-linejoin="round" stroke-dasharray="1,6" fill="#eee" fill-opacity="0.5" fill-rule="evenodd" d="M440 209L446 209L448 203L454 208L461 206L460 204L464 202L464 200L461 199L462 197L469 197L472 192L478 191L480 183L483 180L483 176L478 171L475 172L471 171L468 168L456 166L455 167L451 164L446 167L443 166L443 168L439 170L434 165L428 162L413 163L409 171L412 172L410 175L414 183L418 180L422 188L425 186L427 187L427 190L425 192L426 195L427 196L430 194L435 199L436 198L438 202L436 205L440 209z"/><path class="leaflet-interactive" stroke="#333" stroke-opacity="1" stroke-width="1" stroke-linecap="round" stroke-linejoin="round" stroke-dasharray="1,6" fill="#fff" fill-opacity="0" fill-rule="evenodd" d="M544 228L547 225L546 224L544 224L541 227L539 225L540 222L536 221L537 218L544 214L543 211L552 206L556 201L555 195L550 195L550 193L544 193L545 188L542 185L540 187L536 187L536 185L532 184L528 176L526 176L527 182L525 183L525 187L523 187L524 192L522 194L525 200L525 210L527 212L525 218L518 221L514 220L514 222L511 220L509 220L510 221L506 223L502 221L500 222L500 224L498 224L498 222L495 222L489 226L485 226L483 228L479 227L473 231L461 234L455 239L459 241L459 244L461 244L459 248L461 251L462 250L463 255L466 252L468 252L471 255L475 248L482 243L485 245L490 244L490 253L494 253L492 255L493 256L498 253L497 254L498 253L501 256L506 253L509 254L510 246L514 242L519 241L521 243L524 243L533 238L539 238L540 233L544 228z"/><path class="leaflet-interactive" stroke="#333" stroke-opacity="1" stroke-width="1" stroke-linecap="round" stroke-linejoin="round" stroke-dasharray="1,6" fill="#eee" fill-opacity="0.5" fill-rule="evenodd" d="M530 398L532 400L533 399L544 402L547 410L549 410L550 413L558 411L558 406L560 403L557 400L560 397L559 395L553 395L552 390L554 390L554 392L559 390L564 386L565 387L564 385L570 381L572 381L573 385L575 385L579 389L584 389L585 392L591 389L596 391L599 388L599 386L602 385L604 380L600 372L606 362L606 353L608 354L615 349L613 347L603 349L600 348L600 350L596 353L595 352L593 355L591 354L590 352L592 350L592 346L589 343L587 343L585 338L587 335L584 327L578 329L578 325L576 322L578 320L577 316L573 316L573 318L571 317L571 315L570 316L566 314L566 317L563 317L563 319L565 319L564 320L567 323L566 329L569 331L569 333L566 337L567 340L565 340L565 342L561 344L559 349L551 349L550 347L548 350L543 352L544 350L542 350L541 346L539 347L539 349L536 350L533 347L531 347L524 352L529 353L527 357L528 360L525 362L530 362L531 365L529 366L531 370L529 372L526 371L524 373L524 379L528 381L530 380L533 386L532 388L534 388L529 393L530 397z"/><path class="leaflet-interactive" stroke="#333" stroke-opacity="1" stroke-width="1" stroke-linecap="round" stroke-linejoin="round" stroke-dasharray="1,6" fill="#eee" fill-opacity="0.5" fill-rule="evenodd" d="M530 398L529 393L534 388L532 388L533 387L530 380L528 381L524 379L524 373L526 371L528 371L529 373L529 371L531 371L531 368L529 366L531 364L530 362L525 362L527 360L529 353L524 352L522 348L523 342L521 340L522 339L520 339L520 333L524 330L523 329L520 331L521 328L519 324L514 324L514 326L511 324L509 320L510 319L507 316L504 317L498 314L496 317L491 313L485 313L482 315L483 318L482 321L480 322L482 324L481 332L475 333L474 325L471 328L468 340L477 341L478 344L481 343L479 349L480 354L477 356L476 359L480 364L483 362L490 364L487 365L488 368L486 370L482 371L483 381L481 386L475 390L473 395L467 400L467 412L472 410L472 406L477 404L480 400L482 402L488 402L487 406L489 406L489 408L487 409L489 411L488 414L490 417L487 423L492 426L495 423L497 423L499 418L514 420L519 415L521 415L521 411L519 409L522 398L529 398z"/><path class="leaflet-interactive" stroke="#333" stroke-opacity="1" stroke-width="1" stroke-linecap="round" stroke-linejoin="round" stroke-dasharray="1,6" fill="#eee" fill-opacity="0.5" fill-rule="evenodd" d="M396 269L398 270L398 277L394 279L391 282L391 284L382 284L382 288L379 289L379 291L373 295L374 297L367 302L371 305L375 305L374 304L380 300L382 300L381 302L383 303L388 298L395 298L396 300L398 299L399 302L397 302L401 304L402 309L397 312L398 313L398 311L400 313L399 315L402 320L404 318L402 320L400 318L397 318L393 322L390 321L392 324L393 323L395 330L393 333L394 334L391 336L389 340L390 342L392 342L391 343L395 343L398 341L397 345L400 351L397 353L399 354L399 356L404 356L406 354L406 356L410 357L408 362L414 363L412 357L413 355L416 356L418 349L421 347L423 341L421 337L422 335L416 333L417 330L416 327L414 326L420 322L423 323L426 321L424 319L424 313L427 311L426 309L434 298L437 298L439 295L442 296L443 293L446 292L447 290L448 292L450 291L452 284L454 283L451 278L453 275L456 274L458 277L460 276L462 272L457 265L458 263L462 263L467 259L466 257L468 255L466 255L467 253L469 253L466 252L463 255L462 250L461 251L461 249L459 248L461 244L459 244L458 240L457 241L455 239L458 236L460 236L460 234L464 230L470 227L470 223L468 225L465 224L470 221L470 219L473 217L471 212L465 206L467 204L464 201L457 208L453 208L448 203L446 209L441 208L438 214L436 216L435 215L435 220L432 221L433 225L429 227L430 231L427 232L432 237L430 239L433 243L433 245L432 244L430 246L431 247L429 250L427 250L427 256L425 256L425 258L422 259L421 257L418 258L415 255L412 255L413 253L410 253L408 258L406 260L405 259L406 264L401 266L401 264L399 266L398 265L396 268zM398 315L399 314zM401 319L400 319z"/><path class="leaflet-interactive" stroke="#333" stroke-opacity="1" stroke-width="1" stroke-linecap="round" stroke-linejoin="round" stroke-dasharray="1,6" fill="#fff" fill-opacity="0" fill-rule="evenodd" d="M517 296L521 293L521 289L523 293L528 287L534 288L537 285L532 279L530 281L527 280L527 270L525 270L522 273L518 273L515 271L517 268L519 268L518 265L514 263L511 255L510 256L508 253L504 255L503 254L501 256L498 253L495 253L493 256L492 255L494 253L492 254L491 251L492 253L490 253L490 245L483 245L483 243L481 243L478 247L476 246L471 255L467 253L466 255L468 255L464 262L458 262L457 265L460 271L465 273L467 272L467 274L469 273L471 276L475 276L478 279L481 277L484 279L488 275L489 276L493 274L496 277L497 276L497 279L501 279L506 283L507 282L515 291L517 296z"/><path class="leaflet-interactive" stroke="#333" stroke-opacity="1" stroke-width="1" stroke-linecap="round" stroke-linejoin="round" stroke-dasharray="1,6" fill="#eee" fill-opacity="0.5" fill-rule="evenodd" d="M396 269L398 266L397 265L399 265L398 266L400 264L402 266L406 263L405 260L409 257L410 253L413 253L413 256L415 255L418 258L421 257L423 259L425 258L425 256L427 256L427 250L430 249L429 248L431 247L430 246L432 244L433 245L433 243L430 240L432 236L427 233L427 231L428 232L429 227L433 225L432 221L435 220L435 216L438 214L440 210L439 207L436 205L438 202L436 198L435 199L431 194L429 194L428 196L426 195L425 192L427 188L425 186L423 188L421 187L419 180L414 183L410 175L412 171L407 172L404 170L400 170L398 176L397 175L395 178L395 184L392 184L393 187L389 191L389 197L387 197L391 199L387 210L388 215L390 217L388 221L385 223L391 223L388 233L390 235L389 239L391 241L395 241L392 244L390 253L394 253L390 257L393 268L395 269z"/></g></svg>