<svg xmlns="http://www.w3.org/2000/svg" pointer-events="none" class="leaflet-zoom-animated" width="1060" height="563" viewBox="-88 -47 1060 563" style="transform: translate3d(-88px, -47px, 0px);"><g><path class="leaflet-interactive" stroke="black" stroke-opacity="1" stroke-width="2" stroke-linecap="round" stroke-linejoin="round" fill="#fff" fill-opacity="0.2" fill-rule="evenodd" d="M628 345L626 347L628 356L624 358L625 359L622 357L621 354L614 354L617 352L613 352L611 350L611 346L609 345L606 347L601 341L601 337L605 335L602 325L601 323L599 323L600 322L598 320L598 318L601 317L601 315L598 312L597 313L598 312L595 309L593 309L589 303L584 303L587 300L584 297L575 298L563 287L557 285L556 278L560 276L557 269L567 262L575 252L575 247L572 243L572 239L567 238L556 242L548 249L539 247L535 244L530 247L521 249L526 255L520 262L516 262L515 260L510 258L510 256L508 256L507 253L508 251L505 253L502 253L500 251L499 252L499 240L491 240L491 238L487 237L487 234L485 232L477 229L476 226L467 225L468 226L476 222L483 214L483 206L485 204L485 201L482 196L472 194L470 197L461 197L461 200L459 202L456 199L452 201L452 203L450 203L449 199L447 200L448 202L442 205L442 195L433 189L425 178L431 172L415 138L400 139L390 144L388 149L390 149L389 151L393 155L390 157L392 160L387 166L377 169L373 173L373 175L371 174L369 169L366 170L360 176L355 177L347 184L339 196L338 202L319 205L312 237L305 245L307 251L312 248L313 249L323 247L324 253L326 255L337 254L340 257L338 257L338 259L340 260L351 259L356 271L365 268L369 269L372 272L378 272L382 269L385 273L386 272L390 276L391 275L395 277L397 273L404 274L404 267L407 266L407 264L413 264L410 255L412 248L410 246L422 248L423 250L425 250L436 258L440 255L440 251L443 251L447 254L453 249L458 253L459 256L469 264L469 266L483 275L484 274L480 266L485 268L485 270L488 272L492 274L497 274L499 277L500 276L500 280L504 283L505 282L508 286L511 287L512 285L514 285L518 288L517 289L521 291L523 289L526 290L528 294L527 295L530 298L532 298L540 307L536 307L536 310L541 315L539 318L542 321L544 329L546 329L549 332L545 336L547 338L547 342L543 342L541 344L543 350L542 351L537 350L535 354L531 355L531 357L534 360L532 364L526 367L527 369L523 369L523 376L525 379L529 379L531 384L526 386L524 390L519 391L513 387L508 386L507 384L506 385L502 383L500 383L497 388L501 394L507 399L506 403L515 402L516 407L522 404L524 409L520 414L522 418L525 415L530 415L529 412L532 409L536 409L536 407L532 403L533 401L531 397L528 394L534 394L536 391L540 391L539 389L546 385L547 388L551 389L552 399L559 399L560 402L563 401L566 403L571 402L575 405L574 406L577 412L581 412L577 413L579 416L578 420L580 420L577 424L581 428L582 427L587 431L590 430L591 432L594 430L596 432L604 427L602 425L604 423L607 424L614 421L614 415L615 416L609 410L612 410L612 408L616 404L620 406L622 404L625 404L627 407L629 406L627 397L625 396L629 390L629 387L627 387L628 385L630 387L632 383L628 379L623 378L626 375L627 376L626 375L629 372L627 367L627 365L629 364L628 363L639 364L644 369L658 366L655 363L655 357L659 359L663 359L666 357L674 358L676 351L673 346L673 341L677 339L678 334L676 331L676 327L673 324L673 326L669 322L667 322L667 320L665 322L662 321L662 319L660 319L658 316L654 314L653 315L650 312L647 312L643 305L638 307L637 305L634 305L633 307L630 306L631 310L628 310L631 313L631 315L626 320L627 321L624 322L628 324L628 331L635 331L638 337L635 341L637 345L636 344L633 347L628 345zM617 352L618 352zM544 328L544 328zM618 353L618 354zM628 345L627 345z"/><path class="leaflet-interactive" stroke="#333" stroke-opacity="1" stroke-width="1" stroke-linecap="round" stroke-linejoin="round" stroke-dasharray="1,6" fill="#eee" fill-opacity="0.5" fill-rule="evenodd" d="M561 310L555 311L558 311L560 313L557 315L556 312L547 311L545 312L546 313L543 316L543 319L540 318L542 316L539 318L542 321L544 329L556 335L557 334L557 336L561 335L562 339L576 350L584 334L582 332L582 326L575 328L574 331L574 328L571 323L572 322L568 319L569 316L565 314L566 315L563 316L560 311zM544 328L544 328z"/><path class="leaflet-interactive" stroke="#333" stroke-opacity="1" stroke-width="1" stroke-linecap="round" stroke-linejoin="round" stroke-dasharray="1,6" fill="#eee" fill-opacity="0.5" fill-rule="evenodd" d="M431 231L439 230L442 233L442 229L446 225L443 223L442 224L435 222L435 227L433 229z"/><path class="leaflet-interactive" stroke="#333" stroke-opacity="1" stroke-width="1" stroke-linecap="round" stroke-linejoin="round" stroke-dasharray="1,6" fill="#eee" fill-opacity="0.5" fill-rule="evenodd" d="M527 255L520 262L517 261L513 269L510 270L510 272L513 274L511 277L512 280L518 278L525 278L526 280L528 280L531 277L534 278L537 276L541 276L540 275L542 274L541 269L539 269L539 267L534 262L535 255L532 253L528 254L524 252z"/><path class="leaflet-interactive" stroke="#333" stroke-opacity="1" stroke-width="1" stroke-linecap="round" stroke-linejoin="round" stroke-dasharray="1,6" fill="#eee" fill-opacity="0.5" fill-rule="evenodd" d="M604 346L604 344L602 344L601 337L605 335L605 333L601 323L599 323L600 322L598 320L598 318L601 317L601 315L598 312L597 313L598 312L595 309L593 309L589 303L584 303L587 300L584 297L575 298L567 291L565 294L565 302L560 311L562 315L566 316L565 314L569 316L568 319L572 322L571 323L574 328L573 331L575 328L580 327L582 325L582 332L584 334L582 336L585 337L593 346L593 353L596 354L599 352L603 352L604 346z"/><path class="leaflet-interactive" stroke="#333" stroke-opacity="1" stroke-width="1" stroke-linecap="round" stroke-linejoin="round" stroke-dasharray="1,6" fill="#eee" fill-opacity="0.5" fill-rule="evenodd" d="M627 365L625 365L625 363L622 361L609 365L606 361L606 364L604 362L600 366L599 365L598 368L593 367L590 370L584 370L584 374L589 382L594 382L596 379L603 382L606 385L606 391L608 391L609 389L622 390L623 387L624 390L626 390L628 385L630 387L632 385L632 383L628 379L623 378L626 375L627 376L626 375L629 372L627 367L628 366z"/><path class="leaflet-interactive" stroke="#333" stroke-opacity="1" stroke-width="1" stroke-linecap="round" stroke-linejoin="round" stroke-dasharray="1,6" fill="#eee" fill-opacity="0.5" fill-rule="evenodd" d="M561 310L565 301L564 298L567 291L563 287L557 285L556 278L560 276L557 269L567 262L575 252L575 247L572 243L573 240L570 238L556 242L548 249L539 247L535 244L530 247L521 249L526 255L524 252L527 252L528 254L535 254L534 262L539 267L538 269L541 269L542 274L540 276L534 278L531 277L528 280L529 281L526 283L528 283L529 285L529 287L526 290L528 294L527 295L530 298L532 298L540 307L536 307L536 310L542 316L540 318L543 319L542 318L546 311L554 311L553 312L555 312L557 315L559 313L560 314L560 312L559 313L559 311L557 312L555 310L560 310z"/><path class="leaflet-interactive" stroke="#333" stroke-opacity="1" stroke-width="1" stroke-linecap="round" stroke-linejoin="round" stroke-dasharray="1,6" fill="#eee" fill-opacity="0.5" fill-rule="evenodd" d="M526 292L530 285L527 283L527 280L522 278L512 280L511 279L513 275L510 270L514 268L516 262L515 260L508 256L508 251L505 253L498 251L499 240L491 240L491 238L487 237L487 234L485 232L477 229L476 226L465 226L461 228L457 227L456 231L452 233L455 235L457 233L463 239L464 241L461 244L461 247L460 244L456 242L455 243L444 235L443 236L439 230L433 232L427 231L423 236L420 243L421 247L423 250L425 250L436 258L440 255L440 251L443 251L447 254L453 249L458 253L459 256L469 264L469 266L483 275L484 274L480 266L485 268L485 270L488 272L492 274L497 274L499 277L500 276L500 280L504 283L505 282L508 286L511 287L512 285L514 285L518 288L517 289L521 291L525 289L526 291z"/><path class="leaflet-interactive" stroke="#333" stroke-opacity="1" stroke-width="1" stroke-linecap="round" stroke-linejoin="round" stroke-dasharray="1,6" fill="#eee" fill-opacity="0.5" fill-rule="evenodd" d="M618 354L614 354L617 352L613 352L611 350L611 346L609 345L606 347L605 346L605 349L602 352L602 354L606 356L606 360L610 365L622 361L626 365L628 365L628 363L639 364L644 369L658 366L654 360L656 356L652 352L643 351L643 353L641 353L635 347L630 345L626 347L628 356L624 358L625 359L622 357L621 354L618 355zM617 352L618 352zM618 353L618 354zM628 345L627 345z"/><path class="leaflet-interactive" stroke="#333" stroke-opacity="1" stroke-width="1" stroke-linecap="round" stroke-linejoin="round" stroke-dasharray="1,6" fill="#fff" fill-opacity="0" fill-rule="evenodd" d="M467 226L476 222L483 214L483 206L485 204L485 201L482 196L472 194L470 197L461 197L461 200L459 202L456 199L452 201L452 203L450 203L449 199L447 200L448 202L442 205L442 195L433 189L425 178L431 172L417 141L415 138L400 139L389 145L388 149L390 149L389 151L393 155L390 157L392 160L387 166L377 169L373 173L373 175L371 174L369 169L366 170L360 176L355 177L347 184L339 196L338 202L319 205L312 237L305 245L305 248L307 251L312 248L313 249L323 247L324 253L326 255L337 254L340 257L338 257L338 259L340 260L351 259L356 271L365 268L369 269L372 272L378 272L382 269L385 273L386 272L390 276L391 275L395 277L397 273L404 274L404 267L407 266L407 264L413 264L410 255L412 248L410 246L420 248L420 243L422 241L423 236L435 227L435 222L442 224L445 223L445 227L442 229L442 235L444 235L447 237L446 238L453 242L460 244L461 247L461 244L464 242L463 239L458 235L458 233L455 235L452 233L456 232L457 227L460 228L465 226zM431 231L431 231z"/><path class="leaflet-interactive" stroke="#333" stroke-opacity="1" stroke-width="1" stroke-linecap="round" stroke-linejoin="round" stroke-dasharray="1,6" fill="#eee" fill-opacity="0.5" fill-rule="evenodd" d="M633 347L635 347L641 353L645 351L655 354L655 356L659 359L663 359L666 357L674 358L676 351L673 346L673 341L677 339L678 334L676 331L676 327L673 324L673 326L669 322L667 322L667 320L665 322L662 321L662 319L660 319L658 316L654 314L653 315L650 312L647 312L643 305L638 307L637 305L634 305L633 307L630 306L631 310L628 310L631 313L631 315L626 320L627 321L624 322L628 324L628 331L635 331L638 335L636 339L637 340L635 341L637 345L636 344L633 346z"/><path class="leaflet-interactive" stroke="#333" stroke-opacity="1" stroke-width="1" stroke-linecap="round" stroke-linejoin="round" stroke-dasharray="1,6" fill="#eee" fill-opacity="0.5" fill-rule="evenodd" d="M608 362L606 360L606 356L601 352L595 354L592 351L593 346L585 337L583 337L580 340L580 344L576 350L564 340L559 340L561 345L566 349L567 352L564 358L565 365L571 369L571 373L567 373L566 382L564 385L571 390L574 387L573 385L575 383L581 385L580 386L582 388L587 386L588 387L590 383L593 382L589 382L589 380L584 374L584 370L590 370L592 367L598 368L599 365L600 366L604 362L606 364L607 362z"/><path class="leaflet-interactive" stroke="#333" stroke-opacity="1" stroke-width="1" stroke-linecap="round" stroke-linejoin="round" stroke-dasharray="1,6" fill="#eee" fill-opacity="0.5" fill-rule="evenodd" d="M627 387L627 389L624 391L623 387L622 390L610 389L607 391L604 383L598 379L591 383L589 387L584 388L582 388L579 383L575 383L573 385L574 388L571 390L571 392L583 400L582 404L588 412L585 413L585 415L583 415L582 411L580 413L577 413L579 416L578 420L580 420L577 424L587 431L590 430L591 432L594 430L596 432L604 427L602 425L604 423L607 424L614 421L614 415L615 416L609 410L612 410L612 408L616 404L620 406L622 404L625 404L627 407L629 406L627 397L625 396L629 390L628 387z"/><path class="leaflet-interactive" stroke="#333" stroke-opacity="1" stroke-width="1" stroke-linecap="round" stroke-linejoin="round" stroke-dasharray="1,6" fill="#eee" fill-opacity="0.5" fill-rule="evenodd" d="M542 352L547 354L547 359L550 358L556 362L560 362L564 365L563 366L565 366L563 368L567 368L564 362L564 358L566 356L567 351L559 341L560 339L562 339L560 335L558 336L557 334L556 335L554 333L549 332L545 336L547 338L547 342L543 342L541 344L543 351z"/><path class="leaflet-interactive" stroke="#333" stroke-opacity="1" stroke-width="1" stroke-linecap="round" stroke-linejoin="round" stroke-dasharray="1,6" fill="#eee" fill-opacity="0.5" fill-rule="evenodd" d="M571 390L568 386L564 386L567 374L571 372L571 369L567 366L567 368L563 368L565 366L563 366L564 365L562 363L556 362L554 359L547 359L547 354L537 350L535 354L531 355L531 357L534 360L532 364L526 367L527 369L523 369L523 376L525 379L529 379L531 384L526 386L524 390L519 391L513 387L508 386L507 384L506 385L502 383L500 383L497 388L501 394L507 399L506 403L515 402L516 407L522 404L524 409L520 414L522 418L525 415L530 415L529 412L532 409L536 409L536 407L532 403L533 401L531 397L528 394L534 394L536 391L540 391L539 389L546 385L547 388L551 389L552 399L559 399L560 402L563 401L566 403L571 402L575 405L574 406L577 412L582 411L583 415L585 415L585 413L588 412L582 403L583 401L571 391z"/></g></svg>