<svg xmlns="http://www.w3.org/2000/svg" pointer-events="none" class="leaflet-zoom-animated" width="1060" height="563" viewBox="-88 -47 1060 563" style="transform: translate3d(-88px, -47px, 0px);"><g><path class="leaflet-interactive" stroke="black" stroke-opacity="1" stroke-width="2" stroke-linecap="round" stroke-linejoin="round" fill="#fff" fill-opacity="0.2" fill-rule="evenodd" d="M497 383L502 380L506 380L509 383L509 387L513 386L517 382L515 377L516 375L519 375L524 370L524 368L521 368L519 366L517 367L515 366L515 364L518 362L518 364L521 365L522 363L527 363L527 361L537 361L532 357L539 356L537 354L539 349L538 348L536 351L534 351L534 349L530 347L536 344L534 344L536 339L531 335L532 334L539 334L537 334L536 336L537 338L542 338L539 341L539 343L541 345L547 346L544 347L546 352L545 351L547 349L546 347L548 346L548 342L546 342L547 341L544 339L545 337L549 340L552 339L555 341L558 339L556 336L562 335L562 333L560 333L557 329L553 329L551 326L548 326L548 321L552 321L552 319L554 318L554 322L560 323L560 315L565 318L567 317L565 322L566 323L569 321L569 326L572 327L575 324L573 322L574 321L576 329L580 327L578 327L580 327L581 323L577 322L581 319L581 321L583 321L586 324L589 320L592 320L593 318L592 319L590 315L595 312L591 311L592 310L589 309L588 306L584 307L581 310L584 316L582 316L579 319L577 317L576 311L572 311L572 308L568 308L568 305L575 304L578 301L578 290L582 289L583 286L584 280L581 279L579 273L577 273L576 270L581 264L580 263L587 261L589 262L589 260L592 258L595 259L599 256L599 254L595 256L594 255L591 250L588 239L585 237L580 237L577 239L575 237L579 232L578 231L580 231L579 228L583 232L592 232L593 235L596 234L595 231L598 228L598 225L606 226L601 229L600 234L598 236L592 238L591 244L595 244L600 238L601 239L611 235L609 231L612 229L609 228L611 224L608 224L608 222L606 222L605 219L610 217L610 215L616 216L618 214L618 211L620 210L619 207L621 207L620 203L627 203L631 199L628 195L628 189L624 184L624 180L619 181L618 177L616 179L610 179L611 180L608 181L605 185L601 182L598 186L592 186L590 188L587 187L588 186L585 183L586 182L582 178L583 172L581 170L580 171L581 168L578 164L579 161L576 160L572 160L572 162L571 161L569 164L570 165L567 171L562 171L554 179L545 178L545 174L543 176L540 175L539 173L537 173L537 175L535 175L534 177L531 176L528 171L532 168L532 164L529 160L531 158L527 152L528 150L526 148L526 144L520 139L519 133L522 129L525 128L524 124L522 125L525 120L519 114L516 117L511 118L511 116L509 116L504 119L500 115L495 120L493 120L497 124L495 131L493 130L486 133L483 132L479 139L473 137L472 139L468 139L462 142L459 145L459 149L456 151L448 147L446 141L442 138L435 145L431 147L430 144L426 148L428 148L428 153L426 156L422 158L422 160L416 159L415 164L413 161L411 161L410 164L409 163L410 169L411 170L414 168L416 173L415 174L417 179L415 185L420 188L411 199L411 203L405 207L388 211L380 220L380 226L377 229L379 234L381 235L379 241L385 248L383 251L384 253L380 255L380 253L377 252L369 263L371 270L375 269L376 272L369 279L367 284L353 291L356 299L353 298L351 303L348 303L348 314L347 316L345 316L346 323L344 324L345 329L343 332L341 332L340 336L335 338L335 342L337 342L336 344L340 349L336 352L339 354L339 356L337 354L336 355L338 357L343 360L345 359L350 364L353 364L356 361L359 367L363 367L369 361L371 364L368 367L370 367L373 373L375 372L377 374L378 381L383 377L393 377L394 375L396 375L397 377L393 384L400 391L398 391L400 396L401 395L402 397L403 403L405 403L404 408L406 408L409 411L404 416L404 419L406 419L405 421L408 426L406 429L406 433L410 435L414 447L421 449L421 454L427 453L429 455L433 455L438 453L438 449L441 447L441 444L448 443L451 438L452 432L458 431L463 424L467 422L468 418L474 409L483 405L480 398L478 398L479 395L476 394L478 386L483 382L486 386L489 387L497 385L496 383zM500 387L498 387L499 389L497 391L494 389L492 390L492 396L494 396L497 393L501 395L504 392L500 386zM568 339L573 341L573 339L575 338L571 338L570 335L566 335L566 338zM634 255L632 255L633 254L633 256L634 254zM595 311L595 309L594 311zM648 210L648 210zM646 209L647 209zM618 214L618 216L618 214zM575 308L577 306L576 305L573 307zM602 266L602 264L600 268L600 266zM600 285L600 284zM622 214L620 214L622 215zM589 233L591 233L589 232zM583 327L585 327L582 326zM582 331L583 328L582 331zM488 395L491 392L489 391L487 395zM624 235L625 235zM596 232L598 234L597 232zM454 439L454 439zM453 438L453 438zM486 388L485 385L480 384L477 390L479 393L482 394L486 389zM597 272L600 270L597 269L596 271zM579 272L580 270L576 269L579 272zM594 252L594 251zM589 240L590 240zM483 401L482 399zM568 329L569 328L567 329zM624 231L626 231L625 230zM604 246L606 246L606 244L604 244L603 246zM611 241L612 241zM580 307L584 307L584 305L581 306zM611 232L610 232zM610 243L611 243zM581 299L581 298zM575 334L574 334zM581 272L581 273zM561 344L561 344zM626 212L627 212zM538 340L537 340zM602 242L602 242zM586 237L590 238L589 236L586 237zM571 334L570 334zM586 331L587 331zM596 251L597 252zM602 264L602 264zM539 350L539 350zM452 438L452 437zM598 284L599 283L597 283zM540 345L541 345zM579 305L579 304zM575 339L576 339zM562 322L563 321zM497 384L498 384zM559 330L559 330zM478 393L477 392zM589 238L589 238zM628 202L628 202zM610 242L613 238L611 238L609 240L610 241zM616 219L616 218zM575 335L575 335zM610 246L611 246zM578 273L578 273zM601 262L601 262zM616 257L616 257zM579 305L580 305zM625 215L627 215L625 211L622 212L622 214L624 215zM611 224L612 225L611 223zM580 236L584 236L586 232L581 232L579 235L580 236zM575 305L575 305zM539 340L540 339L538 340zM587 233L587 232zM561 329L561 329zM567 354L566 353z"/><path class="leaflet-interactive" stroke="#333" stroke-opacity="1" stroke-width="1" stroke-linecap="round" stroke-linejoin="round" stroke-dasharray="1,6" fill="#fff" fill-opacity="0" fill-rule="evenodd" d="M589 242L587 240L582 240L581 243L577 244L568 236L564 236L559 240L556 240L555 243L554 242L552 244L550 240L546 243L542 241L541 238L539 238L538 241L534 244L534 247L531 247L526 251L524 248L525 247L521 245L522 246L520 247L520 249L524 257L519 257L516 261L516 265L512 264L512 266L510 267L509 271L512 277L506 277L506 288L504 288L503 291L501 287L499 289L500 292L498 294L500 296L501 301L505 303L507 306L515 302L519 304L520 303L520 305L526 301L530 302L529 303L534 298L534 302L536 300L546 299L547 300L545 302L547 302L547 310L550 314L552 312L553 315L551 319L554 318L554 322L560 323L560 315L565 318L567 317L565 322L566 323L569 321L569 326L572 327L575 324L573 322L574 321L576 329L580 327L578 327L580 327L581 323L577 322L581 319L581 321L583 321L584 323L588 323L586 323L589 320L592 320L593 318L592 319L590 315L595 312L591 311L592 310L589 309L588 306L584 307L581 310L584 316L582 316L579 319L577 317L576 311L572 311L572 308L568 308L568 305L575 304L578 301L578 290L582 289L583 286L584 280L581 279L579 273L577 273L576 270L581 264L580 263L587 261L589 262L589 260L592 258L595 259L599 256L599 254L595 256L594 255L590 245zM634 255L632 255L633 254L633 256L634 254zM595 311L595 309L594 311zM575 308L577 306L576 305L573 307zM602 266L602 264L600 268L600 266zM600 285L600 284zM583 327L585 327L582 326zM582 331L583 328L582 331zM597 272L600 270L597 269L596 271zM579 272L580 270L576 269L579 272zM594 252L594 251zM568 329L569 328L567 329zM580 307L584 307L584 305L581 306zM581 299L581 298zM581 272L581 273zM586 331L587 331zM596 251L597 252zM602 264L602 264zM598 284L599 283L597 283zM579 305L579 304zM562 322L563 321zM578 273L578 273zM601 262L601 262zM616 257L616 257zM579 305L580 305zM575 305L575 305z"/><path class="leaflet-interactive" stroke="#333" stroke-opacity="1" stroke-width="1" stroke-linecap="round" stroke-linejoin="round" stroke-dasharray="1,6" fill="#eee" fill-opacity="0.5" fill-rule="evenodd" d="M476 394L478 386L483 382L486 386L489 387L497 385L495 381L495 373L493 370L495 370L495 368L491 364L488 365L486 360L482 360L478 363L478 361L477 362L475 360L473 360L474 361L471 363L469 361L467 362L471 364L471 368L469 371L471 376L468 380L466 380L466 382L471 389L470 391L473 394L475 394zM486 388L485 385L480 384L477 390L479 393L482 394L486 389zM497 384L498 384zM478 393L477 392z"/><path class="leaflet-interactive" stroke="#333" stroke-opacity="1" stroke-width="1" stroke-linecap="round" stroke-linejoin="round" stroke-dasharray="1,6" fill="#eee" fill-opacity="0.5" fill-rule="evenodd" d="M531 335L536 333L539 334L537 334L536 336L537 338L542 338L539 341L539 343L541 345L547 346L544 347L546 352L545 351L547 349L546 347L548 346L548 342L546 342L547 341L544 339L545 337L549 340L552 339L555 341L558 339L556 336L562 335L562 333L560 333L557 329L553 329L551 326L547 325L548 321L552 321L551 317L552 318L553 316L552 312L550 314L547 311L547 302L545 302L547 300L546 299L536 300L534 302L534 298L530 303L526 301L520 305L520 303L519 304L512 302L512 304L511 303L507 307L508 308L506 313L503 316L504 324L507 327L506 330L507 329L507 331L509 332L516 332L515 333L518 334L516 338L518 341L523 339L523 337L528 337L529 335zM568 339L573 341L573 339L575 338L571 338L570 335L566 335L566 338zM575 334L574 334zM561 344L561 344zM571 334L570 334zM540 345L541 345zM575 339L576 339zM559 330L559 330zM575 335L575 335zM539 340L540 339L538 340zM561 329L561 329zM567 354L566 353z"/><path class="leaflet-interactive" stroke="#333" stroke-opacity="1" stroke-width="1" stroke-linecap="round" stroke-linejoin="round" stroke-dasharray="1,6" fill="#eee" fill-opacity="0.5" fill-rule="evenodd" d="M455 316L457 316L460 319L460 316L462 316L463 318L471 315L472 316L476 310L476 308L473 309L470 306L471 304L473 304L474 301L473 302L471 298L473 298L475 291L476 292L481 288L488 290L491 286L496 286L497 289L501 287L503 291L503 288L506 289L506 277L512 276L509 269L511 266L512 267L512 265L516 264L515 262L505 255L502 257L500 254L502 254L502 252L496 253L495 251L494 252L494 250L482 255L477 250L477 248L475 248L476 245L474 245L473 243L474 240L466 241L464 239L464 233L455 234L452 236L452 234L450 234L447 231L451 227L452 223L447 218L446 215L442 215L441 213L444 210L439 208L438 209L433 202L427 200L427 204L424 207L419 201L417 203L413 202L405 207L388 211L380 220L380 226L377 229L379 234L381 235L379 241L385 248L383 251L384 253L382 255L380 255L380 253L377 252L369 263L371 270L375 269L376 272L370 278L371 280L375 281L376 284L379 281L382 283L385 280L386 285L392 289L392 292L395 292L394 294L397 297L400 296L403 292L406 293L409 291L413 299L412 304L417 306L419 312L421 313L424 307L427 305L427 300L433 297L435 306L437 305L439 301L438 300L440 300L441 302L444 301L448 306L450 305L455 311L457 310L457 312L453 314L454 316z"/><path class="leaflet-interactive" stroke="#333" stroke-opacity="1" stroke-width="1" stroke-linecap="round" stroke-linejoin="round" stroke-dasharray="1,6" fill="#eee" fill-opacity="0.5" fill-rule="evenodd" d="M531 335L529 335L528 337L523 337L523 339L518 341L516 338L518 337L518 334L516 334L515 331L507 332L507 328L504 324L503 317L508 309L508 306L500 298L498 294L500 290L498 288L497 289L496 286L491 286L491 288L488 290L481 288L477 292L474 291L475 293L473 298L471 298L473 302L474 301L469 306L473 309L476 308L476 310L472 315L463 318L462 316L460 316L460 319L457 316L455 316L453 326L447 332L447 334L449 335L448 337L446 336L444 339L451 343L452 346L456 349L455 352L448 355L448 360L450 363L455 361L461 363L461 361L465 362L465 360L471 363L474 361L472 360L474 360L477 362L478 361L478 363L481 360L486 360L486 362L488 363L487 364L491 364L495 369L493 370L496 376L494 381L495 380L497 383L502 380L506 380L509 383L509 387L511 387L517 382L515 377L516 375L519 375L524 370L524 368L521 368L519 366L517 367L515 366L515 364L518 362L518 364L521 365L522 363L527 363L527 361L537 361L532 357L539 356L537 354L539 349L538 348L536 351L534 351L534 349L530 347L536 344L534 344L536 339L532 336zM500 387L498 387L499 389L497 391L494 389L492 390L492 396L494 396L497 393L501 395L504 392L500 386zM488 395L491 392L489 391L487 395zM538 340L537 340zM539 350L539 350z"/><path class="leaflet-interactive" stroke="#333" stroke-opacity="1" stroke-width="1" stroke-linecap="round" stroke-linejoin="round" stroke-dasharray="1,6" fill="#eee" fill-opacity="0.5" fill-rule="evenodd" d="M402 397L403 403L405 403L404 408L406 408L409 411L404 416L404 419L406 419L405 421L408 426L406 429L406 433L410 435L414 447L421 449L421 454L427 453L429 455L438 453L438 449L441 447L441 444L448 443L451 438L452 432L458 431L463 424L467 422L468 418L474 409L483 405L480 398L478 398L479 395L473 394L470 391L471 389L467 386L466 380L468 380L471 376L469 371L471 368L471 364L469 364L465 360L465 362L462 361L462 363L458 363L457 361L451 363L448 361L448 355L450 355L456 350L455 347L454 348L452 344L449 343L449 341L444 339L444 337L444 339L443 338L440 343L442 346L440 356L436 354L427 355L427 353L424 355L423 359L421 359L420 365L417 368L414 368L412 365L412 367L410 368L410 373L412 377L409 385L405 385L403 387L405 393L404 396L402 396zM454 439L454 439zM453 438L453 438zM483 401L482 399zM452 438L452 437z"/><path class="leaflet-interactive" stroke="#333" stroke-opacity="1" stroke-width="1" stroke-linecap="round" stroke-linejoin="round" stroke-dasharray="1,6" fill="#eee" fill-opacity="0.5" fill-rule="evenodd" d="M554 179L545 178L545 174L543 176L540 175L539 173L537 173L537 175L535 175L534 177L531 176L528 171L532 168L532 164L529 160L531 158L527 152L527 146L520 139L519 133L522 129L525 128L524 124L522 125L525 120L519 114L516 117L511 118L511 116L509 116L504 119L500 115L495 120L493 120L497 124L495 131L493 130L486 133L483 132L479 139L473 137L472 139L468 139L462 142L459 145L459 149L456 151L448 147L446 141L442 138L435 145L431 147L430 144L426 148L428 148L428 153L426 156L422 158L422 160L416 159L415 164L413 161L411 161L410 164L409 163L410 169L411 170L414 168L416 173L415 174L417 179L415 185L420 188L411 199L412 202L413 201L414 203L417 203L419 201L424 207L427 204L427 200L433 202L435 206L437 205L436 206L439 209L440 208L443 210L441 215L446 215L452 223L450 228L447 230L452 234L452 236L454 234L464 232L464 239L466 241L473 240L473 245L476 245L475 248L476 247L477 250L482 255L484 253L490 253L490 251L493 250L496 253L502 253L500 254L502 256L505 255L511 258L516 264L516 257L513 255L509 255L508 252L513 244L513 242L510 241L512 233L510 233L510 231L514 224L513 221L518 218L516 213L523 213L527 210L527 208L532 202L535 201L533 197L537 198L537 202L543 202L545 205L549 201L551 201L549 200L549 195L551 193L553 195L555 194L551 191L551 187L555 182L554 180z"/><path class="leaflet-interactive" stroke="#333" stroke-opacity="1" stroke-width="1" stroke-linecap="round" stroke-linejoin="round" stroke-dasharray="1,6" fill="#eee" fill-opacity="0.5" fill-rule="evenodd" d="M370 279L367 282L367 284L353 291L356 299L353 298L351 303L348 303L348 314L347 316L345 316L346 323L344 324L345 329L343 332L341 332L340 336L335 338L335 342L337 342L336 344L340 349L336 352L339 354L339 356L337 354L336 355L343 360L345 359L350 364L353 364L356 361L359 367L363 367L369 361L371 364L368 367L370 367L373 373L375 372L377 374L378 381L383 377L393 377L394 375L396 375L397 377L393 384L397 389L399 389L400 391L398 391L400 396L401 395L402 397L404 396L405 393L403 387L405 385L410 384L410 379L412 377L410 369L412 365L413 368L417 368L420 365L421 359L423 359L427 353L427 355L441 355L440 351L442 346L439 343L441 340L449 335L447 334L451 330L454 323L453 321L455 319L455 316L453 316L453 314L455 314L457 310L455 311L451 305L448 306L443 301L441 302L441 300L438 300L439 301L435 306L433 297L431 297L431 299L426 301L425 304L427 304L424 309L421 312L419 312L417 306L412 304L413 300L409 291L406 293L403 292L400 296L397 297L394 294L394 291L393 292L392 289L386 285L385 280L385 282L379 281L376 284L374 280L371 280z"/><path class="leaflet-interactive" stroke="#333" stroke-opacity="1" stroke-width="1" stroke-linecap="round" stroke-linejoin="round" stroke-dasharray="1,6" fill="#fff" fill-opacity="0" fill-rule="evenodd" d="M589 242L588 239L585 237L580 237L577 239L575 237L579 232L578 231L580 231L579 228L583 232L592 232L593 235L596 234L595 231L598 228L598 225L606 226L601 229L600 234L598 236L592 238L591 244L595 244L598 241L598 239L611 235L609 231L612 229L609 228L611 224L608 224L608 222L606 222L605 219L610 217L610 215L616 216L618 214L618 211L620 210L619 207L621 207L620 203L627 203L631 199L628 195L628 189L624 184L624 180L619 181L618 177L616 179L610 179L611 180L608 181L605 185L601 182L598 186L592 186L590 188L587 187L588 186L585 183L586 182L582 178L583 172L581 170L580 171L581 168L578 164L579 161L572 160L572 162L571 161L569 164L570 165L567 171L562 171L554 179L555 182L551 190L555 194L554 195L551 193L549 195L549 200L551 200L550 201L545 205L542 202L538 202L537 198L533 197L535 201L531 203L526 211L523 213L516 213L518 215L518 219L513 221L514 224L510 231L510 233L512 233L510 241L513 241L513 244L508 252L509 255L513 255L516 257L515 258L517 261L519 258L524 257L522 251L520 250L520 247L522 246L521 245L523 245L526 250L528 250L531 247L534 248L534 244L537 243L537 241L541 238L541 240L544 240L546 243L550 240L552 244L554 242L555 243L557 239L558 240L564 237L563 236L570 237L575 243L580 243L582 240L588 241zM526 250L526 251zM648 210L648 210zM646 209L647 209zM618 214L618 216L618 214zM622 214L620 214L622 215zM589 233L591 233L589 232zM624 235L625 235zM596 232L598 234L597 232zM589 240L590 240zM624 231L626 231L625 230zM604 246L606 246L606 244L604 244L603 246zM611 241L612 241zM611 232L610 232zM610 243L611 243zM626 212L627 212zM602 242L602 242zM586 237L590 238L589 236L586 237zM589 238L589 238zM628 202L628 202zM610 242L613 238L611 238L609 240L610 241zM616 219L616 218zM610 246L611 246zM625 215L627 215L625 211L622 212L622 214L624 215zM611 224L612 225L611 223zM580 236L584 236L586 232L581 232L579 235L580 236zM587 233L587 232z"/></g></svg>