<svg xmlns="http://www.w3.org/2000/svg" pointer-events="none" class="leaflet-zoom-animated" width="1060" height="624" viewBox="-88 -52 1060 624" style="transform: translate3d(-88px, -52px, 0px);"><g><path class="leaflet-interactive" stroke="black" stroke-opacity="1" stroke-width="2" stroke-linecap="round" stroke-linejoin="round" fill="#fff" fill-opacity="0.2" fill-rule="evenodd" d="M685 283L686 282L680 277L680 279L675 281L674 280L672 283L668 283L665 286L661 286L659 284L656 285L656 283L653 281L650 281L645 285L642 281L641 283L636 277L631 279L629 274L625 276L618 273L618 275L603 275L603 270L601 269L595 271L590 266L589 267L580 260L578 262L573 259L568 262L566 260L558 260L548 254L545 255L540 248L535 247L535 244L531 241L532 239L529 235L530 234L527 231L525 231L520 224L522 221L526 219L526 215L528 213L526 211L525 202L523 200L523 198L528 194L525 190L520 192L518 191L519 183L514 178L516 176L516 172L521 170L522 171L524 168L522 166L524 163L524 155L526 153L517 153L516 151L513 150L513 147L522 144L516 142L512 138L509 138L507 136L504 137L497 133L493 134L493 136L486 129L484 130L481 128L454 134L447 131L445 133L442 133L440 136L435 135L433 137L428 136L426 138L420 138L415 141L409 142L410 145L405 153L402 156L394 157L389 162L380 156L376 158L373 157L362 163L353 165L354 166L352 169L344 173L342 173L339 170L334 173L324 173L314 170L312 172L306 165L305 160L300 160L298 162L293 159L288 159L287 161L285 161L286 163L284 165L275 170L276 173L274 175L264 178L258 177L259 176L255 173L250 174L245 171L241 175L237 173L232 174L231 171L224 170L219 174L222 179L218 179L217 182L211 185L211 191L210 193L208 193L205 204L206 205L204 207L195 207L194 209L178 210L180 212L177 214L176 220L167 223L167 225L170 227L169 229L171 236L168 238L169 241L173 248L179 252L179 254L181 255L180 256L183 258L183 264L186 267L185 273L187 273L188 275L188 280L186 283L182 285L181 288L178 288L177 290L172 286L170 276L158 282L161 286L162 291L160 295L161 298L162 297L170 305L170 307L167 308L167 310L173 317L169 321L171 324L170 326L171 329L174 329L178 334L178 339L180 339L181 341L184 340L185 342L189 342L188 340L191 338L192 340L194 339L197 343L199 341L209 349L209 351L214 357L216 356L228 361L232 361L236 366L244 370L246 375L245 376L250 378L252 374L251 372L253 372L256 368L256 362L260 364L263 361L274 366L279 366L278 369L281 371L280 375L288 377L291 380L292 379L296 384L298 384L297 386L314 393L327 409L328 407L332 406L335 403L342 404L345 406L344 408L347 414L346 419L352 420L354 424L360 425L366 431L370 430L374 426L377 429L375 439L378 439L380 441L386 439L391 442L394 437L395 443L403 452L403 455L407 454L406 449L409 446L410 452L417 455L422 448L427 448L427 450L433 453L437 453L438 456L441 458L449 458L454 456L455 458L457 457L459 459L463 453L464 455L472 456L472 453L476 454L483 451L486 448L492 449L496 455L496 461L493 467L493 471L499 480L502 479L502 477L506 474L503 471L503 468L505 467L504 466L507 459L512 456L519 445L528 443L529 445L538 445L551 451L555 449L563 453L565 457L567 457L575 449L580 454L584 455L584 457L582 457L585 460L585 462L582 464L582 467L584 469L587 471L597 470L600 478L597 482L597 485L600 488L600 493L615 489L632 492L647 490L655 487L656 482L660 476L671 466L678 466L689 461L701 454L707 445L710 445L717 441L722 441L722 443L725 444L734 443L735 446L740 446L741 449L743 449L747 453L749 453L752 456L756 456L759 459L759 461L765 455L770 456L770 450L767 449L769 444L768 443L774 440L773 434L776 432L780 433L783 439L786 438L790 442L790 444L794 446L796 443L798 443L796 439L798 437L802 442L801 445L803 448L807 445L810 445L814 439L809 430L809 427L811 425L810 416L815 415L816 421L821 421L819 416L822 413L822 411L820 409L825 407L823 399L824 397L821 391L824 380L821 372L821 364L819 358L820 349L814 344L814 339L812 335L809 333L810 328L812 328L814 331L818 326L807 316L802 307L803 302L796 293L796 289L793 287L792 288L790 285L787 284L776 282L774 283L772 281L768 281L768 283L770 284L768 285L771 291L768 291L766 293L767 300L757 300L755 301L755 303L754 302L752 304L751 302L749 302L751 307L750 310L752 313L750 315L748 315L747 313L743 314L737 306L733 305L731 311L733 316L731 318L730 315L724 310L722 310L719 315L717 312L714 311L710 313L704 304L707 303L706 296L703 297L701 295L700 290L699 292L695 292L696 290L701 289L690 287L686 283z"/><path class="leaflet-interactive" stroke="#333" stroke-opacity="1" stroke-width="1" stroke-linecap="round" stroke-linejoin="round" stroke-dasharray="1,6" fill="#eee" fill-opacity="0.5" fill-rule="evenodd" d="M543 403L546 406L549 406L555 402L556 403L564 401L571 395L577 397L581 394L588 395L593 393L601 395L609 392L609 384L607 384L606 386L602 382L602 380L607 378L608 379L610 375L613 375L616 371L615 369L606 368L604 366L602 370L595 371L595 369L591 366L591 355L588 353L588 351L582 354L580 353L576 346L575 339L569 339L567 345L562 340L556 340L551 356L552 360L550 363L546 363L545 367L539 368L539 371L534 380L527 379L528 389L524 393L526 396L525 399L529 402L540 403z"/><path class="leaflet-interactive" stroke="#333" stroke-opacity="1" stroke-width="1" stroke-linecap="round" stroke-linejoin="round" stroke-dasharray="1,6" fill="#eee" fill-opacity="0.5" fill-rule="evenodd" d="M529 379L528 376L526 376L526 372L522 371L522 369L511 369L509 367L504 367L498 370L490 369L484 376L483 371L480 368L474 370L474 368L472 368L470 364L461 363L457 365L452 362L451 357L441 357L441 351L439 349L438 343L436 348L433 350L431 350L434 347L435 343L427 347L429 350L428 353L430 354L431 351L431 355L433 355L434 358L433 359L431 357L426 357L426 360L424 362L421 361L423 363L417 359L417 352L415 350L414 344L409 340L403 350L397 349L398 352L394 354L399 356L401 365L399 364L399 366L396 368L399 373L398 374L396 372L397 376L392 379L393 380L392 382L389 383L389 386L385 383L384 388L381 390L379 388L376 389L369 383L366 378L365 379L362 377L362 368L359 367L358 363L354 363L353 361L355 358L354 355L357 350L364 343L361 341L357 330L346 327L346 325L352 322L356 322L359 316L354 314L352 310L350 311L352 317L344 315L344 317L342 318L341 316L338 318L327 319L320 318L317 314L315 314L315 316L311 315L308 318L306 316L304 317L306 319L302 318L301 319L305 322L306 334L302 334L300 336L300 340L303 344L305 343L308 348L311 348L311 355L309 359L305 358L305 354L299 348L297 348L295 350L296 355L294 358L296 362L293 365L290 363L288 365L288 363L285 362L279 370L281 371L280 375L288 377L291 380L292 379L296 384L298 384L297 386L314 393L327 409L328 407L332 406L335 403L342 404L345 406L344 408L347 414L346 419L352 420L354 424L360 425L366 431L370 430L374 426L377 429L375 439L378 439L380 441L386 439L391 442L394 437L395 443L403 452L403 455L407 454L406 449L409 446L410 452L417 455L422 448L427 448L427 450L433 453L437 453L438 456L441 458L449 458L454 456L455 458L457 457L459 459L463 453L464 455L472 456L472 453L476 454L483 451L486 448L492 449L496 455L496 461L493 467L493 471L499 480L502 479L502 477L506 474L503 471L503 468L505 467L504 466L507 459L512 456L519 445L528 443L529 445L531 444L535 446L538 445L539 442L539 440L535 437L536 431L534 428L539 422L539 410L543 403L530 402L525 399L526 396L524 393L529 387L527 385L528 379zM395 342L400 349L399 346L402 344L396 342z"/><path class="leaflet-interactive" stroke="#333" stroke-opacity="1" stroke-width="1" stroke-linecap="round" stroke-linejoin="round" stroke-dasharray="1,6" fill="#eee" fill-opacity="0.5" fill-rule="evenodd" d="M811 435L809 430L809 427L811 425L810 416L815 415L816 421L821 421L819 416L822 413L822 411L820 409L825 407L823 399L824 397L821 391L824 380L821 372L821 364L819 358L820 349L814 344L814 339L812 335L809 333L810 328L812 328L814 331L818 326L807 316L802 307L803 302L796 293L796 289L793 287L792 288L790 285L787 284L776 282L774 283L772 281L768 281L768 283L770 284L768 285L771 291L768 291L766 293L767 300L757 300L755 301L755 303L754 302L752 304L751 302L749 302L751 307L750 310L752 313L750 315L748 315L747 313L743 314L737 306L733 305L731 311L733 316L731 318L730 315L724 310L722 310L719 315L717 312L714 311L710 313L704 304L707 303L706 296L703 297L701 295L700 290L699 292L695 292L696 290L701 289L690 287L686 283L684 284L683 287L685 293L683 293L681 299L683 301L682 309L686 313L683 316L685 316L685 318L690 322L689 326L691 326L693 329L693 335L687 337L684 336L685 327L682 329L680 328L679 324L675 328L674 327L670 329L668 337L672 344L671 346L658 346L656 344L649 343L648 345L650 346L650 349L666 360L671 356L673 356L673 358L675 358L676 356L679 358L680 355L696 357L695 355L697 353L700 355L701 353L704 355L704 357L711 355L712 357L716 358L715 360L721 365L723 369L726 368L730 370L734 366L739 366L742 368L742 366L745 369L744 372L747 373L746 377L743 379L744 380L740 386L745 391L745 396L748 399L742 402L747 405L748 408L752 408L754 410L754 408L757 407L756 398L758 396L759 397L759 395L762 398L767 398L766 399L769 401L768 402L771 408L770 412L773 412L777 407L775 404L780 405L785 411L788 410L791 412L794 420L796 420L797 418L801 423L803 423L805 425L804 426L807 433L810 435z"/><path class="leaflet-interactive" stroke="#333" stroke-opacity="1" stroke-width="1" stroke-linecap="round" stroke-linejoin="round" stroke-dasharray="1,6" fill="#eee" fill-opacity="0.5" fill-rule="evenodd" d="M666 360L659 367L657 365L656 367L646 367L643 366L640 360L637 359L633 363L629 356L626 355L624 358L622 358L620 366L619 365L619 367L616 367L616 371L613 375L612 374L610 375L611 377L602 380L602 382L606 386L608 384L613 385L613 390L611 393L613 395L615 390L616 391L617 389L619 389L619 391L625 388L628 390L629 394L632 397L632 402L623 412L618 421L613 420L610 422L612 425L614 422L624 426L626 423L628 425L640 424L645 427L653 426L657 431L657 437L662 438L663 441L666 443L665 448L667 452L669 452L671 455L672 462L668 465L669 468L671 466L678 466L689 461L701 454L707 445L710 445L717 441L722 441L722 443L725 444L734 443L735 446L740 446L741 449L743 449L747 453L749 453L752 456L756 456L759 459L759 461L765 455L770 456L770 450L767 449L769 444L768 443L774 440L773 434L776 432L780 433L783 439L786 438L790 442L790 444L794 446L796 443L798 443L796 439L798 437L802 442L801 445L803 448L812 443L814 439L811 435L807 433L804 423L801 423L797 418L795 420L789 410L785 411L780 405L777 404L775 404L775 406L777 407L774 410L775 411L770 412L771 408L770 404L768 403L769 401L766 399L767 398L763 398L759 395L759 397L758 396L756 398L757 407L754 408L755 410L753 410L752 408L748 409L745 403L742 402L748 399L744 396L746 395L746 393L740 386L744 380L743 379L746 377L747 373L744 372L745 369L742 366L742 368L740 368L739 366L734 366L731 370L727 368L723 369L721 365L715 360L715 357L708 355L704 357L704 355L701 353L697 353L695 355L696 356L693 357L687 355L680 355L679 358L676 356L673 358L673 356L671 356L666 359z"/><path class="leaflet-interactive" stroke="#333" stroke-opacity="1" stroke-width="1" stroke-linecap="round" stroke-linejoin="round" stroke-dasharray="1,6" fill="#eee" fill-opacity="0.5" fill-rule="evenodd" d="M543 403L543 405L539 409L539 421L534 428L536 430L535 438L539 439L539 446L551 451L555 449L563 453L565 457L567 457L575 449L580 454L584 455L584 457L582 457L585 460L585 462L582 464L582 467L587 471L597 470L600 478L597 482L597 485L600 488L600 493L615 489L632 492L647 490L655 487L656 482L660 476L669 468L668 465L672 462L671 455L669 452L667 452L665 448L666 443L662 439L657 437L657 431L653 426L645 427L637 424L628 425L627 423L622 426L621 424L618 423L617 424L614 422L613 425L610 423L612 420L618 421L618 419L621 417L622 412L627 409L629 404L632 402L631 395L627 389L623 389L620 391L619 389L617 389L616 391L615 390L613 392L613 394L611 393L613 390L613 385L609 385L609 391L605 394L599 395L591 393L586 396L582 394L577 397L573 395L564 401L556 403L555 402L549 406L546 406L544 404z"/><path class="leaflet-interactive" stroke="#333" stroke-opacity="1" stroke-width="1" stroke-linecap="round" stroke-linejoin="round" stroke-dasharray="1,6" fill="#fff" fill-opacity="0" fill-rule="evenodd" d="M685 283L686 282L680 277L680 279L675 281L674 280L672 283L668 283L665 286L661 286L659 284L656 285L656 283L653 281L650 281L645 285L642 281L641 283L636 277L631 279L629 274L625 276L618 273L618 275L603 275L603 270L601 269L595 271L590 266L589 267L580 260L578 262L573 259L568 262L566 260L558 260L548 254L545 255L540 248L535 247L535 244L531 241L532 239L529 235L530 234L527 231L525 231L520 224L522 221L526 219L526 215L528 213L526 211L525 202L523 200L523 198L528 194L525 190L520 192L518 191L519 183L514 178L516 176L516 172L521 170L522 171L524 168L522 166L524 163L524 155L526 153L517 153L516 151L513 150L513 147L522 144L516 142L512 138L509 138L507 136L504 137L497 133L493 134L493 136L486 129L484 130L479 128L454 134L447 131L445 133L442 133L440 136L428 136L426 138L420 138L415 141L409 142L410 145L405 153L413 161L413 165L411 168L411 181L408 186L408 192L401 206L403 206L409 211L407 214L407 218L410 221L409 225L411 226L412 230L409 239L412 242L412 246L414 248L411 250L410 253L404 255L405 259L409 258L407 261L408 263L405 265L407 270L406 272L386 281L384 280L379 285L373 301L376 303L376 316L377 315L382 319L384 318L386 321L389 322L390 327L400 331L407 332L409 334L409 339L414 344L414 348L417 352L417 359L420 360L422 363L421 361L424 362L426 360L426 357L431 357L433 359L434 358L433 355L431 355L431 351L430 354L428 353L429 350L427 347L430 344L435 343L434 347L431 349L432 350L438 343L442 357L450 357L453 364L470 364L471 368L474 368L474 370L479 368L483 371L484 376L490 369L498 370L506 366L511 369L522 369L523 372L526 372L526 376L528 376L529 379L534 380L539 371L539 368L544 367L546 364L553 360L551 356L555 342L561 340L567 345L569 342L568 339L573 338L575 339L576 346L580 353L582 354L588 351L588 353L591 355L593 359L590 360L590 362L592 362L591 366L594 367L595 371L601 370L604 366L606 368L616 370L617 366L619 366L622 361L622 358L624 358L625 355L628 356L633 362L637 359L640 360L642 365L645 367L656 367L656 365L661 367L661 364L663 364L666 360L660 355L656 355L650 349L650 346L648 346L649 344L651 343L656 344L658 346L670 346L672 344L668 337L670 330L674 327L675 328L679 324L681 329L684 327L685 328L684 336L687 338L687 336L694 334L692 330L693 329L691 326L689 326L689 320L686 319L685 316L683 316L686 313L681 307L683 301L681 299L682 295L683 293L685 293L682 285L685 283zM407 342L406 338L402 337L400 337L395 342L401 344L399 346L400 349L397 349L399 350L403 350L406 344z"/><path class="leaflet-interactive" stroke="#333" stroke-opacity="1" stroke-width="1" stroke-linecap="round" stroke-linejoin="round" stroke-dasharray="1,6" fill="#fff" fill-opacity="0" fill-rule="evenodd" d="M405 153L402 156L394 157L389 162L380 156L376 158L373 157L362 163L353 165L354 166L352 169L344 173L342 173L339 170L334 173L324 173L314 170L312 172L306 165L305 160L300 160L298 162L293 159L288 159L287 161L285 161L286 163L275 170L276 173L270 177L268 176L260 178L255 173L250 174L245 171L241 175L237 173L232 174L231 171L224 170L220 172L219 174L222 179L218 179L217 182L211 185L211 191L210 193L208 193L205 204L206 205L204 207L195 207L194 209L178 210L180 212L177 214L176 220L167 223L167 225L170 227L169 229L171 236L168 238L169 241L173 248L179 252L179 254L181 255L180 256L183 258L183 264L186 267L185 273L187 273L188 275L188 280L186 283L184 283L182 287L178 288L177 290L172 286L170 276L158 282L161 286L162 291L160 295L161 298L162 297L170 305L170 307L167 308L167 310L173 317L169 321L171 324L170 326L171 329L174 329L178 334L178 339L180 339L181 341L184 340L185 342L189 342L188 340L191 338L192 340L194 339L197 343L199 341L209 349L209 351L214 357L216 356L228 361L232 361L236 366L244 370L246 375L245 376L250 378L252 374L251 372L253 372L256 368L256 362L260 364L263 361L274 366L277 365L279 366L279 370L283 366L283 363L285 362L288 363L288 365L290 363L292 363L293 365L296 363L294 358L296 355L295 351L299 348L301 352L305 354L305 357L307 357L308 359L311 356L312 348L308 348L300 340L300 336L302 334L306 334L306 322L303 321L301 319L302 318L305 319L306 316L308 317L313 314L314 316L317 313L320 318L327 319L338 318L340 316L344 317L344 315L348 315L349 317L351 317L351 310L360 316L356 322L352 322L348 324L346 327L350 329L355 328L358 331L359 338L364 343L358 348L356 354L354 355L355 358L353 360L354 362L358 363L360 368L362 368L362 377L365 379L366 378L366 380L376 389L379 388L381 390L384 387L385 383L389 386L389 384L397 376L396 372L398 374L399 373L396 368L399 365L401 366L399 356L394 355L396 352L398 352L398 348L395 342L400 337L405 338L407 342L410 338L407 332L405 333L390 327L389 323L384 318L381 319L378 315L375 315L376 303L373 301L373 299L377 293L379 284L382 283L384 280L386 281L390 278L399 276L406 272L407 270L405 268L405 265L408 263L407 262L409 259L405 259L404 256L411 252L411 250L414 248L412 246L411 240L409 239L410 234L412 232L411 226L409 225L410 221L407 218L409 212L405 207L401 206L405 200L405 196L408 192L408 186L411 181L409 174L413 172L411 169L413 161L405 154z"/></g></svg>