<svg xmlns="http://www.w3.org/2000/svg" pointer-events="none" class="leaflet-zoom-animated" width="1060" height="563" viewBox="-88 -47 1060 563" style="transform: translate3d(-88px, -47px, 0px);"><g><path class="leaflet-interactive" stroke="black" stroke-opacity="1" stroke-width="2" stroke-linecap="round" stroke-linejoin="round" fill="#fff" fill-opacity="0.2" fill-rule="evenodd" d="M638 272L641 268L640 265L649 259L649 256L650 257L653 254L653 251L655 250L653 250L655 248L656 250L659 248L664 250L666 245L672 240L675 240L676 231L672 228L669 228L670 227L667 223L668 219L666 217L665 211L666 208L670 205L668 203L665 206L665 202L668 197L667 196L669 190L671 188L669 188L668 186L666 188L663 185L664 180L662 176L664 172L658 173L655 181L656 182L651 189L651 194L647 192L646 196L641 194L641 192L635 193L633 190L631 194L628 187L631 185L630 184L632 180L630 180L632 177L629 175L630 174L627 171L627 173L623 174L626 177L626 179L624 180L625 183L621 184L618 181L621 178L618 169L621 168L620 165L622 162L618 160L612 162L603 157L606 149L604 148L604 140L601 135L600 128L597 132L594 129L591 131L586 128L583 132L578 132L574 134L573 137L571 137L568 128L569 124L566 122L566 120L562 124L560 124L557 122L556 123L553 118L548 122L545 119L543 121L544 127L541 129L542 132L540 134L543 135L545 139L542 146L538 146L538 149L531 151L532 147L529 143L522 144L521 142L520 145L520 143L518 143L518 145L516 145L516 151L514 152L512 148L511 150L510 149L509 151L506 152L509 158L508 162L506 162L505 165L503 162L502 163L501 165L503 166L500 167L499 169L501 172L501 174L499 175L497 174L497 172L494 173L491 170L491 172L489 172L489 170L492 168L492 164L494 162L493 161L495 160L492 159L493 157L492 158L489 155L488 151L486 151L483 147L482 152L487 158L484 164L486 166L483 164L485 168L484 169L478 166L477 173L473 172L472 169L466 166L463 161L459 161L457 157L455 157L455 155L451 153L450 156L448 156L449 158L446 159L447 163L439 163L437 165L436 163L435 165L433 164L432 169L428 170L428 176L430 176L429 184L435 188L437 185L439 185L439 183L446 191L444 193L444 197L446 199L449 197L451 200L455 200L454 198L459 196L464 197L470 203L468 206L474 210L472 215L474 215L475 218L473 219L475 221L465 226L462 224L457 224L448 228L448 226L444 227L443 229L435 229L435 231L431 231L430 233L422 225L414 225L410 227L408 230L408 236L403 241L405 241L405 243L403 245L404 246L401 253L400 254L400 252L397 250L391 252L390 251L381 259L379 258L378 255L374 257L372 255L363 258L359 256L356 251L347 246L345 248L345 251L340 256L341 258L335 261L332 258L332 256L329 256L325 253L325 249L320 249L315 260L311 261L306 269L300 272L302 276L299 276L299 280L305 277L310 285L310 289L305 293L305 295L306 299L309 299L308 307L312 314L329 315L328 312L332 306L339 308L347 308L350 301L354 306L353 308L355 311L361 311L361 315L364 316L365 320L367 321L368 325L366 329L362 329L359 334L357 346L353 347L354 352L351 358L352 365L347 372L347 370L345 369L344 379L352 383L351 388L353 390L353 388L360 386L359 394L366 399L365 403L369 402L371 405L377 405L377 411L376 412L372 408L367 419L364 419L368 420L370 424L362 432L358 442L363 445L364 448L369 448L369 450L371 451L373 448L378 447L382 441L389 439L393 429L401 424L405 427L405 429L416 428L420 437L422 438L426 437L430 440L432 439L440 445L444 443L449 443L449 445L454 449L458 444L462 442L462 440L464 441L466 433L462 427L463 426L464 427L467 425L473 425L486 420L487 418L490 418L496 411L510 411L511 406L517 407L516 405L518 404L518 399L516 398L515 393L518 389L522 387L521 385L523 383L527 383L531 380L532 384L538 389L537 395L542 394L545 403L547 402L549 404L547 407L548 409L555 405L556 406L555 405L558 401L560 402L559 403L562 410L565 406L566 407L568 413L566 415L571 415L578 411L589 409L591 404L591 396L594 395L592 393L594 391L598 393L597 392L601 388L601 386L604 385L609 392L613 391L614 394L618 396L621 402L622 397L619 394L621 389L622 391L620 389L624 386L626 387L626 385L624 384L626 379L630 378L634 386L635 384L643 384L646 387L649 386L651 384L649 383L648 378L651 372L646 371L642 375L639 375L639 373L647 367L651 368L653 366L655 367L655 371L658 369L656 367L657 366L659 370L664 373L668 371L668 364L674 357L673 355L677 350L675 348L675 345L679 344L678 341L676 341L674 335L676 331L675 330L669 333L663 330L666 322L670 319L670 315L672 314L669 305L667 306L664 303L671 301L670 300L672 301L674 298L677 298L674 289L675 287L679 285L680 286L681 279L679 275L675 275L677 275L675 273L676 272L674 272L672 269L665 271L663 271L662 269L656 276L652 275L654 272L653 271L643 276L641 280L641 278L638 280L632 274L639 272zM394 430L395 429zM676 293L678 299L679 290L676 288L675 289L677 292zM683 298L680 299L683 300L683 298z"/><path class="leaflet-interactive" stroke="#333" stroke-opacity="1" stroke-width="1" stroke-linecap="round" stroke-linejoin="round" stroke-dasharray="1,6" fill="#fff" fill-opacity="0" fill-rule="evenodd" d="M530 255L523 257L518 255L510 261L507 257L505 257L501 265L500 260L498 258L493 258L493 260L483 266L478 271L481 280L477 282L476 288L472 288L470 291L468 290L468 288L461 292L462 296L464 297L464 303L461 304L461 306L465 310L464 311L468 314L470 312L472 313L474 315L473 317L475 317L474 320L478 321L481 319L485 325L489 325L489 328L484 333L486 335L485 336L491 336L496 331L502 334L503 333L506 339L508 339L510 336L508 335L509 331L503 330L506 327L506 325L501 324L506 320L506 312L512 309L509 307L510 306L515 306L514 303L516 298L525 293L533 295L535 290L532 281L528 277L529 270L534 267L532 263L526 262L530 256z"/><path class="leaflet-interactive" stroke="#333" stroke-opacity="1" stroke-width="1" stroke-linecap="round" stroke-linejoin="round" stroke-dasharray="1,6" fill="#eee" fill-opacity="0.5" fill-rule="evenodd" d="M373 297L372 306L368 309L369 312L366 315L361 313L361 315L364 316L365 320L367 321L368 325L366 329L362 329L359 334L357 343L358 344L356 347L353 347L354 352L351 358L352 365L347 372L347 370L345 369L344 375L344 379L352 383L351 388L353 390L353 388L360 386L359 394L364 398L367 397L368 400L374 400L379 397L380 399L381 398L379 396L379 392L383 385L379 380L382 377L380 366L385 360L384 355L386 349L389 346L388 344L392 340L400 340L400 347L404 353L406 351L417 351L424 347L426 348L428 343L427 341L431 343L433 340L435 340L431 337L422 336L419 334L420 328L423 326L421 322L410 317L411 316L409 314L402 314L401 310L398 311L394 306L394 297L392 297L393 296L388 293L388 291L390 290L389 286L386 287L384 292L382 293L378 289L373 296zM369 295L369 292L365 290L362 299L366 300L368 296z"/><path class="leaflet-interactive" stroke="#333" stroke-opacity="1" stroke-width="1" stroke-linecap="round" stroke-linejoin="round" stroke-dasharray="1,6" fill="#eee" fill-opacity="0.5" fill-rule="evenodd" d="M586 128L583 132L578 132L574 134L573 137L571 137L568 128L569 124L566 122L566 120L562 124L560 124L557 122L556 123L553 118L548 122L545 119L543 121L544 127L541 129L542 132L540 134L543 135L545 139L542 146L538 146L538 149L531 151L532 147L529 143L522 144L521 142L520 145L520 143L518 143L518 145L516 145L516 151L514 152L512 148L511 150L510 149L509 151L506 152L509 158L508 162L506 162L505 165L503 162L502 163L501 165L503 166L500 167L499 169L501 172L501 174L499 175L497 174L497 172L494 173L491 170L491 172L489 172L489 170L492 168L492 164L494 162L493 161L495 160L492 159L493 157L492 158L489 155L488 151L486 151L483 147L482 152L487 158L484 164L486 166L483 164L485 168L484 169L478 166L477 173L473 172L472 169L466 166L463 161L459 161L457 157L455 157L455 155L451 153L450 156L448 156L449 158L446 159L447 163L439 163L437 165L436 163L435 165L433 164L432 169L428 170L428 176L430 176L429 184L435 188L437 185L439 185L439 183L446 191L444 193L444 197L446 199L449 197L451 200L455 200L454 198L459 196L464 197L470 203L468 206L474 210L472 215L474 215L475 218L473 219L475 221L465 226L462 224L457 224L454 226L453 231L460 233L459 235L464 240L468 240L468 238L471 236L473 237L474 246L481 243L486 246L487 243L488 244L492 242L499 250L499 253L497 254L501 265L505 257L507 257L509 261L511 261L517 255L523 257L530 255L535 246L543 250L541 254L543 254L544 256L545 253L549 253L547 262L550 266L550 263L552 265L552 262L558 261L560 263L567 265L566 266L568 267L571 266L570 268L572 268L573 270L574 267L575 268L584 263L581 258L578 257L578 255L576 256L576 258L575 255L570 257L567 255L566 252L569 252L566 247L567 245L569 245L571 240L575 240L575 235L578 230L578 225L574 219L577 208L573 203L573 205L571 205L567 202L569 195L573 192L572 183L577 180L581 181L579 178L580 175L582 175L580 176L583 178L583 181L585 179L586 177L584 172L586 170L584 165L585 163L590 161L589 160L593 157L595 151L595 148L594 149L590 145L590 140L586 134L586 129zM577 269L579 269L577 269z"/><path class="leaflet-interactive" stroke="#333" stroke-opacity="1" stroke-width="1" stroke-linecap="round" stroke-linejoin="round" stroke-dasharray="1,6" fill="#eee" fill-opacity="0.5" fill-rule="evenodd" d="M405 353L405 356L409 360L413 361L413 365L420 370L421 373L425 373L433 377L435 383L437 383L439 390L446 394L449 392L447 388L452 384L451 381L452 380L452 382L455 384L458 381L459 385L457 386L461 389L461 391L465 390L467 396L469 395L474 398L480 398L480 396L478 395L480 393L478 390L484 378L481 375L479 377L472 375L473 372L469 374L468 373L468 364L471 361L472 358L470 357L473 354L469 350L466 351L468 349L468 346L471 345L469 342L471 338L470 336L468 336L472 334L473 336L475 336L476 332L484 333L489 328L489 326L484 324L481 320L474 320L474 315L470 312L466 314L464 311L465 310L462 307L463 310L461 317L457 319L451 321L451 316L448 315L443 318L439 318L438 320L435 319L427 322L426 325L420 328L419 334L421 336L422 335L431 337L435 340L431 342L428 341L426 348L425 347L417 351L406 351L404 353zM467 350L468 350z"/><path class="leaflet-interactive" stroke="#333" stroke-opacity="1" stroke-width="1" stroke-linecap="round" stroke-linejoin="round" stroke-dasharray="1,6" fill="#fff" fill-opacity="0" fill-rule="evenodd" d="M423 326L432 320L437 320L438 318L442 318L447 315L451 316L451 321L461 316L463 310L461 304L464 303L464 298L461 292L467 288L470 291L472 288L474 289L478 281L481 280L478 274L478 271L481 269L481 267L493 260L493 258L499 258L497 255L499 251L494 243L487 243L486 246L482 245L481 243L474 246L473 237L470 236L471 237L468 238L468 240L464 240L459 235L460 233L453 232L453 226L448 228L448 226L444 227L443 229L435 229L435 231L431 231L430 233L422 225L417 224L409 228L408 236L403 241L405 241L405 243L403 245L403 250L400 254L399 251L394 250L391 252L390 251L381 259L379 258L378 255L374 257L372 255L363 258L359 256L357 252L353 249L347 246L345 248L345 251L340 256L341 258L335 261L341 262L344 265L344 272L346 274L345 275L347 276L347 281L349 279L355 281L355 283L357 284L361 283L366 287L365 290L369 292L369 295L373 297L378 289L382 293L388 286L390 289L388 293L393 295L392 296L394 297L394 306L397 309L397 311L401 310L404 315L409 314L411 318L421 321L422 325zM365 290L366 288L364 285L363 286L362 283L357 284L355 281L349 279L347 281L346 280L347 276L344 272L344 265L341 262L335 261L332 258L332 256L326 254L325 249L320 249L315 260L311 261L306 269L300 272L302 276L299 276L299 280L305 277L310 285L310 289L305 293L305 295L306 299L309 299L308 307L312 314L315 315L329 315L328 312L332 306L339 308L347 308L350 301L354 306L353 308L355 311L359 310L361 311L361 313L366 315L369 312L368 309L372 306L373 297L369 295L367 299L364 300L362 299L364 293z"/><path class="leaflet-interactive" stroke="#333" stroke-opacity="1" stroke-width="1" stroke-linecap="round" stroke-linejoin="round" stroke-dasharray="1,6" fill="#eee" fill-opacity="0.5" fill-rule="evenodd" d="M638 272L641 268L640 265L649 259L649 256L650 257L653 254L653 251L655 250L653 250L655 248L656 250L659 248L664 250L666 245L672 240L675 240L676 231L672 228L669 228L670 227L667 223L668 219L666 217L665 211L666 208L670 205L668 203L665 206L665 202L668 197L667 196L669 190L671 188L669 188L668 186L666 188L663 185L664 180L662 176L664 172L658 173L655 181L656 182L651 189L651 194L647 192L646 196L641 194L641 192L635 193L633 190L631 194L628 187L631 185L630 184L632 180L630 180L632 177L629 175L630 174L627 171L627 173L623 174L626 177L626 179L624 180L625 183L621 184L618 181L621 178L618 169L621 168L620 165L622 162L618 160L612 162L603 157L606 149L604 148L604 140L601 135L601 129L600 128L597 132L594 129L591 131L586 128L586 133L590 139L590 144L594 149L595 148L595 151L593 153L592 158L589 160L590 161L584 164L584 167L586 169L584 172L586 177L584 181L582 180L583 178L581 176L580 177L582 176L581 175L579 176L581 180L573 181L573 192L570 195L569 194L567 202L572 205L573 203L577 207L574 219L578 224L578 230L576 232L575 239L571 240L569 245L566 246L569 252L566 252L567 255L569 255L570 257L579 255L579 258L587 256L592 260L595 254L601 255L609 250L612 251L621 243L626 243L630 246L635 246L634 244L640 245L641 243L644 245L643 248L645 247L648 250L646 254L643 253L639 255L638 254L636 256L637 260L633 265L638 271zM576 256L575 257L577 257z"/><path class="leaflet-interactive" stroke="#333" stroke-opacity="1" stroke-width="1" stroke-linecap="round" stroke-linejoin="round" stroke-dasharray="1,6" fill="#eee" fill-opacity="0.5" fill-rule="evenodd" d="M486 419L487 416L481 411L485 409L485 407L483 401L481 401L480 398L475 398L470 395L467 396L466 392L463 390L462 391L460 387L457 386L459 386L458 382L456 382L456 384L452 383L452 381L449 387L447 388L449 392L446 394L439 390L437 383L435 383L432 376L429 376L425 373L421 373L413 365L413 361L405 357L405 354L400 347L400 340L392 340L388 344L389 346L386 348L384 354L385 362L380 366L382 377L379 379L381 384L383 384L383 387L379 392L379 396L381 398L380 399L379 397L378 399L368 400L367 397L365 401L365 403L369 402L371 405L377 405L377 411L376 412L372 408L367 419L364 419L368 420L370 424L362 432L358 442L363 445L364 448L369 448L369 450L371 451L373 448L378 447L382 441L389 439L393 429L401 424L405 427L405 429L416 428L420 437L422 438L426 437L430 440L432 439L440 445L444 443L449 443L449 445L454 449L458 444L462 442L462 440L464 441L466 433L462 427L463 426L464 427L467 425L473 425L486 420zM394 430L395 429z"/><path class="leaflet-interactive" stroke="#333" stroke-opacity="1" stroke-width="1" stroke-linecap="round" stroke-linejoin="round" stroke-dasharray="1,6" fill="#eee" fill-opacity="0.5" fill-rule="evenodd" d="M581 258L584 262L583 264L578 266L579 270L570 269L571 267L568 267L566 266L567 265L561 263L560 265L562 271L560 274L561 275L559 275L558 277L560 281L556 287L559 290L559 292L561 292L561 290L564 291L564 293L566 293L566 295L561 301L565 309L564 311L560 311L557 308L555 310L555 308L549 313L547 313L547 311L545 311L542 314L539 313L538 316L540 317L536 321L542 325L550 322L551 327L555 326L558 332L566 329L567 333L565 340L570 345L572 342L574 344L575 343L579 348L581 346L589 347L591 345L593 350L596 347L597 350L595 351L596 352L594 356L592 355L590 359L591 360L587 366L588 375L592 374L593 380L596 379L600 383L599 384L601 386L604 385L609 392L613 391L614 394L618 396L621 402L622 397L619 394L621 389L622 391L620 389L624 386L626 387L626 385L624 384L626 379L630 378L634 386L635 384L643 384L646 387L651 384L648 380L651 372L646 371L644 374L639 375L641 371L643 371L647 367L651 368L653 366L655 367L655 371L658 369L656 367L657 366L659 370L664 373L668 371L668 364L674 357L673 355L677 350L675 348L675 345L679 344L678 341L676 341L674 335L676 331L675 330L669 333L663 330L666 322L670 319L670 315L672 314L669 305L667 306L664 303L671 301L670 300L672 301L674 298L677 298L674 289L675 287L679 285L680 286L681 279L679 275L675 275L677 275L675 273L676 272L674 272L672 269L665 271L663 271L662 269L656 276L652 275L654 272L653 271L643 276L641 280L641 278L638 280L632 274L639 272L637 268L633 266L637 260L636 256L638 254L646 254L648 250L645 247L643 248L644 245L641 243L640 245L635 244L635 246L629 246L627 243L620 243L619 246L617 246L613 251L609 250L602 255L596 254L592 260L587 256L582 257zM675 290L678 299L679 290L676 288L675 289zM683 298L680 299L683 300L683 298zM574 269L576 270L578 266L574 268z"/><path class="leaflet-interactive" stroke="#333" stroke-opacity="1" stroke-width="1" stroke-linecap="round" stroke-linejoin="round" stroke-dasharray="1,6" fill="#fff" fill-opacity="0" fill-rule="evenodd" d="M484 333L476 332L475 336L468 336L472 338L469 343L471 344L470 346L468 346L467 350L469 350L473 354L470 357L471 360L468 364L468 373L469 374L473 372L472 375L476 377L480 375L484 378L480 388L478 389L478 391L480 392L478 395L480 396L480 400L483 401L484 403L485 408L482 411L487 416L486 419L490 418L496 411L510 411L511 406L517 407L516 405L518 404L518 399L516 398L515 393L518 389L522 387L521 385L523 383L527 383L531 380L532 384L538 389L537 395L542 394L545 403L547 402L549 404L547 407L548 409L555 405L556 406L555 405L558 401L560 402L559 403L562 410L565 406L566 407L568 413L566 415L571 415L578 411L589 409L591 404L591 396L594 395L592 393L594 391L598 393L598 390L601 388L599 384L600 383L597 382L597 379L593 380L592 375L588 374L587 369L587 366L589 364L588 363L590 362L592 355L593 356L595 354L597 349L595 347L593 350L591 345L589 347L581 346L579 348L575 343L574 344L572 342L570 345L565 339L567 333L566 329L558 332L557 328L553 326L551 327L550 323L542 325L537 321L540 317L538 313L542 314L545 311L549 313L555 308L555 310L557 308L559 311L565 310L561 301L566 295L566 293L564 293L565 292L561 290L562 291L559 292L559 290L556 287L560 282L558 278L561 275L560 274L562 269L558 261L553 262L552 265L550 263L551 265L549 265L547 262L549 253L545 253L544 256L541 252L543 251L542 249L540 247L534 246L534 249L530 257L526 262L532 263L534 265L533 268L529 269L528 277L533 283L535 292L534 295L526 293L516 298L514 305L515 306L511 306L510 307L512 309L507 312L507 316L504 318L506 319L501 324L506 325L506 327L503 329L509 330L510 333L508 335L510 337L506 339L503 333L502 334L497 331L492 336L485 336L485 334zM467 350L467 351z"/></g></svg>