<svg xmlns="http://www.w3.org/2000/svg" pointer-events="none" class="leaflet-zoom-animated" width="1060" height="563" viewBox="-88 -47 1060 563" style="transform: translate3d(-88px, -47px, 0px);"><g><path class="leaflet-interactive" stroke="black" stroke-opacity="1" stroke-width="2" stroke-linecap="round" stroke-linejoin="round" fill="#fff" fill-opacity="0.2" fill-rule="evenodd" d="M546 367L547 366L549 368L552 366L552 364L572 364L575 369L578 360L582 357L582 355L585 352L584 349L591 343L593 339L600 335L602 331L609 325L616 326L614 324L615 322L622 317L626 317L626 315L628 314L631 314L632 316L633 313L635 313L635 311L638 310L641 306L641 308L645 307L643 306L643 304L645 304L646 301L644 299L641 300L641 298L645 294L648 288L646 288L650 284L647 283L647 279L643 278L643 274L642 272L640 272L641 271L638 268L639 266L636 263L637 262L633 252L628 253L629 248L627 240L629 237L627 235L631 233L630 232L633 229L633 227L636 226L635 223L634 224L631 222L629 224L628 221L627 222L628 219L626 217L628 215L622 214L623 209L617 200L618 196L615 195L613 191L612 192L614 185L612 183L609 184L607 182L607 169L609 167L609 163L605 164L600 168L599 172L593 180L592 179L589 182L588 179L585 179L585 177L589 175L584 172L588 167L581 160L580 156L574 156L573 153L570 154L562 146L563 143L559 141L555 146L556 151L552 158L553 161L551 165L552 166L550 167L551 168L548 171L544 169L540 171L535 171L531 176L531 180L533 182L527 184L526 186L523 185L520 187L520 185L515 189L513 186L506 185L500 181L494 181L494 185L498 185L495 191L493 192L487 188L487 191L485 191L480 188L479 190L474 191L474 196L471 201L470 200L464 206L462 206L461 203L459 203L460 202L452 204L451 203L447 205L446 208L442 210L435 218L427 216L427 218L424 218L422 220L420 219L415 224L413 223L408 227L409 228L407 232L405 234L403 233L400 236L401 237L398 238L400 240L398 240L395 243L392 247L393 250L391 252L388 251L387 249L389 247L387 241L379 227L380 220L376 220L367 216L367 212L364 209L360 214L357 214L353 218L352 222L353 221L355 226L358 227L354 251L356 256L360 258L360 260L357 259L359 265L358 268L355 269L356 273L352 275L344 289L338 290L338 292L342 294L340 296L336 296L334 305L336 309L337 308L341 313L342 312L346 314L348 312L349 315L347 316L352 318L351 319L353 322L367 322L366 323L368 326L368 334L370 336L369 340L371 339L374 342L375 341L374 347L376 351L382 354L386 350L399 346L403 343L407 343L410 339L410 336L414 332L414 327L417 326L418 323L424 318L425 313L429 313L434 310L431 309L431 306L435 306L436 303L439 301L442 303L452 304L452 301L454 301L457 304L463 304L469 300L472 306L475 307L475 313L479 313L480 315L483 314L484 319L489 323L489 325L487 325L489 327L486 328L484 332L482 332L484 333L482 335L479 334L479 338L475 339L478 345L475 346L472 351L469 352L467 357L463 358L458 362L457 361L453 365L455 373L452 374L452 376L445 377L442 380L442 382L446 384L443 386L444 391L451 391L454 396L465 391L465 393L459 397L461 399L459 399L459 403L463 405L461 408L459 408L461 406L459 404L457 405L459 407L455 411L451 411L449 409L446 412L446 414L442 416L438 415L436 417L436 419L438 419L438 429L442 428L444 425L448 423L454 423L458 420L462 421L465 418L461 416L463 413L462 412L465 413L467 411L470 416L474 414L471 411L474 412L473 409L476 411L478 408L480 409L480 407L483 404L485 404L483 403L483 401L492 392L496 390L496 388L500 389L508 382L514 380L517 377L521 378L524 374L525 375L525 373L529 374L535 372L535 368L541 370L546 367zM503 397L509 397L501 395L503 397zM495 401L496 400L492 402L493 404L495 402L496 403L495 401zM507 399L509 399L509 401L511 399L506 399zM512 411L509 410L512 412zM497 402L497 403zM469 420L470 421L470 419L469 420zM496 399L497 399zM497 397L498 398L497 397zM524 381L521 380L520 382L523 383L525 381zM491 401L491 401zM491 396L491 396zM526 384L526 384zM505 401L505 399L504 400zM501 400L502 399L500 399zM515 409L514 410L516 410L515 409zM514 408L515 408zM470 417L470 417zM517 409L516 408L517 410zM422 325L424 325L423 322L422 325zM454 402L453 401zM527 388L528 387L525 386L526 387zM454 401L455 400L454 401zM513 399L514 400L513 399zM513 408L513 408zM530 411L532 409L529 407L530 411zM523 398L522 397L523 398zM439 408L439 407zM560 366L560 366zM555 369L557 369L555 369zM493 392L492 393L493 392zM414 330L415 329zM605 330L606 329L605 330zM431 415L431 415z"/><path class="leaflet-interactive" stroke="#333" stroke-opacity="1" stroke-width="1" stroke-linecap="round" stroke-linejoin="round" stroke-dasharray="1,6" fill="#eee" fill-opacity="0.5" fill-rule="evenodd" d="M548 171L544 169L540 171L535 171L531 176L531 180L533 182L527 184L526 186L523 185L520 187L520 185L511 191L520 196L521 198L519 202L515 202L515 207L518 210L518 212L516 212L507 219L506 218L497 225L501 238L498 240L498 242L505 247L499 258L500 261L503 260L506 263L507 272L502 279L504 279L506 282L512 272L516 271L517 268L520 268L519 266L520 267L520 265L522 265L521 264L528 257L529 261L534 260L544 266L547 264L548 265L551 262L556 263L556 259L559 258L557 256L560 252L558 248L559 247L558 245L555 247L553 245L557 241L556 236L559 234L558 233L560 231L559 229L559 231L555 227L548 224L547 221L545 222L543 220L547 213L544 210L545 204L549 201L551 202L552 199L554 201L557 200L548 188L550 186L550 176L548 174L549 172z"/><path class="leaflet-interactive" stroke="#333" stroke-opacity="1" stroke-width="1" stroke-linecap="round" stroke-linejoin="round" stroke-dasharray="1,6" fill="#eee" fill-opacity="0.5" fill-rule="evenodd" d="M546 367L544 358L540 356L541 353L536 353L531 349L526 351L520 345L520 343L518 343L518 341L514 348L513 347L507 350L502 350L501 353L503 357L500 358L493 355L490 356L488 352L487 354L480 350L477 351L477 348L475 346L472 351L469 352L467 357L463 358L458 362L457 361L453 365L455 373L452 374L452 376L445 377L442 380L442 382L446 384L443 386L444 391L451 391L454 396L465 391L465 393L459 397L461 399L459 399L459 403L463 405L461 408L459 408L461 406L459 404L457 405L459 407L455 411L451 411L449 409L446 412L446 414L442 416L438 415L436 417L436 419L438 419L438 429L442 428L444 425L448 423L454 423L458 420L462 421L465 418L461 416L463 413L462 412L465 413L467 411L470 416L474 414L471 411L474 412L473 409L476 411L478 408L480 409L480 407L483 404L485 404L483 403L483 401L492 392L496 390L496 388L500 389L508 382L514 380L517 377L521 378L524 374L525 375L525 373L529 374L535 372L535 368L541 370L546 367zM503 397L509 397L501 395L503 397zM495 401L496 400L492 402L493 404L495 402L496 403L495 401zM507 399L509 399L509 401L511 399L506 399zM512 411L509 410L512 412zM497 402L497 403zM469 420L470 421L470 419L469 420zM496 399L497 399zM497 397L498 398L497 397zM524 381L521 380L520 382L523 383L525 381zM491 401L491 401zM491 396L491 396zM526 384L526 384zM505 401L505 399L504 400zM501 400L502 399L500 399zM515 409L514 410L516 410L515 409zM514 408L515 408zM470 417L470 417zM517 409L516 408L517 410zM454 402L453 401zM527 388L528 387L525 386L526 387zM454 401L455 400L454 401zM513 399L514 400L513 399zM513 408L513 408zM530 411L532 409L529 407L530 411zM523 398L522 397L523 398zM439 408L439 407zM493 392L492 393L493 392zM431 415L431 415z"/><path class="leaflet-interactive" stroke="#333" stroke-opacity="1" stroke-width="1" stroke-linecap="round" stroke-linejoin="round" stroke-dasharray="1,6" fill="#eee" fill-opacity="0.5" fill-rule="evenodd" d="M547 304L529 311L526 308L526 306L528 305L526 303L525 304L525 302L527 295L532 295L533 293L533 289L531 287L530 288L529 286L530 284L524 281L522 283L519 282L515 288L509 287L504 282L506 282L504 279L502 279L507 272L506 263L503 260L500 260L487 264L486 268L490 272L489 279L487 281L490 283L497 278L500 279L494 283L497 293L495 295L494 294L492 298L495 299L497 297L500 299L499 303L501 303L502 305L501 308L506 309L507 311L507 319L514 319L515 322L521 323L523 328L520 329L520 333L517 338L518 342L524 350L526 351L528 349L535 351L536 353L537 352L539 354L543 351L544 352L544 350L545 351L545 349L550 346L549 341L555 336L558 330L558 324L556 323L556 315L548 311L550 307L548 305z"/><path class="leaflet-interactive" stroke="#333" stroke-opacity="1" stroke-width="1" stroke-linecap="round" stroke-linejoin="round" stroke-dasharray="1,6" fill="#eee" fill-opacity="0.5" fill-rule="evenodd" d="M557 262L558 261L558 263L560 263L563 259L565 259L565 261L573 261L574 263L576 261L582 261L582 263L584 264L583 265L586 266L584 270L589 275L590 274L596 278L601 278L608 273L608 265L612 262L617 265L623 263L623 265L626 263L629 264L631 261L635 259L633 252L628 253L629 248L627 244L627 240L629 237L627 235L631 233L630 232L633 229L633 227L636 226L635 223L634 224L631 222L629 224L628 221L627 222L628 219L626 217L628 215L622 214L623 209L622 206L620 206L620 204L618 204L616 208L614 208L614 210L606 207L604 208L605 211L600 214L598 214L595 211L594 216L592 218L592 221L594 223L592 228L582 233L580 229L571 229L568 233L564 231L556 235L557 238L555 240L557 240L553 245L555 247L558 245L559 246L558 247L560 251L557 255L559 258L556 259L557 261z"/><path class="leaflet-interactive" stroke="#333" stroke-opacity="1" stroke-width="1" stroke-linecap="round" stroke-linejoin="round" stroke-dasharray="1,6" fill="#eee" fill-opacity="0.5" fill-rule="evenodd" d="M550 264L553 267L553 278L551 278L550 281L553 285L554 290L552 296L553 297L549 302L555 305L558 302L564 304L568 302L575 302L575 296L573 293L575 290L576 292L580 288L582 288L582 290L587 289L591 291L594 288L598 288L602 284L614 288L624 287L628 289L629 292L630 291L630 294L635 292L636 297L636 295L638 294L638 299L641 299L648 288L646 288L650 284L647 283L647 279L643 278L643 274L642 272L640 272L641 271L638 268L639 266L636 263L637 262L635 259L633 261L631 260L629 263L626 263L624 265L623 263L614 264L612 262L609 265L607 271L608 274L598 279L591 274L589 275L584 270L586 266L582 264L582 261L576 261L574 263L568 260L565 261L565 259L563 259L560 263L558 263L558 261L556 263L550 263z"/><path class="leaflet-interactive" stroke="#333" stroke-opacity="1" stroke-width="1" stroke-linecap="round" stroke-linejoin="round" stroke-dasharray="1,6" fill="#eee" fill-opacity="0.5" fill-rule="evenodd" d="M546 367L547 366L549 368L552 366L552 364L572 364L575 369L578 360L582 357L582 355L585 352L584 349L591 343L593 339L600 335L602 331L609 325L616 326L614 324L617 320L619 320L622 317L626 317L626 315L628 314L631 314L632 316L633 313L635 313L635 311L638 310L641 306L641 308L644 308L645 307L643 306L643 304L645 304L646 301L644 299L639 299L637 297L638 294L636 297L635 292L630 294L630 292L624 287L614 288L602 284L598 288L594 288L591 291L588 289L585 291L584 289L582 291L582 288L580 288L579 291L573 292L575 297L574 303L568 302L564 304L558 302L555 305L548 302L548 311L550 313L553 313L557 317L556 322L558 324L558 330L555 336L549 341L548 343L550 346L548 348L547 347L545 351L544 350L545 352L543 351L541 353L540 356L544 358L546 366zM560 366L560 366zM555 369L557 369L555 369zM605 330L606 329L605 330z"/><path class="leaflet-interactive" stroke="#333" stroke-opacity="1" stroke-width="1" stroke-linecap="round" stroke-linejoin="round" stroke-dasharray="1,6" fill="#eee" fill-opacity="0.5" fill-rule="evenodd" d="M457 303L462 296L462 288L467 288L458 287L460 281L458 281L458 279L466 273L468 274L470 272L472 274L475 271L483 269L487 264L494 261L498 261L500 259L499 258L505 247L498 243L498 239L501 239L499 230L497 228L498 225L484 231L478 238L477 237L475 241L473 241L474 242L470 242L470 246L457 246L453 252L451 249L449 250L447 249L447 247L444 246L442 248L442 252L432 258L431 257L430 261L427 263L428 265L426 265L427 268L425 268L424 270L424 268L421 271L421 278L419 280L423 283L422 284L424 286L426 284L431 292L433 291L433 306L435 306L436 303L439 301L442 303L452 304L452 301L454 301L456 303z"/><path class="leaflet-interactive" stroke="#333" stroke-opacity="1" stroke-width="1" stroke-linecap="round" stroke-linejoin="round" stroke-dasharray="1,6" fill="#eee" fill-opacity="0.5" fill-rule="evenodd" d="M475 346L478 351L481 350L487 354L488 353L490 355L496 355L501 358L503 356L501 354L501 351L509 349L510 350L512 347L516 345L518 341L517 335L520 333L520 329L523 328L523 325L520 322L516 322L514 319L507 319L507 309L501 308L502 306L500 303L500 299L498 297L492 300L491 299L490 302L486 301L486 303L484 303L482 306L490 312L489 313L485 311L483 316L484 319L489 323L489 325L487 325L489 327L486 328L484 332L482 332L484 333L482 335L479 334L479 338L475 339L476 343L478 343L478 345L476 346z"/><path class="leaflet-interactive" stroke="#333" stroke-opacity="1" stroke-width="1" stroke-linecap="round" stroke-linejoin="round" stroke-dasharray="1,6" fill="#eee" fill-opacity="0.5" fill-rule="evenodd" d="M516 189L513 186L506 185L500 181L494 181L494 185L498 185L495 191L493 192L487 188L487 191L485 191L480 188L479 190L474 191L474 196L471 201L470 200L464 206L462 206L461 203L459 203L460 202L452 204L451 203L447 205L444 210L442 210L435 218L433 218L436 226L434 234L441 235L442 238L446 241L444 246L448 250L452 249L453 251L456 248L456 246L469 246L471 244L470 243L476 240L485 231L496 226L516 212L518 212L518 210L515 207L515 203L519 202L521 198L518 195L517 196L515 193L513 193L512 189L515 189z"/><path class="leaflet-interactive" stroke="#333" stroke-opacity="1" stroke-width="1" stroke-linecap="round" stroke-linejoin="round" stroke-dasharray="1,6" fill="#eee" fill-opacity="0.5" fill-rule="evenodd" d="M506 282L504 282L515 289L516 285L519 282L522 283L524 281L530 284L529 288L533 288L532 289L534 291L532 291L532 294L527 296L525 303L528 305L526 307L531 311L537 307L538 308L541 307L542 305L546 305L553 297L552 293L554 290L553 285L550 281L550 279L553 278L553 267L550 264L545 266L536 261L530 261L528 256L524 263L521 263L522 264L519 268L517 268L516 271L510 274L506 282z"/><path class="leaflet-interactive" stroke="#333" stroke-opacity="1" stroke-width="1" stroke-linecap="round" stroke-linejoin="round" stroke-dasharray="1,6" fill="#eee" fill-opacity="0.5" fill-rule="evenodd" d="M457 303L457 305L459 303L463 304L469 300L472 306L475 307L475 313L479 313L480 315L482 315L484 311L488 313L490 312L487 311L487 309L482 306L484 303L486 304L486 301L488 303L493 298L493 294L497 293L494 283L500 279L497 278L490 283L487 281L489 279L490 272L486 268L486 266L482 270L475 270L472 274L470 272L464 275L458 279L458 281L460 281L458 287L467 288L463 288L461 291L463 293L458 302z"/><path class="leaflet-interactive" stroke="#333" stroke-opacity="1" stroke-width="1" stroke-linecap="round" stroke-linejoin="round" stroke-dasharray="1,6" fill="#fff" fill-opacity="0" fill-rule="evenodd" d="M559 234L563 231L568 233L571 229L579 229L582 233L585 232L594 224L592 218L594 216L595 211L598 214L600 214L605 211L605 207L609 209L611 208L613 210L618 205L617 204L619 204L617 200L618 196L615 195L613 191L612 192L614 185L612 183L609 184L607 182L607 169L609 167L609 163L605 164L600 168L599 172L593 180L592 179L589 182L588 179L585 179L585 177L589 175L584 172L588 167L581 160L580 156L574 156L573 153L570 154L562 146L563 143L559 141L555 146L556 151L552 158L552 166L548 171L550 176L550 187L548 188L549 191L551 191L551 193L557 199L554 202L553 199L551 200L551 202L549 201L544 206L544 209L547 212L544 217L545 219L543 220L559 231L559 229L560 232L558 233z"/><path class="leaflet-interactive" stroke="#333" stroke-opacity="1" stroke-width="1" stroke-linecap="round" stroke-linejoin="round" stroke-dasharray="1,6" fill="#eee" fill-opacity="0.5" fill-rule="evenodd" d="M433 218L427 216L427 218L424 218L422 220L420 219L415 224L413 223L409 226L407 232L405 234L403 233L400 236L401 237L398 238L400 240L398 240L395 243L392 247L393 250L391 252L388 251L387 249L389 247L387 241L379 227L380 220L376 220L367 216L367 212L364 209L360 214L357 214L353 218L352 222L353 221L355 226L358 227L354 251L356 256L360 258L360 260L357 259L359 265L358 268L355 269L356 273L352 275L344 289L338 290L338 292L342 294L340 296L336 296L336 300L334 303L336 309L337 308L341 313L342 312L344 314L348 312L349 315L347 316L352 318L360 312L360 310L366 304L367 305L369 303L371 307L374 302L377 303L378 298L385 298L387 296L386 289L391 288L393 293L394 292L396 295L394 297L395 298L398 296L399 297L401 294L405 296L407 295L408 289L411 290L411 288L414 287L416 283L421 281L419 281L421 279L421 271L424 268L424 270L426 268L426 265L428 265L427 264L431 257L432 258L441 253L442 248L444 247L446 241L439 234L434 234L436 226L433 218z"/><path class="leaflet-interactive" stroke="#333" stroke-opacity="1" stroke-width="1" stroke-linecap="round" stroke-linejoin="round" stroke-dasharray="1,6" fill="#eee" fill-opacity="0.5" fill-rule="evenodd" d="M433 306L433 292L429 290L429 286L427 286L428 285L426 284L424 286L422 284L423 283L420 282L416 283L411 290L408 289L405 297L402 294L399 297L396 296L396 298L394 298L394 296L396 295L394 292L393 293L391 290L392 289L386 289L388 294L385 298L379 298L376 303L373 302L373 305L371 307L369 303L365 304L364 308L362 308L359 313L352 317L351 320L353 322L367 322L366 323L368 326L368 334L370 336L369 340L371 339L374 342L375 341L375 350L382 354L386 350L399 346L403 343L407 343L410 339L410 336L414 332L414 327L417 326L418 323L424 318L425 313L429 313L434 310L431 309L432 305L433 307zM422 325L424 325L423 322L422 325zM414 330L415 329z"/></g></svg>