<svg xmlns="http://www.w3.org/2000/svg" pointer-events="none" class="leaflet-zoom-animated" width="1060" height="563" viewBox="-88 -47 1060 563" style="transform: translate3d(-88px, -47px, 0px);"><g><path class="leaflet-interactive" stroke="black" stroke-opacity="1" stroke-width="2" stroke-linecap="round" stroke-linejoin="round" fill="#fff" fill-opacity="0.2" fill-rule="evenodd" d="M528 374L531 378L531 386L533 388L530 396L531 398L539 401L545 398L549 400L547 404L548 407L545 408L548 417L546 417L546 422L552 422L551 419L553 418L553 416L550 413L553 412L554 410L557 413L556 414L559 416L557 419L559 419L557 423L558 424L555 426L558 433L558 431L561 429L562 432L568 431L568 433L572 435L575 431L578 433L578 428L583 421L582 420L585 413L590 411L590 407L593 404L592 401L588 401L586 403L584 401L589 398L589 396L592 394L592 392L588 390L588 382L593 370L587 365L586 362L583 360L582 361L580 358L582 354L577 344L575 345L575 347L568 349L569 344L567 341L565 341L564 338L566 336L565 334L567 331L564 329L566 327L563 327L562 324L559 327L559 322L557 322L557 326L554 323L555 322L552 322L553 319L551 311L548 309L542 317L544 319L541 321L537 319L537 317L535 316L536 314L534 312L532 313L532 311L536 308L542 310L542 295L545 289L544 287L546 281L542 278L542 276L534 272L536 269L535 265L536 263L540 262L544 263L545 265L551 256L553 256L554 261L556 263L559 261L562 262L567 256L576 251L581 252L579 257L581 260L585 259L592 253L596 258L594 261L595 263L604 252L607 250L607 252L611 250L611 248L615 246L615 243L630 232L638 234L638 238L640 238L641 240L643 239L648 227L648 225L646 226L645 219L647 216L649 216L650 213L648 210L649 209L646 195L641 194L636 189L634 190L633 189L636 186L630 186L627 183L620 184L619 183L622 179L620 178L620 173L617 171L610 170L602 170L598 172L592 171L589 167L591 166L586 163L586 161L575 152L569 150L566 151L562 146L559 146L557 142L552 142L541 134L539 136L535 134L533 136L537 144L531 145L531 152L528 150L525 151L527 156L532 161L533 160L534 163L538 163L538 165L543 168L541 169L544 175L543 174L538 178L537 177L533 181L534 183L531 184L531 186L523 187L521 190L523 190L522 194L519 197L519 201L510 206L510 208L513 207L514 210L509 217L510 220L512 220L512 222L504 227L505 231L508 232L506 234L499 240L494 238L493 239L493 235L491 233L485 239L481 236L475 237L476 240L471 244L474 247L473 249L477 251L472 259L473 260L470 261L458 284L449 293L449 295L446 296L447 297L445 297L443 293L441 297L440 296L438 298L434 296L427 298L423 288L420 285L419 282L421 280L416 276L412 278L409 277L407 281L402 281L400 283L399 282L399 284L395 286L395 284L391 282L390 276L386 276L386 274L384 275L380 271L376 272L374 270L370 270L368 267L366 270L365 269L363 276L361 276L363 280L359 281L355 279L356 283L358 284L357 286L350 286L351 289L353 287L354 288L352 290L357 292L356 293L358 295L359 294L360 297L362 296L362 298L364 298L362 300L361 305L363 309L361 311L355 311L353 313L352 319L349 321L350 322L346 320L346 324L342 323L339 328L338 327L335 330L336 331L334 333L337 339L336 340L340 340L340 342L344 344L342 350L345 349L345 352L348 352L349 354L354 353L354 355L356 353L358 355L358 353L361 351L361 361L362 364L364 364L362 366L364 368L363 371L367 377L366 378L372 378L374 381L374 379L379 375L383 378L383 380L384 379L386 381L389 381L391 379L397 385L395 387L399 395L399 399L402 403L402 408L404 408L405 406L412 408L410 403L413 405L411 403L412 398L414 398L413 394L409 391L410 386L413 390L416 391L417 395L419 397L420 396L420 399L422 399L419 400L421 401L420 403L419 402L419 406L417 409L416 408L416 410L418 411L418 409L421 412L424 411L425 414L428 413L426 409L428 406L430 406L429 402L430 401L432 404L433 401L435 401L436 399L437 396L435 396L433 391L439 387L441 390L443 390L443 384L445 384L445 382L447 384L448 381L448 383L457 382L457 385L459 386L458 389L460 391L462 388L466 386L465 385L469 385L472 378L470 374L467 373L469 371L468 367L471 366L472 364L470 363L472 359L474 359L474 361L480 357L483 363L483 361L489 363L492 360L495 363L495 370L497 371L496 375L498 376L500 376L501 373L503 373L504 371L510 371L513 367L518 370L521 368L524 371L527 367L528 373zM580 256L580 254L578 255L579 256zM353 290L352 290zM579 256L580 257zM448 296L448 297z"/><path class="leaflet-interactive" stroke="#333" stroke-opacity="1" stroke-width="1" stroke-linecap="round" stroke-linejoin="round" stroke-dasharray="1,6" fill="#eee" fill-opacity="0.5" fill-rule="evenodd" d="M511 257L514 257L515 255L517 256L516 257L518 257L520 262L522 262L524 267L523 268L527 270L534 259L534 261L536 261L535 263L540 262L544 263L545 265L551 256L553 256L554 261L556 263L559 261L562 262L567 256L564 254L566 249L559 249L556 239L554 239L550 233L548 233L548 231L545 231L542 227L543 225L541 225L541 227L538 227L538 225L534 225L531 228L531 231L524 234L520 238L515 238L515 234L511 234L508 231L500 239L506 246L513 246L514 249L510 251L510 256z"/><path class="leaflet-interactive" stroke="#333" stroke-opacity="1" stroke-width="1" stroke-linecap="round" stroke-linejoin="round" stroke-dasharray="1,6" fill="#fff" fill-opacity="0" fill-rule="evenodd" d="M489 328L490 326L488 324L487 325L485 322L485 313L484 314L483 312L484 310L481 303L477 303L473 299L464 311L459 311L456 315L449 317L446 321L444 321L441 336L446 340L447 346L449 347L455 342L457 344L457 347L459 346L459 342L461 342L466 335L469 334L472 336L472 338L474 336L478 342L482 338L484 338L483 334L485 334L489 329z"/><path class="leaflet-interactive" stroke="#333" stroke-opacity="1" stroke-width="1" stroke-linecap="round" stroke-linejoin="round" stroke-dasharray="1,6" fill="#eee" fill-opacity="0.5" fill-rule="evenodd" d="M418 331L411 333L414 335L418 332z"/><path class="leaflet-interactive" stroke="#333" stroke-opacity="1" stroke-width="1" stroke-linecap="round" stroke-linejoin="round" stroke-dasharray="1,6" fill="#eee" fill-opacity="0.5" fill-rule="evenodd" d="M407 342L405 342L406 348L411 344L414 345L411 337L409 338L409 342L407 343z"/><path class="leaflet-interactive" stroke="#333" stroke-opacity="1" stroke-width="1" stroke-linecap="round" stroke-linejoin="round" stroke-dasharray="1,6" fill="#eee" fill-opacity="0.5" fill-rule="evenodd" d="M409 329L411 333L417 332L417 330L420 328L420 330L422 330L423 332L429 328L434 331L437 325L435 326L432 325L433 324L431 323L428 325L427 324L427 326L425 327L419 326L415 331L412 331L411 328L410 329z"/><path class="leaflet-interactive" stroke="#333" stroke-opacity="1" stroke-width="1" stroke-linecap="round" stroke-linejoin="round" stroke-dasharray="1,6" fill="#eee" fill-opacity="0.5" fill-rule="evenodd" d="M411 333L409 331L410 326L409 324L407 325L408 319L399 319L396 334L397 335L403 332L407 337L411 334z"/><path class="leaflet-interactive" stroke="#333" stroke-opacity="1" stroke-width="1" stroke-linecap="round" stroke-linejoin="round" stroke-dasharray="1,6" fill="#eee" fill-opacity="0.5" fill-rule="evenodd" d="M396 334L396 339L401 344L399 346L398 345L396 349L399 355L405 352L405 341L409 343L410 338L411 337L415 339L415 337L411 333L407 337L406 334L404 334L403 332L397 335zM407 342L407 342zM406 341L406 341z"/><path class="leaflet-interactive" stroke="#333" stroke-opacity="1" stroke-width="1" stroke-linecap="round" stroke-linejoin="round" stroke-dasharray="1,6" fill="#eee" fill-opacity="0.5" fill-rule="evenodd" d="M431 330L429 328L424 332L420 330L420 328L418 328L417 333L414 335L417 339L423 340L424 337L427 338L430 331z"/><path class="leaflet-interactive" stroke="#333" stroke-opacity="1" stroke-width="1" stroke-linecap="round" stroke-linejoin="round" stroke-dasharray="1,6" fill="#eee" fill-opacity="0.5" fill-rule="evenodd" d="M421 293L416 299L415 304L411 306L409 309L409 305L406 308L405 305L400 308L401 311L404 313L399 319L401 320L407 318L407 325L409 325L410 322L413 322L414 316L414 318L419 317L419 314L417 314L422 309L424 304L423 305L423 295z"/><path class="leaflet-interactive" stroke="#333" stroke-opacity="1" stroke-width="1" stroke-linecap="round" stroke-linejoin="round" stroke-dasharray="1,6" fill="#eee" fill-opacity="0.5" fill-rule="evenodd" d="M448 381L448 378L445 377L446 374L443 371L443 369L438 370L439 366L436 362L435 363L431 360L429 362L424 360L417 364L417 370L419 372L418 373L416 373L411 367L410 372L408 371L410 370L405 372L404 371L406 375L406 382L413 390L416 391L417 395L419 397L420 396L420 399L422 399L419 400L421 401L420 403L419 402L419 406L417 409L416 408L416 410L418 411L418 409L421 412L424 411L425 414L428 413L426 409L428 406L430 406L429 402L430 401L432 404L433 401L435 401L436 399L437 396L435 396L433 391L439 387L441 390L443 390L443 384L445 384L445 382L447 384L447 382z"/><path class="leaflet-interactive" stroke="#333" stroke-opacity="1" stroke-width="1" stroke-linecap="round" stroke-linejoin="round" stroke-dasharray="1,6" fill="#eee" fill-opacity="0.5" fill-rule="evenodd" d="M346 323L348 329L350 331L353 330L353 335L356 338L357 336L357 338L360 341L361 339L363 341L362 344L365 346L369 335L372 334L382 320L379 316L373 314L371 318L369 318L365 314L362 315L363 311L359 310L353 313L352 319L349 321L350 322L346 320L346 322z"/><path class="leaflet-interactive" stroke="#333" stroke-opacity="1" stroke-width="1" stroke-linecap="round" stroke-linejoin="round" stroke-dasharray="1,6" fill="#eee" fill-opacity="0.5" fill-rule="evenodd" d="M437 325L438 323L440 323L442 317L440 311L443 304L435 301L434 296L427 298L423 290L423 307L417 314L419 314L419 317L414 317L412 323L409 323L409 329L411 328L412 331L415 331L418 326L424 327L427 324L430 325L431 323L435 326L436 325z"/><path class="leaflet-interactive" stroke="#333" stroke-opacity="1" stroke-width="1" stroke-linecap="round" stroke-linejoin="round" stroke-dasharray="1,6" fill="#eee" fill-opacity="0.5" fill-rule="evenodd" d="M415 338L413 338L412 341L414 345L412 344L408 347L410 347L411 352L415 358L415 363L418 364L424 360L426 360L427 362L431 360L437 363L437 359L439 360L442 358L439 351L439 344L444 319L442 317L440 323L438 323L434 331L430 331L427 338L424 337L423 340L416 338z"/><path class="leaflet-interactive" stroke="#333" stroke-opacity="1" stroke-width="1" stroke-linecap="round" stroke-linejoin="round" stroke-dasharray="1,6" fill="#eee" fill-opacity="0.5" fill-rule="evenodd" d="M544 363L547 366L546 367L548 365L548 368L551 368L551 366L553 365L553 367L555 368L559 364L563 366L566 358L569 356L570 353L567 352L569 344L567 341L565 341L564 338L566 336L565 334L567 331L564 329L566 327L563 327L562 324L559 327L559 322L557 322L557 326L554 323L555 322L553 323L551 311L548 309L542 317L544 319L541 321L542 322L540 326L544 332L540 336L545 337L547 341L544 345L544 351L546 352L544 357L545 362z"/><path class="leaflet-interactive" stroke="#333" stroke-opacity="1" stroke-width="1" stroke-linecap="round" stroke-linejoin="round" stroke-dasharray="1,6" fill="#eee" fill-opacity="0.5" fill-rule="evenodd" d="M442 317L444 318L444 321L446 321L450 317L451 318L456 315L458 311L462 312L465 310L473 300L474 298L472 297L468 302L465 302L463 296L460 294L463 292L463 287L461 284L459 283L449 293L449 295L446 296L447 297L445 297L443 293L441 297L435 297L435 301L440 301L442 304L440 310L440 316L442 316zM448 296L448 297z"/><path class="leaflet-interactive" stroke="#333" stroke-opacity="1" stroke-width="1" stroke-linecap="round" stroke-linejoin="round" stroke-dasharray="1,6" fill="#eee" fill-opacity="0.5" fill-rule="evenodd" d="M369 378L372 378L374 381L374 379L379 375L383 378L383 380L384 379L386 381L389 381L391 379L397 385L395 387L399 395L399 399L402 403L402 408L404 408L405 406L412 408L410 403L413 405L411 403L412 398L414 398L413 394L409 391L410 386L406 383L406 375L404 371L405 372L407 370L410 370L408 371L410 373L411 367L416 373L419 372L417 370L418 369L415 363L415 358L411 352L410 347L406 348L404 350L405 352L400 355L397 349L398 345L399 346L401 344L397 340L391 351L387 353L384 350L382 350L382 355L374 366L375 369L370 373L371 374L368 377z"/><path class="leaflet-interactive" stroke="#333" stroke-opacity="1" stroke-width="1" stroke-linecap="round" stroke-linejoin="round" stroke-dasharray="1,6" fill="#eee" fill-opacity="0.5" fill-rule="evenodd" d="M421 293L423 292L423 288L419 282L421 280L416 276L412 278L409 277L407 281L402 281L400 283L399 282L399 284L395 286L395 284L391 282L390 276L386 276L386 274L384 275L380 271L379 272L378 279L381 280L379 280L378 282L381 285L378 286L380 290L378 295L380 298L381 297L383 299L381 299L382 300L388 300L387 303L390 306L393 304L397 308L398 307L397 311L404 305L406 308L409 305L409 309L410 306L416 302L420 294zM395 306L395 306z"/><path class="leaflet-interactive" stroke="#333" stroke-opacity="1" stroke-width="1" stroke-linecap="round" stroke-linejoin="round" stroke-dasharray="1,6" fill="#eee" fill-opacity="0.5" fill-rule="evenodd" d="M358 353L361 351L361 361L362 364L364 364L362 366L364 368L363 371L367 377L366 378L369 378L368 377L371 374L370 373L375 369L374 366L382 355L385 334L379 335L379 333L375 334L373 333L373 331L368 336L365 346L362 345L356 350L357 353z"/><path class="leaflet-interactive" stroke="#333" stroke-opacity="1" stroke-width="1" stroke-linecap="round" stroke-linejoin="round" stroke-dasharray="1,6" fill="#eee" fill-opacity="0.5" fill-rule="evenodd" d="M448 381L448 383L457 382L457 385L459 386L458 389L460 391L462 388L466 386L465 385L469 385L472 378L470 374L467 373L469 371L468 367L471 366L472 364L470 363L471 362L469 358L471 354L468 351L468 348L465 349L461 345L457 347L457 343L454 342L450 347L447 346L446 339L441 337L439 353L442 358L440 360L438 359L437 363L439 366L438 370L440 370L441 368L446 375L446 378L448 378L447 379z"/><path class="leaflet-interactive" stroke="#333" stroke-opacity="1" stroke-width="1" stroke-linecap="round" stroke-linejoin="round" stroke-dasharray="1,6" fill="#eee" fill-opacity="0.5" fill-rule="evenodd" d="M396 334L399 319L404 313L401 312L402 311L400 308L391 317L391 323L388 326L385 333L384 345L382 350L384 350L387 353L394 347L397 340L396 335z"/><path class="leaflet-interactive" stroke="#333" stroke-opacity="1" stroke-width="1" stroke-linecap="round" stroke-linejoin="round" stroke-dasharray="1,6" fill="#eee" fill-opacity="0.5" fill-rule="evenodd" d="M378 295L374 293L373 296L371 296L371 299L376 304L376 308L368 308L365 314L369 318L371 318L373 315L381 318L382 320L373 331L374 334L379 333L379 335L381 335L386 332L388 326L391 323L390 317L395 314L398 307L397 308L393 304L388 305L388 301L386 299L381 300L383 299L378 296zM395 306L395 306zM390 305L390 305z"/><path class="leaflet-interactive" stroke="#333" stroke-opacity="1" stroke-width="1" stroke-linecap="round" stroke-linejoin="round" stroke-dasharray="1,6" fill="#eee" fill-opacity="0.5" fill-rule="evenodd" d="M362 310L363 313L361 315L364 315L368 308L369 309L370 307L374 308L375 310L376 304L371 297L375 293L379 293L380 291L378 289L378 286L381 285L379 282L379 280L381 280L378 279L379 273L374 270L370 270L368 267L366 270L365 269L363 276L361 276L363 280L359 281L355 279L356 283L358 284L357 286L350 286L351 289L353 287L354 288L352 290L357 292L356 293L358 295L359 294L360 297L362 296L362 298L364 298L362 300L361 305L363 309zM353 290L352 290z"/><path class="leaflet-interactive" stroke="#333" stroke-opacity="1" stroke-width="1" stroke-linecap="round" stroke-linejoin="round" stroke-dasharray="1,6" fill="#eee" fill-opacity="0.5" fill-rule="evenodd" d="M358 353L356 350L363 344L363 341L361 339L360 341L358 340L357 337L356 339L353 335L354 331L350 331L346 323L342 323L339 328L338 327L335 330L336 331L334 333L337 339L336 340L340 340L340 342L344 344L342 350L345 349L345 352L348 352L349 354L354 353L354 355L356 353L358 354z"/><path class="leaflet-interactive" stroke="#333" stroke-opacity="1" stroke-width="1" stroke-linecap="round" stroke-linejoin="round" stroke-dasharray="1,6" fill="#eee" fill-opacity="0.5" fill-rule="evenodd" d="M543 174L544 175L543 174L538 178L537 177L533 181L534 183L531 184L531 186L523 187L521 190L523 190L522 194L519 197L519 201L510 206L510 208L514 208L513 212L509 217L510 220L512 220L512 222L505 226L504 229L511 235L513 233L515 234L515 238L520 238L524 233L525 234L531 231L532 230L530 228L535 224L539 223L539 221L544 218L545 214L547 213L546 210L550 205L549 204L551 203L549 200L554 199L553 196L556 195L557 192L553 189L553 187L557 187L558 184L566 178L566 176L562 173L558 173L554 178L550 178L545 174z"/><path class="leaflet-interactive" stroke="#333" stroke-opacity="1" stroke-width="1" stroke-linecap="round" stroke-linejoin="round" stroke-dasharray="1,6" fill="#eee" fill-opacity="0.5" fill-rule="evenodd" d="M500 239L493 239L493 235L491 233L485 239L481 236L475 237L476 240L471 244L474 247L473 249L477 251L472 259L473 260L470 261L473 262L474 264L479 262L481 264L485 263L485 265L487 265L487 268L492 261L496 264L496 261L499 258L503 263L505 263L505 261L507 261L511 257L509 253L511 250L514 250L514 246L506 246L501 239z"/><path class="leaflet-interactive" stroke="#333" stroke-opacity="1" stroke-width="1" stroke-linecap="round" stroke-linejoin="round" stroke-dasharray="1,6" fill="#eee" fill-opacity="0.5" fill-rule="evenodd" d="M470 360L474 359L474 361L480 357L483 363L483 361L489 363L492 360L496 366L495 370L499 371L503 359L506 360L509 355L509 350L507 349L509 336L513 333L514 330L508 327L505 329L504 325L500 324L498 325L498 331L496 333L493 331L493 329L491 330L489 328L485 334L483 334L484 338L482 338L479 342L474 336L472 338L472 336L469 334L466 335L462 341L459 342L459 344L463 348L469 349L468 352L471 353L469 358z"/><path class="leaflet-interactive" stroke="#333" stroke-opacity="1" stroke-width="1" stroke-linecap="round" stroke-linejoin="round" stroke-dasharray="1,6" fill="#eee" fill-opacity="0.5" fill-rule="evenodd" d="M591 171L589 167L591 166L586 163L586 161L575 152L569 150L566 151L562 146L559 146L557 142L552 142L541 134L539 136L535 134L533 136L537 144L531 145L531 152L528 150L525 151L527 156L532 161L533 160L534 163L538 163L538 165L543 168L541 169L543 174L551 178L556 177L558 173L562 173L566 176L572 176L573 173L576 172L586 173L587 170L590 171z"/><path class="leaflet-interactive" stroke="#333" stroke-opacity="1" stroke-width="1" stroke-linecap="round" stroke-linejoin="round" stroke-dasharray="1,6" fill="#eee" fill-opacity="0.5" fill-rule="evenodd" d="M489 328L491 330L493 329L493 331L496 333L498 331L499 324L504 325L506 329L507 327L519 329L519 318L520 319L522 317L520 312L514 312L512 310L513 309L508 302L510 302L509 296L502 292L496 291L498 288L495 285L493 285L494 282L487 283L487 280L485 284L482 285L482 290L478 293L479 294L475 302L477 303L478 301L480 304L481 303L484 310L482 312L483 314L485 313L485 322L490 326L489 328z"/><path class="leaflet-interactive" stroke="#333" stroke-opacity="1" stroke-width="1" stroke-linecap="round" stroke-linejoin="round" stroke-dasharray="1,6" fill="#fff" fill-opacity="0" fill-rule="evenodd" d="M473 299L476 299L479 294L478 293L481 290L481 287L483 286L481 283L480 285L479 284L482 278L481 275L487 268L487 266L485 265L485 263L481 264L479 262L475 264L470 261L459 282L463 287L461 289L463 289L461 294L464 297L463 300L465 302L468 302L472 297L474 298L473 299z"/><path class="leaflet-interactive" stroke="#333" stroke-opacity="1" stroke-width="1" stroke-linecap="round" stroke-linejoin="round" stroke-dasharray="1,6" fill="#fff" fill-opacity="0" fill-rule="evenodd" d="M523 268L524 267L522 262L520 262L516 255L515 257L514 256L505 261L505 263L503 263L501 259L497 258L496 264L493 261L482 273L482 278L479 285L485 284L486 280L488 281L487 282L490 283L493 282L493 284L498 287L496 291L502 291L505 295L508 296L511 293L511 295L514 291L513 288L515 284L517 284L514 281L516 281L519 276L514 274L517 273L518 270L522 269z"/><path class="leaflet-interactive" stroke="#333" stroke-opacity="1" stroke-width="1" stroke-linecap="round" stroke-linejoin="round" stroke-dasharray="1,6" fill="#eee" fill-opacity="0.5" fill-rule="evenodd" d="M567 256L574 251L574 246L576 245L576 235L580 235L583 229L587 231L586 227L589 223L587 221L580 220L578 215L576 215L576 211L579 210L577 204L575 203L575 197L569 195L565 197L566 200L562 199L560 195L561 193L557 192L553 196L554 199L549 200L551 202L546 210L547 213L539 221L539 223L535 224L538 225L538 227L543 225L544 231L549 231L548 233L550 233L553 238L556 239L559 249L566 249L564 254z"/><path class="leaflet-interactive" stroke="#333" stroke-opacity="1" stroke-width="1" stroke-linecap="round" stroke-linejoin="round" stroke-dasharray="1,6" fill="#eee" fill-opacity="0.5" fill-rule="evenodd" d="M579 257L581 260L585 259L592 253L596 258L594 261L595 263L604 252L607 250L607 252L611 250L611 248L615 246L614 238L612 237L612 235L609 234L610 232L612 232L611 224L617 221L622 216L621 211L614 211L609 206L598 207L594 200L590 198L576 198L575 203L579 209L578 211L576 211L576 215L579 216L579 220L585 220L589 223L586 227L587 230L583 229L581 235L576 235L577 243L574 246L574 252L580 251L580 257zM579 256L580 254L578 255L579 256zM579 256L580 257z"/><path class="leaflet-interactive" stroke="#333" stroke-opacity="1" stroke-width="1" stroke-linecap="round" stroke-linejoin="round" stroke-dasharray="1,6" fill="#eee" fill-opacity="0.5" fill-rule="evenodd" d="M615 243L630 232L638 234L638 238L640 238L641 240L643 239L647 231L648 225L646 226L645 219L647 216L649 216L650 213L648 210L648 202L646 195L641 194L636 189L633 189L632 195L624 196L622 199L619 199L617 203L614 202L609 206L610 208L613 209L613 211L622 212L622 216L612 224L612 231L609 233L610 235L612 235L615 241z"/><path class="leaflet-interactive" stroke="#333" stroke-opacity="1" stroke-width="1" stroke-linecap="round" stroke-linejoin="round" stroke-dasharray="1,6" fill="#eee" fill-opacity="0.5" fill-rule="evenodd" d="M633 189L636 186L630 186L627 183L620 184L619 183L622 179L620 178L620 173L617 171L610 170L602 170L598 172L587 170L586 173L573 173L572 176L567 176L566 179L562 182L561 181L557 187L553 187L553 189L556 192L557 191L560 193L562 199L566 200L565 197L569 195L574 197L590 198L594 200L598 207L606 207L614 202L617 203L620 198L622 199L624 196L632 195L633 190z"/><path class="leaflet-interactive" stroke="#333" stroke-opacity="1" stroke-width="1" stroke-linecap="round" stroke-linejoin="round" stroke-dasharray="1,6" fill="#eee" fill-opacity="0.5" fill-rule="evenodd" d="M536 263L534 259L527 270L526 269L525 271L523 268L518 270L517 273L514 274L519 276L516 282L515 281L515 283L517 283L512 288L514 290L512 294L511 295L511 293L508 296L510 297L510 302L508 302L512 307L512 310L514 312L518 311L522 316L520 319L519 318L520 322L518 326L522 323L524 318L532 321L534 313L532 313L532 311L536 308L542 310L542 295L545 289L544 287L546 281L542 278L542 276L534 272L536 269L535 264z"/><path class="leaflet-interactive" stroke="#333" stroke-opacity="1" stroke-width="1" stroke-linecap="round" stroke-linejoin="round" stroke-dasharray="1,6" fill="#eee" fill-opacity="0.5" fill-rule="evenodd" d="M555 411L557 413L556 414L559 416L557 419L559 419L557 423L558 424L555 426L558 433L558 431L561 429L562 432L568 431L568 433L572 435L575 431L578 433L578 428L583 421L582 420L585 413L590 411L590 407L593 404L592 401L588 401L586 403L584 401L589 398L589 396L592 394L592 392L588 390L588 382L579 386L579 388L580 387L576 394L572 397L569 402L565 401L555 409z"/><path class="leaflet-interactive" stroke="#333" stroke-opacity="1" stroke-width="1" stroke-linecap="round" stroke-linejoin="round" stroke-dasharray="1,6" fill="#eee" fill-opacity="0.5" fill-rule="evenodd" d="M588 382L593 370L587 365L586 362L583 360L582 361L580 358L582 354L577 344L575 345L575 347L567 350L567 352L570 353L565 360L563 366L558 364L555 368L553 367L553 365L549 368L544 363L540 367L538 367L537 369L536 368L535 370L532 370L528 374L531 378L531 386L533 388L530 396L531 398L539 401L545 398L549 400L547 404L548 407L545 408L548 417L546 417L545 420L548 423L552 422L551 419L553 418L553 416L550 413L553 412L554 410L555 411L555 409L561 403L565 401L569 402L572 397L576 394L576 392L580 388L579 387L586 382z"/><path class="leaflet-interactive" stroke="#333" stroke-opacity="1" stroke-width="1" stroke-linecap="round" stroke-linejoin="round" stroke-dasharray="1,6" fill="#eee" fill-opacity="0.5" fill-rule="evenodd" d="M528 374L545 362L544 358L546 353L544 350L544 343L547 341L545 337L541 336L541 334L544 333L540 327L542 323L540 320L537 319L537 317L535 316L536 314L534 312L532 320L529 321L524 318L522 323L519 325L520 328L513 329L513 333L509 336L509 342L507 347L509 357L508 356L505 360L502 360L501 368L499 371L497 371L496 375L500 376L501 373L503 373L504 371L510 371L513 367L518 370L521 368L524 371L527 367L528 373z"/></g></svg>