<svg xmlns="http://www.w3.org/2000/svg" pointer-events="none" class="leaflet-zoom-animated" width="1060" height="563" viewBox="-88 -47 1060 563" style="transform: translate3d(-88px, -47px, 0px);"><g><path class="leaflet-interactive" stroke="black" stroke-opacity="1" stroke-width="2" stroke-linecap="round" stroke-linejoin="round" fill="#fff" fill-opacity="0.2" fill-rule="evenodd" d="M557 337L555 334L557 331L555 331L556 330L551 327L551 320L556 309L555 306L562 293L563 288L558 269L560 251L556 247L558 246L556 244L556 234L558 234L557 233L561 230L565 223L566 220L564 220L564 218L568 216L569 211L569 207L566 205L568 205L567 203L560 195L560 186L562 185L563 181L565 181L566 179L568 179L570 175L572 175L572 168L576 160L575 154L579 152L584 140L582 140L581 137L579 138L579 136L577 135L581 130L580 128L572 131L570 136L564 142L560 137L558 137L556 140L550 134L548 134L550 138L549 142L544 144L542 144L540 141L539 142L542 145L540 147L541 148L539 147L533 154L531 159L529 161L526 161L522 165L523 168L520 168L513 176L510 183L510 187L514 193L511 195L511 197L509 197L508 193L505 192L506 194L504 207L499 208L496 206L493 208L480 208L479 203L469 198L468 202L463 203L463 206L460 206L461 207L459 210L457 210L459 212L456 215L455 221L458 227L458 229L456 229L456 237L474 243L478 248L480 248L479 249L481 251L482 250L484 252L486 249L486 252L490 252L494 257L496 257L496 255L500 259L502 270L500 277L498 276L495 279L496 288L499 292L500 297L499 301L496 303L486 302L481 304L470 302L470 309L474 314L468 317L465 315L464 317L458 316L454 319L447 311L433 310L430 315L433 323L429 326L429 328L428 327L425 330L426 333L429 332L434 335L435 338L438 339L437 343L431 343L433 344L434 347L433 349L431 349L430 354L428 356L431 359L430 364L434 369L432 372L430 372L429 369L427 368L422 370L419 370L420 369L419 370L417 368L413 369L409 374L410 376L405 377L407 381L410 383L412 382L414 384L414 386L413 384L411 386L413 387L412 392L404 396L399 395L400 400L402 403L407 400L408 401L409 398L410 399L416 397L420 403L426 404L428 406L438 402L446 402L450 404L451 411L456 414L456 412L459 409L464 415L468 414L475 422L479 424L480 421L484 421L487 419L489 421L496 420L496 422L501 426L517 434L522 441L529 440L531 439L530 433L532 431L530 429L531 422L527 418L527 415L532 409L531 408L540 407L543 409L547 406L550 406L549 400L548 401L547 398L544 396L536 395L537 389L526 386L528 382L530 383L532 381L535 383L538 382L543 384L549 383L551 385L559 385L561 382L563 386L565 385L566 388L571 383L573 384L577 379L576 369L570 365L569 361L562 357L564 357L565 355L562 351L564 347L558 344L558 337zM577 373L577 374zM417 401L417 401z"/><path class="leaflet-interactive" stroke="#333" stroke-opacity="1" stroke-width="1" stroke-linecap="round" stroke-linejoin="round" stroke-dasharray="1,6" fill="#eee" fill-opacity="0.5" fill-rule="evenodd" d="M536 345L534 343L528 343L526 341L526 337L524 335L526 331L525 324L523 324L522 326L518 326L516 330L510 331L511 336L503 341L501 344L480 344L480 347L477 351L478 354L473 353L470 356L468 362L474 365L476 363L487 364L490 361L498 362L500 359L506 360L513 356L515 358L528 359L531 355L529 354L530 350L535 349L537 347L535 346zM517 360L516 361z"/><path class="leaflet-interactive" stroke="#333" stroke-opacity="1" stroke-width="1" stroke-linecap="round" stroke-linejoin="round" stroke-dasharray="1,6" fill="#eee" fill-opacity="0.5" fill-rule="evenodd" d="M507 300L503 302L500 307L501 309L498 310L501 319L503 319L506 322L509 320L510 321L510 319L513 318L516 314L517 315L521 310L525 310L526 308L524 308L520 304L526 300L527 296L524 293L520 293L518 291L513 292L508 300z"/><path class="leaflet-interactive" stroke="#333" stroke-opacity="1" stroke-width="1" stroke-linecap="round" stroke-linejoin="round" stroke-dasharray="1,6" fill="#eee" fill-opacity="0.5" fill-rule="evenodd" d="M480 344L478 342L478 340L481 340L478 319L476 320L472 315L468 317L465 315L464 317L458 316L454 319L447 311L432 311L430 315L433 323L429 326L429 328L428 327L425 330L426 333L429 332L434 335L435 338L438 339L437 343L431 343L433 344L434 347L433 349L431 349L430 354L428 356L431 359L430 364L434 369L436 367L435 366L441 364L441 360L443 358L446 361L448 361L449 358L451 362L452 361L454 363L457 360L457 364L461 367L465 364L468 365L470 356L473 353L478 354L477 351L480 345z"/><path class="leaflet-interactive" stroke="#333" stroke-opacity="1" stroke-width="1" stroke-linecap="round" stroke-linejoin="round" stroke-dasharray="1,6" fill="#eee" fill-opacity="0.5" fill-rule="evenodd" d="M473 315L476 320L478 319L480 325L479 334L481 340L479 340L478 342L480 344L493 345L501 343L510 336L510 331L515 330L517 327L517 325L513 326L511 321L509 320L506 322L503 319L501 319L498 310L501 309L500 306L507 300L500 293L499 301L496 303L486 302L476 304L470 302L470 309L475 314z"/><path class="leaflet-interactive" stroke="#333" stroke-opacity="1" stroke-width="1" stroke-linecap="round" stroke-linejoin="round" stroke-dasharray="1,6" fill="#eee" fill-opacity="0.5" fill-rule="evenodd" d="M557 337L555 334L557 331L555 331L556 330L551 327L551 320L556 309L555 306L563 290L562 282L560 280L548 287L553 292L551 292L551 294L546 298L540 298L538 296L535 298L529 296L527 300L520 304L524 308L525 307L526 310L520 310L520 312L514 316L515 317L510 319L513 326L522 326L525 324L526 331L524 335L528 343L533 343L536 345L535 344L537 344L538 342L541 344L542 343L542 345L545 340L544 339L547 336L553 338L556 337z"/><path class="leaflet-interactive" stroke="#333" stroke-opacity="1" stroke-width="1" stroke-linecap="round" stroke-linejoin="round" stroke-dasharray="1,6" fill="#fff" fill-opacity="0" fill-rule="evenodd" d="M561 280L558 269L560 251L556 247L558 246L556 244L557 235L555 237L555 235L547 235L542 226L544 226L545 224L541 222L537 224L537 220L535 217L530 217L527 214L521 220L515 221L513 223L512 222L509 225L507 224L508 227L505 230L503 230L505 233L504 235L500 233L497 235L495 233L497 233L497 228L494 224L495 223L493 222L493 218L486 221L488 225L485 228L485 226L483 226L482 229L476 231L475 226L473 224L470 228L471 229L469 229L469 234L471 234L469 241L470 242L474 243L478 248L479 247L481 251L482 250L484 252L486 249L486 252L490 252L492 256L496 257L496 255L497 257L499 257L502 270L500 277L498 276L495 279L496 288L501 294L504 295L506 300L508 300L511 297L511 295L517 291L519 293L524 293L527 296L527 300L529 296L534 298L538 296L540 298L546 298L551 292L553 292L548 287L551 285L553 286L560 280z"/><path class="leaflet-interactive" stroke="#333" stroke-opacity="1" stroke-width="1" stroke-linecap="round" stroke-linejoin="round" stroke-dasharray="1,6" fill="#eee" fill-opacity="0.5" fill-rule="evenodd" d="M481 364L465 364L461 367L457 364L457 360L453 363L448 358L448 360L446 361L443 358L441 360L441 364L435 366L436 367L432 372L430 372L429 369L427 368L422 370L415 368L409 374L409 377L405 377L407 381L410 383L412 382L414 384L414 386L413 384L411 386L413 387L412 392L404 396L399 395L400 400L402 403L407 400L408 401L409 398L410 399L416 397L420 403L426 404L428 406L438 402L446 402L450 404L451 411L456 414L456 412L459 409L464 415L468 414L475 422L479 424L480 421L485 420L483 413L488 411L486 407L488 407L487 402L483 400L482 397L484 391L482 389L483 383L481 384L482 383L480 381L484 375L481 371L481 365zM417 401L417 401z"/><path class="leaflet-interactive" stroke="#333" stroke-opacity="1" stroke-width="1" stroke-linecap="round" stroke-linejoin="round" stroke-dasharray="1,6" fill="#fff" fill-opacity="0" fill-rule="evenodd" d="M557 235L556 234L558 234L557 233L561 230L565 223L566 220L564 220L564 218L568 216L569 211L569 207L566 205L568 205L567 203L560 195L560 186L562 185L563 181L565 181L566 179L568 179L570 175L572 175L572 168L576 160L575 154L579 152L584 140L582 140L581 137L579 138L579 136L577 135L581 130L580 128L572 131L570 136L564 142L560 137L558 137L556 140L550 134L548 134L550 138L549 142L544 144L542 144L540 141L539 142L542 145L540 147L541 148L539 147L533 154L531 159L529 161L526 161L522 165L523 168L520 168L513 176L510 183L510 187L514 193L511 195L511 197L509 197L508 193L505 192L506 194L504 207L499 208L496 206L493 208L480 208L479 203L469 198L468 202L463 203L463 206L460 206L461 207L459 210L457 210L459 212L456 215L455 221L458 227L458 229L456 229L456 237L468 242L470 240L469 235L471 235L468 232L470 231L469 229L471 229L470 228L473 224L475 226L476 231L478 231L482 229L483 226L485 226L485 228L488 225L486 221L493 218L493 222L497 227L497 233L495 233L497 235L499 233L503 235L505 234L503 231L508 227L507 224L510 225L513 222L522 220L527 214L534 217L538 222L536 223L537 224L541 222L544 224L544 226L542 226L547 235L550 234L553 236L554 235L555 237L556 236z"/><path class="leaflet-interactive" stroke="#333" stroke-opacity="1" stroke-width="1" stroke-linecap="round" stroke-linejoin="round" stroke-dasharray="1,6" fill="#eee" fill-opacity="0.5" fill-rule="evenodd" d="M525 386L519 384L515 385L513 383L509 387L507 384L501 381L501 379L498 380L498 374L500 372L499 371L502 371L506 368L505 367L507 365L510 364L508 361L506 362L506 360L504 361L504 359L500 359L497 362L491 361L487 364L481 364L481 371L484 374L480 381L482 383L481 384L483 383L482 397L483 400L487 402L488 406L485 407L488 410L487 412L483 413L485 419L484 421L487 419L489 421L496 420L496 422L501 426L517 434L522 441L531 439L531 422L527 418L527 415L532 409L531 408L540 407L543 409L547 406L550 406L549 400L548 401L547 398L544 396L536 395L537 389L526 386z"/><path class="leaflet-interactive" stroke="#333" stroke-opacity="1" stroke-width="1" stroke-linecap="round" stroke-linejoin="round" stroke-dasharray="1,6" fill="#eee" fill-opacity="0.5" fill-rule="evenodd" d="M517 360L516 361L517 358L513 356L507 360L506 361L510 363L509 365L507 365L506 367L505 366L506 368L503 371L500 370L498 374L498 379L505 382L509 387L513 383L515 385L518 384L525 386L528 382L530 383L532 381L535 383L538 382L543 384L549 383L551 385L559 385L561 382L563 386L565 385L566 388L571 383L573 384L577 379L576 369L570 365L569 361L562 357L564 357L565 355L562 351L564 347L558 344L558 337L553 338L547 336L544 339L544 344L542 345L542 343L541 344L539 342L535 344L535 346L537 347L535 349L529 351L529 354L531 355L528 359L518 358zM517 360L518 358L517 360zM577 373L577 374z"/></g></svg>