<svg xmlns="http://www.w3.org/2000/svg" pointer-events="none" class="leaflet-zoom-animated" width="1060" height="563" viewBox="-88 -47 1060 563" style="transform: translate3d(-88px, -47px, 0px);"><g><path class="leaflet-interactive" stroke="black" stroke-opacity="1" stroke-width="2" stroke-linecap="round" stroke-linejoin="round" fill="#fff" fill-opacity="0.2" fill-rule="evenodd" d="M693 221L698 219L690 211L680 204L681 201L678 199L679 198L677 195L671 198L670 196L666 195L665 191L659 189L657 192L651 190L644 183L642 184L642 176L641 178L636 173L627 173L627 171L626 172L622 168L621 169L618 164L614 163L613 165L618 171L618 175L615 172L602 166L594 158L594 156L583 147L583 144L580 144L573 139L570 143L568 143L568 145L563 145L561 141L557 142L558 143L555 149L551 151L527 136L515 134L517 137L515 139L514 146L516 148L516 155L518 159L515 161L511 159L509 163L505 164L507 165L504 169L505 174L497 172L493 178L491 178L482 174L481 172L479 172L478 169L474 167L468 172L460 171L456 167L452 166L437 169L432 152L416 154L412 152L412 150L416 150L416 148L412 146L393 146L394 141L391 135L389 137L384 136L379 138L371 138L368 143L362 143L349 148L337 150L333 153L326 155L317 157L312 156L312 158L304 164L298 163L295 164L294 166L297 168L295 170L300 174L302 174L303 171L308 171L308 195L315 197L319 201L319 203L327 207L327 211L329 213L329 216L332 218L333 224L329 223L327 224L327 226L319 228L314 232L314 240L324 244L324 251L326 253L325 254L327 260L326 261L322 260L318 264L312 259L302 259L295 256L296 255L292 253L289 262L282 261L278 263L273 263L273 268L278 270L284 270L283 280L281 283L283 285L281 288L280 287L276 289L276 293L273 295L276 299L278 299L277 307L279 309L282 307L286 309L285 314L283 314L282 317L285 322L284 328L287 330L285 332L285 336L280 339L281 345L287 350L289 350L288 352L291 355L290 358L294 361L294 363L299 365L304 372L306 371L311 375L320 378L325 377L327 379L328 377L332 376L338 379L339 377L348 384L349 383L354 388L360 386L362 387L363 392L376 392L377 390L384 393L387 392L390 396L395 394L398 397L397 398L400 400L401 398L404 402L408 398L411 398L414 399L415 402L418 401L420 403L424 403L426 400L432 400L432 398L437 397L439 394L444 398L444 400L449 402L449 404L457 404L460 406L454 408L455 410L459 408L462 414L466 414L466 419L464 421L465 425L469 430L473 428L477 429L478 431L481 427L483 427L489 432L490 435L492 433L490 423L497 423L498 427L502 431L506 430L507 432L509 432L511 430L508 425L510 425L507 419L512 421L515 419L515 417L522 419L524 417L523 416L526 417L525 410L526 408L530 408L529 403L527 403L529 401L527 400L527 398L528 399L531 397L531 399L533 400L540 400L530 393L528 388L529 387L527 385L533 382L532 381L534 380L532 375L540 366L538 364L534 364L533 359L529 357L530 353L528 350L529 347L536 346L539 340L538 338L543 335L547 335L550 338L556 340L561 340L563 343L561 348L570 357L568 357L572 362L572 366L574 368L573 371L575 372L574 373L577 377L587 381L590 386L593 385L598 387L600 390L604 392L606 386L605 385L606 383L608 384L610 380L611 384L613 384L617 388L617 396L619 396L621 392L626 391L625 392L634 400L634 397L636 395L635 394L643 397L647 394L651 394L653 388L649 385L649 382L651 382L649 374L651 371L655 372L657 375L661 373L665 378L669 371L666 369L666 367L670 363L670 361L665 363L665 359L662 355L657 357L650 356L651 351L644 346L639 337L637 336L639 331L642 328L645 328L646 330L651 330L655 333L663 335L668 340L673 337L676 339L679 332L685 329L682 323L676 322L674 317L674 309L679 308L680 304L686 302L687 299L690 297L686 292L687 287L692 287L691 286L694 281L696 283L701 284L701 282L703 282L699 273L702 270L708 270L708 263L705 261L710 256L712 256L706 251L704 251L704 248L702 246L703 244L701 243L702 241L696 236L699 233L700 234L692 225L693 222zM704 251L704 250z"/><path class="leaflet-interactive" stroke="#333" stroke-opacity="1" stroke-width="1" stroke-linecap="round" stroke-linejoin="round" stroke-dasharray="1,6" fill="#eee" fill-opacity="0.5" fill-rule="evenodd" d="M642 235L645 239L645 243L651 249L651 251L655 252L657 249L659 249L664 251L664 253L666 254L671 253L674 241L670 237L670 232L674 218L661 211L655 209L648 209L643 205L641 208L642 213L650 217L654 222L655 227L646 233L642 233z"/><path class="leaflet-interactive" stroke="#333" stroke-opacity="1" stroke-width="1" stroke-linecap="round" stroke-linejoin="round" stroke-dasharray="1,6" fill="#eee" fill-opacity="0.5" fill-rule="evenodd" d="M692 286L694 281L696 283L701 284L701 282L703 282L699 273L702 270L708 270L708 263L705 261L710 256L712 256L706 251L704 251L704 248L702 246L703 244L701 243L702 241L696 236L699 233L700 234L692 225L693 222L690 220L682 222L674 218L670 235L670 237L674 241L674 245L672 247L673 249L671 253L669 252L666 255L666 258L670 258L671 260L672 259L680 266L678 267L681 268L680 272L683 275L682 276L684 276L684 278L691 283L690 286zM704 251L704 250z"/><path class="leaflet-interactive" stroke="#333" stroke-opacity="1" stroke-width="1" stroke-linecap="round" stroke-linejoin="round" stroke-dasharray="1,6" fill="#eee" fill-opacity="0.5" fill-rule="evenodd" d="M674 218L681 222L690 220L693 221L698 219L690 211L680 204L681 201L678 199L679 198L677 195L671 198L670 196L666 195L665 191L659 189L657 192L651 190L644 183L642 184L642 176L641 178L636 173L627 173L627 171L626 172L622 168L621 169L618 164L614 163L613 165L618 171L618 175L615 172L602 166L594 158L594 156L583 147L583 144L580 144L573 139L570 143L568 143L568 145L563 145L561 141L557 142L558 143L555 149L551 151L554 156L570 162L572 164L577 164L580 168L578 169L579 173L585 173L588 170L592 174L595 173L599 175L599 179L603 181L599 183L593 183L592 185L597 190L602 191L601 194L603 197L600 200L598 200L598 202L595 205L596 208L594 209L594 217L604 224L636 234L642 234L642 232L646 233L655 227L649 216L645 214L644 215L642 213L641 208L643 206L649 209L661 211L668 215L669 214L674 218z"/><path class="leaflet-interactive" stroke="#333" stroke-opacity="1" stroke-width="1" stroke-linecap="round" stroke-linejoin="round" stroke-dasharray="1,6" fill="#eee" fill-opacity="0.5" fill-rule="evenodd" d="M643 328L663 335L668 340L673 337L676 339L679 332L685 329L683 324L680 322L676 322L674 317L674 309L679 308L681 303L678 298L679 297L677 292L675 291L670 295L659 294L658 297L656 297L658 291L654 289L635 287L636 290L642 292L635 299L635 301L644 307L649 308L647 317L641 318L644 323L644 326zM663 294L669 295L673 294L673 292L675 291L677 292L679 300L681 303L683 303L686 302L687 299L690 297L686 292L687 287L692 287L690 286L691 283L684 278L684 276L682 277L683 275L681 275L682 274L680 273L681 269L678 267L680 266L678 266L672 259L671 260L669 258L666 258L665 260L667 268L669 268L666 272L670 274L670 276L666 283L663 285L658 284L660 288L658 293L662 291L662 293z"/><path class="leaflet-interactive" stroke="#333" stroke-opacity="1" stroke-width="1" stroke-linecap="round" stroke-linejoin="round" stroke-dasharray="1,6" fill="#eee" fill-opacity="0.5" fill-rule="evenodd" d="M642 235L641 233L637 234L608 226L594 217L592 217L592 219L589 221L587 226L593 232L595 237L591 240L578 245L578 247L583 251L582 255L578 258L583 264L585 270L584 272L587 274L586 280L591 283L587 285L590 286L591 288L586 292L596 305L602 306L607 311L614 311L616 310L616 308L622 307L624 311L628 311L632 316L633 314L636 317L640 315L641 317L647 317L648 312L650 310L649 308L644 307L636 301L635 299L642 292L636 290L635 287L650 288L659 291L660 288L657 284L662 285L666 283L668 278L670 277L670 274L666 273L669 268L667 268L666 265L666 254L659 249L657 249L654 252L651 251L651 249L649 249L645 243L645 239L642 235zM658 293L656 293L656 296L658 297L658 295L662 294L663 292L658 292z"/><path class="leaflet-interactive" stroke="#333" stroke-opacity="1" stroke-width="1" stroke-linecap="round" stroke-linejoin="round" stroke-dasharray="1,6" fill="#eee" fill-opacity="0.5" fill-rule="evenodd" d="M538 338L543 335L547 335L550 338L556 340L560 339L563 343L561 348L570 357L568 357L572 362L572 366L574 368L573 371L575 372L574 373L576 376L587 381L590 386L593 385L598 387L600 390L604 392L606 386L605 385L606 383L608 384L610 380L611 384L613 384L617 388L617 396L619 396L621 392L626 391L625 392L634 400L634 397L636 395L635 394L643 397L647 394L651 394L653 388L649 385L649 382L651 382L649 374L651 371L655 372L657 375L661 373L665 378L669 371L666 369L666 367L670 363L670 361L665 363L665 359L662 355L657 357L650 356L651 351L644 346L639 337L637 336L639 331L644 326L644 322L642 321L641 315L635 317L633 314L632 316L632 314L629 313L628 311L624 311L622 307L616 308L615 311L608 311L596 305L586 293L589 289L591 289L587 285L591 283L586 279L584 281L573 280L573 283L564 286L558 286L558 284L555 286L556 287L554 291L549 293L537 289L535 294L527 292L528 295L525 298L523 304L516 308L517 309L514 312L516 315L517 313L520 315L519 317L523 319L521 323L527 325L526 327L534 336L536 334L537 337z"/><path class="leaflet-interactive" stroke="#333" stroke-opacity="1" stroke-width="1" stroke-linecap="round" stroke-linejoin="round" stroke-dasharray="1,6" fill="#eee" fill-opacity="0.5" fill-rule="evenodd" d="M373 392L376 392L377 390L384 393L387 392L390 396L395 394L398 397L397 398L400 400L401 398L404 402L408 398L411 398L414 399L415 402L418 401L420 403L424 403L426 400L432 400L432 398L437 397L439 394L444 398L444 400L449 402L449 404L457 404L460 406L454 408L455 410L459 408L462 414L466 414L466 419L464 421L465 425L469 430L473 428L477 429L478 431L481 427L483 427L489 432L490 435L492 433L490 423L492 422L497 423L498 427L502 431L506 430L507 432L509 432L511 430L508 425L510 425L507 419L512 421L515 419L515 417L522 419L524 417L523 416L526 417L525 410L526 408L530 408L529 403L527 403L529 401L527 400L527 398L528 399L531 397L531 399L533 400L540 400L530 393L528 388L529 387L527 385L533 382L532 381L534 380L532 375L540 366L538 364L534 364L533 359L529 357L530 353L528 350L529 347L536 346L539 340L536 335L533 335L529 331L526 327L526 324L521 323L523 319L518 317L521 315L517 313L516 314L514 312L517 309L516 308L523 304L525 298L528 295L527 292L520 290L516 285L514 286L514 284L509 284L506 281L495 278L488 278L484 283L482 279L481 280L476 278L467 278L467 280L465 280L457 278L455 284L455 282L451 281L439 281L425 277L424 279L422 279L412 274L393 273L388 270L387 271L371 269L352 264L346 264L341 261L341 258L336 262L327 258L326 261L322 260L318 264L312 259L302 259L295 256L296 255L292 253L289 262L282 261L278 263L273 263L273 268L278 270L284 270L283 280L281 283L283 285L281 288L280 287L276 289L276 293L273 295L276 299L278 299L277 307L279 309L282 307L288 309L292 307L295 309L298 306L305 306L316 308L323 314L325 312L333 312L348 319L354 320L353 323L357 326L363 328L372 327L379 340L385 339L378 345L380 348L379 349L382 359L381 360L383 361L382 363L378 363L375 367L375 371L378 372L377 376L379 379L376 386L374 387L374 391z"/><path class="leaflet-interactive" stroke="#333" stroke-opacity="1" stroke-width="1" stroke-linecap="round" stroke-linejoin="round" stroke-dasharray="1,6" fill="#fff" fill-opacity="0" fill-rule="evenodd" d="M551 151L527 136L515 134L517 137L515 139L514 146L516 148L516 155L518 159L515 161L511 159L509 163L505 164L507 165L504 169L505 174L497 172L493 178L491 178L482 174L481 172L479 172L478 169L474 167L468 172L460 171L456 167L452 166L437 169L432 152L416 154L412 152L412 150L416 150L416 148L412 146L393 146L394 141L391 135L389 137L384 136L379 138L371 138L368 143L362 143L349 148L337 150L333 153L326 155L317 157L312 156L312 158L304 164L298 163L295 164L294 166L297 168L295 170L300 174L302 174L303 171L308 171L308 195L315 197L319 201L319 203L325 205L327 207L329 216L332 218L333 224L329 223L327 224L327 226L319 228L314 232L314 240L324 244L326 258L336 262L341 258L341 261L346 264L352 263L356 266L364 268L387 271L388 270L393 273L412 274L422 279L424 279L425 277L432 280L446 280L455 282L455 284L457 278L464 280L466 280L467 278L476 278L481 280L482 279L484 283L488 279L498 279L507 281L513 285L514 284L514 286L517 286L522 291L531 292L535 294L536 289L549 293L553 291L557 284L560 286L568 286L569 284L573 283L574 280L584 281L586 279L587 275L583 264L578 258L580 258L583 252L578 245L591 240L595 237L593 232L586 226L588 225L592 217L595 218L595 205L598 200L600 200L603 197L603 195L601 194L602 191L596 190L592 185L593 183L599 183L603 181L599 179L600 177L597 174L592 174L588 170L585 173L579 173L578 169L580 166L560 159L554 156L552 153zM373 392L379 380L377 376L378 372L375 371L375 367L378 363L379 364L383 362L379 350L380 348L378 345L385 339L378 340L372 327L363 328L353 324L354 321L333 312L326 312L323 314L320 310L316 308L302 306L299 306L296 309L292 307L289 309L285 308L286 311L285 314L282 315L282 317L285 322L284 328L287 330L285 332L285 336L281 338L280 341L281 345L287 350L289 350L288 352L291 355L290 358L294 361L294 363L299 365L304 372L306 371L313 376L320 378L325 377L327 379L328 377L332 376L338 379L339 377L348 384L349 383L354 388L360 386L363 388L363 392L372 392z"/></g></svg>