<svg xmlns="http://www.w3.org/2000/svg" pointer-events="none" class="leaflet-zoom-animated" width="1060" height="563" viewBox="-88 -47 1060 563" style="transform: translate3d(-88px, -47px, 0px) scale(1);"><g><path class="leaflet-interactive" stroke="black" stroke-opacity="1" stroke-width="2" stroke-linecap="round" stroke-linejoin="round" fill="#fff" fill-opacity="0.2" fill-rule="evenodd" d="M452 157L448 161L444 159L436 161L433 165L433 169L430 171L414 168L408 169L411 176L406 181L406 186L402 186L398 180L388 178L385 187L377 194L371 205L356 212L344 230L328 235L319 246L318 248L327 253L330 265L328 271L329 275L345 285L352 285L356 287L358 286L356 282L358 279L366 276L373 276L387 283L401 285L405 289L406 295L404 299L399 303L355 330L351 327L351 325L361 324L364 320L366 314L362 310L345 314L342 311L313 321L312 324L314 326L311 333L313 341L307 349L307 351L297 354L292 362L288 361L284 363L282 367L284 369L289 368L288 372L280 375L280 380L276 381L273 384L273 392L276 397L275 402L279 407L277 413L278 414L285 412L289 408L293 409L302 404L306 400L307 396L311 394L313 394L314 398L322 405L338 404L342 401L342 395L349 393L354 387L363 386L368 383L374 384L372 391L381 402L385 402L391 398L394 398L405 389L407 384L400 382L399 379L396 380L391 376L392 372L400 369L399 365L392 358L391 353L402 358L408 358L409 355L407 348L409 347L409 342L407 338L411 337L413 328L415 326L421 327L429 324L432 321L431 319L438 307L442 305L449 306L453 308L456 312L469 311L477 313L481 320L489 323L494 328L491 335L486 337L483 341L476 344L475 350L487 369L505 383L508 387L511 385L518 387L522 376L524 376L529 381L533 381L533 388L530 389L530 391L535 395L535 402L541 399L544 412L546 414L552 414L555 411L551 404L552 401L561 396L567 404L581 406L581 402L578 400L575 388L580 386L580 384L576 384L577 382L573 375L578 369L579 361L568 348L571 340L578 333L582 334L584 338L582 344L582 351L585 353L588 360L592 361L595 356L600 354L605 360L610 362L615 358L615 355L612 352L613 347L608 344L616 337L618 337L619 333L612 321L607 322L602 316L601 312L592 309L590 306L587 292L591 292L595 284L591 280L594 259L599 258L603 262L606 262L608 265L612 265L616 264L616 260L621 258L623 261L622 265L634 271L631 281L635 286L636 290L639 294L643 294L646 291L650 303L655 298L653 294L654 291L656 292L658 291L658 289L663 289L670 277L674 280L676 278L676 262L664 251L671 237L675 237L682 244L687 243L686 238L682 233L683 224L677 221L677 219L669 222L662 221L659 216L661 213L661 207L654 203L652 203L652 208L650 211L647 212L648 220L646 222L644 220L641 220L639 207L645 203L641 189L639 189L636 192L636 197L634 200L632 200L632 193L627 194L626 188L619 190L612 197L608 205L603 205L601 209L599 208L593 214L589 222L566 221L563 223L562 227L549 229L535 218L538 209L542 210L542 214L547 215L554 214L561 210L562 207L560 205L556 207L556 209L553 212L550 211L549 208L551 208L543 204L546 198L554 199L558 197L567 208L568 213L572 214L581 208L585 202L616 187L617 183L618 184L621 182L628 174L637 167L634 163L612 173L604 166L599 166L599 164L593 164L596 157L599 154L595 154L596 151L591 149L589 152L583 151L586 145L583 144L583 142L581 140L580 141L578 138L581 134L572 135L569 133L566 135L560 145L557 146L556 149L554 150L552 148L550 151L543 152L544 147L546 147L551 140L557 139L550 129L546 130L543 128L535 128L530 130L522 130L519 126L511 126L508 124L500 133L501 136L499 140L487 140L480 143L473 150L471 149L470 144L469 146L461 146L457 144L453 148L448 149L453 154L453 156zM414 402L412 399L417 396L415 394L417 392L416 391L411 392L409 394L410 395L407 399L412 402L410 405L403 409L407 411L406 412L410 411L413 407L417 409L421 405L419 402L416 403zM609 170L614 166L616 167L621 164L625 160L621 158L621 154L616 152L615 153L616 160L611 165L611 163L605 163L608 169zM491 396L489 392L486 394L484 393L483 388L479 386L481 380L480 378L477 377L468 382L471 388L464 394L465 400L470 401L475 397L475 394L477 395L478 398L477 404L479 408L478 415L477 417L474 418L475 425L480 425L483 427L486 424L489 427L492 427L490 419L492 419L498 425L501 424L496 411L501 406L507 406L508 403L507 401L500 399L496 402L490 402L485 406L484 403L491 397zM612 148L614 145L608 142L608 139L605 137L607 135L613 138L614 136L616 136L615 135L617 136L622 134L618 132L605 132L605 130L603 129L600 131L603 135L599 136L605 142L604 141L600 143L599 146L605 147L609 144L609 147L612 148zM384 418L387 416L387 414L385 414L385 410L381 408L378 414L383 418zM330 427L331 425L333 425L332 423L328 423L324 419L322 421L322 425L323 426L326 424L329 427zM603 364L601 366L596 367L594 373L600 377L600 380L602 380L602 377L607 376L606 373L608 371L606 367L608 366L606 364L607 363L603 364zM626 298L630 290L630 286L624 283L623 280L625 279L622 274L622 269L618 267L611 267L609 268L609 271L612 273L610 277L613 278L613 286L611 288L611 291L614 295L618 297L624 297zM575 431L573 438L576 437L574 440L578 440L576 444L577 445L582 442L584 438L591 439L589 434L589 428L585 424L583 424L582 427L579 427L576 430zM320 444L322 442L328 441L328 436L331 435L329 433L326 433L324 435L326 436L325 437L317 440L320 443zM418 363L412 363L410 365L411 367L414 367L417 370L419 370L420 375L423 377L426 373L423 369L424 365L420 363zM653 317L657 323L656 324L659 325L660 319L657 315L658 314L654 314L653 316zM604 308L606 313L611 314L609 308L606 305L604 307zM421 347L427 344L425 341L420 341L424 339L425 337L423 336L414 339L417 340L417 343L421 347zM607 289L608 280L605 276L607 272L605 271L602 273L600 277L606 289zM629 311L632 308L632 304L628 298L622 298L620 301L622 303L623 308L624 310L628 311zM654 201L656 196L658 195L658 191L656 189L657 185L651 184L648 187L648 189L650 190L652 196L651 198L653 201zM318 432L320 431L319 430L317 432zM623 155L625 154L624 143L622 143L622 149L620 149L617 145L615 146L615 150L623 155zM569 426L570 424L576 425L578 423L578 418L569 418L568 426zM525 384L529 382L524 381L524 384zM645 367L648 366L647 361L644 367zM658 308L658 299L654 300L653 302L653 306L657 308zM305 276L307 273L307 269L306 267L301 266L301 268L304 270L304 276zM552 221L553 219L552 220zM645 321L645 318L647 318L649 316L649 313L651 312L650 309L644 312L642 317L644 321zM630 279L631 273L624 270L625 275L627 275L627 273L629 279zM652 176L654 176L654 173L657 170L656 169L650 170L649 173L651 176zM644 360L647 354L646 353L643 356L643 360zM666 309L666 307L662 305L661 308L665 309zM427 364L432 361L431 358L425 360L426 364zM600 425L602 423L601 417L599 417L599 419L597 419L596 421L599 425zM334 446L334 445zM551 204L552 205L553 202L550 203zM621 265L623 262L621 261L620 264zM336 427L336 425L336 427zM710 144L713 141L705 136L704 130L700 131L700 140L707 144zM596 269L597 268L595 266L594 267L596 269zM311 298L311 294L309 294L310 297zM624 310L624 310zM599 273L601 270L598 272zM492 376L494 375L491 375zM594 358L595 357zM588 134L586 130L585 131L587 134zM592 148L593 147L591 145L591 148zM647 353L646 353zM580 138L582 137L581 136L579 138zM600 158L601 157L598 156L599 158zM300 287L299 287zM623 331L622 331zM632 192L632 188L631 191zM678 214L679 213L678 214zM367 308L368 306L366 304L366 308zM433 340L435 340L432 339L433 340zM322 431L322 429L321 430zM657 313L658 314zM581 133L582 132L580 133zM578 216L578 215zM610 274L610 271L610 273zM661 306L661 303L660 305zM472 344L475 343L474 341L472 341L472 344zM526 399L528 397L526 395L524 396L525 398zM613 422L614 418L612 422zM601 147L601 147zM556 148L556 148zM446 345L448 345L449 342L446 341L445 345zM554 405L553 404zM336 428L336 427zM545 152L544 152zM634 304L635 301L633 302L633 304zM659 310L660 309L659 310zM618 330L618 328L617 329zM624 330L623 330zM272 398L273 397L271 395L272 398zM573 440L572 441L574 439zM613 144L615 144L617 141L614 140L613 144zM612 172L612 172zM619 261L619 260zM620 265L620 265zM606 276L606 275zM657 293L657 293zM579 390L580 389L577 388L578 390zM488 391L490 390L489 388L488 391zM330 439L330 439zM603 202L602 202zM601 269L601 267L601 269zM676 281L676 279L676 281zM600 282L600 280L599 281zM659 311L660 310L658 310L659 311zM629 313L629 313zM351 398L351 398zM611 424L613 423L612 422L611 424zM577 133L577 132zM632 142L631 139L630 140L632 142zM584 140L584 140zM595 148L594 148zM662 187L661 186zM632 193L633 192L632 193zM627 278L628 277L627 278zM664 300L663 300zM620 351L620 348L618 349L619 351zM644 367L643 367zM602 419L602 418zM629 281L629 281zM584 132L583 132zM589 145L589 145zM589 148L590 147L589 148zM600 153L600 152zM602 166L602 165zM634 189L633 189zM703 201L702 200zM683 224L684 223L683 224zM672 251L673 250L672 251zM598 260L597 260zM660 296L661 295L659 295zM377 304L379 300L378 299L376 304zM375 310L375 309zM658 311L658 310zM623 322L622 322zM618 328L617 328zM476 343L477 342L475 342zM658 357L658 357zM661 358L660 358zM586 143L585 143zM683 226L683 225zM672 250L671 250zM596 263L596 263zM609 268L608 268zM602 272L602 271zM610 275L611 274L610 275zM308 291L310 289L309 288L307 290L308 291zM642 360L642 360zM563 429L564 428L563 429zM323 431L323 430zM647 298L647 297zM598 153L598 153z"/><path class="leaflet-interactive" stroke="#333" stroke-opacity="1" stroke-width="1" stroke-linecap="round" stroke-linejoin="round" stroke-dasharray="1,6" fill="#eee" fill-opacity="0.5" fill-rule="evenodd" d="M513 366L513 338L501 334L492 334L486 337L483 341L476 344L476 353L491 353L499 363L501 368L512 366zM472 344L475 343L474 341L472 341L472 344zM476 343L477 342L475 342z"/><path class="leaflet-interactive" stroke="#333" stroke-opacity="1" stroke-width="1" stroke-linecap="round" stroke-linejoin="round" stroke-dasharray="1,6" fill="#eee" fill-opacity="0.5" fill-rule="evenodd" d="M523 339L520 340L513 338L513 366L536 366L537 359L543 357L545 355L544 353L542 351L538 353L536 352L533 346L530 347L526 344L523 344z"/><path class="leaflet-interactive" stroke="#333" stroke-opacity="1" stroke-width="1" stroke-linecap="round" stroke-linejoin="round" stroke-dasharray="1,6" fill="#eee" fill-opacity="0.5" fill-rule="evenodd" d="M536 366L547 365L551 367L557 367L560 369L567 368L573 375L578 369L579 361L569 350L569 344L544 331L523 339L524 345L525 344L529 347L533 346L537 353L541 353L542 351L544 353L545 355L542 358L537 359L536 363z"/><path class="leaflet-interactive" stroke="#333" stroke-opacity="1" stroke-width="1" stroke-linecap="round" stroke-linejoin="round" stroke-dasharray="1,6" fill="#eee" fill-opacity="0.5" fill-rule="evenodd" d="M476 353L487 369L505 383L508 387L511 385L518 387L522 376L524 376L529 381L533 381L533 388L530 389L530 391L535 395L535 402L541 399L544 412L546 414L552 414L555 411L551 404L552 401L561 396L567 404L581 406L581 402L578 400L575 388L580 386L580 384L576 384L577 382L569 369L560 369L557 367L547 365L538 365L533 367L507 366L501 368L499 363L491 353L486 352L481 354zM525 384L529 382L524 381L524 384zM492 376L494 375L491 375zM526 399L528 397L526 395L524 396L525 398zM554 405L553 404zM579 390L580 389L577 388L578 390z"/><path class="leaflet-interactive" stroke="#333" stroke-opacity="1" stroke-width="1" stroke-linecap="round" stroke-linejoin="round" stroke-dasharray="1,6" fill="#fff" fill-opacity="0" fill-rule="evenodd" d="M500 319L500 334L520 340L530 336L527 328L520 322L518 318L518 310L504 310L500 313z"/><path class="leaflet-interactive" stroke="#333" stroke-opacity="1" stroke-width="1" stroke-linecap="round" stroke-linejoin="round" stroke-dasharray="1,6" fill="#fff" fill-opacity="0" fill-rule="evenodd" d="M500 319L500 313L504 310L517 310L520 306L517 293L502 294L498 296L498 299L487 299L486 303L493 306L483 314L486 320z"/><path class="leaflet-interactive" stroke="#333" stroke-opacity="1" stroke-width="1" stroke-linecap="round" stroke-linejoin="round" stroke-dasharray="1,6" fill="#fff" fill-opacity="0" fill-rule="evenodd" d="M521 292L517 293L517 297L520 304L517 315L520 322L528 329L530 336L544 331L551 335L550 328L542 321L544 318L538 313L538 310L540 308L539 303L533 306L529 304L526 298L523 297L523 294z"/><path class="leaflet-interactive" stroke="#333" stroke-opacity="1" stroke-width="1" stroke-linecap="round" stroke-linejoin="round" stroke-dasharray="1,6" fill="#eee" fill-opacity="0.5" fill-rule="evenodd" d="M539 303L544 303L546 305L556 304L553 293L554 285L542 287L535 286L534 289L522 292L523 297L529 304L531 304L532 306L538 303z"/><path class="leaflet-interactive" stroke="#333" stroke-opacity="1" stroke-width="1" stroke-linecap="round" stroke-linejoin="round" stroke-dasharray="1,6" fill="#eee" fill-opacity="0.5" fill-rule="evenodd" d="M539 303L540 308L538 312L544 318L542 321L550 328L551 335L569 344L569 342L566 340L569 333L571 332L571 330L566 324L569 316L566 315L566 312L565 314L561 313L558 304L547 305L545 303L540 303z"/><path class="leaflet-interactive" stroke="#333" stroke-opacity="1" stroke-width="1" stroke-linecap="round" stroke-linejoin="round" stroke-dasharray="1,6" fill="#eee" fill-opacity="0.5" fill-rule="evenodd" d="M496 270L506 265L508 260L514 258L513 240L499 241L498 238L482 238L481 241L476 242L472 246L465 247L459 253L454 252L443 259L442 258L439 262L439 265L427 265L427 269L419 268L415 270L414 273L420 278L411 285L410 289L406 291L404 299L377 316L431 319L438 307L446 305L444 283L452 279L471 278L471 283L473 283L478 280L481 276L481 273L479 271L488 267L492 267L493 270z"/><path class="leaflet-interactive" stroke="#333" stroke-opacity="1" stroke-width="1" stroke-linecap="round" stroke-linejoin="round" stroke-dasharray="1,6" fill="#eee" fill-opacity="0.5" fill-rule="evenodd" d="M440 261L440 257L433 257L434 250L429 250L429 253L398 253L397 245L393 244L393 238L384 237L380 234L382 231L381 230L367 230L365 228L354 228L348 239L344 234L337 232L330 234L318 248L327 253L330 265L328 271L329 275L345 285L352 285L356 287L358 286L356 282L358 279L366 276L373 276L387 283L401 285L406 291L410 289L412 284L421 278L414 273L415 270L419 268L427 269L427 265L439 265L439 262zM305 276L307 273L307 269L306 267L301 266L301 268L304 270L304 276zM311 298L311 294L309 294L310 297zM300 287L299 287zM367 308L368 306L366 304L366 308zM377 304L379 300L378 299L376 304zM375 310L375 309zM308 291L310 289L309 288L307 290L308 291z"/><path class="leaflet-interactive" stroke="#333" stroke-opacity="1" stroke-width="1" stroke-linecap="round" stroke-linejoin="round" stroke-dasharray="1,6" fill="#eee" fill-opacity="0.5" fill-rule="evenodd" d="M481 239L481 235L474 229L471 222L475 212L481 203L476 201L474 198L455 203L454 202L456 184L453 179L454 174L452 171L454 165L452 157L448 161L444 159L436 161L433 165L433 169L430 171L414 168L408 169L411 176L406 181L406 186L402 186L398 180L388 178L385 187L377 194L371 205L356 212L347 227L344 230L337 232L344 234L347 239L355 228L364 228L367 230L377 231L381 230L381 235L384 237L393 238L393 244L397 244L398 253L429 253L429 250L434 250L433 257L440 257L440 261L442 258L443 259L453 252L459 253L466 246L472 246L476 242L481 240z"/><path class="leaflet-interactive" stroke="#333" stroke-opacity="1" stroke-width="1" stroke-linecap="round" stroke-linejoin="round" stroke-dasharray="1,6" fill="#eee" fill-opacity="0.5" fill-rule="evenodd" d="M636 165L634 163L612 173L604 166L599 166L599 164L593 164L596 157L599 154L595 154L596 151L591 149L589 152L583 151L586 145L583 144L583 142L581 140L580 141L578 138L581 134L572 135L569 133L566 135L560 145L557 146L556 149L554 150L552 148L550 151L543 152L544 147L546 147L551 140L557 139L550 129L546 130L543 128L535 128L530 130L522 130L519 126L511 126L508 124L500 133L501 136L497 141L493 139L487 140L480 143L473 150L471 149L470 144L469 146L461 146L457 144L453 148L448 149L453 154L452 157L454 167L452 171L454 173L453 179L456 183L454 202L455 203L472 198L481 203L498 193L499 188L504 188L505 191L509 191L512 185L518 181L545 183L548 185L554 175L562 166L574 176L585 174L599 174L610 180L620 176L625 171L630 169zM609 170L614 166L616 167L621 164L625 160L621 158L621 154L616 152L615 153L616 160L611 165L611 163L605 163L608 169zM612 148L614 145L608 142L608 139L605 137L607 135L613 138L614 136L616 136L615 135L617 136L622 134L618 132L605 132L605 130L603 129L600 131L603 135L599 136L605 142L604 141L600 143L599 146L605 147L609 144L609 147L612 148zM623 155L625 154L624 143L622 143L622 149L620 149L617 145L615 146L615 150L623 155zM588 134L586 130L585 131L587 134zM592 148L593 147L591 145L591 148zM580 138L582 137L581 136L579 138zM600 158L601 157L598 156L599 158zM581 133L582 132L580 133zM601 147L601 147zM556 148L556 148zM545 152L544 152zM613 144L615 144L617 141L614 140L613 144zM612 172L612 172zM577 133L577 132zM632 142L631 139L630 140L632 142zM584 140L584 140zM595 148L594 148zM584 132L583 132zM589 145L589 145zM589 148L590 147L589 148zM600 153L600 152zM602 166L602 165zM586 143L585 143zM598 153L598 153z"/><path class="leaflet-interactive" stroke="#333" stroke-opacity="1" stroke-width="1" stroke-linecap="round" stroke-linejoin="round" stroke-dasharray="1,6" fill="#eee" fill-opacity="0.5" fill-rule="evenodd" d="M636 165L629 170L625 171L620 176L611 180L599 174L585 174L574 176L567 169L561 166L548 184L518 181L512 185L509 191L505 191L504 188L499 188L498 193L482 203L475 212L471 222L474 229L481 235L481 239L490 237L497 238L499 241L510 241L516 240L519 237L535 235L538 229L543 225L535 218L538 209L542 210L542 214L547 215L558 212L561 210L562 207L560 205L556 207L556 209L553 212L550 211L549 208L551 208L543 204L546 198L554 199L558 197L567 208L568 213L572 214L581 208L585 202L616 187L617 183L618 184L621 182L637 166zM573 222L574 228L572 232L572 246L575 250L575 255L577 259L576 263L581 259L590 258L593 253L597 254L600 249L600 242L602 240L611 239L611 234L613 231L620 232L631 239L634 239L638 236L645 242L651 245L654 244L658 235L658 224L656 218L660 217L659 216L661 213L661 207L652 203L652 208L650 211L647 212L648 220L646 222L644 220L641 220L639 207L645 203L641 189L639 189L636 192L636 197L634 200L632 200L632 193L627 194L627 190L626 188L624 188L619 190L612 197L608 205L603 205L601 209L599 208L593 214L589 222L575 222zM654 201L656 196L658 195L658 191L656 189L657 185L651 184L648 187L648 189L650 190L652 196L651 198L653 201zM552 221L553 219L552 220zM652 176L654 176L654 173L657 170L656 169L650 170L649 173L651 176zM551 204L552 205L553 202L550 203zM710 144L713 141L705 136L704 130L700 131L700 140L707 144zM632 192L632 188L631 191zM578 216L578 215zM603 202L602 202zM662 187L661 186zM632 193L633 192L632 193zM634 189L633 189zM703 201L702 200z"/><path class="leaflet-interactive" stroke="#333" stroke-opacity="1" stroke-width="1" stroke-linecap="round" stroke-linejoin="round" stroke-dasharray="1,6" fill="#fff" fill-opacity="0" fill-rule="evenodd" d="M660 217L656 218L658 223L658 235L654 244L651 245L638 236L632 239L627 237L623 233L613 231L611 233L612 238L610 240L603 240L600 242L600 249L597 254L594 253L591 258L580 260L576 263L577 266L571 268L568 274L563 279L554 282L553 293L555 302L556 304L558 304L561 312L564 314L565 312L566 315L569 316L566 323L571 332L569 332L566 340L569 343L578 333L582 334L584 338L582 344L582 351L585 353L588 360L592 361L594 357L598 354L600 354L608 362L615 358L615 355L612 352L613 347L608 344L616 337L618 337L619 333L612 321L607 322L602 316L601 312L592 309L590 306L587 292L591 292L595 284L591 280L594 259L599 258L603 262L606 262L608 265L612 265L616 264L616 260L621 258L623 261L622 265L634 271L631 281L635 286L636 290L639 294L643 294L646 291L649 302L652 302L655 298L653 292L658 291L658 289L663 289L670 277L674 280L676 278L676 262L664 251L668 244L668 241L671 237L675 237L680 243L687 243L686 238L682 233L682 223L677 221L677 219L669 222L661 220zM603 364L601 366L596 367L594 373L600 377L600 380L602 380L602 377L607 376L606 373L608 371L606 367L608 366L606 364L607 363L603 364zM626 298L630 290L630 286L624 283L623 280L625 279L622 274L622 269L618 267L611 267L609 268L609 271L612 273L610 277L613 278L613 286L611 288L611 291L614 295L618 297L624 297zM653 317L657 323L656 324L659 325L660 319L657 315L658 314L654 314L653 316zM604 308L606 313L611 314L609 308L606 305L604 307zM607 289L608 280L605 276L607 272L605 271L602 273L600 277L606 289zM629 311L632 308L632 304L628 298L622 298L620 301L622 303L623 308L624 310L628 311zM645 367L648 366L647 361L644 367zM658 308L658 299L654 300L653 302L653 306L657 308zM645 321L645 318L647 318L649 316L649 313L651 312L650 309L644 312L642 317L644 321zM630 279L631 273L624 270L625 275L627 275L627 273L629 279zM644 360L647 354L646 353L643 356L643 360zM666 309L666 307L662 305L661 308L665 309zM621 265L623 262L621 261L620 264zM596 269L597 268L595 266L594 267L596 269zM624 310L624 310zM599 273L601 270L598 272zM594 358L595 357zM647 353L646 353zM623 331L622 331zM678 214L679 213L678 214zM657 313L658 314zM610 274L610 271L610 273zM661 306L661 303L660 305zM634 304L635 301L633 302L633 304zM659 310L660 309L659 310zM618 330L618 328L617 329zM624 330L623 330zM619 261L619 260zM620 265L620 265zM606 276L606 275zM657 293L657 293zM601 269L601 267L601 269zM676 281L676 279L676 281zM600 282L600 280L599 281zM659 311L660 310L658 310L659 311zM629 313L629 313zM627 278L628 277L627 278zM629 281L629 281zM664 300L663 300zM620 351L620 348L618 349L619 351zM644 367L643 367zM683 224L684 223L683 224zM672 251L673 250L672 251zM598 260L597 260zM660 296L661 295L659 295zM658 311L658 310zM623 322L622 322zM618 328L617 328zM658 357L658 357zM661 358L660 358zM683 226L683 225zM672 250L671 250zM596 263L596 263zM609 268L608 268zM602 272L602 271zM610 275L611 274L610 275zM642 360L642 360zM647 298L647 297z"/><path class="leaflet-interactive" stroke="#333" stroke-opacity="1" stroke-width="1" stroke-linecap="round" stroke-linejoin="round" stroke-dasharray="1,6" fill="#eee" fill-opacity="0.5" fill-rule="evenodd" d="M543 225L537 230L535 235L519 237L516 240L513 240L514 258L509 260L506 265L502 268L496 270L495 273L496 284L494 286L494 292L497 296L502 294L516 294L518 292L533 289L534 286L542 287L554 285L555 281L563 279L570 272L571 268L577 267L575 250L572 246L572 233L574 228L573 222L566 221L563 223L562 227L559 228L549 229L546 227z"/><path class="leaflet-interactive" stroke="#333" stroke-opacity="1" stroke-width="1" stroke-linecap="round" stroke-linejoin="round" stroke-dasharray="1,6" fill="#eee" fill-opacity="0.5" fill-rule="evenodd" d="M447 305L453 308L456 312L469 311L477 313L481 320L489 323L494 328L492 334L500 334L500 319L486 320L483 315L494 306L487 304L486 299L497 299L498 297L494 292L494 287L496 284L496 270L493 270L492 267L488 267L480 271L479 272L481 273L481 275L478 280L474 283L471 283L471 278L452 279L444 283z"/><path class="leaflet-interactive" stroke="#333" stroke-opacity="1" stroke-width="1" stroke-linecap="round" stroke-linejoin="round" stroke-dasharray="1,6" fill="#eee" fill-opacity="0.5" fill-rule="evenodd" d="M431 319L377 316L355 330L351 327L351 325L361 324L364 320L366 314L362 310L345 314L342 311L313 321L312 324L314 326L311 333L313 341L307 349L307 351L297 354L292 362L288 361L284 363L282 367L284 369L289 368L288 372L280 375L280 380L276 381L273 384L273 392L276 397L275 402L279 407L277 413L280 414L285 412L289 408L293 409L297 407L306 400L308 395L311 394L313 394L314 398L322 405L338 404L342 401L342 395L349 393L354 387L363 386L368 383L374 384L372 391L381 402L385 402L391 398L394 398L405 389L407 384L400 382L399 379L396 380L391 376L392 372L400 369L399 365L392 358L391 353L402 358L408 358L409 355L407 348L409 347L409 342L407 338L411 337L413 328L415 326L426 326L432 320zM414 402L412 399L417 396L415 394L417 392L416 391L411 392L409 394L410 395L407 399L412 402L410 405L403 409L407 411L406 412L410 411L413 407L417 409L421 405L419 402L416 403zM491 396L489 392L486 394L484 393L483 388L479 386L481 380L480 378L477 377L468 382L471 388L464 394L465 400L470 401L475 397L475 394L477 395L478 398L477 404L479 408L478 415L477 417L474 418L475 425L480 425L483 427L486 424L489 427L492 427L490 419L492 419L498 425L501 424L496 411L501 406L507 406L508 403L507 401L500 399L496 402L490 402L485 406L484 403L491 397zM384 418L387 416L387 414L385 414L385 410L381 408L378 414L383 418zM330 427L331 425L333 425L332 423L328 423L324 419L322 421L322 425L323 426L326 424L329 427zM575 431L573 438L576 437L574 440L578 440L576 444L577 445L582 442L584 438L591 439L589 434L589 428L585 424L583 424L582 427L579 427L576 430zM320 444L322 442L328 441L328 436L331 435L329 433L326 433L324 435L326 436L325 437L317 440L320 443zM418 363L412 363L410 365L411 367L414 367L417 370L419 370L420 375L423 377L426 373L423 369L424 365L420 363zM421 347L427 344L425 341L420 341L424 339L425 337L423 336L414 339L417 340L417 343L421 347zM318 432L320 431L319 430L317 432zM569 426L570 424L576 425L578 423L578 418L569 418L568 426zM427 364L432 361L431 358L425 360L426 364zM600 425L602 423L601 417L599 417L599 419L597 419L596 421L599 425zM334 446L334 445zM336 427L336 425L336 427zM433 340L435 340L432 339L433 340zM322 431L322 429L321 430zM613 422L614 418L612 422zM446 345L448 345L449 342L446 341L445 345zM336 428L336 427zM272 398L273 397L271 395L272 398zM573 440L572 441L574 439zM488 391L490 390L489 388L488 391zM330 439L330 439zM351 398L351 398zM611 424L613 423L612 422L611 424zM602 419L602 418zM563 429L564 428L563 429zM323 431L323 430z"/></g></svg>