<svg xmlns="http://www.w3.org/2000/svg" pointer-events="none" class="leaflet-zoom-animated" width="1060" height="563" viewBox="-88 -47 1060 563" style="transform: translate3d(-88px, -47px, 0px);"><g><path class="leaflet-interactive" stroke="black" stroke-opacity="1" stroke-width="2" stroke-linecap="round" stroke-linejoin="round" fill="#fff" fill-opacity="0.2" fill-rule="evenodd" d="M436 393L436 398L443 405L449 405L453 402L457 402L461 404L461 406L464 405L468 411L468 413L466 413L467 423L470 421L479 423L477 429L480 432L479 435L482 436L484 439L486 440L491 437L490 430L491 431L497 425L500 430L499 437L502 440L503 445L506 446L505 450L507 451L509 456L512 457L517 455L517 447L520 448L525 445L528 446L530 444L529 443L532 441L534 441L534 445L536 447L542 440L542 447L544 453L552 456L555 460L557 457L562 459L564 458L562 456L562 447L564 440L560 419L556 415L560 412L564 412L566 410L567 411L573 406L572 403L574 403L577 399L580 402L601 409L604 408L606 405L606 395L614 388L613 383L617 381L616 380L619 376L618 373L623 369L623 358L626 355L626 348L628 342L631 340L629 333L631 333L632 330L638 328L643 320L639 314L638 309L641 305L641 302L650 297L650 295L647 295L644 298L637 296L634 298L630 298L616 304L614 307L606 306L598 313L595 313L593 320L587 319L576 322L573 320L572 322L570 322L570 320L567 319L561 321L557 320L555 313L549 307L552 304L553 300L551 297L552 294L548 294L548 291L546 289L550 280L547 281L544 279L539 281L532 274L533 273L531 272L531 270L529 270L528 266L524 266L524 263L522 261L520 261L519 264L516 262L515 264L513 264L512 260L506 259L506 256L505 257L502 255L493 258L490 256L486 256L479 249L477 240L480 233L475 231L473 216L464 203L464 198L466 194L463 194L464 197L462 196L464 192L461 189L462 186L459 184L460 181L453 169L456 165L455 163L450 161L453 158L450 157L451 154L449 151L448 152L448 149L445 147L444 148L442 145L445 144L444 142L446 141L444 139L442 141L439 135L436 137L438 132L434 128L433 130L431 127L425 124L420 124L418 125L418 127L414 126L414 124L409 124L403 117L400 118L398 115L395 113L391 113L390 111L388 111L388 113L387 110L386 113L385 111L382 110L378 113L377 112L373 114L363 115L360 112L354 116L349 115L341 119L348 129L343 136L344 137L334 147L336 147L341 152L345 153L344 154L347 158L350 159L355 150L357 152L360 152L363 158L370 160L370 162L366 164L366 166L369 171L369 178L372 183L372 189L375 194L384 196L393 192L396 195L402 193L406 196L407 193L409 192L411 192L412 194L415 193L415 191L417 192L422 183L426 182L432 187L440 198L440 200L445 204L444 209L442 209L442 211L438 215L438 222L433 226L434 227L432 227L433 230L426 238L428 240L427 239L425 243L426 246L424 247L426 251L424 255L426 257L427 264L423 272L421 270L418 270L416 272L417 274L412 283L413 284L411 290L409 292L409 298L411 301L409 305L410 306L407 308L408 305L405 300L405 294L402 294L387 310L382 313L379 318L366 326L362 333L367 341L372 342L370 346L373 347L373 351L376 354L379 353L381 349L383 350L384 347L383 345L382 346L382 344L385 347L387 347L387 350L389 348L389 354L383 355L380 358L376 357L375 363L379 369L381 368L383 370L389 370L394 367L396 368L395 369L397 369L399 377L397 379L399 382L398 385L401 388L401 390L403 389L403 391L406 392L407 396L418 396L419 392L419 394L421 394L423 398L426 396L429 397L430 394L432 395L435 393zM401 221L397 223L398 226L396 228L393 225L392 228L397 235L400 233L404 233L404 235L406 234L408 222L402 221z"/><path class="leaflet-interactive" stroke="#333" stroke-opacity="1" stroke-width="1" stroke-linecap="round" stroke-linejoin="round" stroke-dasharray="1,6" fill="#eee" fill-opacity="0.5" fill-rule="evenodd" d="M438 393L436 393L436 398L443 405L449 405L453 402L457 402L461 404L461 406L464 405L468 411L468 413L466 413L467 423L470 421L479 423L477 426L477 429L480 432L479 435L486 440L491 437L490 430L491 431L495 427L498 421L505 420L505 418L511 413L513 413L513 410L511 408L513 408L516 403L516 401L514 401L513 399L516 397L514 395L514 390L518 390L518 388L520 388L519 387L525 382L524 381L530 381L529 378L531 378L532 380L536 380L537 376L540 373L532 365L536 365L538 363L539 357L537 361L536 358L534 359L532 357L529 360L527 360L525 357L520 356L518 356L516 360L513 359L510 361L506 361L500 357L498 357L497 359L494 358L491 361L484 357L479 361L475 355L470 356L458 366L457 371L455 371L453 375L447 375L449 378L448 379L449 378L451 381L451 385L448 388L443 387L441 392L438 393z"/><path class="leaflet-interactive" stroke="#333" stroke-opacity="1" stroke-width="1" stroke-linecap="round" stroke-linejoin="round" stroke-dasharray="1,6" fill="#eee" fill-opacity="0.5" fill-rule="evenodd" d="M415 279L412 283L413 284L409 292L409 298L411 301L409 305L410 306L407 308L408 305L405 300L405 294L402 294L387 310L382 313L379 318L366 326L362 333L367 341L372 342L370 346L373 347L373 351L376 354L379 353L381 349L383 350L384 347L383 345L382 346L382 344L385 347L387 347L387 350L389 348L389 354L383 355L380 358L375 358L375 363L379 369L381 368L383 370L389 370L394 367L395 364L393 361L394 359L392 354L393 353L395 355L398 352L396 349L398 344L402 340L405 340L407 338L407 334L409 332L412 334L422 328L422 331L428 332L428 334L430 335L453 332L456 327L455 321L457 317L456 315L458 312L458 306L456 303L450 305L450 301L444 301L440 299L439 292L437 292L437 290L438 291L443 285L439 281L437 283L434 280L427 286L423 286L420 283L421 280L416 279z"/><path class="leaflet-interactive" stroke="#333" stroke-opacity="1" stroke-width="1" stroke-linecap="round" stroke-linejoin="round" stroke-dasharray="1,6" fill="#eee" fill-opacity="0.5" fill-rule="evenodd" d="M575 381L570 380L567 384L567 387L566 386L564 390L558 388L556 388L556 390L552 390L545 400L545 404L543 406L545 408L548 407L551 411L554 410L556 414L558 414L560 412L564 412L566 410L567 411L573 406L572 403L574 403L577 399L580 402L601 409L604 408L606 405L606 395L614 388L613 383L617 381L616 380L619 376L618 373L623 369L622 366L624 364L622 360L612 360L608 358L608 360L602 366L602 371L600 373L598 373L597 371L590 378L588 376L586 378L586 382L584 383L578 382L576 384L575 381z"/><path class="leaflet-interactive" stroke="#333" stroke-opacity="1" stroke-width="1" stroke-linecap="round" stroke-linejoin="round" stroke-dasharray="1,6" fill="#eee" fill-opacity="0.5" fill-rule="evenodd" d="M552 298L547 301L540 301L540 305L537 306L532 300L530 302L527 314L529 318L532 320L533 325L531 327L531 333L533 336L536 337L540 342L548 340L550 337L547 334L548 333L552 335L557 334L556 337L559 338L565 338L568 336L575 335L580 336L582 331L588 328L592 320L587 319L576 322L573 320L572 322L570 322L570 320L567 319L561 321L557 320L555 313L549 307L552 304L553 299z"/><path class="leaflet-interactive" stroke="#333" stroke-opacity="1" stroke-width="1" stroke-linecap="round" stroke-linejoin="round" stroke-dasharray="1,6" fill="#eee" fill-opacity="0.5" fill-rule="evenodd" d="M637 329L638 318L636 314L636 316L633 318L633 322L630 323L630 325L627 324L628 325L626 325L626 327L618 326L616 330L614 329L609 334L606 348L604 348L598 353L596 350L590 350L588 352L585 351L584 348L586 346L582 345L578 345L576 346L576 348L569 348L570 342L567 342L561 346L553 346L554 347L551 350L549 350L549 352L551 354L551 358L555 358L558 361L557 363L559 365L563 365L563 367L573 371L573 374L577 375L578 377L575 380L575 384L577 384L578 381L579 383L586 382L586 378L588 376L590 378L596 371L599 373L602 370L602 366L608 361L607 360L610 357L610 359L618 359L622 361L623 360L623 358L626 355L626 348L628 342L631 340L629 333L631 333L632 330L636 329z"/><path class="leaflet-interactive" stroke="#333" stroke-opacity="1" stroke-width="1" stroke-linecap="round" stroke-linejoin="round" stroke-dasharray="1,6" fill="#eee" fill-opacity="0.5" fill-rule="evenodd" d="M428 335L428 333L422 331L422 328L412 334L407 333L408 334L406 340L402 340L396 348L398 353L395 355L393 353L392 354L395 364L394 367L396 368L395 369L397 369L399 377L397 379L399 382L398 385L401 388L401 390L403 389L403 391L406 392L407 396L418 396L419 392L419 394L421 394L423 398L426 396L429 397L430 394L432 395L434 393L438 393L437 388L439 387L437 386L438 385L436 380L430 381L429 373L425 373L422 369L422 372L426 373L423 377L421 375L418 376L418 372L422 369L420 363L422 361L425 362L423 363L425 364L427 363L424 360L426 361L425 357L427 356L424 350L428 343L428 339z"/><path class="leaflet-interactive" stroke="#333" stroke-opacity="1" stroke-width="1" stroke-linecap="round" stroke-linejoin="round" stroke-dasharray="1,6" fill="#eee" fill-opacity="0.5" fill-rule="evenodd" d="M494 358L497 359L499 357L503 359L504 358L505 361L512 361L514 359L516 360L518 356L523 357L528 353L524 348L524 343L528 341L527 340L532 334L531 326L533 326L533 322L527 314L529 310L528 307L530 305L529 302L531 302L531 300L537 306L540 305L541 301L545 299L546 301L550 300L552 298L552 294L548 294L548 291L546 289L550 280L547 281L544 279L539 281L532 274L533 273L531 272L531 270L529 270L528 266L524 266L524 263L522 261L520 261L520 263L516 264L515 266L517 273L522 276L521 277L523 281L517 284L518 285L515 285L517 287L515 290L512 291L510 296L511 297L507 302L506 297L499 298L496 304L497 305L495 305L492 308L492 313L493 312L497 316L495 316L496 320L494 327L497 329L497 331L499 331L499 333L501 331L500 335L493 341L488 341L480 345L482 345L481 346L493 358z"/><path class="leaflet-interactive" stroke="#333" stroke-opacity="1" stroke-width="1" stroke-linecap="round" stroke-linejoin="round" stroke-dasharray="1,6" fill="#eee" fill-opacity="0.5" fill-rule="evenodd" d="M637 329L641 325L643 320L639 314L638 309L641 305L641 302L650 297L650 295L647 295L644 298L637 296L634 298L630 298L616 304L614 307L604 307L598 313L595 313L593 320L590 322L591 323L587 329L581 332L580 336L575 335L560 338L556 337L557 334L552 335L548 333L547 334L550 337L547 340L541 342L536 337L534 337L533 334L531 336L530 335L528 342L525 343L524 346L528 353L523 356L527 360L529 360L532 357L534 359L535 358L535 360L537 361L539 357L537 364L532 365L534 367L535 366L538 371L547 378L549 379L551 377L558 376L562 377L563 375L564 378L567 370L563 367L563 365L559 364L558 361L556 361L556 358L551 358L549 350L551 350L554 347L553 346L561 346L569 342L569 348L577 348L576 346L581 345L586 346L584 348L585 351L588 352L590 350L596 350L600 352L604 348L606 348L608 344L607 343L609 334L613 329L615 330L618 326L625 327L628 325L627 324L630 325L630 323L633 322L633 318L634 316L636 316L636 314L638 320L637 319L637 326zM568 369L570 373L571 370L569 370z"/><path class="leaflet-interactive" stroke="#333" stroke-opacity="1" stroke-width="1" stroke-linecap="round" stroke-linejoin="round" stroke-dasharray="1,6" fill="#eee" fill-opacity="0.5" fill-rule="evenodd" d="M571 370L570 373L569 370L568 371L568 369L566 369L567 370L563 378L563 376L560 377L558 375L558 377L550 377L550 379L540 373L537 376L537 380L539 382L538 388L539 387L539 389L540 388L542 390L543 388L549 391L551 389L556 390L556 388L558 388L564 391L565 387L568 386L567 384L569 381L575 381L578 377L578 375L573 374L572 370L571 371z"/><path class="leaflet-interactive" stroke="#333" stroke-opacity="1" stroke-width="1" stroke-linecap="round" stroke-linejoin="round" stroke-dasharray="1,6" fill="#eee" fill-opacity="0.5" fill-rule="evenodd" d="M494 428L497 425L499 427L499 437L502 440L503 445L506 446L505 450L507 451L509 456L512 457L517 455L517 447L520 448L525 445L528 446L530 444L529 443L532 441L534 441L534 445L536 447L542 440L542 447L544 453L552 456L555 460L557 457L560 459L564 458L562 456L562 447L564 440L560 419L553 410L552 411L547 407L545 408L543 406L545 404L545 400L552 391L545 390L543 388L541 390L540 388L539 389L538 380L532 380L530 378L529 381L524 381L525 382L521 386L519 386L520 388L518 388L518 390L515 390L514 395L516 397L513 398L516 401L516 403L514 405L515 406L511 408L513 412L508 415L506 420L498 420L495 424L495 427z"/><path class="leaflet-interactive" stroke="#333" stroke-opacity="1" stroke-width="1" stroke-linecap="round" stroke-linejoin="round" stroke-dasharray="1,6" fill="#fff" fill-opacity="0" fill-rule="evenodd" d="M444 208L440 212L441 213L438 214L439 221L433 226L434 227L432 227L433 230L426 238L428 240L426 240L426 246L424 247L426 249L425 254L424 253L427 260L427 264L425 267L426 268L423 272L421 270L418 270L416 272L417 274L415 279L421 280L420 283L423 286L426 286L430 283L431 284L431 282L434 280L436 283L439 281L443 285L440 288L441 289L437 291L439 292L439 297L444 301L449 301L451 304L450 305L455 303L458 306L455 321L456 325L457 322L461 319L466 320L478 316L482 318L488 307L491 309L495 305L496 306L500 298L505 297L508 302L510 300L512 291L515 290L517 287L515 285L522 282L523 279L521 277L522 276L517 273L515 266L517 263L518 264L516 262L515 264L513 264L512 260L506 259L506 256L505 257L502 255L493 258L490 256L486 256L481 252L477 242L480 233L475 231L473 216L466 206L466 208L463 209L454 209L449 205L447 207L446 206L446 208L444 208z"/><path class="leaflet-interactive" stroke="#333" stroke-opacity="1" stroke-width="1" stroke-linecap="round" stroke-linejoin="round" stroke-dasharray="1,6" fill="#eee" fill-opacity="0.5" fill-rule="evenodd" d="M438 393L440 393L444 387L448 388L451 385L452 381L450 380L450 378L449 379L447 375L453 375L455 371L457 371L458 366L470 356L475 355L479 361L484 358L493 360L494 358L492 358L481 346L482 345L480 345L488 341L491 342L500 336L501 330L499 333L499 331L497 331L497 329L494 326L496 314L494 312L492 313L491 308L488 307L486 309L486 313L482 318L478 316L475 318L469 318L464 320L461 319L456 324L456 327L453 332L428 335L428 343L424 349L424 352L427 355L425 356L426 360L424 360L427 362L426 364L423 363L425 362L422 361L422 368L418 372L418 375L423 376L426 373L423 372L423 369L423 371L429 373L430 381L436 380L438 384L437 385L439 387L437 389L437 392z"/><path class="leaflet-interactive" stroke="#333" stroke-opacity="1" stroke-width="1" stroke-linecap="round" stroke-linejoin="round" stroke-dasharray="1,6" fill="#eee" fill-opacity="0.5" fill-rule="evenodd" d="M467 206L464 203L464 198L466 194L463 194L464 197L462 196L464 192L461 189L462 186L459 184L460 181L453 169L456 165L455 163L450 161L453 158L450 157L451 154L449 151L448 152L448 149L445 147L444 148L442 145L445 144L444 142L446 141L444 139L442 141L439 135L436 137L438 132L434 128L433 130L431 127L425 124L420 124L418 125L418 127L414 126L414 124L409 124L403 117L400 118L398 115L395 113L391 113L390 111L388 111L388 113L387 110L386 113L385 111L382 110L378 113L377 112L373 114L363 115L360 112L354 116L349 115L341 119L348 129L343 136L344 137L334 147L336 147L341 152L345 153L344 154L347 158L350 159L355 150L357 152L360 152L363 158L370 160L370 162L366 164L366 166L369 171L369 178L372 183L372 189L375 194L384 196L393 192L396 195L402 193L406 196L407 193L409 192L411 192L412 194L415 193L415 191L417 192L422 183L426 182L432 187L440 198L440 200L445 204L444 207L446 208L446 206L447 207L449 205L454 209L463 209L466 208L466 206zM401 221L397 223L398 226L396 228L393 225L392 228L397 235L400 233L404 233L404 235L406 234L408 222L402 221z"/></g></svg>